<?xml version="1.0" standalone="no"?>
<!DOCTYPE svg PUBLIC "-//W3C//DTD SVG 1.1//EN" "http://www.w3.org/Graphics/SVG/1.1/DTD/svg11.dtd" >
<svg xmlns="http://www.w3.org/2000/svg" xmlns:xlink="http://www.w3.org/1999/xlink" version="1.1">
<metadata>
Created by FontForge 20170731 at Mon Apr 26 17:07:32 2021
 By Aleksey,,,
(c)2012 Paul Barnes, Christian Schwartz, and Ross Milne, under exclusive license to Schwartzco Inc./Commercial Type. All rights reserved.
</metadata>
<defs>
<font id="PublicoBanner-UltraItalic" horiz-adv-x="1024" >
  <font-face 
    font-family="Publico Banner Ultra"
    font-weight="900"
    font-style="italic"
    font-stretch="normal"
    units-per-em="2048"
    panose-1="2 4 11 2 6 5 4 6 2 3"
    ascent="1645"
    descent="-403"
    x-height="1104"
    cap-height="1419"
    bbox="-494 -520 2812 2216"
    underline-thickness="145"
    underline-position="-302"
    slope="-10"
    unicode-range="U+0020-FB04"
  />
<missing-glyph 
 />
    <glyph glyph-name="f_f" unicode="ff" horiz-adv-x="1505" 
d="M1384 952l-96 -559q-67 -390 -257 -588t-486 -198q-107 0 -181.5 28.5t-107.5 77.5q-175 -131 -403 -131q-150 0 -233 58.5t-83 154.5q0 66 44 108t122 42q95 0 134.5 -53.5t51.5 -194.5q5 -57 27 -57q13 0 24 21t27 92t37 200l160 999h-129l8 45l145 86l5 19
q33 146 131 246t232 145t298 45q190 0 281 -72q166 97 403 97q177 0 276 -59t99 -152q0 -71 -45.5 -115.5t-126.5 -44.5q-100 0 -145 59.5t-54 200.5q-3 55 -22 55q-27 0 -44 -62.5t-57 -291.5l-12 -70h195l-39 -131h-179zM702 952l-96 -559q-51 -282 -160 -461
q59 -13 87.5 -65t37.5 -154q3 -29 9.5 -39t17.5 -10q13 0 25 20t30.5 91t38.5 196l158 981h-148zM872 1083q15 77 46 148q-51 57 -60 203q-1 19 -2.5 28t-5.5 16t-12 7q-14 0 -23.5 -10.5t-21 -47t-24 -99t-32.5 -175.5l-12 -70h147z" />
    <glyph glyph-name="f_i" unicode="fi" horiz-adv-x="1396" 
d="M803 952h-101l-96 -559q-67 -392 -263 -601.5t-490 -209.5q-150 0 -233 58.5t-83 154.5q0 66 44 108t122 42q95 0 134.5 -53.5t51.5 -194.5q5 -57 27 -57q13 0 24 21t27 92t37 200l160 999h-129l8 45l145 86l5 19q51 226 225 343.5t456 117.5q204 0 318.5 -65t114.5 -165
q0 -79 -52.5 -127.5t-146.5 -48.5q-113 0 -164.5 65.5t-62.5 219.5q-3 61 -27 61q-23 0 -39 -27.5t-34 -101.5t-44 -221l-12 -70h479q81 0 128.5 -34.5t47.5 -106.5q0 -41 -26 -174l-101 -487q-10 -52 -10 -70q0 -59 94 -4l25 14l20 -33q-235 -213 -475 -213q-98 0 -148 46
t-50 118q0 51 26 189l109 536q12 51 4.5 69.5t-45.5 18.5z" />
    <glyph glyph-name="f_l" unicode="fl" horiz-adv-x="1415" 
d="M702 952l-96 -559q-67 -392 -263 -601.5t-490 -209.5q-150 0 -233 58.5t-83 154.5q0 66 44 108t122 42q95 0 134.5 -53.5t51.5 -194.5q5 -57 27 -57q13 0 24 21t27 92t37 200l160 999h-129l8 45l145 86l5 19q33 147 136 252.5t249 157t319 51.5q234 0 328 -101l256 88
l20 -18q-28 -107 -55 -246l-191 -1003q-10 -52 -10 -72q0 -18 14.5 -23.5t40 2t56.5 25.5l24 14l21 -32q-233 -222 -479 -222q-107 0 -159 44.5t-52 119.5t30 234l111 579h-150zM737 1153l-12 -70h152l45 238q-18 65 -21 131q-2 29 -8 42t-25 13q-27 0 -46 -28t-39 -104
t-46 -222z" />
    <glyph glyph-name="f_f_i" unicode="ffi" horiz-adv-x="2078" 
d="M1288 393q-67 -390 -257 -588t-486 -198q-107 0 -181.5 28.5t-107.5 77.5q-175 -131 -403 -131q-150 0 -233 58.5t-83 154.5q0 66 44 108t122 42q95 0 134.5 -53.5t51.5 -194.5q5 -57 27 -57q13 0 24 21t27 92t37 200l160 999h-129l8 45l145 86l5 19q33 146 131 246
t232 145t298 45q183 0 279 -70q170 95 423 95q204 0 318.5 -65t114.5 -165q0 -79 -52.5 -127.5t-146.5 -48.5q-113 0 -164.5 65.5t-62.5 219.5q-3 61 -27 61q-23 0 -39 -27.5t-34 -101.5t-44 -221l-12 -70h479q81 0 128.5 -34.5t47.5 -106.5q0 -41 -26 -174l-101 -487
q-10 -52 -10 -70q0 -59 94 -4l25 14l20 -33q-235 -213 -475 -213q-98 0 -148 46t-50 118q0 51 26 189l109 536q12 51 4.5 69.5t-45.5 18.5h-101zM702 952l-96 -559q-51 -282 -160 -461q59 -13 87.5 -65t37.5 -154q3 -29 9.5 -39t17.5 -10q13 0 24.5 20t29.5 91t38 196
l160 981h-148zM737 1153l-12 -70h145q13 71 45 150q-48 57 -57 201q-1 19 -2.5 28t-5.5 16t-12 7q-14 0 -23.5 -10.5t-21 -47t-24 -99t-32.5 -175.5z" />
    <glyph glyph-name="f_f_l" unicode="ffl" horiz-adv-x="2099" 
d="M1425 373l111 579h-150l-96 -559q-67 -389 -258 -587.5t-487 -198.5q-107 0 -181.5 28.5t-107.5 77.5q-175 -131 -403 -131q-150 0 -233 58.5t-83 154.5q0 66 44 108t122 42q95 0 134.5 -53.5t51.5 -194.5q5 -57 27 -57q13 0 24 21t27 92t37 200l160 999h-129l8 45
l145 86l5 19q33 146 131 246t232 145t298 45q198 0 291 -80q185 105 436 105q234 0 328 -101l256 88l20 -18q-28 -107 -55 -246l-191 -1003q-10 -52 -10 -72q0 -18 14.5 -23.5t40 2t56.5 25.5l24 14l21 -32q-233 -222 -479 -222q-107 0 -159 44.5t-52 119.5t30 234zM702 952
l-96 -559q-51 -282 -160 -461q59 -13 87.5 -65t37.5 -154q3 -29 9.5 -39t17.5 -10q13 0 25 20t30.5 91t38.5 196l158 981h-148zM1421 1153l-12 -70h152l45 238q-18 65 -21 131q-2 29 -8 42t-25 13q-27 0 -46 -28t-39 -104t-46 -222zM737 1153l-12 -70h147v2q10 66 46 146
q-51 57 -60 203q-1 19 -2.5 28t-5.5 16t-12 7q-14 0 -23.5 -10.5t-21 -47t-24 -99t-32.5 -175.5z" />
    <glyph glyph-name="f_b" unicode="fb" horiz-adv-x="2056" 
d="M702 952l-96 -559q-67 -392 -263 -601.5t-490 -209.5q-150 0 -233 58.5t-83 154.5q0 66 44 108t122 42q95 0 134.5 -53.5t51.5 -194.5q5 -57 27 -57q13 0 24 21t27 92t37 200l160 999h-129l8 45l145 86l5 19q33 147 136 252.5t249 157t319 51.5q234 0 328 -101l260 88
l20 -18q-28 -109 -55 -246l-84 -424h4q77 106 180.5 174t223.5 68q122 0 199 -92.5t77 -245.5q0 -369 -221.5 -580t-628.5 -211q-174 0 -307.5 49t-198.5 119v19l158 790h-150zM1264 31q55 0 112 132t91 305.5t34 305.5q0 82 -45 82q-31 0 -63 -31t-47 -59l-136 -678
q2 -25 16.5 -41t37.5 -16zM737 1153l-12 -70h154l45 228q-17 52 -23 141q-2 29 -8 42t-25 13q-27 0 -46 -28t-39 -104t-46 -222z" />
    <glyph glyph-name="f_f_b" unicode="ffb" horiz-adv-x="2740" 
d="M1884 -25q-174 0 -307.5 49t-198.5 119v19l158 790h-150l-96 -559q-67 -389 -258 -587.5t-487 -198.5q-107 0 -181.5 28.5t-107.5 77.5q-175 -131 -403 -131q-150 0 -233 58.5t-83 154.5q0 66 44 108t122 42q95 0 134.5 -53.5t51.5 -194.5q5 -57 27 -57q13 0 24 21t27 92
t37 200l160 999h-129l8 45l145 86l5 19q33 146 131 246t232 145t298 45q198 0 291 -80q185 105 436 105q234 0 328 -101l260 88l20 -18q-28 -109 -55 -246l-84 -424h4q77 106 180.5 174t223.5 68q122 0 199 -92.5t77 -245.5q0 -369 -221.5 -580t-628.5 -211zM702 952
l-96 -559q-51 -282 -160 -461q59 -13 87.5 -65t37.5 -154q3 -29 9.5 -39t17.5 -10q13 0 25 20t30.5 91t38.5 196l158 981h-148zM1948 31q55 0 112 132t91 305.5t34 305.5q0 82 -45 82q-31 0 -63 -31t-47 -59l-136 -678q2 -25 16.5 -41t37.5 -16zM1421 1153l-12 -70h154
l45 228q-17 52 -23 141q-2 29 -8 42t-25 13q-27 0 -46 -28t-39 -104t-46 -222zM737 1153l-12 -70h147v2q10 66 46 146q-51 57 -60 203q-1 19 -2.5 28t-5.5 16t-12 7q-14 0 -23.5 -10.5t-21 -47t-24 -99t-32.5 -175.5z" />
    <glyph glyph-name="f_f_h" unicode="ffh" horiz-adv-x="2762" 
d="M2054 840q95 119 222 191.5t255 72.5q95 0 151 -51t56 -135q0 -80 -33 -226l-96 -422q-8 -33 -8 -63q0 -17 12 -23.5t33.5 -1t48.5 20.5l23 12l20 -31q-107 -98 -230 -153.5t-245 -55.5q-100 0 -148.5 49t-48.5 126q0 42 23 147l88 418q25 121 -27 121q-53 0 -125 -99
l-147 -737h-532l192 952h-152l-96 -559q-67 -389 -258 -587.5t-487 -198.5q-107 0 -181.5 28.5t-107.5 77.5q-175 -131 -403 -131q-150 0 -233 58.5t-83 154.5q0 66 44 108t122 42q95 0 134.5 -53.5t51.5 -194.5q5 -57 27 -57q13 0 24 21t27 92t37 200l160 999h-129l8 45
l145 86l5 19q33 146 131 246t232 145t298 45q198 0 291 -80q185 105 436 105q116 0 201 -27.5t129 -75.5l260 90l20 -18q-24 -103 -53 -246l-90 -446h6zM702 952l-96 -559q-51 -282 -160 -461q59 -13 87.5 -65t37.5 -154q3 -29 9.5 -39t17.5 -10q13 0 25 20t30.5 91
t38.5 196l158 981h-148zM1421 1153l-12 -70h156l45 224q-19 59 -25 145q-2 29 -8 42t-25 13q-27 0 -46 -28t-39 -104t-46 -222zM737 1153l-12 -70h147v2q10 66 46 146q-51 57 -60 203q-1 19 -2.5 28t-5.5 16t-12 7q-14 0 -23.5 -10.5t-21 -47t-24 -99t-32.5 -175.5z" />
    <glyph glyph-name="f_f_j" unicode="ffj" horiz-adv-x="2078" 
d="M2036 766l-113 -580q-22 -114 -72 -212t-117.5 -168.5t-149.5 -121t-170 -75.5t-177 -25q-123 0 -204.5 34t-117.5 91q-159 -102 -370 -102q-107 0 -181.5 28.5t-107.5 77.5q-175 -131 -403 -131q-150 0 -233 58.5t-83 154.5q0 66 44 108t122 42q95 0 134.5 -53.5
t51.5 -194.5q5 -57 27 -57q13 0 24 21t27 92t37 200l160 999h-129l8 45l145 86l5 19q33 146 131 246t232 145t298 45q183 0 279 -70q170 95 423 95q204 0 318.5 -65t114.5 -165q0 -79 -52.5 -127.5t-146.5 -48.5q-113 0 -164.5 65.5t-62.5 219.5q-3 61 -27 61
q-23 0 -39 -27.5t-34 -101.5t-44 -221l-12 -70h479q81 0 128.5 -34.5t47.5 -106.5q0 -40 -26 -176zM702 952l-96 -559q-51 -282 -160 -461q59 -13 87.5 -65t37.5 -154q3 -29 9.5 -39t17.5 -10q13 0 24.5 20t29.5 91t38 196l160 981h-148zM1288 393q-50 -282 -160 -459
q49 -17 75 -69t40 -160q8 -65 29 -65q17 0 27 34t34 166q13 70 21 113l172 911q11 51 4 69.5t-45 18.5h-101zM737 1153l-12 -70h145q13 71 45 150q-48 57 -57 201q-1 19 -2.5 28t-5.5 16t-12 7q-14 0 -23.5 -10.5t-21 -47t-24 -99t-32.5 -175.5z" />
    <glyph glyph-name="f_f_k" unicode="ffk" horiz-adv-x="2791" 
d="M1346 0l192 952h-152l-96 -559q-67 -389 -258 -587.5t-487 -198.5q-107 0 -181.5 28.5t-107.5 77.5q-175 -131 -403 -131q-150 0 -233 58.5t-83 154.5q0 66 44 108t122 42q95 0 134.5 -53.5t51.5 -194.5q5 -57 27 -57q13 0 24 21t27 92t37 200l160 999h-129l8 45l145 86
l5 19q33 146 131 246t232 145t298 45q198 0 291 -80q185 105 436 105q116 0 201 -27.5t129 -75.5l262 90l20 -18q-28 -105 -55 -244l-260 -1288h-532zM2550 285q17 -47 32.5 -67t42.5 -20t72 25l29 17l22 -27q-216 -240 -460 -240q-103 0 -158.5 68t-87.5 203
q-33 129 -43 274l4 33q145 249 334 412q82 71 151 106t142 35q78 0 130 -54.5t52 -134.5q0 -73 -54 -120t-116 -47q-48 0 -80.5 21t-47.5 51t-25 60t-21 51t-27 21q-31 0 -59 -37q65 -354 168 -630zM702 952l-96 -559q-51 -282 -160 -461q59 -13 87.5 -65t37.5 -154
q3 -29 9.5 -39t17.5 -10q13 0 25 20t30.5 91t38.5 196l158 981h-148zM1421 1153l-12 -70h156l45 224q-19 59 -25 145q-2 29 -8 42t-25 13q-27 0 -46 -28t-39 -104t-46 -222zM737 1153l-12 -70h147v2q10 66 46 146q-51 57 -60 203q-1 19 -2.5 28t-5.5 16t-12 7
q-14 0 -23.5 -10.5t-21 -47t-24 -99t-32.5 -175.5z" />
    <glyph glyph-name="f_h" unicode="fh" horiz-adv-x="2078" 
d="M702 952l-96 -559q-67 -392 -263 -601.5t-490 -209.5q-150 0 -233 58.5t-83 154.5q0 66 44 108t122 42q95 0 134.5 -53.5t51.5 -194.5q5 -57 27 -57q13 0 24 21t27 92t37 200l160 999h-129l8 45l145 86l5 19q33 147 136 252.5t249 157t319 51.5q116 0 201 -27.5
t129 -75.5l260 90l20 -18q-24 -103 -53 -246l-90 -446h6q95 119 222 191.5t255 72.5q95 0 151 -51t56 -135q0 -80 -33 -226l-96 -422q-8 -33 -8 -63q0 -17 12 -23.5t33.5 -1t48.5 20.5l23 12l20 -31q-107 -98 -230 -153.5t-245 -55.5q-100 0 -148.5 49t-48.5 126
q0 42 23 147l88 418q25 121 -27 121q-53 0 -125 -99l-147 -737h-532l192 952h-152zM737 1153l-12 -70h156l45 224q-19 59 -25 145q-2 29 -8 42t-25 13q-27 0 -46 -28t-39 -104t-46 -222z" />
    <glyph glyph-name="f_j" unicode="fj" horiz-adv-x="1396" 
d="M555 -416q-234 0 -315 117q-169 -119 -387 -119q-150 0 -233 58.5t-83 154.5q0 66 44 108t122 42q95 0 134.5 -53.5t51.5 -194.5q5 -57 27 -57q13 0 24 21t27 92t37 200l160 999h-129l8 45l145 86l5 19q51 226 225 343.5t456 117.5q204 0 318.5 -65t114.5 -165
q0 -79 -52.5 -127.5t-146.5 -48.5q-113 0 -164.5 65.5t-62.5 219.5q-3 61 -27 61q-23 0 -39 -27.5t-34 -101.5t-44 -221l-12 -70h479q81 0 128.5 -34.5t47.5 -106.5q0 -40 -26 -176l-113 -580q-22 -114 -72 -212t-117.5 -168.5t-149.5 -121t-170 -75.5t-177 -25zM844 864
q11 51 4 69.5t-45 18.5h-101l-96 -559q-50 -276 -157 -459q47 -17 73 -69.5t39 -159.5q8 -65 29 -65q17 0 27 34t34 166q13 70 21 113z" />
    <glyph glyph-name="f_k" unicode="fk" horiz-adv-x="2107" 
d="M702 952l-96 -559q-67 -392 -263 -601.5t-490 -209.5q-150 0 -233 58.5t-83 154.5q0 66 44 108t122 42q95 0 134.5 -53.5t51.5 -194.5q5 -57 27 -57q13 0 24 21t27 92t37 200l160 999h-129l8 45l145 86l5 19q33 147 136 252.5t249 157t319 51.5q116 0 201 -27.5
t129 -75.5l262 90l20 -18q-28 -105 -55 -244l-260 -1288h-532l192 952h-152zM1866 285q17 -47 32.5 -67t42.5 -20t72 25l29 17l22 -27q-216 -240 -460 -240q-103 0 -158.5 68t-87.5 203q-33 129 -43 274l4 33q145 249 334 412q82 71 151 106t142 35q78 0 130 -54.5
t52 -134.5q0 -73 -54 -120t-116 -47q-48 0 -80.5 21t-47.5 51t-25 60t-21 51t-27 21q-31 0 -59 -37q65 -354 168 -630zM737 1153l-12 -70h156l45 224q-19 59 -25 145q-2 29 -8 42t-25 13q-27 0 -46 -28t-39 -104t-46 -222z" />
    <glyph glyph-name=".notdef" 
 />
    <glyph glyph-name=".null" horiz-adv-x="0" 
 />
    <glyph glyph-name="nonmarkingreturn" horiz-adv-x="682" 
 />
    <glyph glyph-name="space" unicode=" " horiz-adv-x="331" 
 />
    <glyph glyph-name="exclam" unicode="!" horiz-adv-x="665" 
d="M670 1018l-361 -547h-28l-121 610q-32 162 41 260.5t252 98.5q75 0 134 -21.5t94.5 -61t49 -91.5t-2 -116.5t-58.5 -131.5zM37 188q0 87 60 146t153 59t153 -59t60 -146t-60 -145.5t-153 -58.5t-153 58.5t-60 145.5z" />
    <glyph glyph-name="quotedbl" unicode="&#x22;" horiz-adv-x="837" 
d="M696 883h-24l-78 309q-10 38 -11.5 73.5t7.5 70t29 60t58 41t91 15.5q81 0 127.5 -44t44.5 -114t-53 -141zM303 883h-24l-78 309q-10 38 -11.5 73.5t7.5 70t29 60t58 41t91 15.5q81 0 127.5 -44t44.5 -114t-53 -141z" />
    <glyph glyph-name="numbersign" unicode="#" horiz-adv-x="884" 
d="M410 0l96 373h-246l-96 -373h-49l96 373h-184l67 260h182l46 172h-183l68 260h180l90 354h49l-90 -354h246l90 354h49l-90 -354h187l-68 -260h-184l-45 -172h184l-68 -260h-182l-96 -373h-49zM371 805l-45 -172h245l45 172h-245z" />
    <glyph glyph-name="dollar" unicode="$" horiz-adv-x="1181" 
d="M459 -225h-51l34 200q-208 2 -340.5 72t-132.5 203q0 79 49 122.5t140 43.5q102 0 153 -54.5t70 -175.5q12 -84 26 -115t46 -38l69 395l-86 45q-139 70 -218.5 143t-107.5 144t-28 164q0 220 166 365.5t471 154.5l22 131h52l-25 -131q202 -3 330.5 -73t128.5 -183
q0 -63 -47 -105.5t-127 -42.5q-106 0 -162 55t-80 197q-8 45 -19 64.5t-34 25.5l-62 -350l88 -43q152 -76 235 -146.5t113.5 -141.5t30.5 -171q0 -239 -179.5 -392t-489.5 -163zM711 217q0 52 -35 94.5t-107 87.5l-65 -368q100 2 153.5 48.5t53.5 137.5zM510 1233
q0 -54 30.5 -92t110.5 -82l58 330q-89 0 -144 -43t-55 -113z" />
    <glyph glyph-name="percent" unicode="%" horiz-adv-x="1519" 
d="M1038 -23q-147 0 -245.5 83.5t-98.5 222.5q0 176 126.5 288.5t316.5 112.5q152 0 248 -82t96 -221q0 -178 -126.5 -291t-316.5 -113zM1171 551q0 39 -8.5 56.5t-29.5 17.5q-26 0 -48 -45q-34 -76 -60 -232.5t-26 -236.5q0 -72 39 -72q38 0 62 78q27 98 49 233.5t22 200.5
zM74 -102l1304 1564h78l-1304 -1564h-78zM446 737q-147 0 -245.5 83t-98.5 222q0 177 126.5 289.5t316.5 112.5q152 0 248 -82t96 -221q0 -178 -126.5 -291t-316.5 -113zM580 1311q0 39 -9 56t-30 17q-25 0 -47 -45q-34 -76 -60 -232.5t-26 -236.5q0 -38 9 -54.5t29 -16.5
q38 0 62 78q27 98 49.5 234t22.5 200z" />
    <glyph glyph-name="ampersand" unicode="&#x26;" horiz-adv-x="1656" 
d="M1382 649q0 51 -92 94l-35 17l7 33h428l-7 -31l-30 -12q-69 -28 -116.5 -69.5t-102.5 -131.5q-65 -103 -119 -172q38 -60 151 -221q37 -53 58.5 -73t64.5 -42l17 -8l-7 -33h-700q-34 36 -76 92q-74 -55 -159 -87t-209 -32q-222 0 -342.5 103t-120.5 266
q0 173 119.5 283.5t343.5 173.5q-19 87 -19 157q0 98 42 186t117.5 155.5t189.5 107t249 39.5q195 0 302.5 -70.5t107.5 -189.5q0 -222 -404 -334q101 -197 244 -426q98 155 98 225zM1137 1237q0 152 -84 152q-49 0 -80 -59t-31 -150q0 -121 76 -283q119 110 119 340z
M463 502q0 -169 71.5 -267t186.5 -98q33 0 63 6q-216 291 -305 566q-16 -65 -16 -207z" />
    <glyph glyph-name="quotesingle" unicode="'" horiz-adv-x="444" 
d="M303 883h-24l-78 309q-10 38 -11.5 73.5t7.5 70t29 60t58 41t91 15.5q81 0 127.5 -44t44.5 -114t-53 -141z" />
    <glyph glyph-name="parenleft" unicode="(" horiz-adv-x="745" 
d="M406 428q0 -184 41 -373t135 -331l-15 -13q-117 110 -199 223.5t-123.5 215t-59 185t-17.5 163.5q0 151 35 279t116 255.5t222 249.5t346 244l10 -15q-491 -503 -491 -1083z" />
    <glyph glyph-name="parenright" unicode=")" horiz-adv-x="745" 
d="M389 809q0 184 -41 373t-135 331l14 13q117 -110 199.5 -223.5t124 -215t59 -185t17.5 -163.5q0 -151 -35 -279t-116 -255.5t-222 -249.5t-346 -244l-10 15q491 503 491 1083z" />
    <glyph glyph-name="asterisk" unicode="*" horiz-adv-x="714" 
d="M637 1040l-172 64l153 -111q71 -55 64.5 -114.5t-78.5 -92.5q-66 -30 -112 5.5t-43 121.5l8 185l-62 -174q-18 -55 -50 -82t-69 -22.5t-71 38.5q-35 35 -42 74.5t19.5 73.5t81.5 49l185 53h-185q-56 -1 -91 24t-38.5 61.5t15.5 78.5q36 69 97 70t109 -70l99 -156l-62 178
q-27 78 11.5 125t113.5 35q74 -14 93 -69t-33 -123l-115 -146l147 111q68 51 126 28.5t67 -98.5q11 -71 -37 -108t-129 -9z" />
    <glyph glyph-name="plus" unicode="+" horiz-adv-x="993" 
d="M487 285v391h-370v63h370v389h72v-389h371v-63h-371v-391h-72z" />
    <glyph glyph-name="comma" unicode="," horiz-adv-x="532" 
d="M-80 -221l-2 22q145 41 236.5 115t115.5 180q-45 -51 -127 -51q-59 0 -107 45.5t-48 118.5q0 90 60 148.5t161 58.5q105 0 173.5 -71t68.5 -181q0 -146 -140.5 -253.5t-390.5 -131.5z" />
    <glyph glyph-name="hyphen" unicode="-" horiz-adv-x="585" 
d="M31 477l41 238h495l-43 -238h-493z" />
    <glyph glyph-name="period" unicode="." horiz-adv-x="524" 
d="M-8 199q0 92 63 153.5t160 61.5t160 -61.5t63 -153.5t-63 -153.5t-160 -61.5t-160 61.5t-63 153.5z" />
    <glyph glyph-name="slash" unicode="/" horiz-adv-x="778" 
d="M-150 -266l996 1769h76l-996 -1769h-76z" />
    <glyph glyph-name="zero" unicode="0" horiz-adv-x="1568" 
d="M713 -27q-297 0 -473.5 167t-176.5 452q0 190 67.5 351t184.5 270t276 170t339 61q298 0 475.5 -167t177.5 -452q0 -190 -67.5 -351t-184.5 -270t-276.5 -170t-341.5 -61zM999 1227q0 90 -13.5 126t-49.5 36q-49 0 -96 -103q-79 -172 -140 -542t-61 -556q0 -85 14.5 -121
t48.5 -36q40 0 70 41.5t57 130.5q62 208 116 540.5t54 483.5z" />
    <glyph glyph-name="one" unicode="1" horiz-adv-x="841" 
d="M899 1423l-211 -1204q-19 -107 -15 -129q3 -24 34 -40q9 -4 24 -11l14 -6l-6 -33h-807l7 33l16 6q28 11 40.5 18t24.5 16t18 29t11 41.5t14 69.5l162 922l-135 63l8 31q545 52 770 211z" />
    <glyph glyph-name="two" unicode="2" horiz-adv-x="1224" 
d="M676 1444q273 0 430.5 -97.5t157.5 -269.5q0 -80 -28 -149.5t-69.5 -122t-120.5 -102.5t-149 -84t-190 -74.5t-207.5 -65.5t-235.5 -65v-8h676q47 0 71 3.5t50 21t46.5 47.5t51.5 89h35l-123 -567h-1114l53 295q188 123 334 258q162 148 259 331t97 392q0 110 -59 110
q-25 0 -38.5 -23.5t-22.5 -84.5q-22 -168 -78 -241.5t-172 -73.5q-100 0 -154.5 52.5t-54.5 141.5q0 65 31 116t96 90t173.5 60t254.5 21z" />
    <glyph glyph-name="three" unicode="3" horiz-adv-x="1247" 
d="M459 -27q-520 0 -520 269q0 81 56 131.5t159 50.5q113 0 163 -61t60 -213q5 -70 13.5 -93.5t37.5 -23.5q38 0 68.5 41t49.5 109.5t28.5 151.5t9.5 173q0 110 -34.5 158.5t-105.5 48.5h-122l12 63h119q89 0 150.5 42.5t97.5 145t36 263.5q0 69 -22.5 113t-65.5 44
q-26 0 -39.5 -19.5t-19.5 -59.5q-21 -123 -50 -186.5t-73.5 -87t-122.5 -23.5q-91 0 -142.5 41t-51.5 116q0 51 19.5 92.5t50.5 70t76.5 50t91.5 33.5t101.5 19t100.5 9.5t94 2.5q63 0 120 -4.5t127 -16t126 -35.5t104.5 -59t75.5 -91.5t27 -127.5q0 -141 -101.5 -222.5
t-300.5 -125.5v-8q162 -20 254 -98t92 -218q0 -221 -194.5 -343t-554.5 -122z" />
    <glyph glyph-name="four" unicode="4" horiz-adv-x="1335" 
d="M1231 33l-6 -33h-883l6 33l39 8q43 10 62.5 23t32.5 45.5t26 105.5l33 191h-545l20 112l883 901h430l-151 -858h174l-33 -155h-168l-33 -187q-7 -38 -10 -58.5t-1 -40.5t5.5 -28.5t18.5 -19t29.5 -16t45.5 -15.5zM154 561h413l90 510h-6l-497 -504v-6z" />
    <glyph glyph-name="five" unicode="5" horiz-adv-x="1171" 
d="M449 33q60 0 119 76t59 188q0 116 -91 179t-237 63q-120 0 -205 -37l-22 20l235 897h713q68 0 96 18.5t76 92.5h39l-119 -506h-842l-37 -137q137 41 314 41q302 0 446 -105t144 -319q0 -81 -28.5 -157t-89 -144t-146 -118.5t-208 -80t-266.5 -29.5q-220 0 -334 69.5
t-114 193.5q0 80 48 125t148 45q99 0 151 -57t69 -199q8 -70 23.5 -94.5t58.5 -24.5z" />
    <glyph glyph-name="six" unicode="6" horiz-adv-x="1443" 
d="M686 31q43 0 70 53q37 70 58.5 198.5t21.5 260.5q0 103 -20 144.5t-75 41.5q-28 0 -55 -8q-23 -101 -42 -278t-19 -279q0 -133 61 -133zM946 1389q-22 0 -50.5 -35.5t-61.5 -105t-68.5 -191t-67.5 -277.5q132 66 303 66q201 0 302.5 -87.5t101.5 -248.5
q0 -239 -187.5 -387t-519.5 -148q-302 0 -469.5 154t-167.5 432q0 126 27.5 238.5t76 200.5t116 161t147.5 125t169.5 88t182.5 53t187 17q252 0 381 -72.5t129 -206.5q0 -77 -50.5 -126.5t-140.5 -49.5q-128 0 -188.5 68t-89.5 248q-8 48 -20.5 66t-41.5 18z" />
    <glyph glyph-name="seven" unicode="7" horiz-adv-x="1212" 
d="M68 0q45 163 141.5 314t231 277t297 229t347.5 181h-690q-66 0 -101 -13t-68 -51.5t-85 -129.5h-39l125 612h1096l-51 -305q-245 -234 -372 -510t-157 -604h-675z" />
    <glyph glyph-name="eight" unicode="8" horiz-adv-x="1284" 
d="M119 924q0 104 43.5 197.5t124.5 165.5t206 114.5t277 42.5q254 0 395.5 -74t141.5 -203q0 -97 -84.5 -151t-268.5 -86v-4q303 -153 303 -416q0 -238 -188.5 -386.5t-525.5 -148.5q-261 0 -413.5 79t-152.5 206q0 225 383 275v4q-116 68 -178.5 159.5t-62.5 225.5z
M326 262q0 -114 68.5 -173.5t191.5 -59.5q111 0 169 55.5t58 148.5q0 30 -14.5 56.5t-33.5 44.5t-58.5 40.5t-67 35t-83.5 36.5t-85 37l-43 19q-55 -45 -78.5 -101t-23.5 -139zM971 1165q0 111 -59.5 168.5t-159.5 57.5q-104 0 -166 -46t-62 -133q0 -20 4 -37t15.5 -33
t21.5 -28t33 -26.5t39 -23.5t50 -24.5t55 -24.5t66 -27.5t71 -29.5q49 43 70.5 89.5t21.5 117.5z" />
    <glyph glyph-name="nine" unicode="9" horiz-adv-x="1433" 
d="M827 1389q-23 0 -38.5 -16.5t-34.5 -57.5q-35 -79 -58.5 -224t-23.5 -276q0 -76 26.5 -110.5t83.5 -34.5q18 0 39 6q23 104 45.5 292t22.5 287q0 75 -14.5 104.5t-47.5 29.5zM573 31q62 0 117 135.5t119 451.5q-114 -57 -283 -57q-198 0 -306.5 106t-108.5 279
q0 107 42.5 197t123.5 157.5t209 105.5t290 38q323 0 499.5 -152t176.5 -434q0 -195 -66.5 -359t-186 -279.5t-292.5 -180t-381 -64.5q-247 0 -373 70.5t-126 208.5q0 78 57 127t158 49q85 0 135.5 -27.5t83 -98.5t53.5 -206q6 -39 17.5 -53t41.5 -14z" />
    <glyph glyph-name="colon" unicode=":" horiz-adv-x="520" 
d="M-14 199q0 92 63 153.5t160 61.5t160 -61.5t63 -153.5t-63 -153.5t-160 -61.5t-160 61.5t-63 153.5zM74 737q0 92 63 153.5t160 61.5t160 -61.5t63 -153.5t-63 -153.5t-160 -61.5t-160 61.5t-63 153.5z" />
    <glyph glyph-name="semicolon" unicode=";" horiz-adv-x="520" 
d="M-96 -221l-2 22q145 41 236.5 115t115.5 180q-45 -51 -127 -51q-59 0 -107.5 45.5t-48.5 118.5q0 90 60.5 148.5t161.5 58.5q105 0 173 -71t68 -181q0 -146 -140 -253.5t-390 -131.5zM61 737q0 92 63.5 153.5t160.5 61.5t160 -61.5t63 -153.5t-63 -153.5t-160 -61.5
t-160.5 61.5t-63.5 153.5z" />
    <glyph glyph-name="less" unicode="&#x3c;" horiz-adv-x="974" 
d="M858 270l-772 351v65l772 350v-73l-686 -310l686 -309v-74z" />
    <glyph glyph-name="equal" unicode="=" horiz-adv-x="1118" 
d="M123 795v67h928v-67h-928zM123 510v68h928v-68h-928z" />
    <glyph glyph-name="greater" unicode="&#x3e;" horiz-adv-x="974" 
d="M920 621l-773 -351v74l687 309l-687 310v73l773 -350v-65z" />
    <glyph glyph-name="question" unicode="?" horiz-adv-x="1052" 
d="M608 1389q-23 0 -33.5 -15t-19.5 -61q-31 -155 -89 -220t-149 -65q-87 0 -141.5 43.5t-54.5 128.5q0 106 103.5 175t322.5 69q278 0 415.5 -105.5t137.5 -298.5q0 -221 -200 -360.5t-558 -136.5l-12 -72h-60l78 444q156 17 239 105t83 235q0 73 -15.5 103.5t-46.5 30.5z
M98 188q0 87 60 146t153 59t153 -59t60 -146t-60 -145.5t-153 -58.5t-153 58.5t-60 145.5z" />
    <glyph glyph-name="at" unicode="@" horiz-adv-x="1906" 
d="M889 254q39 0 69 43l142 649q-15 41 -51 41q-49 0 -101 -95t-86.5 -243.5t-34.5 -290.5q0 -104 62 -104zM1274 61q-127 0 -201.5 43.5t-95.5 139.5h-4q-53 -86 -133.5 -134.5t-173.5 -48.5q-118 0 -192.5 77t-74.5 214q0 141 46.5 265.5t130.5 216t208 145t271 53.5
q89 0 176.5 -30t146.5 -80h6l168 96l13 -8q-23 -53 -64 -254l-84 -408q-20 -95 -20 -137q0 -70 61 -70q33 0 68 16.5t74 59t69 106.5t50 170t20 238q0 126 -39 233t-116 190.5t-202.5 131t-287.5 47.5q-131 0 -255 -34.5t-237 -108t-197 -179t-134 -258.5t-50 -335
q0 -150 45 -272t131.5 -209.5t220 -135t304.5 -47.5q265 0 508 103v-35q-87 -50 -244 -89.5t-322 -39.5q-173 0 -321.5 45.5t-260 131t-174.5 218.5t-63 299q0 182 57 342.5t157 279t233 204.5t287.5 129.5t316.5 43.5q363 0 581.5 -173t218.5 -459q0 -172 -51.5 -307.5
t-139.5 -218t-197.5 -125t-233.5 -42.5z" />
    <glyph glyph-name="A" unicode="A" horiz-adv-x="1470" 
d="M-84 0l6 33l10 4q54 22 90.5 65.5t108.5 171.5l645 1145h346l183 -1114q28 -165 40.5 -210t34.5 -56l13 -6l-7 -33h-866l6 33l41 12q50 14 75 29t39 43t11 70.5t-8 111.5l-20 145h-353l-63 -114q-84 -154 -84 -199q0 -33 24 -51t91 -41l18 -6l-6 -33h-375zM592 946
l-244 -436h307l-57 436h-6z" />
    <glyph glyph-name="B" unicode="B" horiz-adv-x="1533" 
d="M-70 0l7 33l16 6q61 23 75 46.5t33 127.5l175 987q7 41 10.5 60.5t4 41.5t-2 30t-11 18.5t-19 15.5t-30.5 14l-14 6l6 33h832q289 0 424 -74.5t135 -240.5q0 -137 -115 -230t-317 -116v-8q175 -11 280 -94t105 -212q0 -444 -690 -444h-904zM727 70q49 0 90.5 81t62.5 197
t21 232q0 77 -22 107t-88 30h-19l-92 -533q-11 -63 -1 -88.5t48 -25.5zM784 778h23q87 0 139.5 118t52.5 312q0 74 -17 108t-62 34q-22 0 -37 -9z" />
    <glyph glyph-name="C" unicode="C" horiz-adv-x="1423" 
d="M825 -25q-182 0 -327.5 44t-240 123.5t-144.5 188t-50 238.5q0 164 53 305t146.5 245t220 177.5t277 110.5t313.5 37q238 0 375 -55l-35 -486h-31q-78 185 -141 305q-55 106 -91.5 143.5t-88.5 37.5q-78 0 -146.5 -103t-111.5 -261t-67.5 -338.5t-24.5 -344.5
q0 -151 39.5 -231t109.5 -80q61 0 113 44t127 142q38 49 72 98.5t85 127.5t62 94h33l-109 -500q-85 -30 -200.5 -46t-217.5 -16z" />
    <glyph glyph-name="D" unicode="D" horiz-adv-x="1628" 
d="M-70 0l7 33l16 6q61 23 75 46.5t33 127.5l175 987q7 41 10.5 60.5t4 41.5t-2 30t-11 18.5t-19 15.5t-30.5 14l-14 6l6 33h750q371 0 541.5 -143t170.5 -459q0 -186 -67 -340.5t-185 -258.5t-282 -161t-356 -57h-822zM731 66q63 0 121.5 110t97.5 273.5t62.5 345
t23.5 329.5q0 130 -22 179t-86 49q-23 0 -45 -11l-195 -1122q-13 -88 -2.5 -120.5t45.5 -32.5z" />
    <glyph glyph-name="E" unicode="E" horiz-adv-x="1380" 
d="M-70 0l7 33l16 6q61 23 75 46.5t33 127.5l175 987q7 41 10.5 60.5t4 41.5t-2 30t-11 18.5t-19 15.5t-30.5 14l-14 6l6 33h1225l-51 -495h-29q-57 160 -119 290q-36 74 -83 106t-124 32q-63 0 -116 -11l-101 -575h47q58 0 89.5 16.5t68.5 71.5q66 96 105 168h26l-102 -584
h-27q-6 25 -16.5 78.5t-18.5 83.5q-17 60 -45.5 81t-87.5 21h-49l-86 -483q-15 -86 18 -118.5t123 -32.5q43 0 74 8t62 32t52 47.5t64 75.5q100 122 213 301h31l-115 -532h-1278z" />
    <glyph glyph-name="F" unicode="F" horiz-adv-x="1341" 
d="M768 684l-82 -465q-6 -36 -9 -55.5t-1 -39t7 -28.5t20.5 -19.5t32.5 -17t50 -16.5l33 -10l-6 -33h-883l7 33l16 6q61 23 75 46.5t33 127.5l175 987q7 41 10.5 60.5t4 41.5t-2 30t-11 18.5t-19 15.5t-30.5 14l-14 6l6 33h1252l-56 -506h-26q-61 169 -123 297
q-39 80 -85.5 111t-137.5 31q-70 0 -121 -11l-105 -593h78q58 0 89.5 16.5t68.5 71.5q61 89 104 168h27l-103 -584h-26q-6 25 -16.5 78.5t-18.5 83.5q-17 60 -45.5 81t-87.5 21h-80z" />
    <glyph glyph-name="G" unicode="G" horiz-adv-x="1562" 
d="M1483 430l-66 -375q-88 -36 -240 -58t-323 -22q-370 0 -580.5 166t-210.5 449q0 166 58.5 307t158.5 240t233.5 169.5t284.5 104t310 33.5q122 0 237 -17.5t171 -46.5l-33 -483h-33q-10 20 -46 97.5t-70.5 146t-63.5 114.5q-43 74 -83.5 104t-90.5 30
q-109 0 -201.5 -159.5t-144.5 -418.5t-52 -551q0 -96 11.5 -146.5t31.5 -66.5t58 -16q27 0 47 8l69 389q18 106 9.5 133t-62.5 49l-14 6l6 33h737l-6 -33l-16 -6q-12 -4 -19.5 -7.5t-15 -9t-11 -8.5t-8.5 -13t-7 -15t-5.5 -21.5t-5.5 -26.5t-6.5 -35.5t-7.5 -43.5z" />
    <glyph glyph-name="H" unicode="H" horiz-adv-x="1669" 
d="M860 1206l-78 -442h205l78 436q13 74 13 104.5t-10 44.5t-44 31l-12 6l6 33h799l-7 -33l-16 -6q-58 -22 -71 -43t-31 -118l-1.5 -6t-1 -6t-1.5 -7l-172 -981q-19 -107 -15 -129q4 -25 36 -41q8 -4 22 -10l14 -6l-6 -33h-799l6 33l17 6q36 13 51.5 27.5t25.5 44t23 102.5
l84 481h-205l-84 -475q-13 -73 -12.5 -104t11 -45t44.5 -31l12 -6l-6 -33h-805l7 33l16 6q61 23 75 46.5t33 127.5l175 987q7 41 10.5 60.5t4 41.5t-2 30t-11 18.5t-19 15.5t-30.5 14l-14 6l6 33h805l-6 -33l-16 -6q-52 -19 -68.5 -46t-34.5 -128z" />
    <glyph glyph-name="I" unicode="I" horiz-adv-x="839" 
d="M858 1200l-172 -981q-19 -107 -15 -129q4 -25 36 -41q8 -4 22 -10l14 -6l-6 -33h-807l7 33l16 6q61 23 75 46.5t33 127.5l175 987q7 41 10.5 60.5t4 41.5t-2 30t-11 18.5t-19 15.5t-30.5 14l-14 6l6 33h807l-6 -33l-16 -6q-24 -9 -35 -13t-23.5 -16t-16.5 -17.5t-11 -30
t-10 -41.5t-11 -62z" />
    <glyph glyph-name="J" unicode="J" horiz-adv-x="1239" 
d="M395 96q1 -16 1.5 -23.5t2.5 -15.5t5 -11t8 -3q30 0 53 129l178 1028q13 72 13 103t-12 46t-48 31l-16 6l6 33h805l-7 -33l-16 -6q-51 -19 -66.5 -46t-35.5 -134l-117 -657q-50 -275 -232 -420.5t-479 -145.5q-250 0 -370.5 71.5t-120.5 199.5q0 80 55 136t158 56
q68 0 112.5 -19.5t70.5 -65t37 -105.5t15 -154z" />
    <glyph glyph-name="K" unicode="K" horiz-adv-x="1667" 
d="M858 1200l-172 -981q-19 -107 -15 -129q4 -25 36 -41q8 -4 22 -10l14 -6l-6 -33h-807l7 33l16 6q61 23 75 46.5t33 127.5l175 987q7 41 10.5 60.5t4 41.5t-2 30t-11 18.5t-19 15.5t-30.5 14l-14 6l6 33h807l-6 -33l-16 -6q-22 -8 -33 -12.5t-23 -15.5t-16.5 -18t-12 -30
t-11 -42t-11.5 -62zM918 0q-106 361 -134 678l4 20l392 346q137 125 174 168t37 78q0 32 -27.5 52.5t-89.5 35.5l-33 8l6 33h490l-8 -33l-19 -6q-61 -21 -120.5 -65.5t-170.5 -147.5l-116 -108q99 -511 235 -907q20 -57 34 -77.5t46 -37.5l8 -4l-6 -33h-702z" />
    <glyph glyph-name="L" unicode="L" horiz-adv-x="1359" 
d="M1229 0h-1299l7 33l16 6q61 23 75 46t33 128l175 987q7 40 10 56t4.5 40t-1.5 32t-10 20t-19 18t-32 14l-14 6l6 33h864l-6 -33l-28 -8q-36 -10 -52 -15t-35 -16t-25.5 -19t-15.5 -28.5t-13 -40.5t-11 -59l-172 -981q-14 -82 19 -117.5t110 -35.5q74 0 122 33t128 128
q111 135 256 365h31z" />
    <glyph glyph-name="M" unicode="M" horiz-adv-x="1814" 
d="M1249 1419h713l-6 -33l-17 -6q-58 -22 -71 -43t-31 -118l-1.5 -6t-1 -6t-1.5 -7l-172 -981q-19 -107 -15 -129q4 -25 36 -41q8 -4 22 -10l14 -6l-6 -33h-803l6 33l17 6q61 23 75 46.5t33 127.5l174 967h-8l-598 -1149h-129l-162 1149h-8l-180 -1004q-12 -70 4 -96t76 -41
l22 -6l-6 -33h-295l7 33l14 4q53 15 73.5 42t32.5 99l179 1022q7 41 10.5 60.5t4 41.5t-2 30t-11 18.5t-19 15.5t-30.5 14l-14 6l6 33h684l78 -579h6z" />
    <glyph glyph-name="N" unicode="N" horiz-adv-x="1361" 
d="M57 178l179 1022q7 41 10.5 60.5t4 41.5t-2 30t-11 18.5t-19 15.5t-30.5 14l-14 6l6 33h643l385 -753h9l102 577q12 70 -5 96t-77 41l-23 6l7 33h301l-6 -33l-15 -4q-60 -17 -80 -42.5t-32 -98.5l-220 -1241h-348l-526 1077h-8l-160 -901q-12 -70 5 -96t77 -41l22 -6
l-6 -33h-295l7 33l14 4q53 15 73.5 42t32.5 99z" />
    <glyph glyph-name="O" unicode="O" horiz-adv-x="1609" 
d="M735 -27q-197 0 -349 74.5t-237.5 216t-85.5 328.5q0 190 68.5 351t187.5 270t282.5 170t350.5 61q197 0 349 -74.5t237.5 -216t85.5 -328.5q0 -190 -68.5 -351t-187.5 -270t-282.5 -170t-350.5 -61zM733 31q36 0 62 33t53 106q68 190 124 538.5t56 508.5q0 97 -16 134.5
t-60 37.5q-53 0 -94 -93q-78 -174 -140.5 -543.5t-62.5 -547.5q0 -95 18.5 -134.5t59.5 -39.5z" />
    <glyph glyph-name="P" unicode="P" horiz-adv-x="1515" 
d="M-70 0l7 33l16 6q61 23 75 46t33 128l175 987q9 48 11.5 69t3.5 43t-7 31.5t-20 18t-36 18.5l-14 6l6 33h778q335 0 484 -100.5t149 -306.5q0 -223 -149 -342t-404 -119q-154 0 -231 29l6 32q71 -4 105 54q49 79 76.5 232.5t27.5 297.5q0 156 -96 156q-25 0 -43 -6
l-197 -1127q-8 -44 -9.5 -66t0.5 -41t17.5 -29.5t33.5 -18.5t58 -21l33 -10l-6 -33h-883z" />
    <glyph glyph-name="Q" unicode="Q" horiz-adv-x="1609" 
d="M1511 -117l-8 -35q-76 -85 -200.5 -142.5t-272.5 -57.5q-248 0 -426 145q-108 87 -225 260q-149 76 -232.5 215.5t-83.5 325.5q0 190 68.5 351t187.5 270t282.5 170t350.5 61q197 0 349 -74.5t237.5 -216t85.5 -328.5q0 -283 -144.5 -487.5t-387.5 -296.5v-4
q59 -92 117.5 -137t148.5 -45q80 0 153 26zM952 1391q-48 0 -95 -97.5t-82 -244t-62.5 -311.5t-41.5 -305.5t-14 -219.5q0 -95 18.5 -134.5t59.5 -39.5q59 0 116.5 147.5t94.5 349t59.5 391.5t22.5 292q0 97 -16 134.5t-60 37.5z" />
    <glyph glyph-name="R" unicode="R" horiz-adv-x="1611" 
d="M729 0h-799l7 33l16 6q61 23 75 46t33 128l175 987q9 47 11.5 69.5t3 43.5t-7.5 30.5t-19.5 18t-35.5 18.5l-14 6l6 33h887q278 0 412.5 -95.5t134.5 -285.5q0 -133 -69 -238t-189 -149v-6q73 -325 149 -491q26 -57 43 -77t56 -40l8 -4l-6 -33h-684q-95 288 -138 623h-34
l-72 -404q-19 -107 -15 -129q4 -25 36 -41q8 -4 22 -10l14 -6zM762 690q12 -4 33 -4q105 0 168 131t63 377q0 83 -26.5 119.5t-81.5 36.5q-24 0 -41 -11z" />
    <glyph glyph-name="S" unicode="S" horiz-adv-x="1226" 
d="M481 -25q-123 0 -264.5 25.5t-198.5 60.5l35 431h31q91 -196 137 -273q61 -102 124.5 -145t150.5 -43q92 0 151.5 51t59.5 129q0 73 -56.5 127t-197.5 131q-101 56 -168.5 111.5t-104 113t-51 112.5t-14.5 122q0 229 176 372.5t497 143.5q113 0 233.5 -20.5t190.5 -55.5
l-41 -399h-30q-107 206 -144 262q-58 89 -110 123.5t-125 34.5q-82 0 -129 -43t-47 -115q0 -66 56 -119.5t179 -122.5q221 -125 300 -223t79 -252q0 -239 -190.5 -389t-528.5 -150z" />
    <glyph glyph-name="T" unicode="T" horiz-adv-x="1517" 
d="M1243 1354h-12l-199 -1135q-5 -46 -7.5 -74t11.5 -48t37.5 -31.5t69.5 -24.5l28 -8l-6 -33h-958l6 33l31 8q97 26 124 56t42 122l200 1135h-14q-40 0 -67 -11t-65 -49.5t-93 -117.5l-232 -334h-28l104 577h1411l-61 -579h-27q-73 208 -127 338q-43 104 -77 140t-91 36z
" />
    <glyph glyph-name="U" unicode="U" horiz-adv-x="1454" 
d="M1468 1243l-153 -868q-38 -213 -173.5 -307.5t-398.5 -94.5q-380 0 -528 138.5t-96 427.5l117 661q9 48 11.5 69t3.5 43t-7 31.5t-20 18t-36 18.5l-14 6l6 33h807l-6 -33l-16 -6q-28 -10 -41 -18t-24 -16t-17.5 -31.5t-11 -42.5t-13.5 -72l-133 -754q-31 -174 29 -250.5
t204 -76.5q122 0 193.5 65t95.5 207l152 854q12 70 -4 95t-76 40l-23 6l7 33h299l-7 -33l-14 -4q-61 -17 -82 -42.5t-31 -96.5z" />
    <glyph glyph-name="V" unicode="V" horiz-adv-x="1466" 
d="M1626 1419l-6 -33l-12 -4q-47 -17 -75.5 -53t-107.5 -176l-653 -1153h-360l-166 1114q-24 162 -36.5 204.5t-37.5 61.5l-8 6l6 33h860l-6 -33l-41 -12q-96 -26 -117 -71t-6 -183l92 -639h6l340 609q76 136 76 180q0 40 -21.5 64.5t-82.5 45.5l-19 6l6 33h369z" />
    <glyph glyph-name="W" unicode="W" horiz-adv-x="2228" 
d="M2388 1419l-6 -33l-10 -4q-54 -21 -85.5 -61t-97.5 -168l-600 -1153h-368l-80 725l-373 -725h-367l-151 1114q-16 114 -26.5 165t-21 71t-30.5 30l-12 6l6 33h782l-6 -33l-24 -6q-52 -13 -66.5 -65t2.5 -195l78 -639h6l188 373l-30 297q-10 93 -21.5 137t-30 63.5
t-55.5 30.5l-14 4l6 33h872l-6 -33l-32 -10q-25 -8 -38.5 -13.5t-31 -15.5t-26 -21t-17.5 -29.5t-11.5 -42.5t-2.5 -57.5t4 -76.5l65 -635h6l305 605q72 144 72 192q0 38 -22 59t-76 39l-19 6l7 33h358z" />
    <glyph glyph-name="X" unicode="X" horiz-adv-x="1542" 
d="M221 266l303 355l-207 596q-23 66 -37 95.5t-26 41t-37 24.5l-16 8l6 33h915l-6 -33l-41 -12q-62 -19 -82 -42.5t-20 -65.5q0 -39 26 -119l78 -223l170 204q90 101 90 160q0 58 -88 88l-30 10l6 33h454l-6 -33l-20 -8q-78 -31 -126 -69.5t-147 -149.5l-276 -313l217 -619
q19 -53 32.5 -84t28.5 -51t24 -27.5t32 -23.5l12 -8l-6 -33h-926l6 33l41 12q62 20 84.5 44t22.5 65q0 43 -25 120l-94 267h-4l-191 -228q-60 -78 -80 -115.5t-20 -66.5q0 -58 88 -88l31 -10l-6 -33h-447l6 33l21 8q72 28 121 69t149 156z" />
    <glyph glyph-name="Y" unicode="Y" horiz-adv-x="1482" 
d="M1640 1419l-6 -33l-10 -4q-43 -19 -81 -59t-116 -160l-348 -536l-71 -408q-15 -91 4.5 -122t107.5 -56l27 -8l-6 -33h-963l6 33l31 8q97 26 124 56t42 122l76 424l-181 555q-23 71 -38.5 105.5t-25 45t-32.5 27.5l-14 10l6 33h911l-6 -33l-33 -10q-78 -24 -111.5 -55.5
t-33.5 -77.5q0 -38 35 -131l113 -389h4l260 399q71 111 71 158q0 60 -104 94l-37 12l6 33h393z" />
    <glyph glyph-name="Z" unicode="Z" horiz-adv-x="1392" 
d="M-61 0l12 72l852 1278v6h-66q-117 0 -173.5 -28t-137.5 -122q-71 -81 -276 -350h-29l115 563h1275l-14 -71l-850 -1276v-9h31q90 0 143 6t99.5 28.5t78 52t84.5 90.5q129 151 271 352h30l-143 -592h-1302z" />
    <glyph glyph-name="bracketleft" unicode="[" horiz-adv-x="655" 
d="M539 1290l-236 -1341q-7 -41 -10 -60t-0.5 -41.5t10 -30.5t28 -18.5t46.5 -15t72 -10.5l59 -9l-6 -30h-459l313 1769h471l-6 -30l-78 -11q-52 -7 -74.5 -10t-49 -12.5t-34 -16t-19.5 -29t-15.5 -41.5t-11.5 -63z" />
    <glyph glyph-name="backslash" unicode="\" horiz-adv-x="768" 
d="M553 -266l-379 1769h70l379 -1769h-70z" />
    <glyph glyph-name="bracketright" unicode="]" horiz-adv-x="655" 
d="M162 -53l235 1341q7 42 10 60.5t1 41t-9.5 30.5t-28 18.5t-46.5 15t-72 10.5l-59 9l6 30h458l-313 -1769h-471l6 30l78 11q40 5 58.5 7.5t43 8.5t33 9.5t22.5 14.5t17.5 19t11 28t10.5 36t9 49z" />
    <glyph glyph-name="asciicircum" unicode="^" horiz-adv-x="745" 
d="M70 864l-15 15l424 540h127l197 -545l-15 -10l-292 256z" />
    <glyph glyph-name="underscore" unicode="_" horiz-adv-x="854" 
d="M-106 -319l12 67h842l-13 -67h-841z" />
    <glyph glyph-name="grave" unicode="`" 
d="M799 1174l-11 -19l-364 76q-64 13 -98.5 51t-34.5 90q0 69 42.5 116.5t110.5 47.5q82 0 144 -80z" />
    <glyph glyph-name="a" unicode="a" horiz-adv-x="1349" 
d="M586 219q41 0 80 62l153 731q-10 45 -47 45q-51 0 -109.5 -127t-97.5 -301.5t-39 -309.5q0 -100 60 -100zM666 203h-7q-157 -228 -385 -228q-129 0 -201.5 85t-72.5 229q0 233 100 421.5t280 296t406 107.5q232 0 365 -108h8l199 98l24 -8q-55 -146 -98 -361l-88 -450
q-8 -46 -8 -62q0 -71 94 -20l23 12l20 -31q-221 -209 -459 -209q-96 0 -149 50t-53 137q0 23 2 41z" />
    <glyph glyph-name="b" unicode="b" horiz-adv-x="1361" 
d="M569 31q55 0 112 132t91.5 305.5t34.5 305.5q0 82 -45 82q-31 0 -64 -31t-47 -59l-135 -678q2 -25 16 -41t37 -16zM506 -25q-174 0 -307.5 49t-198.5 119v19l221 1106q15 69 14 102.5t-13 48.5t-48 37l-37 23l6 24l648 47l20 -18q-28 -109 -55 -246l-84 -424h4
q77 106 180 174t223 68q122 0 199.5 -92.5t77.5 -245.5q0 -369 -221.5 -580t-628.5 -211z" />
    <glyph glyph-name="c" unicode="c" horiz-adv-x="1148" 
d="M735 184q75 0 148 35.5t159 108.5l29 -25q-115 -153 -269 -240.5t-341 -87.5q-216 0 -332.5 106t-116.5 298q0 129 45 245t122.5 203t178 151t214.5 97t229 33q168 0 271.5 -71.5t103.5 -190.5q0 -78 -51 -123t-136 -45q-115 0 -159 63t-58 234q-4 60 -10 68
q-5 10 -19 10q-37 0 -83.5 -99.5t-79.5 -252.5t-33 -289q0 -120 46.5 -174t141.5 -54z" />
    <glyph glyph-name="d" unicode="d" horiz-adv-x="1368" 
d="M594 219q25 0 50.5 17.5t39.5 42.5l139 741q-14 39 -51 39q-60 0 -119 -139.5t-92 -306t-33 -273.5q0 -66 15.5 -93.5t50.5 -27.5zM686 201h-6q-72 -96 -174 -162t-217 -66q-137 0 -211 84.5t-74 249.5t53 312.5t148.5 257t237.5 173.5t311 64q38 0 84 -8h4l30 160
q14 72 14 104t-12.5 49t-50.5 37l-43 23l6 24l660 47l20 -18q-26 -107 -53 -246l-190 -989q-13 -70 -13 -76q0 -63 93 -18l24 12l21 -31q-94 -90 -220 -149.5t-247 -59.5q-95 0 -146 47t-51 134q0 25 2 45z" />
    <glyph glyph-name="e" unicode="e" horiz-adv-x="1169" 
d="M453 -25q-199 0 -321 99t-122 286q0 153 64.5 292t172.5 238.5t255.5 158.5t308.5 59q167 0 269 -66.5t102 -171.5q0 -133 -154 -215.5t-479 -128.5q-4 -74 -4 -100q0 -131 46.5 -187.5t141.5 -56.5q140 0 309 146l29 -25q-246 -328 -618 -328zM741 1055q-40 0 -79 -76
t-66 -183t-41 -223q51 12 85.5 27.5t68.5 46.5q38 37 58.5 122t20.5 189q0 97 -47 97z" />
    <glyph glyph-name="f" unicode="f" horiz-adv-x="823" 
d="M702 952l-96 -559q-67 -392 -263 -601.5t-490 -209.5q-150 0 -233 58.5t-83 154.5q0 66 44 108t122 42q95 0 134.5 -53.5t51.5 -194.5q5 -57 27 -57q13 0 24 21t27 92t37 200l160 999h-129l8 45l145 86l5 19q50 222 226 341.5t437 119.5q177 0 276 -59t99 -152
q0 -71 -45.5 -115.5t-126.5 -44.5q-100 0 -145 59.5t-54 200.5q-3 55 -22 55q-27 0 -44 -62.5t-57 -291.5l-12 -70h195l-39 -131h-179z" />
    <glyph glyph-name="g" unicode="g" horiz-adv-x="1198" 
d="M424 -362q160 0 252 51.5t92 124.5q0 48 -26 70.5t-89 25.5l-426 20q-23 -20 -34 -46.5t-11 -73.5q0 -83 62 -127.5t180 -44.5zM690 975q0 78 -43 78q-52 0 -94.5 -174t-42.5 -314q0 -50 9.5 -71t31.5 -21q38 0 71.5 95.5t50.5 210t17 196.5zM987 1016v-6
q58 -36 94.5 -98.5t36.5 -131.5q0 -167 -148 -264.5t-390 -97.5q-150 0 -263 31q-26 -9 -42.5 -25t-16.5 -33q0 -21 13 -29t44 -10l435 -18q376 -15 376 -287q0 -202 -208.5 -332.5t-548.5 -130.5q-250 0 -374 55.5t-124 139.5q0 73 66.5 109t230.5 51v6q-82 20 -131 77
t-49 132q0 103 79 184.5t205 126.5v4q-91 39 -142.5 111t-51.5 153q0 158 147 266.5t398 108.5q185 0 317 -70q113 136 238 136q59 0 103 -35.5t44 -98.5q0 -52 -36.5 -85t-88.5 -33q-81 0 -115 79q-22 44 -39.5 46.5t-58.5 -31.5z" />
    <glyph glyph-name="h" unicode="h" horiz-adv-x="1398" 
d="M690 840q95 119 222 191.5t255 72.5q95 0 151 -51t56 -135q0 -80 -33 -226l-96 -422q-8 -33 -8 -63q0 -17 12 -23.5t33.5 -1t48.5 20.5l23 12l20 -31q-107 -98 -230 -153.5t-245 -55.5q-100 0 -148.5 49t-48.5 126q0 42 23 147l88 418q25 121 -27 121t-124 -99l-148 -737
h-532l258 1268q18 99 11.5 127.5t-48.5 54.5l-47 29l6 24l645 47l20 -18q-24 -103 -53 -246l-90 -446h6z" />
    <glyph glyph-name="i" unicode="i" horiz-adv-x="710" 
d="M475 1141q-111 0 -175 56t-64 157q0 99 69.5 165t181.5 66q109 0 171.5 -57.5t62.5 -155.5q0 -100 -67.5 -165.5t-178.5 -65.5zM47 328l92 454q4 24 4 41q0 34 -22.5 41.5t-73.5 -22.5l-18 -13l-23 29q98 103 220.5 174.5t250.5 71.5q100 0 153.5 -51t53.5 -138
q0 -55 -18 -147l-101 -487q-10 -52 -10 -70q0 -59 94 -4l25 14l20 -33q-235 -213 -475 -213q-98 0 -148.5 46t-50.5 118q0 65 27 189z" />
    <glyph glyph-name="j" unicode="j" horiz-adv-x="710" 
d="M479 1141q-111 0 -175 56t-64 157q0 99 70 165t182 66q108 0 170.5 -57t62.5 -156q0 -100 -67.5 -165.5t-178.5 -65.5zM666 717l-101 -531q-27 -142 -97 -257.5t-165.5 -190t-208.5 -114.5t-231 -40q-162 0 -247 64t-85 166q0 65 47 108t123 43q88 0 127.5 -54.5
t56.5 -205.5q4 -38 10.5 -51.5t18.5 -13.5q17 0 27 34t34 166q13 70 21 113l145 786q13 67 13 88q0 35 -25.5 40t-71.5 -25l-18 -13l-23 29q117 115 231.5 180.5t248.5 65.5q92 0 145 -50.5t53 -138.5q0 -39 -28 -198z" />
    <glyph glyph-name="k" unicode="k" horiz-adv-x="1427" 
d="M1186 285q17 -47 32.5 -67t42.5 -20t72 25l29 17l22 -27q-216 -240 -460 -240q-103 0 -158.5 68t-87.5 203q-33 129 -43 274l4 33q145 249 334 412q82 71 151 106t142 35q78 0 130 -54.5t52 -134.5q0 -73 -54 -120t-116 -47q-48 0 -80.5 21t-47.5 51t-25 60t-21 51
t-27 21q-31 0 -59 -37q65 -354 168 -630zM-18 0l258 1266q19 92 12.5 125t-49.5 59l-47 29l6 24l647 47l20 -18q-28 -105 -55 -244l-260 -1288h-532z" />
    <glyph glyph-name="l" unicode="l" horiz-adv-x="724" 
d="M51 373l170 893q14 88 4 119t-63 71l-25 19l6 26l648 49l20 -18q-28 -107 -55 -246l-191 -1003q-10 -52 -10 -72q0 -18 14.5 -23.5t40 2t56.5 25.5l24 14l21 -32q-233 -222 -480 -222q-107 0 -159 44.5t-52 119.5q0 70 31 234z" />
    <glyph glyph-name="m" unicode="m" horiz-adv-x="2025" 
d="M1333 827h2q95 127 217 202t254 75q92 0 143.5 -54.5t51.5 -136.5q0 -75 -33 -221l-96 -422q-8 -33 -8 -63q0 -17 12 -23.5t33.5 -1t48.5 20.5l22 12l21 -31q-107 -98 -230 -153.5t-245 -55.5q-100 0 -148.5 49t-48.5 126q0 42 23 147l88 418q14 65 11.5 93t-26.5 28
q-34 0 -106 -99l-150 -737h-530l149 715q14 65 12 93t-26 28q-34 0 -106 -99l-150 -737h-530l159 782q5 30 5 41q0 34 -23 41.5t-74 -22.5l-18 -13l-23 29q242 246 473 246q90 0 139.5 -48.5t49.5 -121.5q0 -56 -10 -129h4q96 147 221.5 223t255.5 76q100 0 146 -53.5
t46 -139.5q0 -41 -6 -84z" />
    <glyph glyph-name="n" unicode="n" horiz-adv-x="1404" 
d="M1348 692l-97 -422q-8 -33 -8 -63q0 -17 12 -23.5t33.5 -1t48.5 20.5l23 12l20 -31q-107 -98 -230 -153.5t-245 -55.5q-100 0 -148 49t-48 126q0 47 22 147l88 418q13 65 7 93t-33 28q-53 0 -125 -99l-150 -737h-530l159 782q5 30 5 41q0 34 -23 41.5t-74 -22.5l-18 -13
l-23 29q242 246 473 246q90 0 139.5 -48.5t49.5 -121.5q0 -56 -10 -129h4q95 133 231 216t273 83q95 0 150.5 -51t55.5 -135t-32 -226z" />
    <glyph glyph-name="o" unicode="o" horiz-adv-x="1339" 
d="M575 33q61 0 105 147q47 155 85 398t38 337q0 76 -11 106t-42 30q-26 0 -47.5 -29.5t-43.5 -95.5q-49 -150 -90 -406.5t-41 -355.5q0 -70 9 -100.5t38 -30.5zM578 -25q-254 0 -407 132.5t-153 349.5q0 195 96.5 344.5t261 228t369.5 78.5q138 0 248.5 -36.5t181.5 -101.5
t108.5 -152t37.5 -189q0 -198 -96 -347.5t-264 -228t-383 -78.5z" />
    <glyph glyph-name="p" unicode="p" horiz-adv-x="1390" 
d="M489 1104q89 0 138 -50.5t49 -146.5q0 -28 -8 -86h6q70 121 187 202t247 81q120 0 196 -92t76 -254q0 -187 -54 -337t-148.5 -246.5t-221 -148t-274.5 -51.5q-85 0 -162 15l-45 -228q-13 -69 0.5 -88t93.5 -45l6 -2l-6 -33h-770l6 33l19 6q72 25 90 43.5t31 85.5l194 979
q13 67 13 78q0 40 -25.5 46.5t-71.5 -23.5l-18 -13l-23 29q234 246 475 246zM598 31q55 0 110 130t87 300t32 301q0 46 -10 66t-33 20q-31 0 -65 -33.5t-49 -62.5l-133 -658q2 -27 18 -45t43 -18z" />
    <glyph glyph-name="q" unicode="q" horiz-adv-x="1370" 
d="M594 -238l84 435h-4q-69 -94 -168.5 -158t-218.5 -64q-143 0 -213 85.5t-70 230.5q0 186 58.5 340.5t163 260.5t251 164t318.5 58q118 0 228 -29.5t185 -76.5h9l165 96l25 -8q-55 -146 -100 -379l-183 -955q-6 -31 -6.5 -46.5t1.5 -29t16.5 -22.5t31 -16t52.5 -19l6 -2
l-6 -33h-775l7 33l18 6q75 25 93.5 43.5t31.5 85.5zM594 219q25 0 51 18.5t39 41.5l139 743q-12 37 -51 37q-58 0 -116.5 -128.5t-93 -296.5t-34.5 -296q0 -64 16 -91.5t50 -27.5z" />
    <glyph glyph-name="r" unicode="r" horiz-adv-x="1185" 
d="M670 748l-152 -748h-530l159 782q5 30 5 41q0 34 -23 41.5t-74 -22.5l-18 -13l-23 29q242 246 473 246q90 0 138.5 -49t48.5 -125q0 -59 -8 -117h4q61 126 148.5 208.5t201.5 82.5q87 0 134.5 -51.5t47.5 -149.5q0 -117 -67.5 -191.5t-165.5 -74.5q-49 0 -87 17.5
t-59.5 42t-37 49t-28.5 42t-26 17.5t-24 -8.5t-17.5 -17.5t-19.5 -31z" />
    <glyph glyph-name="s" unicode="s" horiz-adv-x="1054" 
d="M412 -25q-221 0 -332 65t-111 171q0 66 46.5 104.5t121.5 38.5q91 0 132 -48t75 -177q15 -60 40 -80t81 -20q53 0 86 34t33 84q0 14 -3.5 27t-12 25t-16.5 22t-24.5 22t-28 19.5t-35 20.5t-37 20t-43 22t-44.5 23q-144 73 -203 159.5t-59 188.5q0 183 155 297.5
t390 114.5q203 0 309 -56.5t106 -160.5q0 -63 -39.5 -98t-115.5 -35q-77 0 -125 45t-72 145q-15 62 -39 83.5t-72 21.5q-50 0 -80 -29.5t-30 -73.5q0 -50 39 -80.5t188 -106.5q37 -19 58 -30q118 -61 180.5 -149t62.5 -191q0 -123 -77 -219t-209 -147.5t-295 -51.5z" />
    <glyph glyph-name="t" unicode="t" horiz-adv-x="841" 
d="M707 952l-123 -592q-15 -74 -15 -94q0 -58 41.5 -62t114.5 44l35 22l26 -32q-57 -55 -107.5 -95t-119 -82.5t-146 -65t-159.5 -22.5q-116 0 -170.5 53.5t-54.5 147.5q0 74 24 191l123 587h-121l13 37l149 92l43 168l453 135h75l-59 -301h205l-35 -131h-192z" />
    <glyph glyph-name="u" unicode="u" horiz-adv-x="1380" 
d="M651 696l-73 -340q-15 -73 -15 -82q0 -36 37 -36q25 0 55.5 21t51.5 56l161 764h527l-158 -755q-14 -71 -14 -105q0 -32 23.5 -38t70.5 20l24 14l23 -29q-84 -90 -206.5 -150.5t-248.5 -60.5q-102 0 -155.5 48t-53.5 143q0 22 7 78h-5q-206 -269 -444 -269
q-110 0 -171.5 59.5t-61.5 158.5q0 51 20 149l90 387q17 73 17 92q0 38 -25.5 44.5t-71.5 -23.5l-18 -13l-23 29q228 246 467 246q93 0 148 -53.5t55 -149.5q0 -56 -33 -205z" />
    <glyph glyph-name="v" unicode="v" horiz-adv-x="1183" 
d="M692 870q14 -310 -2 -614h8q213 217 267 317q24 47 24 101q0 24 -16.5 48t-40.5 45t-48 45.5t-40.5 60t-16.5 77.5q0 72 50 116t127 44q90 0 147 -59.5t57 -159.5q0 -71 -54.5 -174t-151 -223t-211 -241.5t-252.5 -252.5h-369q7 536 -12 772q-6 73 -28 88.5t-73 -18.5
l-18 -13l-23 29q243 246 476 246q190 0 200 -234z" />
    <glyph glyph-name="w" unicode="w" horiz-adv-x="1820" 
d="M1354 856q3 -282 -11 -602h7q156 150 230.5 256.5t74.5 151.5q0 29 -14 52.5t-35.5 38.5t-46 34t-46 38t-35.5 51.5t-14 73.5q0 69 53.5 114.5t131.5 45.5q88 0 142 -57t54 -162q0 -83 -43 -178.5t-133 -209t-202.5 -230.5t-278.5 -273h-377q4 114 8 338
q-182 -231 -293 -338h-376q14 553 0 776q-4 77 -25 90t-68 -20l-18 -12l-23 28q120 118 226 180t227 62q107 0 156 -55t55 -172q13 -293 -4 -613h6q119 146 137 170q0 224 -6 350q-3 64 -19 79t-51 -9l-18 -12l-23 28q230 234 437 234q110 0 161.5 -60.5t53.5 -187.5z" />
    <glyph glyph-name="x" unicode="x" horiz-adv-x="1284" 
d="M111 -27q-73 0 -119.5 48.5t-46.5 121.5q0 81 42.5 125.5t106.5 44.5q42 0 76 -19.5t57 -38.5t39 -19q28 0 51 45q24 43 70 196q-25 132 -78 301q-24 77 -53 89.5t-90 -25.5l-21 -13l-22 29q107 109 233 178.5t254 69.5q83 0 135.5 -40t77.5 -138q36 -141 45 -199h9
q47 161 120 268q32 47 76.5 77t95.5 30q77 0 119.5 -46.5t42.5 -129.5q0 -74 -40 -124t-101 -50q-34 0 -65 13.5t-48.5 29.5t-34 29.5t-26.5 13.5q-27 0 -47 -39q-39 -76 -68 -180q37 -174 76 -304q15 -50 28 -77t32 -41.5t44.5 -10t63.5 26.5l14 8l21 -30
q-233 -218 -484 -218q-106 0 -160.5 43.5t-74.5 143.5q-27 126 -39 207h-8q-23 -83 -57 -162.5t-66 -126.5q-72 -107 -180 -107z" />
    <glyph glyph-name="y" unicode="y" horiz-adv-x="1200" 
d="M698 907q39 -196 84 -637h4q228 256 228 377q0 30 -19 57.5t-46 50t-54.5 48t-46.5 63t-19 82.5q0 73 51 117.5t130 44.5q84 0 142 -58t58 -153q0 -67 -21 -138t-73.5 -167.5t-152.5 -224t-248 -283.5q-259 -277 -432 -392.5t-334 -115.5q-114 0 -180 52t-66 147
q0 75 48.5 122.5t125.5 47.5q51 0 89 -22.5t59 -54.5t39.5 -63.5t43.5 -54t58 -22.5q60 0 133 57q-45 509 -137 975q-12 60 -23 81.5t-29 21t-57 -24.5l-16 -11l-23 29q242 246 482 246q164 0 202 -197z" />
    <glyph glyph-name="z" unicode="z" horiz-adv-x="1161" 
d="M20 -12h-12l-84 80v10q108 73 187 135l538 420q-90 5 -257.5 58.5t-223.5 53.5q-20 0 -31.5 -9.5t-11.5 -22.5q0 -10 32 -19t70.5 -18t70.5 -36t32 -69q0 -45 -32.5 -80.5t-86.5 -35.5q-78 0 -125 50t-47 134q0 74 43 158t110 152.5t157 113.5t177 45q81 0 195 -38.5
t206.5 -77t121.5 -38.5q40 0 64 27t46 96h8l78 -67v-9q-85 -56 -217 -157l-493 -381q48 -2 191 -29.5t220 -27.5q53 0 86.5 21.5t75.5 84.5l37 -16q-102 -212 -177 -324.5t-144.5 -159.5t-157.5 -47q-60 0 -135 29t-134 63.5t-126.5 63.5t-114.5 29q-36 0 -76 -46.5
t-60 -115.5z" />
    <glyph glyph-name="braceleft" unicode="{" horiz-adv-x="708" 
d="M557 -268q-65 10 -112 19.5t-102 23.5t-92.5 32t-70 42t-49 56.5t-16.5 71.5q0 42 30.5 116t66.5 142.5t66.5 142.5t30.5 116q0 27 -11 44.5t-53.5 40.5t-125.5 52l8 47q109 14 164.5 38t71.5 55t16 87q0 46 -32 206.5t-32 205.5q0 68 36 113.5t111.5 71.5t167.5 37.5
t230 16.5l-6 -30q-166 -25 -228 -60t-67 -106q-5 -60 -0.5 -236t2.5 -225q-3 -96 -81.5 -139t-293.5 -66v-4q170 -40 229.5 -79.5t59.5 -112.5q0 -51 -60.5 -264.5t-60.5 -272.5q0 -54 50 -88.5t159 -63.5z" />
    <glyph glyph-name="bar" unicode="|" horiz-adv-x="395" 
d="M164 -266v1769h67v-1769h-67z" />
    <glyph glyph-name="braceright" unicode="}" horiz-adv-x="708" 
d="M195 1509q65 -10 112 -19.5t102 -23.5t92.5 -32t70 -42t49 -56.5t16.5 -71.5q0 -42 -30.5 -116t-67 -142t-67 -142t-30.5 -116q0 -26 11 -44t54 -41.5t126 -52.5l-8 -47q-109 -14 -164.5 -38t-71.5 -55t-16 -87q0 -46 31.5 -206.5t31.5 -205.5q0 -68 -36 -113.5
t-111.5 -71.5t-167.5 -37.5t-230 -16.5l7 30q166 25 228 60t67 106q4 72 -0.5 241.5t-2.5 219.5q3 96 81.5 139t293.5 66v4q-170 40 -229.5 79.5t-59.5 113.5q0 51 60.5 264t60.5 272q0 54 -50 88.5t-159 63.5z" />
    <glyph glyph-name="asciitilde" unicode="~" horiz-adv-x="798" 
d="M45 436l-22 15q32 86 57 139t56.5 93.5t69 57.5t87.5 17q55 0 184 -29t168 -29q44 0 70.5 23t66.5 84l23 -14q-57 -166 -118 -237t-155 -71q-54 0 -182 29t-168 29q-44 0 -70.5 -23t-66.5 -84z" />
    <glyph glyph-name="uni00A0" unicode="&#xa0;" horiz-adv-x="331" 
 />
    <glyph glyph-name="exclamdown" unicode="&#xa1;" horiz-adv-x="665" 
d="M25 215l360 547h29l121 -610q32 -162 -41 -260.5t-252 -98.5q-75 0 -134 21.5t-94.5 61t-49 91.5t2 116.5t58.5 131.5zM657 1044q0 -87 -60 -145.5t-153 -58.5t-153 58.5t-60 145.5t60 146t153 59t153 -59t60 -146z" />
    <glyph glyph-name="cent" unicode="&#xa2;" horiz-adv-x="1148" 
d="M735 184q75 0 148 35.5t159 108.5l29 -25q-195 -256 -459 -311l-37 -209h-51l35 201q-74 -9 -98 -9q-216 0 -332.5 106t-116.5 298q0 124 42 236t114 197t166.5 149.5t202.5 101t219 43.5l20 115h51l-20 -113q164 -2 266.5 -71t102.5 -179q0 -73 -46 -115.5t-124 -42.5
q-93 0 -133 62.5t-54 222.5q-6 55 -22 64l-150 -854q37 -11 88 -11zM535 412q0 -141 65 -191l145 823q-85 -39 -147.5 -234.5t-62.5 -397.5z" />
    <glyph glyph-name="sterling" unicode="&#xa3;" horiz-adv-x="1212" 
d="M72 723l10 61h102q-55 156 -55 246q0 190 161.5 302t491.5 112q263 0 389.5 -70t126.5 -198q0 -82 -47.5 -132.5t-142.5 -50.5q-116 0 -168 70t-74 242q-8 61 -17 74q-10 12 -26 12q-24 0 -40 -26t-22 -59t-11 -85q-6 -80 -3 -230t-2 -207h252l-12 -61h-248
q-14 -76 -40.5 -130.5t-79 -101t-133.5 -81.5t-203 -66v-6h622q90 0 139 32t99 130h33l-93 -500h-1130l35 215q272 146 272 303q0 65 -51 205h-135z" />
    <glyph glyph-name="yen" unicode="&#xa5;" horiz-adv-x="1472" 
d="M1628 1419l-6 -33l-8 -4q-57 -28 -90.5 -65t-112.5 -156l-291 -440h262l-12 -64h-276l-25 -133h279l-13 -63h-276l-43 -242q-17 -90 2.5 -121.5t107.5 -56.5l27 -8l-6 -33h-959l7 33l30 8q52 14 79 25t45 33t25 46t15 74l41 242h-274l12 63h274l23 133h-275l13 64h258
l-187 483q-41 105 -55 132.5t-33 39.5l-14 10l6 33h920l-6 -33l-31 -10q-76 -26 -105.5 -54.5t-29.5 -74.5q0 -43 28 -135l109 -342h4l227 350q76 118 76 170q0 44 -100 84l-31 12l6 33h383z" />
    <glyph glyph-name="brokenbar" unicode="&#xa6;" horiz-adv-x="395" 
d="M231 1503v-841h-67v841h67zM164 -266v794h67v-794h-67z" />
    <glyph glyph-name="section" unicode="&#xa7;" horiz-adv-x="1261" 
d="M43 485q0 250 324 381q-58 86 -58 185q0 176 133.5 284.5t380.5 108.5q189 0 305.5 -67t116.5 -177q0 -62 -39.5 -97.5t-109.5 -35.5q-86 0 -133.5 47.5t-79.5 169.5q-15 60 -35.5 81t-63.5 21q-122 0 -122 -116q0 -75 44.5 -123.5t174.5 -138.5q5 -4 8.5 -6.5t7.5 -4.5
q186 -130 258 -230.5t72 -219.5q0 -128 -73 -223t-253 -168q60 -89 60 -176q0 -164 -141.5 -281t-370.5 -117q-214 0 -322.5 65t-108.5 177q0 61 48 98t118 37q83 0 123.5 -46t73.5 -171q16 -59 34.5 -80.5t61.5 -21.5q59 0 95 31t36 93q0 24 -13 51t-29 47.5t-47 48
t-50.5 42.5t-57 42.5t-49.5 37.5q-179 136 -249 231t-70 221zM913 305q0 20 -6 40t-23.5 43t-29.5 38t-44 42.5t-46 39.5t-56 45t-55 43q-9 8 -36.5 30l-37.5 30t-33 26.5t-34 28t-29.5 26t-30 28t-25 25.5t-24.5 27q-49 -39 -49 -100q0 -20 6.5 -40.5t23 -42t31 -38.5
t43.5 -41.5t47 -39t55.5 -44t55.5 -43.5q192 -156 248 -223q49 42 49 100z" />
    <glyph glyph-name="dieresis" unicode="&#xa8;" 
d="M422 1174q-80 0 -135.5 49t-55.5 133t55.5 133t135.5 49q82 0 136 -48.5t54 -133.5t-54 -133.5t-136 -48.5zM866 1174q-80 0 -134 48.5t-54 133.5t54 133.5t134 48.5q83 0 138 -48.5t55 -133.5t-55 -133.5t-138 -48.5z" />
    <glyph glyph-name="copyright" unicode="&#xa9;" horiz-adv-x="1601" 
d="M879 270q-229 0 -360.5 116.5t-131.5 326.5q0 114 41 203.5t112 144t160.5 82.5t192.5 28q155 0 256 -36l20 -289h-28q-77 116 -125 178q-39 53 -66.5 71.5t-58.5 18.5q-30 0 -49.5 -13.5t-35.5 -52.5t-23 -115t-7 -194q0 -162 11.5 -250.5t36.5 -124.5t69 -36
q37 0 65 19t66 71q62 85 121 196h29l-21 -295q-116 -49 -274 -49zM838 -29q-160 0 -300.5 57.5t-239.5 156t-156.5 234t-57.5 286.5t57.5 286.5t156.5 234t239.5 156.5t300.5 58q214 0 386 -98.5t267.5 -266.5t95.5 -370q0 -151 -56.5 -286.5t-154 -234t-238 -156
t-300.5 -57.5zM838 31q195 0 351.5 91t242.5 244.5t86 338.5q0 138 -50.5 262t-139 215t-216.5 144.5t-274 53.5t-274 -53.5t-217.5 -144.5t-141 -215t-51.5 -262t51.5 -262t141 -214.5t217.5 -144t274 -53.5z" />
    <glyph glyph-name="ordfeminine" unicode="&#xaa;" horiz-adv-x="1189" 
d="M571 733q36 0 64 49l117 564q-11 36 -39 36q-40 0 -85.5 -96t-75.5 -230.5t-30 -242.5q0 -80 49 -80zM631 702h-8q-70 -86 -144.5 -134t-175.5 -48q-104 0 -164.5 69.5t-60.5 190.5q0 183 81.5 331.5t230.5 234.5t337 86q93 0 177 -22.5t134 -63.5h9l147 79l31 -8
q-45 -117 -80 -289l-68 -342q-6 -35 -6 -55q0 -21 23 -25.5t55 13.5l18 10l23 -35q-184 -174 -385 -174q-86 0 -131 40t-45 110q0 18 2 32z" />
    <glyph glyph-name="guillemotleft" unicode="&#xab;" horiz-adv-x="823" 
d="M670 133l-320 389v10l436 369h25l-209 -387l92 -381h-24zM344 133l-324 389v10l441 369h24l-209 -387l93 -381h-25z" />
    <glyph glyph-name="registered" unicode="&#xae;" horiz-adv-x="774" 
d="M487 711q-152 0 -254 105t-102 257q0 151 102 256t254 105q153 0 257 -105.5t104 -255.5q0 -152 -104 -257t-257 -105zM487 758q128 0 219 93.5t91 221.5t-91 220.5t-219 92.5q-130 0 -217.5 -92t-87.5 -221q0 -130 87.5 -222.5t217.5 -92.5zM319 963v233q0 28 -5 35
t-21 10l-12 2v23h215q178 0 178 -107q0 -63 -58 -86v-2q31 -82 60 -133q8 -15 22 -20l7 -3v-22h-175q-30 70 -51 154h-16v-84q0 -28 5 -35t21 -10l13 -3v-22h-221v22l12 3q16 3 21 10t5 35zM477 1077q22 0 32.5 17t10.5 61q0 45 -9 62.5t-30 17.5q-10 0 -18 -2v-154
q6 -2 14 -2z" />
    <glyph glyph-name="macron" unicode="&#xaf;" 
d="M328 1231l32 141h582l-29 -141h-585z" />
    <glyph glyph-name="degree" unicode="&#xb0;" horiz-adv-x="491" 
d="M369 985q-101 0 -163.5 65t-62.5 164q0 98 62.5 163t163.5 65q100 0 162.5 -65t62.5 -163t-62.5 -163.5t-162.5 -65.5zM369 1040q74 0 118.5 48.5t44.5 125.5q0 76 -44.5 124t-118.5 48t-119 -48t-45 -124q0 -77 45 -125.5t119 -48.5z" />
    <glyph glyph-name="twosuperior" unicode="&#xb2;" horiz-adv-x="808" 
d="M483 1380q-29 0 -37 -67q-12 -95 -50.5 -140t-114.5 -45q-66 0 -102 33t-36 86q0 80 97 133.5t270 53.5q181 0 281 -59.5t100 -166.5q0 -131 -149 -218.5t-478 -133.5v-6h432q36 0 59 19.5t64 84.5h37l-76 -350h-739l33 180q156 99 243 177q103 93 152 181.5t49 184.5
q0 53 -35 53z" />
    <glyph glyph-name="threesuperior" unicode="&#xb3;" horiz-adv-x="788" 
d="M481 1434q172 0 266.5 -50t94.5 -141q0 -86 -65.5 -128.5t-207.5 -63.5v-7q133 -10 197.5 -58t64.5 -136q0 -262 -466 -262q-324 0 -324 172q0 53 33 83.5t92 30.5q70 0 103 -35.5t42 -131.5q3 -40 8.5 -53t24.5 -13q40 0 66 60t26 182q0 68 -29 94.5t-94 26.5h-59l10 59
h53q88 0 129 57t41 191q0 69 -45 69q-13 0 -19.5 -11.5t-12.5 -45.5q-14 -89 -47.5 -120.5t-100.5 -31.5q-56 0 -88.5 24.5t-32.5 68.5q0 49 32 84.5t85.5 53t108 25t114.5 7.5z" />
    <glyph glyph-name="acute" unicode="&#xb4;" 
d="M641 1231l-365 -76l-10 19l211 282q62 80 144 80q68 0 110.5 -47.5t42.5 -116.5q0 -52 -34.5 -90t-98.5 -51z" />
    <glyph glyph-name="paragraph" unicode="&#xb6;" horiz-adv-x="987" 
d="M426 -205l149 860q-24 -4 -63 -4q-189 0 -294 96.5t-105 258.5q0 181 127.5 297t343.5 116h557l-6 -33l-35 -10q-80 -24 -97 -48t-36 -128l-248 -1405h-74l275 1551h-146l-274 -1551h-74z" />
    <glyph glyph-name="periodcentered" unicode="&#xb7;" horiz-adv-x="499" 
d="M57 684q0 87 60 146t153 59t153 -59t60 -146t-60 -146t-153 -59t-153 59t-60 146z" />
    <glyph glyph-name="cedilla" unicode="&#xb8;" 
d="M293 -424v25q79 22 124.5 56t45.5 73q0 51 -74 51l-4 10l135 209h68l-51 -59q89 -6 133.5 -43.5t44.5 -98.5q0 -79 -101.5 -138.5t-320.5 -84.5z" />
    <glyph glyph-name="onesuperior" unicode="&#xb9;" horiz-adv-x="667" 
d="M37 604l6 33l33 8q48 12 60.5 29t23.5 82l71 411l-92 45l6 29q150 15 297 68.5t228 120.5l49 -19l-117 -655q-4 -27 -5 -43t0.5 -27.5t10.5 -18t18.5 -11t30.5 -11.5l25 -8l-6 -33h-639z" />
    <glyph glyph-name="ordmasculine" unicode="&#xba;" horiz-adv-x="1112" 
d="M559 584q48 0 82 116q37 124 67.5 313t30.5 261q0 60 -8.5 83t-34.5 23q-39 0 -71 -98q-38 -120 -70.5 -320t-32.5 -274q0 -57 7 -80.5t30 -23.5zM561 535q-209 0 -336 108t-127 281q0 154 78.5 270t212.5 176t303 60q225 0 350 -110.5t125 -277.5q0 -235 -168.5 -371
t-437.5 -136z" />
    <glyph glyph-name="guillemotright" unicode="&#xbb;" horiz-adv-x="823" 
d="M135 901l320 -389v-10l-437 -369h-24l209 387l-92 381h24zM461 901l323 -389v-10l-440 -369h-25l209 387l-92 381h25z" />
    <glyph glyph-name="onequarter" unicode="&#xbc;" horiz-adv-x="1675" 
d="M37 604l6 33l33 8q48 12 60.5 29t23.5 82l76 438l-93 45l7 29q163 16 303.5 57.5t216.5 104.5l49 -19l-117 -655q-4 -27 -5 -43t0.5 -27.5t10.5 -18t18.5 -11t30.5 -11.5l25 -8l-6 -33h-639zM160 -102l1401 1564h81l-1400 -1564h-82zM950 0l6 33l33 8q53 14 66.5 30
t23.5 81l13 71h-308l13 72l510 520h309l-86 -491h112l-24 -101h-107l-12 -71q-11 -43 -8.5 -65.5t13 -29.5t46.5 -16l33 -8l-6 -33h-627zM903 324h207l45 256h-4l-248 -252v-4z" />
    <glyph glyph-name="onehalf" unicode="&#xbd;" horiz-adv-x="1785" 
d="M37 604l6 33l33 8q48 12 60.5 29t23.5 82l76 438l-93 45l7 29q163 16 303.5 57.5t216.5 104.5l49 -19l-117 -655q-4 -27 -5 -43t0.5 -27.5t10.5 -18t18.5 -11t30.5 -11.5l25 -8l-6 -33h-639zM119 -102l1401 1564h82l-1401 -1564h-82zM1354 776q-29 0 -37 -67
q-12 -95 -51 -140t-115 -45q-65 0 -101 33t-36 86q0 80 96.5 133t269.5 53q182 0 281.5 -59t99.5 -166q0 -132 -148.5 -219t-477.5 -133v-6h432q36 0 59 19.5t64 84.5h36l-75 -350h-740l33 180q164 104 244 176q201 183 201 367q0 53 -35 53z" />
    <glyph glyph-name="threequarters" unicode="&#xbe;" horiz-adv-x="1742" 
d="M481 1434q172 0 266.5 -50t94.5 -141q0 -86 -65.5 -128.5t-207.5 -63.5v-7q133 -10 197.5 -58t64.5 -136q0 -123 -119.5 -192.5t-346.5 -69.5q-324 0 -324 172q0 53 33 83.5t92 30.5q70 0 103 -35.5t42 -131.5q3 -40 8.5 -53t24.5 -13q40 0 66 60t26 182q0 68 -29 94.5
t-94 26.5h-59l10 59h53q88 0 129 57t41 191q0 69 -45 69q-13 0 -19.5 -11.5t-12.5 -45.5q-14 -89 -47.5 -120.5t-100.5 -31.5q-56 0 -88.5 24.5t-32.5 68.5q0 49 32 84.5t85.5 53t108 25t114.5 7.5zM211 -102l1401 1564h82l-1401 -1564h-82zM1018 0l6 33l33 8q53 14 66.5 30
t23.5 81l12 71h-307l12 72l510 520h309l-86 -491h113l-24 -101h-107l-12 -71q-11 -43 -8.5 -65.5t13 -29.5t46.5 -16l33 -8l-6 -33h-627zM971 324h207l45 256h-4l-248 -252v-4z" />
    <glyph glyph-name="questiondown" unicode="&#xbf;" horiz-adv-x="1052" 
d="M477 -131q23 0 33.5 15t19.5 61q31 155 89 219.5t149 64.5q87 0 142 -43.5t55 -128.5q0 -106 -103.5 -174.5t-322.5 -68.5q-278 0 -415.5 105.5t-137.5 297.5q0 108 50 199t143.5 158.5t238.5 104.5t325 36l13 71h59l-78 -444q-155 -17 -238 -104.5t-83 -235.5
q0 -73 15 -103t46 -30zM987 1069q0 -87 -60 -146t-153 -59t-153 59t-60 146t60 146t153 59t153 -59t60 -146z" />
    <glyph glyph-name="Agrave" unicode="&#xc0;" horiz-adv-x="1470" 
d="M-84 0l6 33l10 4q54 22 90.5 65.5t108.5 171.5l645 1145h346l183 -1114q28 -165 40.5 -210t34.5 -56l13 -6l-7 -33h-866l6 33l41 12q50 14 75 29t39 43t11 70.5t-8 111.5l-20 145h-353l-63 -114q-84 -154 -84 -199q0 -33 24 -51t91 -41l18 -6l-6 -33h-375zM1200 1499
l-8 -18l-371 45q-70 9 -107.5 48t-37.5 97q0 70 43.5 116t111.5 46q72 0 136 -70zM592 946l-244 -436h307l-57 436h-6z" />
    <glyph glyph-name="Aacute" unicode="&#xc1;" horiz-adv-x="1470" 
d="M-84 0l6 33l10 4q54 22 90.5 65.5t108.5 171.5l645 1145h346l183 -1114q28 -165 40.5 -210t34.5 -56l13 -6l-7 -33h-866l6 33l41 12q50 14 75 29t39 43t11 70.5t-8 111.5l-20 145h-353l-63 -114q-84 -154 -84 -199q0 -33 24 -51t91 -41l18 -6l-6 -33h-375zM735 1481
l-8 18l234 264q64 70 135 70q68 0 111.5 -46t43.5 -116q0 -58 -37.5 -97t-107.5 -48zM592 946l-244 -436h307l-57 436h-6z" />
    <glyph glyph-name="Acircumflex" unicode="&#xc2;" horiz-adv-x="1470" 
d="M-84 0l6 33l10 4q54 22 90.5 65.5t108.5 171.5l645 1145h346l183 -1114q28 -165 40.5 -210t34.5 -56l13 -6l-7 -33h-866l6 33l41 12q50 14 75 29t39 43t11 70.5t-8 111.5l-20 145h-353l-63 -114q-84 -154 -84 -199q0 -33 24 -51t91 -41l18 -6l-6 -33h-375zM621 1483
l-11 18l316 311h161l216 -311l-11 -18l-305 92zM592 946l-244 -436h307l-57 436h-6z" />
    <glyph glyph-name="Atilde" unicode="&#xc3;" horiz-adv-x="1470" 
d="M-84 0l6 33l10 4q54 22 90.5 65.5t108.5 171.5l645 1145h346l183 -1114q28 -165 40.5 -210t34.5 -56l13 -6l-7 -33h-866l6 33l41 12q50 14 75 29t39 43t11 70.5t-8 111.5l-20 145h-353l-63 -114q-84 -154 -84 -199q0 -33 24 -51t91 -41l18 -6l-6 -33h-375zM866 1796
q42 0 163 -19.5t167 -19.5q42 0 73 16.5t62 61.5l21 -10q-25 -60 -37 -88t-32.5 -71t-35.5 -62.5t-36.5 -41.5t-45 -30t-51.5 -8q-41 0 -162.5 18.5t-167.5 18.5q-41 0 -69.5 -16t-61.5 -62l-22 10q21 53 30.5 76.5t27.5 63.5t29.5 58t29.5 43t34.5 35.5t38 18.5t45.5 8z
M592 946l-244 -436h307l-57 436h-6z" />
    <glyph glyph-name="Adieresis" unicode="&#xc4;" horiz-adv-x="1470" 
d="M-84 0l6 33l10 4q54 22 90.5 65.5t108.5 171.5l645 1145h346l183 -1114q28 -165 40.5 -210t34.5 -56l13 -6l-7 -33h-866l6 33l41 12q50 14 75 29t39 43t11 70.5t-8 111.5l-20 145h-353l-63 -114q-84 -154 -84 -199q0 -33 24 -51t91 -41l18 -6l-6 -33h-375zM1182 1485
q-77 0 -130 47t-53 129q0 80 53 127t130 47q79 0 131.5 -46.5t52.5 -127.5q0 -82 -52.5 -129t-131.5 -47zM737 1485q-77 0 -129.5 47t-52.5 129q0 80 52.5 127t129.5 47q79 0 132 -46.5t53 -127.5q0 -82 -52.5 -129t-132.5 -47zM592 946l-244 -436h307l-57 436h-6z" />
    <glyph glyph-name="Aring" unicode="&#xc5;" horiz-adv-x="1470" 
d="M-84 0l6 33l10 4q54 22 90.5 65.5t108.5 171.5l645 1145h346l183 -1114q28 -165 40.5 -210t34.5 -56l13 -6l-7 -33h-866l6 33l41 12q50 14 75 29t39 43t11 70.5t-8 111.5l-20 145h-353l-63 -114q-84 -154 -84 -199q0 -33 24 -51t91 -41l18 -6l-6 -33h-375zM768 1655
q0 80 58 133t137 53t136.5 -53t57.5 -133t-58 -133.5t-136 -53.5q-79 0 -137 53.5t-58 133.5zM592 946l-244 -436h307l-57 436h-6zM846 1655q0 -57 31.5 -93t85.5 -36t85 36t31 93t-31 93t-85 36t-85.5 -36t-31.5 -93z" />
    <glyph glyph-name="AE" unicode="&#xc6;" horiz-adv-x="1910" 
d="M489 0l7 33l16 6q61 23 75.5 46.5t33.5 127.5l41 231h-351l-86 -133q-94 -140 -94 -188q0 -30 23 -50t82 -34l24 -6l-6 -33h-391l6 33l20 8q70 31 101 62t108 147l707 1071q-6 21 -25 32t-67 27l-21 6l6 33h1237l-51 -495h-29q-60 168 -118 290q-37 78 -75.5 108
t-113.5 30q-63 0 -116 -11l-101 -575h29q58 0 89.5 16.5t68.5 71.5q61 89 104 168h27l-103 -584h-26q-6 25 -16.5 78.5t-18.5 83.5q-17 60 -45.5 81t-87.5 21h-31l-86 -483q-15 -85 17 -118t118 -33q39 0 67 8t58 32t51.5 48t63.5 75q100 122 213 301h30l-114 -532h-1250z
M782 1159l-428 -649h318l114 649h-4z" />
    <glyph glyph-name="Ccedilla" unicode="&#xc7;" horiz-adv-x="1423" 
d="M403 -424v25q79 22 124.5 56t45.5 73q0 51 -73 51l-4 10l129 201q-271 42 -416.5 196t-145.5 381q0 164 53 305t146.5 245t220 177.5t277 110.5t313.5 37q238 0 375 -55l-35 -486h-31q-78 185 -141 305q-55 106 -91.5 143.5t-88.5 37.5q-78 0 -146.5 -103t-111.5 -261
t-67.5 -338.5t-24.5 -344.5q0 -151 39.5 -231t109.5 -80q61 0 113 44t127 142q38 49 72 98.5t85 127.5t62 94h33l-109 -500q-85 -30 -200.5 -46t-217.5 -16q-75 0 -143 9l-35 -43q89 -6 133.5 -43.5t44.5 -98.5q0 -79 -101.5 -138.5t-320.5 -84.5z" />
    <glyph glyph-name="Egrave" unicode="&#xc8;" horiz-adv-x="1380" 
d="M-70 0l7 33l16 6q61 23 75 46.5t33 127.5l175 987q7 41 10.5 60.5t4 41.5t-2 30t-11 18.5t-19 15.5t-30.5 14l-14 6l6 33h1225l-51 -495h-29q-57 160 -119 290q-36 74 -83 106t-124 32q-63 0 -116 -11l-101 -575h47q58 0 89.5 16.5t68.5 71.5q66 96 105 168h26l-102 -584
h-27q-6 25 -16.5 78.5t-18.5 83.5q-17 60 -45.5 81t-87.5 21h-49l-86 -483q-15 -86 18 -118.5t123 -32.5q43 0 74 8t62 32t52 47.5t64 75.5q100 122 213 301h31l-115 -532h-1278zM1104 1499l-8 -18l-371 45q-70 9 -107.5 48t-37.5 97q0 70 43.5 116t111.5 46q71 0 135 -70z
" />
    <glyph glyph-name="Eacute" unicode="&#xc9;" horiz-adv-x="1380" 
d="M-70 0l7 33l16 6q61 23 75 46.5t33 127.5l175 987q7 41 10.5 60.5t4 41.5t-2 30t-11 18.5t-19 15.5t-30.5 14l-14 6l6 33h1225l-51 -495h-29q-57 160 -119 290q-36 74 -83 106t-124 32q-63 0 -116 -11l-101 -575h47q58 0 89.5 16.5t68.5 71.5q66 96 105 168h26l-102 -584
h-27q-6 25 -16.5 78.5t-18.5 83.5q-17 60 -45.5 81t-87.5 21h-49l-86 -483q-15 -86 18 -118.5t123 -32.5q43 0 74 8t62 32t52 47.5t64 75.5q100 122 213 301h31l-115 -532h-1278zM641 1481l-8 18l233 264q64 70 135 70q68 0 112 -46t44 -116q0 -58 -37.5 -97t-107.5 -48z
" />
    <glyph glyph-name="Ecircumflex" unicode="&#xca;" horiz-adv-x="1380" 
d="M-70 0l7 33l16 6q61 23 75 46.5t33 127.5l175 987q7 41 10.5 60.5t4 41.5t-2 30t-11 18.5t-19 15.5t-30.5 14l-14 6l6 33h1225l-51 -495h-29q-57 160 -119 290q-36 74 -83 106t-124 32q-63 0 -116 -11l-101 -575h47q58 0 89.5 16.5t68.5 71.5q66 96 105 168h26l-102 -584
h-27q-6 25 -16.5 78.5t-18.5 83.5q-17 60 -45.5 81t-87.5 21h-49l-86 -483q-15 -86 18 -118.5t123 -32.5q43 0 74 8t62 32t52 47.5t64 75.5q100 122 213 301h31l-115 -532h-1278zM518 1483l-10 18l315 311h162l215 -311l-10 -18l-305 92z" />
    <glyph glyph-name="Edieresis" unicode="&#xcb;" horiz-adv-x="1380" 
d="M-70 0l7 33l16 6q61 23 75 46.5t33 127.5l175 987q7 41 10.5 60.5t4 41.5t-2 30t-11 18.5t-19 15.5t-30.5 14l-14 6l6 33h1225l-51 -495h-29q-57 160 -119 290q-36 74 -83 106t-124 32q-63 0 -116 -11l-101 -575h47q58 0 89.5 16.5t68.5 71.5q66 96 105 168h26l-102 -584
h-27q-6 25 -16.5 78.5t-18.5 83.5q-17 60 -45.5 81t-87.5 21h-49l-86 -483q-15 -86 18 -118.5t123 -32.5q43 0 74 8t62 32t52 47.5t64 75.5q100 122 213 301h31l-115 -532h-1278zM1087 1485q-77 0 -129.5 47t-52.5 129q0 80 52.5 127t129.5 47q79 0 132 -46.5t53 -127.5
q0 -82 -52.5 -129t-132.5 -47zM643 1485q-77 0 -129.5 47t-52.5 129q0 80 52.5 127t129.5 47q79 0 131.5 -46.5t52.5 -127.5q0 -82 -52.5 -129t-131.5 -47z" />
    <glyph glyph-name="Igrave" unicode="&#xcc;" horiz-adv-x="839" 
d="M858 1200l-172 -981q-19 -107 -15 -129q4 -25 36 -41q8 -4 22 -10l14 -6l-6 -33h-807l7 33l16 6q61 23 75 46.5t33 127.5l175 987q7 41 10.5 60.5t4 41.5t-2 30t-11 18.5t-19 15.5t-30.5 14l-14 6l6 33h807l-6 -33l-16 -6q-24 -9 -35 -13t-23.5 -16t-16.5 -17.5t-11 -30
t-10 -41.5t-11 -62zM856 1499l-8 -18l-371 45q-70 9 -107.5 48t-37.5 97q0 70 43.5 116t111.5 46q72 0 136 -70z" />
    <glyph glyph-name="Iacute" unicode="&#xcd;" horiz-adv-x="839" 
d="M858 1200l-172 -981q-19 -107 -15 -129q4 -25 36 -41q8 -4 22 -10l14 -6l-6 -33h-807l7 33l16 6q61 23 75 46.5t33 127.5l175 987q7 41 10.5 60.5t4 41.5t-2 30t-11 18.5t-19 15.5t-30.5 14l-14 6l6 33h807l-6 -33l-16 -6q-24 -9 -35 -13t-23.5 -16t-16.5 -17.5t-11 -30
t-10 -41.5t-11 -62zM393 1481l-8 18l233 264q64 70 136 70q68 0 111.5 -46t43.5 -116q0 -58 -37.5 -97t-107.5 -48z" />
    <glyph glyph-name="Icircumflex" unicode="&#xce;" horiz-adv-x="839" 
d="M858 1200l-172 -981q-19 -107 -15 -129q4 -25 36 -41q8 -4 22 -10l14 -6l-6 -33h-807l7 33l16 6q61 23 75 46.5t33 127.5l175 987q7 41 10.5 60.5t4 41.5t-2 30t-11 18.5t-19 15.5t-30.5 14l-14 6l6 33h807l-6 -33l-16 -6q-24 -9 -35 -13t-23.5 -16t-16.5 -17.5t-11 -30
t-10 -41.5t-11 -62zM270 1483l-10 18l315 311h162l215 -311l-10 -18l-305 92z" />
    <glyph glyph-name="Idieresis" unicode="&#xcf;" horiz-adv-x="839" 
d="M858 1200l-172 -981q-19 -107 -15 -129q4 -25 36 -41q8 -4 22 -10l14 -6l-6 -33h-807l7 33l16 6q61 23 75 46.5t33 127.5l175 987q7 41 10.5 60.5t4 41.5t-2 30t-11 18.5t-19 15.5t-30.5 14l-14 6l6 33h807l-6 -33l-16 -6q-24 -9 -35 -13t-23.5 -16t-16.5 -17.5t-11 -30
t-10 -41.5t-11 -62zM840 1485q-77 0 -130 47t-53 129q0 80 53 127t130 47q79 0 131.5 -46.5t52.5 -127.5q0 -82 -52.5 -129t-131.5 -47zM395 1485q-77 0 -129.5 47t-52.5 129q0 80 52.5 127t129.5 47q79 0 132 -46.5t53 -127.5q0 -82 -52.5 -129t-132.5 -47z" />
    <glyph glyph-name="Eth" unicode="&#xd0;" horiz-adv-x="1628" 
d="M43 676l12 63h99l82 461q7 41 10.5 60.5t4 41.5t-2 30t-11 18.5t-19 15.5t-30.5 14l-14 6l6 33h750q371 0 541.5 -143t170.5 -459q0 -186 -67 -340.5t-185 -258.5t-282 -161t-356 -57h-822l7 33l16 6q61 23 75 46.5t33 127.5l82 463h-100zM731 66q63 0 121.5 110
t97.5 273.5t62.5 345t23.5 329.5q0 130 -22 179t-86 49q-23 0 -45 -11l-105 -602h148l-13 -63h-147l-78 -457q-13 -88 -2.5 -120.5t45.5 -32.5z" />
    <glyph glyph-name="Ntilde" unicode="&#xd1;" horiz-adv-x="1361" 
d="M57 178l179 1022q7 41 10.5 60.5t4 41.5t-2 30t-11 18.5t-19 15.5t-30.5 14l-14 6l6 33h643l385 -753h9l102 577q12 70 -5 96t-77 41l-23 6l7 33h301l-6 -33l-15 -4q-60 -17 -80 -42.5t-32 -98.5l-220 -1241h-348l-526 1077h-8l-160 -901q-12 -70 5 -96t77 -41l22 -6
l-6 -33h-295l7 33l14 4q53 15 73.5 42t32.5 99zM891 1796q43 0 164 -19.5t166 -19.5q42 0 73 16.5t62 61.5l20 -10q-22 -53 -31.5 -76t-28 -63.5t-30 -58t-29.5 -42.5t-34.5 -35t-38 -18t-45.5 -8q-41 0 -162.5 18.5t-167.5 18.5q-41 0 -69.5 -16t-61.5 -62l-23 10
q20 51 30.5 76t28 64.5t29.5 58t30 43t34.5 35t38 18.5t45.5 8z" />
    <glyph glyph-name="Ograve" unicode="&#xd2;" horiz-adv-x="1609" 
d="M735 -27q-197 0 -349 74.5t-237.5 216t-85.5 328.5q0 190 68.5 351t187.5 270t282.5 170t350.5 61q197 0 349 -74.5t237.5 -216t85.5 -328.5q0 -190 -68.5 -351t-187.5 -270t-282.5 -170t-350.5 -61zM733 31q36 0 62 33t53 106q68 190 124 538.5t56 508.5q0 97 -16 134.5
t-60 37.5q-53 0 -94 -93q-78 -174 -140.5 -543.5t-62.5 -547.5q0 -95 18.5 -134.5t59.5 -39.5zM1221 1499l-9 -18l-370 45q-70 9 -108 48t-38 97q0 70 44 116t112 46q71 0 135 -70z" />
    <glyph glyph-name="Oacute" unicode="&#xd3;" horiz-adv-x="1609" 
d="M735 -27q-197 0 -349 74.5t-237.5 216t-85.5 328.5q0 190 68.5 351t187.5 270t282.5 170t350.5 61q197 0 349 -74.5t237.5 -216t85.5 -328.5q0 -190 -68.5 -351t-187.5 -270t-282.5 -170t-350.5 -61zM733 31q36 0 62 33t53 106q68 190 124 538.5t56 508.5q0 97 -16 134.5
t-60 37.5q-53 0 -94 -93q-78 -174 -140.5 -543.5t-62.5 -547.5q0 -95 18.5 -134.5t59.5 -39.5zM758 1481l-8 18l233 264q64 70 135 70q68 0 112 -46t44 -116q0 -58 -38 -97t-108 -48z" />
    <glyph glyph-name="Ocircumflex" unicode="&#xd4;" horiz-adv-x="1609" 
d="M735 -27q-197 0 -349 74.5t-237.5 216t-85.5 328.5q0 190 68.5 351t187.5 270t282.5 170t350.5 61q197 0 349 -74.5t237.5 -216t85.5 -328.5q0 -190 -68.5 -351t-187.5 -270t-282.5 -170t-350.5 -61zM733 31q36 0 62 33t53 106q68 190 124 538.5t56 508.5q0 97 -16 134.5
t-60 37.5q-53 0 -94 -93q-78 -174 -140.5 -543.5t-62.5 -547.5q0 -95 18.5 -134.5t59.5 -39.5zM635 1483l-10 18l315 311h162l215 -311l-10 -18l-306 92z" />
    <glyph glyph-name="Otilde" unicode="&#xd5;" horiz-adv-x="1609" 
d="M735 -27q-197 0 -349 74.5t-237.5 216t-85.5 328.5q0 190 68.5 351t187.5 270t282.5 170t350.5 61q197 0 349 -74.5t237.5 -216t85.5 -328.5q0 -190 -68.5 -351t-187.5 -270t-282.5 -170t-350.5 -61zM733 31q36 0 62 33t53 106q68 190 124 538.5t56 508.5q0 97 -16 134.5
t-60 37.5q-53 0 -94 -93q-78 -174 -140.5 -543.5t-62.5 -547.5q0 -95 18.5 -134.5t59.5 -39.5zM901 1796q43 0 164 -19.5t166 -19.5q42 0 73 16.5t62 61.5l20 -10q-22 -53 -31.5 -76t-28 -63.5t-30 -58t-29.5 -42.5t-34.5 -35t-38 -18t-45.5 -8q-41 0 -162.5 18.5
t-167.5 18.5q-41 0 -69.5 -16t-61.5 -62l-22 10q21 53 30.5 76.5t27.5 63.5t29.5 58t29.5 43t34.5 35.5t38 18.5t45.5 8z" />
    <glyph glyph-name="Odieresis" unicode="&#xd6;" horiz-adv-x="1609" 
d="M735 -27q-197 0 -349 74.5t-237.5 216t-85.5 328.5q0 190 68.5 351t187.5 270t282.5 170t350.5 61q197 0 349 -74.5t237.5 -216t85.5 -328.5q0 -190 -68.5 -351t-187.5 -270t-282.5 -170t-350.5 -61zM733 31q36 0 62 33t53 106q68 190 124 538.5t56 508.5q0 97 -16 134.5
t-60 37.5q-53 0 -94 -93q-78 -174 -140.5 -543.5t-62.5 -547.5q0 -95 18.5 -134.5t59.5 -39.5zM1204 1485q-77 0 -129.5 47t-52.5 129q0 80 52.5 127t129.5 47q79 0 132 -46.5t53 -127.5q0 -82 -52.5 -129t-132.5 -47zM760 1485q-77 0 -129.5 47t-52.5 129q0 80 52.5 127
t129.5 47q79 0 131.5 -46.5t52.5 -127.5q0 -82 -52.5 -129t-131.5 -47z" />
    <glyph glyph-name="multiply" unicode="&#xd7;" horiz-adv-x="929" 
d="M190 1077l306 -321l307 321l49 -49l-307 -321l307 -322l-47 -49l-307 321l-308 -321l-49 49l308 322l-306 321z" />
    <glyph glyph-name="Oslash" unicode="&#xd8;" horiz-adv-x="1609" 
d="M735 -27q-230 0 -397 101l-141 -172h-82l170 209q-222 174 -222 481q0 190 68.5 351t187.5 270t282.5 170t350.5 61q197 0 357 -80l106 131h82l-133 -162q124 -81 192 -211.5t68 -296.5q0 -190 -68.5 -351t-187.5 -270t-282.5 -170t-350.5 -61zM737 31q45 0 88.5 82
t77.5 215.5t60.5 276.5t44.5 292l-338 -416q-21 -173 -21 -272q0 -178 88 -178zM952 1389q-54 0 -108.5 -127.5t-92 -296t-65.5 -363.5l336 410q12 126 12 200q0 95 -19 136t-63 41z" />
    <glyph glyph-name="Ugrave" unicode="&#xd9;" horiz-adv-x="1454" 
d="M1468 1243l-153 -868q-38 -213 -173.5 -307.5t-398.5 -94.5q-380 0 -528 138.5t-96 427.5l117 661q9 48 11.5 69t3.5 43t-7 31.5t-20 18t-36 18.5l-14 6l6 33h807l-6 -33l-16 -6q-28 -10 -41 -18t-24 -16t-17.5 -31.5t-11 -42.5t-13.5 -72l-133 -754q-31 -174 29 -250.5
t204 -76.5q122 0 193.5 65t95.5 207l152 854q12 70 -4 95t-76 40l-23 6l7 33h299l-7 -33l-14 -4q-61 -17 -82 -42.5t-31 -96.5zM1339 1499l-8 -18l-370 45q-70 9 -108 48t-38 97q0 70 44 116t112 46q71 0 135 -70z" />
    <glyph glyph-name="Uacute" unicode="&#xda;" horiz-adv-x="1454" 
d="M1468 1243l-153 -868q-38 -213 -173.5 -307.5t-398.5 -94.5q-380 0 -528 138.5t-96 427.5l117 661q9 48 11.5 69t3.5 43t-7 31.5t-20 18t-36 18.5l-14 6l6 33h807l-6 -33l-16 -6q-28 -10 -41 -18t-24 -16t-17.5 -31.5t-11 -42.5t-13.5 -72l-133 -754q-31 -174 29 -250.5
t204 -76.5q122 0 193.5 65t95.5 207l152 854q12 70 -4 95t-76 40l-23 6l7 33h299l-7 -33l-14 -4q-61 -17 -82 -42.5t-31 -96.5zM877 1481l-9 18l234 264q64 70 135 70q68 0 112 -46t44 -116q0 -58 -38 -97t-108 -48z" />
    <glyph glyph-name="Ucircumflex" unicode="&#xdb;" horiz-adv-x="1454" 
d="M1468 1243l-153 -868q-38 -213 -173.5 -307.5t-398.5 -94.5q-380 0 -528 138.5t-96 427.5l117 661q9 48 11.5 69t3.5 43t-7 31.5t-20 18t-36 18.5l-14 6l6 33h807l-6 -33l-16 -6q-28 -10 -41 -18t-24 -16t-17.5 -31.5t-11 -42.5t-13.5 -72l-133 -754q-31 -174 29 -250.5
t204 -76.5q122 0 193.5 65t95.5 207l152 854q12 70 -4 95t-76 40l-23 6l7 33h299l-7 -33l-14 -4q-61 -17 -82 -42.5t-31 -96.5zM754 1483l-11 18l316 311h162l215 -311l-11 -18l-305 92z" />
    <glyph glyph-name="Udieresis" unicode="&#xdc;" horiz-adv-x="1454" 
d="M1468 1243l-153 -868q-38 -213 -173.5 -307.5t-398.5 -94.5q-380 0 -528 138.5t-96 427.5l117 661q9 48 11.5 69t3.5 43t-7 31.5t-20 18t-36 18.5l-14 6l6 33h807l-6 -33l-16 -6q-28 -10 -41 -18t-24 -16t-17.5 -31.5t-11 -42.5t-13.5 -72l-133 -754q-31 -174 29 -250.5
t204 -76.5q122 0 193.5 65t95.5 207l152 854q12 70 -4 95t-76 40l-23 6l7 33h299l-7 -33l-14 -4q-61 -17 -82 -42.5t-31 -96.5zM1298 1485q-77 0 -129.5 47t-52.5 129q0 80 52.5 127t129.5 47q79 0 132 -46.5t53 -127.5q0 -82 -52.5 -129t-132.5 -47zM854 1485
q-77 0 -129.5 47t-52.5 129q0 80 52.5 127t129.5 47q79 0 131.5 -46.5t52.5 -127.5q0 -82 -52.5 -129t-131.5 -47z" />
    <glyph glyph-name="Yacute" unicode="&#xdd;" horiz-adv-x="1482" 
d="M1640 1419l-6 -33l-10 -4q-43 -19 -81 -59t-116 -160l-348 -536l-71 -408q-15 -91 4.5 -122t107.5 -56l27 -8l-6 -33h-963l6 33l31 8q97 26 124 56t42 122l76 424l-181 555q-23 71 -38.5 105.5t-25 45t-32.5 27.5l-14 10l6 33h911l-6 -33l-33 -10q-78 -24 -111.5 -55.5
t-33.5 -77.5q0 -38 35 -131l113 -389h4l260 399q71 111 71 158q0 60 -104 94l-37 12l6 33h393zM913 1481l-8 18l234 264q64 70 135 70q68 0 112 -46t44 -116q0 -58 -38 -97t-108 -48z" />
    <glyph glyph-name="Thorn" unicode="&#xde;" horiz-adv-x="1523" 
d="M756 0h-826l7 33l16 6q61 23 75 46.5t33 127.5l175 987q7 41 10.5 60.5t4 41.5t-2 30t-11 18.5t-19 15.5t-30.5 14l-14 6l6 33h821l-6 -33l-16 -6q-46 -18 -63.5 -30.5t-30 -42.5t-25.5 -101l-12 -65h61q337 0 485 -97.5t148 -302.5q0 -145 -73 -247.5t-194.5 -150.5
t-281.5 -48q-143 0 -231 29l6 32q38 -2 64 12.5t49 53.5q44 78 68 219.5t24 276.5q0 155 -96 155q-26 0 -41 -6l-150 -848q-10 -55 -12.5 -83.5t7 -48t22.5 -27t45 -21.5l14 -6z" />
    <glyph glyph-name="germandbls" unicode="&#xdf;" horiz-adv-x="1511" 
d="M748 1204l-142 -811q-67 -392 -263 -601.5t-490 -209.5q-150 0 -233 58.5t-83 154.5q0 66 44 108t122 42q95 0 134.5 -53.5t51.5 -194.5q5 -57 27 -57q13 0 24 21t27 92t37 200l160 999h-129l8 45l145 86l7 21q47 157 135.5 256t242.5 152t381 53q247 0 373.5 -75
t126.5 -194q0 -62 -46 -112.5t-112 -83t-132 -59.5t-112 -54.5t-46 -56.5q0 -17 26.5 -39t69 -48t94.5 -57t103.5 -71t94 -86t69 -107t26.5 -127q0 -82 -37.5 -157.5t-105.5 -134t-171.5 -93.5t-226.5 -35q-346 0 -346 191q0 63 34.5 103t104.5 40q82 0 124 -44t69 -152
q11 -44 23 -61t36 -17q80 0 80 131q0 37 -20 70.5t-52 61.5t-71 56t-78 59.5t-71 66t-52 81.5t-20 101q0 58 38.5 117t93 112t109 110t93 134t38.5 161q0 201 -127 201q-77 0 -128 -70t-78 -223z" />
    <glyph glyph-name="agrave" unicode="&#xe0;" horiz-adv-x="1349" 
d="M586 219q41 0 80 62l153 731q-10 45 -47 45q-51 0 -109.5 -127t-97.5 -301.5t-39 -309.5q0 -100 60 -100zM666 203h-7q-157 -228 -385 -228q-129 0 -201.5 85t-72.5 229q0 233 100 421.5t280 296t406 107.5q232 0 365 -108h8l199 98l24 -8q-55 -146 -98 -361l-88 -450
q-8 -46 -8 -62q0 -71 94 -20l23 12l20 -31q-221 -209 -459 -209q-96 0 -149 50t-53 137q0 23 2 41zM1067 1174l-10 -19l-365 76q-64 13 -98.5 51t-34.5 90q0 69 43 116.5t111 47.5q81 0 143 -80z" />
    <glyph glyph-name="aacute" unicode="&#xe1;" horiz-adv-x="1349" 
d="M586 219q41 0 80 62l153 731q-10 45 -47 45q-51 0 -109.5 -127t-97.5 -301.5t-39 -309.5q0 -100 60 -100zM666 203h-7q-157 -228 -385 -228q-129 0 -201.5 85t-72.5 229q0 233 100 421.5t280 296t406 107.5q232 0 365 -108h8l199 98l24 -8q-55 -146 -98 -361l-88 -450
q-8 -46 -8 -62q0 -71 94 -20l23 12l20 -31q-221 -209 -459 -209q-96 0 -149 50t-53 137q0 23 2 41zM1028 1231l-364 -76l-11 19l211 282q62 80 144 80q68 0 110.5 -47.5t42.5 -116.5q0 -52 -34.5 -90t-98.5 -51z" />
    <glyph glyph-name="acircumflex" unicode="&#xe2;" horiz-adv-x="1349" 
d="M586 219q41 0 80 62l153 731q-10 45 -47 45q-51 0 -109.5 -127t-97.5 -301.5t-39 -309.5q0 -100 60 -100zM666 203h-7q-157 -228 -385 -228q-129 0 -201.5 85t-72.5 229q0 233 100 421.5t280 296t406 107.5q232 0 365 -108h8l199 98l24 -8q-55 -146 -98 -361l-88 -450
q-8 -46 -8 -62q0 -71 94 -20l23 12l20 -31q-221 -209 -459 -209q-96 0 -149 50t-53 137q0 23 2 41zM791 1511h159l185 -329l-13 -17l-276 113l-334 -113l-8 17z" />
    <glyph glyph-name="atilde" unicode="&#xe3;" horiz-adv-x="1349" 
d="M586 219q41 0 80 62l153 731q-10 45 -47 45q-51 0 -109.5 -127t-97.5 -301.5t-39 -309.5q0 -100 60 -100zM666 203h-7q-157 -228 -385 -228q-129 0 -201.5 85t-72.5 229q0 233 100 421.5t280 296t406 107.5q232 0 365 -108h8l199 98l24 -8q-55 -146 -98 -361l-88 -450
q-8 -46 -8 -62q0 -71 94 -20l23 12l20 -31q-221 -209 -459 -209q-96 0 -149 50t-53 137q0 23 2 41zM739 1497q43 0 161 -19.5t163 -19.5q42 0 71.5 16.5t61.5 61.5l18 -10q-62 -166 -113.5 -237.5t-131.5 -71.5q-41 0 -158.5 18t-163.5 18q-42 0 -70.5 -16t-60.5 -61l-22 10
q62 167 113.5 239t131.5 72z" />
    <glyph glyph-name="adieresis" unicode="&#xe4;" horiz-adv-x="1349" 
d="M586 219q41 0 80 62l153 731q-10 45 -47 45q-51 0 -109.5 -127t-97.5 -301.5t-39 -309.5q0 -100 60 -100zM666 203h-7q-157 -228 -385 -228q-129 0 -201.5 85t-72.5 229q0 233 100 421.5t280 296t406 107.5q232 0 365 -108h8l199 98l24 -8q-55 -146 -98 -361l-88 -450
q-8 -46 -8 -62q0 -71 94 -20l23 12l20 -31q-221 -209 -459 -209q-96 0 -149 50t-53 137q0 23 2 41zM602 1174q-80 0 -135 49t-55 133t55 133t135 49q83 0 137 -48.5t54 -133.5t-54 -133.5t-137 -48.5zM1047 1174q-80 0 -134.5 48.5t-54.5 133.5t54.5 133.5t134.5 48.5
q83 0 137.5 -48.5t54.5 -133.5t-54.5 -133.5t-137.5 -48.5z" />
    <glyph glyph-name="aring" unicode="&#xe5;" horiz-adv-x="1349" 
d="M586 219q41 0 80 62l153 731q-10 45 -47 45q-51 0 -109.5 -127t-97.5 -301.5t-39 -309.5q0 -100 60 -100zM666 203h-7q-157 -228 -385 -228q-129 0 -201.5 85t-72.5 229q0 233 100 421.5t280 296t406 107.5q232 0 365 -108h8l199 98l24 -8q-55 -146 -98 -361l-88 -450
q-8 -46 -8 -62q0 -71 94 -20l23 12l20 -31q-221 -209 -459 -209q-96 0 -149 50t-53 137q0 23 2 41zM748 1360q0 -57 31 -93t85 -36t85.5 36t31.5 93t-31.5 93t-85.5 36t-85 -36t-31 -93zM670 1360q0 80 57.5 133t136.5 53t137 -53t58 -133t-58 -133t-137 -53t-136.5 53
t-57.5 133z" />
    <glyph glyph-name="ae" unicode="&#xe6;" horiz-adv-x="1763" 
d="M-12 238q0 105 55 168.5t194.5 105t395.5 66.5l35 219q43 254 -39 254q-23 0 -34 -22t-22 -83q-28 -154 -91.5 -215t-176.5 -61q-90 0 -137 43.5t-47 122.5q0 118 133.5 195t333.5 77q296 0 397 -125q200 125 420 125q167 0 269 -66.5t102 -171.5q0 -133 -154 -215.5
t-479 -128.5q-4 -74 -4 -100q0 -131 46.5 -187.5t141.5 -56.5q140 0 309 146l29 -25q-246 -328 -618 -328q-138 0 -242.5 49t-155.5 144q-120 -193 -348 -193q-156 0 -234.5 74.5t-78.5 188.5zM1382 958q0 97 -47 97q-40 0 -79 -76.5t-66 -183.5t-41 -222q99 22 154 74
q38 37 58.5 122t20.5 189zM543 154q51 0 88 55q-27 76 -27 151q0 101 17 162q-84 -31 -117 -90t-33 -184q0 -41 19 -67.5t53 -26.5z" />
    <glyph glyph-name="ccedilla" unicode="&#xe7;" horiz-adv-x="1148" 
d="M88 -424v25q79 22 124.5 56t45.5 73q0 51 -74 51l-4 10l129 201q-145 34 -221 133t-76 254q0 129 45 245t122.5 203t178 151t214.5 97t229 33q168 0 271.5 -71.5t103.5 -190.5q0 -78 -51 -123t-136 -45q-115 0 -159 63t-58 234q-4 60 -10 68q-5 10 -19 10
q-37 0 -83.5 -99.5t-79.5 -252.5t-33 -289q0 -120 46.5 -174t141.5 -54q75 0 148 35.5t159 108.5l29 -25q-115 -153 -269 -240.5t-341 -87.5q-43 0 -94 7l-35 -41q89 -6 133.5 -43.5t44.5 -98.5q0 -79 -101.5 -138.5t-320.5 -84.5z" />
    <glyph glyph-name="egrave" unicode="&#xe8;" horiz-adv-x="1169" 
d="M453 -25q-199 0 -321 99t-122 286q0 153 64.5 292t172.5 238.5t255.5 158.5t308.5 59q167 0 269 -66.5t102 -171.5q0 -133 -154 -215.5t-479 -128.5q-4 -74 -4 -100q0 -131 46.5 -187.5t141.5 -56.5q140 0 309 146l29 -25q-246 -328 -618 -328zM995 1174l-10 -19l-364 76
q-65 13 -99.5 51t-34.5 90q0 69 43 116.5t111 47.5q81 0 143 -80zM741 1055q-40 0 -79 -76t-66 -183t-41 -223q51 12 85.5 27.5t68.5 46.5q38 37 58.5 122t20.5 189q0 97 -47 97z" />
    <glyph glyph-name="eacute" unicode="&#xe9;" horiz-adv-x="1169" 
d="M453 -25q-199 0 -321 99t-122 286q0 153 64.5 292t172.5 238.5t255.5 158.5t308.5 59q167 0 269 -66.5t102 -171.5q0 -133 -154 -215.5t-479 -128.5q-4 -74 -4 -100q0 -131 46.5 -187.5t141.5 -56.5q140 0 309 146l29 -25q-246 -328 -618 -328zM956 1231l-364 -76l-10 19
l211 282q62 80 143 80q68 0 111 -47.5t43 -116.5q0 -52 -34.5 -90t-99.5 -51zM741 1055q-40 0 -79 -76t-66 -183t-41 -223q51 12 85.5 27.5t68.5 46.5q38 37 58.5 122t20.5 189q0 97 -47 97z" />
    <glyph glyph-name="ecircumflex" unicode="&#xea;" horiz-adv-x="1169" 
d="M453 -25q-199 0 -321 99t-122 286q0 153 64.5 292t172.5 238.5t255.5 158.5t308.5 59q167 0 269 -66.5t102 -171.5q0 -133 -154 -215.5t-479 -128.5q-4 -74 -4 -100q0 -131 46.5 -187.5t141.5 -56.5q140 0 309 146l29 -25q-246 -328 -618 -328zM721 1511h160l184 -329
l-12 -17l-277 113l-334 -113l-8 17zM741 1055q-40 0 -79 -76t-66 -183t-41 -223q51 12 85.5 27.5t68.5 46.5q38 37 58.5 122t20.5 189q0 97 -47 97z" />
    <glyph glyph-name="edieresis" unicode="&#xeb;" horiz-adv-x="1169" 
d="M453 -25q-199 0 -321 99t-122 286q0 153 64.5 292t172.5 238.5t255.5 158.5t308.5 59q167 0 269 -66.5t102 -171.5q0 -133 -154 -215.5t-479 -128.5q-4 -74 -4 -100q0 -131 46.5 -187.5t141.5 -56.5q140 0 309 146l29 -25q-246 -328 -618 -328zM530 1174q-80 0 -135 49
t-55 133t55 133t135 49q83 0 137 -48.5t54 -133.5t-54 -133.5t-137 -48.5zM975 1174q-80 0 -134.5 48.5t-54.5 133.5t54.5 133.5t134.5 48.5q83 0 137.5 -48.5t54.5 -133.5t-54.5 -133.5t-137.5 -48.5zM741 1055q-40 0 -79 -76t-66 -183t-41 -223q51 12 85.5 27.5t68.5 46.5
q38 37 58.5 122t20.5 189q0 97 -47 97z" />
    <glyph glyph-name="igrave" unicode="&#xec;" horiz-adv-x="710" 
d="M47 328l92 454q4 24 4 41q0 34 -22.5 41.5t-73.5 -22.5l-18 -13l-23 29q98 103 220.5 174.5t250.5 71.5q100 0 153.5 -51t53.5 -138q0 -55 -18 -147l-101 -487q-10 -52 -10 -70q0 -59 94 -4l25 14l20 -33q-235 -213 -475 -213q-98 0 -148.5 46t-50.5 118q0 65 27 189z
M715 1174l-10 -19l-365 76q-64 13 -98.5 51t-34.5 90q0 69 42.5 116.5t110.5 47.5q82 0 144 -80z" />
    <glyph glyph-name="iacute" unicode="&#xed;" horiz-adv-x="710" 
d="M47 328l92 454q4 24 4 41q0 34 -22.5 41.5t-73.5 -22.5l-18 -13l-23 29q98 103 220.5 174.5t250.5 71.5q100 0 153.5 -51t53.5 -138q0 -55 -18 -147l-101 -487q-10 -52 -10 -70q0 -59 94 -4l25 14l20 -33q-235 -213 -475 -213q-98 0 -148.5 46t-50.5 118q0 65 27 189z
M676 1231l-365 -76l-10 19l211 282q62 80 143 80q68 0 111 -47.5t43 -116.5q0 -52 -34.5 -90t-98.5 -51z" />
    <glyph glyph-name="icircumflex" unicode="&#xee;" horiz-adv-x="710" 
d="M47 328l92 454q4 24 4 41q0 34 -22.5 41.5t-73.5 -22.5l-18 -13l-23 29q98 103 220.5 174.5t250.5 71.5q100 0 153.5 -51t53.5 -138q0 -55 -18 -147l-101 -487q-10 -52 -10 -70q0 -59 94 -4l25 14l20 -33q-235 -213 -475 -213q-98 0 -148.5 46t-50.5 118q0 65 27 189z
M440 1511h160l184 -329l-12 -17l-276 113l-334 -113l-8 17z" />
    <glyph glyph-name="idieresis" unicode="&#xef;" horiz-adv-x="710" 
d="M47 328l92 454q4 24 4 41q0 34 -22.5 41.5t-73.5 -22.5l-18 -13l-23 29q98 103 220.5 174.5t250.5 71.5q100 0 153.5 -51t53.5 -138q0 -55 -18 -147l-101 -487q-10 -52 -10 -70q0 -59 94 -4l25 14l20 -33q-235 -213 -475 -213q-98 0 -148.5 46t-50.5 118q0 65 27 189z
M250 1174q-80 0 -135.5 49t-55.5 133t55.5 133t135.5 49q82 0 136 -48.5t54 -133.5t-54 -133.5t-136 -48.5zM694 1174q-80 0 -134 48.5t-54 133.5t54 133.5t134 48.5q83 0 138 -48.5t55 -133.5t-55 -133.5t-138 -48.5z" />
    <glyph glyph-name="eth" unicode="&#xf0;" horiz-adv-x="1316" 
d="M387 1206l-25 54l256 118q-95 106 -196 160l12 35q200 -47 354 -117l213 100l25 -53l-170 -80q457 -238 457 -706q0 -181 -55.5 -323t-155.5 -233t-235 -138.5t-298 -47.5q-255 0 -407 133.5t-152 356.5q0 146 55.5 268t151 203.5t222.5 126.5t270 45q27 0 59 -4
q-42 128 -113 227zM567 33q61 0 105 147q47 155 85 398t38 337q0 76 -11.5 106t-42.5 30q-26 0 -47 -29.5t-43 -95.5q-49 -150 -90 -406.5t-41 -355.5q0 -70 9 -100.5t38 -30.5z" />
    <glyph glyph-name="ntilde" unicode="&#xf1;" horiz-adv-x="1404" 
d="M1348 692l-97 -422q-8 -33 -8 -63q0 -17 12 -23.5t33.5 -1t48.5 20.5l23 12l20 -31q-107 -98 -230 -153.5t-245 -55.5q-100 0 -148 49t-48 126q0 47 22 147l88 418q13 65 7 93t-33 28q-53 0 -125 -99l-150 -737h-530l159 782q5 30 5 41q0 34 -23 41.5t-74 -22.5l-18 -13
l-23 29q242 246 473 246q90 0 139.5 -48.5t49.5 -121.5q0 -56 -10 -129h4q95 133 231 216t273 83q95 0 150.5 -51t55.5 -135t-32 -226zM750 1497q42 0 160 -19.5t163 -19.5q42 0 71.5 16.5t61.5 61.5l19 -10q-61 -165 -113 -237t-133 -72q-41 0 -158.5 18t-163.5 18
q-42 0 -70.5 -16t-60.5 -61l-22 10q31 83 54.5 134t52.5 94.5t63 63t76 19.5z" />
    <glyph glyph-name="ograve" unicode="&#xf2;" horiz-adv-x="1339" 
d="M575 33q61 0 105 147q47 155 85 398t38 337q0 76 -11 106t-42 30q-26 0 -47.5 -29.5t-43.5 -95.5q-49 -150 -90 -406.5t-41 -355.5q0 -70 9 -100.5t38 -30.5zM578 -25q-254 0 -407 132.5t-153 349.5q0 195 96.5 344.5t261 228t369.5 78.5q138 0 248.5 -36.5t181.5 -101.5
t108.5 -152t37.5 -189q0 -198 -96 -347.5t-264 -228t-383 -78.5zM1020 1174l-10 -19l-365 76q-64 13 -98.5 51t-34.5 90q0 69 43 116.5t111 47.5q81 0 143 -80z" />
    <glyph glyph-name="oacute" unicode="&#xf3;" horiz-adv-x="1339" 
d="M575 33q61 0 105 147q47 155 85 398t38 337q0 76 -11 106t-42 30q-26 0 -47.5 -29.5t-43.5 -95.5q-49 -150 -90 -406.5t-41 -355.5q0 -70 9 -100.5t38 -30.5zM578 -25q-254 0 -407 132.5t-153 349.5q0 195 96.5 344.5t261 228t369.5 78.5q138 0 248.5 -36.5t181.5 -101.5
t108.5 -152t37.5 -189q0 -198 -96 -347.5t-264 -228t-383 -78.5zM981 1231l-365 -76l-10 19l211 282q62 80 144 80q68 0 110.5 -47.5t42.5 -116.5q0 -52 -34.5 -90t-98.5 -51z" />
    <glyph glyph-name="ocircumflex" unicode="&#xf4;" horiz-adv-x="1339" 
d="M575 33q61 0 105 147q47 155 85 398t38 337q0 76 -11 106t-42 30q-26 0 -47.5 -29.5t-43.5 -95.5q-49 -150 -90 -406.5t-41 -355.5q0 -70 9 -100.5t38 -30.5zM578 -25q-254 0 -407 132.5t-153 349.5q0 195 96.5 344.5t261 228t369.5 78.5q138 0 248.5 -36.5t181.5 -101.5
t108.5 -152t37.5 -189q0 -198 -96 -347.5t-264 -228t-383 -78.5zM743 1511h160l184 -329l-12 -17l-276 113l-334 -113l-8 17z" />
    <glyph glyph-name="otilde" unicode="&#xf5;" horiz-adv-x="1339" 
d="M575 33q61 0 105 147q47 155 85 398t38 337q0 76 -11 106t-42 30q-26 0 -47.5 -29.5t-43.5 -95.5q-49 -150 -90 -406.5t-41 -355.5q0 -70 9 -100.5t38 -30.5zM578 -25q-254 0 -407 132.5t-153 349.5q0 195 96.5 344.5t261 228t369.5 78.5q138 0 248.5 -36.5t181.5 -101.5
t108.5 -152t37.5 -189q0 -198 -96 -347.5t-264 -228t-383 -78.5zM692 1497q42 0 160 -19.5t164 -19.5q42 0 71.5 16.5t61.5 61.5l18 -10q-62 -166 -113.5 -237.5t-131.5 -71.5q-41 0 -158.5 18t-163.5 18q-42 0 -70.5 -16t-60.5 -61l-23 10q31 83 54.5 134t52.5 94.5t63 63
t76 19.5z" />
    <glyph glyph-name="odieresis" unicode="&#xf6;" horiz-adv-x="1339" 
d="M575 33q61 0 105 147q47 155 85 398t38 337q0 76 -11 106t-42 30q-26 0 -47.5 -29.5t-43.5 -95.5q-49 -150 -90 -406.5t-41 -355.5q0 -70 9 -100.5t38 -30.5zM578 -25q-254 0 -407 132.5t-153 349.5q0 195 96.5 344.5t261 228t369.5 78.5q138 0 248.5 -36.5t181.5 -101.5
t108.5 -152t37.5 -189q0 -198 -96 -347.5t-264 -228t-383 -78.5zM555 1174q-80 0 -135 49t-55 133t55 133t135 49q82 0 136 -48.5t54 -133.5t-54 -133.5t-136 -48.5zM999 1174q-80 0 -134 48.5t-54 133.5t54 133.5t134 48.5q83 0 138 -48.5t55 -133.5t-55 -133.5t-138 -48.5
z" />
    <glyph glyph-name="divide" unicode="&#xf7;" horiz-adv-x="993" 
d="M117 674v67h813v-67h-813zM522 248q-63 0 -107 45t-44 106q0 65 43.5 108.5t107.5 43.5q63 0 107.5 -43.5t44.5 -108.5q0 -60 -45.5 -105.5t-106.5 -45.5zM522 864q-63 0 -107 45.5t-44 106.5q0 65 43.5 108t107.5 43q63 0 107.5 -43t44.5 -108q0 -60 -45.5 -106
t-106.5 -46z" />
    <glyph glyph-name="oslash" unicode="&#xf8;" horiz-adv-x="1339" 
d="M578 -25q-186 0 -318 72l-104 -117h-76l131 146q-93 64 -143 161.5t-50 219.5q0 195 96.5 344.5t261 228t369.5 78.5q185 0 328 -70l107 119h75l-133 -147q97 -65 148 -164t51 -217q0 -198 -96 -347.5t-264 -228t-383 -78.5zM573 31q34 0 60.5 36.5t52.5 112.5
q52 173 94 447l-243 -273q-17 -143 -17 -182q0 -75 11 -108t42 -33zM653 926q-59 -169 -102 -471l242 270q16 131 16 182q0 82 -13 113t-48 31q-54 0 -95 -125z" />
    <glyph glyph-name="ugrave" unicode="&#xf9;" horiz-adv-x="1380" 
d="M651 696l-73 -340q-15 -73 -15 -82q0 -36 37 -36q25 0 55.5 21t51.5 56l161 764h527l-158 -755q-14 -71 -14 -105q0 -32 23.5 -38t70.5 20l24 14l23 -29q-84 -90 -206.5 -150.5t-248.5 -60.5q-102 0 -155.5 48t-53.5 143q0 22 7 78h-5q-206 -269 -444 -269
q-110 0 -171.5 59.5t-61.5 158.5q0 51 20 149l90 387q17 73 17 92q0 38 -25.5 44.5t-71.5 -23.5l-18 -13l-23 29q228 246 467 246q93 0 148 -53.5t55 -149.5q0 -56 -33 -205zM1016 1174l-10 -19l-365 76q-64 13 -98.5 51t-34.5 90q0 69 43 116.5t111 47.5q81 0 143 -80z" />
    <glyph glyph-name="uacute" unicode="&#xfa;" horiz-adv-x="1380" 
d="M651 696l-73 -340q-15 -73 -15 -82q0 -36 37 -36q25 0 55.5 21t51.5 56l161 764h527l-158 -755q-14 -71 -14 -105q0 -32 23.5 -38t70.5 20l24 14l23 -29q-84 -90 -206.5 -150.5t-248.5 -60.5q-102 0 -155.5 48t-53.5 143q0 22 7 78h-5q-206 -269 -444 -269
q-110 0 -171.5 59.5t-61.5 158.5q0 51 20 149l90 387q17 73 17 92q0 38 -25.5 44.5t-71.5 -23.5l-18 -13l-23 29q228 246 467 246q93 0 148 -53.5t55 -149.5q0 -56 -33 -205zM979 1231l-365 -76l-10 19l211 282q62 80 143 80q68 0 111 -47.5t43 -116.5q0 -52 -34.5 -90
t-98.5 -51z" />
    <glyph glyph-name="ucircumflex" unicode="&#xfb;" horiz-adv-x="1380" 
d="M651 696l-73 -340q-15 -73 -15 -82q0 -36 37 -36q25 0 55.5 21t51.5 56l161 764h527l-158 -755q-14 -71 -14 -105q0 -32 23.5 -38t70.5 20l24 14l23 -29q-84 -90 -206.5 -150.5t-248.5 -60.5q-102 0 -155.5 48t-53.5 143q0 22 7 78h-5q-206 -269 -444 -269
q-110 0 -171.5 59.5t-61.5 158.5q0 51 20 149l90 387q17 73 17 92q0 38 -25.5 44.5t-71.5 -23.5l-18 -13l-23 29q228 246 467 246q93 0 148 -53.5t55 -149.5q0 -56 -33 -205zM743 1511h160l184 -329l-12 -17l-276 113l-334 -113l-8 17z" />
    <glyph glyph-name="udieresis" unicode="&#xfc;" horiz-adv-x="1380" 
d="M651 696l-73 -340q-15 -73 -15 -82q0 -36 37 -36q25 0 55.5 21t51.5 56l161 764h527l-158 -755q-14 -71 -14 -105q0 -32 23.5 -38t70.5 20l24 14l23 -29q-84 -90 -206.5 -150.5t-248.5 -60.5q-102 0 -155.5 48t-53.5 143q0 22 7 78h-5q-206 -269 -444 -269
q-110 0 -171.5 59.5t-61.5 158.5q0 51 20 149l90 387q17 73 17 92q0 38 -25.5 44.5t-71.5 -23.5l-18 -13l-23 29q228 246 467 246q93 0 148 -53.5t55 -149.5q0 -56 -33 -205zM553 1174q-80 0 -135.5 49t-55.5 133t55.5 133t135.5 49q82 0 136 -48.5t54 -133.5t-54 -133.5
t-136 -48.5zM997 1174q-80 0 -134 48.5t-54 133.5t54 133.5t134 48.5q83 0 138 -48.5t55 -133.5t-55 -133.5t-138 -48.5z" />
    <glyph glyph-name="yacute" unicode="&#xfd;" horiz-adv-x="1200" 
d="M698 907q39 -196 84 -637h4q228 256 228 377q0 30 -19 57.5t-46 50t-54.5 48t-46.5 63t-19 82.5q0 73 51 117.5t130 44.5q84 0 142 -58t58 -153q0 -67 -21 -138t-73.5 -167.5t-152.5 -224t-248 -283.5q-259 -277 -432 -392.5t-334 -115.5q-114 0 -180 52t-66 147
q0 75 48.5 122.5t125.5 47.5q51 0 89 -22.5t59 -54.5t39.5 -63.5t43.5 -54t58 -22.5q60 0 133 57q-45 509 -137 975q-12 60 -23 81.5t-29 21t-57 -24.5l-16 -11l-23 29q242 246 482 246q164 0 202 -197zM922 1231l-365 -76l-10 19l211 282q62 80 143 80q68 0 111 -47.5
t43 -116.5q0 -52 -34.5 -90t-98.5 -51z" />
    <glyph glyph-name="thorn" unicode="&#xfe;" horiz-adv-x="1374" 
d="M586 31q55 0 110 130t87 300t32 301q0 46 -10 67t-33 21q-32 0 -63 -32t-47 -62l-134 -666q2 -27 16.5 -43t41.5 -16zM-68 -238l301 1506q14 70 13 102.5t-13 48t-47 37.5l-36 23l6 24l647 47l20 -18q-28 -109 -55 -246l-86 -428h4q77 106 183.5 176t226.5 70t196 -92
t76 -254q0 -187 -54 -337t-150.5 -246.5t-226.5 -148t-284 -51.5q-68 0 -145 15l-45 -228q-13 -69 0.5 -88t93.5 -45l6 -2l-6 -33h-770l6 33l19 6q72 25 89.5 43.5t30.5 85.5z" />
    <glyph glyph-name="ydieresis" unicode="&#xff;" horiz-adv-x="1200" 
d="M698 907q39 -196 84 -637h4q228 256 228 377q0 30 -19 57.5t-46 50t-54.5 48t-46.5 63t-19 82.5q0 73 51 117.5t130 44.5q84 0 142 -58t58 -153q0 -67 -21 -138t-73.5 -167.5t-152.5 -224t-248 -283.5q-259 -277 -432 -392.5t-334 -115.5q-114 0 -180 52t-66 147
q0 75 48.5 122.5t125.5 47.5q51 0 89 -22.5t59 -54.5t39.5 -63.5t43.5 -54t58 -22.5q60 0 133 57q-45 509 -137 975q-12 60 -23 81.5t-29 21t-57 -24.5l-16 -11l-23 29q242 246 482 246q164 0 202 -197zM496 1174q-80 0 -135.5 49t-55.5 133t55.5 133t135.5 49
q82 0 136 -48.5t54 -133.5t-54 -133.5t-136 -48.5zM940 1174q-80 0 -134 48.5t-54 133.5t54 133.5t134 48.5q83 0 138 -48.5t55 -133.5t-55 -133.5t-138 -48.5z" />
    <glyph glyph-name="Amacron" unicode="&#x100;" horiz-adv-x="1470" 
d="M-84 0l6 33l10 4q54 22 90.5 65.5t108.5 171.5l645 1145h346l183 -1114q28 -165 40.5 -210t34.5 -56l13 -6l-7 -33h-866l6 33l41 12q50 14 75 29t39 43t11 70.5t-8 111.5l-20 145h-353l-63 -114q-84 -154 -84 -199q0 -33 24 -51t91 -41l18 -6l-6 -33h-375zM641 1552
l25 142h626l-24 -142h-627zM592 946l-244 -436h307l-57 436h-6z" />
    <glyph glyph-name="amacron" unicode="&#x101;" horiz-adv-x="1349" 
d="M586 219q41 0 80 62l153 731q-10 45 -47 45q-51 0 -109.5 -127t-97.5 -301.5t-39 -309.5q0 -100 60 -100zM666 203h-7q-157 -228 -385 -228q-129 0 -201.5 85t-72.5 229q0 233 100 421.5t280 296t406 107.5q232 0 365 -108h8l199 98l24 -8q-55 -146 -98 -361l-88 -450
q-8 -46 -8 -62q0 -71 94 -20l23 12l20 -31q-221 -209 -459 -209q-96 0 -149 50t-53 137q0 23 2 41zM528 1231l33 141h582l-29 -141h-586z" />
    <glyph glyph-name="Abreve" unicode="&#x102;" horiz-adv-x="1470" 
d="M-84 0l6 33l10 4q54 22 90.5 65.5t108.5 171.5l645 1145h346l183 -1114q28 -165 40.5 -210t34.5 -56l13 -6l-7 -33h-866l6 33l41 12q50 14 75 29t39 43t11 70.5t-8 111.5l-20 145h-353l-63 -114q-84 -154 -84 -199q0 -33 24 -51t91 -41l18 -6l-6 -33h-375zM956 1485
q-128 0 -201.5 84t-66.5 243l14 9q34 -68 98 -94.5t171 -26.5q101 0 173 28t136 93l14 -9q-42 -167 -125.5 -247t-212.5 -80zM592 946l-244 -436h307l-57 436h-6z" />
    <glyph glyph-name="abreve" unicode="&#x103;" horiz-adv-x="1349" 
d="M586 219q41 0 80 62l153 731q-10 45 -47 45q-51 0 -109.5 -127t-97.5 -301.5t-39 -309.5q0 -100 60 -100zM666 203h-7q-157 -228 -385 -228q-129 0 -201.5 85t-72.5 229q0 233 100 421.5t280 296t406 107.5q232 0 365 -108h8l199 98l24 -8q-55 -146 -98 -361l-88 -450
q-8 -46 -8 -62q0 -71 94 -20l23 12l20 -31q-221 -209 -459 -209q-96 0 -149 50t-53 137q0 23 2 41zM829 1184q-117 0 -185.5 84t-61.5 243l14 9q34 -67 94 -94t152 -27q97 0 161.5 27t129.5 94l14 -9q-42 -168 -120.5 -247.5t-197.5 -79.5z" />
    <glyph glyph-name="Aogonek" unicode="&#x104;" horiz-adv-x="1470" 
d="M1047 0q-104 0 -176 -15.5t-112 -46t-57.5 -69.5t-17.5 -92q0 -94 90 -94q28 0 55 6l-4 -23q-86 -86 -223 -86q-91 0 -146 44.5t-55 111.5q0 88 87 156t237 104l-59 448h-355l-63 -114q-84 -154 -84 -199q0 -33 24 -51t91 -41l18 -6l-6 -33h-375l6 33l10 4
q54 22 90.5 65.5t108.5 171.5l645 1145h346l183 -1114q28 -165 40.5 -210t34.5 -56l13 -6l-7 -33h-339zM592 946l-244 -436h307l-57 436h-6z" />
    <glyph glyph-name="aogonek" unicode="&#x105;" horiz-adv-x="1349" 
d="M850 -420q-86 0 -141.5 42t-55.5 114q0 82 70.5 141.5t224.5 104.5q-63 -7 -82 -7q-96 0 -149 50t-53 137q0 23 2 41h-7q-157 -228 -385 -228q-129 0 -201.5 85t-72.5 229q0 233 100 421.5t280 296t406 107.5q232 0 365 -108h8l199 98l24 -8q-55 -146 -98 -361l-88 -450
q-8 -46 -8 -62q0 -71 94 -20l23 12l20 -31q-20 -19 -41 -36t-46 -35l-37.5 -27t-41.5 -28t-33 -21q-100 -64 -145 -120.5t-45 -145.5q0 -43 21.5 -65.5t56.5 -22.5q36 0 63 6l-4 -23q-36 -39 -95.5 -62.5t-127.5 -23.5zM586 219q41 0 80 62l153 731q-10 45 -47 45
q-51 0 -109.5 -127t-97.5 -301.5t-39 -309.5q0 -100 60 -100z" />
    <glyph glyph-name="Cacute" unicode="&#x106;" horiz-adv-x="1423" 
d="M825 -25q-182 0 -327.5 44t-240 123.5t-144.5 188t-50 238.5q0 164 53 305t146.5 245t220 177.5t277 110.5t313.5 37q238 0 375 -55l-35 -486h-31q-78 185 -141 305q-55 106 -91.5 143.5t-88.5 37.5q-78 0 -146.5 -103t-111.5 -261t-67.5 -338.5t-24.5 -344.5
q0 -151 39.5 -231t109.5 -80q61 0 113 44t127 142q38 49 72 98.5t85 127.5t62 94h33l-109 -500q-85 -30 -200.5 -46t-217.5 -16zM827 1481l-8 18l234 264q64 70 135 70q68 0 111.5 -46t43.5 -116q0 -58 -37.5 -97t-107.5 -48z" />
    <glyph glyph-name="cacute" unicode="&#x107;" horiz-adv-x="1148" 
d="M735 184q75 0 148 35.5t159 108.5l29 -25q-115 -153 -269 -240.5t-341 -87.5q-216 0 -332.5 106t-116.5 298q0 129 45 245t122.5 203t178 151t214.5 97t229 33q168 0 271.5 -71.5t103.5 -190.5q0 -78 -51 -123t-136 -45q-115 0 -159 63t-58 234q-4 60 -10 68
q-5 10 -19 10q-37 0 -83.5 -99.5t-79.5 -252.5t-33 -289q0 -120 46.5 -174t141.5 -54zM963 1231l-365 -76l-10 19l211 282q62 80 143 80q68 0 111 -47.5t43 -116.5q0 -52 -34.5 -90t-98.5 -51z" />
    <glyph glyph-name="Ccircumflex" unicode="&#x108;" horiz-adv-x="1423" 
d="M825 -25q-182 0 -327.5 44t-240 123.5t-144.5 188t-50 238.5q0 164 53 305t146.5 245t220 177.5t277 110.5t313.5 37q238 0 375 -55l-35 -486h-31q-78 185 -141 305q-55 106 -91.5 143.5t-88.5 37.5q-78 0 -146.5 -103t-111.5 -261t-67.5 -338.5t-24.5 -344.5
q0 -151 39.5 -231t109.5 -80q61 0 113 44t127 142q38 49 72 98.5t85 127.5t62 94h33l-109 -500q-85 -30 -200.5 -46t-217.5 -16zM705 1483l-11 18l316 311h161l215 -311l-10 -18l-305 92z" />
    <glyph glyph-name="ccircumflex" unicode="&#x109;" horiz-adv-x="1148" 
d="M735 184q75 0 148 35.5t159 108.5l29 -25q-115 -153 -269 -240.5t-341 -87.5q-216 0 -332.5 106t-116.5 298q0 129 45 245t122.5 203t178 151t214.5 97t229 33q168 0 271.5 -71.5t103.5 -190.5q0 -78 -51 -123t-136 -45q-115 0 -159 63t-58 234q-4 60 -10 68
q-5 10 -19 10q-37 0 -83.5 -99.5t-79.5 -252.5t-33 -289q0 -120 46.5 -174t141.5 -54zM725 1511h160l184 -329l-12 -17l-277 113l-334 -113l-8 17z" />
    <glyph glyph-name="Cdotaccent" unicode="&#x10a;" horiz-adv-x="1423" 
d="M825 -25q-182 0 -327.5 44t-240 123.5t-144.5 188t-50 238.5q0 164 53 305t146.5 245t220 177.5t277 110.5t313.5 37q238 0 375 -55l-35 -486h-31q-78 185 -141 305q-55 106 -91.5 143.5t-88.5 37.5q-78 0 -146.5 -103t-111.5 -261t-67.5 -338.5t-24.5 -344.5
q0 -151 39.5 -231t109.5 -80q61 0 113 44t127 142q38 49 72 98.5t85 127.5t62 94h33l-109 -500q-85 -30 -200.5 -46t-217.5 -16zM1044 1481q-104 0 -167.5 56.5t-63.5 150.5q0 90 63.5 146t167.5 56q105 0 167.5 -56t62.5 -146q0 -94 -62.5 -150.5t-167.5 -56.5z" />
    <glyph glyph-name="cdotaccent" unicode="&#x10b;" horiz-adv-x="1148" 
d="M735 184q75 0 148 35.5t159 108.5l29 -25q-115 -153 -269 -240.5t-341 -87.5q-216 0 -332.5 106t-116.5 298q0 129 45 245t122.5 203t178 151t214.5 97t229 33q168 0 271.5 -71.5t103.5 -190.5q0 -78 -51 -123t-136 -45q-115 0 -159 63t-58 234q-4 60 -10 68
q-5 10 -19 10q-37 0 -83.5 -99.5t-79.5 -252.5t-33 -289q0 -120 46.5 -174t141.5 -54zM778 1145q-104 0 -167.5 58t-63.5 155q0 93 63.5 151t167.5 58q105 0 167.5 -58t62.5 -151q0 -97 -62.5 -155t-167.5 -58z" />
    <glyph glyph-name="Ccaron" unicode="&#x10c;" horiz-adv-x="1423" 
d="M825 -25q-182 0 -327.5 44t-240 123.5t-144.5 188t-50 238.5q0 164 53 305t146.5 245t220 177.5t277 110.5t313.5 37q238 0 375 -55l-35 -486h-31q-78 185 -141 305q-55 106 -91.5 143.5t-88.5 37.5q-78 0 -146.5 -103t-111.5 -261t-67.5 -338.5t-24.5 -344.5
q0 -151 39.5 -231t109.5 -80q61 0 113 44t127 142q38 49 72 98.5t85 127.5t62 94h33l-109 -500q-85 -30 -200.5 -46t-217.5 -16zM1042 1729l367 92l10 -19l-315 -311h-162l-215 311l10 19z" />
    <glyph glyph-name="ccaron" unicode="&#x10d;" horiz-adv-x="1148" 
d="M735 184q75 0 148 35.5t159 108.5l29 -25q-115 -153 -269 -240.5t-341 -87.5q-216 0 -332.5 106t-116.5 298q0 129 45 245t122.5 203t178 151t214.5 97t229 33q168 0 271.5 -71.5t103.5 -190.5q0 -78 -51 -123t-136 -45q-115 0 -159 63t-58 234q-4 60 -10 68
q-5 10 -19 10q-37 0 -83.5 -99.5t-79.5 -252.5t-33 -289q0 -120 46.5 -174t141.5 -54zM842 1182h-160l-184 329l12 17l276 -113l334 113l8 -17z" />
    <glyph glyph-name="Dcaron" unicode="&#x10e;" horiz-adv-x="1628" 
d="M-70 0l7 33l16 6q61 23 75 46.5t33 127.5l175 987q7 41 10.5 60.5t4 41.5t-2 30t-11 18.5t-19 15.5t-30.5 14l-14 6l6 33h750q371 0 541.5 -143t170.5 -459q0 -186 -67 -340.5t-185 -258.5t-282 -161t-356 -57h-822zM731 66q63 0 121.5 110t97.5 273.5t62.5 345
t23.5 329.5q0 130 -22 179t-86 49q-23 0 -45 -11l-195 -1122q-13 -88 -2.5 -120.5t45.5 -32.5zM926 1729l366 92l11 -19l-316 -311h-162l-215 311l11 19z" />
    <glyph glyph-name="dcaron" unicode="&#x10f;" horiz-adv-x="1368" 
d="M1458 1126l-18 11l69 307q23 110 127 110q53 0 93 -34t40 -86q0 -66 -90 -138zM594 219q25 0 50.5 17.5t39.5 42.5l139 741q-14 39 -51 39q-60 0 -119 -139.5t-92 -306t-33 -273.5q0 -66 15.5 -93.5t50.5 -27.5zM686 201h-6q-72 -96 -174 -162t-217 -66q-137 0 -211 84.5
t-74 249.5t53 312.5t148.5 257t237.5 173.5t311 64q38 0 84 -8h4l30 160q14 72 14 104t-12.5 49t-50.5 37l-43 23l6 24l660 47l20 -18q-26 -107 -53 -246l-190 -989q-13 -70 -13 -76q0 -63 93 -18l24 12l21 -31q-94 -90 -220 -149.5t-247 -59.5q-95 0 -146 47t-51 134
q0 25 2 45z" />
    <glyph glyph-name="Dcroat" unicode="&#x110;" horiz-adv-x="1628" 
d="M43 676l12 63h99l82 461q7 41 10.5 60.5t4 41.5t-2 30t-11 18.5t-19 15.5t-30.5 14l-14 6l6 33h750q371 0 541.5 -143t170.5 -459q0 -186 -67 -340.5t-185 -258.5t-282 -161t-356 -57h-822l7 33l16 6q61 23 75 46.5t33 127.5l82 463h-100zM731 66q63 0 121.5 110
t97.5 273.5t62.5 345t23.5 329.5q0 130 -22 179t-86 49q-23 0 -45 -11l-105 -602h148l-13 -63h-147l-78 -457q-13 -88 -2.5 -120.5t45.5 -32.5z" />
    <glyph glyph-name="dcroat" unicode="&#x111;" horiz-adv-x="1368" 
d="M528 340q0 -66 15.5 -93.5t50.5 -27.5q25 0 50.5 17.5t39.5 42.5l139 741q-14 39 -51 39q-60 0 -119 -139.5t-92 -306t-33 -273.5zM1413 1286h100l-12 -65h-100l-178 -924q-13 -70 -13 -76q0 -63 93 -18l24 12l21 -31q-94 -90 -220 -149.5t-247 -59.5q-95 0 -146 47
t-51 134q0 25 2 45h-6q-72 -96 -174 -162t-217 -66q-137 0 -211 84.5t-74 249.5t53 312.5t148.5 257t237.5 173.5t311 64q38 0 84 -8h4l22 115h-301l12 65h302q16 89 6.5 116t-60.5 54l-43 23l6 24l660 47l20 -18q-22 -90 -53 -246z" />
    <glyph glyph-name="Emacron" unicode="&#x112;" horiz-adv-x="1380" 
d="M-70 0l7 33l16 6q61 23 75 46.5t33 127.5l175 987q7 41 10.5 60.5t4 41.5t-2 30t-11 18.5t-19 15.5t-30.5 14l-14 6l6 33h1225l-51 -495h-29q-57 160 -119 290q-36 74 -83 106t-124 32q-63 0 -116 -11l-101 -575h47q58 0 89.5 16.5t68.5 71.5q66 96 105 168h26l-102 -584
h-27q-6 25 -16.5 78.5t-18.5 83.5q-17 60 -45.5 81t-87.5 21h-49l-86 -483q-15 -86 18 -118.5t123 -32.5q43 0 74 8t62 32t52 47.5t64 75.5q100 122 213 301h31l-115 -532h-1278zM532 1552l25 142h627l-25 -142h-627z" />
    <glyph glyph-name="emacron" unicode="&#x113;" horiz-adv-x="1169" 
d="M453 -25q-199 0 -321 99t-122 286q0 153 64.5 292t172.5 238.5t255.5 158.5t308.5 59q167 0 269 -66.5t102 -171.5q0 -133 -154 -215.5t-479 -128.5q-4 -74 -4 -100q0 -131 46.5 -187.5t141.5 -56.5q140 0 309 146l29 -25q-246 -328 -618 -328zM457 1231l32 141h582
l-29 -141h-585zM741 1055q-40 0 -79 -76t-66 -183t-41 -223q51 12 85.5 27.5t68.5 46.5q38 37 58.5 122t20.5 189q0 97 -47 97z" />
    <glyph glyph-name="Ebreve" unicode="&#x114;" horiz-adv-x="1380" 
d="M-70 0l7 33l16 6q61 23 75 46.5t33 127.5l175 987q7 41 10.5 60.5t4 41.5t-2 30t-11 18.5t-19 15.5t-30.5 14l-14 6l6 33h1225l-51 -495h-29q-57 160 -119 290q-36 74 -83 106t-124 32q-63 0 -116 -11l-101 -575h47q58 0 89.5 16.5t68.5 71.5q66 96 105 168h26l-102 -584
h-27q-6 25 -16.5 78.5t-18.5 83.5q-17 60 -45.5 81t-87.5 21h-49l-86 -483q-15 -86 18 -118.5t123 -32.5q43 0 74 8t62 32t52 47.5t64 75.5q100 122 213 301h31l-115 -532h-1278zM860 1485q-128 0 -201.5 84t-66.5 243l14 9q34 -68 97.5 -94.5t170.5 -26.5q101 0 173.5 28
t136.5 93l14 -9q-42 -167 -125.5 -247t-212.5 -80z" />
    <glyph glyph-name="ebreve" unicode="&#x115;" horiz-adv-x="1169" 
d="M453 -25q-199 0 -321 99t-122 286q0 153 64.5 292t172.5 238.5t255.5 158.5t308.5 59q167 0 269 -66.5t102 -171.5q0 -133 -154 -215.5t-479 -128.5q-4 -74 -4 -100q0 -131 46.5 -187.5t141.5 -56.5q140 0 309 146l29 -25q-246 -328 -618 -328zM760 1184q-117 0 -186 84
t-62 243l14 9q34 -67 94 -94t152 -27q97 0 161.5 27t129.5 94l14 -9q-43 -168 -120.5 -247.5t-196.5 -79.5zM741 1055q-40 0 -79 -76t-66 -183t-41 -223q51 12 85.5 27.5t68.5 46.5q38 37 58.5 122t20.5 189q0 97 -47 97z" />
    <glyph glyph-name="Edotaccent" unicode="&#x116;" horiz-adv-x="1380" 
d="M-70 0l7 33l16 6q61 23 75 46.5t33 127.5l175 987q7 41 10.5 60.5t4 41.5t-2 30t-11 18.5t-19 15.5t-30.5 14l-14 6l6 33h1225l-51 -495h-29q-57 160 -119 290q-36 74 -83 106t-124 32q-63 0 -116 -11l-101 -575h47q58 0 89.5 16.5t68.5 71.5q66 96 105 168h26l-102 -584
h-27q-6 25 -16.5 78.5t-18.5 83.5q-17 60 -45.5 81t-87.5 21h-49l-86 -483q-15 -86 18 -118.5t123 -32.5q43 0 74 8t62 32t52 47.5t64 75.5q100 122 213 301h31l-115 -532h-1278zM858 1481q-104 0 -167.5 56.5t-63.5 150.5q0 90 63.5 146t167.5 56q105 0 167 -56t62 -146
q0 -94 -62 -150.5t-167 -56.5z" />
    <glyph glyph-name="edotaccent" unicode="&#x117;" horiz-adv-x="1169" 
d="M453 -25q-199 0 -321 99t-122 286q0 153 64.5 292t172.5 238.5t255.5 158.5t308.5 59q167 0 269 -66.5t102 -171.5q0 -133 -154 -215.5t-479 -128.5q-4 -74 -4 -100q0 -131 46.5 -187.5t141.5 -56.5q140 0 309 146l29 -25q-246 -328 -618 -328zM772 1145
q-104 0 -167.5 58t-63.5 155q0 93 63.5 151t167.5 58q105 0 167 -58t62 -151q0 -97 -62 -155t-167 -58zM741 1055q-40 0 -79 -76t-66 -183t-41 -223q51 12 85.5 27.5t68.5 46.5q38 37 58.5 122t20.5 189q0 97 -47 97z" />
    <glyph glyph-name="Eogonek" unicode="&#x118;" horiz-adv-x="1380" 
d="M-70 0l7 33l16 6q61 23 75 46.5t33 127.5l175 987q7 41 10.5 60.5t4 41.5t-2 30t-11 18.5t-19 15.5t-30.5 14l-14 6l6 33h1225l-51 -495h-29q-57 160 -119 290q-36 74 -83 106t-124 32q-63 0 -116 -11l-101 -575h47q58 0 89.5 16.5t68.5 71.5q66 96 105 168h26l-102 -584
h-27q-6 25 -16.5 78.5t-18.5 83.5q-17 60 -45.5 81t-87.5 21h-49l-86 -483q-15 -86 18 -118.5t123 -32.5q43 0 74 8t62 32t52 47.5t64 75.5q100 122 213 301h31l-115 -532h-239q-46 -40 -74.5 -102.5t-28.5 -126.5q0 -43 21.5 -65.5t56.5 -22.5q37 0 64 6l-4 -23
q-36 -39 -96 -62.5t-128 -23.5q-87 0 -141.5 40.5t-54.5 115.5q0 182 344 264h-998z" />
    <glyph glyph-name="eogonek" unicode="&#x119;" horiz-adv-x="1169" 
d="M760 -334q-36 -39 -95.5 -62.5t-127.5 -23.5q-86 0 -141.5 41.5t-55.5 114.5q0 78 74 139.5t243 126.5q-143 -27 -204 -27q-199 0 -321 99t-122 286q0 153 64.5 292t172.5 238.5t255.5 158.5t308.5 59q167 0 269 -66.5t102 -171.5q0 -133 -154 -215.5t-479 -128.5
q-4 -74 -4 -100q0 -131 46.5 -187.5t141.5 -56.5q140 0 309 146l29 -25q-93 -125 -272 -250q-89 -63 -132.5 -129.5t-43.5 -152.5q0 -43 21 -65.5t56 -22.5q37 0 64 6zM741 1055q-40 0 -79 -76t-66 -183t-41 -223q51 12 85.5 27.5t68.5 46.5q38 37 58.5 122t20.5 189
q0 97 -47 97z" />
    <glyph glyph-name="Ecaron" unicode="&#x11a;" horiz-adv-x="1380" 
d="M-70 0l7 33l16 6q61 23 75 46.5t33 127.5l175 987q7 41 10.5 60.5t4 41.5t-2 30t-11 18.5t-19 15.5t-30.5 14l-14 6l6 33h1225l-51 -495h-29q-57 160 -119 290q-36 74 -83 106t-124 32q-63 0 -116 -11l-101 -575h47q58 0 89.5 16.5t68.5 71.5q66 96 105 168h26l-102 -584
h-27q-6 25 -16.5 78.5t-18.5 83.5q-17 60 -45.5 81t-87.5 21h-49l-86 -483q-15 -86 18 -118.5t123 -32.5q43 0 74 8t62 32t52 47.5t64 75.5q100 122 213 301h31l-115 -532h-1278zM856 1729l367 92l10 -19l-315 -311h-162l-215 311l10 19z" />
    <glyph glyph-name="ecaron" unicode="&#x11b;" horiz-adv-x="1169" 
d="M453 -25q-199 0 -321 99t-122 286q0 153 64.5 292t172.5 238.5t255.5 158.5t308.5 59q167 0 269 -66.5t102 -171.5q0 -133 -154 -215.5t-479 -128.5q-4 -74 -4 -100q0 -131 46.5 -187.5t141.5 -56.5q140 0 309 146l29 -25q-246 -328 -618 -328zM836 1182h-160l-184 329
l12 17l276 -113l334 113l8 -17zM741 1055q-40 0 -79 -76t-66 -183t-41 -223q51 12 85.5 27.5t68.5 46.5q38 37 58.5 122t20.5 189q0 97 -47 97z" />
    <glyph glyph-name="Gcircumflex" unicode="&#x11c;" horiz-adv-x="1562" 
d="M1483 430l-66 -375q-88 -36 -240 -58t-323 -22q-370 0 -580.5 166t-210.5 449q0 166 58.5 307t158.5 240t233.5 169.5t284.5 104t310 33.5q122 0 237 -17.5t171 -46.5l-33 -483h-33q-10 20 -46 97.5t-70.5 146t-63.5 114.5q-43 74 -83.5 104t-90.5 30
q-109 0 -201.5 -159.5t-144.5 -418.5t-52 -551q0 -96 11.5 -146.5t31.5 -66.5t58 -16q27 0 47 8l69 389q18 106 9.5 133t-62.5 49l-14 6l6 33h737l-6 -33l-16 -6q-12 -4 -19.5 -7.5t-15 -9t-11 -8.5t-8.5 -13t-7 -15t-5.5 -21.5t-5.5 -26.5t-6.5 -35.5t-7.5 -43.5zM707 1483
l-11 18l316 311h162l215 -311l-11 -18l-305 92z" />
    <glyph glyph-name="gcircumflex" unicode="&#x11d;" horiz-adv-x="1198" 
d="M424 -362q160 0 252 51.5t92 124.5q0 48 -26 70.5t-89 25.5l-426 20q-23 -20 -34 -46.5t-11 -73.5q0 -83 62 -127.5t180 -44.5zM690 975q0 78 -43 78q-52 0 -94.5 -174t-42.5 -314q0 -50 9.5 -71t31.5 -21q38 0 71.5 95.5t50.5 210t17 196.5zM987 1016v-6
q58 -36 94.5 -98.5t36.5 -131.5q0 -167 -148 -264.5t-390 -97.5q-150 0 -263 31q-26 -9 -42.5 -25t-16.5 -33q0 -21 13 -29t44 -10l435 -18q376 -15 376 -287q0 -202 -208.5 -332.5t-548.5 -130.5q-250 0 -374 55.5t-124 139.5q0 73 66.5 109t230.5 51v6q-82 20 -131 77
t-49 132q0 103 79 184.5t205 126.5v4q-91 39 -142.5 111t-51.5 153q0 158 147 266.5t398 108.5q185 0 317 -70q113 136 238 136q59 0 103 -35.5t44 -98.5q0 -52 -36.5 -85t-88.5 -33q-81 0 -115 79q-22 44 -39.5 46.5t-58.5 -31.5zM637 1511h160l184 -329l-12 -17l-277 113
l-334 -113l-8 17z" />
    <glyph glyph-name="Gbreve" unicode="&#x11e;" horiz-adv-x="1562" 
d="M1483 430l-66 -375q-88 -36 -240 -58t-323 -22q-370 0 -580.5 166t-210.5 449q0 166 58.5 307t158.5 240t233.5 169.5t284.5 104t310 33.5q122 0 237 -17.5t171 -46.5l-33 -483h-33q-10 20 -46 97.5t-70.5 146t-63.5 114.5q-43 74 -83.5 104t-90.5 30
q-109 0 -201.5 -159.5t-144.5 -418.5t-52 -551q0 -96 11.5 -146.5t31.5 -66.5t58 -16q27 0 47 8l69 389q18 106 9.5 133t-62.5 49l-14 6l6 33h737l-6 -33l-16 -6q-12 -4 -19.5 -7.5t-15 -9t-11 -8.5t-8.5 -13t-7 -15t-5.5 -21.5t-5.5 -26.5t-6.5 -35.5t-7.5 -43.5z
M1049 1485q-128 0 -202 84t-67 243l15 9q34 -68 97.5 -94.5t170.5 -26.5q101 0 173 28t136 93l14 -9q-42 -168 -125.5 -247.5t-211.5 -79.5z" />
    <glyph glyph-name="gbreve" unicode="&#x11f;" horiz-adv-x="1198" 
d="M424 -362q160 0 252 51.5t92 124.5q0 48 -26 70.5t-89 25.5l-426 20q-23 -20 -34 -46.5t-11 -73.5q0 -83 62 -127.5t180 -44.5zM690 975q0 78 -43 78q-52 0 -94.5 -174t-42.5 -314q0 -50 9.5 -71t31.5 -21q38 0 71.5 95.5t50.5 210t17 196.5zM987 1016v-6
q58 -36 94.5 -98.5t36.5 -131.5q0 -167 -148 -264.5t-390 -97.5q-150 0 -263 31q-26 -9 -42.5 -25t-16.5 -33q0 -21 13 -29t44 -10l435 -18q376 -15 376 -287q0 -202 -208.5 -332.5t-548.5 -130.5q-250 0 -374 55.5t-124 139.5q0 73 66.5 109t230.5 51v6q-82 20 -131 77
t-49 132q0 103 79 184.5t205 126.5v4q-91 39 -142.5 111t-51.5 153q0 158 147 266.5t398 108.5q185 0 317 -70q113 136 238 136q59 0 103 -35.5t44 -98.5q0 -52 -36.5 -85t-88.5 -33q-81 0 -115 79q-22 44 -39.5 46.5t-58.5 -31.5zM707 1184q-117 0 -186 84t-62 243l14 9
q34 -67 94 -94t152 -27q97 0 161.5 27t129.5 94l14 -9q-43 -168 -120.5 -247.5t-196.5 -79.5z" />
    <glyph glyph-name="Gdotaccent" unicode="&#x120;" horiz-adv-x="1562" 
d="M1483 430l-66 -375q-88 -36 -240 -58t-323 -22q-370 0 -580.5 166t-210.5 449q0 166 58.5 307t158.5 240t233.5 169.5t284.5 104t310 33.5q122 0 237 -17.5t171 -46.5l-33 -483h-33q-10 20 -46 97.5t-70.5 146t-63.5 114.5q-43 74 -83.5 104t-90.5 30
q-109 0 -201.5 -159.5t-144.5 -418.5t-52 -551q0 -96 11.5 -146.5t31.5 -66.5t58 -16q27 0 47 8l69 389q18 106 9.5 133t-62.5 49l-14 6l6 33h737l-6 -33l-16 -6q-12 -4 -19.5 -7.5t-15 -9t-11 -8.5t-8.5 -13t-7 -15t-5.5 -21.5t-5.5 -26.5t-6.5 -35.5t-7.5 -43.5z
M1047 1481q-104 0 -168 56.5t-64 150.5q0 90 64 146t168 56q105 0 167 -56t62 -146q0 -94 -62 -150.5t-167 -56.5z" />
    <glyph glyph-name="gdotaccent" unicode="&#x121;" horiz-adv-x="1198" 
d="M424 -362q160 0 252 51.5t92 124.5q0 48 -26 70.5t-89 25.5l-426 20q-23 -20 -34 -46.5t-11 -73.5q0 -83 62 -127.5t180 -44.5zM690 975q0 78 -43 78q-52 0 -94.5 -174t-42.5 -314q0 -50 9.5 -71t31.5 -21q38 0 71.5 95.5t50.5 210t17 196.5zM987 1016v-6
q58 -36 94.5 -98.5t36.5 -131.5q0 -167 -148 -264.5t-390 -97.5q-150 0 -263 31q-26 -9 -42.5 -25t-16.5 -33q0 -21 13 -29t44 -10l435 -18q376 -15 376 -287q0 -202 -208.5 -332.5t-548.5 -130.5q-250 0 -374 55.5t-124 139.5q0 73 66.5 109t230.5 51v6q-82 20 -131 77
t-49 132q0 103 79 184.5t205 126.5v4q-91 39 -142.5 111t-51.5 153q0 158 147 266.5t398 108.5q185 0 317 -70q113 136 238 136q59 0 103 -35.5t44 -98.5q0 -52 -36.5 -85t-88.5 -33q-81 0 -115 79q-22 44 -39.5 46.5t-58.5 -31.5zM719 1145q-105 0 -168.5 58t-63.5 155
q0 93 64 151t168 58q105 0 167 -58t62 -151q0 -97 -62 -155t-167 -58z" />
    <glyph glyph-name="Gcommaaccent" unicode="&#x122;" horiz-adv-x="1562" 
d="M1483 430l-66 -375q-88 -36 -240 -58t-323 -22q-370 0 -580.5 166t-210.5 449q0 166 58.5 307t158.5 240t233.5 169.5t284.5 104t310 33.5q122 0 237 -17.5t171 -46.5l-33 -483h-33q-10 20 -46 97.5t-70.5 146t-63.5 114.5q-43 74 -83.5 104t-90.5 30
q-109 0 -201.5 -159.5t-144.5 -418.5t-52 -551q0 -96 11.5 -146.5t31.5 -66.5t58 -16q27 0 47 8l69 389q18 106 9.5 133t-62.5 49l-14 6l6 33h737l-6 -33l-16 -6q-12 -4 -19.5 -7.5t-15 -9t-11 -8.5t-8.5 -13t-7 -15t-5.5 -21.5t-5.5 -26.5t-6.5 -35.5t-7.5 -43.5zM489 -520
v20q277 43 283 201q-31 -31 -86 -31q-56 0 -88.5 33t-32.5 90t45.5 96t120.5 39q82 0 132 -48.5t50 -131.5q0 -122 -107 -193t-317 -75z" />
    <glyph glyph-name="gcommaaccent" unicode="&#x123;" horiz-adv-x="1198" 
d="M424 -362q160 0 252 51.5t92 124.5q0 48 -26 70.5t-89 25.5l-426 20q-23 -20 -34 -46.5t-11 -73.5q0 -83 62 -127.5t180 -44.5zM690 975q0 78 -43 78q-52 0 -94.5 -174t-42.5 -314q0 -50 9.5 -71t31.5 -21q38 0 71.5 95.5t50.5 210t17 196.5zM987 1016v-6
q58 -36 94.5 -98.5t36.5 -131.5q0 -167 -148 -264.5t-390 -97.5q-150 0 -263 31q-26 -9 -42.5 -25t-16.5 -33q0 -21 13 -29t44 -10l435 -18q376 -15 376 -287q0 -202 -208.5 -332.5t-548.5 -130.5q-250 0 -374 55.5t-124 139.5q0 73 66.5 109t230.5 51v6q-82 20 -131 77
t-49 132q0 103 79 184.5t205 126.5v4q-91 39 -142.5 111t-51.5 153q0 158 147 266.5t398 108.5q185 0 317 -70q113 136 238 136q59 0 103 -35.5t44 -98.5q0 -52 -36.5 -85t-88.5 -33q-81 0 -115 79q-22 44 -39.5 46.5t-58.5 -31.5zM944 1585v-20q-276 -42 -282 -201
q31 31 86 31q56 0 88 -33t32 -90t-45.5 -96t-120.5 -39q-82 0 -132 48.5t-50 131.5q0 122 107 193t317 75z" />
    <glyph glyph-name="Hcircumflex" unicode="&#x124;" horiz-adv-x="1669" 
d="M860 1206l-78 -442h205l78 436q13 74 13 104.5t-10 44.5t-44 31l-12 6l6 33h799l-7 -33l-16 -6q-58 -22 -71 -43t-31 -118l-1.5 -6t-1 -6t-1.5 -7l-172 -981q-19 -107 -15 -129q4 -25 36 -41q8 -4 22 -10l14 -6l-6 -33h-799l6 33l17 6q36 13 51.5 27.5t25.5 44t23 102.5
l84 481h-205l-84 -475q-13 -73 -12.5 -104t11 -45t44.5 -31l12 -6l-6 -33h-805l7 33l16 6q61 23 75 46.5t33 127.5l175 987q7 41 10.5 60.5t4 41.5t-2 30t-11 18.5t-19 15.5t-30.5 14l-14 6l6 33h805l-6 -33l-16 -6q-52 -19 -68.5 -46t-34.5 -128zM692 1483l-10 18l315 311
h162l215 -311l-10 -18l-305 92z" />
    <glyph glyph-name="hcircumflex" unicode="&#x125;" horiz-adv-x="1398" 
d="M690 840q95 119 222 191.5t255 72.5q95 0 151 -51t56 -135q0 -80 -33 -226l-96 -422q-8 -33 -8 -63q0 -17 12 -23.5t33.5 -1t48.5 20.5l23 12l20 -31q-107 -98 -230 -153.5t-245 -55.5q-100 0 -148.5 49t-48.5 126q0 42 23 147l88 418q25 121 -27 121t-124 -99l-148 -737
h-532l258 1268q18 99 11.5 127.5t-48.5 54.5l-47 29l6 24l645 47l20 -18q-24 -103 -53 -246l-90 -446h6zM561 1602l-10 18l315 311h162l215 -311l-10 -18l-305 92z" />
    <glyph glyph-name="Hbar" unicode="&#x126;" horiz-adv-x="1669" 
d="M860 1206l-22 -123h206l21 117q13 74 13 104.5t-10 44.5t-44 31l-12 6l6 33h799l-7 -33l-16 -6q-58 -22 -71 -43t-31 -118l-1.5 -6t-1 -6t-1.5 -7l-21 -117h115l-13 -63h-114l-139 -801q-19 -107 -15 -129q4 -25 36 -41q8 -4 22 -10l14 -6l-6 -33h-799l6 33l17 6
q36 13 51.5 27.5t25.5 44t23 102.5l84 481h-205l-84 -475q-13 -73 -12.5 -104t11 -45t44.5 -31l12 -6l-6 -33h-805l7 33l16 6q61 23 75 46.5t33 127.5l142 807h-113l12 63h113l21 117q7 41 10.5 60.5t4 41.5t-2 30t-11 18.5t-19 15.5t-30.5 14l-14 6l6 33h805l-6 -33l-16 -6
q-52 -19 -68.5 -46t-34.5 -128zM827 1020l-45 -256h205l45 256h-205z" />
    <glyph glyph-name="hbar" unicode="&#x127;" horiz-adv-x="1402" 
d="M1378 184q-107 -98 -230 -153.5t-245 -55.5q-100 0 -148 49t-48 126q0 47 22 147l88 418q13 65 7 93t-33 28q-53 0 -125 -99l-148 -737h-532l247 1221h-118l10 65h123q14 87 6.5 113.5t-47.5 50.5l-47 29l6 24l645 47l20 -18q-24 -103 -53 -246h246l-12 -65h-246
l-78 -381h6q95 119 222 191.5t255 72.5q95 0 151 -51t56 -135t-32 -226l-97 -422q-8 -33 -8 -63q0 -17 12 -23.5t33.5 -1t48.5 20.5l23 12z" />
    <glyph glyph-name="Itilde" unicode="&#x128;" horiz-adv-x="839" 
d="M858 1200l-172 -981q-19 -107 -15 -129q4 -25 36 -41q8 -4 22 -10l14 -6l-6 -33h-807l7 33l16 6q61 23 75 46.5t33 127.5l175 987q7 41 10.5 60.5t4 41.5t-2 30t-11 18.5t-19 15.5t-30.5 14l-14 6l6 33h807l-6 -33l-16 -6q-24 -9 -35 -13t-23.5 -16t-16.5 -17.5t-11 -30
t-10 -41.5t-11 -62zM537 1796q43 0 163 -19.5t166 -19.5q42 0 73 16.5t62 61.5l21 -10q-25 -60 -37 -88t-32.5 -71t-35.5 -62.5t-36.5 -41.5t-45 -30t-51.5 -8q-41 0 -162 18.5t-167 18.5q-41 0 -69.5 -16t-61.5 -62l-23 10q20 51 30.5 76t28 64.5t29.5 58t30 43t34.5 35
t38 18.5t45.5 8z" />
    <glyph glyph-name="itilde" unicode="&#x129;" horiz-adv-x="710" 
d="M47 328l92 454q4 24 4 41q0 34 -22.5 41.5t-73.5 -22.5l-18 -13l-23 29q98 103 220.5 174.5t250.5 71.5q100 0 153.5 -51t53.5 -138q0 -55 -18 -147l-101 -487q-10 -52 -10 -70q0 -59 94 -4l25 14l20 -33q-235 -213 -475 -213q-98 0 -148.5 46t-50.5 118q0 65 27 189z
M387 1497q43 0 161 -19.5t163 -19.5q42 0 71.5 16.5t61.5 61.5l18 -10q-61 -165 -113 -237t-133 -72q-41 0 -158 18t-163 18q-42 0 -70.5 -16t-60.5 -61l-23 10q31 83 54.5 134t52.5 94.5t63 63t76 19.5z" />
    <glyph glyph-name="Imacron" unicode="&#x12a;" horiz-adv-x="839" 
d="M858 1200l-172 -981q-19 -107 -15 -129q4 -25 36 -41q8 -4 22 -10l14 -6l-6 -33h-807l7 33l16 6q61 23 75 46.5t33 127.5l175 987q7 41 10.5 60.5t4 41.5t-2 30t-11 18.5t-19 15.5t-30.5 14l-14 6l6 33h807l-6 -33l-16 -6q-24 -9 -35 -13t-23.5 -16t-16.5 -17.5t-11 -30
t-10 -41.5t-11 -62zM285 1552l24 142h627l-25 -142h-626z" />
    <glyph glyph-name="imacron" unicode="&#x12b;" horiz-adv-x="710" 
d="M47 328l92 454q4 24 4 41q0 34 -22.5 41.5t-73.5 -22.5l-18 -13l-23 29q98 103 220.5 174.5t250.5 71.5q100 0 153.5 -51t53.5 -138q0 -55 -18 -147l-101 -487q-10 -52 -10 -70q0 -59 94 -4l25 14l20 -33q-235 -213 -475 -213q-98 0 -148.5 46t-50.5 118q0 65 27 189z
M176 1231l33 141h582l-29 -141h-586z" />
    <glyph glyph-name="Ibreve" unicode="&#x12c;" horiz-adv-x="839" 
d="M858 1200l-172 -981q-19 -107 -15 -129q4 -25 36 -41q8 -4 22 -10l14 -6l-6 -33h-807l7 33l16 6q61 23 75 46.5t33 127.5l175 987q7 41 10.5 60.5t4 41.5t-2 30t-11 18.5t-19 15.5t-30.5 14l-14 6l6 33h807l-6 -33l-16 -6q-24 -9 -35 -13t-23.5 -16t-16.5 -17.5t-11 -30
t-10 -41.5t-11 -62zM612 1485q-128 0 -201.5 84t-66.5 243l14 9q34 -68 98 -94.5t171 -26.5q101 0 173 28t136 93l14 -9q-42 -167 -125.5 -247t-212.5 -80z" />
    <glyph glyph-name="ibreve" unicode="&#x12d;" horiz-adv-x="710" 
d="M47 328l92 454q4 24 4 41q0 34 -22.5 41.5t-73.5 -22.5l-18 -13l-23 29q98 103 220.5 174.5t250.5 71.5q100 0 153.5 -51t53.5 -138q0 -55 -18 -147l-101 -487q-10 -52 -10 -70q0 -59 94 -4l25 14l20 -33q-235 -213 -475 -213q-98 0 -148.5 46t-50.5 118q0 65 27 189z
M479 1184q-117 0 -186 84t-62 243l15 9q34 -67 94 -94t152 -27q97 0 161 27t129 94l15 -9q-42 -168 -120.5 -247.5t-197.5 -79.5z" />
    <glyph glyph-name="Iogonek" unicode="&#x12e;" horiz-adv-x="839" 
d="M389 -420q-87 0 -141.5 40.5t-54.5 115.5q0 182 344 264h-607l7 33l16 6q61 23 75 46.5t33 127.5l175 987q7 41 10.5 60.5t4 41.5t-2 30t-11 18.5t-19 15.5t-30.5 14l-14 6l6 33h807l-6 -33l-16 -6q-24 -9 -35 -13t-23.5 -16t-16.5 -17.5t-11 -30t-10 -41.5t-11 -62
l-172 -981q-19 -107 -15 -129q4 -25 36 -41q8 -4 22 -10l14 -6l-6 -33h-159q-46 -40 -74.5 -102.5t-28.5 -126.5q0 -43 21.5 -65.5t56.5 -22.5q36 0 63 6l-4 -23q-36 -39 -95.5 -62.5t-127.5 -23.5z" />
    <glyph glyph-name="iogonek" unicode="&#x12f;" horiz-adv-x="710" 
d="M475 1141q-111 0 -175 56t-64 157q0 99 69.5 165t181.5 66q109 0 171.5 -57.5t62.5 -155.5q0 -100 -67.5 -165.5t-178.5 -65.5zM236 -420q-85 0 -141 42.5t-56 113.5q0 85 76 141.5t264 120.5q-113 -23 -160 -23q-98 0 -148.5 46t-50.5 118q0 65 27 189l92 454q4 24 4 41
q0 34 -22.5 41.5t-73.5 -22.5l-18 -13l-23 29q98 103 220.5 174.5t250.5 71.5q100 0 153.5 -51t53.5 -138q0 -55 -18 -147l-101 -487q-10 -52 -10 -70q0 -59 94 -4l25 14l20 -33q-72 -65 -196 -155q-91 -68 -133.5 -124t-42.5 -138q0 -44 21 -66t56 -22q37 0 64 6l-4 -23
q-36 -39 -95.5 -62.5t-127.5 -23.5z" />
    <glyph glyph-name="Idotaccent" unicode="&#x130;" horiz-adv-x="839" 
d="M858 1200l-172 -981q-19 -107 -15 -129q4 -25 36 -41q8 -4 22 -10l14 -6l-6 -33h-807l7 33l16 6q61 23 75 46.5t33 127.5l175 987q7 41 10.5 60.5t4 41.5t-2 30t-11 18.5t-19 15.5t-30.5 14l-14 6l6 33h807l-6 -33l-16 -6q-24 -9 -35 -13t-23.5 -16t-16.5 -17.5t-11 -30
t-10 -41.5t-11 -62zM623 1481q-104 0 -168 56.5t-64 150.5q0 90 64 146t168 56q105 0 167 -56t62 -146q0 -94 -62 -150.5t-167 -56.5z" />
    <glyph glyph-name="dotlessi" unicode="&#x131;" horiz-adv-x="710" 
d="M47 328l92 454q4 24 4 41q0 34 -22.5 41.5t-73.5 -22.5l-18 -13l-23 29q98 103 220.5 174.5t250.5 71.5q100 0 153.5 -51t53.5 -138q0 -55 -18 -147l-101 -487q-10 -52 -10 -70q0 -59 94 -4l25 14l20 -33q-235 -213 -475 -213q-98 0 -148.5 46t-50.5 118q0 65 27 189z
" />
    <glyph glyph-name="IJ" unicode="&#x132;" horiz-adv-x="1959" 
d="M1130 98q3 -55 17 -55q12 0 19.5 25.5t19.5 103.5l178 1028q14 74 14.5 103.5t-11 45.5t-46.5 31l-14 6l6 33h798l-6 -33l-16 -6q-51 -19 -66.5 -46t-35.5 -134l-117 -657q-49 -275 -227.5 -420.5t-448.5 -145.5q-469 0 -469 285q0 79 48.5 130.5t135.5 51.5
q127 0 171 -76.5t50 -269.5zM858 1200l-172 -981q-19 -107 -15 -129q4 -25 36 -41q8 -4 22 -10l14 -6l-6 -33h-807l7 33l16 6q61 23 75 46.5t33 127.5l175 987q7 41 10.5 60.5t4 41.5t-2 30t-11 18.5t-19 15.5t-30.5 14l-14 6l6 33h807l-6 -33l-16 -6q-24 -9 -35 -13
t-23.5 -16t-16.5 -17.5t-11 -30t-10 -41.5t-11 -62z" />
    <glyph glyph-name="ij" unicode="&#x133;" horiz-adv-x="1411" 
d="M475 1141q-111 0 -175 56t-64 157q0 99 69.5 165t181.5 66q109 0 171.5 -57.5t62.5 -155.5q0 -100 -67.5 -165.5t-178.5 -65.5zM47 328l92 454q4 24 4 41q0 34 -22.5 41.5t-73.5 -22.5l-18 -13l-23 29q98 103 220.5 174.5t250.5 71.5q100 0 153.5 -51t53.5 -138
q0 -55 -18 -147l-101 -487q-10 -52 -10 -70q0 -59 94 -4l25 14l20 -33q-235 -213 -475 -213q-98 0 -148.5 46t-50.5 118q0 65 27 189zM1180 1141q-111 0 -175.5 56.5t-64.5 156.5q0 99 70 165t182 66q108 0 170.5 -57t62.5 -156q0 -100 -67 -165.5t-178 -65.5zM1366 717
l-100 -531q-27 -142 -97 -257.5t-166 -190t-209 -114.5t-231 -40q-162 0 -247 64t-85 166q0 65 47 108t123 43q88 0 128 -54.5t57 -205.5q5 -38 10.5 -51.5t17.5 -13.5q17 0 27 34t34 166q13 70 21 113l146 786q12 62 12 88q0 35 -25 40t-71 -25l-19 -13l-22 29
q117 115 231 180.5t248 65.5q92 0 145.5 -50.5t53.5 -138.5q0 -34 -29 -198z" />
    <glyph glyph-name="Jcircumflex" unicode="&#x134;" horiz-adv-x="1239" 
d="M395 96q1 -16 1.5 -23.5t2.5 -15.5t5 -11t8 -3q30 0 53 129l178 1028q13 72 13 103t-12 46t-48 31l-16 6l6 33h805l-7 -33l-16 -6q-51 -19 -66.5 -46t-35.5 -134l-117 -657q-50 -275 -232 -420.5t-479 -145.5q-250 0 -370.5 71.5t-120.5 199.5q0 80 55 136t158 56
q68 0 112.5 -19.5t70.5 -65t37 -105.5t15 -154zM659 1483l-10 18l316 311h161l215 -311l-10 -18l-305 92z" />
    <glyph glyph-name="jcircumflex" unicode="&#x135;" horiz-adv-x="710" 
d="M666 717l-101 -531q-27 -142 -97 -257.5t-165.5 -190t-208.5 -114.5t-231 -40q-162 0 -247 64t-85 166q0 65 47 108t123 43q88 0 127.5 -54.5t56.5 -205.5q4 -38 10.5 -51.5t18.5 -13.5q17 0 27 34t34 166q13 70 21 113l145 786q13 67 13 88q0 35 -25.5 40t-71.5 -25
l-18 -13l-23 29q117 115 231.5 180.5t248.5 65.5q92 0 145 -50.5t53 -138.5q0 -39 -28 -198zM440 1511h160l184 -329l-12 -17l-276 113l-334 -113l-8 17z" />
    <glyph glyph-name="Kcommaaccent" unicode="&#x136;" horiz-adv-x="1667" 
d="M858 1200l-172 -981q-19 -107 -15 -129q4 -25 36 -41q8 -4 22 -10l14 -6l-6 -33h-807l7 33l16 6q61 23 75 46.5t33 127.5l175 987q7 41 10.5 60.5t4 41.5t-2 30t-11 18.5t-19 15.5t-30.5 14l-14 6l6 33h807l-6 -33l-16 -6q-22 -8 -33 -12.5t-23 -15.5t-16.5 -18t-12 -30
t-11 -42t-11.5 -62zM918 0q-106 361 -134 678l4 20l392 346q137 125 174 168t37 78q0 32 -27.5 52.5t-89.5 35.5l-33 8l6 33h490l-8 -33l-19 -6q-61 -21 -120.5 -65.5t-170.5 -147.5l-116 -108q99 -511 235 -907q20 -57 34 -77.5t46 -37.5l8 -4l-6 -33h-702zM508 -520v20
q277 43 283 201q-31 -31 -86 -31q-56 0 -88.5 33t-32.5 90t45.5 96t120.5 39q82 0 132 -48.5t50 -131.5q0 -122 -107 -193t-317 -75z" />
    <glyph glyph-name="kcommaaccent" unicode="&#x137;" horiz-adv-x="1427" 
d="M1186 285q17 -47 32.5 -67t42.5 -20t72 25l29 17l22 -27q-216 -240 -460 -240q-103 0 -158.5 68t-87.5 203q-33 129 -43 274l4 33q145 249 334 412q82 71 151 106t142 35q78 0 130 -54.5t52 -134.5q0 -73 -54 -120t-116 -47q-48 0 -80.5 21t-47.5 51t-25 60t-21 51
t-27 21q-31 0 -59 -37q65 -354 168 -630zM-18 0l258 1266q19 92 12.5 125t-49.5 59l-47 29l6 24l647 47l20 -18q-28 -105 -55 -244l-260 -1288h-532zM336 -520v20q276 42 282 201q-31 -31 -86 -31q-56 0 -88 33t-32 90t45.5 96t120.5 39q82 0 132 -48.5t50 -131.5
q0 -122 -107 -193t-317 -75z" />
    <glyph glyph-name="Lacute" unicode="&#x139;" horiz-adv-x="1359" 
d="M1229 0h-1299l7 33l16 6q61 23 75 46t33 128l175 987q7 40 10 56t4.5 40t-1.5 32t-10 20t-19 18t-32 14l-14 6l6 33h864l-6 -33l-28 -8q-36 -10 -52 -15t-35 -16t-25.5 -19t-15.5 -28.5t-13 -40.5t-11 -59l-172 -981q-14 -82 19 -117.5t110 -35.5q74 0 122 33t128 128
q111 135 256 365h31zM393 1481l-8 18l233 264q64 70 136 70q68 0 111.5 -46t43.5 -116q0 -58 -37.5 -97t-107.5 -48z" />
    <glyph glyph-name="lacute" unicode="&#x13a;" horiz-adv-x="724" 
d="M51 373l170 893q14 88 4 119t-63 71l-25 19l6 26l648 49l20 -18q-28 -107 -55 -246l-191 -1003q-10 -52 -10 -72q0 -18 14.5 -23.5t40 2t56.5 25.5l24 14l21 -32q-233 -222 -480 -222q-107 0 -159 44.5t-52 119.5q0 70 31 234zM354 1612l-8 18l234 264q64 70 135 70
q68 0 111.5 -46t43.5 -116q0 -58 -37.5 -97t-107.5 -48z" />
    <glyph glyph-name="Lcommaaccent" unicode="&#x13b;" horiz-adv-x="1359" 
d="M1229 0h-1299l7 33l16 6q61 23 75 46t33 128l175 987q7 40 10 56t4.5 40t-1.5 32t-10 20t-19 18t-32 14l-14 6l6 33h864l-6 -33l-28 -8q-36 -10 -52 -15t-35 -16t-25.5 -19t-15.5 -28.5t-13 -40.5t-11 -59l-172 -981q-14 -82 19 -117.5t110 -35.5q74 0 122 33t128 128
q111 135 256 365h31zM332 -520v20q276 42 282 201q-31 -31 -86 -31q-56 0 -88 33t-32 90t45 96t120 39q82 0 132.5 -48.5t50.5 -131.5q0 -122 -107 -193t-317 -75z" />
    <glyph glyph-name="lcommaaccent" unicode="&#x13c;" horiz-adv-x="724" 
d="M51 373l170 893q14 88 4 119t-63 71l-25 19l6 26l648 49l20 -18q-28 -107 -55 -246l-191 -1003q-10 -52 -10 -72q0 -18 14.5 -23.5t40 2t56.5 25.5l24 14l21 -32q-233 -222 -480 -222q-107 0 -159 44.5t-52 119.5q0 70 31 234zM-29 -520v20q277 43 283 201
q-31 -31 -86 -31q-56 0 -88.5 33t-32.5 90t45.5 96t120.5 39q82 0 132 -48.5t50 -131.5q0 -122 -107 -193t-317 -75z" />
    <glyph glyph-name="Lcaron" unicode="&#x13d;" horiz-adv-x="1359" 
d="M1016 989l-19 10l54 301q11 62 48 98t95 36q66 0 111 -41t45 -97q0 -74 -101 -145zM1229 0h-1299l7 33l16 6q61 23 75 46t33 128l175 987q7 40 10 56t4.5 40t-1.5 32t-10 20t-19 18t-32 14l-14 6l6 33h864l-6 -33l-28 -8q-36 -10 -52 -15t-35 -16t-25.5 -19t-15.5 -28.5
t-13 -40.5t-11 -59l-172 -981q-14 -82 19 -117.5t110 -35.5q74 0 122 33t128 128q111 135 256 365h31z" />
    <glyph glyph-name="lcaron" unicode="&#x13e;" horiz-adv-x="724" 
d="M801 1126l-19 11l70 307q23 110 127 110q53 0 93 -34t40 -86q0 -66 -90 -138zM51 373l170 893q14 88 4 119t-63 71l-25 19l6 26l648 49l20 -18q-28 -107 -55 -246l-191 -1003q-10 -52 -10 -72q0 -18 14.5 -23.5t40 2t56.5 25.5l24 14l21 -32q-233 -222 -480 -222
q-107 0 -159 44.5t-52 119.5q0 70 31 234z" />
    <glyph glyph-name="Ldot" unicode="&#x13f;" horiz-adv-x="1374" 
d="M1376 793q0 -87 -54 -136t-134 -49q-76 0 -127 46.5t-51 123.5q0 84 54 132t132 48t129 -45t51 -120zM1229 0h-1299l7 33l16 6q61 23 75 46t33 128l175 987q7 40 10 56t4.5 40t-1.5 32t-10 20t-19 18t-32 14l-14 6l6 33h864l-6 -33l-28 -8q-36 -10 -52 -15t-35 -16
t-25.5 -19t-15.5 -28.5t-13 -40.5t-11 -59l-172 -981q-14 -82 19 -117.5t110 -35.5q73 0 122 28t112 94q114 121 256 324h30z" />
    <glyph glyph-name="ldot" unicode="&#x140;" horiz-adv-x="983" 
d="M881 932q79 0 131.5 -46.5t52.5 -127.5q0 -82 -52.5 -129t-131.5 -47q-77 0 -130 47t-53 129q0 80 53 127t130 47zM51 373l170 893q14 88 4 119t-63 71l-25 19l6 26l648 49l20 -18q-28 -107 -55 -246l-191 -1003q-10 -52 -10 -72q0 -18 14.5 -23.5t40 2t56.5 25.5l24 14
l21 -32q-233 -222 -480 -222q-107 0 -159 44.5t-52 119.5q0 70 31 234z" />
    <glyph glyph-name="Lslash" unicode="&#x141;" horiz-adv-x="1359" 
d="M1229 0h-1299l7 33l16 6q61 23 75 46t33 128l56 313l-117 -32l18 67l109 31l109 608q7 40 10 56t4.5 40t-1.5 32t-10 20t-19 18t-32 14l-14 6l6 33h864l-6 -33l-28 -8q-36 -10 -52 -15t-35 -16t-25.5 -19t-15.5 -28.5t-13 -40.5t-11 -59l-76 -424l295 84l-18 -67
l-287 -82l-86 -492q-14 -82 19 -117.5t110 -35.5q74 0 122 33t128 128q111 135 256 365h31z" />
    <glyph glyph-name="lslash" unicode="&#x142;" horiz-adv-x="741" 
d="M6 596l12 72l107 53l104 545q14 88 4 119t-63 71l-25 19l7 26l647 49l20 -18q-28 -107 -55 -246l-53 -272l108 53l-12 -72l-109 -55l-125 -657q-10 -52 -10 -72q0 -18 14.5 -23.5t40 2t56.5 25.5l24 14l21 -32q-233 -222 -479 -222q-107 0 -159 44.5t-52 119.5t30 234
l52 276z" />
    <glyph glyph-name="Nacute" unicode="&#x143;" horiz-adv-x="1361" 
d="M57 178l179 1022q7 41 10.5 60.5t4 41.5t-2 30t-11 18.5t-19 15.5t-30.5 14l-14 6l6 33h643l385 -753h9l102 577q12 70 -5 96t-77 41l-23 6l7 33h301l-6 -33l-15 -4q-60 -17 -80 -42.5t-32 -98.5l-220 -1241h-348l-526 1077h-8l-160 -901q-12 -70 5 -96t77 -41l22 -6
l-6 -33h-295l7 33l14 4q53 15 73.5 42t32.5 99zM748 1481l-9 18l234 264q64 70 135 70q68 0 112 -46t44 -116q0 -58 -38 -97t-108 -48z" />
    <glyph glyph-name="nacute" unicode="&#x144;" horiz-adv-x="1404" 
d="M1348 692l-97 -422q-8 -33 -8 -63q0 -17 12 -23.5t33.5 -1t48.5 20.5l23 12l20 -31q-107 -98 -230 -153.5t-245 -55.5q-100 0 -148 49t-48 126q0 47 22 147l88 418q13 65 7 93t-33 28q-53 0 -125 -99l-150 -737h-530l159 782q5 30 5 41q0 34 -23 41.5t-74 -22.5l-18 -13
l-23 29q242 246 473 246q90 0 139.5 -48.5t49.5 -121.5q0 -56 -10 -129h4q95 133 231 216t273 83q95 0 150.5 -51t55.5 -135t-32 -226zM1038 1231l-364 -76l-10 19l210 282q62 80 144 80q68 0 110.5 -47.5t42.5 -116.5q0 -52 -34.5 -90t-98.5 -51z" />
    <glyph glyph-name="Ncommaaccent" unicode="&#x145;" horiz-adv-x="1361" 
d="M57 178l179 1022q7 41 10.5 60.5t4 41.5t-2 30t-11 18.5t-19 15.5t-30.5 14l-14 6l6 33h643l385 -753h9l102 577q12 70 -5 96t-77 41l-23 6l7 33h301l-6 -33l-15 -4q-60 -17 -80 -42.5t-32 -98.5l-220 -1241h-348l-526 1077h-8l-160 -901q-12 -70 5 -96t77 -41l22 -6
l-6 -33h-295l7 33l14 4q53 15 73.5 42t32.5 99zM285 -520v20q276 42 282 201q-31 -31 -86 -31q-56 0 -88.5 33t-32.5 90t45.5 96t120.5 39q82 0 132.5 -48.5t50.5 -131.5q0 -122 -107 -193t-317 -75z" />
    <glyph glyph-name="ncommaaccent" unicode="&#x146;" horiz-adv-x="1404" 
d="M1348 692l-97 -422q-8 -33 -8 -63q0 -17 12 -23.5t33.5 -1t48.5 20.5l23 12l20 -31q-107 -98 -230 -153.5t-245 -55.5q-100 0 -148 49t-48 126q0 47 22 147l88 418q13 65 7 93t-33 28q-53 0 -125 -99l-150 -737h-530l159 782q5 30 5 41q0 34 -23 41.5t-74 -22.5l-18 -13
l-23 29q242 246 473 246q90 0 139.5 -48.5t49.5 -121.5q0 -56 -10 -129h4q95 133 231 216t273 83q95 0 150.5 -51t55.5 -135t-32 -226zM330 -520v20q276 42 282 201q-31 -31 -86 -31q-56 0 -88 33t-32 90t45 96t120 39q82 0 132.5 -48.5t50.5 -131.5q0 -122 -107 -193
t-317 -75z" />
    <glyph glyph-name="Ncaron" unicode="&#x147;" horiz-adv-x="1361" 
d="M57 178l179 1022q7 41 10.5 60.5t4 41.5t-2 30t-11 18.5t-19 15.5t-30.5 14l-14 6l6 33h643l385 -753h9l102 577q12 70 -5 96t-77 41l-23 6l7 33h301l-6 -33l-15 -4q-60 -17 -80 -42.5t-32 -98.5l-220 -1241h-348l-526 1077h-8l-160 -901q-12 -70 5 -96t77 -41l22 -6
l-6 -33h-295l7 33l14 4q53 15 73.5 42t32.5 99zM963 1729l366 92l10 -19l-315 -311h-162l-215 311l10 19z" />
    <glyph glyph-name="ncaron" unicode="&#x148;" horiz-adv-x="1404" 
d="M1348 692l-97 -422q-8 -33 -8 -63q0 -17 12 -23.5t33.5 -1t48.5 20.5l23 12l20 -31q-107 -98 -230 -153.5t-245 -55.5q-100 0 -148 49t-48 126q0 47 22 147l88 418q13 65 7 93t-33 28q-53 0 -125 -99l-150 -737h-530l159 782q5 30 5 41q0 34 -23 41.5t-74 -22.5l-18 -13
l-23 29q242 246 473 246q90 0 139.5 -48.5t49.5 -121.5q0 -56 -10 -129h4q95 133 231 216t273 83q95 0 150.5 -51t55.5 -135t-32 -226zM918 1182h-160l-185 329l13 17l276 -113l334 113l8 -17z" />
    <glyph glyph-name="napostrophe" unicode="&#x149;" horiz-adv-x="1507" 
d="M1450 692l-96 -422q-8 -33 -8 -63q0 -17 12 -23.5t33.5 -1t48.5 20.5l22 12l21 -31q-107 -98 -230 -153.5t-245 -55.5q-100 0 -148.5 49t-48.5 126q0 42 23 147l88 418q25 121 -27 121q-53 0 -125 -99l-149 -737h-531l160 782q4 24 4 41q0 34 -22.5 41.5t-73.5 -22.5
l-19 -13l-22 29q242 246 473 246q90 0 139 -48.5t49 -121.5q0 -56 -10 -129h4q95 133 231 216t273 83q95 0 151 -51t56 -135q0 -80 -33 -226zM-160 887l-4 22q271 59 307 262q-41 -47 -106 -47q-49 0 -91 35.5t-42 100.5q0 76 51.5 125t136.5 49q94 0 148.5 -57.5
t54.5 -151.5q0 -132 -122.5 -230.5t-332.5 -107.5z" />
    <glyph glyph-name="Eng" unicode="&#x14a;" horiz-adv-x="1345" 
d="M1217 803h8l78 440q12 70 -5 96t-77 41l-23 6l6 33h301l-6 -33l-14 -4q-60 -17 -80.5 -43t-32.5 -98l-225 -1272q-37 -209 -120.5 -295t-246.5 -86q-129 0 -212 50.5t-83 150.5q0 82 50 132t129 50q81 0 126 -46t64 -167q6 -34 20.5 -49.5t43.5 -15.5q38 0 78 51t63 152
l-764 1181h-8l-160 -901q-12 -70 5 -96t77 -41l22 -6l-6 -33h-295l7 33l14 4q53 15 73.5 42t32.5 99l179 1022q7 41 10.5 60.5t4 41.5t-2 30t-11 18.5t-19 15.5t-30.5 14l-14 6l6 33h651z" />
    <glyph glyph-name="eng" unicode="&#x14b;" horiz-adv-x="1384" 
d="M1233 190q-34 -151 -105.5 -269t-166.5 -190.5t-203.5 -109.5t-225.5 -37q-173 0 -260.5 62.5t-87.5 163.5q0 63 47 105t123 42q88 0 128 -53t57 -201q5 -38 10.5 -51.5t17.5 -13.5q16 0 30 23.5t33.5 95t43.5 196.5l145 762q13 65 7 93t-33 28q-53 0 -125 -99l-150 -737
h-530l159 782q5 30 5 41q0 34 -23 41.5t-74 -22.5l-18 -13l-23 29q242 246 473 246q90 0 139.5 -48.5t49.5 -121.5q0 -56 -10 -129h4q95 133 231 216t273 83q95 0 150.5 -51t55.5 -135t-32 -226z" />
    <glyph glyph-name="Omacron" unicode="&#x14c;" horiz-adv-x="1609" 
d="M735 -27q-197 0 -349 74.5t-237.5 216t-85.5 328.5q0 190 68.5 351t187.5 270t282.5 170t350.5 61q197 0 349 -74.5t237.5 -216t85.5 -328.5q0 -190 -68.5 -351t-187.5 -270t-282.5 -170t-350.5 -61zM733 31q36 0 62 33t53 106q68 190 124 538.5t56 508.5q0 97 -16 134.5
t-60 37.5q-53 0 -94 -93q-78 -174 -140.5 -543.5t-62.5 -547.5q0 -95 18.5 -134.5t59.5 -39.5zM649 1552l25 142h626l-24 -142h-627z" />
    <glyph glyph-name="omacron" unicode="&#x14d;" horiz-adv-x="1339" 
d="M575 33q61 0 105 147q47 155 85 398t38 337q0 76 -11 106t-42 30q-26 0 -47.5 -29.5t-43.5 -95.5q-49 -150 -90 -406.5t-41 -355.5q0 -70 9 -100.5t38 -30.5zM578 -25q-254 0 -407 132.5t-153 349.5q0 195 96.5 344.5t261 228t369.5 78.5q138 0 248.5 -36.5t181.5 -101.5
t108.5 -152t37.5 -189q0 -198 -96 -347.5t-264 -228t-383 -78.5zM481 1231l33 141h582l-29 -141h-586z" />
    <glyph glyph-name="Obreve" unicode="&#x14e;" horiz-adv-x="1609" 
d="M735 -27q-197 0 -349 74.5t-237.5 216t-85.5 328.5q0 190 68.5 351t187.5 270t282.5 170t350.5 61q197 0 349 -74.5t237.5 -216t85.5 -328.5q0 -190 -68.5 -351t-187.5 -270t-282.5 -170t-350.5 -61zM733 31q36 0 62 33t53 106q68 190 124 538.5t56 508.5q0 97 -16 134.5
t-60 37.5q-53 0 -94 -93q-78 -174 -140.5 -543.5t-62.5 -547.5q0 -95 18.5 -134.5t59.5 -39.5zM977 1485q-128 0 -201.5 84t-66.5 243l14 9q34 -68 97.5 -94.5t170.5 -26.5q101 0 173 28t136 93l15 -9q-42 -167 -125.5 -247t-212.5 -80z" />
    <glyph glyph-name="obreve" unicode="&#x14f;" horiz-adv-x="1339" 
d="M575 33q61 0 105 147q47 155 85 398t38 337q0 76 -11 106t-42 30q-26 0 -47.5 -29.5t-43.5 -95.5q-49 -150 -90 -406.5t-41 -355.5q0 -70 9 -100.5t38 -30.5zM578 -25q-254 0 -407 132.5t-153 349.5q0 195 96.5 344.5t261 228t369.5 78.5q138 0 248.5 -36.5t181.5 -101.5
t108.5 -152t37.5 -189q0 -198 -96 -347.5t-264 -228t-383 -78.5zM784 1184q-117 0 -185.5 84t-61.5 243l14 9q34 -67 94 -94t152 -27q97 0 161 27t129 94l15 -9q-42 -168 -120.5 -247.5t-197.5 -79.5z" />
    <glyph glyph-name="Ohungarumlaut" unicode="&#x150;" horiz-adv-x="1609" 
d="M735 -27q-197 0 -349 74.5t-237.5 216t-85.5 328.5q0 190 68.5 351t187.5 270t282.5 170t350.5 61q197 0 349 -74.5t237.5 -216t85.5 -328.5q0 -190 -68.5 -351t-187.5 -270t-282.5 -170t-350.5 -61zM733 31q36 0 62 33t53 106q68 190 124 538.5t56 508.5q0 97 -16 134.5
t-60 37.5q-53 0 -94 -93q-78 -174 -140.5 -543.5t-62.5 -547.5q0 -95 18.5 -134.5t59.5 -39.5zM1100 1481l-13 14l78 240q23 64 55.5 92t79.5 28q61 0 104.5 -42t43.5 -107q0 -96 -131 -143zM758 1481l-13 14l78 240q23 64 55.5 92t79.5 28q61 0 104.5 -42t43.5 -107
q0 -96 -131 -143z" />
    <glyph glyph-name="ohungarumlaut" unicode="&#x151;" horiz-adv-x="1339" 
d="M575 33q61 0 105 147q47 155 85 398t38 337q0 76 -11 106t-42 30q-26 0 -47.5 -29.5t-43.5 -95.5q-49 -150 -90 -406.5t-41 -355.5q0 -70 9 -100.5t38 -30.5zM578 -25q-254 0 -407 132.5t-153 349.5q0 195 96.5 344.5t261 228t369.5 78.5q138 0 248.5 -36.5t181.5 -101.5
t108.5 -152t37.5 -189q0 -198 -96 -347.5t-264 -228t-383 -78.5zM555 1174l-12 14l67 252q34 121 129 121q64 0 110 -42.5t46 -107.5q0 -95 -129 -149zM891 1174l-12 14l67 252q34 121 129 121q64 0 110 -42.5t46 -107.5q0 -95 -129 -149z" />
    <glyph glyph-name="OE" unicode="&#x152;" horiz-adv-x="2150" 
d="M983 1354q-71 0 -125 -99q-82 -147 -135 -436t-53 -524q0 -130 22 -178.5t86 -48.5q33 0 53 10l195 1122q13 88 2.5 121t-45.5 33zM963 1419h1212l-51 -495h-29q-57 160 -119 290q-36 74 -83 106t-124 32q-63 0 -116 -11l-101 -575h47q58 0 89.5 16.5t68.5 71.5
q66 96 105 168h26l-102 -584h-27q-6 25 -16.5 78.5t-18.5 83.5q-17 60 -45.5 81t-87.5 21h-49l-86 -483q-15 -86 18 -118.5t123 -32.5q43 0 74 8t62 32t52 47.5t64 75.5q100 122 213 301h31l-115 -532h-1202q-368 0 -540.5 153t-172.5 472q0 186 68.5 337t189 250.5t285 153
t357.5 53.5z" />
    <glyph glyph-name="oe" unicode="&#x153;" horiz-adv-x="1910" 
d="M569 -25q-254 0 -406.5 132.5t-152.5 349.5q0 195 96.5 344.5t261 228t369.5 78.5q245 0 355 -152q195 152 460 152q167 0 269 -66.5t102 -171.5q0 -133 -154 -215.5t-479 -128.5q-4 -74 -4 -100q0 -131 46.5 -187.5t142.5 -56.5q140 0 309 146l28 -25q-50 -66 -107 -121
t-128.5 -103.5t-159 -76t-180.5 -27.5q-179 0 -293 117q-151 -117 -375 -117zM567 33q61 0 105 147q47 155 85 398t38 337q0 76 -11.5 106t-42.5 30q-26 0 -47 -29.5t-43 -95.5q-49 -150 -90 -406.5t-41 -355.5q0 -70 9 -100.5t38 -30.5zM1483 1055q-40 0 -79.5 -75.5
t-66.5 -183.5t-41 -223q51 12 85.5 27.5t68.5 46.5q38 37 59 122t21 189q0 97 -47 97z" />
    <glyph glyph-name="Racute" unicode="&#x154;" horiz-adv-x="1611" 
d="M729 0h-799l7 33l16 6q61 23 75 46t33 128l175 987q9 47 11.5 69.5t3 43.5t-7.5 30.5t-19.5 18t-35.5 18.5l-14 6l6 33h887q278 0 412.5 -95.5t134.5 -285.5q0 -133 -69 -238t-189 -149v-6q73 -325 149 -491q26 -57 43 -77t56 -40l8 -4l-6 -33h-684q-95 288 -138 623h-34
l-72 -404q-19 -107 -15 -129q4 -25 36 -41q8 -4 22 -10l14 -6zM762 690q12 -4 33 -4q105 0 168 131t63 377q0 83 -26.5 119.5t-81.5 36.5q-24 0 -41 -11zM762 1481l-8 18l233 264q64 70 135 70q68 0 112 -46t44 -116q0 -58 -37.5 -97t-107.5 -48z" />
    <glyph glyph-name="racute" unicode="&#x155;" horiz-adv-x="1185" 
d="M670 748l-152 -748h-530l159 782q5 30 5 41q0 34 -23 41.5t-74 -22.5l-18 -13l-23 29q242 246 473 246q90 0 138.5 -49t48.5 -125q0 -59 -8 -117h4q61 126 148.5 208.5t201.5 82.5q87 0 134.5 -51.5t47.5 -149.5q0 -117 -67.5 -191.5t-165.5 -74.5q-49 0 -87 17.5
t-59.5 42t-37 49t-28.5 42t-26 17.5t-24 -8.5t-17.5 -17.5t-19.5 -31zM936 1231l-365 -76l-10 19l211 282q62 80 143 80q68 0 111 -47.5t43 -116.5q0 -52 -34.5 -90t-98.5 -51z" />
    <glyph glyph-name="Rcommaaccent" unicode="&#x156;" horiz-adv-x="1611" 
d="M729 0h-799l7 33l16 6q61 23 75 46t33 128l175 987q9 47 11.5 69.5t3 43.5t-7.5 30.5t-19.5 18t-35.5 18.5l-14 6l6 33h887q278 0 412.5 -95.5t134.5 -285.5q0 -133 -69 -238t-189 -149v-6q73 -325 149 -491q26 -57 43 -77t56 -40l8 -4l-6 -33h-684q-95 288 -138 623h-34
l-72 -404q-19 -107 -15 -129q4 -25 36 -41q8 -4 22 -10l14 -6zM762 690q12 -4 33 -4q105 0 168 131t63 377q0 83 -26.5 119.5t-81.5 36.5q-24 0 -41 -11zM444 -520v20q277 43 283 201q-31 -31 -86 -31q-56 0 -88.5 33t-32.5 90t45.5 96t120.5 39q82 0 132 -48.5t50 -131.5
q0 -122 -107 -193t-317 -75z" />
    <glyph glyph-name="rcommaaccent" unicode="&#x157;" horiz-adv-x="1185" 
d="M670 748l-152 -748h-530l159 782q5 30 5 41q0 34 -23 41.5t-74 -22.5l-18 -13l-23 29q242 246 473 246q90 0 138.5 -49t48.5 -125q0 -59 -8 -117h4q61 126 148.5 208.5t201.5 82.5q87 0 134.5 -51.5t47.5 -149.5q0 -117 -67.5 -191.5t-165.5 -74.5q-49 0 -87 17.5
t-59.5 42t-37 49t-28.5 42t-26 17.5t-24 -8.5t-17.5 -17.5t-19.5 -31zM-31 -520v20q277 43 283 201q-31 -31 -86 -31q-56 0 -88.5 33t-32.5 90t45.5 96t120.5 39q82 0 132 -48.5t50 -131.5q0 -122 -107 -193t-317 -75z" />
    <glyph glyph-name="Rcaron" unicode="&#x158;" horiz-adv-x="1611" 
d="M729 0h-799l7 33l16 6q61 23 75 46t33 128l175 987q9 47 11.5 69.5t3 43.5t-7.5 30.5t-19.5 18t-35.5 18.5l-14 6l6 33h887q278 0 412.5 -95.5t134.5 -285.5q0 -133 -69 -238t-189 -149v-6q73 -325 149 -491q26 -57 43 -77t56 -40l8 -4l-6 -33h-684q-95 288 -138 623h-34
l-72 -404q-19 -107 -15 -129q4 -25 36 -41q8 -4 22 -10l14 -6zM762 690q12 -4 33 -4q105 0 168 131t63 377q0 83 -26.5 119.5t-81.5 36.5q-24 0 -41 -11zM944 1729l367 92l10 -19l-315 -311h-162l-215 311l10 19z" />
    <glyph glyph-name="rcaron" unicode="&#x159;" horiz-adv-x="1185" 
d="M670 748l-152 -748h-530l159 782q5 30 5 41q0 34 -23 41.5t-74 -22.5l-18 -13l-23 29q242 246 473 246q90 0 138.5 -49t48.5 -125q0 -59 -8 -117h4q61 126 148.5 208.5t201.5 82.5q87 0 134.5 -51.5t47.5 -149.5q0 -117 -67.5 -191.5t-165.5 -74.5q-49 0 -87 17.5
t-59.5 42t-37 49t-28.5 42t-26 17.5t-24 -8.5t-17.5 -17.5t-19.5 -31zM811 1182h-160l-184 329l12 17l277 -113l334 113l8 -17z" />
    <glyph glyph-name="Sacute" unicode="&#x15a;" horiz-adv-x="1226" 
d="M481 -25q-123 0 -264.5 25.5t-198.5 60.5l35 431h31q91 -196 137 -273q61 -102 124.5 -145t150.5 -43q92 0 151.5 51t59.5 129q0 73 -56.5 127t-197.5 131q-101 56 -168.5 111.5t-104 113t-51 112.5t-14.5 122q0 229 176 372.5t497 143.5q113 0 233.5 -20.5t190.5 -55.5
l-41 -399h-30q-107 206 -144 262q-58 89 -110 123.5t-125 34.5q-82 0 -129 -43t-47 -115q0 -66 56 -119.5t179 -122.5q221 -125 300 -223t79 -252q0 -239 -190.5 -389t-528.5 -150zM573 1481l-8 18l234 264q64 70 135 70q68 0 112 -46t44 -116q0 -58 -38 -97t-108 -48z" />
    <glyph glyph-name="sacute" unicode="&#x15b;" horiz-adv-x="1054" 
d="M412 -25q-221 0 -332 65t-111 171q0 66 46.5 104.5t121.5 38.5q91 0 132 -48t75 -177q15 -60 40 -80t81 -20q53 0 86 34t33 84q0 14 -3.5 27t-12 25t-16.5 22t-24.5 22t-28 19.5t-35 20.5t-37 20t-43 22t-44.5 23q-144 73 -203 159.5t-59 188.5q0 183 155 297.5
t390 114.5q203 0 309 -56.5t106 -160.5q0 -63 -39.5 -98t-115.5 -35q-77 0 -125 45t-72 145q-15 62 -39 83.5t-72 21.5q-50 0 -80 -29.5t-30 -73.5q0 -50 39 -80.5t188 -106.5q37 -19 58 -30q118 -61 180.5 -149t62.5 -191q0 -123 -77 -219t-209 -147.5t-295 -51.5z
M846 1231l-365 -76l-10 19l211 282q62 80 143 80q68 0 111 -47.5t43 -116.5q0 -52 -34.5 -90t-98.5 -51z" />
    <glyph glyph-name="Scircumflex" unicode="&#x15c;" horiz-adv-x="1226" 
d="M481 -25q-123 0 -264.5 25.5t-198.5 60.5l35 431h31q91 -196 137 -273q61 -102 124.5 -145t150.5 -43q92 0 151.5 51t59.5 129q0 73 -56.5 127t-197.5 131q-101 56 -168.5 111.5t-104 113t-51 112.5t-14.5 122q0 229 176 372.5t497 143.5q113 0 233.5 -20.5t190.5 -55.5
l-41 -399h-30q-107 206 -144 262q-58 89 -110 123.5t-125 34.5q-82 0 -129 -43t-47 -115q0 -66 56 -119.5t179 -122.5q221 -125 300 -223t79 -252q0 -239 -190.5 -389t-528.5 -150zM453 1483l-11 18l316 311h162l215 -311l-11 -18l-305 92z" />
    <glyph glyph-name="scircumflex" unicode="&#x15d;" horiz-adv-x="1054" 
d="M412 -25q-221 0 -332 65t-111 171q0 66 46.5 104.5t121.5 38.5q91 0 132 -48t75 -177q15 -60 40 -80t81 -20q53 0 86 34t33 84q0 14 -3.5 27t-12 25t-16.5 22t-24.5 22t-28 19.5t-35 20.5t-37 20t-43 22t-44.5 23q-144 73 -203 159.5t-59 188.5q0 183 155 297.5
t390 114.5q203 0 309 -56.5t106 -160.5q0 -63 -39.5 -98t-115.5 -35q-77 0 -125 45t-72 145q-15 62 -39 83.5t-72 21.5q-50 0 -80 -29.5t-30 -73.5q0 -50 39 -80.5t188 -106.5q37 -19 58 -30q118 -61 180.5 -149t62.5 -191q0 -123 -77 -219t-209 -147.5t-295 -51.5z
M608 1511h160l184 -329l-12 -17l-276 113l-334 -113l-8 17z" />
    <glyph glyph-name="Scedilla" unicode="&#x15e;" horiz-adv-x="1226" 
d="M170 -424v25q79 22 124.5 56t45.5 73q0 51 -74 51l-4 10l121 189q-114 10 -217 31.5t-148 49.5l35 431h31q91 -196 137 -273q61 -102 124.5 -145t150.5 -43q92 0 151.5 51t59.5 129q0 73 -56.5 127t-197.5 131q-101 56 -168.5 111.5t-104 113t-51 112.5t-14.5 122
q0 229 176 372.5t497 143.5q113 0 233.5 -20.5t190.5 -55.5l-41 -399h-30q-107 206 -144 262q-58 89 -110 123.5t-125 34.5q-82 0 -129 -43t-47 -115q0 -66 56 -119.5t179 -122.5q221 -125 300 -223t79 -252q0 -239 -190.5 -389t-528.5 -150h-37l-30 -34q89 -6 133.5 -43.5
t44.5 -98.5q0 -79 -101.5 -138.5t-320.5 -84.5z" />
    <glyph glyph-name="scedilla" unicode="&#x15f;" horiz-adv-x="1054" 
d="M82 -424v25q79 22 124.5 56t45.5 73q0 51 -74 51l-4 10l123 191q-165 17 -246.5 77.5t-81.5 151.5q0 66 46.5 104.5t121.5 38.5q91 0 132 -48t75 -177q15 -60 40 -80t81 -20q53 0 86 34t33 84q0 14 -3.5 27t-12 25t-16.5 22t-24.5 22t-28 19.5t-35 20.5t-37 20t-43 22
t-44.5 23q-144 73 -203 159.5t-59 188.5q0 183 155 297.5t390 114.5q203 0 309 -56.5t106 -160.5q0 -63 -39.5 -98t-115.5 -35q-77 0 -125 45t-72 145q-15 62 -39 83.5t-72 21.5q-50 0 -80 -29.5t-30 -73.5q0 -50 39 -80.5t188 -106.5q37 -19 58 -30q118 -61 180.5 -149
t62.5 -191q0 -123 -77 -219t-209 -147.5t-295 -51.5q-38 0 -56 2l-30 -36q89 -6 133.5 -43.5t44.5 -98.5q0 -79 -101.5 -138.5t-320.5 -84.5z" />
    <glyph glyph-name="Scaron" unicode="&#x160;" horiz-adv-x="1226" 
d="M481 -25q-123 0 -264.5 25.5t-198.5 60.5l35 431h31q91 -196 137 -273q61 -102 124.5 -145t150.5 -43q92 0 151.5 51t59.5 129q0 73 -56.5 127t-197.5 131q-101 56 -168.5 111.5t-104 113t-51 112.5t-14.5 122q0 229 176 372.5t497 143.5q113 0 233.5 -20.5t190.5 -55.5
l-41 -399h-30q-107 206 -144 262q-58 89 -110 123.5t-125 34.5q-82 0 -129 -43t-47 -115q0 -66 56 -119.5t179 -122.5q221 -125 300 -223t79 -252q0 -239 -190.5 -389t-528.5 -150zM788 1729l367 92l10 -19l-315 -311h-162l-215 311l10 19z" />
    <glyph glyph-name="scaron" unicode="&#x161;" horiz-adv-x="1054" 
d="M412 -25q-221 0 -332 65t-111 171q0 66 46.5 104.5t121.5 38.5q91 0 132 -48t75 -177q15 -60 40 -80t81 -20q53 0 86 34t33 84q0 14 -3.5 27t-12 25t-16.5 22t-24.5 22t-28 19.5t-35 20.5t-37 20t-43 22t-44.5 23q-144 73 -203 159.5t-59 188.5q0 183 155 297.5
t390 114.5q203 0 309 -56.5t106 -160.5q0 -63 -39.5 -98t-115.5 -35q-77 0 -125 45t-72 145q-15 62 -39 83.5t-72 21.5q-50 0 -80 -29.5t-30 -73.5q0 -50 39 -80.5t188 -106.5q37 -19 58 -30q118 -61 180.5 -149t62.5 -191q0 -123 -77 -219t-209 -147.5t-295 -51.5z
M725 1182h-160l-184 329l12 17l277 -113l334 113l8 -17z" />
    <glyph glyph-name="Tcommaaccent" unicode="&#x162;" horiz-adv-x="1517" 
d="M1243 1354h-12l-199 -1135q-5 -46 -7.5 -74t11.5 -48t37.5 -31.5t69.5 -24.5l28 -8l-6 -33h-958l6 33l31 8q97 26 124 56t42 122l200 1135h-14q-40 0 -67 -11t-65 -49.5t-93 -117.5l-232 -334h-28l104 577h1411l-61 -579h-27q-73 208 -127 338q-43 104 -77 140t-91 36z
M395 -520v20q277 43 283 201q-31 -31 -86 -31q-56 0 -88.5 33t-32.5 90t45.5 96t120.5 39q82 0 132 -48.5t50 -131.5q0 -122 -107 -193t-317 -75z" />
    <glyph glyph-name="tcommaaccent" unicode="&#x163;" horiz-adv-x="841" 
d="M707 952l-123 -592q-15 -74 -15 -94q0 -58 41.5 -62t114.5 44l35 22l26 -32q-57 -55 -107.5 -95t-119 -82.5t-146 -65t-159.5 -22.5q-116 0 -170.5 53.5t-54.5 147.5q0 74 24 191l123 587h-121l13 37l149 92l43 168l453 135h75l-59 -301h205l-35 -131h-192zM-25 -520v20
q277 43 283 201q-31 -31 -86 -31q-56 0 -88.5 33t-32.5 90t45.5 96t120.5 39q82 0 132 -48.5t50 -131.5q0 -122 -107 -193t-317 -75z" />
    <glyph glyph-name="Tcaron" unicode="&#x164;" horiz-adv-x="1517" 
d="M1243 1354h-12l-199 -1135q-5 -46 -7.5 -74t11.5 -48t37.5 -31.5t69.5 -24.5l28 -8l-6 -33h-958l6 33l31 8q97 26 124 56t42 122l200 1135h-14q-40 0 -67 -11t-65 -49.5t-93 -117.5l-232 -334h-28l104 577h1411l-61 -579h-27q-73 208 -127 338q-43 104 -77 140t-91 36z
M950 1729l367 92l10 -19l-315 -311h-162l-215 311l10 19z" />
    <glyph glyph-name="tcaron" unicode="&#x165;" horiz-adv-x="841" 
d="M827 1153l-18 10l55 281q23 110 127 110q53 0 93 -34t40 -86q0 -66 -90 -138zM707 952l-123 -592q-15 -74 -15 -94q0 -58 41.5 -62t114.5 44l35 22l26 -32q-57 -55 -107.5 -95t-119 -82.5t-146 -65t-159.5 -22.5q-116 0 -170.5 53.5t-54.5 147.5q0 74 24 191l123 587
h-121l13 37l149 92l43 168l453 135h75l-59 -301h205l-35 -131h-192z" />
    <glyph glyph-name="Tbar" unicode="&#x166;" horiz-adv-x="1517" 
d="M1243 1354h-12l-101 -563h230l-14 -66h-226l-88 -506q-5 -46 -7.5 -74t11.5 -48t37.5 -31.5t69.5 -24.5l28 -8l-6 -33h-958l6 33l31 8q97 26 124 56t42 122l88 506h-217l12 66h217l100 563h-14q-40 0 -67 -11t-65 -49.5t-93 -117.5l-232 -334h-28l104 577h1411l-61 -579
h-27q-73 208 -127 338q-43 104 -77 140t-91 36z" />
    <glyph glyph-name="tbar" unicode="&#x167;" horiz-adv-x="841" 
d="M707 952l-45 -213h190l-10 -65h-193l-65 -314q-15 -74 -15 -94q0 -58 41.5 -62t114.5 44l35 22l26 -32q-57 -55 -107.5 -95t-119 -82.5t-146 -65t-159.5 -22.5q-116 0 -170.5 53.5t-54.5 147.5q0 74 24 191l64 309h-101l11 65h104l45 213h-121l13 37l149 92l43 168
l453 135h75l-59 -301h205l-35 -131h-192z" />
    <glyph glyph-name="Utilde" unicode="&#x168;" horiz-adv-x="1454" 
d="M1468 1243l-153 -868q-38 -213 -173.5 -307.5t-398.5 -94.5q-380 0 -528 138.5t-96 427.5l117 661q9 48 11.5 69t3.5 43t-7 31.5t-20 18t-36 18.5l-14 6l6 33h807l-6 -33l-16 -6q-28 -10 -41 -18t-24 -16t-17.5 -31.5t-11 -42.5t-13.5 -72l-133 -754q-31 -174 29 -250.5
t204 -76.5q122 0 193.5 65t95.5 207l152 854q12 70 -4 95t-76 40l-23 6l7 33h299l-7 -33l-14 -4q-61 -17 -82 -42.5t-31 -96.5zM1020 1796q42 0 163 -19.5t167 -19.5q42 0 73 16.5t62 61.5l20 -10q-22 -53 -31.5 -76t-28 -63.5t-30 -58t-29.5 -42.5t-34.5 -35t-38 -18
t-45.5 -8q-41 0 -162.5 18.5t-167.5 18.5q-41 0 -69.5 -16t-61.5 -62l-23 10q20 51 30.5 76t28 64.5t29.5 58t30 43t34.5 35t38 18.5t45.5 8z" />
    <glyph glyph-name="utilde" unicode="&#x169;" horiz-adv-x="1380" 
d="M651 696l-73 -340q-15 -73 -15 -82q0 -36 37 -36q25 0 55.5 21t51.5 56l161 764h527l-158 -755q-14 -71 -14 -105q0 -32 23.5 -38t70.5 20l24 14l23 -29q-84 -90 -206.5 -150.5t-248.5 -60.5q-102 0 -155.5 48t-53.5 143q0 22 7 78h-5q-206 -269 -444 -269
q-110 0 -171.5 59.5t-61.5 158.5q0 51 20 149l90 387q17 73 17 92q0 38 -25.5 44.5t-71.5 -23.5l-18 -13l-23 29q228 246 467 246q93 0 148 -53.5t55 -149.5q0 -56 -33 -205zM692 1497q42 0 160 -19.5t164 -19.5q42 0 71.5 16.5t61.5 61.5l18 -10q-62 -166 -113.5 -237.5
t-131.5 -71.5q-41 0 -158.5 18t-163.5 18q-42 0 -70.5 -16t-60.5 -61l-23 10q31 83 54.5 134t52.5 94.5t63 63t76 19.5z" />
    <glyph glyph-name="Umacron" unicode="&#x16a;" horiz-adv-x="1454" 
d="M1468 1243l-153 -868q-38 -213 -173.5 -307.5t-398.5 -94.5q-380 0 -528 138.5t-96 427.5l117 661q9 48 11.5 69t3.5 43t-7 31.5t-20 18t-36 18.5l-14 6l6 33h807l-6 -33l-16 -6q-28 -10 -41 -18t-24 -16t-17.5 -31.5t-11 -42.5t-13.5 -72l-133 -754q-31 -174 29 -250.5
t204 -76.5q122 0 193.5 65t95.5 207l152 854q12 70 -4 95t-76 40l-23 6l7 33h299l-7 -33l-14 -4q-61 -17 -82 -42.5t-31 -96.5zM768 1552l25 142h626l-24 -142h-627z" />
    <glyph glyph-name="umacron" unicode="&#x16b;" horiz-adv-x="1380" 
d="M651 696l-73 -340q-15 -73 -15 -82q0 -36 37 -36q25 0 55.5 21t51.5 56l161 764h527l-158 -755q-14 -71 -14 -105q0 -32 23.5 -38t70.5 20l24 14l23 -29q-84 -90 -206.5 -150.5t-248.5 -60.5q-102 0 -155.5 48t-53.5 143q0 22 7 78h-5q-206 -269 -444 -269
q-110 0 -171.5 59.5t-61.5 158.5q0 51 20 149l90 387q17 73 17 92q0 38 -25.5 44.5t-71.5 -23.5l-18 -13l-23 29q228 246 467 246q93 0 148 -53.5t55 -149.5q0 -56 -33 -205zM485 1231l33 141h582l-29 -141h-586z" />
    <glyph glyph-name="Ubreve" unicode="&#x16c;" horiz-adv-x="1454" 
d="M1468 1243l-153 -868q-38 -213 -173.5 -307.5t-398.5 -94.5q-380 0 -528 138.5t-96 427.5l117 661q9 48 11.5 69t3.5 43t-7 31.5t-20 18t-36 18.5l-14 6l6 33h807l-6 -33l-16 -6q-28 -10 -41 -18t-24 -16t-17.5 -31.5t-11 -42.5t-13.5 -72l-133 -754q-31 -174 29 -250.5
t204 -76.5q122 0 193.5 65t95.5 207l152 854q12 70 -4 95t-76 40l-23 6l7 33h299l-7 -33l-14 -4q-61 -17 -82 -42.5t-31 -96.5zM1096 1485q-128 0 -202 84t-67 243l15 9q34 -68 97.5 -94.5t170.5 -26.5q101 0 173 28t136 93l15 -9q-42 -167 -125.5 -247t-212.5 -80z" />
    <glyph glyph-name="ubreve" unicode="&#x16d;" horiz-adv-x="1380" 
d="M651 696l-73 -340q-15 -73 -15 -82q0 -36 37 -36q25 0 55.5 21t51.5 56l161 764h527l-158 -755q-14 -71 -14 -105q0 -32 23.5 -38t70.5 20l24 14l23 -29q-84 -90 -206.5 -150.5t-248.5 -60.5q-102 0 -155.5 48t-53.5 143q0 22 7 78h-5q-206 -269 -444 -269
q-110 0 -171.5 59.5t-61.5 158.5q0 51 20 149l90 387q17 73 17 92q0 38 -25.5 44.5t-71.5 -23.5l-18 -13l-23 29q228 246 467 246q93 0 148 -53.5t55 -149.5q0 -56 -33 -205zM776 1184q-117 0 -186 84t-62 243l15 9q34 -67 93.5 -94t151.5 -27q97 0 161.5 27t129.5 94l15 -9
q-42 -168 -120.5 -247.5t-197.5 -79.5z" />
    <glyph glyph-name="Uring" unicode="&#x16e;" horiz-adv-x="1454" 
d="M1468 1243l-153 -868q-38 -213 -173.5 -307.5t-398.5 -94.5q-380 0 -528 138.5t-96 427.5l117 661q9 48 11.5 69t3.5 43t-7 31.5t-20 18t-36 18.5l-14 6l6 33h807l-6 -33l-16 -6q-28 -10 -41 -18t-24 -16t-17.5 -31.5t-11 -42.5t-13.5 -72l-133 -754q-31 -174 29 -250.5
t204 -76.5q122 0 193.5 65t95.5 207l152 854q12 70 -4 95t-76 40l-23 6l7 33h299l-7 -33l-14 -4q-61 -17 -82 -42.5t-31 -96.5zM1010 1632q0 -57 31 -93t85 -36t85.5 36t31.5 93t-31.5 93t-85.5 36t-85 -36t-31 -93zM932 1632q0 80 58 133.5t136 53.5q79 0 137 -53.5
t58 -133.5t-58 -133t-137 -53t-136.5 53t-57.5 133z" />
    <glyph glyph-name="uring" unicode="&#x16f;" horiz-adv-x="1380" 
d="M651 696l-73 -340q-15 -73 -15 -82q0 -36 37 -36q25 0 55.5 21t51.5 56l161 764h527l-158 -755q-14 -71 -14 -105q0 -32 23.5 -38t70.5 20l24 14l23 -29q-84 -90 -206.5 -150.5t-248.5 -60.5q-102 0 -155.5 48t-53.5 143q0 22 7 78h-5q-206 -269 -444 -269
q-110 0 -171.5 59.5t-61.5 158.5q0 51 20 149l90 387q17 73 17 92q0 38 -25.5 44.5t-71.5 -23.5l-18 -13l-23 29q228 246 467 246q93 0 148 -53.5t55 -149.5q0 -56 -33 -205zM674 1360q0 -57 31.5 -93t85.5 -36t85 36t31 93t-31 93t-85 36t-85.5 -36t-31.5 -93zM596 1360
q0 80 58 133t137 53t136.5 -53t57.5 -133t-57.5 -133t-136.5 -53t-137 53t-58 133z" />
    <glyph glyph-name="Uhungarumlaut" unicode="&#x170;" horiz-adv-x="1454" 
d="M1468 1243l-153 -868q-38 -213 -173.5 -307.5t-398.5 -94.5q-380 0 -528 138.5t-96 427.5l117 661q9 48 11.5 69t3.5 43t-7 31.5t-20 18t-36 18.5l-14 6l6 33h807l-6 -33l-16 -6q-28 -10 -41 -18t-24 -16t-17.5 -31.5t-11 -42.5t-13.5 -72l-133 -754q-31 -174 29 -250.5
t204 -76.5q122 0 193.5 65t95.5 207l152 854q12 70 -4 95t-76 40l-23 6l7 33h299l-7 -33l-14 -4q-61 -17 -82 -42.5t-31 -96.5zM1219 1481l-13 14l78 240q23 64 55.5 92t79.5 28q61 0 104.5 -42t43.5 -107q0 -96 -131 -143zM877 1481l-13 14l78 240q23 64 55.5 92t79.5 28
q61 0 104.5 -42t43.5 -107q0 -96 -131 -143z" />
    <glyph glyph-name="uhungarumlaut" unicode="&#x171;" horiz-adv-x="1380" 
d="M651 696l-73 -340q-15 -73 -15 -82q0 -36 37 -36q25 0 55.5 21t51.5 56l161 764h527l-158 -755q-14 -71 -14 -105q0 -32 23.5 -38t70.5 20l24 14l23 -29q-84 -90 -206.5 -150.5t-248.5 -60.5q-102 0 -155.5 48t-53.5 143q0 22 7 78h-5q-206 -269 -444 -269
q-110 0 -171.5 59.5t-61.5 158.5q0 51 20 149l90 387q17 73 17 92q0 38 -25.5 44.5t-71.5 -23.5l-18 -13l-23 29q228 246 467 246q93 0 148 -53.5t55 -149.5q0 -56 -33 -205zM555 1174l-12 14l67 252q34 121 129 121q64 0 110 -42.5t46 -107.5q0 -95 -129 -149zM891 1174
l-12 14l67 252q34 121 129 121q64 0 110 -42.5t46 -107.5q0 -95 -129 -149z" />
    <glyph glyph-name="Uogonek" unicode="&#x172;" horiz-adv-x="1454" 
d="M823 -420q-83 0 -139.5 45t-56.5 111q0 85 70.5 146t215.5 104q-83 -13 -170 -13q-380 0 -528 138.5t-96 427.5l117 661q9 48 11.5 69t3.5 43t-7 31.5t-20 18t-36 18.5l-14 6l6 33h807l-6 -33l-16 -6q-28 -10 -41 -18t-24 -16t-17.5 -31.5t-11 -42.5t-13.5 -72l-133 -754
q-31 -174 29 -250.5t204 -76.5q122 0 193.5 65t95.5 207l152 854q12 70 -4 95t-76 40l-23 6l7 33h299l-7 -33l-14 -4q-61 -17 -82 -42.5t-31 -96.5l-153 -868q-22 -122 -73.5 -200.5t-143.5 -131.5q-42 -24 -69.5 -44.5t-58 -53t-46 -76.5t-15.5 -98q0 -43 21.5 -65.5
t56.5 -22.5q37 0 64 6l-4 -23q-36 -39 -96 -62.5t-128 -23.5z" />
    <glyph glyph-name="uogonek" unicode="&#x173;" horiz-adv-x="1380" 
d="M903 -25q-98 0 -150.5 48.5t-52.5 142.5q0 22 7 78h-5q-206 -269 -444 -269q-110 0 -171.5 59.5t-61.5 158.5q0 51 20 149l90 387q17 73 17 92q0 38 -25.5 44.5t-71.5 -23.5l-18 -13l-23 29q228 246 467 246q93 0 148 -53.5t55 -149.5q0 -56 -33 -205l-73 -340
q-15 -73 -15 -82q0 -36 37 -36q25 0 55.5 21t51.5 56l161 764h527l-158 -755q-14 -71 -14 -105q0 -32 23.5 -38t70.5 20l24 14l23 -29q-12 -13 -26 -26t-25 -22.5t-28 -21.5t-25.5 -18.5t-28.5 -19.5t-26.5 -17t-30.5 -18.5t-29 -17.5q-79 -48 -122.5 -108t-43.5 -146
q0 -43 21.5 -65.5t56.5 -22.5q36 0 63 6l-4 -23q-36 -39 -95.5 -62.5t-127.5 -23.5q-87 0 -142 43t-55 113q0 89 81.5 148.5t238.5 105.5q-96 -15 -113 -15z" />
    <glyph glyph-name="Wcircumflex" unicode="&#x174;" horiz-adv-x="2228" 
d="M2388 1419l-6 -33l-10 -4q-54 -21 -85.5 -61t-97.5 -168l-600 -1153h-368l-80 725l-373 -725h-367l-151 1114q-16 114 -26.5 165t-21 71t-30.5 30l-12 6l6 33h782l-6 -33l-24 -6q-52 -13 -66.5 -65t2.5 -195l78 -639h6l188 373l-30 297q-10 93 -21.5 137t-30 63.5
t-55.5 30.5l-14 4l6 33h872l-6 -33l-32 -10q-25 -8 -38.5 -13.5t-31 -15.5t-26 -21t-17.5 -29.5t-11.5 -42.5t-2.5 -57.5t4 -76.5l65 -635h6l305 605q72 144 72 192q0 38 -22 59t-76 39l-19 6l7 33h358zM1100 1483l-10 18l315 311h162l215 -311l-10 -18l-306 92z" />
    <glyph glyph-name="wcircumflex" unicode="&#x175;" horiz-adv-x="1820" 
d="M1354 856q3 -282 -11 -602h7q156 150 230.5 256.5t74.5 151.5q0 29 -14 52.5t-35.5 38.5t-46 34t-46 38t-35.5 51.5t-14 73.5q0 69 53.5 114.5t131.5 45.5q88 0 142 -57t54 -162q0 -83 -43 -178.5t-133 -209t-202.5 -230.5t-278.5 -273h-377q4 114 8 338
q-182 -231 -293 -338h-376q14 553 0 776q-4 77 -25 90t-68 -20l-18 -12l-23 28q120 118 226 180t227 62q107 0 156 -55t55 -172q13 -293 -4 -613h6q119 146 137 170q0 224 -6 350q-3 64 -19 79t-51 -9l-18 -12l-23 28q230 234 437 234q110 0 161.5 -60.5t53.5 -187.5z
M1063 1511h160l184 -329l-12 -17l-277 113l-334 -113l-8 17z" />
    <glyph glyph-name="Ycircumflex" unicode="&#x176;" horiz-adv-x="1482" 
d="M1640 1419l-6 -33l-10 -4q-43 -19 -81 -59t-116 -160l-348 -536l-71 -408q-15 -91 4.5 -122t107.5 -56l27 -8l-6 -33h-963l6 33l31 8q97 26 124 56t42 122l76 424l-181 555q-23 71 -38.5 105.5t-25 45t-32.5 27.5l-14 10l6 33h911l-6 -33l-33 -10q-78 -24 -111.5 -55.5
t-33.5 -77.5q0 -38 35 -131l113 -389h4l260 399q71 111 71 158q0 60 -104 94l-37 12l6 33h393zM788 1483l-10 18l316 311h161l215 -311l-10 -18l-305 92z" />
    <glyph glyph-name="ycircumflex" unicode="&#x177;" horiz-adv-x="1200" 
d="M698 907q39 -196 84 -637h4q228 256 228 377q0 30 -19 57.5t-46 50t-54.5 48t-46.5 63t-19 82.5q0 73 51 117.5t130 44.5q84 0 142 -58t58 -153q0 -67 -21 -138t-73.5 -167.5t-152.5 -224t-248 -283.5q-259 -277 -432 -392.5t-334 -115.5q-114 0 -180 52t-66 147
q0 75 48.5 122.5t125.5 47.5q51 0 89 -22.5t59 -54.5t39.5 -63.5t43.5 -54t58 -22.5q60 0 133 57q-45 509 -137 975q-12 60 -23 81.5t-29 21t-57 -24.5l-16 -11l-23 29q242 246 482 246q164 0 202 -197zM686 1511h160l184 -329l-12 -17l-277 113l-333 -113l-9 17z" />
    <glyph glyph-name="Ydieresis" unicode="&#x178;" horiz-adv-x="1482" 
d="M1640 1419l-6 -33l-10 -4q-43 -19 -81 -59t-116 -160l-348 -536l-71 -408q-15 -91 4.5 -122t107.5 -56l27 -8l-6 -33h-963l6 33l31 8q97 26 124 56t42 122l76 424l-181 555q-23 71 -38.5 105.5t-25 45t-32.5 27.5l-14 10l6 33h911l-6 -33l-33 -10q-78 -24 -111.5 -55.5
t-33.5 -77.5q0 -38 35 -131l113 -389h4l260 399q71 111 71 158q0 60 -104 94l-37 12l6 33h393zM1323 1485q-77 0 -129.5 47t-52.5 129q0 80 52.5 127t129.5 47q79 0 131.5 -46.5t52.5 -127.5q0 -82 -52.5 -129t-131.5 -47zM879 1485q-77 0 -130 47t-53 129q0 80 53 127
t130 47q79 0 131.5 -46.5t52.5 -127.5q0 -82 -52.5 -129t-131.5 -47z" />
    <glyph glyph-name="Zacute" unicode="&#x179;" horiz-adv-x="1392" 
d="M-61 0l12 72l852 1278v6h-66q-117 0 -173.5 -28t-137.5 -122q-71 -81 -276 -350h-29l115 563h1275l-14 -71l-850 -1276v-9h31q90 0 143 6t99.5 28.5t78 52t84.5 90.5q129 151 271 352h30l-143 -592h-1302zM735 1481l-8 18l234 264q64 70 135 70q68 0 111.5 -46t43.5 -116
q0 -58 -37.5 -97t-107.5 -48z" />
    <glyph glyph-name="zacute" unicode="&#x17a;" horiz-adv-x="1161" 
d="M20 -12h-12l-84 80v10q108 73 187 135l538 420q-90 5 -257.5 58.5t-223.5 53.5q-20 0 -31.5 -9.5t-11.5 -22.5q0 -10 32 -19t70.5 -18t70.5 -36t32 -69q0 -45 -32.5 -80.5t-86.5 -35.5q-78 0 -125 50t-47 134q0 74 43 158t110 152.5t157 113.5t177 45q81 0 195 -38.5
t206.5 -77t121.5 -38.5q40 0 64 27t46 96h8l78 -67v-9q-85 -56 -217 -157l-493 -381q48 -2 191 -29.5t220 -27.5q53 0 86.5 21.5t75.5 84.5l37 -16q-102 -212 -177 -324.5t-144.5 -159.5t-157.5 -47q-60 0 -135 29t-134 63.5t-126.5 63.5t-114.5 29q-36 0 -76 -46.5
t-60 -115.5zM938 1231l-365 -76l-10 19l211 282q62 80 144 80q68 0 110.5 -47.5t42.5 -116.5q0 -52 -34.5 -90t-98.5 -51z" />
    <glyph glyph-name="Zdotaccent" unicode="&#x17b;" horiz-adv-x="1392" 
d="M-61 0l12 72l852 1278v6h-66q-117 0 -173.5 -28t-137.5 -122q-71 -81 -276 -350h-29l115 563h1275l-14 -71l-850 -1276v-9h31q90 0 143 6t99.5 28.5t78 52t84.5 90.5q129 151 271 352h30l-143 -592h-1302zM930 1481q-104 0 -168 56.5t-64 150.5q0 90 64 146t168 56
q105 0 167 -56t62 -146q0 -94 -62 -150.5t-167 -56.5z" />
    <glyph glyph-name="zdotaccent" unicode="&#x17c;" horiz-adv-x="1161" 
d="M20 -12h-12l-84 80v10q108 73 187 135l538 420q-90 5 -257.5 58.5t-223.5 53.5q-20 0 -31.5 -9.5t-11.5 -22.5q0 -10 32 -19t70.5 -18t70.5 -36t32 -69q0 -45 -32.5 -80.5t-86.5 -35.5q-78 0 -125 50t-47 134q0 74 43 158t110 152.5t157 113.5t177 45q81 0 195 -38.5
t206.5 -77t121.5 -38.5q40 0 64 27t46 96h8l78 -67v-9q-85 -56 -217 -157l-493 -381q48 -2 191 -29.5t220 -27.5q53 0 86.5 21.5t75.5 84.5l37 -16q-102 -212 -177 -324.5t-144.5 -159.5t-157.5 -47q-60 0 -135 29t-134 63.5t-126.5 63.5t-114.5 29q-36 0 -76 -46.5
t-60 -115.5zM717 1145q-105 0 -168.5 58t-63.5 155q0 93 64 151t168 58q105 0 167 -58t62 -151q0 -97 -62 -155t-167 -58z" />
    <glyph glyph-name="Zcaron" unicode="&#x17d;" horiz-adv-x="1392" 
d="M-61 0l12 72l852 1278v6h-66q-117 0 -173.5 -28t-137.5 -122q-71 -81 -276 -350h-29l115 563h1275l-14 -71l-850 -1276v-9h31q90 0 143 6t99.5 28.5t78 52t84.5 90.5q129 151 271 352h30l-143 -592h-1302zM926 1729l366 92l11 -19l-316 -311h-162l-215 311l11 19z" />
    <glyph glyph-name="zcaron" unicode="&#x17e;" horiz-adv-x="1161" 
d="M20 -12h-12l-84 80v10q108 73 187 135l538 420q-90 5 -257.5 58.5t-223.5 53.5q-20 0 -31.5 -9.5t-11.5 -22.5q0 -10 32 -19t70.5 -18t70.5 -36t32 -69q0 -45 -32.5 -80.5t-86.5 -35.5q-78 0 -125 50t-47 134q0 74 43 158t110 152.5t157 113.5t177 45q81 0 195 -38.5
t206.5 -77t121.5 -38.5q40 0 64 27t46 96h8l78 -67v-9q-85 -56 -217 -157l-493 -381q48 -2 191 -29.5t220 -27.5q53 0 86.5 21.5t75.5 84.5l37 -16q-102 -212 -177 -324.5t-144.5 -159.5t-157.5 -47q-60 0 -135 29t-134 63.5t-126.5 63.5t-114.5 29q-36 0 -76 -46.5
t-60 -115.5zM788 1182h-159l-185 329l13 17l276 -113l334 113l8 -17z" />
    <glyph glyph-name="florin" unicode="&#x192;" horiz-adv-x="1169" 
d="M115 776l8 62h143l10 55q88 555 685 555q179 0 272.5 -60t93.5 -153q0 -76 -51.5 -119t-142.5 -43q-93 0 -128.5 54.5t-43.5 185.5q-3 45 -10 59t-23 14q-31 0 -43 -37.5t-37 -187.5l-55 -323h266l-8 -62h-269l-84 -514q-29 -172 -91.5 -299t-153 -204t-201 -113.5
t-244.5 -36.5q-175 0 -261.5 59t-86.5 152q0 68 45.5 105.5t114.5 37.5q96 0 134 -51t54 -172q6 -48 12.5 -61t22.5 -13q21 0 37 42.5t33 144.5l145 923h-143z" />
    <glyph glyph-name="Aringacute" unicode="&#x1fa;" horiz-adv-x="1470" 
d="M-84 0l6 33l10 4q54 22 90.5 65.5t108.5 171.5l645 1145h346l183 -1114q28 -165 40.5 -210t34.5 -56l13 -6l-7 -33h-866l6 33l41 12q50 14 75 29t39 43t11 70.5t-8 111.5l-20 145h-353l-63 -114q-84 -154 -84 -199q0 -33 24 -51t91 -41l18 -6l-6 -33h-375zM770 1651
q0 80 58 133t137 53t136.5 -53t57.5 -133t-58 -133.5t-136 -53.5q-79 0 -137 53.5t-58 133.5zM768 1864l-8 18l233 264q64 70 135 70q68 0 112 -46t44 -116q0 -58 -37.5 -97t-107.5 -48zM592 946l-244 -436h307l-57 436h-6zM848 1651q0 -57 31.5 -93t85.5 -36t85 36t31 93
t-31 93t-85 36t-85.5 -36t-31.5 -93z" />
    <glyph glyph-name="aringacute" unicode="&#x1fb;" horiz-adv-x="1349" 
d="M586 219q41 0 80 62l153 731q-10 45 -47 45q-51 0 -109.5 -127t-97.5 -301.5t-39 -309.5q0 -100 60 -100zM666 203h-7q-157 -228 -385 -228q-129 0 -201.5 85t-72.5 229q0 233 100 421.5t280 296t406 107.5q232 0 365 -108h8l199 98l24 -8q-55 -146 -98 -361l-88 -450
q-8 -46 -8 -62q0 -71 94 -20l23 12l20 -31q-221 -209 -459 -209q-96 0 -149 50t-53 137q0 23 2 41zM748 1356q0 -57 31 -93t85 -36t85.5 36t31.5 93t-31.5 93t-85.5 36t-85 -36t-31 -93zM670 1356q0 80 57.5 133t136.5 53t137 -53t58 -133t-58 -133.5t-137 -53.5
q-78 0 -136 53.5t-58 133.5zM682 1581l-8 18l233 265q63 69 135 69q68 0 112 -45.5t44 -115.5q0 -59 -37.5 -98t-107.5 -48z" />
    <glyph glyph-name="AEacute" unicode="&#x1fc;" horiz-adv-x="1910" 
d="M489 0l7 33l16 6q61 23 75.5 46.5t33.5 127.5l41 231h-351l-86 -133q-94 -140 -94 -188q0 -30 23 -50t82 -34l24 -6l-6 -33h-391l6 33l20 8q70 31 101 62t108 147l707 1071q-6 21 -25 32t-67 27l-21 6l6 33h1237l-51 -495h-29q-60 168 -118 290q-37 78 -75.5 108
t-113.5 30q-63 0 -116 -11l-101 -575h29q58 0 89.5 16.5t68.5 71.5q61 89 104 168h27l-103 -584h-26q-6 25 -16.5 78.5t-18.5 83.5q-17 60 -45.5 81t-87.5 21h-31l-86 -483q-15 -85 17 -118t118 -33q39 0 67 8t58 32t51.5 48t63.5 75q100 122 213 301h30l-114 -532h-1250z
M1143 1481l-8 18l233 264q64 70 135 70q68 0 112 -46t44 -116q0 -58 -38 -97t-108 -48zM782 1159l-428 -649h318l114 649h-4z" />
    <glyph glyph-name="aeacute" unicode="&#x1fd;" horiz-adv-x="1763" 
d="M-12 238q0 105 55 168.5t194.5 105t395.5 66.5l35 219q43 254 -39 254q-23 0 -34 -22t-22 -83q-28 -154 -91.5 -215t-176.5 -61q-90 0 -137 43.5t-47 122.5q0 118 133.5 195t333.5 77q296 0 397 -125q200 125 420 125q167 0 269 -66.5t102 -171.5q0 -133 -154 -215.5
t-479 -128.5q-4 -74 -4 -100q0 -131 46.5 -187.5t141.5 -56.5q140 0 309 146l29 -25q-246 -328 -618 -328q-138 0 -242.5 49t-155.5 144q-120 -193 -348 -193q-156 0 -234.5 74.5t-78.5 188.5zM1270 1231l-365 -76l-10 19l211 282q62 80 143 80q68 0 111 -47.5t43 -116.5
q0 -52 -34.5 -90t-98.5 -51zM1382 958q0 97 -47 97q-40 0 -79 -76.5t-66 -183.5t-41 -222q99 22 154 74q38 37 58.5 122t20.5 189zM543 154q51 0 88 55q-27 76 -27 151q0 101 17 162q-84 -31 -117 -90t-33 -184q0 -41 19 -67.5t53 -26.5z" />
    <glyph glyph-name="Oslashacute" unicode="&#x1fe;" horiz-adv-x="1609" 
d="M735 -27q-230 0 -397 101l-141 -172h-82l170 209q-222 174 -222 481q0 190 68.5 351t187.5 270t282.5 170t350.5 61q197 0 357 -80l106 131h82l-133 -162q124 -81 192 -211.5t68 -296.5q0 -190 -68.5 -351t-187.5 -270t-282.5 -170t-350.5 -61zM737 31q45 0 88.5 82
t77.5 215.5t60.5 276.5t44.5 292l-338 -416q-21 -173 -21 -272q0 -178 88 -178zM952 1389q-54 0 -108.5 -127.5t-92 -296t-65.5 -363.5l336 410q12 126 12 200q0 95 -19 136t-63 41zM758 1481l-8 18l233 264q64 70 135 70q68 0 112 -46t44 -116q0 -58 -38 -97t-108 -48z" />
    <glyph glyph-name="oslashacute" unicode="&#x1ff;" horiz-adv-x="1339" 
d="M578 -25q-186 0 -318 72l-104 -117h-76l131 146q-93 64 -143 161.5t-50 219.5q0 195 96.5 344.5t261 228t369.5 78.5q185 0 328 -70l107 119h75l-133 -147q97 -65 148 -164t51 -217q0 -198 -96 -347.5t-264 -228t-383 -78.5zM981 1231l-365 -76l-10 19l211 282
q62 80 144 80q68 0 110.5 -47.5t42.5 -116.5q0 -52 -34.5 -90t-98.5 -51zM573 31q34 0 60.5 36.5t52.5 112.5q52 173 94 447l-243 -273q-17 -143 -17 -182q0 -75 11 -108t42 -33zM653 926q-59 -169 -102 -471l242 270q16 131 16 182q0 82 -13 113t-48 31q-54 0 -95 -125z
" />
    <glyph glyph-name="Scommaaccent" unicode="&#x218;" horiz-adv-x="1226" 
d="M481 -25q-123 0 -264.5 25.5t-198.5 60.5l35 431h31q91 -196 137 -273q61 -102 124.5 -145t150.5 -43q92 0 151.5 51t59.5 129q0 73 -56.5 127t-197.5 131q-101 56 -168.5 111.5t-104 113t-51 112.5t-14.5 122q0 229 176 372.5t497 143.5q113 0 233.5 -20.5t190.5 -55.5
l-41 -399h-30q-107 206 -144 262q-58 89 -110 123.5t-125 34.5q-82 0 -129 -43t-47 -115q0 -66 56 -119.5t179 -122.5q221 -125 300 -223t79 -252q0 -239 -190.5 -389t-528.5 -150zM260 -520v20q277 43 283 201q-31 -31 -86 -31q-56 0 -88.5 33t-32.5 90t45.5 96t120.5 39
q82 0 132 -48.5t50 -131.5q0 -122 -107 -193t-317 -75z" />
    <glyph glyph-name="scommaaccent" unicode="&#x219;" horiz-adv-x="1054" 
d="M412 -25q-221 0 -332 65t-111 171q0 66 46.5 104.5t121.5 38.5q91 0 132 -48t75 -177q15 -60 40 -80t81 -20q53 0 86 34t33 84q0 14 -3.5 27t-12 25t-16.5 22t-24.5 22t-28 19.5t-35 20.5t-37 20t-43 22t-44.5 23q-144 73 -203 159.5t-59 188.5q0 183 155 297.5
t390 114.5q203 0 309 -56.5t106 -160.5q0 -63 -39.5 -98t-115.5 -35q-77 0 -125 45t-72 145q-15 62 -39 83.5t-72 21.5q-50 0 -80 -29.5t-30 -73.5q0 -50 39 -80.5t188 -106.5q37 -19 58 -30q118 -61 180.5 -149t62.5 -191q0 -123 -77 -219t-209 -147.5t-295 -51.5z
M137 -520v20q277 43 283 201q-31 -31 -86 -31q-56 0 -88.5 33t-32.5 90t45.5 96t120.5 39q82 0 132 -48.5t50 -131.5q0 -122 -107 -193t-317 -75z" />
    <glyph glyph-name="uni021A" unicode="&#x21a;" horiz-adv-x="1517" 
d="M1243 1354h-12l-199 -1135q-5 -46 -7.5 -74t11.5 -48t37.5 -31.5t69.5 -24.5l28 -8l-6 -33h-958l6 33l31 8q97 26 124 56t42 122l200 1135h-14q-40 0 -67 -11t-65 -49.5t-93 -117.5l-232 -334h-28l104 577h1411l-61 -579h-27q-73 208 -127 338q-43 104 -77 140t-91 36z
M395 -520v20q277 43 283 201q-31 -31 -86 -31q-56 0 -88.5 33t-32.5 90t45.5 96t120.5 39q82 0 132 -48.5t50 -131.5q0 -122 -107 -193t-317 -75z" />
    <glyph glyph-name="uni021B" unicode="&#x21b;" horiz-adv-x="841" 
d="M707 952l-123 -592q-15 -74 -15 -94q0 -58 41.5 -62t114.5 44l35 22l26 -32q-57 -55 -107.5 -95t-119 -82.5t-146 -65t-159.5 -22.5q-116 0 -170.5 53.5t-54.5 147.5q0 74 24 191l123 587h-121l13 37l149 92l43 168l453 135h75l-59 -301h205l-35 -131h-192zM-25 -520v20
q277 43 283 201q-31 -31 -86 -31q-56 0 -88.5 33t-32.5 90t45.5 96t120.5 39q82 0 132 -48.5t50 -131.5q0 -122 -107 -193t-317 -75z" />
    <glyph glyph-name="uni0237" unicode="&#x237;" horiz-adv-x="710" 
d="M666 717l-101 -531q-27 -142 -97 -257.5t-165.5 -190t-208.5 -114.5t-231 -40q-162 0 -247 64t-85 166q0 65 47 108t123 43q88 0 127.5 -54.5t56.5 -205.5q4 -38 10.5 -51.5t18.5 -13.5q17 0 27 34t34 166q13 70 21 113l145 786q13 67 13 88q0 35 -25.5 40t-71.5 -25
l-18 -13l-23 29q117 115 231.5 180.5t248.5 65.5q92 0 145 -50.5t53 -138.5q0 -39 -28 -198z" />
    <glyph glyph-name="circumflex" unicode="&#x2c6;" horiz-adv-x="1013" 
d="M633 1511h160l184 -329l-12 -17l-277 113l-334 -113l-8 17z" />
    <glyph glyph-name="caron" unicode="&#x2c7;" horiz-adv-x="643" 
d="M510 1182h-160l-184 329l12 17l277 -113l333 113l9 -17z" />
    <glyph glyph-name="breve" unicode="&#x2d8;" 
d="M641 1184q-117 0 -186 84t-62 243l15 9q34 -67 93.5 -94t151.5 -27q97 0 161.5 27t129.5 94l14 -9q-43 -168 -120.5 -247.5t-196.5 -79.5z" />
    <glyph glyph-name="dotaccent" unicode="&#x2d9;" 
d="M354 1145q-104 0 -167.5 58t-63.5 155q0 93 63.5 151t167.5 58q105 0 167.5 -58t62.5 -151q0 -97 -62.5 -155t-167.5 -58z" />
    <glyph glyph-name="ring" unicode="&#x2da;" 
d="M225 1360q0 -57 31.5 -93t85.5 -36t85.5 36t31.5 93t-31.5 93t-85.5 36t-85.5 -36t-31.5 -93zM147 1360q0 80 58 133t137 53t137 -53t58 -133t-58 -133t-137 -53t-137 53t-58 133z" />
    <glyph glyph-name="ogonek" unicode="&#x2db;" 
d="M164 -420q-87 0 -142 40.5t-55 115.5q0 182 344 264h41q-46 -40 -74 -102.5t-28 -126.5q0 -43 21.5 -65.5t56.5 -22.5q36 0 63 6l-4 -23q-36 -39 -95.5 -62.5t-127.5 -23.5z" />
    <glyph glyph-name="tilde" unicode="&#x2dc;" 
d="M502 1497q42 0 160 -19.5t163 -19.5q42 0 71.5 16.5t61.5 61.5l19 -10q-61 -165 -113 -237t-133 -72q-41 0 -158 18t-163 18q-42 0 -70.5 -16t-60.5 -61l-23 10q31 83 54.5 134t52.5 94.5t63 63t76 19.5z" />
    <glyph glyph-name="hungarumlaut" unicode="&#x2dd;" 
d="M221 1174l-12 14l67 252q34 121 130 121q64 0 109.5 -42.5t45.5 -107.5q0 -95 -129 -149zM557 1174l-12 14l67 252q34 121 129 121q64 0 110 -42.5t46 -107.5q0 -95 -129 -149z" />
    <glyph glyph-name="Wgrave" unicode="&#x1e80;" horiz-adv-x="2228" 
d="M2388 1419l-6 -33l-10 -4q-54 -21 -85.5 -61t-97.5 -168l-600 -1153h-368l-80 725l-373 -725h-367l-151 1114q-16 114 -26.5 165t-21 71t-30.5 30l-12 6l6 33h782l-6 -33l-24 -6q-52 -13 -66.5 -65t2.5 -195l78 -639h6l188 373l-30 297q-10 93 -21.5 137t-30 63.5
t-55.5 30.5l-14 4l6 33h872l-6 -33l-32 -10q-25 -8 -38.5 -13.5t-31 -15.5t-26 -21t-17.5 -29.5t-11.5 -42.5t-2.5 -57.5t4 -76.5l65 -635h6l305 605q72 144 72 192q0 38 -22 59t-76 39l-19 6l7 33h358zM1690 1499l-9 -18l-370 45q-70 9 -108 48t-38 97q0 70 44 116t112 46
q71 0 135 -70z" />
    <glyph glyph-name="wgrave" unicode="&#x1e81;" horiz-adv-x="1820" 
d="M1354 856q3 -282 -11 -602h7q156 150 230.5 256.5t74.5 151.5q0 29 -14 52.5t-35.5 38.5t-46 34t-46 38t-35.5 51.5t-14 73.5q0 69 53.5 114.5t131.5 45.5q88 0 142 -57t54 -162q0 -83 -43 -178.5t-133 -209t-202.5 -230.5t-278.5 -273h-377q4 114 8 338
q-182 -231 -293 -338h-376q14 553 0 776q-4 77 -25 90t-68 -20l-18 -12l-23 28q120 118 226 180t227 62q107 0 156 -55t55 -172q13 -293 -4 -613h6q119 146 137 170q0 224 -6 350q-3 64 -19 79t-51 -9l-18 -12l-23 28q230 234 437 234q110 0 161.5 -60.5t53.5 -187.5z
M1339 1174l-10 -19l-364 76q-65 13 -99.5 51t-34.5 90q0 69 43 116.5t111 47.5q81 0 143 -80z" />
    <glyph glyph-name="Wacute" unicode="&#x1e82;" horiz-adv-x="2228" 
d="M2388 1419l-6 -33l-10 -4q-54 -21 -85.5 -61t-97.5 -168l-600 -1153h-368l-80 725l-373 -725h-367l-151 1114q-16 114 -26.5 165t-21 71t-30.5 30l-12 6l6 33h782l-6 -33l-24 -6q-52 -13 -66.5 -65t2.5 -195l78 -639h6l188 373l-30 297q-10 93 -21.5 137t-30 63.5
t-55.5 30.5l-14 4l6 33h872l-6 -33l-32 -10q-25 -8 -38.5 -13.5t-31 -15.5t-26 -21t-17.5 -29.5t-11.5 -42.5t-2.5 -57.5t4 -76.5l65 -635h6l305 605q72 144 72 192q0 38 -22 59t-76 39l-19 6l7 33h358zM1227 1481l-8 18l233 264q64 70 135 70q68 0 112 -46t44 -116
q0 -58 -38 -97t-108 -48z" />
    <glyph glyph-name="wacute" unicode="&#x1e83;" horiz-adv-x="1820" 
d="M1354 856q3 -282 -11 -602h7q156 150 230.5 256.5t74.5 151.5q0 29 -14 52.5t-35.5 38.5t-46 34t-46 38t-35.5 51.5t-14 73.5q0 69 53.5 114.5t131.5 45.5q88 0 142 -57t54 -162q0 -83 -43 -178.5t-133 -209t-202.5 -230.5t-278.5 -273h-377q4 114 8 338
q-182 -231 -293 -338h-376q14 553 0 776q-4 77 -25 90t-68 -20l-18 -12l-23 28q120 118 226 180t227 62q107 0 156 -55t55 -172q13 -293 -4 -613h6q119 146 137 170q0 224 -6 350q-3 64 -19 79t-51 -9l-18 -12l-23 28q230 234 437 234q110 0 161.5 -60.5t53.5 -187.5z
M1300 1231l-364 -76l-10 19l211 282q62 80 143 80q68 0 111 -47.5t43 -116.5q0 -52 -34.5 -90t-99.5 -51z" />
    <glyph glyph-name="Wdieresis" unicode="&#x1e84;" horiz-adv-x="2228" 
d="M2388 1419l-6 -33l-10 -4q-54 -21 -85.5 -61t-97.5 -168l-600 -1153h-368l-80 725l-373 -725h-367l-151 1114q-16 114 -26.5 165t-21 71t-30.5 30l-12 6l6 33h782l-6 -33l-24 -6q-52 -13 -66.5 -65t2.5 -195l78 -639h6l188 373l-30 297q-10 93 -21.5 137t-30 63.5
t-55.5 30.5l-14 4l6 33h872l-6 -33l-32 -10q-25 -8 -38.5 -13.5t-31 -15.5t-26 -21t-17.5 -29.5t-11.5 -42.5t-2.5 -57.5t4 -76.5l65 -635h6l305 605q72 144 72 192q0 38 -22 59t-76 39l-19 6l7 33h358zM1217 1485q-77 0 -130 47t-53 129q0 80 53 127t130 47
q79 0 131.5 -46.5t52.5 -127.5q0 -82 -52.5 -129t-131.5 -47zM1661 1485q-77 0 -129.5 47t-52.5 129q0 80 52.5 127t129.5 47q79 0 131.5 -46.5t52.5 -127.5q0 -82 -52.5 -129t-131.5 -47z" />
    <glyph glyph-name="wdieresis" unicode="&#x1e85;" horiz-adv-x="1820" 
d="M1354 856q3 -282 -11 -602h7q156 150 230.5 256.5t74.5 151.5q0 29 -14 52.5t-35.5 38.5t-46 34t-46 38t-35.5 51.5t-14 73.5q0 69 53.5 114.5t131.5 45.5q88 0 142 -57t54 -162q0 -83 -43 -178.5t-133 -209t-202.5 -230.5t-278.5 -273h-377q4 114 8 338
q-182 -231 -293 -338h-376q14 553 0 776q-4 77 -25 90t-68 -20l-18 -12l-23 28q120 118 226 180t227 62q107 0 156 -55t55 -172q13 -293 -4 -613h6q119 146 137 170q0 224 -6 350q-3 64 -19 79t-51 -9l-18 -12l-23 28q230 234 437 234q110 0 161.5 -60.5t53.5 -187.5z
M874 1174q-80 0 -135 49t-55 133t55 133t135 49q83 0 137 -48.5t54 -133.5t-54 -133.5t-137 -48.5zM1319 1174q-80 0 -134.5 48.5t-54.5 133.5t54.5 133.5t134.5 48.5q83 0 137.5 -48.5t54.5 -133.5t-54.5 -133.5t-137.5 -48.5z" />
    <glyph glyph-name="Ygrave" unicode="&#x1ef2;" horiz-adv-x="1482" 
d="M1640 1419l-6 -33l-10 -4q-43 -19 -81 -59t-116 -160l-348 -536l-71 -408q-15 -91 4.5 -122t107.5 -56l27 -8l-6 -33h-963l6 33l31 8q97 26 124 56t42 122l76 424l-181 555q-23 71 -38.5 105.5t-25 45t-32.5 27.5l-14 10l6 33h911l-6 -33l-33 -10q-78 -24 -111.5 -55.5
t-33.5 -77.5q0 -38 35 -131l113 -389h4l260 399q71 111 71 158q0 60 -104 94l-37 12l6 33h393zM1352 1499l-9 -18l-370 45q-70 9 -108 48t-38 97q0 70 44 116t112 46q71 0 135 -70z" />
    <glyph glyph-name="ygrave" unicode="&#x1ef3;" horiz-adv-x="1200" 
d="M698 907q39 -196 84 -637h4q228 256 228 377q0 30 -19 57.5t-46 50t-54.5 48t-46.5 63t-19 82.5q0 73 51 117.5t130 44.5q84 0 142 -58t58 -153q0 -67 -21 -138t-73.5 -167.5t-152.5 -224t-248 -283.5q-259 -277 -432 -392.5t-334 -115.5q-114 0 -180 52t-66 147
q0 75 48.5 122.5t125.5 47.5q51 0 89 -22.5t59 -54.5t39.5 -63.5t43.5 -54t58 -22.5q60 0 133 57q-45 509 -137 975q-12 60 -23 81.5t-29 21t-57 -24.5l-16 -11l-23 29q242 246 482 246q164 0 202 -197zM961 1174l-11 -19l-364 76q-64 13 -98.5 51t-34.5 90q0 69 42.5 116.5
t110.5 47.5q82 0 144 -80z" />
    <glyph glyph-name="uni2009" unicode="&#x2009;" horiz-adv-x="147" 
 />
    <glyph glyph-name="endash" unicode="&#x2013;" horiz-adv-x="1193" 
d="M104 565l21 68h989l-18 -68h-992z" />
    <glyph glyph-name="emdash" unicode="&#x2014;" horiz-adv-x="1943" 
d="M104 565l21 68h1739l-19 -68h-1741z" />
    <glyph glyph-name="quoteleft" unicode="&#x2018;" horiz-adv-x="446" 
d="M565 1430l4 -23q-271 -59 -307 -262q41 47 107 47q50 0 91.5 -35t41.5 -100q0 -76 -52 -125t-137 -49q-94 0 -148 57.5t-54 151.5q0 132 122 230.5t332 107.5z" />
    <glyph glyph-name="quoteright" unicode="&#x2019;" horiz-adv-x="446" 
d="M98 887l-4 22q271 59 307 262q-41 -47 -106 -47q-49 0 -91 35.5t-42 100.5q0 76 51.5 125t136.5 49q94 0 148.5 -57.5t54.5 -151.5q0 -132 -122.5 -230.5t-332.5 -107.5z" />
    <glyph glyph-name="quotesinglbase" unicode="&#x201a;" horiz-adv-x="446" 
d="M-68 -164l-4 23q272 60 308 262q-41 -47 -107 -47q-50 0 -91.5 35t-41.5 100q0 76 51.5 125t136.5 49q94 0 148.5 -57.5t54.5 -151.5q0 -132 -122.5 -230.5t-332.5 -107.5z" />
    <glyph glyph-name="quotedblleft" unicode="&#x201c;" horiz-adv-x="892" 
d="M1012 1430l4 -23q-271 -59 -307 -262q41 47 106 47q50 0 91.5 -35t41.5 -100q0 -76 -51.5 -125t-136.5 -49q-94 0 -148.5 57.5t-54.5 151.5q0 132 122.5 230.5t332.5 107.5zM565 1430l4 -23q-271 -59 -307 -262q41 47 107 47q50 0 91.5 -35t41.5 -100q0 -76 -52 -125
t-137 -49q-94 0 -148 57.5t-54 151.5q0 132 122 230.5t332 107.5z" />
    <glyph glyph-name="quotedblright" unicode="&#x201d;" horiz-adv-x="892" 
d="M545 887l-4 22q271 59 307 262q-41 -47 -107 -47q-49 0 -91 35.5t-42 100.5q0 76 52 125t137 49q94 0 148 -57.5t54 -151.5q0 -132 -122 -230.5t-332 -107.5zM98 887l-4 22q271 59 307 262q-41 -47 -106 -47q-49 0 -91 35.5t-42 100.5q0 76 51.5 125t136.5 49
q94 0 148.5 -57.5t54.5 -151.5q0 -132 -122.5 -230.5t-332.5 -107.5z" />
    <glyph glyph-name="quotedblbase" unicode="&#x201e;" horiz-adv-x="913" 
d="M379 -164l-4 23q271 59 307 262q-41 -47 -107 -47q-50 0 -91.5 35t-41.5 100q0 76 52 125t137 49q94 0 148.5 -57.5t54.5 -151.5q0 -132 -122.5 -230.5t-332.5 -107.5zM-68 -164l-4 23q272 60 308 262q-41 -47 -107 -47q-50 0 -91.5 35t-41.5 100q0 76 51.5 125t136.5 49
q94 0 148.5 -57.5t54.5 -151.5q0 -132 -122.5 -230.5t-332.5 -107.5z" />
    <glyph glyph-name="dagger" unicode="&#x2020;" horiz-adv-x="872" 
d="M512 981q-4 -57 36.5 -123.5t108.5 -118.5l-340 -876h-16l-43 907q83 41 146.5 100t74.5 115q-27 -7 -75 -37.5t-99 -56t-96 -25.5q-65 0 -101 40t-36 100q0 75 41 122.5t112 47.5q43 0 83 -21.5t64.5 -48t56 -54t56.5 -36.5q-4 47 -59 138.5t-55 137.5q0 69 46.5 107.5
t129.5 38.5q78 0 126 -37.5t48 -97.5q0 -34 -16.5 -66t-42 -58.5t-52.5 -51t-53 -55t-39 -60.5q29 6 75.5 36.5t96.5 56t94 25.5q69 0 106.5 -37t37.5 -100q0 -78 -42 -125t-116 -47q-41 0 -80 21t-65 47.5t-57.5 54.5t-55.5 37z" />
    <glyph glyph-name="daggerdbl" unicode="&#x2021;" horiz-adv-x="872" 
d="M356 270q6 104 -155 201l225 166h16l158 -191q-82 -30 -141.5 -79.5t-69.5 -100.5q27 7 75 37.5t99 56t96 25.5q65 0 101.5 -39.5t36.5 -99.5q0 -75 -41.5 -122.5t-112.5 -47.5q-43 0 -83 21.5t-64.5 48t-56 54t-56.5 36.5q3 -29 33 -73.5t58 -91t28 -83.5q0 -61 -47 -97
t-129 -36q-78 0 -126 38t-48 99q0 36 25 71.5t56 60t66.5 57t50.5 59.5q-29 -6 -75.5 -36.5t-96.5 -56.5t-94 -26q-69 0 -106 37t-37 100q0 77 43 124.5t114 47.5q41 0 80 -21t65 -47.5t57.5 -54.5t55.5 -37zM514 1022q-6 -103 156 -201l-226 -166h-16l-158 191
q82 30 141.5 79.5t69.5 100.5q-27 -7 -75 -37.5t-99 -56t-96 -25.5q-65 0 -101 40t-36 100q0 75 41 122.5t112 47.5q43 0 83 -21.5t64.5 -48t56 -54t56.5 -36.5q-3 29 -33 73.5t-57.5 91t-27.5 83.5q0 61 47 97t129 36q78 0 126 -38t48 -100q0 -36 -25 -71.5t-56.5 -59.5
t-67 -56.5t-50.5 -59.5q29 6 75.5 36.5t96.5 56t94 25.5q69 0 106.5 -37t37.5 -100q0 -77 -43 -124.5t-115 -47.5q-41 0 -80 21t-65 47.5t-57.5 54.5t-55.5 37z" />
    <glyph glyph-name="bullet" unicode="&#x2022;" horiz-adv-x="614" 
d="M55 688q0 112 77.5 188t197.5 76t197 -76t77 -188t-77 -188t-197 -76t-197.5 76t-77.5 188z" />
    <glyph glyph-name="ellipsis" unicode="&#x2026;" horiz-adv-x="1556" 
d="M8 188q0 87 60 146t153 59t153 -59t60 -146t-60 -145.5t-153 -58.5t-153 58.5t-60 145.5zM528 188q0 87 60 146t153 59t153 -59t60 -146t-60 -145.5t-153 -58.5t-153 58.5t-60 145.5zM1049 188q0 87 60 146t153 59t153 -59t60 -146t-60 -145.5t-153 -58.5t-153 58.5
t-60 145.5z" />
    <glyph glyph-name="perthousand" unicode="&#x2030;" horiz-adv-x="2340" 
d="M1993 551q0 39 -9 56.5t-30 17.5q-25 0 -47 -45q-34 -76 -60 -232.5t-26 -236.5q0 -72 39 -72q21 0 34.5 18.5t26.5 59.5q27 98 49.5 234t22.5 200zM1860 -23q-147 0 -245.5 83.5t-98.5 222.5q0 177 126 289t316 112q152 0 248 -82t96 -221q0 -178 -126 -291t-316 -113z
M580 1311q0 39 -9 56t-30 17q-25 0 -47 -45q-34 -76 -60 -232.5t-26 -236.5q0 -38 9 -54.5t29 -16.5q38 0 62 78q27 98 49.5 234t22.5 200zM446 737q-147 0 -245.5 83t-98.5 222q0 177 126.5 289.5t316.5 112.5q152 0 248 -82t96 -221q0 -178 -126.5 -291t-316.5 -113z
M1038 -23q-147 0 -245.5 83.5t-98.5 222.5q0 176 126.5 288.5t316.5 112.5q152 0 248 -82t96 -221q0 -178 -126.5 -291t-316.5 -113zM1171 551q0 39 -8.5 56.5t-29.5 17.5q-26 0 -48 -45q-34 -76 -60 -232.5t-26 -236.5q0 -72 39 -72q38 0 62 78q27 98 49 233.5t22 200.5z
M74 -102l1304 1564h78l-1304 -1564h-78z" />
    <glyph glyph-name="uni2032" unicode="&#x2032;" horiz-adv-x="444" 
d="M174 811l-4 414q-2 120 46 174.5t159 54.5q64 0 109.5 -28.5t63 -73.5t0.5 -107.5t-71 -124.5l-272 -313z" />
    <glyph glyph-name="uni2033" unicode="&#x2033;" horiz-adv-x="866" 
d="M596 811l-4 414q-2 120 46 174.5t159 54.5q64 0 109.5 -28.5t63 -73.5t0.5 -107.5t-71 -124.5l-272 -313zM174 811l-4 414q-2 120 46 174.5t159 54.5q64 0 109.5 -28.5t63 -73.5t0.5 -107.5t-71 -124.5l-272 -313z" />
    <glyph glyph-name="guilsinglleft" unicode="&#x2039;" horiz-adv-x="497" 
d="M344 133l-324 389v10l441 369h24l-209 -387l93 -381h-25z" />
    <glyph glyph-name="guilsinglright" unicode="&#x203a;" horiz-adv-x="493" 
d="M135 901l320 -389v-10l-437 -369h-24l209 387l-92 381h24z" />
    <glyph glyph-name="fraction" unicode="&#x2044;" horiz-adv-x="718" 
d="M-377 -102l1401 1564h82l-1401 -1564h-82z" />
    <glyph glyph-name="Euro" unicode="&#x20ac;" horiz-adv-x="1390" 
d="M999 1384q-57 0 -107 -73.5t-84.5 -196t-53.5 -278.5h358l-12 -62h-352q-10 -106 -11 -131h338l-10 -61h-330v-62q0 -182 76 -257t227 -75q163 0 275 80l-8 -43q-41 -51 -86 -90t-115.5 -78.5t-171.5 -61.5t-225 -22q-282 0 -432 151t-150 417v41h-109l11 61h102
q5 52 23 131h-101l12 62h105q88 280 325 444t554 164q207 0 323.5 -79t116.5 -202q0 -74 -47 -118t-137 -44q-78 0 -123.5 24t-75 91.5t-41.5 192.5q-4 44 -18 59.5t-46 15.5z" />
    <glyph glyph-name="trademark" unicode="&#x2122;" horiz-adv-x="1488" 
d="M588 1378l-72 -407q-8 -46 -3 -60t32 -20l35 -8l-5 -27h-413l4 27l37 8q32 8 42 20.5t17 59.5l72 407h-12q-40 0 -68 -41q-54 -75 -96 -153h-19l49 235h555l-32 -235h-17q-15 71 -45 153q-18 41 -47 41h-14zM768 969l59 336q7 51 3 62t-27 17l-27 9l4 26h344l31 -256h2
l127 256h361l-5 -26l-36 -9q-28 -6 -37.5 -18.5t-18.5 -60.5l-59 -336q-9 -50 -5 -62t29 -18l33 -8l-4 -27h-407l4 27l37 8q25 6 32.5 18.5t16.5 61.5l65 364h-2l-239 -477h-99l-71 477h-2l-66 -364q-8 -49 -4.5 -61.5t29.5 -18.5l32 -8l-4 -27h-186l4 27l33 8
q27 6 35.5 18.5t17.5 61.5z" />
    <glyph glyph-name="onethird" unicode="&#x2153;" horiz-adv-x="1789" 
d="M37 604l6 33l33 8q48 12 60.5 29t23.5 82l76 438l-93 45l7 29q163 16 303.5 57.5t216.5 104.5l49 -19l-117 -655q-4 -27 -5 -43t0.5 -27.5t10.5 -18t18.5 -11t30.5 -11.5l25 -8l-6 -33h-639zM113 -102l1400 1564h82l-1400 -1564h-82zM1376 829q172 0 266.5 -49.5
t94.5 -140.5q0 -86 -65.5 -129t-207.5 -64v-6q133 -10 197.5 -58t64.5 -136q0 -123 -119.5 -192.5t-346.5 -69.5q-324 0 -324 172q0 53 33 83.5t92 30.5q70 0 103 -35.5t42 -132.5q3 -39 8.5 -52t24.5 -13q40 0 66 60t26 182q0 68 -28.5 94t-94.5 26h-59l10 60h53
q88 0 129 57t41 191q0 69 -45 69q-13 0 -19.5 -11.5t-12.5 -45.5q-14 -89 -47.5 -120.5t-100.5 -31.5q-56 0 -88.5 24t-32.5 68q0 49 32 84.5t85.5 53t108 25t114.5 7.5z" />
    <glyph glyph-name="twothirds" unicode="&#x2154;" horiz-adv-x="1892" 
d="M483 1380q-29 0 -37 -67q-12 -95 -50.5 -140t-114.5 -45q-66 0 -102 33t-36 86q0 80 97 133.5t270 53.5q181 0 281 -59.5t100 -166.5q0 -131 -149 -218.5t-478 -133.5v-6h432q36 0 59 19.5t64 84.5h37l-76 -350h-739l33 180q156 99 243 177q103 93 152 181.5t49 184.5
q0 53 -35 53zM229 -102l1401 1564h82l-1401 -1564h-82zM1479 829q172 0 266 -49.5t94 -140.5q0 -86 -65 -129t-207 -64v-6q133 -10 197.5 -58t64.5 -136q0 -122 -120 -192t-347 -70q-324 0 -324 172q0 53 33 83.5t92 30.5q70 0 103.5 -36t42.5 -132q3 -40 8 -52.5t24 -12.5
q40 0 66.5 60.5t26.5 181.5q0 68 -28.5 94t-94.5 26h-60l11 60h53q88 0 129 57t41 191q0 69 -45 69q-14 0 -20.5 -11.5t-12.5 -45.5q-14 -89 -47 -120.5t-100 -31.5q-56 0 -88.5 24t-32.5 68q0 49 32 84.5t85.5 53t108 25t114.5 7.5z" />
    <glyph glyph-name="oneeighth" unicode="&#x215b;" horiz-adv-x="1785" 
d="M1268 -16q-192 0 -288.5 48.5t-96.5 121.5q0 119 229 141v2q-154 67 -154 221q0 98 63.5 170.5t160 106.5t209.5 34q173 0 266.5 -48t93.5 -117q0 -114 -203 -134v-4q95 -39 142 -96t47 -141q0 -137 -125 -221t-344 -84zM37 604l6 33l33 8q48 12 60.5 29t23.5 82l76 438
l-93 45l7 29q163 16 303.5 57.5t216.5 104.5l49 -19l-117 -655q-4 -27 -5 -43t0.5 -27.5t10.5 -18t18.5 -11t30.5 -11.5l25 -8l-6 -33h-639zM125 -102l1401 1564h82l-1401 -1564h-82zM1438 123q0 45 -45 70t-192 74l-42 14q-30 -30 -42.5 -56t-12.5 -67q0 -58 50.5 -90.5
t135.5 -32.5q70 0 109 25t39 63zM1241 692q0 -12 3 -21.5t10.5 -18.5t15 -16t23 -15t27 -13.5t35 -13.5t38.5 -13.5t45 -15.5t49 -16q39 53 39 104q0 60 -40 92.5t-118 32.5q-59 0 -93 -22t-34 -64z" />
    <glyph glyph-name="threeeighths" unicode="&#x215c;" horiz-adv-x="1853" 
d="M1335 -16q-192 0 -288.5 48.5t-96.5 121.5q0 119 230 141v2q-154 67 -154 221q0 98 63 170.5t159.5 106.5t209.5 34q174 0 267.5 -48t93.5 -117q0 -114 -203 -134v-4q95 -39 141.5 -96t46.5 -141q0 -137 -125 -221t-344 -84zM481 1434q172 0 266.5 -50t94.5 -141
q0 -86 -65.5 -128.5t-207.5 -63.5v-7q133 -10 197.5 -58t64.5 -136q0 -123 -119.5 -192.5t-346.5 -69.5q-324 0 -324 172q0 53 33 83.5t92 30.5q70 0 103 -35.5t42 -131.5q3 -40 8.5 -53t24.5 -13q40 0 66 60t26 182q0 68 -29 94.5t-94 26.5h-59l10 59h53q88 0 129 57
t41 191q0 69 -45 69q-13 0 -19.5 -11.5t-12.5 -45.5q-14 -89 -47.5 -120.5t-100.5 -31.5q-56 0 -88.5 24.5t-32.5 68.5q0 49 32 84.5t85.5 53t108 25t114.5 7.5zM174 -102l1401 1564h82l-1401 -1564h-82zM1505 123q0 46 -45.5 71t-192.5 74l-13.5 4.5t-12.5 4t-14 4.5
q-30 -30 -43 -56.5t-13 -66.5q0 -58 51 -90.5t136 -32.5q70 0 108.5 25t38.5 63zM1309 692q0 -12 3 -21.5t10.5 -18.5t15 -16t23 -15t26.5 -13.5t34.5 -13.5t38 -13t45.5 -15.5t49 -16.5q39 53 39 104q0 60 -39.5 92.5t-117.5 32.5q-59 0 -93 -22t-34 -64z" />
    <glyph glyph-name="fiveeighths" unicode="&#x215d;" horiz-adv-x="1796" 
d="M1278 -16q-192 0 -288.5 48.5t-96.5 121.5q0 119 229 141v2q-153 66 -153 221q0 98 63 170.5t159.5 106.5t209.5 34q173 0 266.5 -48t93.5 -117q0 -114 -202 -134v-4q95 -39 141.5 -96t46.5 -141q0 -137 -125 -221t-344 -84zM305 588q-117 0 -186.5 41t-69.5 114
q0 101 125 101q64 0 95 -31.5t48 -122.5q5 -27 13.5 -38t27.5 -11q42 0 64 37.5t22 97.5q0 57 -42.5 88t-125.5 31q-84 0 -143 -25l-18 17l145 532h414q62 0 86 13t59 61h33l-78 -313h-516l-25 -84q101 22 205 22q173 0 274 -60.5t101 -183.5q0 -46 -14 -85.5t-50 -77.5
t-92.5 -64.5t-146 -42.5t-205.5 -16zM121 -102l1401 1564h82l-1401 -1564h-82zM1448 123q0 45 -45 70t-192 74l-42 14q-30 -30 -42.5 -56t-12.5 -67q0 -58 50.5 -90.5t135.5 -32.5q70 0 109 25t39 63zM1251 692q0 -12 3 -21.5t10.5 -18.5t15 -16t23 -15t27 -13.5t35 -13.5
t38.5 -13.5t45 -15.5t49 -16q39 53 39 104q0 60 -40 92.5t-118 32.5q-59 0 -93 -22t-34 -64z" />
    <glyph glyph-name="seveneighths" unicode="&#x215e;" horiz-adv-x="1751" 
d="M1233 -16q-192 0 -288.5 48.5t-96.5 121.5q0 119 229 141v2q-153 66 -153 221q0 98 63 170.5t159.5 106.5t209.5 34q173 0 266.5 -48t93.5 -117q0 -114 -203 -134v-4q95 -39 142 -96t47 -141q0 -137 -125 -221t-344 -84zM117 604q46 166 211.5 309.5t402.5 235.5h-416
q-68 0 -97 -21t-77 -102h-32l79 393h695l-35 -198q-138 -123 -202 -274.5t-79 -342.5h-450zM66 -102l1400 1564h82l-1401 -1564h-81zM1403 123q0 45 -45 70t-192 74l-42 14q-30 -30 -42.5 -56t-12.5 -67q0 -58 50.5 -90.5t135.5 -32.5q70 0 109 25t39 63zM1206 692
q0 -12 3 -21.5t10.5 -18.5t15 -16t23 -15t27 -13.5t35 -13.5t38.5 -13.5t45 -15.5t49 -16q39 53 39 104q0 60 -40 92.5t-118 32.5q-59 0 -93 -22t-34 -64z" />
    <glyph glyph-name="arrowleft" unicode="&#x2190;" horiz-adv-x="1675" 
d="M1427 512l-694 33l164 -135q101 -84 85 -190q-13 -82 -84 -131q-81 -55 -170 -24q-46 16 -85 54l-586 588v8l588 590q85 83 188 58q80 -20 123 -92q52 -85 10 -174q-23 -46 -69 -85l-164 -135l694 32q129 6 182.5 -96.5t0 -204.5t-182.5 -96z" />
    <glyph glyph-name="arrowright" unicode="&#x2192;" horiz-adv-x="1675" 
d="M954 545l-694 -33q-129 -6 -182.5 96t0 204.5t182.5 96.5l694 -32l-163 135q-101 83 -85 189q12 81 82 131q79 56 168 27q46 -15 86 -54l588 -590v-8l-586 -588q-86 -84 -190 -59q-79 20 -123 91q-51 84 -10 172q22 48 70 87z" />
    <glyph glyph-name="minus" unicode="&#x2212;" horiz-adv-x="993" 
d="M117 674v67h813v-67h-813z" />
    <glyph glyph-name="uni24C5" unicode="&#x24c5;" horiz-adv-x="1601" 
d="M154 705q0 -138 51.5 -262t141 -214.5t217.5 -144t274 -53.5q195 0 351.5 91t242.5 244.5t86 338.5q0 138 -50.5 262t-139 215t-216.5 144.5t-274 53.5t-274 -53.5t-217.5 -144.5t-141 -215t-51.5 -262zM1587 705q0 -151 -56.5 -286.5t-154 -234t-238 -156t-300.5 -57.5
t-300.5 57.5t-239.5 156t-156.5 234t-57.5 286.5t57.5 286.5t156.5 234t239.5 156.5t300.5 58q214 0 386 -98.5t267.5 -266.5t95.5 -370zM938 309h-504v33l21 6q37 11 45 24.5t8 71.5v549q0 58 -8 72t-45 25l-21 6v32h451q221 0 318 -64.5t97 -195.5q0 -114 -77.5 -184
t-218.5 -70q-80 0 -132 17v28q35 5 52 20t27 57t10 124q0 119 -18.5 166t-65.5 47q-21 0 -39 -6v-623q0 -55 9.5 -67t67.5 -29l23 -6v-33z" />
    <glyph glyph-name="square" unicode="&#x25a0;" horiz-adv-x="1896" 
d="M264 0v1419h1422v-1419h-1422z" />
    <glyph glyph-name="squareopen" unicode="&#x25a1;" horiz-adv-x="1896" 
d="M264 0v1419h1422v-1419h-1422zM358 90h1233v1243h-1233v-1243z" />
    <glyph glyph-name="triangleup" unicode="&#x25b2;" horiz-adv-x="1697" 
d="M1491 0h-1495v29l727 1454h41l727 -1454v-29z" />
    <glyph glyph-name="triangleupopen" unicode="&#x25b3;" horiz-adv-x="1636" 
d="M1458 0h-1495v29l737 1454h21l737 -1454v-29zM1327 86l-618 1223l-615 -1223h1233z" />
    <glyph glyph-name="triangleright" unicode="&#x25b6;" horiz-adv-x="1761" 
d="M281 -37v1493h28l1393 -735v-21l-1393 -737h-28z" />
    <glyph glyph-name="trianglerightopen" unicode="&#x25b7;" horiz-adv-x="1761" 
d="M281 -37v1493h28l1393 -735v-21l-1393 -737h-28zM375 92l1165 619l-1165 618v-1237z" />
    <glyph glyph-name="triangledown" unicode="&#x25bc;" horiz-adv-x="1697" 
d="M168 1419h1493v-28l-725 -1454h-41l-727 1454v28z" />
    <glyph glyph-name="triangledownopen" unicode="&#x25bd;" horiz-adv-x="1636" 
d="M137 1419h1493v-28l-735 -1454h-21l-737 1454v28zM268 1333l619 -1222l614 1222h-1233z" />
    <glyph glyph-name="triangleleft" unicode="&#x25c0;" horiz-adv-x="1761" 
d="M1524 1456v-1493h-29l-1393 737v21l1393 735h29z" />
    <glyph glyph-name="triangleleftopen" unicode="&#x25c1;" horiz-adv-x="1761" 
d="M1524 1456v-1493h-29l-1393 737v21l1393 735h29zM264 711l1166 -619v1237z" />
    <glyph glyph-name="circle" unicode="&#x25cb;" horiz-adv-x="1650" 
d="M846 -31q-151 0 -288 59t-236 158.5t-157.5 237t-58.5 287.5q0 202 99 372t269 268.5t372 98.5q201 0 372 -98.5t271 -269t100 -371.5q0 -150 -59 -287.5t-159 -237t-237.5 -158.5t-287.5 -59z" />
    <glyph glyph-name="circleopen" unicode="&#x25cf;" horiz-adv-x="1650" 
d="M846 -31q-151 0 -288 59t-236 158.5t-157.5 237t-58.5 287.5q0 202 99 372t269 268.5t372 98.5q201 0 372 -98.5t271 -269t100 -371.5q0 -150 -59 -287.5t-159 -237t-237.5 -158.5t-287.5 -59zM846 55q176 0 325 89t235.5 240t86.5 327q0 177 -86.5 327.5t-235.5 238
t-325 87.5q-133 0 -252.5 -51.5t-205 -139.5t-135.5 -208.5t-50 -253.5q0 -177 84.5 -327.5t233 -239.5t325.5 -89z" />
    <glyph glyph-name="star" unicode="&#x2605;" horiz-adv-x="1703" 
d="M369 -70l-15 9l197 596l-500 356v16h623l192 596h17l194 -596h621v-16l-498 -356l195 -592l-15 -9l-506 361z" />
    <glyph glyph-name="staropen" unicode="&#x2606;" horiz-adv-x="1703" 
d="M369 -70l-15 9l197 596l-500 356v16h623l192 596h17l194 -596h621v-16l-498 -356l195 -592l-15 -9l-506 361zM492 111l385 286l380 -286l-155 454l389 266h-469l-148 453l-147 -453h-467l387 -266z" />
    <glyph glyph-name="space_uni0326" horiz-adv-x="997" 
d="M236 -520v20q276 42 282 201q-31 -31 -86 -31q-56 0 -88.5 33t-32.5 90t45.5 96t120.5 39q82 0 132 -48.5t50 -131.5q0 -122 -106.5 -193t-316.5 -75z" />
    <glyph glyph-name="caron.alt" horiz-adv-x="997" 
d="M391 1126l-18 11l69 307q23 110 127 110q53 0 93 -34t40 -86q0 -66 -90 -138z" />
    <glyph glyph-name="space_uni0326.alt" horiz-adv-x="997" 
d="M770 1585v-20q-277 -43 -283 -201q31 31 86 31q56 0 88.5 -33t32.5 -90t-45.5 -96t-120.5 -39q-82 0 -132 48.5t-50 131.5q0 122 107 193t317 75z" />
    <glyph glyph-name="acute.pl" 
d="M504 1145l-17 12l70 291q36 145 158 145q61 0 108 -42.5t47 -104.5q0 -54 -25.5 -89.5t-90.5 -72.5z" />
    <glyph glyph-name="grave.uc" 
d="M928 1499l-8 -18l-371 45q-70 9 -108 48t-38 97q0 70 44 116t112 46q71 0 135 -70z" />
    <glyph glyph-name="dieresis.uc" 
d="M915 1485q-77 0 -129.5 47t-52.5 129q0 80 52.5 127t129.5 47q79 0 132 -46.5t53 -127.5q0 -82 -52.5 -129t-132.5 -47zM471 1485q-77 0 -129.5 47t-52.5 129q0 80 52.5 127t129.5 47q79 0 131.5 -46.5t52.5 -127.5q0 -82 -52.5 -129t-131.5 -47z" />
    <glyph glyph-name="macron.uc" 
d="M375 1552l24 142h627l-25 -142h-626z" />
    <glyph glyph-name="acute.uc" 
d="M406 1481l-9 18l234 264q64 70 135 70q68 0 112 -46t44 -116q0 -58 -38 -97t-108 -48z" />
    <glyph glyph-name="circumflex.uc" horiz-adv-x="1013" 
d="M344 1483l-10 18l315 311h162l215 -311l-10 -18l-305 92z" />
    <glyph glyph-name="caron.uc" horiz-adv-x="643" 
d="M498 1729l366 92l10 -19l-315 -311h-162l-215 311l11 19z" />
    <glyph glyph-name="breve.uc" 
d="M694 1485q-128 0 -201.5 84t-66.5 243l14 9q34 -68 98 -94.5t171 -26.5q101 0 173 28t136 93l14 -9q-42 -167 -125.5 -247t-212.5 -80z" />
    <glyph glyph-name="dotaccent.uc" 
d="M416 1481q-104 0 -168 56.5t-64 150.5q0 90 64 146t168 56q105 0 167 -56t62 -146q0 -94 -62 -150.5t-167 -56.5z" />
    <glyph glyph-name="ring.uc" 
d="M373 1655q0 -57 31 -93t85 -36t85.5 36t31.5 93t-31.5 93t-85.5 36t-85 -36t-31 -93zM295 1655q0 80 57.5 133t136.5 53t137 -53t58 -133t-58 -133.5t-137 -53.5q-78 0 -136 53.5t-58 133.5z" />
    <glyph glyph-name="tilde.uc" 
d="M627 1796q43 0 163 -19.5t166 -19.5q43 0 74 16.5t62 61.5l20 -10q-25 -60 -37 -88t-32.5 -71t-35.5 -62.5t-36.5 -41.5t-45 -30t-51.5 -8q-41 0 -162 18.5t-167 18.5q-41 0 -69.5 -16t-61.5 -62l-23 10q20 51 30.5 76t28 64.5t29.5 58t30 43t34.5 35t38 18.5t45.5 8z
" />
    <glyph glyph-name="hungarumlaut.uc" 
d="M737 1481l-12 14l78 240q23 64 55.5 92t79.5 28q61 0 104 -42t43 -107q0 -96 -131 -143zM395 1481l-12 14l78 240q23 64 55.5 92t79.5 28q61 0 104 -42t43 -107q0 -96 -131 -143z" />
    <glyph glyph-name="acute.ucpl" 
d="M438 1481l-12 10l59 264q34 146 156 146q61 0 110.5 -48t49.5 -110q0 -92 -113 -144z" />
    <glyph glyph-name="Cacute.pl" horiz-adv-x="1423" 
d="M825 -25q-182 0 -327.5 44t-240 123.5t-144.5 188t-50 238.5q0 164 53 305t146.5 245t220 177.5t277 110.5t313.5 37q238 0 375 -55l-35 -486h-31q-78 185 -141 305q-55 106 -91.5 143.5t-88.5 37.5q-78 0 -146.5 -103t-111.5 -261t-67.5 -338.5t-24.5 -344.5
q0 -151 39.5 -231t109.5 -80q61 0 113 44t127 142q38 49 72 98.5t85 127.5t62 94h33l-109 -500q-85 -30 -200.5 -46t-217.5 -16zM1008 1481l-13 10l60 264q34 146 155 146q61 0 110.5 -48t49.5 -110q0 -92 -113 -144z" />
    <glyph glyph-name="Nacute.pl" horiz-adv-x="1390" 
d="M57 178l179 1022q7 41 10.5 60.5t4 41.5t-2 30t-11 18.5t-19 15.5t-30.5 14l-14 6l6 33h643l385 -753h9l102 577q12 70 -5 96t-77 41l-23 6l7 33h301l-6 -33l-15 -4q-60 -17 -80 -42.5t-32 -98.5l-220 -1241h-348l-526 1077h-8l-160 -901q-12 -70 5 -96t77 -41l22 -6
l-6 -33h-295l7 33l14 4q53 15 73.5 42t32.5 99zM928 1481l-13 10l60 264q34 146 155 146q61 0 110.5 -48t49.5 -110q0 -92 -112 -144z" />
    <glyph glyph-name="Oacute.pl" horiz-adv-x="1609" 
d="M735 -27q-197 0 -349 74.5t-237.5 216t-85.5 328.5q0 190 68.5 351t187.5 270t282.5 170t350.5 61q197 0 349 -74.5t237.5 -216t85.5 -328.5q0 -190 -68.5 -351t-187.5 -270t-282.5 -170t-350.5 -61zM733 31q36 0 62 33t53 106q68 190 124 538.5t56 508.5q0 97 -16 134.5
t-60 37.5q-53 0 -94 -93q-78 -174 -140.5 -543.5t-62.5 -547.5q0 -95 18.5 -134.5t59.5 -39.5zM938 1481l-12 10l59 264q34 146 156 146q61 0 110 -48t49 -110q0 -92 -112 -144z" />
    <glyph glyph-name="Sacute.pl" horiz-adv-x="1226" 
d="M481 -25q-123 0 -264.5 25.5t-198.5 60.5l35 431h31q91 -196 137 -273q61 -102 124.5 -145t150.5 -43q92 0 151.5 51t59.5 129q0 73 -56.5 127t-197.5 131q-101 56 -168.5 111.5t-104 113t-51 112.5t-14.5 122q0 229 176 372.5t497 143.5q113 0 233.5 -20.5t190.5 -55.5
l-41 -399h-30q-107 206 -144 262q-58 89 -110 123.5t-125 34.5q-82 0 -129 -43t-47 -115q0 -66 56 -119.5t179 -122.5q221 -125 300 -223t79 -252q0 -239 -190.5 -389t-528.5 -150zM727 1481l-12 10l59 264q34 146 156 146q61 0 110.5 -48t49.5 -110q0 -92 -113 -144z" />
    <glyph glyph-name="Zacute.pl" horiz-adv-x="1392" 
d="M-61 0l12 72l852 1278v6h-66q-117 0 -173.5 -28t-137.5 -122q-71 -81 -276 -350h-29l115 563h1275l-14 -71l-850 -1276v-9h31q90 0 143 6t99.5 28.5t78 52t84.5 90.5q129 151 271 352h30l-143 -592h-1302zM870 1481l-12 10l60 264q34 146 155 146q61 0 110.5 -48
t49.5 -110q0 -92 -113 -144z" />
    <glyph glyph-name="cacute.pl" horiz-adv-x="1148" 
d="M735 184q75 0 148 35.5t159 108.5l29 -25q-115 -153 -269 -240.5t-341 -87.5q-216 0 -332.5 106t-116.5 298q0 129 45 245t122.5 203t178 151t214.5 97t229 33q168 0 271.5 -71.5t103.5 -190.5q0 -78 -51 -123t-136 -45q-115 0 -159 63t-58 234q-4 60 -10 68
q-5 10 -19 10q-37 0 -83.5 -99.5t-79.5 -252.5t-33 -289q0 -120 46.5 -174t141.5 -54zM717 1145l-17 12l70 291q36 145 158 145q62 0 108.5 -42.5t46.5 -104.5q0 -54 -25.5 -89.5t-90.5 -72.5z" />
    <glyph glyph-name="idotaccent" horiz-adv-x="710" 
d="M475 1141q-111 0 -175 56t-64 157q0 99 69.5 165t181.5 66q109 0 171.5 -57.5t62.5 -155.5q0 -100 -67.5 -165.5t-178.5 -65.5zM47 328l92 454q4 24 4 41q0 34 -22.5 41.5t-73.5 -22.5l-18 -13l-23 29q98 103 220.5 174.5t250.5 71.5q100 0 153.5 -51t53.5 -138
q0 -55 -18 -147l-101 -487q-10 -52 -10 -70q0 -59 94 -4l25 14l20 -33q-235 -213 -475 -213q-98 0 -148.5 46t-50.5 118q0 65 27 189z" />
    <glyph glyph-name="nacute.pl" horiz-adv-x="1404" 
d="M1348 692l-97 -422q-8 -33 -8 -63q0 -17 12 -23.5t33.5 -1t48.5 20.5l23 12l20 -31q-107 -98 -230 -153.5t-245 -55.5q-100 0 -148 49t-48 126q0 47 22 147l88 418q13 65 7 93t-33 28q-53 0 -125 -99l-150 -737h-530l159 782q5 30 5 41q0 34 -23 41.5t-74 -22.5l-18 -13
l-23 29q242 246 473 246q90 0 139.5 -48.5t49.5 -121.5q0 -56 -10 -129h4q95 133 231 216t273 83q95 0 150.5 -51t55.5 -135t-32 -226zM793 1145l-17 12l70 291q36 145 158 145q62 0 108.5 -42.5t46.5 -104.5q0 -54 -26 -89.5t-91 -72.5z" />
    <glyph glyph-name="oacute.pl" horiz-adv-x="1339" 
d="M575 33q61 0 105 147q47 155 85 398t38 337q0 76 -11 106t-42 30q-26 0 -47.5 -29.5t-43.5 -95.5q-49 -150 -90 -406.5t-41 -355.5q0 -70 9 -100.5t38 -30.5zM578 -25q-254 0 -407 132.5t-153 349.5q0 195 96.5 344.5t261 228t369.5 78.5q138 0 248.5 -36.5t181.5 -101.5
t108.5 -152t37.5 -189q0 -198 -96 -347.5t-264 -228t-383 -78.5zM735 1145l-16 12l69 291q36 145 158 145q62 0 109 -42.5t47 -104.5q0 -54 -26 -89.5t-91 -72.5z" />
    <glyph glyph-name="sacute.pl" horiz-adv-x="1054" 
d="M412 -25q-221 0 -332 65t-111 171q0 66 46.5 104.5t121.5 38.5q91 0 132 -48t75 -177q15 -60 40 -80t81 -20q53 0 86 34t33 84q0 14 -3.5 27t-12 25t-16.5 22t-24.5 22t-28 19.5t-35 20.5t-37 20t-43 22t-44.5 23q-144 73 -203 159.5t-59 188.5q0 183 155 297.5
t390 114.5q203 0 309 -56.5t106 -160.5q0 -63 -39.5 -98t-115.5 -35q-77 0 -125 45t-72 145q-15 62 -39 83.5t-72 21.5q-50 0 -80 -29.5t-30 -73.5q0 -50 39 -80.5t188 -106.5q37 -19 58 -30q118 -61 180.5 -149t62.5 -191q0 -123 -77 -219t-209 -147.5t-295 -51.5z
M600 1145l-16 12l69 291q36 145 158 145q62 0 109 -42.5t47 -104.5q0 -54 -26 -89.5t-91 -72.5z" />
    <glyph glyph-name="zacute.pl" horiz-adv-x="1161" 
d="M20 -12h-12l-84 80v10q108 73 187 135l538 420q-90 5 -257.5 58.5t-223.5 53.5q-20 0 -31.5 -9.5t-11.5 -22.5q0 -10 32 -19t70.5 -18t70.5 -36t32 -69q0 -45 -32.5 -80.5t-86.5 -35.5q-78 0 -125 50t-47 134q0 74 43 158t110 152.5t157 113.5t177 45q81 0 195 -38.5
t206.5 -77t121.5 -38.5q40 0 64 27t46 96h8l78 -67v-9q-85 -56 -217 -157l-493 -381q48 -2 191 -29.5t220 -27.5q53 0 86.5 21.5t75.5 84.5l37 -16q-102 -212 -177 -324.5t-144.5 -159.5t-157.5 -47q-60 0 -135 29t-134 63.5t-126.5 63.5t-114.5 29q-36 0 -76 -46.5
t-60 -115.5zM664 1145l-17 12l70 291q36 145 157 145q62 0 109 -42.5t47 -104.5q0 -54 -26 -89.5t-91 -72.5z" />
    </font>
</defs>
</svg>
