<?xml version="1.0" standalone="no"?>
<!DOCTYPE svg PUBLIC "-//W3C//DTD SVG 1.1//EN" "http://www.w3.org/Graphics/SVG/1.1/DTD/svg11.dtd" >
<svg xmlns="http://www.w3.org/2000/svg" xmlns:xlink="http://www.w3.org/1999/xlink" version="1.1">
<metadata>
Created by FontForge 20170731 at Mon Apr 26 17:07:31 2021
 By Aleksey,,,
(c)2012 Paul Barnes, Christian Schwartz, and Ross Milne, under exclusive license to Schwartzco Inc./Commercial Type. All rights reserved.
</metadata>
<defs>
<font id="PublicoBanner-Roman" horiz-adv-x="940" >
  <font-face 
    font-family="Publico Banner Roman"
    font-weight="400"
    font-stretch="normal"
    units-per-em="2048"
    panose-1="2 4 5 2 6 5 4 6 2 3"
    ascent="1645"
    descent="-403"
    x-height="1044"
    cap-height="1419"
    bbox="-299 -451 2236 2099"
    underline-thickness="145"
    underline-position="-302"
    unicode-range="U+0020-FB04"
  />
<missing-glyph horiz-adv-x="1019" 
 />
    <glyph glyph-name="f_f" unicode="ff" horiz-adv-x="1155" 
d="M696 1044v101q0 186 119 296.5t305 110.5q97 0 152 -35.5t55 -93.5q0 -42 -27.5 -68t-72.5 -26q-48 0 -72.5 26t-36.5 91q-7 37 -16 51t-33 14q-68 0 -114 -67.5t-46 -206.5v-193h213l-8 -71h-205v-834q0 -56 10.5 -72.5t53.5 -25.5l92 -21v-20h-498v20l56 13
q50 12 61.5 28.5t11.5 77.5v834h-329v-832q0 -59 10.5 -76t52.5 -26l86 -19v-20h-496v20l58 15q52 12 64 29t12 77v832h-136v16l136 58v77q0 186 106.5 296t290.5 110q94 0 148.5 -35.5t54.5 -89.5q0 -40 -25.5 -65t-69.5 -25q-48 0 -72 25t-34 87q-5 34 -14.5 49t-32.5 15
q-63 0 -101 -67.5t-38 -209.5v-170h329z" />
    <glyph glyph-name="f_i" unicode="fi" horiz-adv-x="1060" 
d="M662 1044l245 29l11 -4q0 -3 -4.5 -82t-4.5 -158v-690q0 -59 13.5 -75.5t68.5 -28.5l53 -15v-20h-475v20l56 13q49 12 60 28t11 78v721q0 70 -18.5 91.5t-77.5 21.5h-233v-834q0 -58 10.5 -74.5t52.5 -25.5l86 -19v-20h-496v20l58 15q52 12 64 28.5t12 75.5v834h-136v16
l136 58v57q0 199 119 323.5t335 124.5q101 0 161 -38t60 -99q0 -40 -28 -67t-74 -27q-53 0 -79.5 27.5t-41.5 101.5q-7 33 -16.5 47t-36.5 14q-88 0 -137 -80.5t-49 -230.5v-156h295z" />
    <glyph glyph-name="f_l" unicode="fl" horiz-adv-x="1056" 
d="M20 0v20l58 15q52 12 64 28.5t12 75.5v834h-136v16l136 58v83q0 196 104.5 309t319.5 113q79 0 134 -24t76 -64l117 82l13 -4q-9 -115 -9 -252v-1145q0 -60 14.5 -79t65.5 -31l53 -15v-20h-475v20l56 13q50 12 61.5 30.5t11.5 81.5v1184q-44 2 -68 28.5t-34 88.5
q-7 37 -21 51t-38 14q-77 0 -122.5 -73t-45.5 -217v-177h208l-8 -71h-200v-834q0 -58 10.5 -74.5t52.5 -25.5l86 -19v-20h-496z" />
    <glyph glyph-name="f_f_i" unicode="ffi" horiz-adv-x="1603" 
d="M567 0v20l56 13q49 12 60 28.5t11 77.5v834h-327v-832q0 -60 9.5 -76.5t51.5 -25.5l86 -19v-20h-494v20l58 15q52 12 63 28.5t11 77.5v832h-134v16l134 58v77q0 185 107.5 295.5t289.5 110.5q95 0 149 -35.5t54 -89.5q0 -40 -25.5 -65t-67.5 -25q-48 0 -72 25t-34 87
q-7 36 -15.5 50t-31.5 14q-63 0 -101 -67.5t-38 -209.5v-170h327v60q0 199 119.5 323.5t337.5 124.5q100 0 159.5 -38t59.5 -99q0 -40 -28 -67t-74 -27q-53 0 -79.5 27.5t-41.5 101.5q-5 32 -15.5 46.5t-37.5 14.5q-88 0 -137.5 -80.5t-49.5 -230.5v-156h297l246 29l8 -4
q0 -3 -4 -82t-4 -158v-690q0 -58 14 -75t68 -29l55 -15v-20h-477v20l55 13q51 12 61.5 28t10.5 78v721q0 70 -18.5 91.5t-77.5 21.5h-234v-834q0 -57 10.5 -74t53.5 -26l86 -19v-20h-490z" />
    <glyph glyph-name="f_f_l" unicode="ffl" horiz-adv-x="1599" 
d="M567 0v20l56 13q50 12 61.5 28.5t11.5 77.5v834h-329v-832q0 -59 10.5 -76t52.5 -26l86 -19v-20h-496v20l58 15q52 12 64 29t12 77v832h-136v16l136 58v77q0 183 105.5 294.5t291.5 111.5q94 0 148.5 -35.5t54.5 -89.5q0 -39 -25 -64.5t-70 -25.5q-47 0 -71.5 24.5
t-34.5 87.5q-5 35 -14.5 49.5t-32.5 14.5q-64 0 -101.5 -68t-37.5 -209v-170h329v86q0 196 107 309t323 113q76 0 132.5 -23t78.5 -61l111 78l12 -4q-8 -115 -8 -252v-1145q0 -61 14 -79.5t66 -30.5l53 -15v-20h-475v20l55 13q50 12 61 30.5t11 81.5v1188q-42 3 -63.5 29
t-32.5 84q-7 37 -20.5 51t-37.5 14q-79 0 -126.5 -73t-47.5 -217v-177h215l-8 -71h-207v-834q0 -58 10 -74.5t54 -25.5l84 -19v-20h-490z" />
    <glyph glyph-name="f_b" unicode="fb" horiz-adv-x="1708" 
d="M20 0v20l58 15q52 12 64 28.5t12 75.5v834h-136v16l136 58v83q0 195 107.5 308.5t322.5 113.5q77 0 133 -22.5t80 -61.5l108 78l13 -4q-9 -121 -9 -252v-164l-2 -180h6q68 56 157.5 94.5t180.5 38.5q83 0 153.5 -26.5t129 -82.5t92 -156.5t33.5 -235.5
q0 -287 -155.5 -442.5t-424.5 -155.5q-105 0 -208.5 24t-174.5 66v1263q-43 3 -65 29.5t-31 83.5q-7 37 -21 51t-38 14q-78 0 -126 -73.5t-48 -216.5v-177h208l-8 -71h-200v-834q0 -56 10.5 -72.5t54.5 -25.5l92 -21v-20h-504zM1112 20q324 0 324 527q0 211 -78 313.5
t-221 102.5q-20 0 -39.5 -1.5t-35 -4t-33 -6.5t-28.5 -7t-27.5 -9t-23 -9t-22.5 -9.5t-19 -7.5v-813q35 -33 90 -54.5t113 -21.5z" />
    <glyph glyph-name="f_f_b" unicode="ffb" horiz-adv-x="2250" 
d="M696 1044v86q0 196 107 309t323 113q77 0 133 -22.5t80 -61.5l109 78l12 -4q-8 -121 -8 -252v-164l-2 -180h4q70 57 159 95t181 38q83 0 153.5 -26.5t129 -82.5t92 -156.5t33.5 -235.5q0 -287 -155.5 -442.5t-424.5 -155.5q-105 0 -209.5 24t-173.5 66v1263
q-42 3 -64.5 29.5t-33.5 83.5q-7 37 -20.5 51t-37.5 14q-79 0 -126.5 -73t-47.5 -217v-177h207l-8 -71h-199v-834q0 -56 10.5 -72.5t53.5 -25.5l92 -21v-20h-498v20l56 13q50 12 61.5 28.5t11.5 77.5v834h-329v-832q0 -59 10.5 -76t52.5 -26l86 -19v-20h-496v20l58 15
q52 12 64 29t12 77v832h-136v16l136 58v77q0 183 105.5 294.5t291.5 111.5q94 0 148.5 -35.5t54.5 -89.5q0 -39 -25 -64.5t-70 -25.5q-47 0 -71.5 24.5t-34.5 87.5q-5 35 -14.5 49.5t-32.5 14.5q-64 0 -101.5 -68t-37.5 -209v-170h329zM1655 20q323 0 323 527
q0 211 -78 313.5t-221 102.5q-50 0 -100.5 -11.5t-67.5 -18t-59 -24.5v-813q35 -34 89.5 -55t113.5 -21z" />
    <glyph glyph-name="f_f_h" unicode="ffh" horiz-adv-x="2242" 
d="M567 0v20l56 13q50 12 61.5 28.5t11.5 77.5v834h-329v-832q0 -59 10.5 -76t52.5 -26l86 -19v-20h-496v20l58 15q52 12 64 29t12 77v832h-136v16l136 58v77q0 183 105.5 294.5t291.5 111.5q94 0 148.5 -35.5t54.5 -89.5q0 -39 -25 -64.5t-70 -25.5q-47 0 -71.5 24.5
t-34.5 87.5q-5 35 -14.5 49.5t-32.5 14.5q-64 0 -101.5 -68t-37.5 -209v-170h329v86q0 196 107 309t323 113q76 0 132.5 -23t78.5 -61l111 78l12 -4q-8 -115 -8 -252v-346h4q84 57 185 96t192 39q142 0 205 -66.5t63 -207.5v-666q0 -59 11.5 -74.5t64.5 -29.5l59 -15v-20
h-481v20l57 13q52 14 64 29.5t12 76.5v633q0 105 -37 148t-125 43q-57 0 -115 -11t-85.5 -20.5t-73.5 -26.5v-766q0 -61 12 -76.5t64 -29.5l57 -13v-20h-475v20l55 13q51 13 61.5 28.5t10.5 77.5v1194q-42 3 -63.5 29t-32.5 84q-7 37 -20.5 51t-37.5 14q-79 0 -126.5 -73
t-47.5 -217v-177h207l-8 -71h-199v-834q0 -58 10 -74.5t54 -25.5l84 -19v-20h-490z" />
    <glyph glyph-name="f_f_j" unicode="ffj" horiz-adv-x="1576" 
d="M696 1044v60q0 199 119.5 323.5t335.5 124.5q101 0 161 -38t60 -99q0 -40 -28 -67t-76 -27q-53 0 -78.5 27.5t-40.5 101.5q-7 33 -16.5 47t-36.5 14q-88 0 -137.5 -80.5t-49.5 -230.5v-156h295l246 29l10 -4q-8 -124 -8 -240v-811q0 -201 -94.5 -312.5t-251.5 -111.5
q-96 0 -145.5 36.5t-49.5 97.5q0 42 26.5 68t74.5 26q46 0 70.5 -26t33.5 -95q5 -37 13.5 -51.5t27.5 -14.5q36 0 59 42.5t23 123.5v1061q0 70 -18.5 90.5t-77.5 20.5h-234v-834q0 -56 10.5 -72.5t53.5 -25.5l92 -21v-20h-498v20l56 13q50 12 61.5 28.5t11.5 77.5v834h-329
v-832q0 -59 10.5 -76t52.5 -26l86 -19v-20h-496v20l58 15q52 12 64 29t12 77v832h-136v16l136 58v77q0 183 105.5 294.5t291.5 111.5q94 0 148.5 -35.5t54.5 -89.5q0 -39 -25 -64.5t-70 -25.5q-47 0 -71.5 24.5t-34.5 87.5q-5 35 -14.5 49.5t-32.5 14.5q-64 0 -101.5 -68
t-37.5 -209v-170h329z" />
    <glyph glyph-name="f_f_k" unicode="ffk" horiz-adv-x="2148" 
d="M567 0v20l56 13q50 12 60.5 28.5t10.5 77.5v834h-327v-832q0 -60 10 -76.5t53 -25.5l84 -19v-20h-494v20l58 15q52 12 64 29t12 77v832h-136v16l136 58v77q0 183 105 294.5t290 111.5q95 0 150 -35.5t55 -89.5q0 -39 -25 -64.5t-70 -25.5q-47 0 -71.5 24.5t-34.5 87.5
q-7 35 -16 49.5t-31 14.5q-64 0 -101.5 -68t-37.5 -209v-170h327v86q0 195 107.5 308.5t322.5 113.5q78 0 134.5 -23t78.5 -61l111 78l12 -4q-8 -115 -8 -252v-1145q0 -66 12 -83t64 -29l55 -13v-20h-473v20l55 13q50 12 61 29t11 83v1188q-42 3 -63.5 29t-32.5 84
q-7 37 -21 51t-39 14q-77 0 -124.5 -73.5t-47.5 -216.5v-177h207l-8 -71h-199v-834q0 -57 10 -74t52 -26l86 -19v-20h-490zM1866 0q-107 116 -193 235.5t-188 282.5v8l233 260q105 117 105 168q0 39 -68 60l-33 10v20h377v-22l-39 -12q-63 -20 -101 -45.5t-89 -81.5
l-223 -244q87 -143 200.5 -297.5t206.5 -255.5q22 -25 37 -36t43 -21l27 -9v-20h-295z" />
    <glyph glyph-name="f_h" unicode="fh" horiz-adv-x="1699" 
d="M20 0v20l58 15q52 12 64 28.5t12 75.5v834h-136v16l136 58v83q0 195 107.5 308.5t322.5 113.5q77 0 133 -22.5t80 -61.5l108 78l13 -4q-9 -115 -9 -252v-346h4q84 57 185.5 96t191.5 39q144 0 207.5 -66.5t63.5 -207.5v-666q0 -60 11 -75t64 -29l58 -15v-20h-480v20
l58 13q51 14 62.5 29.5t11.5 76.5v633q0 105 -36.5 148t-123.5 43q-123 0 -277 -58v-766q0 -61 12.5 -76.5t65.5 -29.5l57 -13v-20h-477v20l56 13q51 14 62 29.5t11 76.5v1194q-43 3 -65 29.5t-31 83.5q-7 37 -21 51t-38 14q-78 0 -126 -73.5t-48 -216.5v-177h208l-8 -71
h-200v-834q0 -58 10.5 -74.5t52.5 -25.5l86 -19v-20h-496z" />
    <glyph glyph-name="f_j" unicode="fj" horiz-adv-x="1034" 
d="M909 829v-811q0 -202 -94 -313t-252 -111q-96 0 -145 36.5t-49 97.5q0 42 27 68t73 26t70.5 -26t33.5 -95q4 -36 13.5 -51t27.5 -15q37 0 59.5 42t22.5 124v1061q0 70 -18.5 90.5t-77.5 20.5h-233v-834q0 -56 10.5 -72.5t54.5 -25.5l92 -21v-20h-504v20l58 15
q52 12 64 28.5t12 75.5v834h-136v16l136 58v57q0 199 119 323.5t335 124.5q101 0 161 -38t60 -99q0 -40 -28 -67t-74 -27q-53 0 -79.5 27.5t-41.5 101.5q-7 33 -16.5 47t-36.5 14q-88 0 -137 -80.5t-49 -230.5v-156h295l245 29l11 -4q0 -3 -4.5 -82t-4.5 -158z" />
    <glyph glyph-name="f_k" unicode="fk" horiz-adv-x="1605" 
d="M20 0v20l58 15q52 12 64 28.5t12 75.5v834h-136v16l136 58v83q0 196 107 309t323 113q76 0 132.5 -23t78.5 -61l110 78l13 -4q-9 -115 -9 -252v-1145q0 -66 12.5 -83t63.5 -29l55 -13v-20h-473v20l56 13q50 12 60.5 28.5t10.5 83.5v1188q-42 3 -63.5 29t-32.5 84
q-7 37 -20 51t-37 14q-79 0 -126.5 -73t-47.5 -217v-177h206l-8 -71h-198v-834q0 -58 10 -74.5t53 -25.5l84 -19v-20h-494zM1325 0q-108 116 -194.5 235t-188.5 283v8l234 260q106 118 106 168q0 38 -70 60l-30 10v20h374v-22l-38 -12q-63 -20 -101.5 -45.5t-89.5 -81.5
l-223 -244q90 -146 202.5 -300t204.5 -253q22 -25 37.5 -36t44.5 -21l25 -9v-20h-293z" />
    <glyph glyph-name=".notdef" horiz-adv-x="1019" 
 />
    <glyph glyph-name=".null" horiz-adv-x="0" 
 />
    <glyph glyph-name="nonmarkingreturn" horiz-adv-x="682" 
 />
    <glyph glyph-name="space" unicode=" " horiz-adv-x="395" 
 />
    <glyph glyph-name="exclam" unicode="!" horiz-adv-x="489" 
d="M231 395l-118 856q-17 89 19.5 138t111.5 49q76 0 113 -49t20 -138l-117 -856h-29zM119 117q0 53 36.5 89t88.5 36q53 0 90 -36.5t37 -88.5q0 -53 -37.5 -90t-89.5 -37t-88.5 37t-36.5 90z" />
    <glyph glyph-name="quotedbl" unicode="&#x22;" horiz-adv-x="579" 
d="M147 981l-86 307q-22 73 8 114.5t89 41.5q58 0 86.5 -41t7.5 -115l-82 -307h-23zM412 981l-84 307q-21 73 7 114.5t87 41.5t88.5 -41t7.5 -115l-84 -307h-22z" />
    <glyph glyph-name="numbersign" unicode="#" horiz-adv-x="978" 
d="M457 0l92 416h-256l-92 -416h-54l93 416h-193l35 155h194l64 291h-193l37 156h191l92 401h53l-92 -401h258l92 401h51l-90 -401h193l-37 -156h-190l-66 -291h192l-36 -155h-191l-92 -416h-55zM393 862l-63 -291h256l65 291h-258z" />
    <glyph glyph-name="dollar" unicode="$" horiz-adv-x="993" 
d="M37 201q0 47 28 74.5t78 27.5q54 0 82 -28.5t37 -102.5q9 -87 47.5 -116.5t151.5 -30.5v591q-218 93 -308 192t-90 241q0 146 110 257t290 126v124h51v-122q191 0 287 -59t96 -144q0 -45 -28.5 -71.5t-73.5 -26.5q-56 0 -83 29t-34 98q-10 69 -40.5 97.5t-123.5 31.5
v-543q156 -69 243.5 -129t133 -137.5t45.5 -182.5q0 -163 -115 -282.5t-309 -132.5v-193h-51v191q-221 1 -322.5 61t-101.5 160zM764 295q0 101 -59 168t-193 131v-569q116 9 184 85t68 185zM221 1143q0 -90 59 -153t183 -122v518q-111 -10 -176.5 -78.5t-65.5 -164.5z" />
    <glyph glyph-name="percent" unicode="%" horiz-adv-x="1363" 
d="M119 -102l1032 1564h63l-1030 -1564h-65zM373 731q-60 0 -115.5 20.5t-102 60.5t-74.5 107t-28 152q0 91 29 163.5t77 115.5t104 65.5t114 22.5q60 0 116 -21t102 -61.5t73.5 -108.5t27.5 -155q0 -89 -29.5 -160.5t-77.5 -114t-103.5 -64.5t-112.5 -22zM373 770
q78 0 110.5 69t32.5 230q0 176 -33 253t-110 77q-74 0 -107 -71.5t-33 -233.5q0 -170 33 -247t107 -77zM985 -25q-61 0 -116 20t-101 59.5t-73 106t-27 152.5q0 92 29 165t76.5 116t103 65.5t112.5 22.5q61 0 117 -21t102 -62t73.5 -109.5t27.5 -155.5q0 -89 -29 -160
t-77 -113t-104 -64t-114 -22zM987 12q78 0 110.5 69.5t32.5 231.5q0 174 -33.5 252t-109.5 78q-74 0 -106.5 -71.5t-32.5 -235.5q0 -169 33 -246.5t106 -77.5z" />
    <glyph glyph-name="ampersand" unicode="&#x26;" horiz-adv-x="1316" 
d="M942 1190q0 -48 -18.5 -90t-46.5 -74t-78 -65.5t-97.5 -58t-119.5 -58.5q216 -331 387 -539q104 168 104 295q0 49 -21 72.5t-81 40.5l-39 10v22h377v-22l-45 -18q-17 -5 -31 -12t-27 -21t-20.5 -22t-21 -32.5t-18 -34t-20.5 -42.5q-3 -7 -15 -37t-17 -41.5t-17.5 -39.5
t-22.5 -47t-26.5 -46.5t-34.5 -55.5q81 -105 158 -182q26 -28 43 -39.5t51 -19.5l37 -8v-25h-348q-43 46 -94 113q-153 -136 -361 -136q-218 0 -336 96t-118 277q0 268 337 430q-98 178 -98 303q0 151 105 254t266 103q145 0 226 -69.5t81 -180.5zM813 143
q-243 294 -432 609q-67 -50 -101 -135.5t-34 -176.5q0 -187 87.5 -290t231.5 -103q139 0 248 96zM451 1178q0 -132 114 -308q205 125 205 320q0 96 -36 151.5t-109 55.5q-82 0 -128 -60t-46 -159z" />
    <glyph glyph-name="quotesingle" unicode="'" horiz-adv-x="315" 
d="M147 981l-86 307q-22 73 8 114.5t89 41.5q58 0 88 -41t8 -115l-84 -307h-23z" />
    <glyph glyph-name="parenleft" unicode="(" horiz-adv-x="600" 
d="M561 -289q-74 62 -132 119t-124 144t-110 177t-73.5 211.5t-29.5 253.5q0 121 29 239t74.5 212.5t109 183.5t125.5 154t131 123l19 -19q-148 -159 -242 -383t-94 -467q0 -568 336 -931z" />
    <glyph glyph-name="parenright" unicode=")" horiz-adv-x="600" 
d="M39 1528q72 -60 131.5 -120t125 -147.5t110 -179.5t73.5 -213t29 -250q0 -124 -29 -242.5t-74 -211.5t-109.5 -181t-125.5 -150.5t-131 -121.5l-19 17q152 173 244 393t92 477q0 298 -92 528t-244 385z" />
    <glyph glyph-name="asterisk" unicode="*" horiz-adv-x="618" 
d="M137 913q-34 23 -31.5 61.5t39.5 61.5l156 113l-176 -4q-55 -1 -76 28.5t-10 65.5q13 39 46 48.5t77 -25.5l141 -107l-61 182q-17 43 4 73t63 30q43 0 63.5 -30t2.5 -73l-62 -182l142 109q44 35 78.5 24.5t46.5 -47.5q10 -38 -11 -67.5t-77 -28.5l-177 4l156 -113
q39 -23 40.5 -61.5t-32.5 -59.5q-17 -14 -39.5 -15.5t-43.5 14t-29 47.5l-60 182l-53 -182q-9 -34 -31 -49t-44.5 -13t-41.5 14z" />
    <glyph glyph-name="plus" unicode="+" horiz-adv-x="909" 
d="M426 279v393h-348v53h348v395h57v-395h351v-53h-351v-393h-57z" />
    <glyph glyph-name="comma" unicode="," horiz-adv-x="380" 
d="M45 -217l-8 18q85 37 135.5 100.5t56.5 145.5q-28 -35 -77 -35q-44 0 -72.5 30t-28.5 77q0 49 38 84t91 35q67 0 107.5 -44t40.5 -118q0 -104 -81 -186t-202 -107z" />
    <glyph glyph-name="hyphen" unicode="-" horiz-adv-x="512" 
d="M39 512l12 150h422l-12 -150h-422z" />
    <glyph glyph-name="period" unicode="." horiz-adv-x="372" 
d="M59 117q0 52 37 88.5t90 36.5q52 0 89.5 -36.5t37.5 -88.5t-38 -89.5t-89 -37.5q-52 0 -89.5 37t-37.5 90z" />
    <glyph glyph-name="slash" unicode="/" horiz-adv-x="731" 
d="M717 1503l-649 -1769h-60l647 1769h62z" />
    <glyph glyph-name="zero" unicode="0" horiz-adv-x="1249" 
d="M621 -20q-88 0 -167.5 24t-153 78t-127 134.5t-85 201t-31.5 268.5q0 157 33.5 286t89.5 214.5t131 144t155.5 84t166.5 25.5t165.5 -24.5t152 -79.5t125.5 -136t84.5 -203t31.5 -272q0 -155 -33 -282t-87.5 -212t-129 -142.5t-155 -83t-166.5 -25.5zM629 25
q161 0 241 161.5t80 499.5q0 361 -79.5 535t-241.5 174q-163 0 -245.5 -163.5t-82.5 -506.5q0 -700 328 -700z" />
    <glyph glyph-name="one" unicode="1" horiz-adv-x="692" 
d="M43 0v23l100 16q56 9 71 31t15 90v1046l-176 21v20q146 25 235 67.5t156 119.5l21 -4v-1270q0 -69 13 -90.5t67 -30.5l100 -16v-23h-602z" />
    <glyph glyph-name="two" unicode="2" horiz-adv-x="995" 
d="M10 0v125q247 191 400 344q142 142 208 285.5t66 330.5q0 156 -68.5 233t-181.5 77q-75 0 -99 -23.5t-32 -91.5q-9 -84 -38 -115.5t-91 -31.5q-49 0 -76.5 27.5t-27.5 72.5q0 89 103 148t282 59q225 0 349 -105t124 -288q0 -76 -23.5 -148.5t-72.5 -143.5t-111.5 -136.5
t-155.5 -139t-188 -140t-223 -149.5v-8h559q33 0 50.5 1t37 7.5t29.5 16t25 31t27 47.5t31 71h23l-31 -356h-895z" />
    <glyph glyph-name="three" unicode="3" horiz-adv-x="1021" 
d="M416 -20q-377 0 -377 190q0 49 30 76.5t83 27.5q55 0 82 -33.5t38 -111.5q10 -64 39 -84t105 -20q143 0 219 104.5t76 273.5q0 159 -67 237.5t-216 78.5h-113v49h97q139 0 201.5 80t62.5 244q0 156 -55.5 229.5t-171.5 73.5q-73 0 -96 -21t-31 -82q-10 -82 -37.5 -114.5
t-85.5 -32.5q-52 0 -79.5 26.5t-27.5 71.5q0 88 100.5 142.5t276.5 54.5q211 0 324.5 -93t113.5 -243q0 -130 -82.5 -223.5t-253.5 -124.5v-6q183 -12 284 -103.5t101 -249.5q0 -182 -142.5 -299.5t-397.5 -117.5z" />
    <glyph glyph-name="four" unicode="4" horiz-adv-x="1081" 
d="M444 0v23l74 16q52 10 68 33.5t16 89.5v260h-588v74l691 923h116v-891h230l-11 -106h-219v-260q0 -65 16 -89.5t62 -33.5l84 -16v-23h-539zM106 528h496v660h-6l-490 -653v-7z" />
    <glyph glyph-name="five" unicode="5" horiz-adv-x="980" 
d="M373 -20q-160 0 -246 47t-86 133q0 47 29 74.5t82 27.5t81.5 -30.5t40.5 -106.5q12 -64 33.5 -83t85.5 -19q146 0 234 95t88 257q0 158 -85 239.5t-253 81.5q-153 0 -248 -43l-16 13l82 753h561q41 0 59.5 17t50.5 86h23l-37 -287h-625l-41 -385q110 35 260 35
q224 0 349 -108.5t125 -313.5q0 -97 -40 -185t-110 -154t-173.5 -105t-223.5 -39z" />
    <glyph glyph-name="six" unicode="6" horiz-adv-x="1116" 
d="M582 -20q-241 0 -380 163t-139 471q0 168 42.5 309t111 234.5t158 159t181.5 94.5t183 29q151 0 232.5 -46t81.5 -128q0 -48 -30 -77.5t-81 -29.5q-56 0 -84 29.5t-39 97.5q-11 67 -30.5 88t-73.5 21q-56 0 -109.5 -20.5t-105.5 -70t-91.5 -122.5t-67 -186.5
t-34.5 -254.5q164 115 348 115q200 0 304 -107.5t104 -312.5q0 -200 -132.5 -328t-348.5 -128zM580 25q90 0 145.5 51.5t76.5 134.5t21 203q0 195 -64.5 280.5t-207.5 85.5q-61 0 -132 -23t-114 -55q-2 -31 -2 -81q0 -70 1.5 -120.5t7.5 -117t17 -113t32 -96t49.5 -80
t71.5 -50t98 -19.5z" />
    <glyph glyph-name="seven" unicode="7" horiz-adv-x="972" 
d="M227 0q41 195 108 373t155 331t173 273t195 252h-665q-52 0 -72.5 -25.5t-61.5 -126.5h-22l33 342h886v-104q-201 -300 -310.5 -602t-164.5 -713h-254z" />
    <glyph glyph-name="eight" unicode="8" horiz-adv-x="1067" 
d="M526 -20q-223 0 -353 93t-130 253q0 121 85 210.5t251 163.5v5q-141 79 -202.5 164.5t-61.5 197.5q0 160 127.5 266.5t310.5 106.5q108 0 202.5 -35.5t156 -108.5t61.5 -168q0 -107 -80 -186.5t-223 -144.5v-2q90 -47 149 -87.5t105.5 -90t68 -108.5t21.5 -132
q0 -77 -36 -148.5t-99 -126.5t-155.5 -88.5t-197.5 -33.5zM535 25q129 0 208.5 73.5t79.5 194.5q0 44 -11 80.5t-35 68t-54.5 58.5t-77.5 55.5t-96 55t-117 61.5q-13 7 -20 10q-174 -140 -174 -338q0 -149 79 -234t218 -85zM635 813q71 61 111 135.5t40 181.5
q0 129 -62.5 198t-182.5 69q-113 0 -178.5 -66.5t-65.5 -175.5q0 -46 15.5 -85t39.5 -69.5t70.5 -64t92 -59t120.5 -64.5z" />
    <glyph glyph-name="nine" unicode="9" horiz-adv-x="1120" 
d="M543 1442q111 0 204 -40.5t162 -119t107.5 -202t38.5 -281.5q0 -205 -55.5 -365t-151 -257.5t-216.5 -147t-259 -49.5q-142 0 -218.5 47.5t-76.5 126.5q0 45 28 73.5t80 28.5q57 0 84.5 -28.5t38.5 -94.5q12 -69 30.5 -88.5t76.5 -19.5q76 0 141 37.5t118.5 114
t88.5 205.5t45 300q-60 -49 -148.5 -83t-187.5 -34q-196 0 -309 108t-113 308q0 94 33.5 177.5t95 146.5t155.5 100t208 37zM539 1397q-128 0 -189 -107t-61 -299q0 -183 71 -264.5t207 -81.5t242 74q2 31 2 84q0 67 -1.5 119t-8 117t-18 113t-32 96.5t-48.5 79t-70 50
t-94 19.5z" />
    <glyph glyph-name="colon" unicode=":" horiz-adv-x="372" 
d="M59 117q0 52 37 88.5t90 36.5q52 0 89.5 -36.5t37.5 -88.5t-38 -89.5t-89 -37.5q-52 0 -89.5 37t-37.5 90zM59 702q0 53 37 89t90 36q52 0 89.5 -36t37.5 -89q0 -52 -38 -89.5t-89 -37.5q-52 0 -89.5 37.5t-37.5 89.5z" />
    <glyph glyph-name="semicolon" unicode=";" horiz-adv-x="380" 
d="M51 -217l-10 18q85 37 135.5 100.5t56.5 145.5q-25 -35 -77 -35q-44 0 -71.5 30t-27.5 77q0 51 37 85t90 34q68 0 109 -43.5t41 -116.5q0 -105 -81.5 -187.5t-201.5 -107.5zM59 702q0 53 37 89t90 36q52 0 89.5 -36t37.5 -89q0 -52 -38 -89.5t-89 -37.5q-52 0 -89.5 37.5
t-37.5 89.5z" />
    <glyph glyph-name="less" unicode="&#x3c;" horiz-adv-x="913" 
d="M805 281l-739 358v43l739 358v-61l-660 -317l660 -322v-59z" />
    <glyph glyph-name="equal" unicode="=" horiz-adv-x="987" 
d="M86 797v53h817v-53h-817zM86 496v55h817v-55h-817z" />
    <glyph glyph-name="greater" unicode="&#x3e;" horiz-adv-x="913" 
d="M848 639l-737 -358v59l657 322l-657 317v61l737 -358v-43z" />
    <glyph glyph-name="question" unicode="?" horiz-adv-x="825" 
d="M272 399v385q332 111 332 365q0 116 -67 181t-185 65q-41 0 -57.5 -20.5t-22.5 -67.5q-9 -71 -38 -101t-87 -30q-48 0 -73 27.5t-25 70.5q0 79 85.5 122.5t219.5 43.5q191 0 300.5 -100t109.5 -271q0 -333 -430 -469v-201h-62zM182 117q0 52 37 88.5t90 36.5t90 -36.5
t37 -88.5q0 -53 -37 -90t-90 -37t-90 37t-37 90z" />
    <glyph glyph-name="at" unicode="@" horiz-adv-x="1716" 
d="M1235 129q38 0 78.5 18.5t83 62.5t75.5 107.5t54.5 164.5t21.5 223q0 95 -18.5 179t-61 159t-106 128.5t-159 85t-214.5 31.5q-172 0 -323 -64t-257.5 -173.5t-167.5 -262t-61 -323.5q0 -320 162 -497t496 -177q263 0 471 111v-25q-85 -57 -222 -97t-305 -40
q-329 0 -529 181t-200 491q0 190 78.5 362t209 293t304.5 192.5t359 71.5q153 0 280 -49t209 -132t127 -190.5t45 -226.5q0 -155 -43 -281t-115 -205t-161 -121t-185 -42q-214 0 -194 246h-4q-152 -246 -324 -246q-81 0 -133.5 64t-52.5 184q0 135 48.5 261.5t124 213.5
t168 139.5t179.5 52.5q121 0 196 -79h9l84 75l16 -6q-28 -80 -53 -223l-70 -391q-24 -110 -6 -178t86 -68zM735 195q56 0 110.5 49t115.5 137l102 506q-11 31 -38.5 50t-63.5 19q-74 0 -146 -91t-117 -236.5t-45 -294.5q0 -64 21.5 -101.5t60.5 -37.5z" />
    <glyph glyph-name="A" unicode="A" horiz-adv-x="1269" 
d="M-20 0v23l34 10q53 15 76.5 51.5t75.5 181.5l420 1153h110l408 -1177q41 -118 68 -158t71 -51l43 -10v-23h-543v23l48 10q48 11 64.5 30.5t16.5 53.5q0 43 -26 119l-90 278h-439l-79 -233q-35 -101 -35 -156q0 -37 19.5 -57.5t66.5 -32.5l55 -12v-23h-364zM541 1153
l-205 -590h403l-192 590h-6z" />
    <glyph glyph-name="B" unicode="B" horiz-adv-x="1198" 
d="M25 0v23l75 14q25 5 37.5 9t23 11t14 21.5t5.5 33t2 52.5v1091q0 34 -2 52.5t-5.5 33t-14 21.5t-23 11t-37.5 9l-75 15v22h563q497 0 497 -334q0 -272 -337 -333v-4q411 -35 411 -349q0 -192 -140 -295.5t-386 -103.5h-608zM627 47q140 0 212 85t72 253q0 172 -73 249
t-244 77h-178v-508q0 -54 6.5 -82t31 -46t63 -23t110.5 -5zM416 760h151q137 0 211 76t74 233q0 163 -66.5 233t-218.5 70q-95 0 -151 -16v-596z" />
    <glyph glyph-name="C" unicode="C" horiz-adv-x="1220" 
d="M682 -20q-141 0 -254 41t-198.5 126t-132 224.5t-46.5 326.5q0 159 38 286t103 211t155.5 140t191 80.5t213.5 24.5q204 0 366 -47l27 -383h-25q-86 180 -116 231q-53 92 -109 123t-164 31q-97 0 -174.5 -38t-136 -116t-90 -206t-31.5 -298q0 -370 99 -541t296 -171
q142 0 208 32.5t118 130.5q17 31 35 71t41 94.5t34 80.5h25l-25 -379q-179 -75 -448 -75z" />
    <glyph glyph-name="D" unicode="D" horiz-adv-x="1386" 
d="M25 0v23l75 14q25 5 37.5 9t23 11t14 21.5t5.5 33t2 52.5v1091q0 34 -2 52.5t-5.5 33t-14 21.5t-23 11t-37.5 9l-75 15v22h626q119 0 219 -22t187.5 -73.5t148 -130t95 -197.5t34.5 -271q0 -176 -51 -314.5t-143.5 -228t-220.5 -136t-283 -46.5h-612zM623 45
q106 0 186.5 31t132.5 85.5t85 136t46.5 175.5t13.5 211q0 364 -108.5 526t-360.5 162q-137 0 -200 -16v-1155q0 -69 14 -99.5t56 -43.5t135 -13z" />
    <glyph glyph-name="E" unicode="E" horiz-adv-x="1155" 
d="M836 983v-491h-23q-22 92 -49 151q-20 46 -59.5 58t-167.5 12h-119v-502q0 -34 0.5 -52.5t5.5 -38.5t9.5 -29.5t20 -19.5t30 -13.5t45.5 -6.5t60.5 -3.5t80.5 -0.5q99 0 151 10.5t77.5 29.5t59.5 65q47 70 125 278h25l-29 -430h-1054v23l75 14q56 12 69 31.5t13 95.5
v1091q0 77 -13 96t-69 31l-75 15v22h1013l23 -358h-23q-67 155 -100 209q-42 66 -95.5 84t-195.5 18q-141 0 -229 -18v-594h119q89 0 130.5 5.5t61.5 19.5t35 46q25 45 49 152h23z" />
    <glyph glyph-name="F" unicode="F" horiz-adv-x="1083" 
d="M520 690h-102v-526q0 -78 13.5 -98t70.5 -29l98 -14v-23h-575v23l75 14q55 11 68.5 30.5t13.5 96.5v1091q0 34 -2 52.5t-5.5 33t-14 21.5t-23 11t-37.5 9l-75 15v22h999l20 -389h-26q-69 174 -96 223q-28 54 -55.5 77.5t-77.5 33.5t-152 10q-139 0 -219 -18v-619h102
q89 0 132 5.5t64 20t34 46.5q14 33 49 166h22v-524h-22q-29 109 -47 153q-16 40 -35 56t-61.5 23t-135.5 7z" />
    <glyph glyph-name="G" unicode="G" horiz-adv-x="1316" 
d="M737 -20q-333 0 -509.5 180t-176.5 536q0 121 22 223t59.5 177.5t92 135t116 98t134 64t144.5 36t149 10.5q239 0 387 -49l21 -377h-23q-3 6 -13.5 31.5t-13.5 31.5t-12 27t-13 28.5t-12.5 25t-14 27.5t-14 24.5t-17 27t-17.5 25.5q-54 74 -113.5 103.5t-164.5 29.5
q-453 0 -453 -650q0 -367 101.5 -543.5t332.5 -176.5q156 0 246 57v328q0 77 -12.5 97t-69.5 30l-78 14v22h516v-22l-74 -14q-36 -6 -45.5 -25.5t-9.5 -85.5v-369q-205 -77 -465 -77z" />
    <glyph glyph-name="H" unicode="H" horiz-adv-x="1447" 
d="M25 0v23l75 14q25 5 37.5 9t23 11t14 21.5t5.5 33t2 52.5v1091q0 34 -2 52.5t-5.5 33t-14 21.5t-23 11t-37.5 9l-75 15v22h548v-22l-71 -15q-59 -12 -71.5 -30.5t-12.5 -96.5v-505h614v505q0 77 -13 96t-71 31l-74 15v22h551v-22l-77 -15q-55 -11 -67.5 -30.5
t-12.5 -96.5v-1091q0 -77 12.5 -96.5t67.5 -30.5l77 -14v-23h-551v23l74 14q58 12 71 31t13 96v536h-614v-536q0 -78 12.5 -96.5t71.5 -30.5l71 -14v-23h-548z" />
    <glyph glyph-name="I" unicode="I" horiz-adv-x="602" 
d="M25 0v23l77 14q25 5 37.5 9t23 11t14 21.5t5.5 33t2 52.5v1091q0 34 -2 52.5t-5.5 33t-14 21.5t-23 11t-37.5 9l-77 15v22h553v-22l-76 -15q-58 -11 -71 -30.5t-13 -96.5v-1091q0 -77 13 -96.5t71 -30.5l76 -14v-23h-553z" />
    <glyph glyph-name="J" unicode="J" horiz-adv-x="813" 
d="M238 -20q-113 0 -174.5 41.5t-61.5 109.5q0 51 30 80t83 29q60 0 90 -35t39 -123q5 -29 15 -42t32 -13q58 0 88.5 69.5t30.5 237.5v921q0 78 -12.5 98t-67.5 29l-78 15v22h551v-22l-76 -15q-25 -5 -37.5 -9t-23 -11t-14 -21.5t-5.5 -33t-2 -52.5v-813q0 -101 -24 -184
t-72 -146t-127.5 -97.5t-183.5 -34.5z" />
    <glyph glyph-name="K" unicode="K" horiz-adv-x="1275" 
d="M958 0q-130 147 -259 334t-220 368v17l416 493q51 57 51 105q0 22 -17 36.5t-59 24.5l-67 19v22h436v-22l-45 -13q-58 -15 -99.5 -45.5t-111.5 -109.5l-334 -391q105 -190 251.5 -402t254.5 -332q30 -33 51 -47.5t56 -23.5l36 -10v-23h-340zM25 0v23l75 14q25 5 37.5 9
t23 11t14 21.5t5.5 33t2 52.5v1091q0 34 -2 52.5t-5.5 33t-14 21.5t-23 11t-37.5 9l-75 15v22h548v-22l-71 -15q-58 -11 -71 -30.5t-13 -96.5v-1091q0 -78 12.5 -96.5t71.5 -30.5l71 -14v-23h-548z" />
    <glyph glyph-name="L" unicode="L" horiz-adv-x="1101" 
d="M25 0v23l75 14q55 11 68.5 30.5t13.5 96.5v1091q0 34 -2 52.5t-5.5 33t-14 21.5t-23 11t-37.5 9l-75 15v22h553v-22l-76 -15q-57 -9 -70.5 -29t-13.5 -98v-1071q0 -33 1.5 -50.5t9 -36t20 -26.5t38 -15t59.5 -9t87 -2q145 0 197.5 21.5t95.5 97.5q60 108 121 282h26
l-29 -446h-1019z" />
    <glyph glyph-name="M" unicode="M" horiz-adv-x="1654" 
d="M25 0v23l77 18q51 12 65.5 40.5t14.5 119.5v1054q0 51 -7 75t-22.5 34t-52.5 18l-71 15v22h403l399 -1034h7l391 1034h403v-22l-76 -15q-58 -12 -70.5 -31t-12.5 -96v-1091q0 -76 13 -95.5t70 -31.5l76 -14v-23h-553v23l78 14q56 11 68 30t12 97v1093h-6l-459 -1216h-55
l-463 1216h-8v-1054q0 -93 13.5 -121t70.5 -41l78 -18v-23h-383z" />
    <glyph glyph-name="N" unicode="N" horiz-adv-x="1337" 
d="M1081 -8l-835 1278h-6v-1067q0 -93 14 -120t72 -42l80 -18v-23h-381v23l77 18q51 14 65.5 42t14.5 118v1054q0 69 -16 92.5t-66 34.5l-71 15v22h393l676 -1036h6v834q0 92 -14 120t-70 41l-88 19v22h383v-22l-74 -19q-51 -13 -65.5 -42t-14.5 -115v-1229h-80z" />
    <glyph glyph-name="O" unicode="O" horiz-adv-x="1394" 
d="M692 -20q-139 0 -254.5 44.5t-202.5 130.5t-135.5 223t-48.5 312q0 157 36.5 285t98 213t146 143t177 83.5t193.5 25.5q139 0 254.5 -45t202.5 -132.5t135.5 -226.5t48.5 -317q0 -157 -36.5 -283.5t-98 -210t-146 -140t-176.5 -81t-194 -24.5zM696 25q207 0 303.5 159.5
t96.5 499.5q0 711 -398 711q-205 0 -302 -164t-97 -506q0 -348 100.5 -524t296.5 -176z" />
    <glyph glyph-name="P" unicode="P" horiz-adv-x="1150" 
d="M25 0v23l75 14q25 5 37.5 9t23 11t14 21t5.5 33t2 53v1091q0 34 -2 52.5t-5.5 33t-14 21.5t-23 11t-37.5 9l-75 15v22h583q508 0 508 -395q0 -197 -129 -314.5t-381 -117.5q-83 0 -129 12v27q213 -6 304 79.5t91 295.5q0 201 -65 284.5t-221 83.5q-93 0 -168 -16v-1194
q0 -75 14 -96t74 -31l94 -14v-23h-575z" />
    <glyph glyph-name="Q" unicode="Q" horiz-adv-x="1394" 
d="M1184 -334q-101 0 -180 24.5t-175 82.5q-30 18 -56.5 35.5t-60 44.5t-47 38t-59 50.5t-55.5 48.5q-228 41 -364 221.5t-136 478.5q0 157 36.5 285t98 213.5t146 143t177.5 83t196 25.5q138 0 253.5 -45.5t202 -133.5t134.5 -226.5t48 -315.5q0 -592 -485 -709v-6
q102 -83 178 -129q155 -92 303 -92q84 0 150 29v-21q-48 -52 -129 -88.5t-176 -36.5zM696 23q210 0 305 162t95 499q0 711 -398 711q-207 0 -303 -166t-96 -504q0 -345 99.5 -523.5t297.5 -178.5z" />
    <glyph glyph-name="R" unicode="R" horiz-adv-x="1255" 
d="M25 0v23l75 14q56 12 69 31t13 96v1091q0 77 -13 96t-69 31l-75 15v22h602q238 0 352.5 -84.5t114.5 -255.5q0 -139 -76 -227t-225 -135v-4q228 -429 358 -596q36 -48 57.5 -63.5t51.5 -22.5l36 -8v-23h-344q-179 255 -383 668q-45 0 -151 4v-508q0 -77 12.5 -96
t69.5 -31l73 -14v-23h-548zM547 715q154 0 230.5 79t76.5 253q0 176 -65.5 250.5t-196.5 74.5q-96 0 -174 -16v-631q67 -10 129 -10z" />
    <glyph glyph-name="S" unicode="S" horiz-adv-x="972" 
d="M449 -20q-249 0 -390 69l-26 361h26q76 -166 125 -240q49 -76 113.5 -110.5t167.5 -34.5q124 0 195 72t71 192q0 113 -65.5 181.5t-249.5 158.5q-84 38 -143.5 76t-109.5 87.5t-75 113t-25 141.5q0 169 119.5 281t323.5 112q203 0 317 -56l23 -331h-25q-70 154 -114 217
q-46 72 -91 98.5t-131 26.5q-120 0 -186 -60.5t-66 -173.5q0 -110 59.5 -175t215.5 -138q118 -57 189 -100t125 -96t76 -113.5t22 -141.5q0 -79 -30 -152t-86 -133t-148.5 -96t-206.5 -36z" />
    <glyph glyph-name="T" unicode="T" horiz-adv-x="1169" 
d="M772 1374h-70v-1210q0 -76 13.5 -95.5t75.5 -31.5l75 -14v-23h-561v23l78 14q22 4 34 7t23 9.5t15.5 13.5t8.5 21.5t4.5 31t0.5 44.5v1210h-68q-87 0 -135 -14.5t-68.5 -38.5t-45.5 -76q-44 -88 -107 -248h-25l23 422h1085l21 -422h-25q-55 149 -102 248
q-19 40 -33.5 60.5t-41.5 38.5t-67.5 24t-107.5 6z" />
    <glyph glyph-name="U" unicode="U" horiz-adv-x="1361" 
d="M700 -20q-261 0 -395.5 110t-134.5 359v806q0 34 -2 52.5t-5.5 33t-14 21.5t-23 11t-37.5 9l-78 15v22h551v-22l-74 -15q-58 -12 -71 -31t-13 -96v-819q0 -192 90 -280t281 -88q182 0 265 94.5t83 286.5v768q0 92 -13.5 121t-70.5 40l-94 19v22h408v-22l-80 -19
q-49 -10 -63.5 -40t-14.5 -117v-793q0 -98 -27 -177t-84 -141t-154.5 -96t-228.5 -34z" />
    <glyph glyph-name="V" unicode="V" horiz-adv-x="1257" 
d="M582 0l-432 1196q-38 107 -63 142.5t-71 45.5l-47 13v22h535v-22l-58 -13q-41 -9 -58 -25.5t-17 -45.5q0 -12 3.5 -28t7 -28t12.5 -39.5t14 -41.5l315 -900h6l309 900q31 91 31 133q0 30 -17.5 47t-60.5 26l-65 15v22h360v-22l-39 -13q-56 -20 -77.5 -52.5t-65.5 -155.5
l-416 -1176h-106z" />
    <glyph glyph-name="W" unicode="W" horiz-adv-x="1908" 
d="M1427 299l259 875q22 83 22 126q0 35 -18.5 52t-63.5 30l-61 15v22h368v-22l-35 -13q-61 -20 -89.5 -62.5t-65.5 -168.5l-352 -1153h-105l-313 938h-4l-314 -938h-104l-410 1202q-36 106 -58 138t-71 44l-49 13v22h531v-22l-54 -13q-41 -9 -58 -25t-17 -44q0 -35 34 -139
l293 -881h6l244 735l-59 180q-32 96 -54.5 128.5t-70.5 45.5l-47 13v22h528v-22l-61 -13q-74 -17 -74 -73q0 -30 31 -135l286 -877h6z" />
    <glyph glyph-name="X" unicode="X" horiz-adv-x="1265" 
d="M487 1210l222 -393h4l211 389q45 80 45 121q0 43 -64 57l-53 13v22h356v-22l-28 -8q-59 -17 -91.5 -48.5t-87.5 -123.5l-258 -449l324 -575q55 -95 81.5 -120.5t78.5 -39.5l37 -10v-23h-545v23l61 10q60 5 60 49q0 38 -47 123l-240 424h-4l-246 -416q-49 -82 -49 -121
q0 -45 59 -57l60 -12v-23h-371v23l33 8q56 14 90 44.5t96 125.5l301 481l-313 555q-48 84 -71.5 110t-65.5 39l-37 11v22h543v-22l-80 -17q-29 -6 -42.5 -17.5t-13.5 -33.5q0 -38 45 -119z" />
    <glyph glyph-name="Y" unicode="Y" horiz-adv-x="1198" 
d="M340 0v23l82 14q58 11 72 30.5t14 96.5v422l-367 651q-48 87 -69 111t-60 36l-43 13v22h557v-22l-69 -15q-49 -10 -64.5 -24.5t-15.5 -42.5q0 -37 33 -96l301 -557h6l254 536q30 68 30 111q0 28 -17.5 45.5t-59.5 27.5l-66 15v22h369v-22l-39 -15q-37 -12 -57 -28.5
t-42.5 -53t-64.5 -122.5l-281 -588v-426q0 -28 0.5 -44.5t4.5 -31t8.5 -21.5t15.5 -13.5t23 -9.5t34 -7l78 -14v-23h-567z" />
    <glyph glyph-name="Z" unicode="Z" horiz-adv-x="1146" 
d="M41 0v49l782 1317v8h-170q-118 0 -188.5 -5.5t-111.5 -21.5t-58 -33t-37 -52q-54 -98 -119 -252h-22l28 409h942v-47l-786 -1321v-8h164q102 0 161 1t111.5 7t76.5 12t49.5 23t38 33t34.5 49q46 69 127 258h22l-36 -426h-1008z" />
    <glyph glyph-name="bracketleft" unicode="[" horiz-adv-x="573" 
d="M299 1325v-1413q0 -83 15.5 -107t72.5 -30l166 -19v-22h-401v1769h401v-22l-166 -19q-57 -6 -72.5 -30t-15.5 -107z" />
    <glyph glyph-name="backslash" unicode="\" horiz-adv-x="731" 
d="M664 -266l-650 1769h62l647 -1769h-59z" />
    <glyph glyph-name="bracketright" unicode="]" horiz-adv-x="573" 
d="M274 -88v1413q0 83 -15.5 107t-74.5 30l-164 19v22h402v-1769h-402v22l164 19q59 6 74.5 30t15.5 107z" />
    <glyph glyph-name="asciicircum" unicode="^" horiz-adv-x="710" 
d="M55 973l-18 16l287 453h61l287 -453l-21 -16l-303 246z" />
    <glyph glyph-name="underscore" unicode="_" horiz-adv-x="714" 
d="M-16 -342v53h747v-53h-747z" />
    <glyph glyph-name="grave" unicode="`" 
d="M659 1190l-8 -14l-319 81q-78 20 -78 93q0 40 27 68t65 28q40 0 80 -37z" />
    <glyph glyph-name="a" unicode="a" horiz-adv-x="978" 
d="M338 -27q-139 0 -219 67t-80 185q0 54 18.5 97.5t45.5 71t72.5 50.5t82.5 35t94 27l271 67v224q0 52 -2.5 84t-12.5 65t-29 50.5t-52.5 28.5t-82.5 11q-66 0 -91 -20t-34 -74q-7 -79 -33.5 -110t-82.5 -31q-50 0 -77.5 25.5t-27.5 70.5q0 46 33.5 82.5t89.5 57.5
t122 31.5t138 10.5q182 0 268.5 -67.5t86.5 -202.5v-635q0 -82 41 -106q34 -23 106 -27v-16q-78 -50 -176 -50q-156 0 -174 129h-6q-47 -57 -121.5 -94t-167.5 -37zM430 68q67 0 117 23t76 61v362l-119 -20q-131 -23 -189.5 -73t-58.5 -159q0 -93 45 -143.5t129 -50.5z" />
    <glyph glyph-name="b" unicode="b" horiz-adv-x="1124" 
d="M498 -20q-105 0 -209.5 24t-175.5 66v1273q0 63 -12.5 83t-65.5 42l-64 29v16l353 33l12 -4q-8 -121 -8 -252v-164l-2 -180h4q68 56 158 94.5t182 38.5q83 0 153 -26.5t128 -82.5t91 -156t33 -236q0 -287 -155 -442.5t-422 -155.5zM528 20q158 0 241 126.5t83 400.5
q0 211 -78 314.5t-221 103.5q-19 0 -38.5 -2t-34.5 -4t-33 -6.5t-28.5 -7.5t-27 -9.5t-23 -9t-22 -9.5t-18.5 -8v-813q33 -33 87.5 -54.5t112.5 -21.5z" />
    <glyph glyph-name="c" unicode="c" horiz-adv-x="923" 
d="M514 -25q-218 0 -343.5 137t-125.5 380q0 118 33.5 217.5t89 166t127 113.5t145.5 68.5t148 21.5q145 0 223 -48.5t78 -133.5q0 -104 -113 -104q-54 0 -77.5 28t-34.5 97q-13 69 -31.5 90.5t-79.5 21.5q-121 0 -204 -120t-83 -343q0 -481 352 -481q144 0 265 70v-25
q-48 -61 -149 -108.5t-220 -47.5z" />
    <glyph glyph-name="d" unicode="d" horiz-adv-x="1155" 
d="M469 -20q-69 0 -129 15.5t-114.5 52t-93 92.5t-61 142.5t-22.5 196.5q0 119 31.5 219t85.5 169t126.5 117.5t154 71.5t167.5 23q95 0 181 -28v292q0 58 -11 76.5t-51 38.5l-82 39v16l355 33l12 -4q-8 -96 -8 -252v-1114q0 -60 13 -79t67 -38l55 -18v-18l-334 -43l-16 8
l4 114h-6q-152 -122 -324 -122zM580 84q129 0 215 61v799q-63 90 -195 90q-156 0 -243 -124.5t-87 -377.5q0 -225 80.5 -336.5t229.5 -111.5z" />
    <glyph glyph-name="e" unicode="e" horiz-adv-x="997" 
d="M553 -25q-257 0 -383.5 142t-126.5 399q0 124 40 230t107.5 178.5t158.5 113.5t192 41q201 0 308.5 -118.5t106.5 -366.5h-692v-16q0 -254 93 -371t272 -117q173 0 301 74v-27q-62 -69 -160 -115.5t-217 -46.5zM532 1036q-118 0 -188.5 -99t-79.5 -304l473 18
q0 204 -47 294.5t-158 90.5z" />
    <glyph glyph-name="f" unicode="f" horiz-adv-x="612" 
d="M20 0v20l58 15q52 12 64 28.5t12 75.5v834h-136v16l136 58v98q0 186 119 296.5t305 110.5q97 0 151.5 -35.5t54.5 -93.5q0 -42 -27 -68t-71 -26q-50 0 -74.5 25.5t-36.5 91.5q-5 26 -8.5 37t-13 19.5t-27.5 8.5q-68 0 -113.5 -67t-45.5 -207v-193h215l-11 -71h-204v-834
q0 -56 10.5 -72.5t54.5 -25.5l92 -21v-20h-504z" />
    <glyph glyph-name="g" unicode="g" horiz-adv-x="989" 
d="M418 -399q-201 0 -310.5 58t-109.5 169q0 163 229 225v4q-145 29 -145 160q0 67 43 126t108 93v6q-80 39 -127 111t-47 164q0 88 34.5 159t91.5 114t127 66t145 23q140 0 235 -59q108 102 201 102q50 0 79 -24.5t29 -73.5q0 -38 -20.5 -60t-60.5 -22q-56 0 -74 53
q-19 44 -50.5 44.5t-74.5 -35.5v-5q65 -40 101 -107.5t36 -154.5t-34.5 -155t-92 -109.5t-127.5 -62.5t-147 -21q-114 0 -189 35q-25 -17 -45 -48.5t-20 -62.5q0 -39 29 -57t94 -18h340q303 0 303 -250q0 -68 -33 -134.5t-96.5 -124t-173 -93t-248.5 -35.5zM453 -354
q161 0 263.5 63.5t102.5 181.5q0 83 -48 119.5t-157 36.5h-335q-105 -49 -105 -188q0 -213 279 -213zM457 426q97 0 143.5 67.5t46.5 219.5q0 169 -46.5 246t-143.5 77q-96 0 -142.5 -69.5t-46.5 -223.5q0 -167 46.5 -242t142.5 -75z" />
    <glyph glyph-name="h" unicode="h" horiz-adv-x="1155" 
d="M745 1079q142 0 205.5 -67t63.5 -207v-666q0 -59 11.5 -74.5t64.5 -29.5l59 -15v-20h-481v20l57 13q52 14 64 29.5t12 76.5v633q0 105 -37 148t-125 43q-57 0 -115 -11t-85.5 -20.5t-73.5 -26.5v-766q0 -61 12 -76.5t63 -29.5l58 -13v-20h-480v20l58 15q52 13 63 28.5
t11 75.5v1204q0 63 -12 82.5t-66 42.5l-64 29v16l352 33l13 -4q-8 -115 -8 -252v-346h4q84 57 184.5 96t191.5 39z" />
    <glyph glyph-name="i" unicode="i" horiz-adv-x="518" 
d="M20 0v20l58 15q53 12 64.5 28t11.5 76v725q0 55 -12.5 72.5t-67.5 44.5l-54 31v16l345 45l10 -4q-8 -140 -8 -238v-692q0 -59 13.5 -75.5t68.5 -28.5l53 -15v-20h-482zM127 1343q0 52 35.5 86.5t89.5 34.5q53 0 89 -34.5t36 -86.5q0 -53 -36 -86.5t-89 -33.5
q-55 0 -90 33.5t-35 86.5z" />
    <glyph glyph-name="j" unicode="j" horiz-adv-x="479" 
d="M354 834v-816q0 -201 -95 -312.5t-251 -111.5q-97 0 -147.5 36.5t-50.5 99.5q0 43 27 69.5t75 26.5q46 0 71.5 -28t34.5 -97q4 -38 13 -52t28 -14q36 0 59 42.5t23 123.5v1063q0 57 -12.5 74.5t-67.5 44.5l-53 29v16l344 45l10 -4q-8 -124 -8 -235zM111 1343
q0 52 36 86.5t89 34.5t88.5 -34.5t35.5 -86.5q0 -53 -35.5 -86.5t-88.5 -33.5t-89 33.5t-36 86.5z" />
    <glyph glyph-name="k" unicode="k" horiz-adv-x="1060" 
d="M780 0q-108 116 -194.5 235t-188.5 283v8l234 260q106 118 106 168q0 39 -69 60l-31 10v20h375v-22l-39 -12q-63 -20 -101.5 -45.5t-89.5 -81.5l-223 -244q90 -145 203 -299.5t205 -253.5q22 -25 37.5 -36t44.5 -21l24 -9v-20h-293zM365 1290v-1145q0 -66 12 -83t63 -29
l56 -13v-20h-478v20l58 15q52 12 63 28.5t11 81.5v1205q0 58 -12 76.5t-66 41.5l-64 29v16l352 33l13 -4q-8 -115 -8 -252z" />
    <glyph glyph-name="l" unicode="l" horiz-adv-x="514" 
d="M365 1290v-1145q0 -60 14.5 -79t66.5 -31l54 -15v-20h-482v20l58 15q52 12 64 30.5t12 79.5v1198q0 62 -12.5 82t-67.5 43l-64 29v16l352 33l13 -4q-8 -115 -8 -252z" />
    <glyph glyph-name="m" unicode="m" horiz-adv-x="1742" 
d="M20 0v20l58 15q53 14 64.5 30t11.5 76v721q0 57 -12 74.5t-66 46.5l-51 29v16l329 45l13 -4l-2 -129h2q83 58 185.5 98.5t190.5 40.5q99 0 150 -36t76 -107h6q227 143 381 143q128 0 188 -68.5t60 -207.5v-662q0 -61 10 -76t65 -30l58 -15v-20h-475v20l55 13
q49 14 60.5 29.5t11.5 78.5v629q0 103 -31 147t-113 44q-65 0 -139.5 -18.5t-126.5 -41.5q6 -30 6 -102v-658q0 -58 11.5 -75.5t58.5 -32.5l55 -13v-20h-467v20l55 13q50 14 62 30t12 78v629q0 104 -31 147.5t-112 43.5q-62 0 -135.5 -17t-126.5 -39v-764q0 -62 11.5 -78
t61.5 -30l58 -13v-20h-478z" />
    <glyph glyph-name="n" unicode="n" horiz-adv-x="1157" 
d="M20 0v20l58 15q53 12 64.5 28t11.5 76v727q0 55 -12.5 72t-65.5 45l-51 29v16l329 45l13 -4l-2 -129h2q211 139 381 139q144 0 207 -66.5t63 -207.5v-666q0 -60 11.5 -76t64.5 -28l57 -15v-20h-479v20l57 13q51 12 62.5 28t11.5 78v629q0 107 -35.5 150t-124.5 43
q-23 0 -46 -2t-41 -4t-40.5 -6.5t-35 -7.5t-34 -9.5t-28.5 -9t-28 -9.5t-23 -8v-766q0 -61 12 -77.5t63 -28.5l60 -13v-20h-482z" />
    <glyph glyph-name="o" unicode="o" horiz-adv-x="1118" 
d="M559 -20q-109 0 -201.5 34.5t-163 100.5t-110 171t-39.5 238q0 131 43 238.5t116 175.5t164 104.5t191 36.5q109 0 201 -34t162.5 -100t110.5 -171t40 -239q0 -131 -43.5 -238t-115.5 -175t-163.5 -105t-191.5 -37zM567 20q142 0 209.5 118.5t67.5 369.5q0 278 -71.5 403
t-217.5 125q-140 0 -210.5 -117.5t-70.5 -371.5q0 -278 71.5 -402.5t221.5 -124.5z" />
    <glyph glyph-name="p" unicode="p" horiz-adv-x="1159" 
d="M14 -403v20l58 14q52 13 63.5 30.5t11.5 76.5v1124q0 57 -12.5 75.5t-64.5 45.5l-52 29v16l330 45l14 -4l-6 -119h9q172 129 337 129q190 0 299 -126.5t109 -374.5q0 -286 -156.5 -442t-421.5 -156q-88 0 -174 24q2 -63 2 -133v-133q0 -61 14 -78t70 -29l78 -14v-20h-508
zM563 20q159 0 241.5 126t82.5 399q0 211 -77.5 315.5t-215.5 104.5q-115 0 -234 -56v-815q77 -74 203 -74z" />
    <glyph glyph-name="q" unicode="q" horiz-adv-x="1128" 
d="M635 -403v20l78 14q55 12 68.5 29t13.5 78v217l2 143h-4q-155 -118 -330 -118q-67 0 -126 16t-112.5 53.5t-92 94.5t-61 144t-22.5 197q0 145 48 261t128 187t180 108.5t209 37.5q95 0 165.5 -19.5t140.5 -60.5h6l67 80l15 -6v-1335q0 -60 11 -77t64 -30l58 -14v-20h-506
zM573 82q136 0 222 61v805q-29 38 -80 62t-115 24q-155 0 -242.5 -124.5t-87.5 -377.5q0 -228 78.5 -339t224.5 -111z" />
    <glyph glyph-name="r" unicode="r" horiz-adv-x="800" 
d="M20 0v20l58 15q52 12 64 29t12 77v723q0 56 -12 73t-66 46l-51 29v16l329 45l13 -8l-2 -147h4q174 161 290 161q63 0 97.5 -33t34.5 -92q0 -53 -30.5 -83.5t-78.5 -30.5q-42 0 -65.5 19.5t-41.5 55.5q-11 28 -19.5 37t-27.5 9q-50 0 -161 -84v-736q0 -56 12.5 -75.5
t56.5 -28.5l88 -17v-20h-504z" />
    <glyph glyph-name="s" unicode="s" horiz-adv-x="802" 
d="M367 -20q-175 0 -318 47l-6 299h23q65 -134 86 -168q40 -75 92.5 -106.5t140.5 -31.5q92 0 145.5 52t53.5 139q0 81 -52.5 129t-189.5 102q-148 59 -218.5 133.5t-70.5 194.5q0 137 102.5 223t270.5 86q146 0 268 -47l6 -258h-22q-60 116 -90 162q-35 53 -76 76.5
t-109 23.5q-93 0 -145.5 -49t-52.5 -125q0 -75 55.5 -122t190.5 -101q77 -31 128 -59.5t94.5 -67t64 -88t20.5 -113.5q0 -143 -104 -237t-287 -94z" />
    <glyph glyph-name="t" unicode="t" horiz-adv-x="638" 
d="M365 -20q-114 0 -176 55t-62 168v770h-119v18q103 39 179.5 116t119.5 183h33v-246h274l-8 -71h-266v-762q0 -74 32.5 -104.5t104.5 -30.5q61 0 152 28v-22q-44 -40 -112.5 -71t-151.5 -31z" />
    <glyph glyph-name="u" unicode="u" horiz-adv-x="1148" 
d="M786 156v700q0 62 -10.5 79.5t-62.5 45.5l-54 31v16l330 45l10 -6v-874q0 -67 13.5 -89t64.5 -41l56 -20v-18l-332 -45l-13 4v133h-6q-201 -137 -379 -137q-126 0 -196 68.5t-70 197.5v612q0 59 -11 76.5t-63 46.5l-53 31v16l328 45l12 -6v-780q0 -95 45.5 -143
t130.5 -48q119 0 260 60z" />
    <glyph glyph-name="v" unicode="v" horiz-adv-x="999" 
d="M461 0l-340 870q-28 74 -49 101.5t-58 38.5l-41 14v20h480v-20l-52 -12q-35 -10 -48 -26t-13 -42q0 -25 25 -106l219 -596h6l211 581q30 77 30 123q0 24 -16 38.5t-51 25.5l-51 14v20h315v-20l-31 -10q-50 -17 -71 -45.5t-56 -118.5l-317 -850h-92z" />
    <glyph glyph-name="w" unicode="w" horiz-adv-x="1521" 
d="M1395 850l-295 -850h-86l-240 688h-6l-246 -688h-84l-317 870q-29 76 -49.5 103.5t-55.5 36.5l-43 14v20h461v-20l-45 -10q-34 -8 -45.5 -23.5t-11.5 -40.5q0 -28 26 -112l197 -592h6l187 524l-37 100q-27 76 -48 103.5t-57 38.5l-39 12v20h451v-20l-49 -12
q-36 -10 -49 -26.5t-13 -43.5t23 -106l196 -586h9l192 579q27 85 27 117q0 46 -66 64l-51 14v20h311v-20l-28 -10q-51 -17 -72.5 -45.5t-52.5 -118.5z" />
    <glyph glyph-name="x" unicode="x" horiz-adv-x="1056" 
d="M879 182q56 -85 83 -111.5t74 -41.5l25 -9v-20h-483v20l49 11q27 5 41 15.5t14 31.5q0 32 -51 108l-178 271h-7l-149 -240q-55 -92 -55 -129q0 -23 15.5 -36.5t49.5 -22.5l35 -9v-20h-348v20l53 17q51 15 81 41.5t79 101.5l211 320l-232 362q-56 87 -83 114t-64 38
l-31 10v20h475v-20l-45 -12q-27 -6 -40 -17t-13 -32q0 -34 45 -99l160 -260h6l147 256q31 64 31 92q0 42 -53 58l-51 14v20h334v-20l-50 -16q-41 -12 -73 -45t-78 -111l-178 -289z" />
    <glyph glyph-name="y" unicode="y" horiz-adv-x="985" 
d="M582 260l206 565q27 80 27 121q0 47 -65 64l-50 14v20h314v-20l-33 -12q-42 -13 -65 -45t-58 -119l-362 -959q-63 -163 -137.5 -235t-188.5 -72q-69 0 -111.5 33t-42.5 86q0 46 28 73t75 27q40 0 65.5 -22.5t32.5 -65.5q9 -41 17 -48t22 -7q39 0 88 52.5t86 152.5l41 117
l-352 890q-29 75 -50.5 103t-56.5 37l-39 14v20h476v-20l-54 -14q-33 -9 -46 -24.5t-13 -41.5q0 -34 26 -106l211 -578h9z" />
    <glyph glyph-name="z" unicode="z" horiz-adv-x="946" 
d="M37 0v43l620 948v8h-225q-81 0 -117 -7t-57 -25t-51 -66q-20 -27 -92 -172h-21l15 315h792v-36l-622 -955v-8h206q106 0 160 11t77.5 31t49.5 67q39 62 92 186h21l-23 -340h-825z" />
    <glyph glyph-name="braceleft" unicode="{" horiz-adv-x="610" 
d="M39 602v33q148 14 206 50.5t58 98.5q0 42 -58.5 242.5t-58.5 267.5q0 117 91 160t313 49v-22q-108 -14 -159 -32t-67 -45t-16 -81q0 -79 36 -260.5t36 -235.5q0 -80 -62 -129.5t-208 -76.5v-5q148 -28 209 -78t61 -132q0 -52 -36 -232t-36 -260q0 -41 7.5 -64t33 -43
t72.5 -31.5t129 -21.5v-22q-224 6 -314 49t-90 160q0 67 58.5 267.5t58.5 242.5q0 63 -58.5 100t-205.5 51z" />
    <glyph glyph-name="bar" unicode="|" horiz-adv-x="362" 
d="M154 -266v1769h55v-1769h-55z" />
    <glyph glyph-name="braceright" unicode="}" horiz-adv-x="612" 
d="M571 635v-33q-147 -14 -205.5 -51t-58.5 -100q0 -42 58.5 -242.5t58.5 -267.5q0 -117 -89.5 -160t-314.5 -49v22q82 10 129 21.5t72.5 31.5t33 43t7.5 64q0 80 -36 260t-36 232q0 82 61.5 132t209.5 78v5q-146 27 -208.5 76.5t-62.5 129.5q0 54 36 235.5t36 260.5
q0 54 -16 81t-67 45t-159 32v22q222 -6 313 -49t91 -160q0 -67 -58.5 -267.5t-58.5 -242.5q0 -62 58 -98.5t206 -50.5z" />
    <glyph glyph-name="asciitilde" unicode="~" horiz-adv-x="706" 
d="M66 446l-27 7q19 45 29 67t27 55.5t30.5 49.5t32.5 33.5t40.5 24.5t47.5 7q43 0 141.5 -21.5t136.5 -21.5q40 0 65 23t54 73l25 -10q-27 -63 -43.5 -97t-41.5 -70t-52.5 -51t-63.5 -15q-55 0 -152 20.5t-133 20.5q-39 0 -63 -22.5t-53 -72.5z" />
    <glyph glyph-name="uni00A0" unicode="&#xa0;" horiz-adv-x="395" 
 />
    <glyph glyph-name="exclamdown" unicode="&#xa1;" horiz-adv-x="489" 
d="M113 6l118 856h29l117 -856q17 -88 -20 -137t-111 -49q-77 0 -113.5 48.5t-19.5 137.5zM119 1143q0 52 37 89.5t88 37.5q52 0 89.5 -37t37.5 -90q0 -54 -37 -90.5t-90 -36.5q-52 0 -88.5 37t-36.5 90z" />
    <glyph glyph-name="cent" unicode="&#xa2;" horiz-adv-x="950" 
d="M504 -211v186q-225 6 -345 136.5t-120 367.5q0 107 26.5 198.5t71 157t105 114.5t126 77.5t136.5 40.5v154h51v-148q7 0 22.5 1t22.5 1q147 0 224 -46.5t77 -129.5q0 -104 -108 -104q-52 0 -77 27.5t-36 92.5q-13 67 -34 89t-83 22h-8v-938q40 -4 70 -4q148 0 270 72v-25
q-44 -56 -137 -101.5t-203 -52.5v-188h-51zM268 565q0 -201 56 -317t180 -150v922q-110 -24 -173 -139t-63 -316z" />
    <glyph glyph-name="sterling" unicode="&#xa3;" horiz-adv-x="1032" 
d="M82 715v47h119q-47 184 -47 268q0 100 41 180t112.5 129t162.5 75t196 26q142 0 223.5 -45t81.5 -131q0 -44 -28.5 -70.5t-74.5 -26.5q-58 0 -85.5 29t-39.5 102q-12 63 -31 81t-75 18q-97 0 -163 -77.5t-66 -238.5q0 -93 16 -319h340v-47h-336q8 -132 8 -176
q0 -128 -55.5 -203t-190.5 -141v-7h570q63 0 88.5 24.5t83.5 137.5h22l-47 -350h-874v135q82 42 128.5 80t73.5 94.5t27 134.5q0 79 -49 271h-131z" />
    <glyph glyph-name="yen" unicode="&#xa5;" horiz-adv-x="1163" 
d="M139 625v47h324l-318 565q-46 86 -68 110.5t-63 36.5l-41 13v22h549v-22l-67 -15q-49 -10 -64.5 -24.5t-15.5 -42.5q0 -31 33 -96l268 -498h6l219 477q31 71 31 111q0 31 -17 47t-61 26l-66 15v22h369v-22l-35 -13q-53 -19 -80.5 -53.5t-89.5 -163.5l-237 -495h325v-47
h-331v-158h331v-47h-331v-256q0 -28 0.5 -44.5t4.5 -31t8.5 -21.5t15.5 -13.5t23 -9.5t34 -7l77 -14v-23h-567v23l82 14q58 11 72 30.5t14 96.5v256h-334v47h334v158h-334z" />
    <glyph glyph-name="brokenbar" unicode="&#xa6;" horiz-adv-x="362" 
d="M154 -266v786h55v-786h-55zM154 672v831h55v-831h-55z" />
    <glyph glyph-name="section" unicode="&#xa7;" horiz-adv-x="1054" 
d="M809 80q41 -71 41 -158q0 -143 -112.5 -241.5t-282.5 -98.5q-138 0 -215.5 44t-77.5 118q0 43 26 69.5t74 26.5q54 0 79 -28t34 -91q14 -57 36.5 -76.5t77.5 -19.5q89 0 144 52t55 141q0 96 -58.5 162.5t-247.5 216.5q-13 11 -20 16q-104 83 -160 132.5t-97.5 100
t-55.5 93.5t-14 98q0 95 54.5 166t158.5 133q-43 75 -43 162q0 143 111.5 241.5t283.5 98.5q137 0 214 -44.5t77 -117.5q0 -42 -26 -69t-74 -27q-53 0 -78.5 28t-36.5 90q-12 57 -35 77t-76 20q-92 0 -146 -52t-54 -143q0 -51 14.5 -90.5t52 -81.5t91 -87t142.5 -115
q17 -12 25 -19q202 -157 266 -239.5t64 -188.5q0 -171 -211 -299zM786 111q82 73 82 163q0 74 -62 142t-241 211q-13 11 -60 49t-61.5 50t-49.5 42.5t-51.5 48t-38 42.5t-36.5 48q-82 -73 -82 -164q0 -26 6 -48.5t26 -50.5t34.5 -46t58 -56.5t68 -59t89.5 -73.5q4 -3 6 -5
t5 -4.5t6 -4.5q8 -7 41.5 -34t42.5 -34.5t37 -30.5t38.5 -32.5t32.5 -29t33 -31.5t27 -29t27.5 -32t21.5 -31z" />
    <glyph glyph-name="dieresis" unicode="&#xa8;" 
d="M180 1315q0 52 34.5 85.5t84.5 33.5q52 0 86.5 -33.5t34.5 -85.5q0 -51 -35 -84t-86 -33q-50 0 -84.5 33.5t-34.5 83.5zM518 1315q0 52 34.5 85.5t84.5 33.5q52 0 86.5 -33.5t34.5 -85.5q0 -51 -35 -84t-86 -33q-50 0 -84.5 33.5t-34.5 83.5z" />
    <glyph glyph-name="copyright" unicode="&#xa9;" horiz-adv-x="1568" 
d="M786 281q-170 0 -278.5 105.5t-108.5 313.5q0 92 23.5 167t63 125t94 83.5t115 48.5t126.5 15q134 0 226 -29l12 -244h-29q-47 119 -69 156q-23 42 -58.5 58t-95.5 16q-116 0 -169.5 -87.5t-53.5 -281.5q0 -218 50.5 -311.5t160.5 -93.5q128 0 174 75q31 55 67 164h27
l-14 -229q-104 -51 -263 -51zM57 702q0 150 57 285.5t154 233.5t231.5 155.5t284.5 57.5t285 -57.5t232 -155.5t153.5 -233.5t56.5 -285.5q0 -199 -96 -366.5t-263.5 -265t-367.5 -97.5q-149 0 -284 57.5t-232 155.5t-154 232.5t-57 283.5zM115 702q0 -183 88.5 -338.5
t243 -247t337.5 -91.5q184 0 339 91.5t244 247t89 338.5q0 138 -52.5 263t-142 216t-214.5 145t-263 54q-137 0 -261.5 -54t-213.5 -145t-141.5 -216t-52.5 -263z" />
    <glyph glyph-name="ordfeminine" unicode="&#xaa;" horiz-adv-x="796" 
d="M254 555q-104 0 -161.5 53.5t-57.5 147.5q0 100 61 151t180 78l218 49v170q0 99 -27.5 144t-110.5 45q-49 0 -70 -18.5t-24 -59.5q-5 -61 -27.5 -89t-72.5 -28q-41 0 -63.5 22.5t-22.5 57.5q0 68 80.5 111t226.5 43q293 0 293 -218v-495q0 -36 7 -55t28 -29
q28 -14 82 -14v-19q-23 -17 -67.5 -31t-92.5 -14q-64 0 -97 28.5t-36 71.5h-8q-33 -43 -97 -72.5t-141 -29.5zM338 635q46 0 89.5 20.5t66.5 53.5v272l-99 -10q-90 -11 -134 -53.5t-44 -126.5q0 -77 31.5 -116.5t89.5 -39.5z" />
    <glyph glyph-name="guillemotleft" unicode="&#xab;" horiz-adv-x="786" 
d="M412 115l-346 387v30l346 388h32l-206 -402l206 -403h-32zM713 115l-344 387v30l344 388h32l-206 -402l206 -403h-32z" />
    <glyph glyph-name="registered" unicode="&#xae;" horiz-adv-x="761" 
d="M14 1065q0 153 106 261t259 108q154 0 262.5 -108.5t108.5 -260.5q0 -154 -108.5 -261.5t-262.5 -107.5q-153 0 -259 107.5t-106 261.5zM57 1065q0 -136 94 -232t228 -96q137 0 231.5 95t94.5 233q0 136 -95 233t-231 97q-134 0 -228 -97t-94 -233zM197 877v18l28 4
q11 5 14 11t3 26v270q0 21 -3 27.5t-14 9.5l-26 6v17h180q81 0 118.5 -25t37.5 -78q0 -75 -82 -98v-4q39 -76 88 -141q2 -2 7 -8.5t9.5 -10t9.5 -4.5l21 -2v-18h-117q-41 51 -92 165h-49v-106q0 -20 3 -26t15 -11l27 -4v-18h-178zM330 1069h37q82 0 82 88q0 82 -76 82
l-43 -2v-168z" />
    <glyph glyph-name="macron" unicode="&#xaf;" 
d="M240 1239v92h462v-92h-462z" />
    <glyph glyph-name="degree" unicode="&#xb0;" horiz-adv-x="550" 
d="M31 1194q0 102 70.5 173t172.5 71t173 -71t71 -173q0 -101 -70.5 -171.5t-173.5 -70.5q-102 0 -172.5 70t-70.5 172zM84 1194q0 -82 53.5 -137.5t136.5 -55.5t138 55.5t55 137.5q0 84 -55 140.5t-138 56.5t-136.5 -56.5t-53.5 -140.5z" />
    <glyph glyph-name="twosuperior" unicode="&#xb2;" horiz-adv-x="555" 
d="M8 692v80q7 6 27 21.5t26.5 21t23 19t24.5 20.5t22.5 19.5t24.5 23t23.5 24l27.5 27.5q79 83 110 151.5t31 143.5q0 152 -102 152q-39 0 -54 -15.5t-18 -48.5q-5 -50 -24.5 -72t-59.5 -22q-33 0 -51.5 19t-18.5 49q0 54 65.5 91.5t168.5 37.5q124 0 194 -56t70 -151
q0 -56 -25.5 -106.5t-81 -100.5t-123.5 -95.5t-173 -105.5v-6h293q35 0 51.5 18t40.5 78h20l-18 -217h-494z" />
    <glyph glyph-name="threesuperior" unicode="&#xb3;" horiz-adv-x="552" 
d="M221 680q-98 0 -156.5 34t-58.5 87q0 29 19 46t49 17q32 0 50.5 -18.5t25.5 -59.5q8 -40 22 -53.5t55 -13.5q56 0 90.5 45.5t34.5 120.5q0 82 -33.5 122t-119.5 40h-37v43h43q133 0 133 163q0 142 -98 142q-35 0 -48.5 -12.5t-19.5 -43.5q-8 -48 -25.5 -69t-52.5 -21
q-30 0 -47.5 17.5t-17.5 44.5q0 53 58 88t159 35q111 0 179.5 -48.5t68.5 -130.5q0 -69 -50.5 -116.5t-138.5 -59.5v-6q108 -9 160.5 -53t52.5 -127q0 -87 -75.5 -150t-221.5 -63z" />
    <glyph glyph-name="acute" unicode="&#xb4;" 
d="M272 1176l-8 14l232 219q43 37 82 37q38 0 65 -28t27 -68q0 -73 -78 -93z" />
    <glyph glyph-name="paragraph" unicode="&#xb6;" horiz-adv-x="987" 
d="M508 -205v912q-45 -5 -62 -5q-209 0 -314 97.5t-105 269.5q0 162 107 256t302 94h522v-24l-69 -15q-43 -8 -58.5 -17t-21.5 -32.5t-6 -81.5v-1454h-66v1567h-164v-1567h-65z" />
    <glyph glyph-name="periodcentered" unicode="&#xb7;" horiz-adv-x="372" 
d="M55 690q0 57 37.5 94t93.5 37q55 0 93 -37.5t38 -93.5q0 -54 -38.5 -92.5t-92.5 -38.5q-55 0 -93 38.5t-38 92.5z" />
    <glyph glyph-name="cedilla" unicode="&#xb8;" 
d="M299 -408v21q96 28 139 59t43 74q0 60 -102 68l-6 8l84 178h53l-53 -98q74 -8 117.5 -39.5t43.5 -87.5q0 -73 -85.5 -121t-233.5 -62z" />
    <glyph glyph-name="onesuperior" unicode="&#xb9;" horiz-adv-x="395" 
d="M14 692v21l52 12q31 8 40 21t9 55v465l-101 16v18q163 27 250 127l19 -6v-620q0 -42 9.5 -56t39.5 -20l47 -12v-21h-365z" />
    <glyph glyph-name="ordmasculine" unicode="&#xba;" horiz-adv-x="860" 
d="M430 561q-177 0 -289 110.5t-112 323.5q0 107 33.5 192t90 137.5t127.5 80t150 27.5q177 0 289 -108.5t112 -319.5q0 -105 -33.5 -191t-90 -140t-128 -83t-149.5 -29zM434 602q105 0 154 90.5t49 292.5q0 223 -50.5 316.5t-162.5 93.5q-105 0 -153 -87.5t-48 -287.5
q0 -225 50 -321.5t161 -96.5z" />
    <glyph glyph-name="guillemotright" unicode="&#xbb;" horiz-adv-x="786" 
d="M721 502l-346 -387h-33l207 403l-207 402h33l346 -388v-30zM418 502l-344 -387h-33l207 403l-207 402h33l344 -388v-30z" />
    <glyph glyph-name="onequarter" unicode="&#xbc;" horiz-adv-x="1249" 
d="M864 0v20l51 13q32 6 41 19.5t9 56.5v100h-303v43l368 475h100v-457h113l-8 -61h-105v-100q0 -43 8 -56.5t40 -19.5l51 -13v-20h-365zM14 692v21l52 12q31 8 40 21t9 55v465l-101 16v18q163 27 250 127l19 -6v-620q0 -42 9.5 -56t39.5 -20l47 -12v-21h-365zM68 -102
l1032 1564h63l-1032 -1564h-63zM727 270h238v308h-2z" />
    <glyph glyph-name="onehalf" unicode="&#xbd;" horiz-adv-x="1259" 
d="M713 0v80q130 104 198 176q79 83 110.5 151.5t31.5 143.5q0 151 -103 151q-39 0 -53.5 -15t-17.5 -48q-5 -50 -24.5 -72t-59.5 -22q-33 0 -51.5 18.5t-18.5 48.5q0 54 65 91.5t168 37.5q125 0 195 -55.5t70 -150.5q0 -107 -95.5 -197t-308.5 -211v-6h293q35 0 51.5 18
t40.5 78h21l-19 -217h-493zM14 692v21l52 12q31 8 40 21t9 55v465l-101 16v18q163 27 250 127l19 -6v-620q0 -42 9.5 -56t39.5 -20l47 -12v-21h-365zM25 -102l1032 1564h63l-1032 -1564h-63z" />
    <glyph glyph-name="threequarters" unicode="&#xbe;" horiz-adv-x="1259" 
d="M872 0v20l52 13q32 6 40.5 19.5t8.5 56.5v100h-303v43l368 475h101v-457h112l-8 -61h-104v-100q0 -44 7.5 -57t39.5 -19l51 -13v-20h-365zM221 680q-98 0 -156.5 34t-58.5 87q0 29 19 46t49 17q32 0 50.5 -18.5t25.5 -59.5q8 -40 22 -53.5t55 -13.5q56 0 90.5 45.5
t34.5 120.5q0 82 -33.5 122t-119.5 40h-37v43h43q133 0 133 163q0 142 -98 142q-35 0 -48.5 -12.5t-19.5 -43.5q-8 -48 -25.5 -69t-52.5 -21q-30 0 -47.5 17.5t-17.5 44.5q0 53 58 88t159 35q111 0 179.5 -48.5t68.5 -130.5q0 -69 -50.5 -116.5t-138.5 -59.5v-6
q108 -9 160.5 -53t52.5 -127q0 -87 -75.5 -150t-221.5 -63zM98 -102l1032 1564h64l-1032 -1564h-64zM735 270h238v308h-2z" />
    <glyph glyph-name="questiondown" unicode="&#xbf;" horiz-adv-x="829" 
d="M549 862v-383q-330 -112 -330 -364q0 -116 66 -181t184 -65q42 0 58 19.5t22 68.5q10 71 39.5 100t85.5 29q49 0 73.5 -26.5t24.5 -69.5q0 -79 -84.5 -122.5t-218.5 -43.5q-191 0 -300.5 100t-109.5 271q0 334 430 469v198h60zM639 1147q0 -53 -37 -89t-90 -36
q-52 0 -88.5 36t-36.5 89q0 52 37 89.5t88 37.5q52 0 89.5 -37t37.5 -90z" />
    <glyph glyph-name="Agrave" unicode="&#xc0;" horiz-adv-x="1269" 
d="M-20 0v23l34 10q53 15 76.5 51.5t75.5 181.5l420 1153h110l408 -1177q41 -118 68 -158t71 -51l43 -10v-23h-543v23l48 10q48 11 64.5 30.5t16.5 53.5q0 43 -26 119l-90 278h-439l-79 -233q-35 -101 -35 -156q0 -37 19.5 -57.5t66.5 -32.5l55 -12v-23h-364zM541 1153
l-205 -590h403l-192 590h-6zM829 1497l-6 -16l-340 78q-84 19 -84 92q0 38 25.5 66t64.5 28q40 0 78 -35z" />
    <glyph glyph-name="Aacute" unicode="&#xc1;" horiz-adv-x="1269" 
d="M-20 0v23l34 10q53 15 76.5 51.5t75.5 181.5l420 1153h110l408 -1177q41 -118 68 -158t71 -51l43 -10v-23h-543v23l48 10q48 11 64.5 30.5t16.5 53.5q0 43 -26 119l-90 278h-439l-79 -233q-35 -101 -35 -156q0 -37 19.5 -57.5t66.5 -32.5l55 -12v-23h-364zM541 1153
l-205 -590h403l-192 590h-6zM457 1491l-6 14l262 215q36 33 78 33q40 0 65 -28t25 -66q0 -74 -84 -90z" />
    <glyph glyph-name="Acircumflex" unicode="&#xc2;" horiz-adv-x="1269" 
d="M-20 0v23l34 10q53 15 76.5 51.5t75.5 181.5l420 1153h110l408 -1177q41 -118 68 -158t71 -51l43 -10v-23h-543v23l48 10q48 11 64.5 30.5t16.5 53.5q0 43 -26 119l-90 278h-439l-79 -233q-35 -101 -35 -156q0 -37 19.5 -57.5t66.5 -32.5l55 -12v-23h-364zM541 1153
l-205 -590h403l-192 590h-6zM371 1481l-13 14l242 254h76l239 -254l-10 -14l-266 108z" />
    <glyph glyph-name="Atilde" unicode="&#xc3;" horiz-adv-x="1269" 
d="M-20 0v23l34 10q53 15 76.5 51.5t75.5 181.5l420 1153h110l408 -1177q41 -118 68 -158t71 -51l43 -10v-23h-543v23l48 10q48 11 64.5 30.5t16.5 53.5q0 43 -26 119l-90 278h-439l-79 -233q-35 -101 -35 -156q0 -37 19.5 -57.5t66.5 -32.5l55 -12v-23h-364zM541 1153
l-205 -590h403l-192 590h-6zM788 1530q-46 0 -150 24.5t-146 24.5q-40 0 -63 -17t-52 -65l-21 10q39 113 77.5 165t105.5 52q44 0 146.5 -24.5t141.5 -24.5q41 0 69.5 19t55.5 65l21 -10q-37 -112 -76.5 -165.5t-108.5 -53.5z" />
    <glyph glyph-name="Adieresis" unicode="&#xc4;" horiz-adv-x="1269" 
d="M-20 0v23l34 10q53 15 76.5 51.5t75.5 181.5l420 1153h110l408 -1177q41 -118 68 -158t71 -51l43 -10v-23h-543v23l48 10q48 11 64.5 30.5t16.5 53.5q0 43 -26 119l-90 278h-439l-79 -233q-35 -101 -35 -156q0 -37 19.5 -57.5t66.5 -32.5l55 -12v-23h-364zM541 1153
l-205 -590h403l-192 590h-6zM821 1495q-51 0 -85 33.5t-34 85.5q0 49 34 82t85 33t85 -33t34 -82q0 -52 -34 -85.5t-85 -33.5zM459 1495q-50 0 -83.5 33.5t-33.5 85.5q0 49 33.5 82t83.5 33q52 0 85.5 -32.5t33.5 -82.5q0 -52 -33 -85.5t-86 -33.5z" />
    <glyph glyph-name="Aring" unicode="&#xc5;" horiz-adv-x="1269" 
d="M-20 0v23l34 10q53 15 76.5 51.5t75.5 181.5l420 1153h110l408 -1177q41 -118 68 -158t71 -51l43 -10v-23h-543v23l48 10q48 11 64.5 30.5t16.5 53.5q0 43 -26 119l-90 278h-439l-79 -233q-35 -101 -35 -156q0 -37 19.5 -57.5t66.5 -32.5l55 -12v-23h-364zM541 1153
l-205 -590h403l-192 590h-6zM471 1638q0 70 50 117t122 47t122 -47t50 -117q0 -69 -50 -115t-122 -46t-122 46t-50 115zM526 1638q0 -51 32 -84.5t85 -33.5q52 0 84.5 34t32.5 84q0 51 -33 86t-84 35q-53 0 -85 -35t-32 -86z" />
    <glyph glyph-name="AE" unicode="&#xc6;" horiz-adv-x="1794" 
d="M1747 430l-29 -430h-1050v23l77 14q38 7 53.5 17.5t21 33t5.5 76.5v334h-415l-131 -248q-56 -109 -56 -144q0 -27 19.5 -42t68.5 -29l51 -12v-23h-399v23l41 12q72 24 106.5 61t104.5 164l592 1088q-14 16 -74 32l-76 17v22h1020l23 -358h-23q-71 165 -100 209
q-42 66 -95.5 84t-195.5 18q-138 0 -227 -18v-594h117q89 0 130.5 5.5t62 19.5t36.5 46q20 41 49 152h23v-491h-23q-22 92 -49 151q-22 46 -61.5 58t-167.5 12h-117v-502q0 -33 0.5 -52t5.5 -39t9.5 -29.5t20 -19.5t29.5 -13.5t45 -6.5t60 -3.5t80 -0.5q100 0 152.5 10.5
t77.5 29.5t58 65q7 10 14.5 22.5t13.5 23t13.5 26.5t12 25.5t13 29t12 28t12 31.5t11 29.5t12 32t11.5 30.5h25zM821 1276l-387 -729h391v710v19h-4z" />
    <glyph glyph-name="Ccedilla" unicode="&#xc7;" horiz-adv-x="1220" 
d="M422 -408v21q96 28 139 59t43 74q0 60 -102 68l-6 8l77 164q-118 15 -212 64t-164.5 134t-108 215.5t-37.5 298.5q0 159 38 286t103 211t155.5 140t191 80.5t213.5 24.5q204 0 366 -47l27 -383h-25q-86 180 -116 231q-53 92 -109 123t-164 31q-97 0 -174.5 -38t-136 -116
t-90 -206t-31.5 -298q0 -370 99 -541t296 -171q142 0 208 32.5t118 130.5q17 31 35 71t41 94.5t34 80.5h25l-25 -379q-179 -75 -448 -75q-10 0 -30 1t-29 1l-43 -80q74 -8 117.5 -39.5t43.5 -87.5q0 -73 -85.5 -121t-233.5 -62z" />
    <glyph glyph-name="Egrave" unicode="&#xc8;" horiz-adv-x="1155" 
d="M784 1497l-6 -16l-340 78q-84 19 -84 92q0 38 25.5 66t64.5 28q40 0 78 -35zM836 983v-491h-23q-22 92 -49 151q-20 46 -59.5 58t-167.5 12h-119v-502q0 -34 0.5 -52.5t5.5 -38.5t9.5 -29.5t20 -19.5t30 -13.5t45.5 -6.5t60.5 -3.5t80.5 -0.5q99 0 151 10.5t77.5 29.5
t59.5 65q47 70 125 278h25l-29 -430h-1054v23l75 14q56 12 69 31.5t13 95.5v1091q0 77 -13 96t-69 31l-75 15v22h1013l23 -358h-23q-67 155 -100 209q-42 66 -95.5 84t-195.5 18q-141 0 -229 -18v-594h119q89 0 130.5 5.5t61.5 19.5t35 46q25 45 49 152h23z" />
    <glyph glyph-name="Eacute" unicode="&#xc9;" horiz-adv-x="1155" 
d="M430 1491l-6 14l262 215q36 33 78 33q40 0 65 -28t25 -66q0 -74 -84 -90zM836 983v-491h-23q-22 92 -49 151q-20 46 -59.5 58t-167.5 12h-119v-502q0 -34 0.5 -52.5t5.5 -38.5t9.5 -29.5t20 -19.5t30 -13.5t45.5 -6.5t60.5 -3.5t80.5 -0.5q99 0 151 10.5t77.5 29.5
t59.5 65q47 70 125 278h25l-29 -430h-1054v23l75 14q56 12 69 31.5t13 95.5v1091q0 77 -13 96t-69 31l-75 15v22h1013l23 -358h-23q-67 155 -100 209q-42 66 -95.5 84t-195.5 18q-141 0 -229 -18v-594h119q89 0 130.5 5.5t61.5 19.5t35 46q25 45 49 152h23z" />
    <glyph glyph-name="Ecircumflex" unicode="&#xca;" horiz-adv-x="1155" 
d="M342 1481l-12 14l241 254h76l240 -254l-10 -14l-267 108zM836 983v-491h-23q-22 92 -49 151q-20 46 -59.5 58t-167.5 12h-119v-502q0 -34 0.5 -52.5t5.5 -38.5t9.5 -29.5t20 -19.5t30 -13.5t45.5 -6.5t60.5 -3.5t80.5 -0.5q99 0 151 10.5t77.5 29.5t59.5 65
q47 70 125 278h25l-29 -430h-1054v23l75 14q56 12 69 31.5t13 95.5v1091q0 77 -13 96t-69 31l-75 15v22h1013l23 -358h-23q-67 155 -100 209q-42 66 -95.5 84t-195.5 18q-141 0 -229 -18v-594h119q89 0 130.5 5.5t61.5 19.5t35 46q25 45 49 152h23z" />
    <glyph glyph-name="Edieresis" unicode="&#xcb;" horiz-adv-x="1155" 
d="M836 983v-491h-23q-22 92 -49 151q-20 46 -59.5 58t-167.5 12h-119v-502q0 -34 0.5 -52.5t5.5 -38.5t9.5 -29.5t20 -19.5t30 -13.5t45.5 -6.5t60.5 -3.5t80.5 -0.5q99 0 151 10.5t77.5 29.5t59.5 65q47 70 125 278h25l-29 -430h-1054v23l75 14q56 12 69 31.5t13 95.5
v1091q0 77 -13 96t-69 31l-75 15v22h1013l23 -358h-23q-67 155 -100 209q-42 66 -95.5 84t-195.5 18q-141 0 -229 -18v-594h119q89 0 130.5 5.5t61.5 19.5t35 46q25 45 49 152h23zM420 1495q-50 0 -83.5 33.5t-33.5 85.5q0 49 33.5 82t83.5 33q52 0 85.5 -32.5t33.5 -82.5
q0 -52 -33.5 -85.5t-85.5 -33.5zM782 1495q-51 0 -84.5 33.5t-33.5 85.5q0 50 33.5 82.5t84.5 32.5t85 -33t34 -82q0 -52 -34 -85.5t-85 -33.5z" />
    <glyph glyph-name="Igrave" unicode="&#xcc;" horiz-adv-x="602" 
d="M25 0v23l77 14q25 5 37.5 9t23 11t14 21.5t5.5 33t2 52.5v1091q0 34 -2 52.5t-5.5 33t-14 21.5t-23 11t-37.5 9l-77 15v22h553v-22l-76 -15q-58 -11 -71 -30.5t-13 -96.5v-1091q0 -77 13 -96.5t71 -30.5l76 -14v-23h-553zM494 1497l-7 -16l-340 78q-84 19 -84 92
q0 38 26 66t65 28t77 -35z" />
    <glyph glyph-name="Iacute" unicode="&#xcd;" horiz-adv-x="602" 
d="M25 0v23l77 14q25 5 37.5 9t23 11t14 21.5t5.5 33t2 52.5v1091q0 34 -2 52.5t-5.5 33t-14 21.5t-23 11t-37.5 9l-77 15v22h553v-22l-76 -15q-58 -11 -71 -30.5t-13 -96.5v-1091q0 -77 13 -96.5t71 -30.5l76 -14v-23h-553zM119 1491l-6 14l262 215q36 33 78 33
q40 0 65 -28t25 -66q0 -74 -84 -90z" />
    <glyph glyph-name="Icircumflex" unicode="&#xce;" horiz-adv-x="602" 
d="M25 0v23l77 14q25 5 37.5 9t23 11t14 21.5t5.5 33t2 52.5v1091q0 34 -2 52.5t-5.5 33t-14 21.5t-23 11t-37.5 9l-77 15v22h553v-22l-76 -15q-58 -11 -71 -30.5t-13 -96.5v-1091q0 -77 13 -96.5t71 -30.5l76 -14v-23h-553zM37 1481l-12 14l241 254h76l240 -254l-11 -14
l-266 108z" />
    <glyph glyph-name="Idieresis" unicode="&#xcf;" horiz-adv-x="602" 
d="M25 0v23l77 14q25 5 37.5 9t23 11t14 21.5t5.5 33t2 52.5v1091q0 34 -2 52.5t-5.5 33t-14 21.5t-23 11t-37.5 9l-77 15v22h553v-22l-76 -15q-58 -11 -71 -30.5t-13 -96.5v-1091q0 -77 13 -96.5t71 -30.5l76 -14v-23h-553zM119 1495q-50 0 -83.5 33.5t-33.5 85.5
q0 49 33.5 82t83.5 33q52 0 85.5 -32.5t33.5 -82.5q0 -52 -33 -85.5t-86 -33.5zM481 1495q-51 0 -85 33.5t-34 85.5q0 49 34 82t85 33t85 -33t34 -82q0 -52 -34 -85.5t-85 -33.5z" />
    <glyph glyph-name="Eth" unicode="&#xd0;" horiz-adv-x="1386" 
d="M35 696v49h147v510q0 34 -2 52.5t-5.5 33t-14 21.5t-23 11t-37.5 9l-75 15v22h626q119 0 219 -22t187.5 -73.5t148 -130t95 -197.5t34.5 -271q0 -176 -51 -314.5t-143.5 -228t-220.5 -136t-283 -46.5h-612v23l75 14q25 5 37.5 9t23 11t14 21.5t5.5 33t2 52.5v532h-147z
M623 47q106 0 186.5 31t132.5 85t85 135.5t46.5 175t13.5 210.5q0 364 -108.5 526t-360.5 162q-130 0 -200 -18v-609h366v-49h-366v-493q0 -69 14 -99.5t56 -43.5t135 -13z" />
    <glyph glyph-name="Ntilde" unicode="&#xd1;" horiz-adv-x="1337" 
d="M852 1530q-46 0 -150 24.5t-147 24.5q-40 0 -63 -17t-52 -65l-20 10q39 113 77 165t105 52q44 0 147 -24.5t142 -24.5q41 0 69.5 19t55.5 65l20 -10q-37 -113 -76 -166t-108 -53zM1081 -8l-835 1278h-6v-1067q0 -93 14 -120t72 -42l80 -18v-23h-381v23l77 18
q51 14 65.5 42t14.5 118v1054q0 69 -16 92.5t-66 34.5l-71 15v22h393l676 -1036h6v834q0 92 -14 120t-70 41l-88 19v22h383v-22l-74 -19q-51 -13 -65.5 -42t-14.5 -115v-1229h-80z" />
    <glyph glyph-name="Ograve" unicode="&#xd2;" horiz-adv-x="1394" 
d="M897 1497l-6 -16l-340 78q-84 19 -84 92q0 38 25.5 66t64.5 28q40 0 78 -35zM692 -20q-139 0 -254.5 44.5t-202.5 130.5t-135.5 223t-48.5 312q0 157 36.5 285t98 213t146 143t177 83.5t193.5 25.5q139 0 254.5 -45t202.5 -132.5t135.5 -226.5t48.5 -317
q0 -157 -36.5 -283.5t-98 -210t-146 -140t-176.5 -81t-194 -24.5zM696 25q207 0 303.5 159.5t96.5 499.5q0 711 -398 711q-205 0 -302 -164t-97 -506q0 -348 100.5 -524t296.5 -176z" />
    <glyph glyph-name="Oacute" unicode="&#xd3;" horiz-adv-x="1394" 
d="M516 1491l-6 14l262 215q36 33 78 33q40 0 65 -28t25 -66q0 -74 -84 -90zM692 -20q-139 0 -254.5 44.5t-202.5 130.5t-135.5 223t-48.5 312q0 157 36.5 285t98 213t146 143t177 83.5t193.5 25.5q139 0 254.5 -45t202.5 -132.5t135.5 -226.5t48.5 -317
q0 -157 -36.5 -283.5t-98 -210t-146 -140t-176.5 -81t-194 -24.5zM696 25q207 0 303.5 159.5t96.5 499.5q0 711 -398 711q-205 0 -302 -164t-97 -506q0 -348 100.5 -524t296.5 -176z" />
    <glyph glyph-name="Ocircumflex" unicode="&#xd4;" horiz-adv-x="1394" 
d="M430 1481l-12 14l241 254h76l240 -254l-10 -14l-267 108zM692 -20q-139 0 -254.5 44.5t-202.5 130.5t-135.5 223t-48.5 312q0 157 36.5 285t98 213t146 143t177 83.5t193.5 25.5q139 0 254.5 -45t202.5 -132.5t135.5 -226.5t48.5 -317q0 -157 -36.5 -283.5t-98 -210
t-146 -140t-176.5 -81t-194 -24.5zM696 25q207 0 303.5 159.5t96.5 499.5q0 711 -398 711q-205 0 -302 -164t-97 -506q0 -348 100.5 -524t296.5 -176z" />
    <glyph glyph-name="Otilde" unicode="&#xd5;" horiz-adv-x="1394" 
d="M840 1530q-46 0 -150 24.5t-147 24.5q-40 0 -63 -17t-52 -65l-20 10q39 113 77 165t105 52q44 0 147 -24.5t142 -24.5q41 0 69.5 19t55.5 65l20 -10q-37 -113 -76 -166t-108 -53zM692 -20q-139 0 -254.5 44.5t-202.5 130.5t-135.5 223t-48.5 312q0 157 36.5 285t98 213
t146 143t177 83.5t193.5 25.5q139 0 254.5 -45t202.5 -132.5t135.5 -226.5t48.5 -317q0 -157 -36.5 -283.5t-98 -210t-146 -140t-176.5 -81t-194 -24.5zM696 25q207 0 303.5 159.5t96.5 499.5q0 711 -398 711q-205 0 -302 -164t-97 -506q0 -348 100.5 -524t296.5 -176z" />
    <glyph glyph-name="Odieresis" unicode="&#xd6;" horiz-adv-x="1394" 
d="M514 1495q-50 0 -83.5 33.5t-33.5 85.5q0 49 33.5 82t83.5 33q52 0 85.5 -32.5t33.5 -82.5q0 -52 -33.5 -85.5t-85.5 -33.5zM877 1495q-51 0 -85 33.5t-34 85.5q0 49 34 82t85 33t84.5 -32.5t33.5 -82.5q0 -52 -33.5 -85.5t-84.5 -33.5zM692 -20q-139 0 -254.5 44.5
t-202.5 130.5t-135.5 223t-48.5 312q0 157 36.5 285t98 213t146 143t177 83.5t193.5 25.5q139 0 254.5 -45t202.5 -132.5t135.5 -226.5t48.5 -317q0 -157 -36.5 -283.5t-98 -210t-146 -140t-176.5 -81t-194 -24.5zM696 25q207 0 303.5 159.5t96.5 499.5q0 711 -398 711
q-205 0 -302 -164t-97 -506q0 -348 100.5 -524t296.5 -176z" />
    <glyph glyph-name="multiply" unicode="&#xd7;" horiz-adv-x="870" 
d="M737 1042l39 -38l-303 -320l301 -317l-39 -41l-299 317l-299 -317l-41 41l299 317l-299 320l39 38l301 -317z" />
    <glyph glyph-name="Oslash" unicode="&#xd8;" horiz-adv-x="1394" 
d="M692 -20q-212 0 -360 96l-123 -193h-59l141 221q-114 89 -177 237t-63 349q0 157 36.5 285t98 213t146 143t177 83.5t193.5 25.5q223 0 379 -111l107 166h59l-127 -197q223 -194 223 -579q0 -157 -36.5 -283.5t-98 -210t-146 -140t-176.5 -81t-194 -24.5zM297 725
q0 -314 82 -485l622 966q-101 189 -303 189q-205 0 -303 -164t-98 -506zM696 25q207 0 304.5 159.5t97.5 499.5q0 294 -72 469l-620 -965q102 -163 290 -163z" />
    <glyph glyph-name="Ugrave" unicode="&#xd9;" horiz-adv-x="1361" 
d="M924 1497l-6 -16l-340 78q-84 19 -84 92q0 38 25.5 66t64.5 28q40 0 78 -35zM700 -20q-261 0 -395.5 110t-134.5 359v806q0 34 -2 52.5t-5.5 33t-14 21.5t-23 11t-37.5 9l-78 15v22h551v-22l-74 -15q-58 -12 -71 -31t-13 -96v-819q0 -192 90 -280t281 -88q182 0 265 94.5
t83 286.5v768q0 92 -13.5 121t-70.5 40l-94 19v22h408v-22l-80 -19q-49 -10 -63.5 -40t-14.5 -117v-793q0 -98 -27 -177t-84 -141t-154.5 -96t-228.5 -34z" />
    <glyph glyph-name="Uacute" unicode="&#xda;" horiz-adv-x="1361" 
d="M565 1491l-6 14l262 215q36 33 78 33q40 0 65 -28t25 -66q0 -74 -84 -90zM700 -20q-261 0 -395.5 110t-134.5 359v806q0 34 -2 52.5t-5.5 33t-14 21.5t-23 11t-37.5 9l-78 15v22h551v-22l-74 -15q-58 -12 -71 -31t-13 -96v-819q0 -192 90 -280t281 -88q182 0 265 94.5
t83 286.5v768q0 92 -13.5 121t-70.5 40l-94 19v22h408v-22l-80 -19q-49 -10 -63.5 -40t-14.5 -117v-793q0 -98 -27 -177t-84 -141t-154.5 -96t-228.5 -34z" />
    <glyph glyph-name="Ucircumflex" unicode="&#xdb;" horiz-adv-x="1361" 
d="M465 1481l-12 14l241 254h76l240 -254l-11 -14l-266 108zM700 -20q-261 0 -395.5 110t-134.5 359v806q0 34 -2 52.5t-5.5 33t-14 21.5t-23 11t-37.5 9l-78 15v22h551v-22l-74 -15q-58 -12 -71 -31t-13 -96v-819q0 -192 90 -280t281 -88q182 0 265 94.5t83 286.5v768
q0 92 -13.5 121t-70.5 40l-94 19v22h408v-22l-80 -19q-49 -10 -63.5 -40t-14.5 -117v-793q0 -98 -27 -177t-84 -141t-154.5 -96t-228.5 -34z" />
    <glyph glyph-name="Udieresis" unicode="&#xdc;" horiz-adv-x="1361" 
d="M700 -20q-261 0 -395.5 110t-134.5 359v806q0 34 -2 52.5t-5.5 33t-14 21.5t-23 11t-37.5 9l-78 15v22h551v-22l-74 -15q-58 -12 -71 -31t-13 -96v-819q0 -192 90 -280t281 -88q182 0 265 94.5t83 286.5v768q0 92 -13.5 121t-70.5 40l-94 19v22h408v-22l-80 -19
q-49 -10 -63.5 -40t-14.5 -117v-793q0 -98 -27 -177t-84 -141t-154.5 -96t-228.5 -34zM547 1495q-50 0 -83.5 33.5t-33.5 85.5q0 49 33.5 82t83.5 33q52 0 85.5 -32.5t33.5 -82.5q0 -52 -33 -85.5t-86 -33.5zM909 1495q-51 0 -84.5 33.5t-33.5 85.5q0 50 33.5 82.5
t84.5 32.5t85 -33t34 -82q0 -52 -34 -85.5t-85 -33.5z" />
    <glyph glyph-name="Yacute" unicode="&#xdd;" horiz-adv-x="1198" 
d="M340 0v23l82 14q58 11 72 30.5t14 96.5v422l-367 651q-48 87 -69 111t-60 36l-43 13v22h557v-22l-69 -15q-49 -10 -64.5 -24.5t-15.5 -42.5q0 -37 33 -96l301 -557h6l254 536q30 68 30 111q0 28 -17.5 45.5t-59.5 27.5l-66 15v22h369v-22l-39 -15q-37 -12 -57 -28.5
t-42.5 -53t-64.5 -122.5l-281 -588v-426q0 -28 0.5 -44.5t4.5 -31t8.5 -21.5t15.5 -13.5t23 -9.5t34 -7l78 -14v-23h-567zM492 1491l-7 14l263 215q36 33 77 33q40 0 65 -28t25 -66q0 -74 -84 -90z" />
    <glyph glyph-name="Thorn" unicode="&#xde;" horiz-adv-x="1136" 
d="M25 1419h553v-22l-76 -15q-59 -10 -71.5 -30t-12.5 -97v-122h188q512 0 512 -369q0 -187 -125.5 -300.5t-365.5 -113.5q-99 0 -150 19v22q213 -3 303 75.5t90 274.5q0 188 -65.5 265t-216.5 77q-88 0 -170 -16v-903q0 -76 13.5 -96t72.5 -29l92 -16v-23h-571v23l75 14
q40 8 54.5 17t21 32t6.5 78v1091q0 55 -6.5 78t-21 32t-54.5 17l-75 15v22z" />
    <glyph glyph-name="germandbls" unicode="&#xdf;" horiz-adv-x="1165" 
d="M786 -16q-132 0 -205 41.5t-73 109.5q0 42 24 66t68 24q48 0 70.5 -27t34.5 -92q4 -20 8 -32t13.5 -25t27 -19.5t43.5 -6.5q77 0 123.5 47.5t46.5 128.5q0 69 -46.5 124.5t-150.5 125.5q-125 83 -169 139t-44 133q0 47 23 99t56.5 102t66.5 103t56 120.5t23 136.5
q0 223 -186 223q-115 0 -172 -75t-57 -216v-1079q0 -61 10.5 -77t56.5 -25l47 -13v-20h-461v20l58 15q52 12 64 28.5t12 75.5v834h-136v16l136 58v38q0 102 28.5 183.5t74.5 133.5t109 86t128 48t135 14q161 0 251.5 -69t90.5 -181q0 -58 -32.5 -117t-79 -105.5t-93 -89
t-79 -83.5t-32.5 -74q0 -40 39 -77.5t172 -122.5q75 -49 119 -82.5t81.5 -75t53 -85.5t15.5 -99q0 -129 -95.5 -217t-253.5 -88z" />
    <glyph glyph-name="agrave" unicode="&#xe0;" horiz-adv-x="978" 
d="M338 -27q-139 0 -219 67t-80 185q0 54 18.5 97.5t45.5 71t72.5 50.5t82.5 35t94 27l271 67v224q0 52 -2.5 84t-12.5 65t-29 50.5t-52.5 28.5t-82.5 11q-66 0 -91 -20t-34 -74q-7 -79 -33.5 -110t-82.5 -31q-50 0 -77.5 25.5t-27.5 70.5q0 46 33.5 82.5t89.5 57.5
t122 31.5t138 10.5q182 0 268.5 -67.5t86.5 -202.5v-635q0 -82 41 -106q34 -23 106 -27v-16q-78 -50 -176 -50q-156 0 -174 129h-6q-47 -57 -121.5 -94t-167.5 -37zM430 68q67 0 117 23t76 61v362l-119 -20q-131 -23 -189.5 -73t-58.5 -159q0 -93 45 -143.5t129 -50.5z
M647 1190l-8 -14l-320 81q-77 20 -77 93q0 40 27 68t65 28q40 0 80 -37z" />
    <glyph glyph-name="aacute" unicode="&#xe1;" horiz-adv-x="978" 
d="M338 -27q-139 0 -219 67t-80 185q0 54 18.5 97.5t45.5 71t72.5 50.5t82.5 35t94 27l271 67v224q0 52 -2.5 84t-12.5 65t-29 50.5t-52.5 28.5t-82.5 11q-66 0 -91 -20t-34 -74q-7 -79 -33.5 -110t-82.5 -31q-50 0 -77.5 25.5t-27.5 70.5q0 46 33.5 82.5t89.5 57.5
t122 31.5t138 10.5q182 0 268.5 -67.5t86.5 -202.5v-635q0 -82 41 -106q34 -23 106 -27v-16q-78 -50 -176 -50q-156 0 -174 129h-6q-47 -57 -121.5 -94t-167.5 -37zM430 68q67 0 117 23t76 61v362l-119 -20q-131 -23 -189.5 -73t-58.5 -159q0 -93 45 -143.5t129 -50.5z
M307 1176l-8 14l231 219q43 37 82 37q38 0 65.5 -28t27.5 -68q0 -73 -78 -93z" />
    <glyph glyph-name="acircumflex" unicode="&#xe2;" horiz-adv-x="978" 
d="M338 -27q-139 0 -219 67t-80 185q0 54 18.5 97.5t45.5 71t72.5 50.5t82.5 35t94 27l271 67v224q0 52 -2.5 84t-12.5 65t-29 50.5t-52.5 28.5t-82.5 11q-66 0 -91 -20t-34 -74q-7 -79 -33.5 -110t-82.5 -31q-50 0 -77.5 25.5t-27.5 70.5q0 46 33.5 82.5t89.5 57.5
t122 31.5t138 10.5q182 0 268.5 -67.5t86.5 -202.5v-635q0 -82 41 -106q34 -23 106 -27v-16q-78 -50 -176 -50q-156 0 -174 129h-6q-47 -57 -121.5 -94t-167.5 -37zM430 68q67 0 117 23t76 61v362l-119 -20q-131 -23 -189.5 -73t-58.5 -159q0 -93 45 -143.5t129 -50.5z
M432 1458h74l217 -276l-10 -15l-244 127l-242 -127l-10 15z" />
    <glyph glyph-name="atilde" unicode="&#xe3;" horiz-adv-x="978" 
d="M338 -27q-139 0 -219 67t-80 185q0 54 18.5 97.5t45.5 71t72.5 50.5t82.5 35t94 27l271 67v224q0 52 -2.5 84t-12.5 65t-29 50.5t-52.5 28.5t-82.5 11q-66 0 -91 -20t-34 -74q-7 -79 -33.5 -110t-82.5 -31q-50 0 -77.5 25.5t-27.5 70.5q0 46 33.5 82.5t89.5 57.5
t122 31.5t138 10.5q182 0 268.5 -67.5t86.5 -202.5v-635q0 -82 41 -106q34 -23 106 -27v-16q-78 -50 -176 -50q-156 0 -174 129h-6q-47 -57 -121.5 -94t-167.5 -37zM430 68q67 0 117 23t76 61v362l-119 -20q-131 -23 -189.5 -73t-58.5 -159q0 -93 45 -143.5t129 -50.5z
M236 1182l-21 8q21 59 35 91t34.5 65t46 47t58.5 14q38 0 127 -18.5t119 -18.5q43 0 67.5 18t51.5 62l20 -8q-18 -50 -27.5 -73t-26.5 -57t-32.5 -48t-39.5 -25.5t-54 -11.5q-39 0 -125.5 17.5t-120.5 17.5q-41 0 -63.5 -18t-48.5 -62z" />
    <glyph glyph-name="adieresis" unicode="&#xe4;" horiz-adv-x="978" 
d="M338 -27q-139 0 -219 67t-80 185q0 54 18.5 97.5t45.5 71t72.5 50.5t82.5 35t94 27l271 67v224q0 52 -2.5 84t-12.5 65t-29 50.5t-52.5 28.5t-82.5 11q-66 0 -91 -20t-34 -74q-7 -79 -33.5 -110t-82.5 -31q-50 0 -77.5 25.5t-27.5 70.5q0 46 33.5 82.5t89.5 57.5
t122 31.5t138 10.5q182 0 268.5 -67.5t86.5 -202.5v-635q0 -82 41 -106q34 -23 106 -27v-16q-78 -50 -176 -50q-156 0 -174 129h-6q-47 -57 -121.5 -94t-167.5 -37zM430 68q67 0 117 23t76 61v362l-119 -20q-131 -23 -189.5 -73t-58.5 -159q0 -93 45 -143.5t129 -50.5z
M176 1315q0 52 34.5 85.5t84.5 33.5q52 0 86.5 -33.5t34.5 -85.5q0 -51 -35 -84t-86 -33q-50 0 -84.5 33.5t-34.5 83.5zM514 1315q0 52 34.5 85.5t84.5 33.5q52 0 86.5 -33.5t34.5 -85.5q0 -51 -35 -84t-86 -33q-50 0 -84.5 33.5t-34.5 83.5z" />
    <glyph glyph-name="aring" unicode="&#xe5;" horiz-adv-x="978" 
d="M338 -27q-139 0 -219 67t-80 185q0 54 18.5 97.5t45.5 71t72.5 50.5t82.5 35t94 27l271 67v224q0 52 -2.5 84t-12.5 65t-29 50.5t-52.5 28.5t-82.5 11q-66 0 -91 -20t-34 -74q-7 -79 -33.5 -110t-82.5 -31q-50 0 -77.5 25.5t-27.5 70.5q0 46 33.5 82.5t89.5 57.5
t122 31.5t138 10.5q182 0 268.5 -67.5t86.5 -202.5v-635q0 -82 41 -106q34 -23 106 -27v-16q-78 -50 -176 -50q-156 0 -174 129h-6q-47 -57 -121.5 -94t-167.5 -37zM430 68q67 0 117 23t76 61v362l-119 -20q-131 -23 -189.5 -73t-58.5 -159q0 -93 45 -143.5t129 -50.5z
M297 1337q0 70 50 118t122 48t122 -48t50 -118q0 -69 -50 -115t-122 -46t-122 46t-50 115zM352 1337q0 -51 32 -84.5t85 -33.5q52 0 84.5 34t32.5 84q0 52 -32.5 87.5t-84.5 35.5q-53 0 -85 -35.5t-32 -87.5z" />
    <glyph glyph-name="ae" unicode="&#xe6;" horiz-adv-x="1548" 
d="M698 170q-66 -101 -153 -149t-207 -48q-138 0 -218.5 68t-80.5 186q0 56 18.5 101.5t46 74t72 52.5t83 37.5t93.5 27.5l271 66v211q0 52 -2.5 84t-12.5 65t-29 50.5t-52.5 28.5t-82.5 11q-66 0 -91 -20t-34 -74q-7 -79 -33.5 -110t-82.5 -31q-50 0 -77.5 25.5t-27.5 70.5
q0 61 58.5 104t140 60.5t174.5 17.5q246 0 305 -145q126 145 318 145q418 0 415 -510h-673q1 -251 86.5 -365t253.5 -114q181 0 309 74v-27q-63 -70 -162.5 -116t-228.5 -46q-280 0 -392 195h-4zM1079 1036q-235 0 -243 -428l448 21q0 218 -46 312.5t-159 94.5zM436 68
q84 0 146.5 39.5t99.5 101.5q-59 124 -59 315l-117 -18q-136 -20 -193 -74t-57 -166q0 -96 46.5 -147t133.5 -51z" />
    <glyph glyph-name="ccedilla" unicode="&#xe7;" horiz-adv-x="923" 
d="M260 -408v21q96 28 139 59t43 74q0 60 -102 68l-6 8l76 164q-172 29 -268.5 161.5t-96.5 344.5q0 118 33.5 217.5t89 166t127 113.5t145.5 68.5t148 21.5q145 0 223 -48.5t78 -133.5q0 -104 -113 -104q-54 0 -77.5 28t-34.5 97q-13 69 -31.5 90.5t-79.5 21.5
q-121 0 -204 -120t-83 -343q0 -481 352 -481q144 0 265 70v-25q-48 -61 -149 -108.5t-220 -47.5q-37 0 -55 2l-41 -75q75 -8 118.5 -39.5t43.5 -87.5q0 -73 -86 -121t-234 -62z" />
    <glyph glyph-name="egrave" unicode="&#xe8;" horiz-adv-x="997" 
d="M553 -25q-257 0 -383.5 142t-126.5 399q0 124 40 230t107.5 178.5t158.5 113.5t192 41q201 0 308.5 -118.5t106.5 -366.5h-692v-16q0 -254 93 -371t272 -117q173 0 301 74v-27q-62 -69 -160 -115.5t-217 -46.5zM532 1036q-118 0 -188.5 -99t-79.5 -304l473 18
q0 204 -47 294.5t-158 90.5zM707 1190l-9 -14l-319 81q-78 20 -78 93q0 40 27 68t65 28q40 0 80 -37z" />
    <glyph glyph-name="eacute" unicode="&#xe9;" horiz-adv-x="997" 
d="M553 -25q-257 0 -383.5 142t-126.5 399q0 124 40 230t107.5 178.5t158.5 113.5t192 41q201 0 308.5 -118.5t106.5 -366.5h-692v-16q0 -254 93 -371t272 -117q173 0 301 74v-27q-62 -69 -160 -115.5t-217 -46.5zM532 1036q-118 0 -188.5 -99t-79.5 -304l473 18
q0 204 -47 294.5t-158 90.5zM371 1176l-9 14l232 219q43 37 82 37q38 0 65 -28t27 -68q0 -73 -78 -93z" />
    <glyph glyph-name="ecircumflex" unicode="&#xea;" horiz-adv-x="997" 
d="M553 -25q-257 0 -383.5 142t-126.5 399q0 124 40 230t107.5 178.5t158.5 113.5t192 41q201 0 308.5 -118.5t106.5 -366.5h-692v-16q0 -254 93 -371t272 -117q173 0 301 74v-27q-62 -69 -160 -115.5t-217 -46.5zM532 1036q-118 0 -188.5 -99t-79.5 -304l473 18
q0 204 -47 294.5t-158 90.5zM487 1458h74l217 -276l-10 -15l-244 127l-241 -127l-11 15z" />
    <glyph glyph-name="edieresis" unicode="&#xeb;" horiz-adv-x="997" 
d="M553 -25q-257 0 -383.5 142t-126.5 399q0 124 40 230t107.5 178.5t158.5 113.5t192 41q201 0 308.5 -118.5t106.5 -366.5h-692v-16q0 -254 93 -371t272 -117q173 0 301 74v-27q-62 -69 -160 -115.5t-217 -46.5zM532 1036q-118 0 -188.5 -99t-79.5 -304l473 18
q0 204 -47 294.5t-158 90.5zM582 1315q0 52 34 85.5t84 33.5q52 0 86.5 -33.5t34.5 -85.5q0 -51 -35 -84t-86 -33q-50 0 -84 33t-34 84zM244 1315q0 52 34 85.5t84 33.5q52 0 86.5 -33.5t34.5 -85.5q0 -51 -35 -84t-86 -33q-50 0 -84 33t-34 84z" />
    <glyph glyph-name="igrave" unicode="&#xec;" horiz-adv-x="518" 
d="M20 0v20l58 15q53 12 64.5 28t11.5 76v725q0 55 -12.5 72.5t-67.5 44.5l-54 31v16l345 45l10 -4q-8 -140 -8 -238v-692q0 -59 13.5 -75.5t68.5 -28.5l53 -15v-20h-482zM432 1190l-8 -14l-320 81q-77 20 -77 93q0 40 27 68t65 28q40 0 80 -37z" />
    <glyph glyph-name="iacute" unicode="&#xed;" horiz-adv-x="518" 
d="M74 1176l-8 14l231 219q43 37 82 37q38 0 65 -28t27 -68q0 -73 -78 -93zM20 0v20l58 15q53 12 64.5 28t11.5 76v725q0 55 -12.5 72.5t-67.5 44.5l-54 31v16l345 45l10 -4q-8 -140 -8 -238v-692q0 -59 13.5 -75.5t68.5 -28.5l53 -15v-20h-482z" />
    <glyph glyph-name="icircumflex" unicode="&#xee;" horiz-adv-x="518" 
d="M215 1458h74l217 -276l-10 -15l-244 127l-242 -127l-10 15zM20 0v20l58 15q53 12 64.5 28t11.5 76v725q0 55 -12.5 72.5t-67.5 44.5l-54 31v16l345 45l10 -4q-8 -140 -8 -238v-692q0 -59 13.5 -75.5t68.5 -28.5l53 -15v-20h-482z" />
    <glyph glyph-name="idieresis" unicode="&#xef;" horiz-adv-x="518" 
d="M-31 1315q0 52 34.5 85.5t84.5 33.5q52 0 86.5 -33.5t34.5 -85.5q0 -51 -35 -84t-86 -33q-50 0 -84.5 33.5t-34.5 83.5zM307 1315q0 52 34.5 85.5t84.5 33.5q52 0 86.5 -33.5t34.5 -85.5q0 -51 -35 -84t-86 -33q-50 0 -84.5 33.5t-34.5 83.5zM20 0v20l58 15
q53 12 64.5 28t11.5 76v725q0 55 -12.5 72.5t-67.5 44.5l-54 31v16l345 45l10 -4q-8 -140 -8 -238v-692q0 -59 13.5 -75.5t68.5 -28.5l53 -15v-20h-482z" />
    <glyph glyph-name="eth" unicode="&#xf0;" horiz-adv-x="1114" 
d="M281 1210l-19 39l244 113q-125 106 -270 174l8 25q193 -67 348 -160l248 115l16 -41l-219 -101q430 -285 430 -774q0 -136 -29 -244t-77 -177.5t-114.5 -115t-137.5 -64.5t-150 -19q-110 0 -202.5 34.5t-162.5 100.5t-109.5 171.5t-39.5 239.5q0 105 28.5 196t78 155.5
t114.5 110.5t138.5 68.5t150.5 22.5q61 0 116.5 -21t92.5 -54q-19 73 -77 159t-146 166zM565 20q137 0 204 119.5t67 370.5q0 274 -70 400t-211 126q-138 0 -207 -119t-69 -372q0 -276 71 -400.5t215 -124.5z" />
    <glyph glyph-name="ntilde" unicode="&#xf1;" horiz-adv-x="1157" 
d="M20 0v20l58 15q53 12 64.5 28t11.5 76v727q0 55 -12.5 72t-65.5 45l-51 29v16l329 45l13 -4l-2 -129h2q211 139 381 139q144 0 207 -66.5t63 -207.5v-666q0 -60 11.5 -76t64.5 -28l57 -15v-20h-479v20l57 13q51 12 62.5 28t11.5 78v629q0 107 -35.5 150t-124.5 43
q-23 0 -46 -2t-41 -4t-40.5 -6.5t-35 -7.5t-34 -9.5t-28.5 -9t-28 -9.5t-23 -8v-766q0 -61 12 -77.5t63 -28.5l60 -13v-20h-482zM352 1182l-20 8q21 59 35 91t34.5 65t46 47t58.5 14q38 0 127 -18.5t119 -18.5q43 0 67 17.5t51 62.5l21 -8q-18 -50 -27.5 -73t-26.5 -57
t-32.5 -48t-39.5 -25.5t-54 -11.5q-39 0 -125.5 17.5t-120.5 17.5q-41 0 -64 -18t-49 -62z" />
    <glyph glyph-name="ograve" unicode="&#xf2;" horiz-adv-x="1118" 
d="M559 -20q-109 0 -201.5 34.5t-163 100.5t-110 171t-39.5 238q0 131 43 238.5t116 175.5t164 104.5t191 36.5q109 0 201 -34t162.5 -100t110.5 -171t40 -239q0 -131 -43.5 -238t-115.5 -175t-163.5 -105t-191.5 -37zM567 20q142 0 209.5 118.5t67.5 369.5q0 278 -71.5 403
t-217.5 125q-140 0 -210.5 -117.5t-70.5 -371.5q0 -278 71.5 -402.5t221.5 -124.5zM727 1190l-8 -14l-320 81q-77 20 -77 93q0 40 27 68t65 28q40 0 80 -37z" />
    <glyph glyph-name="oacute" unicode="&#xf3;" horiz-adv-x="1118" 
d="M389 1176l-8 14l231 219q43 37 82 37q38 0 65 -28t27 -68q0 -73 -77 -93zM559 -20q-109 0 -201.5 34.5t-163 100.5t-110 171t-39.5 238q0 131 43 238.5t116 175.5t164 104.5t191 36.5q109 0 201 -34t162.5 -100t110.5 -171t40 -239q0 -131 -43.5 -238t-115.5 -175
t-163.5 -105t-191.5 -37zM567 20q142 0 209.5 118.5t67.5 369.5q0 278 -71.5 403t-217.5 125q-140 0 -210.5 -117.5t-70.5 -371.5q0 -278 71.5 -402.5t221.5 -124.5z" />
    <glyph glyph-name="ocircumflex" unicode="&#xf4;" horiz-adv-x="1118" 
d="M518 1458h74l217 -276l-10 -15l-244 127l-242 -127l-10 15zM559 -20q-109 0 -201.5 34.5t-163 100.5t-110 171t-39.5 238q0 131 43 238.5t116 175.5t164 104.5t191 36.5q109 0 201 -34t162.5 -100t110.5 -171t40 -239q0 -131 -43.5 -238t-115.5 -175t-163.5 -105
t-191.5 -37zM567 20q142 0 209.5 118.5t67.5 369.5q0 278 -71.5 403t-217.5 125q-140 0 -210.5 -117.5t-70.5 -371.5q0 -278 71.5 -402.5t221.5 -124.5z" />
    <glyph glyph-name="otilde" unicode="&#xf5;" horiz-adv-x="1118" 
d="M559 -20q-109 0 -201.5 34.5t-163 100.5t-110 171t-39.5 238q0 131 43 238.5t116 175.5t164 104.5t191 36.5q109 0 201 -34t162.5 -100t110.5 -171t40 -239q0 -131 -43.5 -238t-115.5 -175t-163.5 -105t-191.5 -37zM567 20q142 0 209.5 118.5t67.5 369.5q0 278 -71.5 403
t-217.5 125q-140 0 -210.5 -117.5t-70.5 -371.5q0 -278 71.5 -402.5t221.5 -124.5zM309 1182l-20 8q21 59 35 91t34.5 65t46 47t58.5 14q38 0 127 -18.5t119 -18.5q43 0 67 17.5t51 62.5l21 -8q-18 -50 -27.5 -73t-26.5 -57t-32.5 -48t-39.5 -25.5t-54 -11.5
q-39 0 -125.5 17.5t-120.5 17.5q-41 0 -64 -18t-49 -62z" />
    <glyph glyph-name="odieresis" unicode="&#xf6;" horiz-adv-x="1118" 
d="M270 1315q0 52 34.5 85.5t84.5 33.5q52 0 86.5 -33.5t34.5 -85.5q0 -51 -35 -84t-86 -33q-50 0 -84.5 33.5t-34.5 83.5zM608 1315q0 52 34.5 85.5t84.5 33.5q52 0 86.5 -33.5t34.5 -85.5q0 -51 -35 -84t-86 -33q-50 0 -84.5 33.5t-34.5 83.5zM559 -20q-109 0 -201.5 34.5
t-163 100.5t-110 171t-39.5 238q0 131 43 238.5t116 175.5t164 104.5t191 36.5q109 0 201 -34t162.5 -100t110.5 -171t40 -239q0 -131 -43.5 -238t-115.5 -175t-163.5 -105t-191.5 -37zM567 20q142 0 209.5 118.5t67.5 369.5q0 278 -71.5 403t-217.5 125
q-140 0 -210.5 -117.5t-70.5 -371.5q0 -278 71.5 -402.5t221.5 -124.5z" />
    <glyph glyph-name="divide" unicode="&#xf7;" horiz-adv-x="899" 
d="M72 672v53h757v-53h-757zM446 258q-47 0 -80.5 35.5t-33.5 83.5q0 50 33 83.5t81 33.5t82.5 -33.5t34.5 -83.5q0 -47 -35 -83t-82 -36zM446 901q-46 0 -80 36t-34 83q0 50 33 83.5t81 33.5t82.5 -33.5t34.5 -83.5q0 -46 -35 -82.5t-82 -36.5z" />
    <glyph glyph-name="oslash" unicode="&#xf8;" horiz-adv-x="1118" 
d="M559 -20q-155 0 -274 67l-95 -156h-57l111 183q-199 145 -199 450q0 131 43 238.5t116 175.5t164 104.5t191 36.5q149 0 262 -61l78 127h55l-92 -152q99 -67 155 -183t56 -275q0 -131 -43.5 -238t-115.5 -175t-163.5 -105t-191.5 -37zM567 20q142 0 210.5 118.5
t68.5 369.5q0 234 -55 369l-447 -734q70 -123 223 -123zM272 547q0 -233 47 -350l447 729q-71 110 -211 110t-211.5 -117.5t-71.5 -371.5z" />
    <glyph glyph-name="ugrave" unicode="&#xf9;" horiz-adv-x="1148" 
d="M793 156v700q0 61 -10.5 79t-63.5 46l-53 31v16l329 45l11 -6v-874q0 -68 13.5 -89.5t63.5 -40.5l56 -20v-18l-332 -45l-12 4v133h-7q-201 -137 -378 -137q-126 0 -196.5 68.5t-70.5 197.5v612q0 43 -5.5 62t-18 29.5t-49.5 31.5l-54 31v16l328 45l12 -6v-780
q0 -95 45.5 -143t130.5 -48q120 0 261 60zM745 1190l-8 -14l-319 81q-78 20 -78 93q0 40 27 68t65 28q40 0 80 -37z" />
    <glyph glyph-name="uacute" unicode="&#xfa;" horiz-adv-x="1148" 
d="M397 1176l-8 14l232 219q43 37 81 37t65.5 -28t27.5 -68q0 -73 -78 -93zM793 156v700q0 61 -10.5 79t-63.5 46l-53 31v16l329 45l11 -6v-874q0 -68 13.5 -89.5t63.5 -40.5l56 -20v-18l-332 -45l-12 4v133h-7q-201 -137 -378 -137q-126 0 -196.5 68.5t-70.5 197.5v612
q0 43 -5.5 62t-18 29.5t-49.5 31.5l-54 31v16l328 45l12 -6v-780q0 -95 45.5 -143t130.5 -48q120 0 261 60z" />
    <glyph glyph-name="ucircumflex" unicode="&#xfb;" horiz-adv-x="1148" 
d="M524 1458h74l217 -276l-10 -15l-244 127l-242 -127l-10 15zM793 156v700q0 61 -10.5 79t-63.5 46l-53 31v16l329 45l11 -6v-874q0 -68 13.5 -89.5t63.5 -40.5l56 -20v-18l-332 -45l-12 4v133h-7q-201 -137 -378 -137q-126 0 -196.5 68.5t-70.5 197.5v612q0 43 -5.5 62
t-18 29.5t-49.5 31.5l-54 31v16l328 45l12 -6v-780q0 -95 45.5 -143t130.5 -48q120 0 261 60z" />
    <glyph glyph-name="udieresis" unicode="&#xfc;" horiz-adv-x="1148" 
d="M266 1315q0 52 34.5 85.5t84.5 33.5q52 0 86.5 -33.5t34.5 -85.5q0 -51 -35 -84t-86 -33q-50 0 -84.5 33.5t-34.5 83.5zM604 1315q0 52 34.5 85.5t84.5 33.5q52 0 86.5 -33.5t34.5 -85.5q0 -51 -35 -84t-86 -33q-50 0 -84.5 33.5t-34.5 83.5zM793 156v700q0 61 -10.5 79
t-63.5 46l-53 31v16l329 45l11 -6v-874q0 -68 13.5 -89.5t63.5 -40.5l56 -20v-18l-332 -45l-12 4v133h-7q-201 -137 -378 -137q-126 0 -196.5 68.5t-70.5 197.5v612q0 43 -5.5 62t-18 29.5t-49.5 31.5l-54 31v16l328 45l12 -6v-780q0 -95 45.5 -143t130.5 -48q120 0 261 60z
" />
    <glyph glyph-name="yacute" unicode="&#xfd;" horiz-adv-x="985" 
d="M582 260l206 565q27 80 27 121q0 47 -65 64l-50 14v20h314v-20l-33 -12q-42 -13 -65 -45t-58 -119l-362 -959q-63 -163 -137.5 -235t-188.5 -72q-69 0 -111.5 33t-42.5 86q0 46 28 73t75 27q40 0 65.5 -22.5t32.5 -65.5q9 -41 17 -48t22 -7q39 0 88 52.5t86 152.5l41 117
l-352 890q-29 75 -50.5 103t-56.5 37l-39 14v20h476v-20l-54 -14q-33 -9 -46 -24.5t-13 -41.5q0 -34 26 -106l211 -578h9zM383 1176l-8 14l231 219q43 37 82 37q38 0 65 -28t27 -68q0 -73 -78 -93z" />
    <glyph glyph-name="thorn" unicode="&#xfe;" horiz-adv-x="1146" 
d="M553 20q159 0 241.5 126t82.5 399q0 211 -77.5 315.5t-215.5 104.5q-54 0 -103.5 -10.5t-72 -19.5t-58.5 -26v-815q77 -74 203 -74zM350 1290v-203l-2 -137h6q172 129 338 129q190 0 299 -126.5t109 -374.5q0 -286 -156.5 -442t-421.5 -156q-88 0 -174 24q2 -63 2 -133
v-133q0 -61 14 -78t70 -29l78 -14v-20h-508v20l57 14q52 13 64 30.5t12 76.5v1605q0 64 -12 83.5t-66 41.5l-65 29v16l352 33l12 -4q-8 -115 -8 -252z" />
    <glyph glyph-name="ydieresis" unicode="&#xff;" horiz-adv-x="985" 
d="M582 260l206 565q27 80 27 121q0 47 -65 64l-50 14v20h314v-20l-33 -12q-42 -13 -65 -45t-58 -119l-362 -959q-63 -163 -137.5 -235t-188.5 -72q-69 0 -111.5 33t-42.5 86q0 46 28 73t75 27q40 0 65.5 -22.5t32.5 -65.5q9 -41 17 -48t22 -7q39 0 88 52.5t86 152.5l41 117
l-352 890q-29 75 -50.5 103t-56.5 37l-39 14v20h476v-20l-54 -14q-33 -9 -46 -24.5t-13 -41.5q0 -34 26 -106l211 -578h9zM246 1315q0 52 34.5 85.5t84.5 33.5q51 0 85.5 -33.5t34.5 -85.5q0 -51 -34.5 -84t-85.5 -33q-50 0 -84.5 33.5t-34.5 83.5zM584 1315q0 52 34 85.5
t84 33.5q52 0 86.5 -33.5t34.5 -85.5q0 -51 -35 -84t-86 -33q-50 0 -84 33t-34 84z" />
    <glyph glyph-name="Amacron" unicode="&#x100;" horiz-adv-x="1269" 
d="M-20 0v23l34 10q53 15 76.5 51.5t75.5 181.5l420 1153h110l408 -1177q41 -118 68 -158t71 -51l43 -10v-23h-543v23l48 10q48 11 64.5 30.5t16.5 53.5q0 43 -26 119l-90 278h-439l-79 -233q-35 -101 -35 -156q0 -37 19.5 -57.5t66.5 -32.5l55 -12v-23h-364zM541 1153
l-205 -590h403l-192 590h-6zM383 1544v94h498v-94h-498z" />
    <glyph glyph-name="amacron" unicode="&#x101;" horiz-adv-x="978" 
d="M338 -27q-139 0 -219 67t-80 185q0 54 18.5 97.5t45.5 71t72.5 50.5t82.5 35t94 27l271 67v224q0 52 -2.5 84t-12.5 65t-29 50.5t-52.5 28.5t-82.5 11q-66 0 -91 -20t-34 -74q-7 -79 -33.5 -110t-82.5 -31q-50 0 -77.5 25.5t-27.5 70.5q0 46 33.5 82.5t89.5 57.5
t122 31.5t138 10.5q182 0 268.5 -67.5t86.5 -202.5v-635q0 -82 41 -106q34 -23 106 -27v-16q-78 -50 -176 -50q-156 0 -174 129h-6q-47 -57 -121.5 -94t-167.5 -37zM430 68q67 0 117 23t76 61v362l-119 -20q-131 -23 -189.5 -73t-58.5 -159q0 -93 45 -143.5t129 -50.5z
M240 1239v92h462v-92h-462z" />
    <glyph glyph-name="Abreve" unicode="&#x102;" horiz-adv-x="1269" 
d="M-20 0v23l34 10q53 15 76.5 51.5t75.5 181.5l420 1153h110l408 -1177q41 -118 68 -158t71 -51l43 -10v-23h-543v23l48 10q48 11 64.5 30.5t16.5 53.5q0 43 -26 119l-90 278h-439l-79 -233q-35 -101 -35 -156q0 -37 19.5 -57.5t66.5 -32.5l55 -12v-23h-364zM541 1153
l-205 -590h403l-192 590h-6zM635 1495q-60 0 -105 21t-72 58t-41.5 80t-19.5 95l17 4q29 -62 79 -91.5t140 -29.5q89 0 136.5 30.5t78.5 90.5l14 -4q-4 -69 -27.5 -124t-75 -92.5t-124.5 -37.5z" />
    <glyph glyph-name="abreve" unicode="&#x103;" horiz-adv-x="978" 
d="M338 -27q-139 0 -219 67t-80 185q0 54 18.5 97.5t45.5 71t72.5 50.5t82.5 35t94 27l271 67v224q0 52 -2.5 84t-12.5 65t-29 50.5t-52.5 28.5t-82.5 11q-66 0 -91 -20t-34 -74q-7 -79 -33.5 -110t-82.5 -31q-50 0 -77.5 25.5t-27.5 70.5q0 46 33.5 82.5t89.5 57.5
t122 31.5t138 10.5q182 0 268.5 -67.5t86.5 -202.5v-635q0 -82 41 -106q34 -23 106 -27v-16q-78 -50 -176 -50q-156 0 -174 129h-6q-47 -57 -121.5 -94t-167.5 -37zM430 68q67 0 117 23t76 61v362l-119 -20q-131 -23 -189.5 -73t-58.5 -159q0 -93 45 -143.5t129 -50.5z
M475 1186q-111 0 -166 69t-61 185l16 4q23 -60 77.5 -91.5t131.5 -31.5q73 0 125 33t78 90l16 -4q-5 -113 -61 -183.5t-156 -70.5z" />
    <glyph glyph-name="Aogonek" unicode="&#x104;" horiz-adv-x="1269" 
d="M1286 0h-178q-155 0 -227 -67t-72 -173q0 -53 30.5 -78.5t82.5 -25.5q44 0 75 14v-20q-24 -28 -68.5 -47t-92.5 -19q-92 0 -141.5 40t-49.5 110q0 78 69.5 151.5t209.5 114.5l-168 514h-437l-81 -233q-35 -101 -35 -156q0 -37 19.5 -57.5t66.5 -32.5l55 -12v-23h-364v23
l34 10q53 15 76.5 51.5t75.5 181.5l420 1153h110l408 -1177q41 -118 68 -158t71 -51l43 -10v-23zM547 1153h-6l-205 -590h403z" />
    <glyph glyph-name="aogonek" unicode="&#x105;" horiz-adv-x="978" 
d="M625 -268q0 146 241 252q-30 -9 -61 -9q-154 0 -172 129h-6q-47 -57 -121.5 -94t-167.5 -37q-139 0 -219 67t-80 185q0 54 18.5 97.5t45.5 71t72.5 50.5t82.5 35t94 27l271 67v224q0 52 -2.5 84t-12.5 65t-29 50.5t-52.5 28.5t-82.5 11q-66 0 -91 -20t-34 -74
q-7 -79 -33.5 -110t-82.5 -31q-50 0 -77.5 25.5t-27.5 70.5q0 46 33.5 82.5t89.5 57.5t122 31.5t138 10.5q182 0 268.5 -67.5t86.5 -202.5v-635q0 -82 41 -106q34 -23 106 -27v-14q-195 -125 -195 -267q0 -104 113 -104q44 0 76 14v-20q-25 -28 -69 -47t-91 -19
q-92 0 -142 39t-50 109zM430 68q67 0 117 23t76 61v362l-119 -18q-131 -19 -189.5 -71t-58.5 -161q0 -94 45 -145t129 -51z" />
    <glyph glyph-name="Cacute" unicode="&#x106;" horiz-adv-x="1220" 
d="M682 -20q-141 0 -254 41t-198.5 126t-132 224.5t-46.5 326.5q0 159 38 286t103 211t155.5 140t191 80.5t213.5 24.5q204 0 366 -47l27 -383h-25q-86 180 -116 231q-53 92 -109 123t-164 31q-97 0 -174.5 -38t-136 -116t-90 -206t-31.5 -298q0 -370 99 -541t296 -171
q142 0 208 32.5t118 130.5q17 31 35 71t41 94.5t34 80.5h25l-25 -379q-179 -75 -448 -75zM510 1491l-6 14l262 215q36 33 78 33q40 0 65 -28t25 -66q0 -74 -84 -90z" />
    <glyph glyph-name="cacute" unicode="&#x107;" horiz-adv-x="923" 
d="M375 1176l-8 14l231 219q43 37 82 37q38 0 65 -28t27 -68q0 -73 -78 -93zM514 -25q-218 0 -343.5 137t-125.5 380q0 118 33.5 217.5t89 166t127 113.5t145.5 68.5t148 21.5q145 0 223 -48.5t78 -133.5q0 -104 -113 -104q-54 0 -77.5 28t-34.5 97q-13 69 -31.5 90.5
t-79.5 21.5q-121 0 -204 -120t-83 -343q0 -481 352 -481q144 0 265 70v-25q-48 -61 -149 -108.5t-220 -47.5z" />
    <glyph glyph-name="Ccircumflex" unicode="&#x108;" horiz-adv-x="1220" 
d="M420 1481l-12 14l241 254h76l240 -254l-11 -14l-266 108zM682 -20q-141 0 -254 41t-198.5 126t-132 224.5t-46.5 326.5q0 159 38 286t103 211t155.5 140t191 80.5t213.5 24.5q204 0 366 -47l27 -383h-25q-86 180 -116 231q-53 92 -109 123t-164 31q-97 0 -174.5 -38
t-136 -116t-90 -206t-31.5 -298q0 -370 99 -541t296 -171q142 0 208 32.5t118 130.5q17 31 35 71t41 94.5t34 80.5h25l-25 -379q-179 -75 -448 -75z" />
    <glyph glyph-name="ccircumflex" unicode="&#x109;" horiz-adv-x="923" 
d="M492 1458h73l217 -276l-10 -15l-244 127l-241 -127l-11 15zM514 -25q-218 0 -343.5 137t-125.5 380q0 118 33.5 217.5t89 166t127 113.5t145.5 68.5t148 21.5q145 0 223 -48.5t78 -133.5q0 -104 -113 -104q-54 0 -77.5 28t-34.5 97q-13 69 -31.5 90.5t-79.5 21.5
q-121 0 -204 -120t-83 -343q0 -481 352 -481q144 0 265 70v-25q-48 -61 -149 -108.5t-220 -47.5z" />
    <glyph glyph-name="Cdotaccent" unicode="&#x10a;" horiz-adv-x="1220" 
d="M682 -20q-141 0 -254 41t-198.5 126t-132 224.5t-46.5 326.5q0 159 38 286t103 211t155.5 140t191 80.5t213.5 24.5q204 0 366 -47l27 -383h-25q-86 180 -116 231q-53 92 -109 123t-164 31q-97 0 -174.5 -38t-136 -116t-90 -206t-31.5 -298q0 -370 99 -541t296 -171
q142 0 208 32.5t118 130.5q17 31 35 71t41 94.5t34 80.5h25l-25 -379q-179 -75 -448 -75zM705 1499q-54 0 -93 36t-39 87q0 52 38.5 87.5t93.5 35.5q53 0 88.5 -35.5t35.5 -87.5q0 -51 -36 -87t-88 -36z" />
    <glyph glyph-name="cdotaccent" unicode="&#x10b;" horiz-adv-x="923" 
d="M514 -25q-218 0 -343.5 137t-125.5 380q0 118 33.5 217.5t89 166t127 113.5t145.5 68.5t148 21.5q145 0 223 -48.5t78 -133.5q0 -104 -113 -104q-54 0 -77.5 28t-34.5 97q-13 69 -31.5 90.5t-79.5 21.5q-121 0 -204 -120t-83 -343q0 -481 352 -481q144 0 265 70v-25
q-48 -61 -149 -108.5t-220 -47.5zM410 1309q0 54 37.5 89.5t91.5 35.5t91.5 -35.5t37.5 -89.5t-37.5 -89.5t-91.5 -35.5t-91.5 35.5t-37.5 89.5z" />
    <glyph glyph-name="Ccaron" unicode="&#x10c;" horiz-adv-x="1220" 
d="M422 1745l12 14l268 -108l267 108l10 -14l-240 -254h-75zM682 -20q-141 0 -254 41t-198.5 126t-132 224.5t-46.5 326.5q0 159 38 286t103 211t155.5 140t191 80.5t213.5 24.5q204 0 366 -47l27 -383h-25q-86 180 -116 231q-53 92 -109 123t-164 31q-97 0 -174.5 -38
t-136 -116t-90 -206t-31.5 -298q0 -370 99 -541t296 -171q142 0 208 32.5t118 130.5q17 31 35 71t41 94.5t34 80.5h25l-25 -379q-179 -75 -448 -75z" />
    <glyph glyph-name="ccaron" unicode="&#x10d;" horiz-adv-x="923" 
d="M571 1180h-73l-215 276l10 14l242 -124l243 124l10 -14zM514 -25q-218 0 -343.5 137t-125.5 380q0 118 33.5 217.5t89 166t127 113.5t145.5 68.5t148 21.5q145 0 223 -48.5t78 -133.5q0 -104 -113 -104q-54 0 -77.5 28t-34.5 97q-13 69 -31.5 90.5t-79.5 21.5
q-121 0 -204 -120t-83 -343q0 -481 352 -481q144 0 265 70v-25q-48 -61 -149 -108.5t-220 -47.5z" />
    <glyph glyph-name="Dcaron" unicode="&#x10e;" horiz-adv-x="1386" 
d="M383 1745l12 14l269 -108l266 108l10 -14l-240 -254h-75zM25 0v23l75 14q25 5 37.5 9t23 11t14 21.5t5.5 33t2 52.5v1091q0 34 -2 52.5t-5.5 33t-14 21.5t-23 11t-37.5 9l-75 15v22h626q119 0 219 -22t187.5 -73.5t148 -130t95 -197.5t34.5 -271q0 -176 -51 -314.5
t-143.5 -228t-220.5 -136t-283 -46.5h-612zM623 45q106 0 186.5 31t132.5 85.5t85 136t46.5 175.5t13.5 211q0 364 -108.5 526t-360.5 162q-137 0 -200 -16v-1155q0 -69 14 -99.5t56 -43.5t135 -13z" />
    <glyph glyph-name="dcaron" unicode="&#x10f;" horiz-adv-x="1155" 
d="M469 -20q-69 0 -129 15.5t-114.5 52t-93 92.5t-61 142.5t-22.5 196.5q0 119 31.5 219t85.5 169t126.5 117.5t154 71.5t167.5 23q95 0 181 -28v292q0 58 -11 76.5t-51 38.5l-82 39v16l355 33l12 -4q-8 -96 -8 -252v-1114q0 -60 13 -79t67 -38l55 -18v-18l-334 -43l-16 8
l4 114h-6q-152 -122 -324 -122zM580 84q129 0 215 61v799q-63 90 -195 90q-156 0 -243 -124.5t-87 -377.5q0 -225 80.5 -336.5t229.5 -111.5zM1110 1198l-16 4l8 264q0 88 76 88q39 0 63.5 -21t26.5 -54q0 -29 -27 -74z" />
    <glyph glyph-name="Dcroat" unicode="&#x110;" horiz-adv-x="1386" 
d="M39 694v51h143v510q0 34 -2 52.5t-5.5 33t-14 21.5t-23 11t-37.5 9l-75 15v22h626q119 0 219 -22t187.5 -73.5t148 -130t95 -197.5t34.5 -271q0 -176 -51 -314.5t-143.5 -228t-220.5 -136t-283 -46.5h-612v23l75 14q25 5 37.5 9t23 11t14 21.5t5.5 33t2 52.5v530h-143z
M623 45q106 0 186.5 31t132.5 85.5t85 136t46.5 175.5t13.5 211q0 364 -108.5 526t-360.5 162q-137 0 -200 -16v-611h364v-51h-364v-493q0 -69 14 -99.5t56 -43.5t135 -13z" />
    <glyph glyph-name="dcroat" unicode="&#x111;" horiz-adv-x="1155" 
d="M1008 1245l2 -1069q0 -60 13 -79t67 -38l55 -18v-18l-334 -43l-16 8l4 114h-6q-152 -122 -324 -122q-69 0 -129 15.5t-114.5 52t-93 92.5t-61 142.5t-22.5 196.5q0 119 31.5 219t85.5 169t126.5 117.5t154 71.5t167.5 23q95 0 181 -28v194h-340v51h340v52q0 55 -11 72.5
t-51 37.5l-82 39v16l355 33l12 -4q-10 -94 -10 -246h135v-51h-135zM580 84q129 0 215 61v799q-63 90 -195 90q-156 0 -243 -124.5t-87 -377.5q0 -225 80.5 -336.5t229.5 -111.5z" />
    <glyph glyph-name="Emacron" unicode="&#x112;" horiz-adv-x="1155" 
d="M836 983v-491h-23q-22 92 -49 151q-20 46 -59.5 58t-167.5 12h-119v-502q0 -34 0.5 -52.5t5.5 -38.5t9.5 -29.5t20 -19.5t30 -13.5t45.5 -6.5t60.5 -3.5t80.5 -0.5q99 0 151 10.5t77.5 29.5t59.5 65q47 70 125 278h25l-29 -430h-1054v23l75 14q56 12 69 31.5t13 95.5
v1091q0 77 -13 96t-69 31l-75 15v22h1013l23 -358h-23q-67 155 -100 209q-42 66 -95.5 84t-195.5 18q-141 0 -229 -18v-594h119q89 0 130.5 5.5t61.5 19.5t35 46q25 45 49 152h23zM365 1544v94h497v-94h-497z" />
    <glyph glyph-name="emacron" unicode="&#x113;" horiz-adv-x="997" 
d="M553 -25q-257 0 -383.5 142t-126.5 399q0 124 40 230t107.5 178.5t158.5 113.5t192 41q201 0 308.5 -118.5t106.5 -366.5h-692v-16q0 -254 93 -371t272 -117q173 0 301 74v-27q-62 -69 -160 -115.5t-217 -46.5zM532 1036q-118 0 -188.5 -99t-79.5 -304l473 18
q0 204 -47 294.5t-158 90.5zM289 1239v92h463v-92h-463z" />
    <glyph glyph-name="Ebreve" unicode="&#x114;" horiz-adv-x="1155" 
d="M836 983v-491h-23q-22 92 -49 151q-20 46 -59.5 58t-167.5 12h-119v-502q0 -34 0.5 -52.5t5.5 -38.5t9.5 -29.5t20 -19.5t30 -13.5t45.5 -6.5t60.5 -3.5t80.5 -0.5q99 0 151 10.5t77.5 29.5t59.5 65q47 70 125 278h25l-29 -430h-1054v23l75 14q56 12 69 31.5t13 95.5
v1091q0 77 -13 96t-69 31l-75 15v22h1013l23 -358h-23q-67 155 -100 209q-42 66 -95.5 84t-195.5 18q-141 0 -229 -18v-594h119q89 0 130.5 5.5t61.5 19.5t35 46q25 45 49 152h23zM616 1495q-60 0 -105 21t-71.5 58t-41 80t-19.5 95l16 4q29 -62 79 -91.5t140 -29.5
q89 0 136.5 30.5t78.5 90.5l15 -4q-4 -69 -27.5 -124t-75.5 -92.5t-125 -37.5z" />
    <glyph glyph-name="ebreve" unicode="&#x115;" horiz-adv-x="997" 
d="M553 -25q-257 0 -383.5 142t-126.5 399q0 124 40 230t107.5 178.5t158.5 113.5t192 41q201 0 308.5 -118.5t106.5 -366.5h-692v-16q0 -254 93 -371t272 -117q173 0 301 74v-27q-62 -69 -160 -115.5t-217 -46.5zM532 1036q-118 0 -188.5 -99t-79.5 -304l473 18
q0 204 -47 294.5t-158 90.5zM535 1186q-111 0 -166.5 69t-61.5 185l17 4q23 -60 77 -91.5t131 -31.5q73 0 125 33t78 90l17 -4q-5 -113 -61 -183.5t-156 -70.5z" />
    <glyph glyph-name="Edotaccent" unicode="&#x116;" horiz-adv-x="1155" 
d="M606 1499q-54 0 -92.5 36t-38.5 87q0 52 38.5 87.5t92.5 35.5q53 0 89 -35.5t36 -87.5q0 -51 -36.5 -87t-88.5 -36zM836 983v-491h-23q-22 92 -49 151q-20 46 -59.5 58t-167.5 12h-119v-502q0 -34 0.5 -52.5t5.5 -38.5t9.5 -29.5t20 -19.5t30 -13.5t45.5 -6.5t60.5 -3.5
t80.5 -0.5q99 0 151 10.5t77.5 29.5t59.5 65q47 70 125 278h25l-29 -430h-1054v23l75 14q56 12 69 31.5t13 95.5v1091q0 77 -13 96t-69 31l-75 15v22h1013l23 -358h-23q-67 155 -100 209q-42 66 -95.5 84t-195.5 18q-141 0 -229 -18v-594h119q89 0 130.5 5.5t61.5 19.5
t35 46q25 45 49 152h23z" />
    <glyph glyph-name="edotaccent" unicode="&#x117;" horiz-adv-x="997" 
d="M553 -25q-257 0 -383.5 142t-126.5 399q0 124 40 230t107.5 178.5t158.5 113.5t192 41q201 0 308.5 -118.5t106.5 -366.5h-692v-16q0 -254 93 -371t272 -117q173 0 301 74v-27q-62 -69 -160 -115.5t-217 -46.5zM532 1036q-118 0 -188.5 -99t-79.5 -304l473 18
q0 204 -47 294.5t-158 90.5zM393 1309q0 54 37.5 89.5t91.5 35.5t91.5 -35.5t37.5 -89.5t-37.5 -89.5t-91.5 -35.5t-91.5 35.5t-37.5 89.5z" />
    <glyph glyph-name="Eogonek" unicode="&#x118;" horiz-adv-x="1155" 
d="M881 0h-856v23l75 14q56 12 69 31.5t13 95.5v1091q0 77 -13 96t-69 31l-75 15v22h1013l23 -358h-23q-67 155 -100 209q-42 66 -95.5 84t-195.5 18q-141 0 -229 -18v-594h119q89 0 130.5 5.5t61.5 19.5t35 46q25 45 49 152h23v-491h-23q-22 92 -49 151q-20 46 -59.5 58
t-167.5 12h-119v-502q0 -34 0.5 -52.5t5.5 -38.5t9.5 -29.5t20 -19.5t30 -13.5t45.5 -6.5t60.5 -3.5t80.5 -0.5q99 0 151 10.5t77.5 29.5t59.5 65q47 70 125 278h25l-29 -430h-166q-110 -125 -110 -244q0 -100 108 -100q47 0 78 14v-20q-22 -30 -65 -48t-95 -18
q-92 0 -142 41.5t-50 110.5q0 141 244 264z" />
    <glyph glyph-name="eogonek" unicode="&#x119;" horiz-adv-x="997" 
d="M436 -270q0 144 256 262q-73 -17 -137 -17q-260 0 -386 146t-126 405q0 123 41 228t109.5 175.5t159 110t190.5 39.5q416 0 413 -485h-692v-25q1 -249 95 -364t270 -115q175 0 303 74v-27q-16 -16 -160 -129q-100 -74 -137 -132.5t-37 -117.5q0 -102 113 -102q43 0 75 14
v-20q-24 -29 -68 -47.5t-93 -18.5q-92 0 -140.5 42.5t-48.5 103.5zM535 1036q-116 0 -188 -101t-81 -306l473 16q0 207 -47.5 299t-156.5 92z" />
    <glyph glyph-name="Ecaron" unicode="&#x11a;" horiz-adv-x="1155" 
d="M334 1745l12 14l268 -108l267 108l10 -14l-240 -254h-76zM836 983v-491h-23q-22 92 -49 151q-20 46 -59.5 58t-167.5 12h-119v-502q0 -34 0.5 -52.5t5.5 -38.5t9.5 -29.5t20 -19.5t30 -13.5t45.5 -6.5t60.5 -3.5t80.5 -0.5q99 0 151 10.5t77.5 29.5t59.5 65
q47 70 125 278h25l-29 -430h-1054v23l75 14q56 12 69 31.5t13 95.5v1091q0 77 -13 96t-69 31l-75 15v22h1013l23 -358h-23q-67 155 -100 209q-42 66 -95.5 84t-195.5 18q-141 0 -229 -18v-594h119q89 0 130.5 5.5t61.5 19.5t35 46q25 45 49 152h23z" />
    <glyph glyph-name="ecaron" unicode="&#x11b;" horiz-adv-x="997" 
d="M553 -25q-257 0 -383.5 142t-126.5 399q0 124 40 230t107.5 178.5t158.5 113.5t192 41q201 0 308.5 -118.5t106.5 -366.5h-692v-16q0 -254 93 -371t272 -117q173 0 301 74v-27q-62 -69 -160 -115.5t-217 -46.5zM532 1036q-118 0 -188.5 -99t-79.5 -304l473 18
q0 204 -47 294.5t-158 90.5zM561 1180h-74l-215 276l11 14l241 -124l244 124l10 -14z" />
    <glyph glyph-name="Gcircumflex" unicode="&#x11c;" horiz-adv-x="1316" 
d="M457 1481l-13 14l242 254h76l239 -254l-10 -14l-266 108zM737 -20q-333 0 -509.5 180t-176.5 536q0 121 22 223t59.5 177.5t92 135t116 98t134 64t144.5 36t149 10.5q239 0 387 -49l21 -377h-23q-3 6 -13.5 31.5t-13.5 31.5t-12 27t-13 28.5t-12.5 25t-14 27.5t-14 24.5
t-17 27t-17.5 25.5q-54 74 -113.5 103.5t-164.5 29.5q-453 0 -453 -650q0 -367 101.5 -543.5t332.5 -176.5q156 0 246 57v328q0 77 -12.5 97t-69.5 30l-78 14v22h516v-22l-74 -14q-36 -6 -45.5 -25.5t-9.5 -85.5v-369q-205 -77 -465 -77z" />
    <glyph glyph-name="gcircumflex" unicode="&#x11d;" horiz-adv-x="989" 
d="M434 1458h74l217 -276l-10 -15l-244 127l-242 -127l-10 15zM418 -399q-201 0 -310.5 58t-109.5 169q0 163 229 225v4q-145 29 -145 160q0 67 43 126t108 93v6q-80 39 -127 111t-47 164q0 88 34.5 159t91.5 114t127 66t145 23q140 0 235 -59q108 102 201 102
q50 0 79 -24.5t29 -73.5q0 -38 -20.5 -60t-60.5 -22q-56 0 -74 53q-19 44 -50.5 44.5t-74.5 -35.5v-5q65 -40 101 -107.5t36 -154.5t-34.5 -155t-92 -109.5t-127.5 -62.5t-147 -21q-114 0 -189 35q-25 -17 -45 -48.5t-20 -62.5q0 -39 29 -57t94 -18h340q303 0 303 -250
q0 -68 -33 -134.5t-96.5 -124t-173 -93t-248.5 -35.5zM453 -354q161 0 263.5 63.5t102.5 181.5q0 83 -48 119.5t-157 36.5h-335q-105 -49 -105 -188q0 -213 279 -213zM457 426q97 0 143.5 67.5t46.5 219.5q0 169 -46.5 246t-143.5 77q-96 0 -142.5 -69.5t-46.5 -223.5
q0 -167 46.5 -242t142.5 -75z" />
    <glyph glyph-name="Gbreve" unicode="&#x11e;" horiz-adv-x="1316" 
d="M725 1495q-60 0 -105 21t-72 58t-41.5 80t-19.5 95l17 4q29 -62 79 -91.5t140 -29.5q89 0 136.5 30.5t78.5 90.5l14 -4q-4 -69 -27.5 -124t-75 -92.5t-124.5 -37.5zM737 -20q-333 0 -509.5 180t-176.5 536q0 121 22 223t59.5 177.5t92 135t116 98t134 64t144.5 36
t149 10.5q239 0 387 -49l21 -377h-23q-3 6 -13.5 31.5t-13.5 31.5t-12 27t-13 28.5t-12.5 25t-14 27.5t-14 24.5t-17 27t-17.5 25.5q-54 74 -113.5 103.5t-164.5 29.5q-453 0 -453 -650q0 -367 101.5 -543.5t332.5 -176.5q156 0 246 57v328q0 77 -12.5 97t-69.5 30l-78 14
v22h516v-22l-74 -14q-36 -6 -45.5 -25.5t-9.5 -85.5v-369q-205 -77 -465 -77z" />
    <glyph glyph-name="gbreve" unicode="&#x11f;" horiz-adv-x="989" 
d="M418 -399q-201 0 -310.5 58t-109.5 169q0 163 229 225v4q-145 29 -145 160q0 67 43 126t108 93v6q-80 39 -127 111t-47 164q0 88 34.5 159t91.5 114t127 66t145 23q140 0 235 -59q108 102 201 102q50 0 79 -24.5t29 -73.5q0 -38 -20.5 -60t-60.5 -22q-56 0 -74 53
q-19 44 -50.5 44.5t-74.5 -35.5v-5q65 -40 101 -107.5t36 -154.5t-34.5 -155t-92 -109.5t-127.5 -62.5t-147 -21q-114 0 -189 35q-25 -17 -45 -48.5t-20 -62.5q0 -39 29 -57t94 -18h340q303 0 303 -250q0 -68 -33 -134.5t-96.5 -124t-173 -93t-248.5 -35.5zM453 -354
q161 0 263.5 63.5t102.5 181.5q0 83 -48 119.5t-157 36.5h-335q-105 -49 -105 -188q0 -213 279 -213zM457 426q97 0 143.5 67.5t46.5 219.5q0 169 -46.5 246t-143.5 77q-96 0 -142.5 -69.5t-46.5 -223.5q0 -167 46.5 -242t142.5 -75zM483 1186q-111 0 -166 69t-61 185l16 4
q23 -60 77.5 -91.5t131.5 -31.5q73 0 125 33t78 90l16 -4q-5 -113 -61 -183.5t-156 -70.5z" />
    <glyph glyph-name="Gdotaccent" unicode="&#x120;" horiz-adv-x="1316" 
d="M727 1499q-54 0 -92.5 36t-38.5 87q0 52 38.5 87.5t92.5 35.5q53 0 89 -35.5t36 -87.5q0 -51 -36.5 -87t-88.5 -36zM737 -20q-333 0 -509.5 180t-176.5 536q0 121 22 223t59.5 177.5t92 135t116 98t134 64t144.5 36t149 10.5q239 0 387 -49l21 -377h-23q-3 6 -13.5 31.5
t-13.5 31.5t-12 27t-13 28.5t-12.5 25t-14 27.5t-14 24.5t-17 27t-17.5 25.5q-54 74 -113.5 103.5t-164.5 29.5q-453 0 -453 -650q0 -367 101.5 -543.5t332.5 -176.5q156 0 246 57v328q0 77 -12.5 97t-69.5 30l-78 14v22h516v-22l-74 -14q-36 -6 -45.5 -25.5t-9.5 -85.5
v-369q-205 -77 -465 -77z" />
    <glyph glyph-name="gdotaccent" unicode="&#x121;" horiz-adv-x="989" 
d="M418 -399q-201 0 -310.5 58t-109.5 169q0 163 229 225v4q-145 29 -145 160q0 67 43 126t108 93v6q-80 39 -127 111t-47 164q0 88 34.5 159t91.5 114t127 66t145 23q140 0 235 -59q108 102 201 102q50 0 79 -24.5t29 -73.5q0 -38 -20.5 -60t-60.5 -22q-56 0 -74 53
q-19 44 -50.5 44.5t-74.5 -35.5v-5q65 -40 101 -107.5t36 -154.5t-34.5 -155t-92 -109.5t-127.5 -62.5t-147 -21q-114 0 -189 35q-25 -17 -45 -48.5t-20 -62.5q0 -39 29 -57t94 -18h340q303 0 303 -250q0 -68 -33 -134.5t-96.5 -124t-173 -93t-248.5 -35.5zM453 -354
q161 0 263.5 63.5t102.5 181.5q0 83 -48 119.5t-157 36.5h-335q-105 -49 -105 -188q0 -213 279 -213zM457 426q97 0 143.5 67.5t46.5 219.5q0 169 -46.5 246t-143.5 77q-96 0 -142.5 -69.5t-46.5 -223.5q0 -167 46.5 -242t142.5 -75zM330 1309q0 54 37.5 89.5t91.5 35.5
t91.5 -35.5t37.5 -89.5t-37.5 -89.5t-91.5 -35.5t-91.5 35.5t-37.5 89.5z" />
    <glyph glyph-name="Gcommaaccent" unicode="&#x122;" horiz-adv-x="1316" 
d="M557 -451l-6 15q84 35 121 77.5t45 100.5q-23 -23 -66 -23q-39 0 -62.5 25t-23.5 63t30.5 68.5t80.5 30.5q56 0 91.5 -35t35.5 -94q0 -84 -67 -147.5t-179 -80.5zM737 -20q-333 0 -509.5 180t-176.5 536q0 121 22 223t59.5 177.5t92 135t116 98t134 64t144.5 36t149 10.5
q239 0 387 -49l21 -377h-23q-3 6 -13.5 31.5t-13.5 31.5t-12 27t-13 28.5t-12.5 25t-14 27.5t-14 24.5t-17 27t-17.5 25.5q-54 74 -113.5 103.5t-164.5 29.5q-453 0 -453 -650q0 -367 101.5 -543.5t332.5 -176.5q156 0 246 57v328q0 77 -12.5 97t-69.5 30l-78 14v22h516v-22
l-74 -14q-36 -6 -45.5 -25.5t-9.5 -85.5v-369q-205 -77 -465 -77z" />
    <glyph glyph-name="gcommaaccent" unicode="&#x123;" horiz-adv-x="989" 
d="M590 1532l6 -14q-84 -35 -121 -78t-43 -101q20 23 64 23q39 0 62.5 -25t23.5 -63q0 -40 -30 -70t-81 -30q-56 0 -91.5 36t-35.5 95q0 83 67 146.5t179 80.5zM418 -399q-201 0 -310.5 58t-109.5 169q0 163 229 225v4q-145 29 -145 160q0 67 43 126t108 93v6
q-80 39 -127 111t-47 164q0 88 34.5 159t91.5 114t127 66t145 23q140 0 235 -59q108 102 201 102q50 0 79 -24.5t29 -73.5q0 -38 -20.5 -60t-60.5 -22q-56 0 -74 53q-19 44 -50.5 44.5t-74.5 -35.5v-5q65 -40 101 -107.5t36 -154.5t-34.5 -155t-92 -109.5t-127.5 -62.5
t-147 -21q-114 0 -189 35q-25 -17 -45 -48.5t-20 -62.5q0 -39 29 -57t94 -18h340q303 0 303 -250q0 -68 -33 -134.5t-96.5 -124t-173 -93t-248.5 -35.5zM453 -354q161 0 263.5 63.5t102.5 181.5q0 83 -48 119.5t-157 36.5h-335q-105 -49 -105 -188q0 -213 279 -213zM457 426
q97 0 143.5 67.5t46.5 219.5q0 169 -46.5 246t-143.5 77q-96 0 -142.5 -69.5t-46.5 -223.5q0 -167 46.5 -242t142.5 -75z" />
    <glyph glyph-name="Hcircumflex" unicode="&#x124;" horiz-adv-x="1447" 
d="M25 0v23l75 14q25 5 37.5 9t23 11t14 21.5t5.5 33t2 52.5v1091q0 34 -2 52.5t-5.5 33t-14 21.5t-23 11t-37.5 9l-75 15v22h548v-22l-71 -15q-59 -12 -71.5 -30.5t-12.5 -96.5v-505h614v505q0 77 -13 96t-71 31l-74 15v22h551v-22l-77 -15q-55 -11 -67.5 -30.5
t-12.5 -96.5v-1091q0 -77 12.5 -96.5t67.5 -30.5l77 -14v-23h-551v23l74 14q58 12 71 31t13 96v536h-614v-536q0 -78 12.5 -96.5t71.5 -30.5l71 -14v-23h-548zM459 1481l-13 14l242 254h76l240 -254l-11 -14l-266 108z" />
    <glyph glyph-name="hcircumflex" unicode="&#x125;" horiz-adv-x="1155" 
d="M745 1079q142 0 205.5 -67t63.5 -207v-666q0 -59 11.5 -74.5t64.5 -29.5l59 -15v-20h-481v20l57 13q52 14 64 29.5t12 76.5v633q0 105 -37 148t-125 43q-57 0 -115 -11t-85.5 -20.5t-73.5 -26.5v-766q0 -61 12 -76.5t63 -29.5l58 -13v-20h-480v20l58 15q52 13 63 28.5
t11 75.5v1204q0 63 -12 82.5t-66 42.5l-64 29v16l352 33l13 -4q-8 -115 -8 -252v-346h4q84 57 184.5 96t191.5 39zM152 1585l-13 14l242 254h76l239 -254l-10 -14l-266 109z" />
    <glyph glyph-name="Hbar" unicode="&#x126;" horiz-adv-x="1447" 
d="M27 1030v43h155v182q0 34 -2 52.5t-5.5 33t-14 21.5t-23 11t-37.5 9l-75 15v22h548v-22l-71 -15q-59 -12 -71.5 -30.5t-12.5 -96.5v-182h614v182q0 77 -13 96t-71 31l-74 15v22h551v-22l-77 -15q-55 -11 -67.5 -30.5t-12.5 -96.5v-182h159v-43h-159v-866
q0 -77 12.5 -96.5t67.5 -30.5l77 -14v-23h-551v23l74 14q58 12 71 31t13 96v536h-614v-536q0 -78 12.5 -96.5t71.5 -30.5l71 -14v-23h-548v23l75 14q25 5 37.5 9t23 11t14 21.5t5.5 33t2 52.5v866h-155zM418 750h614v280h-614v-280z" />
    <glyph glyph-name="hbar" unicode="&#x127;" horiz-adv-x="1157" 
d="M6 1249v49h148v45q0 63 -12 82.5t-66 42.5l-64 29v16l353 33l12 -4q-8 -111 -8 -244h311v-49h-311v-305h4q84 57 185 96t192 39q142 0 205 -66.5t63 -207.5v-666q0 -59 11.5 -74.5t64.5 -29.5l59 -15v-20h-481v20l57 13q52 14 64 29.5t12 76.5v633q0 105 -37 148t-125 43
q-57 0 -115 -11t-85.5 -20.5t-73.5 -26.5v-766q0 -61 12 -76.5t63 -29.5l58 -13v-20h-479v20l57 15q52 13 63 28.5t11 75.5v1110h-148z" />
    <glyph glyph-name="Itilde" unicode="&#x128;" horiz-adv-x="602" 
d="M25 0v23l77 14q25 5 37.5 9t23 11t14 21.5t5.5 33t2 52.5v1091q0 34 -2 52.5t-5.5 33t-14 21.5t-23 11t-37.5 9l-77 15v22h553v-22l-76 -15q-58 -11 -71 -30.5t-13 -96.5v-1091q0 -77 13 -96.5t71 -30.5l76 -14v-23h-553zM442 1530q-46 0 -150 24.5t-147 24.5
q-40 0 -62.5 -17t-51.5 -65l-21 10q39 113 77.5 165t105.5 52q44 0 146.5 -24.5t141.5 -24.5q41 0 69.5 19t55.5 65l21 -10q-37 -112 -76.5 -165.5t-108.5 -53.5z" />
    <glyph glyph-name="itilde" unicode="&#x129;" horiz-adv-x="518" 
d="M20 0v20l58 15q53 12 64.5 28t11.5 76v725q0 55 -12.5 72.5t-67.5 44.5l-54 31v16l345 45l10 -4q-8 -140 -8 -238v-692q0 -59 13.5 -75.5t68.5 -28.5l53 -15v-20h-482zM6 1182l-20 8q21 59 35 91t34.5 65t46 47t58.5 14q38 0 127 -18.5t119 -18.5q43 0 67 17.5t51 62.5
l21 -8q-18 -50 -27.5 -73t-26.5 -57t-32.5 -48t-39.5 -25.5t-54 -11.5q-39 0 -125.5 17.5t-120.5 17.5q-41 0 -64 -18t-49 -62z" />
    <glyph glyph-name="Imacron" unicode="&#x12a;" horiz-adv-x="602" 
d="M25 0v23l77 14q25 5 37.5 9t23 11t14 21.5t5.5 33t2 52.5v1091q0 34 -2 52.5t-5.5 33t-14 21.5t-23 11t-37.5 9l-77 15v22h553v-22l-76 -15q-58 -11 -71 -30.5t-13 -96.5v-1091q0 -77 13 -96.5t71 -30.5l76 -14v-23h-553zM53 1544v94h498v-94h-498z" />
    <glyph glyph-name="imacron" unicode="&#x12b;" horiz-adv-x="518" 
d="M20 0v25l58 16q53 13 64.5 33t11.5 90v688q0 61 -13 80.5t-67 46.5l-54 31v18l345 45l10 -4q0 -3 -2 -34t-4 -86.5t-2 -117.5v-667q0 -69 12 -88.5t65 -34.5l54 -16v-25h-478zM10 1239v92h449v-92h-449z" />
    <glyph glyph-name="Ibreve" unicode="&#x12c;" horiz-adv-x="602" 
d="M25 0v23l77 14q25 5 37.5 9t23 11t14 21.5t5.5 33t2 52.5v1091q0 34 -2 52.5t-5.5 33t-14 21.5t-23 11t-37.5 9l-77 15v22h553v-22l-76 -15q-58 -11 -71 -30.5t-13 -96.5v-1091q0 -77 13 -96.5t71 -30.5l76 -14v-23h-553zM305 1495q-60 0 -105 21t-71.5 58t-41 80
t-19.5 95l16 4q29 -62 79 -91.5t140 -29.5q89 0 136.5 30.5t78.5 90.5l14 -4q-4 -69 -27.5 -124t-75 -92.5t-124.5 -37.5z" />
    <glyph glyph-name="ibreve" unicode="&#x12d;" horiz-adv-x="518" 
d="M20 0v20l58 15q53 12 64.5 28t11.5 76v725q0 55 -12.5 72.5t-67.5 44.5l-54 31v16l345 45l10 -4q-8 -140 -8 -238v-692q0 -59 13.5 -75.5t68.5 -28.5l53 -15v-20h-482zM268 1186q-111 0 -166 69t-61 185l16 4q23 -60 77.5 -91.5t131.5 -31.5q73 0 125 33t78 90l16 -4
q-5 -113 -61 -183.5t-156 -70.5z" />
    <glyph glyph-name="Iogonek" unicode="&#x12e;" horiz-adv-x="602" 
d="M578 0h-129q-111 -126 -111 -244q0 -100 108 -100q46 0 78 14v-22q-24 -27 -66.5 -45.5t-92.5 -18.5q-92 0 -142.5 39.5t-50.5 108.5q0 145 244 268h-391v23l77 14q25 5 37.5 9t23 11t14 21.5t5.5 33t2 52.5v1091q0 34 -2 52.5t-5.5 33t-14 21.5t-23 11t-37.5 9l-77 15
v22h553v-22l-76 -15q-58 -11 -71 -30.5t-13 -96.5v-1091q0 -77 13 -96.5t71 -30.5l76 -14v-23z" />
    <glyph glyph-name="iogonek" unicode="&#x12f;" horiz-adv-x="518" 
d="M127 1343q0 52 35.5 86.5t89.5 34.5q53 0 89 -34.5t36 -86.5q0 -53 -36 -86.5t-89 -33.5q-55 0 -90 33.5t-35 86.5zM319 0h-299v20l58 15q53 12 64.5 28t11.5 76v725q0 55 -12.5 72.5t-67.5 44.5l-54 31v16l345 45l10 -4q-8 -140 -8 -238v-692q0 -59 13.5 -75.5
t68.5 -28.5l53 -15v-20h-150q-110 -125 -110 -244q0 -100 110 -100q43 0 78 14v-20q-25 -28 -68 -47t-92 -19q-93 0 -143.5 41.5t-50.5 110.5q0 135 243 264z" />
    <glyph glyph-name="Idotaccent" unicode="&#x130;" horiz-adv-x="602" 
d="M25 0v23l77 14q25 5 37.5 9t23 11t14 21.5t5.5 33t2 52.5v1091q0 34 -2 52.5t-5.5 33t-14 21.5t-23 11t-37.5 9l-77 15v22h553v-22l-76 -15q-58 -11 -71 -30.5t-13 -96.5v-1091q0 -77 13 -96.5t71 -30.5l76 -14v-23h-553zM303 1499q-54 0 -92.5 36t-38.5 87
q0 52 38.5 87.5t92.5 35.5q53 0 89 -35.5t36 -87.5q0 -51 -36.5 -87t-88.5 -36z" />
    <glyph glyph-name="dotlessi" unicode="&#x131;" horiz-adv-x="518" 
d="M20 0v20l58 15q53 12 64.5 28t11.5 76v725q0 55 -12.5 72.5t-67.5 44.5l-54 31v16l345 45l10 -4q-8 -140 -8 -238v-692q0 -59 13.5 -75.5t68.5 -28.5l53 -15v-20h-482z" />
    <glyph glyph-name="IJ" unicode="&#x132;" horiz-adv-x="1411" 
d="M25 0v23l77 14q25 5 37.5 9t23 11t14 21.5t5.5 33t2 52.5v1091q0 34 -2 52.5t-5.5 33t-14 21.5t-23 11t-37.5 9l-77 15v22h553v-22l-76 -15q-58 -11 -71 -30.5t-13 -96.5v-1091q0 -77 13 -96.5t71 -30.5l76 -14v-23h-553zM836 -20q-113 0 -175.5 41t-62.5 110
q0 52 30 82.5t87 30.5q62 0 92 -36t37 -126q3 -55 47 -55q57 0 87 69.5t30 237.5v921q0 78 -12.5 98t-67.5 29l-78 15v22h551v-22l-76 -15q-25 -5 -37.5 -9t-23 -11t-14 -21.5t-5.5 -33t-2 -52.5v-813q0 -81 -14.5 -149.5t-46 -127t-79 -99t-115.5 -63.5t-152 -23z" />
    <glyph glyph-name="ij" unicode="&#x133;" horiz-adv-x="991" 
d="M20 0v20l58 15q53 12 64.5 28t11.5 76v725q0 55 -12.5 72.5t-67.5 44.5l-54 31v16l345 45l10 -4q-8 -140 -8 -238v-692q0 -59 13.5 -75.5t68.5 -28.5l53 -15v-20h-482zM127 1343q0 52 35.5 86.5t89.5 34.5q53 0 89 -34.5t36 -86.5q0 -53 -36 -86.5t-89 -33.5
q-55 0 -90 33.5t-35 86.5zM866 834v-816q0 -201 -95 -312.5t-251 -111.5q-97 0 -147.5 36.5t-50.5 99.5q0 43 27 69.5t75 26.5q46 0 71.5 -28t34.5 -97q4 -38 13 -52t28 -14q36 0 59 42.5t23 123.5v1063q0 57 -12.5 74.5t-67.5 44.5l-53 29v16l344 45l10 -4q-8 -124 -8 -235
zM623 1343q0 52 36 86.5t89 34.5t88.5 -34.5t35.5 -86.5q0 -53 -35.5 -86.5t-88.5 -33.5t-89 33.5t-36 86.5z" />
    <glyph glyph-name="Jcircumflex" unicode="&#x134;" horiz-adv-x="813" 
d="M254 1481l-12 14l241 254h76l240 -254l-11 -14l-266 108zM238 -20q-113 0 -174.5 41.5t-61.5 109.5q0 51 30 80t83 29q60 0 90 -35t39 -123q5 -29 15 -42t32 -13q58 0 88.5 69.5t30.5 237.5v921q0 78 -12.5 98t-67.5 29l-78 15v22h551v-22l-76 -15q-25 -5 -37.5 -9
t-23 -11t-14 -21.5t-5.5 -33t-2 -52.5v-813q0 -101 -24 -184t-72 -146t-127.5 -97.5t-183.5 -34.5z" />
    <glyph glyph-name="jcircumflex" unicode="&#x135;" horiz-adv-x="479" 
d="M205 1458h74l217 -276l-11 -15l-243 127l-242 -127l-10 15zM354 834v-816q0 -201 -95 -312.5t-251 -111.5q-97 0 -147.5 36.5t-50.5 99.5q0 43 27 69.5t75 26.5q46 0 71.5 -28t34.5 -97q4 -38 13 -52t28 -14q36 0 59 42.5t23 123.5v1063q0 57 -12.5 74.5t-67.5 44.5
l-53 29v16l344 45l10 -4q-8 -124 -8 -235z" />
    <glyph glyph-name="Kcommaaccent" unicode="&#x136;" horiz-adv-x="1275" 
d="M958 0q-130 147 -259 334t-220 368v17l416 493q51 57 51 105q0 22 -17 36.5t-59 24.5l-67 19v22h436v-22l-45 -13q-58 -15 -99.5 -45.5t-111.5 -109.5l-334 -391q105 -190 251.5 -402t254.5 -332q30 -33 51 -47.5t56 -23.5l36 -10v-23h-340zM25 0v23l75 14q25 5 37.5 9
t23 11t14 21.5t5.5 33t2 52.5v1091q0 34 -2 52.5t-5.5 33t-14 21.5t-23 11t-37.5 9l-75 15v22h548v-22l-71 -15q-58 -11 -71 -30.5t-13 -96.5v-1091q0 -78 12.5 -96.5t71.5 -30.5l71 -14v-23h-548zM520 -451l-6 15q84 35 121 77.5t45 100.5q-23 -23 -66 -23q-39 0 -62.5 25
t-23.5 63t30.5 68.5t80.5 30.5q56 0 91.5 -35t35.5 -94q0 -84 -67 -147.5t-179 -80.5z" />
    <glyph glyph-name="kcommaaccent" unicode="&#x137;" horiz-adv-x="1060" 
d="M780 0q-108 116 -194.5 235t-188.5 283v8l234 260q106 118 106 168q0 39 -69 60l-31 10v20h375v-22l-39 -12q-63 -20 -101.5 -45.5t-89.5 -81.5l-223 -244q90 -145 203 -299.5t205 -253.5q22 -25 37.5 -36t44.5 -21l24 -9v-20h-293zM365 1290v-1145q0 -66 12 -83t63 -29
l56 -13v-20h-478v20l58 15q52 12 63 28.5t11 81.5v1205q0 58 -12 76.5t-66 41.5l-64 29v16l352 33l13 -4q-8 -115 -8 -252zM428 -451l-6 15q84 35 121 77.5t45 100.5q-23 -23 -66 -23q-39 0 -62.5 25t-23.5 63t30.5 68.5t80.5 30.5q56 0 91.5 -35t35.5 -94q0 -84 -67 -147.5
t-179 -80.5z" />
    <glyph glyph-name="Lacute" unicode="&#x139;" horiz-adv-x="1101" 
d="M123 1491l-6 14l262 215q36 33 78 33q40 0 65 -28t25 -66q0 -74 -84 -90zM25 0v23l75 14q55 11 68.5 30.5t13.5 96.5v1091q0 34 -2 52.5t-5.5 33t-14 21.5t-23 11t-37.5 9l-75 15v22h553v-22l-76 -15q-57 -9 -70.5 -29t-13.5 -98v-1071q0 -33 1.5 -50.5t9 -36t20 -26.5
t38 -15t59.5 -9t87 -2q145 0 197.5 21.5t95.5 97.5q60 108 121 282h26l-29 -446h-1019z" />
    <glyph glyph-name="lacute" unicode="&#x13a;" horiz-adv-x="514" 
d="M68 1599l-7 15l263 215q36 33 77 33q40 0 65.5 -28.5t25.5 -66.5q0 -74 -84 -90zM365 1290v-1145q0 -60 14.5 -79t66.5 -31l54 -15v-20h-482v20l58 15q52 12 64 30.5t12 79.5v1198q0 62 -12.5 82t-67.5 43l-64 29v16l352 33l13 -4q-8 -115 -8 -252z" />
    <glyph glyph-name="Lcommaaccent" unicode="&#x13b;" horiz-adv-x="1101" 
d="M467 -451l-6 15q84 35 121 77.5t45 100.5q-23 -23 -66 -23q-39 0 -62.5 25t-23.5 63t30.5 68.5t80.5 30.5q56 0 91.5 -35t35.5 -94q0 -84 -67 -147.5t-179 -80.5zM25 0v23l75 14q55 11 68.5 30.5t13.5 96.5v1091q0 34 -2 52.5t-5.5 33t-14 21.5t-23 11t-37.5 9l-75 15v22
h553v-22l-76 -15q-57 -9 -70.5 -29t-13.5 -98v-1071q0 -33 1.5 -50.5t9 -36t20 -26.5t38 -15t59.5 -9t87 -2q145 0 197.5 21.5t95.5 97.5q60 108 121 282h26l-29 -446h-1019z" />
    <glyph glyph-name="lcommaaccent" unicode="&#x13c;" horiz-adv-x="514" 
d="M127 -451l-6 15q84 35 121 77.5t45 100.5q-23 -23 -66 -23q-39 0 -62.5 25t-23.5 63t30.5 68.5t80.5 30.5q56 0 91.5 -35t35.5 -94q0 -84 -67 -147.5t-179 -80.5zM365 1290v-1145q0 -60 14.5 -79t66.5 -31l54 -15v-20h-482v20l58 15q52 12 64 30.5t12 79.5v1198
q0 62 -12.5 82t-67.5 43l-64 29v16l352 33l13 -4q-8 -115 -8 -252z" />
    <glyph glyph-name="Lcaron" unicode="&#x13d;" horiz-adv-x="1101" 
d="M674 1092l-17 4l9 264q0 88 75 88q39 0 63.5 -21.5t26.5 -54.5q0 -31 -26 -74zM25 0v23l75 14q55 11 68.5 30.5t13.5 96.5v1091q0 34 -2 52.5t-5.5 33t-14 21.5t-23 11t-37.5 9l-75 15v22h553v-22l-76 -15q-57 -9 -70.5 -29t-13.5 -98v-1071q0 -33 1.5 -50.5t9 -36
t20 -26.5t38 -15t59.5 -9t87 -2q145 0 197.5 21.5t95.5 97.5q60 108 121 282h26l-29 -446h-1019z" />
    <glyph glyph-name="lcaron" unicode="&#x13e;" horiz-adv-x="514" 
d="M467 1198l-16 4l8 264q0 88 76 88q39 0 63.5 -21t26.5 -54q0 -29 -27 -74zM365 1290v-1145q0 -60 14.5 -79t66.5 -31l54 -15v-20h-482v20l58 15q52 12 64 30.5t12 79.5v1198q0 62 -12.5 82t-67.5 43l-64 29v16l352 33l13 -4q-8 -115 -8 -252z" />
    <glyph glyph-name="Ldot" unicode="&#x13f;" horiz-adv-x="1101" 
d="M25 0v23l75 14q55 11 68.5 30.5t13.5 96.5v1091q0 34 -2 52.5t-5.5 33t-14 21.5t-23 11t-37.5 9l-75 15v22h553v-22l-76 -15q-57 -9 -70.5 -29t-13.5 -98v-1071q0 -33 1.5 -50.5t9 -36t20 -26.5t38 -15t59.5 -9t87 -2q146 0 200.5 22t98.5 97q57 102 115 260h24l-27 -424
h-1019zM885 643q-53 0 -90 36.5t-37 90.5q0 55 37 91t90 36t91 -36t38 -91q0 -53 -38 -90t-91 -37z" />
    <glyph glyph-name="ldot" unicode="&#x140;" horiz-adv-x="659" 
d="M365 1290v-1145q0 -60 14.5 -79t66.5 -31l54 -15v-20h-482v20l58 15q52 12 64 30.5t12 79.5v1198q0 62 -12.5 82t-67.5 43l-64 29v16l352 33l13 -4q-8 -115 -8 -252zM444 778q0 53 35.5 88t87.5 35t87.5 -35t35.5 -88q0 -51 -36 -87t-87 -36t-87 36t-36 87z" />
    <glyph glyph-name="Lslash" unicode="&#x141;" horiz-adv-x="1110" 
d="M25 535v49l165 67v604q0 78 -12.5 97t-68.5 30l-76 15v22h553v-22l-78 -15q-56 -9 -70 -29.5t-14 -97.5v-507l387 161v-49l-387 -162v-512q0 -49 4.5 -72t27 -41.5t63.5 -23t120 -4.5q102 0 153.5 9.5t81.5 33t60 76.5q60 108 121 282h26l-28 -446h-1020v23l76 14
q55 11 68 30.5t13 96.5v438z" />
    <glyph glyph-name="lslash" unicode="&#x142;" horiz-adv-x="514" 
d="M367 1290v-348l153 86v-55l-153 -86v-742q0 -61 13.5 -79.5t65.5 -30.5l54 -15v-20h-482v20l58 15q52 12 64 30.5t12 79.5v621l-150 -84v55l150 84v522q0 62 -12.5 82t-67.5 43l-64 29v16l354 33l13 -4q-8 -115 -8 -252z" />
    <glyph glyph-name="Nacute" unicode="&#x143;" horiz-adv-x="1337" 
d="M522 1491l-6 14l262 215q36 33 78 33q40 0 65 -28t25 -66q0 -74 -84 -90zM1081 -8l-835 1278h-6v-1067q0 -93 14 -120t72 -42l80 -18v-23h-381v23l77 18q51 14 65.5 42t14.5 118v1054q0 69 -16 92.5t-66 34.5l-71 15v22h393l676 -1036h6v834q0 92 -14 120t-70 41l-88 19
v22h383v-22l-74 -19q-51 -13 -65.5 -42t-14.5 -115v-1229h-80z" />
    <glyph glyph-name="nacute" unicode="&#x144;" horiz-adv-x="1157" 
d="M426 1176l-8 14l231 219q43 37 82 37q38 0 65 -28t27 -68q0 -73 -78 -93zM20 0v20l58 15q53 12 64.5 28t11.5 76v727q0 55 -12.5 72t-65.5 45l-51 29v16l329 45l13 -4l-2 -129h2q211 139 381 139q144 0 207 -66.5t63 -207.5v-666q0 -60 11.5 -76t64.5 -28l57 -15v-20
h-479v20l57 13q51 12 62.5 28t11.5 78v629q0 107 -35.5 150t-124.5 43q-23 0 -46 -2t-41 -4t-40.5 -6.5t-35 -7.5t-34 -9.5t-28.5 -9t-28 -9.5t-23 -8v-766q0 -61 12 -77.5t63 -28.5l60 -13v-20h-482z" />
    <glyph glyph-name="Ncommaaccent" unicode="&#x145;" horiz-adv-x="1337" 
d="M537 -451l-7 15q84 35 121 77.5t45 100.5q-23 -23 -65 -23q-39 0 -62.5 25t-23.5 63t30 68.5t80 30.5q56 0 91.5 -35t35.5 -94q0 -85 -66.5 -148t-178.5 -80zM1081 -8l-835 1278h-6v-1067q0 -93 14 -120t72 -42l80 -18v-23h-381v23l77 18q51 14 65.5 42t14.5 118v1054
q0 69 -16 92.5t-66 34.5l-71 15v22h393l676 -1036h6v834q0 92 -14 120t-70 41l-88 19v22h383v-22l-74 -19q-51 -13 -65.5 -42t-14.5 -115v-1229h-80z" />
    <glyph glyph-name="ncommaaccent" unicode="&#x146;" horiz-adv-x="1157" 
d="M440 -451l-6 15q84 35 121 77.5t45 100.5q-23 -23 -65 -23q-39 0 -62.5 25t-23.5 63t30 68.5t80 30.5q56 0 91.5 -35t35.5 -94q0 -84 -67 -147.5t-179 -80.5zM20 0v20l58 15q53 12 64.5 28t11.5 76v727q0 55 -12.5 72t-65.5 45l-51 29v16l329 45l13 -4l-2 -129h2
q211 139 381 139q144 0 207 -66.5t63 -207.5v-666q0 -60 11.5 -76t64.5 -28l57 -15v-20h-479v20l57 13q51 12 62.5 28t11.5 78v629q0 107 -35.5 150t-124.5 43q-23 0 -46 -2t-41 -4t-40.5 -6.5t-35 -7.5t-34 -9.5t-28.5 -9t-28 -9.5t-23 -8v-766q0 -61 12 -77.5t63 -28.5
l60 -13v-20h-482z" />
    <glyph glyph-name="Ncaron" unicode="&#x147;" horiz-adv-x="1337" 
d="M416 1745l12 14l268 -108l267 108l10 -14l-240 -254h-76zM1081 -8l-835 1278h-6v-1067q0 -93 14 -120t72 -42l80 -18v-23h-381v23l77 18q51 14 65.5 42t14.5 118v1054q0 69 -16 92.5t-66 34.5l-71 15v22h393l676 -1036h6v834q0 92 -14 120t-70 41l-88 19v22h383v-22
l-74 -19q-51 -13 -65.5 -42t-14.5 -115v-1229h-80z" />
    <glyph glyph-name="ncaron" unicode="&#x148;" horiz-adv-x="1157" 
d="M604 1180h-74l-215 276l11 14l241 -124l244 124l10 -14zM20 0v20l58 15q53 12 64.5 28t11.5 76v727q0 55 -12.5 72t-65.5 45l-51 29v16l329 45l13 -4l-2 -129h2q211 139 381 139q144 0 207 -66.5t63 -207.5v-666q0 -60 11.5 -76t64.5 -28l57 -15v-20h-479v20l57 13
q51 12 62.5 28t11.5 78v629q0 107 -35.5 150t-124.5 43q-23 0 -46 -2t-41 -4t-40.5 -6.5t-35 -7.5t-34 -9.5t-28.5 -9t-28 -9.5t-23 -8v-766q0 -61 12 -77.5t63 -28.5l60 -13v-20h-482z" />
    <glyph glyph-name="napostrophe" unicode="&#x149;" horiz-adv-x="1185" 
d="M-88 1063l-6 14q87 40 123 87.5t39 107.5q-21 -25 -66 -25q-38 0 -63 26.5t-25 67.5q0 43 32 74t83 31q57 0 93 -37.5t36 -103.5q0 -87 -66 -154t-180 -88zM49 0v20l57 15q53 12 64.5 28t11.5 76v727q0 55 -12.5 72t-65.5 45l-51 29v16l330 45l12 -4l-2 -129h2
q211 139 381 139q144 0 207.5 -66.5t63.5 -207.5v-666q0 -60 11.5 -76t63.5 -28l58 -15v-20h-480v20l58 13q50 12 61.5 28t11.5 78v629q0 108 -35 150.5t-124 42.5q-23 0 -46 -2t-41 -4t-41 -7l-34.5 -7.5t-34.5 -9.5t-28.5 -8.5t-28.5 -9.5l-23 -8v-766q0 -61 12.5 -77.5
t63.5 -28.5l59 -13v-20h-481z" />
    <glyph glyph-name="Eng" unicode="&#x14a;" horiz-adv-x="1337" 
d="M1100 -35l-854 1305h-6v-1067q0 -93 14 -120t72 -42l80 -18v-23h-381v23l77 18q50 12 65 40.5t15 119.5v1054q0 69 -16 92.5t-66 34.5l-71 15v22h393l676 -1036h6v834q0 92 -14 120t-70 41l-88 19v22h383v-22l-74 -19q-51 -13 -65.5 -42t-14.5 -115v-1221
q0 -334 -276 -334q-99 0 -150 38.5t-51 100.5q0 40 28 68.5t72 28.5q53 0 79.5 -27.5t39.5 -97.5q6 -32 17 -45t32 -13q58 0 103 65t45 181z" />
    <glyph glyph-name="eng" unicode="&#x14b;" horiz-adv-x="1153" 
d="M803 768q0 107 -35.5 150t-124.5 43q-23 0 -46 -2t-41 -4t-40.5 -6.5t-35 -7.5t-34 -9.5t-28.5 -9t-28 -9.5t-23 -8v-766q0 -61 12 -77.5t63 -28.5l60 -13v-20h-482v20l58 15q53 12 64.5 28t11.5 76v727q0 55 -12.5 72t-65.5 45l-51 29v16l329 45l13 -4l-2 -129h2
q211 139 381 139q144 0 207 -66.5t63 -207.5v-780q0 -207 -98 -319t-248 -112q-95 0 -147 35t-52 95q0 41 26 66.5t72 25.5q43 0 67.5 -27.5t33.5 -91.5q6 -34 15.5 -46.5t27.5 -12.5q38 0 63 40t25 123v967z" />
    <glyph glyph-name="Omacron" unicode="&#x14c;" horiz-adv-x="1394" 
d="M449 1544v94h497v-94h-497zM692 -20q-139 0 -254.5 44.5t-202.5 130.5t-135.5 223t-48.5 312q0 157 36.5 285t98 213t146 143t177 83.5t193.5 25.5q139 0 254.5 -45t202.5 -132.5t135.5 -226.5t48.5 -317q0 -157 -36.5 -283.5t-98 -210t-146 -140t-176.5 -81t-194 -24.5z
M696 25q207 0 303.5 159.5t96.5 499.5q0 711 -398 711q-205 0 -302 -164t-97 -506q0 -348 100.5 -524t296.5 -176z" />
    <glyph glyph-name="omacron" unicode="&#x14d;" horiz-adv-x="1118" 
d="M324 1239v92h462v-92h-462zM559 -20q-109 0 -201.5 34.5t-163 100.5t-110 171t-39.5 238q0 131 43 238.5t116 175.5t164 104.5t191 36.5q109 0 201 -34t162.5 -100t110.5 -171t40 -239q0 -131 -43.5 -238t-115.5 -175t-163.5 -105t-191.5 -37zM567 20q142 0 209.5 118.5
t67.5 369.5q0 278 -71.5 403t-217.5 125q-140 0 -210.5 -117.5t-70.5 -371.5q0 -278 71.5 -402.5t221.5 -124.5z" />
    <glyph glyph-name="Obreve" unicode="&#x14e;" horiz-adv-x="1394" 
d="M696 1495q-60 0 -105 21t-71.5 58t-41 80t-19.5 95l16 4q29 -62 79 -91.5t140 -29.5q89 0 136.5 30.5t78.5 90.5l15 -4q-4 -69 -27.5 -124t-75.5 -92.5t-125 -37.5zM692 -20q-139 0 -254.5 44.5t-202.5 130.5t-135.5 223t-48.5 312q0 157 36.5 285t98 213t146 143
t177 83.5t193.5 25.5q139 0 254.5 -45t202.5 -132.5t135.5 -226.5t48.5 -317q0 -157 -36.5 -283.5t-98 -210t-146 -140t-176.5 -81t-194 -24.5zM696 25q207 0 303.5 159.5t96.5 499.5q0 711 -398 711q-205 0 -302 -164t-97 -506q0 -348 100.5 -524t296.5 -176z" />
    <glyph glyph-name="obreve" unicode="&#x14f;" horiz-adv-x="1118" 
d="M559 -20q-109 0 -201.5 34.5t-163 100.5t-110 171t-39.5 238q0 131 43 238.5t116 175.5t164 104.5t191 36.5q109 0 201 -34t162.5 -100t110.5 -171t40 -239q0 -131 -43.5 -238t-115.5 -175t-163.5 -105t-191.5 -37zM567 20q142 0 209.5 118.5t67.5 369.5q0 278 -71.5 403
t-217.5 125q-140 0 -210.5 -117.5t-70.5 -371.5q0 -278 71.5 -402.5t221.5 -124.5zM559 1186q-111 0 -166 69t-61 185l16 4q23 -60 77.5 -91.5t131.5 -31.5q73 0 125 33t78 90l16 -4q-5 -113 -61 -183.5t-156 -70.5z" />
    <glyph glyph-name="Ohungarumlaut" unicode="&#x150;" horiz-adv-x="1394" 
d="M494 1495l-15 12l123 230q19 38 40 54.5t50 16.5q37 0 64.5 -26t27.5 -60q0 -54 -69 -96zM827 1495l-14 12l123 230q19 38 40 54.5t50 16.5q37 0 64.5 -26t27.5 -60q0 -54 -67 -96zM692 -20q-139 0 -254.5 44.5t-202.5 130.5t-135.5 223t-48.5 312q0 157 36.5 285t98 213
t146 143t177 83.5t193.5 25.5q139 0 254.5 -45t202.5 -132.5t135.5 -226.5t48.5 -317q0 -157 -36.5 -283.5t-98 -210t-146 -140t-176.5 -81t-194 -24.5zM696 25q207 0 303.5 159.5t96.5 499.5q0 711 -398 711q-205 0 -302 -164t-97 -506q0 -348 100.5 -524t296.5 -176z" />
    <glyph glyph-name="ohungarumlaut" unicode="&#x151;" horiz-adv-x="1118" 
d="M334 1165l-12 15l135 247q35 66 90 66q34 0 61 -27.5t27 -62.5q0 -57 -66 -96zM645 1165l-12 15l135 247q35 66 88 66q35 0 62.5 -27.5t27.5 -62.5q0 -56 -65 -96zM559 -20q-109 0 -201.5 34.5t-163 100.5t-110 171t-39.5 238q0 131 43 238.5t116 175.5t164 104.5
t191 36.5q109 0 201 -34t162.5 -100t110.5 -171t40 -239q0 -131 -43.5 -238t-115.5 -175t-163.5 -105t-191.5 -37zM567 20q142 0 209.5 118.5t67.5 369.5q0 278 -71.5 403t-217.5 125q-140 0 -210.5 -117.5t-70.5 -371.5q0 -278 71.5 -402.5t221.5 -124.5z" />
    <glyph glyph-name="OE" unicode="&#x152;" horiz-adv-x="1925" 
d="M1878 430l-29 -430h-1116q-682 0 -682 696q0 178 50 316t142 227t219 134.5t283 45.5h1063l23 -358h-25q-60 147 -98 209q-42 66 -95.5 84t-195.5 18q-141 0 -229 -18v-594h119q89 0 130 5.5t61.5 19.5t35.5 46q25 45 49 152h23v-491h-23q-22 92 -49 151q-20 46 -59.5 58
t-167.5 12h-119v-502q0 -34 0.5 -52.5t5.5 -38.5t9.5 -29.5t20 -19.5t30 -13.5t45.5 -6.5t60.5 -3.5t80.5 -0.5q99 0 151 10.5t77 29.5t58 65q49 70 127 278h25zM766 47q51 0 83 7.5t57 28t35.5 58.5t10.5 97v985q0 95 -39.5 123t-146.5 28q-100 0 -180 -33.5t-134 -92
t-89.5 -140.5t-51.5 -174.5t-16 -198.5q0 -688 471 -688z" />
    <glyph glyph-name="oe" unicode="&#x153;" horiz-adv-x="1787" 
d="M559 -20q-109 0 -201.5 34.5t-163 100.5t-110 171t-39.5 238q0 131 43.5 238.5t116.5 175.5t164.5 104.5t191.5 36.5q135 0 237 -56t160 -165q63 105 162 163t217 58q413 0 410 -485h-686v-16q0 -254 92.5 -371t269.5 -117q171 0 299 74v-27q-63 -70 -158.5 -116
t-213.5 -46q-301 0 -414 211q-62 -100 -161 -153t-216 -53zM559 20q135 0 201.5 119t66.5 369q0 281 -64.5 404.5t-205.5 123.5q-132 0 -205 -119.5t-73 -369.5q0 -280 67 -403.5t213 -123.5zM1329 1036q-118 0 -188.5 -100.5t-79.5 -308.5l461 18q0 210 -42.5 300.5
t-150.5 90.5z" />
    <glyph glyph-name="Racute" unicode="&#x154;" horiz-adv-x="1255" 
d="M430 1491l-6 14l262 215q36 33 78 33q40 0 65 -28t25 -66q0 -74 -84 -90zM25 0v23l75 14q56 12 69 31t13 96v1091q0 77 -13 96t-69 31l-75 15v22h602q238 0 352.5 -84.5t114.5 -255.5q0 -139 -76 -227t-225 -135v-4q228 -429 358 -596q36 -48 57.5 -63.5t51.5 -22.5
l36 -8v-23h-344q-179 255 -383 668q-45 0 -151 4v-508q0 -77 12.5 -96t69.5 -31l73 -14v-23h-548zM547 715q154 0 230.5 79t76.5 253q0 176 -65.5 250.5t-196.5 74.5q-96 0 -174 -16v-631q67 -10 129 -10z" />
    <glyph glyph-name="racute" unicode="&#x155;" horiz-adv-x="800" 
d="M285 1176l-9 14l232 219q43 37 82 37q38 0 65 -28t27 -68q0 -73 -78 -93zM20 0v20l58 15q52 12 64 29t12 77v723q0 56 -12 73t-66 46l-51 29v16l329 45l13 -8l-2 -147h4q174 161 290 161q63 0 97.5 -33t34.5 -92q0 -53 -30.5 -83.5t-78.5 -30.5q-42 0 -65.5 19.5
t-41.5 55.5q-11 28 -19.5 37t-27.5 9q-50 0 -161 -84v-736q0 -56 12.5 -75.5t56.5 -28.5l88 -17v-20h-504z" />
    <glyph glyph-name="Rcommaaccent" unicode="&#x156;" horiz-adv-x="1255" 
d="M504 -451l-6 15q84 35 121 77.5t45 100.5q-23 -23 -66 -23q-39 0 -62.5 25t-23.5 63t30.5 68.5t80.5 30.5q56 0 91.5 -35t35.5 -94q0 -84 -67 -147.5t-179 -80.5zM25 0v23l75 14q56 12 69 31t13 96v1091q0 77 -13 96t-69 31l-75 15v22h602q238 0 352.5 -84.5
t114.5 -255.5q0 -139 -76 -227t-225 -135v-4q228 -429 358 -596q36 -48 57.5 -63.5t51.5 -22.5l36 -8v-23h-344q-179 255 -383 668q-45 0 -151 4v-508q0 -77 12.5 -96t69.5 -31l73 -14v-23h-548zM547 715q154 0 230.5 79t76.5 253q0 176 -65.5 250.5t-196.5 74.5
q-96 0 -174 -16v-631q67 -10 129 -10z" />
    <glyph glyph-name="rcommaaccent" unicode="&#x157;" horiz-adv-x="800" 
d="M131 -451l-6 15q84 35 121 77.5t45 100.5q-23 -23 -66 -23q-39 0 -62.5 25t-23.5 63t30.5 68.5t80.5 30.5q56 0 91.5 -35t35.5 -94q0 -84 -67 -147.5t-179 -80.5zM20 0v20l58 15q52 12 64 29t12 77v723q0 56 -12 73t-66 46l-51 29v16l329 45l13 -8l-2 -147h4
q174 161 290 161q63 0 97.5 -33t34.5 -92q0 -53 -30.5 -83.5t-78.5 -30.5q-42 0 -65.5 19.5t-41.5 55.5q-11 28 -19.5 37t-27.5 9q-50 0 -161 -84v-736q0 -56 12.5 -75.5t56.5 -28.5l88 -17v-20h-504z" />
    <glyph glyph-name="Rcaron" unicode="&#x158;" horiz-adv-x="1255" 
d="M309 1745l13 14l268 -108l266 108l10 -14l-239 -254h-76zM25 0v23l75 14q56 12 69 31t13 96v1091q0 77 -13 96t-69 31l-75 15v22h602q238 0 352.5 -84.5t114.5 -255.5q0 -139 -76 -227t-225 -135v-4q228 -429 358 -596q36 -48 57.5 -63.5t51.5 -22.5l36 -8v-23h-344
q-179 255 -383 668q-45 0 -151 4v-508q0 -77 12.5 -96t69.5 -31l73 -14v-23h-548zM547 715q154 0 230.5 79t76.5 253q0 176 -65.5 250.5t-196.5 74.5q-96 0 -174 -16v-631q67 -10 129 -10z" />
    <glyph glyph-name="rcaron" unicode="&#x159;" horiz-adv-x="800" 
d="M469 1180h-74l-215 276l10 14l242 -124l244 124l10 -14zM20 0v20l58 15q52 12 64 29t12 77v723q0 56 -12 73t-66 46l-51 29v16l329 45l13 -8l-2 -147h4q174 161 290 161q63 0 97.5 -33t34.5 -92q0 -53 -30.5 -83.5t-78.5 -30.5q-42 0 -65.5 19.5t-41.5 55.5
q-11 28 -19.5 37t-27.5 9q-50 0 -161 -84v-736q0 -56 12.5 -75.5t56.5 -28.5l88 -17v-20h-504z" />
    <glyph glyph-name="Sacute" unicode="&#x15a;" horiz-adv-x="972" 
d="M449 -20q-249 0 -390 69l-26 361h26q76 -166 125 -240q49 -76 113.5 -110.5t167.5 -34.5q124 0 195 72t71 192q0 113 -65.5 181.5t-249.5 158.5q-84 38 -143.5 76t-109.5 87.5t-75 113t-25 141.5q0 169 119.5 281t323.5 112q203 0 317 -56l23 -331h-25q-70 154 -114 217
q-46 72 -91 98.5t-131 26.5q-120 0 -186 -60.5t-66 -173.5q0 -110 59.5 -175t215.5 -138q118 -57 189 -100t125 -96t76 -113.5t22 -141.5q0 -79 -30 -152t-86 -133t-148.5 -96t-206.5 -36zM307 1491l-6 14l262 215q36 33 78 33q40 0 65 -28t25 -66q0 -74 -84 -90z" />
    <glyph glyph-name="sacute" unicode="&#x15b;" horiz-adv-x="802" 
d="M244 1176l-8 14l231 219q43 37 82 37q38 0 65 -28t27 -68q0 -73 -78 -93zM367 -20q-175 0 -318 47l-6 299h23q65 -134 86 -168q40 -75 92.5 -106.5t140.5 -31.5q92 0 145.5 52t53.5 139q0 81 -52.5 129t-189.5 102q-148 59 -218.5 133.5t-70.5 194.5q0 137 102.5 223
t270.5 86q146 0 268 -47l6 -258h-22q-60 116 -90 162q-35 53 -76 76.5t-109 23.5q-93 0 -145.5 -49t-52.5 -125q0 -75 55.5 -122t190.5 -101q77 -31 128 -59.5t94.5 -67t64 -88t20.5 -113.5q0 -143 -104 -237t-287 -94z" />
    <glyph glyph-name="Scircumflex" unicode="&#x15c;" horiz-adv-x="972" 
d="M217 1481l-12 14l241 254h76l240 -254l-10 -14l-267 108zM449 -20q-249 0 -390 69l-26 361h26q76 -166 125 -240q49 -76 113.5 -110.5t167.5 -34.5q124 0 195 72t71 192q0 113 -65.5 181.5t-249.5 158.5q-84 38 -143.5 76t-109.5 87.5t-75 113t-25 141.5q0 169 119.5 281
t323.5 112q203 0 317 -56l23 -331h-25q-70 154 -114 217q-46 72 -91 98.5t-131 26.5q-120 0 -186 -60.5t-66 -173.5q0 -110 59.5 -175t215.5 -138q118 -57 189 -100t125 -96t76 -113.5t22 -141.5q0 -79 -30 -152t-86 -133t-148.5 -96t-206.5 -36z" />
    <glyph glyph-name="scircumflex" unicode="&#x15d;" horiz-adv-x="802" 
d="M367 1458h73l217 -276l-10 -15l-244 127l-241 -127l-10 15zM367 -20q-175 0 -318 47l-6 299h23q65 -134 86 -168q40 -75 92.5 -106.5t140.5 -31.5q92 0 145.5 52t53.5 139q0 81 -52.5 129t-189.5 102q-148 59 -218.5 133.5t-70.5 194.5q0 137 102.5 223t270.5 86
q146 0 268 -47l6 -258h-22q-60 116 -90 162q-35 53 -76 76.5t-109 23.5q-93 0 -145.5 -49t-52.5 -125q0 -75 55.5 -122t190.5 -101q77 -31 128 -59.5t94.5 -67t64 -88t20.5 -113.5q0 -143 -104 -237t-287 -94z" />
    <glyph glyph-name="Scedilla" unicode="&#x15e;" horiz-adv-x="972" 
d="M268 -408v21q96 28 139.5 59.5t43.5 73.5q0 59 -103 68l-6 8l74 158q-231 6 -357 69l-26 361h26q76 -166 125 -240q49 -76 113.5 -110.5t167.5 -34.5q124 0 195 72t71 192q0 113 -65.5 181.5t-249.5 158.5q-84 38 -143.5 76t-109.5 87.5t-75 113t-25 141.5
q0 169 119.5 281t323.5 112q203 0 317 -56l23 -331h-25q-70 154 -114 217q-46 72 -91 98.5t-131 26.5q-120 0 -186 -60.5t-66 -173.5q0 -110 59.5 -175t215.5 -138q118 -57 189 -100t125 -96t76 -113.5t22 -141.5q0 -77 -28.5 -149t-83 -131.5t-143 -96.5t-198.5 -40
l-41 -78q75 -8 118.5 -39.5t43.5 -87.5q0 -73 -86 -121t-234 -62z" />
    <glyph glyph-name="scedilla" unicode="&#x15f;" horiz-adv-x="802" 
d="M164 -408v21q96 28 139 59t43 74q0 60 -102 68l-6 8l73 160q-141 5 -262 45l-6 299h23q65 -134 86 -168q40 -75 92.5 -106.5t140.5 -31.5q92 0 145.5 52t53.5 139q0 81 -52.5 129t-189.5 102q-148 59 -218.5 133.5t-70.5 194.5q0 137 102.5 223t270.5 86q146 0 268 -47
l6 -258h-22q-60 116 -90 162q-35 53 -76 76.5t-109 23.5q-93 0 -145.5 -49t-52.5 -125q0 -75 55.5 -122t190.5 -101q77 -31 128 -59.5t94.5 -67t64 -88t20.5 -113.5q0 -143 -104 -237t-287 -94h-5l-40 -78q74 -8 117.5 -39.5t43.5 -87.5q0 -73 -85.5 -121t-233.5 -62z" />
    <glyph glyph-name="Scaron" unicode="&#x160;" horiz-adv-x="972" 
d="M209 1745l12 14l268 -108l267 108l10 -14l-240 -254h-75zM449 -20q-249 0 -390 69l-26 361h26q76 -166 125 -240q49 -76 113.5 -110.5t167.5 -34.5q124 0 195 72t71 192q0 113 -65.5 181.5t-249.5 158.5q-84 38 -143.5 76t-109.5 87.5t-75 113t-25 141.5q0 169 119.5 281
t323.5 112q203 0 317 -56l23 -331h-25q-70 154 -114 217q-46 72 -91 98.5t-131 26.5q-120 0 -186 -60.5t-66 -173.5q0 -110 59.5 -175t215.5 -138q118 -57 189 -100t125 -96t76 -113.5t22 -141.5q0 -79 -30 -152t-86 -133t-148.5 -96t-206.5 -36z" />
    <glyph glyph-name="scaron" unicode="&#x161;" horiz-adv-x="802" 
d="M444 1180h-73l-215 276l10 14l242 -124l243 124l11 -14zM367 -20q-175 0 -318 47l-6 299h23q65 -134 86 -168q40 -75 92.5 -106.5t140.5 -31.5q92 0 145.5 52t53.5 139q0 81 -52.5 129t-189.5 102q-148 59 -218.5 133.5t-70.5 194.5q0 137 102.5 223t270.5 86
q146 0 268 -47l6 -258h-22q-60 116 -90 162q-35 53 -76 76.5t-109 23.5q-93 0 -145.5 -49t-52.5 -125q0 -75 55.5 -122t190.5 -101q77 -31 128 -59.5t94.5 -67t64 -88t20.5 -113.5q0 -143 -104 -237t-287 -94z" />
    <glyph glyph-name="Tcommaaccent" unicode="&#x162;" horiz-adv-x="1165" 
d="M455 -451l-6 15q83 35 120 77.5t45 100.5q-23 -23 -65 -23q-39 0 -62.5 25t-23.5 63t30 68.5t80 30.5q56 0 91.5 -35t35.5 -94q0 -85 -66.5 -148t-178.5 -80zM770 1374h-70v-1210q0 -77 13.5 -96t74.5 -31l76 -14v-23h-561v23l78 14q22 4 34 7t23 9.5t15.5 13.5t8.5 21.5
t4.5 31t0.5 44.5v1210h-68q-87 0 -135 -14.5t-68.5 -38.5t-45.5 -76q-44 -88 -107 -248h-25l23 422h1085l21 -422h-25q-55 149 -102 248q-19 40 -33.5 60.5t-41.5 38.5t-67.5 24t-107.5 6z" />
    <glyph glyph-name="tcommaaccent" unicode="&#x163;" horiz-adv-x="638" 
d="M219 -451l-6 15q84 35 121 77.5t45 100.5q-23 -23 -66 -23q-39 0 -62.5 25t-23.5 63t30.5 68.5t80.5 30.5q56 0 91.5 -35t35.5 -94q0 -84 -67 -147.5t-179 -80.5zM365 -20q-114 0 -176 55t-62 168v770h-119v18q103 39 179.5 116t119.5 183h33v-246h274l-8 -71h-266v-762
q0 -74 32.5 -104.5t104.5 -30.5q61 0 152 28v-22q-44 -40 -112.5 -71t-151.5 -31z" />
    <glyph glyph-name="Tcaron" unicode="&#x164;" horiz-adv-x="1169" 
d="M303 1745l12 14l269 -108l266 108l10 -14l-239 -254h-76zM770 1374h-70v-1210q0 -77 13.5 -96t74.5 -31l76 -14v-23h-561v23l78 14q22 4 34 7t23 9.5t15.5 13.5t8.5 21.5t4.5 31t0.5 44.5v1210h-68q-87 0 -135 -14.5t-68.5 -38.5t-45.5 -76q-44 -88 -107 -248h-25l23 422
h1085l21 -422h-25q-55 149 -102 248q-19 40 -33.5 60.5t-41.5 38.5t-67.5 24t-107.5 6z" />
    <glyph glyph-name="tcaron" unicode="&#x165;" horiz-adv-x="638" 
d="M455 1198l-17 4l8 264q0 88 76 88q39 0 63.5 -21t26.5 -54q0 -31 -26 -74zM365 -20q-114 0 -176 55t-62 168v770h-119v18q103 39 179.5 116t119.5 183h33v-246h274l-8 -71h-266v-762q0 -74 32.5 -104.5t104.5 -30.5q61 0 152 28v-22q-44 -40 -112.5 -71t-151.5 -31z" />
    <glyph glyph-name="Tbar" unicode="&#x166;" horiz-adv-x="1169" 
d="M172 754v51h295v569h-68q-87 0 -135 -14.5t-68.5 -38.5t-45.5 -76q-58 -123 -107 -248h-23l21 422h1085l21 -422h-25q-55 149 -102 248q-19 40 -33.5 60.5t-41.5 38.5t-67.5 24t-107.5 6h-70v-569h297v-51h-297v-590q0 -77 13.5 -96t74.5 -31l76 -14v-23h-561v23l78 14
q22 4 34 7t23 9.5t15.5 13.5t8.5 21.5t4.5 31t0.5 44.5v590h-295z" />
    <glyph glyph-name="tbar" unicode="&#x167;" horiz-adv-x="638" 
d="M8 680v49h123v244h-119v18q103 39 179.5 116t119.5 183h33v-246h274l-8 -71h-266v-244h264v-49h-264v-469q0 -74 32.5 -104.5t104.5 -30.5q61 0 152 28v-22q-44 -40 -112.5 -71t-151.5 -31q-114 0 -176 55t-62 168v477h-123z" />
    <glyph glyph-name="Utilde" unicode="&#x168;" horiz-adv-x="1361" 
d="M700 -20q-261 0 -395.5 110t-134.5 359v806q0 34 -2 52.5t-5.5 33t-14 21.5t-23 11t-37.5 9l-78 15v22h551v-22l-74 -15q-58 -12 -71 -31t-13 -96v-819q0 -192 90 -280t281 -88q182 0 265 94.5t83 286.5v768q0 92 -13.5 121t-70.5 40l-94 19v22h408v-22l-80 -19
q-49 -10 -63.5 -40t-14.5 -117v-793q0 -98 -27 -177t-84 -141t-154.5 -96t-228.5 -34zM891 1530q-45 0 -150 24.5t-147 24.5q-40 0 -63 -17t-52 -65l-20 10q39 113 77 165t105 52q44 0 147 -24.5t142 -24.5q40 0 69 19t56 65l20 -10q-37 -113 -76 -166t-108 -53z" />
    <glyph glyph-name="utilde" unicode="&#x169;" horiz-adv-x="1148" 
d="M793 156v700q0 61 -10.5 79t-63.5 46l-53 31v16l329 45l11 -6v-874q0 -68 13.5 -89.5t63.5 -40.5l56 -20v-18l-332 -45l-12 4v133h-7q-201 -137 -378 -137q-126 0 -196.5 68.5t-70.5 197.5v612q0 43 -5.5 62t-18 29.5t-49.5 31.5l-54 31v16l328 45l12 -6v-780
q0 -95 45.5 -143t130.5 -48q120 0 261 60zM322 1182l-21 8q21 59 35 91t34.5 65t46 47t58.5 14q38 0 127 -18.5t119 -18.5q43 0 67.5 18t51.5 62l20 -8q-18 -50 -27.5 -73t-26.5 -57t-32.5 -48t-39.5 -25.5t-54 -11.5q-39 0 -125.5 17.5t-120.5 17.5q-41 0 -63.5 -18
t-48.5 -62z" />
    <glyph glyph-name="Umacron" unicode="&#x16a;" horiz-adv-x="1361" 
d="M700 -20q-261 0 -395.5 110t-134.5 359v806q0 34 -2 52.5t-5.5 33t-14 21.5t-23 11t-37.5 9l-78 15v22h551v-22l-74 -15q-58 -12 -71 -31t-13 -96v-819q0 -192 90 -280t281 -88q182 0 265 94.5t83 286.5v768q0 92 -13.5 121t-70.5 40l-94 19v22h408v-22l-80 -19
q-49 -10 -63.5 -40t-14.5 -117v-793q0 -98 -27 -177t-84 -141t-154.5 -96t-228.5 -34zM487 1544v94h498v-94h-498z" />
    <glyph glyph-name="umacron" unicode="&#x16b;" horiz-adv-x="1148" 
d="M793 156v700q0 61 -10.5 79t-63.5 46l-53 31v16l329 45l11 -6v-874q0 -68 13.5 -89.5t63.5 -40.5l56 -20v-18l-332 -45l-12 4v133h-7q-201 -137 -378 -137q-126 0 -196.5 68.5t-70.5 197.5v612q0 43 -5.5 62t-18 29.5t-49.5 31.5l-54 31v16l328 45l12 -6v-780
q0 -95 45.5 -143t130.5 -48q120 0 261 60zM326 1239v92h462v-92h-462z" />
    <glyph glyph-name="Ubreve" unicode="&#x16c;" horiz-adv-x="1361" 
d="M700 -20q-261 0 -395.5 110t-134.5 359v806q0 34 -2 52.5t-5.5 33t-14 21.5t-23 11t-37.5 9l-78 15v22h551v-22l-74 -15q-58 -12 -71 -31t-13 -96v-819q0 -192 90 -280t281 -88q182 0 265 94.5t83 286.5v768q0 92 -13.5 121t-70.5 40l-94 19v22h408v-22l-80 -19
q-49 -10 -63.5 -40t-14.5 -117v-793q0 -98 -27 -177t-84 -141t-154.5 -96t-228.5 -34zM743 1495q-60 0 -105 21t-71.5 58t-41 80t-19.5 95l16 4q29 -62 79 -91.5t140 -29.5q89 0 136.5 30.5t78.5 90.5l15 -4q-4 -69 -27.5 -124t-75.5 -92.5t-125 -37.5z" />
    <glyph glyph-name="ubreve" unicode="&#x16d;" horiz-adv-x="1148" 
d="M793 156v700q0 61 -10.5 79t-63.5 46l-53 31v16l329 45l11 -6v-874q0 -68 13.5 -89.5t63.5 -40.5l56 -20v-18l-332 -45l-12 4v133h-7q-201 -137 -378 -137q-126 0 -196.5 68.5t-70.5 197.5v612q0 43 -5.5 62t-18 29.5t-49.5 31.5l-54 31v16l328 45l12 -6v-780
q0 -95 45.5 -143t130.5 -48q120 0 261 60zM578 1186q-111 0 -166.5 69t-61.5 185l17 4q23 -60 77 -91.5t131 -31.5q73 0 125 33t78 90l17 -4q-5 -113 -61 -183.5t-156 -70.5z" />
    <glyph glyph-name="Uring" unicode="&#x16e;" horiz-adv-x="1361" 
d="M700 -20q-261 0 -395.5 110t-134.5 359v806q0 34 -2 52.5t-5.5 33t-14 21.5t-23 11t-37.5 9l-78 15v22h551v-22l-74 -15q-58 -12 -71 -31t-13 -96v-819q0 -192 90 -280t281 -88q182 0 265 94.5t83 286.5v768q0 92 -13.5 121t-70.5 40l-94 19v22h408v-22l-80 -19
q-49 -10 -63.5 -40t-14.5 -117v-793q0 -98 -27 -177t-84 -141t-154.5 -96t-228.5 -34zM580 1618q0 70 50 117t122 47t122 -47t50 -117q0 -69 -50 -115.5t-122 -46.5t-122 46.5t-50 115.5zM635 1618q0 -51 32 -85t85 -34q52 0 84 34t32 85t-32.5 86t-83.5 35q-53 0 -85 -35
t-32 -86z" />
    <glyph glyph-name="uring" unicode="&#x16f;" horiz-adv-x="1148" 
d="M391 1341q0 70 50 118t122 48t122 -48t50 -118q0 -69 -50 -115t-122 -46t-122 46t-50 115zM446 1341q0 -51 32 -84.5t85 -33.5q52 0 84.5 34t32.5 84q0 52 -32.5 87.5t-84.5 35.5q-53 0 -85 -35.5t-32 -87.5zM793 156v700q0 61 -10.5 79t-63.5 46l-53 31v16l329 45l11 -6
v-874q0 -68 13.5 -89.5t63.5 -40.5l56 -20v-18l-332 -45l-12 4v133h-7q-201 -137 -378 -137q-126 0 -196.5 68.5t-70.5 197.5v612q0 43 -5.5 62t-18 29.5t-49.5 31.5l-54 31v16l328 45l12 -6v-780q0 -95 45.5 -143t130.5 -48q120 0 261 60z" />
    <glyph glyph-name="Uhungarumlaut" unicode="&#x170;" horiz-adv-x="1361" 
d="M520 1495l-14 12l123 230q19 38 40 54.5t50 16.5q37 0 64.5 -26t27.5 -60q0 -53 -70 -96zM854 1495l-14 12l123 230q19 38 40 54.5t50 16.5q37 0 64.5 -26t27.5 -60q0 -53 -68 -96zM700 -20q-261 0 -395.5 110t-134.5 359v806q0 34 -2 52.5t-5.5 33t-14 21.5t-23 11
t-37.5 9l-78 15v22h551v-22l-74 -15q-58 -12 -71 -31t-13 -96v-819q0 -192 90 -280t281 -88q182 0 265 94.5t83 286.5v768q0 92 -13.5 121t-70.5 40l-94 19v22h408v-22l-80 -19q-49 -10 -63.5 -40t-14.5 -117v-793q0 -98 -27 -177t-84 -141t-154.5 -96t-228.5 -34z" />
    <glyph glyph-name="uhungarumlaut" unicode="&#x171;" horiz-adv-x="1148" 
d="M793 156v700q0 61 -10.5 79t-63.5 46l-53 31v16l329 45l11 -6v-874q0 -68 13.5 -89.5t63.5 -40.5l56 -20v-18l-332 -45l-12 4v133h-7q-201 -137 -378 -137q-126 0 -196.5 68.5t-70.5 197.5v612q0 43 -5.5 62t-18 29.5t-49.5 31.5l-54 31v16l328 45l12 -6v-780
q0 -95 45.5 -143t130.5 -48q120 0 261 60zM346 1165l-12 15l135 247q35 66 90 66q34 0 61 -27.5t27 -62.5q0 -58 -65 -96zM657 1165l-12 15l135 247q35 66 88 66q35 0 62.5 -27.5t27.5 -62.5q0 -56 -65 -96z" />
    <glyph glyph-name="Uogonek" unicode="&#x172;" horiz-adv-x="1361" 
d="M700 -20q-261 0 -395.5 110t-134.5 359v806q0 34 -2 52.5t-5.5 33t-14 21.5t-23 11t-37.5 9l-78 15v22h551v-22l-74 -15q-58 -12 -71 -31t-13 -96v-819q0 -192 90 -280t281 -88q182 0 265 94.5t83 286.5v768q0 92 -13.5 121t-70.5 40l-94 19v22h408v-22l-80 -19
q-49 -10 -63.5 -40t-14.5 -117v-793q0 -141 -54.5 -237t-176.5 -173q-116 -70 -161.5 -128t-45.5 -134q0 -100 108 -100q46 0 78 14v-24q-26 -28 -71.5 -45t-94.5 -17q-89 0 -137.5 40t-48.5 106q0 152 272 262q-74 -12 -162 -12z" />
    <glyph glyph-name="uogonek" unicode="&#x173;" horiz-adv-x="1148" 
d="M791 -27v144h-9q-201 -137 -379 -137q-126 0 -196 68.5t-70 197.5v610q0 61 -11 79t-63 46l-53 31v16l328 45l12 -6v-780q0 -95 45.5 -143t130.5 -48q119 0 260 60v698q0 62 -10.5 81t-62.5 46l-54 31v16l330 45l10 -6v-874q0 -67 13.5 -89t64.5 -41l56 -20v-18l-99 -15
q-159 -25 -225 -87.5t-66 -162.5q0 -104 115 -104q41 0 76 14v-22q-24 -28 -67 -46t-93 -18q-94 0 -144 41t-50 111q0 69 49.5 124.5t161.5 112.5z" />
    <glyph glyph-name="Wcircumflex" unicode="&#x174;" horiz-adv-x="1908" 
d="M711 1481l-13 14l242 254h76l239 -254l-10 -14l-266 108zM1427 299l259 875q22 83 22 126q0 35 -18.5 52t-63.5 30l-61 15v22h368v-22l-35 -13q-61 -20 -89.5 -62.5t-65.5 -168.5l-352 -1153h-105l-313 938h-4l-314 -938h-104l-410 1202q-36 106 -58 138t-71 44l-49 13
v22h531v-22l-54 -13q-41 -9 -58 -25t-17 -44q0 -35 34 -139l293 -881h6l244 735l-59 180q-32 96 -54.5 128.5t-70.5 45.5l-47 13v22h528v-22l-61 -13q-74 -17 -74 -73q0 -30 31 -135l286 -877h6z" />
    <glyph glyph-name="wcircumflex" unicode="&#x175;" horiz-adv-x="1521" 
d="M745 1458h74l217 -276l-10 -15l-244 127l-241 -127l-11 15zM1403 850l-295 -850h-86l-240 688h-6l-246 -688h-84l-317 870q-29 77 -49.5 104t-54.5 36l-43 14v20h460v-20l-45 -10q-34 -8 -45.5 -23.5t-11.5 -40.5t27 -112l196 -592h6l187 524l-37 100q-27 76 -48 103.5
t-57 38.5l-39 12v20h451v-20l-49 -12q-36 -10 -49 -26.5t-13 -43.5t23 -106l197 -586h8l192 579q27 85 27 117q0 46 -66 64l-51 14v20h311v-20l-28 -10q-51 -17 -72.5 -45.5t-52.5 -118.5z" />
    <glyph glyph-name="Ycircumflex" unicode="&#x176;" horiz-adv-x="1198" 
d="M340 0v23l82 14q58 11 72 30.5t14 96.5v422l-367 651q-48 87 -69 111t-60 36l-43 13v22h557v-22l-69 -15q-49 -10 -64.5 -24.5t-15.5 -42.5q0 -37 33 -96l301 -557h6l254 536q30 68 30 111q0 28 -17.5 45.5t-59.5 27.5l-66 15v22h369v-22l-39 -15q-37 -12 -57 -28.5
t-42.5 -53t-64.5 -122.5l-281 -588v-426q0 -28 0.5 -44.5t4.5 -31t8.5 -21.5t15.5 -13.5t23 -9.5t34 -7l78 -14v-23h-567zM403 1481l-12 14l242 254h76l239 -254l-10 -14l-266 108z" />
    <glyph glyph-name="ycircumflex" unicode="&#x177;" horiz-adv-x="985" 
d="M582 260l206 565q27 80 27 121q0 47 -65 64l-50 14v20h314v-20l-33 -12q-42 -13 -65 -45t-58 -119l-362 -959q-63 -163 -137.5 -235t-188.5 -72q-69 0 -111.5 33t-42.5 86q0 46 28 73t75 27q40 0 65.5 -22.5t32.5 -65.5q9 -41 17 -48t22 -7q39 0 88 52.5t86 152.5l41 117
l-352 890q-29 75 -50.5 103t-56.5 37l-39 14v20h476v-20l-54 -14q-33 -9 -46 -24.5t-13 -41.5q0 -34 26 -106l211 -578h9zM485 1458h74l217 -276l-10 -15l-244 127l-241 -127l-11 15z" />
    <glyph glyph-name="Ydieresis" unicode="&#x178;" horiz-adv-x="1198" 
d="M340 0v23l82 14q58 11 72 30.5t14 96.5v422l-367 651q-48 87 -69 111t-60 36l-43 13v22h557v-22l-69 -15q-49 -10 -64.5 -24.5t-15.5 -42.5q0 -37 33 -96l301 -557h6l254 536q30 68 30 111q0 28 -17.5 45.5t-59.5 27.5l-66 15v22h369v-22l-39 -15q-37 -12 -57 -28.5
t-42.5 -53t-64.5 -122.5l-281 -588v-426q0 -28 0.5 -44.5t4.5 -31t8.5 -21.5t15.5 -13.5t23 -9.5t34 -7l78 -14v-23h-567zM489 1495q-50 0 -83 33.5t-33 85.5q0 49 33 82t83 33q52 0 85.5 -32.5t33.5 -82.5q0 -52 -33 -85.5t-86 -33.5zM852 1495q-51 0 -85 33.5t-34 85.5
q0 49 34 82t85 33t85 -33t34 -82q0 -52 -34 -85.5t-85 -33.5z" />
    <glyph glyph-name="Zacute" unicode="&#x179;" horiz-adv-x="1146" 
d="M444 1491l-6 14l262 215q36 33 78 33q40 0 65 -28t25 -66q0 -74 -84 -90zM41 0v49l782 1317v8h-170q-118 0 -188.5 -5.5t-111.5 -21.5t-58 -33t-37 -52q-54 -98 -119 -252h-22l28 409h942v-47l-786 -1321v-8h164q102 0 161 1t111.5 7t76.5 12t49.5 23t38 33t34.5 49
q46 69 127 258h22l-36 -426h-1008z" />
    <glyph glyph-name="zacute" unicode="&#x17a;" horiz-adv-x="946" 
d="M342 1176l-8 14l231 219q43 37 82 37q38 0 65 -28t27 -68q0 -73 -77 -93zM37 0v43l620 948v8h-225q-81 0 -117 -7t-57 -25t-51 -66q-20 -27 -92 -172h-21l15 315h792v-36l-622 -955v-8h206q106 0 160 11t77.5 31t49.5 67q39 62 92 186h21l-23 -340h-825z" />
    <glyph glyph-name="Zdotaccent" unicode="&#x17b;" horiz-adv-x="1146" 
d="M41 0v49l782 1317v8h-170q-118 0 -188.5 -5.5t-111.5 -21.5t-58 -33t-37 -52q-54 -98 -119 -252h-22l28 409h942v-47l-786 -1321v-8h164q102 0 161 1t111.5 7t76.5 12t49.5 23t38 33t34.5 49q46 69 127 258h22l-36 -426h-1008zM614 1499q-54 0 -92.5 36t-38.5 87
q0 52 38.5 87.5t92.5 35.5q53 0 89 -35.5t36 -87.5q0 -51 -36.5 -87t-88.5 -36z" />
    <glyph glyph-name="zdotaccent" unicode="&#x17c;" horiz-adv-x="946" 
d="M37 0v43l620 948v8h-225q-81 0 -117 -7t-57 -25t-51 -66q-20 -27 -92 -172h-21l15 315h792v-36l-622 -955v-8h206q106 0 160 11t77.5 31t49.5 67q39 62 92 186h21l-23 -340h-825zM369 1309q0 54 37.5 89.5t91.5 35.5t91.5 -35.5t37.5 -89.5t-37.5 -89.5t-91.5 -35.5
t-91.5 35.5t-37.5 89.5z" />
    <glyph glyph-name="Zcaron" unicode="&#x17d;" horiz-adv-x="1146" 
d="M334 1745l12 14l268 -108l267 108l10 -14l-240 -254h-76zM41 0v49l782 1317v8h-170q-118 0 -188.5 -5.5t-111.5 -21.5t-58 -33t-37 -52q-54 -98 -119 -252h-22l28 409h942v-47l-786 -1321v-8h164q102 0 161 1t111.5 7t76.5 12t49.5 23t38 33t34.5 49q46 69 127 258h22
l-36 -426h-1008z" />
    <glyph glyph-name="zcaron" unicode="&#x17e;" horiz-adv-x="946" 
d="M526 1180h-73l-215 276l10 14l241 -124l244 124l10 -14zM37 0v43l620 948v8h-225q-81 0 -117 -7t-57 -25t-51 -66q-20 -27 -92 -172h-21l15 315h792v-36l-622 -955v-8h206q106 0 160 11t77.5 31t49.5 67q39 62 92 186h21l-23 -340h-825z" />
    <glyph glyph-name="florin" unicode="&#x192;" horiz-adv-x="817" 
d="M57 748v49h166l29 211q28 214 139.5 322t272.5 108q109 0 170 -42t61 -106q0 -44 -27.5 -68t-74.5 -24q-52 0 -78.5 27.5t-32.5 89.5q-5 45 -16 63.5t-35 18.5q-52 0 -85 -52.5t-52 -195.5l-48 -352h213v-49h-219l-92 -695q-28 -224 -127 -336t-244 -112q-94 0 -147 35.5
t-53 91.5q0 41 23.5 62.5t66.5 21.5q45 0 67 -21.5t31 -75.5q12 -49 20.5 -62t26.5 -13q31 0 51 37t33 137l121 930h-160z" />
    <glyph glyph-name="Aringacute" unicode="&#x1fa;" horiz-adv-x="1269" 
d="M-20 0v23l34 10q53 15 76.5 51.5t75.5 181.5l420 1153h110l408 -1177q41 -118 68 -158t71 -51l43 -10v-23h-543v23l48 10q48 11 64.5 30.5t16.5 53.5q0 43 -26 119l-90 278h-439l-79 -233q-35 -101 -35 -156q0 -37 19.5 -57.5t66.5 -32.5l55 -12v-23h-364zM541 1153
l-205 -590h403l-192 590h-6zM465 1638q0 70 50 117t122 47t122 -47t50 -117q0 -69 -50 -115t-122 -46t-122 46t-50 115zM453 1837l-7 14l263 215q36 33 77 33q40 0 65.5 -28t25.5 -66q0 -74 -84 -90zM520 1638q0 -51 32 -84.5t85 -33.5q52 0 84.5 34t32.5 84q0 51 -33 86
t-84 35q-53 0 -85 -35t-32 -86z" />
    <glyph glyph-name="aringacute" unicode="&#x1fb;" horiz-adv-x="978" 
d="M338 -27q-139 0 -219 67t-80 185q0 54 18.5 97.5t45.5 71t72.5 50.5t82.5 35t94 27l271 67v224q0 52 -2.5 84t-12.5 65t-29 50.5t-52.5 28.5t-82.5 11q-66 0 -91 -20t-34 -74q-7 -79 -33.5 -110t-82.5 -31q-50 0 -77.5 25.5t-27.5 70.5q0 46 33.5 82.5t89.5 57.5
t122 31.5t138 10.5q182 0 268.5 -67.5t86.5 -202.5v-635q0 -82 41 -106q34 -23 106 -27v-16q-78 -50 -176 -50q-156 0 -174 129h-6q-47 -57 -121.5 -94t-167.5 -37zM430 68q67 0 117 23t76 61v362l-119 -20q-131 -23 -189.5 -73t-58.5 -159q0 -93 45 -143.5t129 -50.5z
M293 1317q0 70 50 118t122 48t122 -48t50 -118q0 -69 -50 -115.5t-122 -46.5t-122 46.5t-50 115.5zM348 1317q0 -51 32 -85t85 -34q52 0 84.5 34.5t32.5 84.5q0 52 -32.5 87.5t-84.5 35.5q-53 0 -85 -35.5t-32 -87.5zM258 1518l-6 14l262 215q36 33 78 33q40 0 65 -28
t25 -66q0 -75 -84 -91z" />
    <glyph glyph-name="AEacute" unicode="&#x1fc;" horiz-adv-x="1794" 
d="M1747 430l-29 -430h-1050v23l77 14q38 7 53.5 17.5t21 33t5.5 76.5v334h-415l-131 -248q-56 -109 -56 -144q0 -27 19.5 -42t68.5 -29l51 -12v-23h-399v23l41 12q72 24 106.5 61t104.5 164l592 1088q-14 16 -74 32l-76 17v22h1020l23 -358h-23q-71 165 -100 209
q-42 66 -95.5 84t-195.5 18q-138 0 -227 -18v-594h117q89 0 130.5 5.5t62 19.5t36.5 46q20 41 49 152h23v-491h-23q-22 92 -49 151q-22 46 -61.5 58t-167.5 12h-117v-502q0 -33 0.5 -52t5.5 -39t9.5 -29.5t20 -19.5t29.5 -13.5t45 -6.5t60 -3.5t80 -0.5q100 0 152.5 10.5
t77.5 29.5t58 65q7 10 14.5 22.5t13.5 23t13.5 26.5t12 25.5t13 29t12 28t12 31.5t11 29.5t12 32t11.5 30.5h25zM821 1276l-387 -729h391v710v19h-4zM1053 1491l-6 14l262 215q36 33 77 33q40 0 65.5 -28t25.5 -66q0 -74 -84 -90z" />
    <glyph glyph-name="aeacute" unicode="&#x1fd;" horiz-adv-x="1548" 
d="M698 170q-66 -101 -153 -149t-207 -48q-138 0 -218.5 68t-80.5 186q0 56 18.5 101.5t46 74t72 52.5t83 37.5t93.5 27.5l271 66v211q0 52 -2.5 84t-12.5 65t-29 50.5t-52.5 28.5t-82.5 11q-66 0 -91 -20t-34 -74q-7 -79 -33.5 -110t-82.5 -31q-50 0 -77.5 25.5t-27.5 70.5
q0 61 58.5 104t140 60.5t174.5 17.5q246 0 305 -145q126 145 318 145q418 0 415 -510h-673q1 -251 86.5 -365t253.5 -114q181 0 309 74v-27q-63 -70 -162.5 -116t-228.5 -46q-280 0 -392 195h-4zM1079 1036q-235 0 -243 -428l448 21q0 218 -46 312.5t-159 94.5zM436 68
q84 0 146.5 39.5t99.5 101.5q-59 124 -59 315l-117 -18q-136 -20 -193 -74t-57 -166q0 -96 46.5 -147t133.5 -51zM672 1176l-8 14l231 219q43 37 82 37q38 0 65 -28t27 -68q0 -73 -78 -93z" />
    <glyph glyph-name="Oslashacute" unicode="&#x1fe;" horiz-adv-x="1394" 
d="M692 -20q-212 0 -360 96l-123 -193h-59l141 221q-114 89 -177 237t-63 349q0 157 36.5 285t98 213t146 143t177 83.5t193.5 25.5q223 0 379 -111l107 166h59l-127 -197q223 -194 223 -579q0 -157 -36.5 -283.5t-98 -210t-146 -140t-176.5 -81t-194 -24.5zM297 725
q0 -314 82 -485l622 966q-101 189 -303 189q-205 0 -303 -164t-98 -506zM696 25q207 0 304.5 159.5t97.5 499.5q0 294 -72 469l-620 -965q102 -163 290 -163zM506 1491l-6 14l262 215q36 33 78 33q40 0 65 -28t25 -66q0 -74 -84 -90z" />
    <glyph glyph-name="oslashacute" unicode="&#x1ff;" horiz-adv-x="1118" 
d="M559 -20q-155 0 -274 67l-95 -156h-57l111 183q-199 145 -199 450q0 131 43 238.5t116 175.5t164 104.5t191 36.5q149 0 262 -61l78 127h55l-92 -152q99 -67 155 -183t56 -275q0 -131 -43.5 -238t-115.5 -175t-163.5 -105t-191.5 -37zM567 20q142 0 210.5 118.5
t68.5 369.5q0 234 -55 369l-447 -734q70 -123 223 -123zM272 547q0 -233 47 -350l447 729q-71 110 -211 110t-211.5 -117.5t-71.5 -371.5zM393 1176l-8 14l231 219q43 37 82 37q38 0 65.5 -28t27.5 -68q0 -73 -78 -93z" />
    <glyph glyph-name="Scommaaccent" unicode="&#x218;" horiz-adv-x="972" 
d="M449 -20q-249 0 -390 69l-26 361h26q76 -166 125 -240q49 -76 113.5 -110.5t167.5 -34.5q124 0 195 72t71 192q0 113 -65.5 181.5t-249.5 158.5q-84 38 -143.5 76t-109.5 87.5t-75 113t-25 141.5q0 169 119.5 281t323.5 112q203 0 317 -56l23 -331h-25q-70 154 -114 217
q-46 72 -91 98.5t-131 26.5q-120 0 -186 -60.5t-66 -173.5q0 -110 59.5 -175t215.5 -138q118 -57 189 -100t125 -96t76 -113.5t22 -141.5q0 -79 -30 -152t-86 -133t-148.5 -96t-206.5 -36zM322 -451l-7 15q84 35 121 77.5t45 100.5q-23 -23 -65 -23q-39 0 -62.5 25t-23.5 63
t30 68.5t80 30.5q56 0 91.5 -35t35.5 -94q0 -85 -66.5 -148t-178.5 -80z" />
    <glyph glyph-name="scommaaccent" unicode="&#x219;" horiz-adv-x="802" 
d="M367 -20q-175 0 -318 47l-6 299h23q65 -134 86 -168q40 -75 92.5 -106.5t140.5 -31.5q92 0 145.5 52t53.5 139q0 81 -52.5 129t-189.5 102q-148 59 -218.5 133.5t-70.5 194.5q0 137 102.5 223t270.5 86q146 0 268 -47l6 -258h-22q-60 116 -90 162q-35 53 -76 76.5
t-109 23.5q-93 0 -145.5 -49t-52.5 -125q0 -75 55.5 -122t190.5 -101q77 -31 128 -59.5t94.5 -67t64 -88t20.5 -113.5q0 -143 -104 -237t-287 -94zM238 -451l-7 15q84 35 121 77.5t45 100.5q-23 -23 -65 -23q-39 0 -62.5 25t-23.5 63t30 68.5t80 30.5q56 0 91.5 -35
t35.5 -94q0 -85 -66.5 -148t-178.5 -80z" />
    <glyph glyph-name="uni021A" unicode="&#x21a;" horiz-adv-x="1165" 
d="M455 -451l-6 15q83 35 120 77.5t45 100.5q-23 -23 -65 -23q-39 0 -62.5 25t-23.5 63t30 68.5t80 30.5q56 0 91.5 -35t35.5 -94q0 -85 -66.5 -148t-178.5 -80zM770 1374h-70v-1210q0 -77 13.5 -96t74.5 -31l76 -14v-23h-561v23l78 14q22 4 34 7t23 9.5t15.5 13.5t8.5 21.5
t4.5 31t0.5 44.5v1210h-68q-87 0 -135 -14.5t-68.5 -38.5t-45.5 -76q-44 -88 -107 -248h-25l23 422h1085l21 -422h-25q-55 149 -102 248q-19 40 -33.5 60.5t-41.5 38.5t-67.5 24t-107.5 6z" />
    <glyph glyph-name="uni021B" unicode="&#x21b;" horiz-adv-x="638" 
d="M219 -451l-6 15q84 35 121 77.5t45 100.5q-23 -23 -66 -23q-39 0 -62.5 25t-23.5 63t30.5 68.5t80.5 30.5q56 0 91.5 -35t35.5 -94q0 -84 -67 -147.5t-179 -80.5zM365 -20q-114 0 -176 55t-62 168v770h-119v18q103 39 179.5 116t119.5 183h33v-246h274l-8 -71h-266v-762
q0 -74 32.5 -104.5t104.5 -30.5q61 0 152 28v-22q-44 -40 -112.5 -71t-151.5 -31z" />
    <glyph glyph-name="uni0237" unicode="&#x237;" horiz-adv-x="479" 
d="M354 834v-816q0 -201 -95 -312.5t-251 -111.5q-97 0 -147.5 36.5t-50.5 99.5q0 43 27 69.5t75 26.5q46 0 71.5 -28t34.5 -97q4 -38 13 -52t28 -14q36 0 59 42.5t23 123.5v1063q0 57 -12.5 74.5t-67.5 44.5l-53 29v16l344 45l10 -4q-8 -124 -8 -235z" />
    <glyph glyph-name="circumflex" unicode="&#x2c6;" 
d="M432 1458h74l217 -276l-10 -15l-244 127l-242 -127l-10 15z" />
    <glyph glyph-name="caron" unicode="&#x2c7;" 
d="M506 1180h-74l-215 276l10 14l242 -124l244 124l10 -14z" />
    <glyph glyph-name="breve" unicode="&#x2d8;" 
d="M475 1186q-111 0 -166 69t-61 185l16 4q23 -60 77.5 -91.5t131.5 -31.5q73 0 125 33t78 90l16 -4q-5 -113 -61 -183.5t-156 -70.5z" />
    <glyph glyph-name="dotaccent" unicode="&#x2d9;" horiz-adv-x="849" 
d="M297 1309q0 54 37.5 89.5t91.5 35.5t91.5 -35.5t37.5 -89.5t-37.5 -89.5t-91.5 -35.5t-91.5 35.5t-37.5 89.5z" />
    <glyph glyph-name="ring" unicode="&#x2da;" 
d="M299 1341q0 70 50 118t122 48t122 -48t50 -118q0 -69 -50 -115t-122 -46t-122 46t-50 115zM354 1341q0 -51 32 -84.5t85 -33.5q52 0 84.5 34t32.5 84q0 52 -32.5 87.5t-84.5 35.5q-53 0 -85 -35.5t-32 -87.5z" />
    <glyph glyph-name="ogonek" unicode="&#x2db;" horiz-adv-x="864" 
d="M504 0h28q-104 -118 -104 -240q0 -54 26 -79t83 -25q44 0 79 14v-18q-55 -68 -165 -68q-89 0 -138 39.5t-49 108.5q0 141 240 268z" />
    <glyph glyph-name="tilde" unicode="&#x2dc;" 
d="M211 1182l-21 8q21 58 35 90.5t35 65.5t46.5 47t58.5 14q38 0 126.5 -18.5t118.5 -18.5q43 0 67.5 18t51.5 62l21 -8q-22 -61 -34.5 -90t-34.5 -63.5t-48.5 -48t-63.5 -13.5q-39 0 -125 17.5t-120 17.5q-41 0 -64 -18t-49 -62z" />
    <glyph glyph-name="hungarumlaut" unicode="&#x2dd;" 
d="M195 1165l-13 15l135 247q35 66 91 66q34 0 61 -27.5t27 -62.5q0 -57 -66 -96zM506 1165l-12 15l135 247q35 66 88 66q35 0 62.5 -27.5t27.5 -62.5q0 -55 -66 -96z" />
    <glyph glyph-name="Wgrave" unicode="&#x1e80;" horiz-adv-x="1908" 
d="M1180 1497l-6 -16l-340 78q-84 19 -84 92q0 38 25.5 66t64.5 28q40 0 78 -35zM1427 299l259 875q22 83 22 126q0 35 -18.5 52t-63.5 30l-61 15v22h368v-22l-35 -13q-61 -20 -89.5 -62.5t-65.5 -168.5l-352 -1153h-105l-313 938h-4l-314 -938h-104l-410 1202
q-36 106 -58 138t-71 44l-49 13v22h531v-22l-54 -13q-41 -9 -58 -25t-17 -44q0 -35 34 -139l293 -881h6l244 735l-59 180q-32 96 -54.5 128.5t-70.5 45.5l-47 13v22h528v-22l-61 -13q-74 -17 -74 -73q0 -30 31 -135l286 -877h6z" />
    <glyph glyph-name="wgrave" unicode="&#x1e81;" horiz-adv-x="1521" 
d="M1403 850l-295 -850h-86l-240 688h-6l-246 -688h-84l-317 870q-29 77 -49.5 104t-54.5 36l-43 14v20h460v-20l-45 -10q-34 -8 -45.5 -23.5t-11.5 -40.5t27 -112l196 -592h6l187 524l-37 100q-27 76 -48 103.5t-57 38.5l-39 12v20h451v-20l-49 -12q-36 -10 -49 -26.5
t-13 -43.5t23 -106l197 -586h8l192 579q27 85 27 117q0 46 -66 64l-51 14v20h311v-20l-28 -10q-51 -17 -72.5 -45.5t-52.5 -118.5zM922 1190l-9 -14l-319 81q-78 20 -78 93q0 40 27 68t65 28q40 0 80 -37z" />
    <glyph glyph-name="Wacute" unicode="&#x1e82;" horiz-adv-x="1908" 
d="M805 1491l-6 14l262 215q36 33 78 33q40 0 65 -28t25 -66q0 -74 -84 -90zM1427 299l259 875q22 83 22 126q0 35 -18.5 52t-63.5 30l-61 15v22h368v-22l-35 -13q-61 -20 -89.5 -62.5t-65.5 -168.5l-352 -1153h-105l-313 938h-4l-314 -938h-104l-410 1202q-36 106 -58 138
t-71 44l-49 13v22h531v-22l-54 -13q-41 -9 -58 -25t-17 -44q0 -35 34 -139l293 -881h6l244 735l-59 180q-32 96 -54.5 128.5t-70.5 45.5l-47 13v22h528v-22l-61 -13q-74 -17 -74 -73q0 -30 31 -135l286 -877h6z" />
    <glyph glyph-name="wacute" unicode="&#x1e83;" horiz-adv-x="1521" 
d="M637 1176l-8 14l231 219q43 37 82 37q38 0 65 -28t27 -68q0 -73 -78 -93zM1403 850l-295 -850h-86l-240 688h-6l-246 -688h-84l-317 870q-29 77 -49.5 104t-54.5 36l-43 14v20h460v-20l-45 -10q-34 -8 -45.5 -23.5t-11.5 -40.5t27 -112l196 -592h6l187 524l-37 100
q-27 76 -48 103.5t-57 38.5l-39 12v20h451v-20l-49 -12q-36 -10 -49 -26.5t-13 -43.5t23 -106l197 -586h8l192 579q27 85 27 117q0 46 -66 64l-51 14v20h311v-20l-28 -10q-51 -17 -72.5 -45.5t-52.5 -118.5z" />
    <glyph glyph-name="Wdieresis" unicode="&#x1e84;" horiz-adv-x="1908" 
d="M811 1495q-50 0 -83.5 33.5t-33.5 85.5q0 49 33.5 82t83.5 33q52 0 85.5 -32.5t33.5 -82.5q0 -52 -33 -85.5t-86 -33.5zM1174 1495q-51 0 -85 33.5t-34 85.5q0 49 34 82t85 33t84.5 -32.5t33.5 -82.5q0 -52 -33.5 -85.5t-84.5 -33.5zM1427 299l259 875q22 83 22 126
q0 35 -18.5 52t-63.5 30l-61 15v22h368v-22l-35 -13q-61 -20 -89.5 -62.5t-65.5 -168.5l-352 -1153h-105l-313 938h-4l-314 -938h-104l-410 1202q-36 106 -58 138t-71 44l-49 13v22h531v-22l-54 -13q-41 -9 -58 -25t-17 -44q0 -35 34 -139l293 -881h6l244 735l-59 180
q-32 96 -54.5 128.5t-70.5 45.5l-47 13v22h528v-22l-61 -13q-74 -17 -74 -73q0 -30 31 -135l286 -877h6z" />
    <glyph glyph-name="wdieresis" unicode="&#x1e85;" horiz-adv-x="1521" 
d="M504 1315q0 52 34.5 85.5t84.5 33.5q51 0 85.5 -33.5t34.5 -85.5q0 -51 -34.5 -84t-85.5 -33q-50 0 -84.5 33.5t-34.5 83.5zM842 1315q0 52 34.5 85.5t84.5 33.5q51 0 85.5 -33.5t34.5 -85.5q0 -51 -34.5 -84t-85.5 -33q-50 0 -84.5 33.5t-34.5 83.5zM1403 850l-295 -850
h-86l-240 688h-6l-246 -688h-84l-317 870q-29 77 -49.5 104t-54.5 36l-43 14v20h460v-20l-45 -10q-34 -8 -45.5 -23.5t-11.5 -40.5t27 -112l196 -592h6l187 524l-37 100q-27 76 -48 103.5t-57 38.5l-39 12v20h451v-20l-49 -12q-36 -10 -49 -26.5t-13 -43.5t23 -106l197 -586
h8l192 579q27 85 27 117q0 46 -66 64l-51 14v20h311v-20l-28 -10q-51 -17 -72.5 -45.5t-52.5 -118.5z" />
    <glyph glyph-name="Ygrave" unicode="&#x1ef2;" horiz-adv-x="1198" 
d="M340 0v23l82 14q58 11 72 30.5t14 96.5v422l-367 651q-48 87 -69 111t-60 36l-43 13v22h557v-22l-69 -15q-49 -10 -64.5 -24.5t-15.5 -42.5q0 -37 33 -96l301 -557h6l254 536q30 68 30 111q0 28 -17.5 45.5t-59.5 27.5l-66 15v22h369v-22l-39 -15q-37 -12 -57 -28.5
t-42.5 -53t-64.5 -122.5l-281 -588v-426q0 -28 0.5 -44.5t4.5 -31t8.5 -21.5t15.5 -13.5t23 -9.5t34 -7l78 -14v-23h-567zM836 1497l-7 -16l-340 78q-83 19 -83 92q0 38 25.5 66t64.5 28t77 -35z" />
    <glyph glyph-name="ygrave" unicode="&#x1ef3;" horiz-adv-x="985" 
d="M582 260l206 565q27 80 27 121q0 47 -65 64l-50 14v20h314v-20l-33 -12q-42 -13 -65 -45t-58 -119l-362 -959q-63 -163 -137.5 -235t-188.5 -72q-69 0 -111.5 33t-42.5 86q0 46 28 73t75 27q40 0 65.5 -22.5t32.5 -65.5q9 -41 17 -48t22 -7q39 0 88 52.5t86 152.5l41 117
l-352 890q-29 75 -50.5 103t-56.5 37l-39 14v20h476v-20l-54 -14q-33 -9 -46 -24.5t-13 -41.5q0 -34 26 -106l211 -578h9zM702 1190l-8 -14l-319 81q-78 20 -78 93q0 40 27 68t65 28q40 0 80 -37z" />
    <glyph glyph-name="uni2009" unicode="&#x2009;" horiz-adv-x="139" 
 />
    <glyph glyph-name="endash" unicode="&#x2013;" horiz-adv-x="925" 
d="M61 561v53h803v-53h-803z" />
    <glyph glyph-name="emdash" unicode="&#x2014;" horiz-adv-x="1517" 
d="M61 561v53h1395v-53h-1395z" />
    <glyph glyph-name="quoteleft" unicode="&#x2018;" horiz-adv-x="342" 
d="M301 1444l6 -14q-175 -75 -182 -226q27 27 70 27q42 0 69 -29t27 -74q0 -49 -35 -80.5t-88 -31.5q-57 0 -95 41t-38 110q0 98 70 173t196 104z" />
    <glyph glyph-name="quoteright" unicode="&#x2019;" horiz-adv-x="342" 
d="M41 1020l-6 12q175 75 182 225q-24 -24 -70 -24q-43 0 -69.5 27.5t-26.5 74.5t35.5 79t87.5 32q57 0 95 -41.5t38 -110.5q0 -98 -70 -172.5t-196 -101.5z" />
    <glyph glyph-name="quotesinglbase" unicode="&#x201a;" horiz-adv-x="342" 
d="M41 -199l-6 15q95 39 137 95t45 130q-27 -27 -70 -27t-69.5 28.5t-26.5 74.5q0 49 35 79.5t88 30.5q57 0 95 -40t38 -109q0 -98 -70 -173t-196 -104z" />
    <glyph glyph-name="quotedblleft" unicode="&#x201c;" horiz-adv-x="649" 
d="M608 1444l6 -14q-177 -76 -180 -226q24 27 68 27q43 0 69.5 -28.5t26.5 -74.5q0 -49 -34.5 -80.5t-86.5 -31.5q-58 0 -96.5 41t-38.5 110q0 98 71 173t195 104zM301 1444l6 -14q-175 -75 -182 -226q27 27 70 27q42 0 69 -29t27 -74q0 -49 -35 -80.5t-88 -31.5
q-57 0 -95 41t-38 110q0 98 70 173t196 104z" />
    <glyph glyph-name="quotedblright" unicode="&#x201d;" horiz-adv-x="649" 
d="M41 1020l-6 12q175 75 182 225q-24 -24 -70 -24q-43 0 -69.5 27.5t-26.5 74.5t35.5 79t87.5 32q57 0 95 -41.5t38 -110.5q0 -98 -70 -172.5t-196 -101.5zM348 1020l-6 12q175 75 182 225q-24 -24 -69 -24q-42 0 -68.5 27.5t-26.5 74.5t34.5 79t86.5 32q58 0 96.5 -41.5
t38.5 -110.5q0 -98 -71 -172.5t-197 -101.5z" />
    <glyph glyph-name="quotedblbase" unicode="&#x201e;" horiz-adv-x="649" 
d="M41 -199l-6 15q95 39 137 95t45 130q-27 -27 -70 -27t-69.5 28.5t-26.5 74.5q0 49 35 79.5t88 30.5q57 0 95 -40t38 -109q0 -98 -70 -173t-196 -104zM348 -199l-6 15q95 39 137 95t45 130q-27 -27 -69 -27q-41 0 -68 28.5t-27 74.5q0 49 34 79.5t87 30.5q59 0 97 -40
t38 -109q0 -98 -71 -173t-197 -104z" />
    <glyph glyph-name="dagger" unicode="&#x2020;" horiz-adv-x="825" 
d="M397 1012q-54 -6 -144 -46t-120 -40q-46 0 -74 27t-28 71q0 43 28.5 70.5t73.5 27.5q29 0 119 -40.5t145 -45.5q-4 63 -48 163t-44 130q0 48 29 78.5t78 30.5q50 0 79 -30.5t29 -78.5q0 -30 -44 -130t-48 -163q55 5 145 45.5t119 40.5q46 0 74.5 -27.5t28.5 -70.5
q0 -44 -28.5 -71t-74.5 -27q-30 0 -120 40t-144 46q5 -60 33 -133t65 -117l-104 -899h-19l-104 899q37 45 66 118t32 132z" />
    <glyph glyph-name="daggerdbl" unicode="&#x2021;" horiz-adv-x="823" 
d="M522 858l-104 -199h-15l-106 199q81 84 100 176q-56 -5 -145.5 -44.5t-118.5 -39.5q-46 0 -74 27t-28 70q0 44 28 71t74 27q29 0 118.5 -40t145.5 -46q-5 62 -49.5 162.5t-44.5 130.5q0 46 29.5 75t79.5 29q49 0 77.5 -29t28.5 -75q0 -29 -44 -130t-48 -163q54 6 143 46
t119 40q47 0 76 -27t29 -71q0 -43 -29 -70t-76 -27q-29 0 -117.5 39.5t-144.5 44.5q8 -53 31 -92t65 -84zM418 616l104 -198q-43 -48 -65.5 -86t-30.5 -90q56 5 144.5 44.5t117.5 39.5q47 0 76 -27t29 -70q0 -44 -29 -71t-76 -27q-30 0 -119 40t-143 46q4 -63 48 -163.5
t44 -129.5q0 -46 -28.5 -75t-77.5 -29q-50 0 -79.5 29t-29.5 75q0 27 21 75.5t45 108t28 109.5q-56 -6 -145.5 -46t-118.5 -40q-46 0 -74 27t-28 71q0 43 28 70t74 27q29 0 118.5 -39.5t145.5 -44.5q-11 53 -34.5 91.5t-65.5 84.5l106 198h15z" />
    <glyph glyph-name="bullet" unicode="&#x2022;" horiz-adv-x="579" 
d="M55 653q0 98 68.5 167t165.5 69t166 -69t69 -167q0 -97 -69 -166t-166 -69t-165.5 69t-68.5 166z" />
    <glyph glyph-name="ellipsis" unicode="&#x2026;" horiz-adv-x="1112" 
d="M59 117q0 52 37 88.5t90 36.5q52 0 89.5 -36.5t37.5 -88.5t-38 -89.5t-89 -37.5q-52 0 -89.5 37t-37.5 90zM428 117q0 52 37 88.5t90 36.5q52 0 89.5 -36.5t37.5 -88.5t-38 -89.5t-89 -37.5q-53 0 -90 37t-37 90zM799 117q0 52 37 88.5t90 36.5q52 0 89.5 -36.5
t37.5 -88.5t-38 -89.5t-89 -37.5q-52 0 -89.5 37t-37.5 90z" />
    <glyph glyph-name="perthousand" unicode="&#x2030;" horiz-adv-x="2045" 
d="M117 -102l1032 1564h63l-1030 -1564h-65zM373 731q-60 0 -115.5 20.5t-102 60.5t-74.5 107t-28 152q0 91 29 163.5t77 115.5t104 65.5t114 22.5q60 0 116 -21t102 -61.5t73.5 -108.5t27.5 -155q0 -89 -29.5 -160.5t-77.5 -114t-103.5 -64.5t-112.5 -22zM373 770
q78 0 110.5 69t32.5 230q0 176 -33 253t-110 77q-74 0 -107 -71.5t-33 -233.5q0 -170 33 -247t107 -77zM979 -25q-61 0 -116 20t-101 59.5t-73 106t-27 152.5q0 92 29 165t76.5 116t103 65.5t112.5 22.5q61 0 117 -21t102 -62t73.5 -109.5t27.5 -155.5q0 -89 -29 -160
t-77 -113t-104 -64t-114 -22zM981 12q78 0 110.5 69.5t32.5 231.5q0 175 -33 252.5t-110 77.5q-74 0 -106.5 -71.5t-32.5 -235.5q0 -169 33 -246.5t106 -77.5zM1667 -25q-60 0 -115 20t-101 59t-73.5 106t-27.5 153q0 92 29 165t76.5 116t103 65.5t112.5 22.5q61 0 117 -21
t102.5 -62t74.5 -109.5t28 -155.5q0 -89 -29.5 -160t-77.5 -113t-104.5 -64t-114.5 -22zM1669 12q78 0 110.5 69.5t32.5 231.5q0 175 -33 252.5t-110 77.5q-74 0 -106.5 -71.5t-32.5 -235.5q0 -169 33.5 -246.5t105.5 -77.5z" />
    <glyph glyph-name="uni2032" unicode="&#x2032;" horiz-adv-x="337" 
d="M121 956l-39 326q-9 76 17 116t85 40q65 0 91.5 -47t-1.5 -115l-131 -320h-22z" />
    <glyph glyph-name="uni2033" unicode="&#x2033;" horiz-adv-x="610" 
d="M121 956l-39 326q-9 76 17 116t85 40q65 0 91.5 -47t-1.5 -115l-131 -320h-22zM393 956l-39 326q-9 76 17.5 116t85.5 40q64 0 90.5 -47t-2.5 -115l-131 -320h-21z" />
    <glyph glyph-name="guilsinglleft" unicode="&#x2039;" horiz-adv-x="485" 
d="M412 115l-346 387v30l346 388h32l-206 -402l206 -403h-32z" />
    <glyph glyph-name="guilsinglright" unicode="&#x203a;" horiz-adv-x="485" 
d="M420 502l-346 -387h-33l207 403l-207 402h33l346 -388v-30z" />
    <glyph glyph-name="fraction" unicode="&#x2044;" horiz-adv-x="497" 
d="M-299 -102l1032 1564h64l-1033 -1564h-63z" />
    <glyph glyph-name="Euro" unicode="&#x20ac;" horiz-adv-x="1153" 
d="M23 807v47h131q23 141 83 254.5t142 184.5t177.5 109t195.5 38q156 0 256 -53.5t100 -145.5q0 -49 -31.5 -77.5t-83.5 -28.5q-60 0 -87 31.5t-36 111.5q-9 72 -33.5 94.5t-93.5 22.5q-150 0 -245 -132.5t-113 -408.5h459l-10 -47h-451v-76q0 -75 2 -108h416l-10 -48h-402
q22 -260 125 -373.5t281 -113.5q164 0 299 82v-27q-56 -69 -161.5 -116t-230.5 -47q-243 0 -390.5 144.5t-168.5 450.5h-120v48h116v53q0 74 8 131h-124z" />
    <glyph glyph-name="trademark" unicode="&#x2122;" horiz-adv-x="1312" 
d="M590 874v17l24 4q30 11 40 24.5t10 47.5v381q0 23 -7 31.5t-26 11.5l-39 10v18h213l137 -381h6l133 381h207v-18l-37 -8q-18 -3 -24 -12.5t-6 -34.5v-392q0 -34 4.5 -43t21.5 -12l41 -10v-15h-256v15l39 10q17 3 22 13t5 42v404h-4l-164 -471h-49l-179 471h-4v-391
q0 -37 7 -50t34 -20l33 -8v-15h-182zM223 954v437h-8q-50 0 -72 -9t-37 -36q-18 -30 -53 -125h-18l8 198h485l9 -198h-19q-27 81 -53 125q-14 26 -36 35.5t-73 9.5h-6v-437q0 -30 5.5 -39t23.5 -14l49 -10v-19h-285v19l47 10q19 5 26 14.5t7 38.5z" />
    <glyph glyph-name="onethird" unicode="&#x2153;" horiz-adv-x="1259" 
d="M14 692v21l52 12q31 8 40 21t9 55v465l-101 16v18q163 27 250 127l19 -6v-620q0 -42 9.5 -56t39.5 -20l47 -12v-21h-365zM35 -102l1032 1564h63l-1032 -1564h-63zM928 -12q-98 0 -156.5 34t-58.5 87q0 29 18.5 46t48.5 17q32 0 50.5 -18.5t25.5 -59.5q8 -40 22.5 -53.5
t55.5 -13.5q56 0 90.5 45.5t34.5 120.5q0 82 -34 121.5t-120 39.5h-37v43h43q133 0 133 164q0 141 -98 141q-35 0 -48 -12t-19 -43q-8 -48 -25.5 -69t-52.5 -21q-30 0 -48 17t-18 44q0 53 58 88t159 35q112 0 180 -48t68 -130q0 -69 -50.5 -116.5t-137.5 -59.5v-6
q108 -9 160.5 -53t52.5 -127q0 -87 -75.5 -150t-221.5 -63z" />
    <glyph glyph-name="twothirds" unicode="&#x2154;" horiz-adv-x="1306" 
d="M8 692v80q7 6 27 21.5t26.5 21t23 19t24.5 20.5t22.5 19.5t24.5 23t23.5 24l27.5 27.5q79 83 110 151.5t31 143.5q0 152 -102 152q-39 0 -54 -15.5t-18 -48.5q-5 -50 -24.5 -72t-59.5 -22q-33 0 -51.5 19t-18.5 49q0 54 65.5 91.5t168.5 37.5q124 0 194 -56t70 -151
q0 -56 -25.5 -106.5t-81 -100.5t-123.5 -95.5t-173 -105.5v-6h293q35 0 51.5 18t40.5 78h20l-18 -217h-494zM98 -102l1032 1564h64l-1032 -1564h-64zM975 -12q-98 0 -156.5 34t-58.5 87q0 29 18.5 46t48.5 17q32 0 50.5 -18.5t25.5 -59.5q8 -40 22.5 -53.5t55.5 -13.5
q56 0 90.5 45.5t34.5 120.5q0 82 -34 121.5t-120 39.5h-37v43h43q134 0 134 164q0 141 -99 141q-35 0 -48 -12t-19 -43q-8 -48 -25.5 -69t-52.5 -21q-30 0 -48 17t-18 44q0 53 58 88t159 35q112 0 180 -48t68 -130q0 -69 -50.5 -116.5t-137.5 -59.5v-6q108 -9 160.5 -53
t52.5 -127q0 -87 -75.5 -150t-221.5 -63z" />
    <glyph glyph-name="oneeighth" unicode="&#x215b;" horiz-adv-x="1259" 
d="M14 692v21l52 12q31 8 40 21t9 55v465l-101 16v18q163 27 250 127l19 -6v-620q0 -42 9.5 -56t39.5 -20l47 -12v-21h-365zM25 -102l1032 1564h63l-1032 -1564h-63zM946 -12q-117 0 -194.5 46t-77.5 126q0 124 170 182v6q-72 36 -102.5 80t-30.5 104q0 65 39 114t95.5 72
t119.5 23q101 0 170 -44t69 -124q0 -46 -38 -87.5t-105 -69.5v-6q82 -34 124 -80t42 -115q0 -93 -77.5 -160t-203.5 -67zM961 27q64 0 103.5 33t39.5 87q0 61 -49 98t-174 85q-35 -23 -56.5 -66t-21.5 -86q0 -151 158 -151zM1026 426q57 57 57 141q0 62 -32.5 98.5
t-96.5 36.5q-54 0 -91.5 -27.5t-37.5 -76.5q0 -58 43.5 -93.5t157.5 -78.5z" />
    <glyph glyph-name="threeeighths" unicode="&#x215c;" horiz-adv-x="1306" 
d="M68 -102l1032 1564h63l-1032 -1564h-63zM991 -12q-117 0 -194.5 46t-77.5 126q0 124 170 182v6q-72 36 -102.5 80t-30.5 104q0 65 39 114t95.5 72t119.5 23q101 0 170 -44t69 -124q0 -46 -38 -87.5t-105 -69.5v-6q82 -34 124 -80t42 -115q0 -93 -77.5 -160t-203.5 -67z
M1006 27q64 0 103.5 33t39.5 87q0 61 -49 98t-174 85q-35 -23 -56.5 -66t-21.5 -86q0 -151 158 -151zM1071 426q57 57 57 141q0 62 -32.5 98.5t-96.5 36.5q-54 0 -91.5 -27.5t-37.5 -76.5q0 -58 43.5 -93.5t157.5 -78.5zM221 680q-98 0 -156.5 34t-58.5 87q0 29 19 46t49 17
q32 0 50.5 -18.5t25.5 -59.5q8 -40 22 -53.5t55 -13.5q56 0 90.5 45.5t34.5 120.5q0 82 -33.5 122t-119.5 40h-37v43h43q133 0 133 163q0 142 -98 142q-35 0 -48.5 -12.5t-19.5 -43.5q-8 -48 -25.5 -69t-52.5 -21q-30 0 -47.5 17.5t-17.5 44.5q0 53 58 88t159 35
q111 0 179.5 -48.5t68.5 -130.5q0 -69 -50.5 -116.5t-138.5 -59.5v-6q108 -9 160.5 -53t52.5 -127q0 -87 -75.5 -150t-221.5 -63z" />
    <glyph glyph-name="fiveeighths" unicode="&#x215d;" horiz-adv-x="1300" 
d="M59 -102l1033 1564h63l-1032 -1564h-64zM987 -12q-117 0 -194.5 46t-77.5 126q0 124 170 182v6q-72 36 -102.5 80t-30.5 104q0 65 39 114t95.5 72t119.5 23q101 0 170 -44t69 -124q0 -46 -38 -87.5t-105 -69.5v-6q82 -34 124 -80t42 -115q0 -93 -77.5 -160t-203.5 -67z
M1001 27q65 0 104.5 33t39.5 87q0 61 -49 98t-174 85q-35 -23 -56.5 -66t-21.5 -86q0 -151 157 -151zM1067 426q57 57 57 141q0 62 -32.5 98.5t-96.5 36.5q-54 0 -91.5 -27.5t-37.5 -76.5q0 -58 43.5 -93.5t157.5 -78.5zM213 680q-92 0 -143.5 30.5t-51.5 77.5q0 31 18 48.5
t50 17.5q31 0 46.5 -17t23.5 -57q8 -35 22.5 -48t52.5 -13q68 0 105 45.5t37 120.5q0 72 -44.5 112.5t-121.5 40.5q-57 0 -135 -20l-15 14l43 387h312q25 0 36 9.5t31 50.5h25l-23 -185l-352 2l-16 -151q52 18 143 18q126 0 192 -59.5t66 -157.5q0 -118 -83.5 -192
t-217.5 -74z" />
    <glyph glyph-name="seveneighths" unicode="&#x215e;" horiz-adv-x="1275" 
d="M113 692q17 165 107 327t224 273h-327q-32 0 -45.5 -14t-36.5 -74h-23l23 215h485v-69q-116 -145 -171 -303t-58 -355h-178zM10 -102l1032 1564h64l-1032 -1564h-64zM961 -12q-117 0 -195 46t-78 126q0 124 170 182v6q-72 36 -102.5 80t-30.5 104q0 65 39 114t95.5 72
t119.5 23q101 0 170.5 -44.5t69.5 -123.5q0 -46 -38.5 -87.5t-105.5 -69.5v-6q82 -34 124 -80t42 -115q0 -93 -77 -160t-203 -67zM975 27q64 0 103.5 33t39.5 87q0 61 -49 98t-174 85q-35 -23 -56.5 -66t-21.5 -86q0 -151 158 -151zM1040 426q58 58 58 141q0 62 -32.5 98.5
t-96.5 36.5q-54 0 -91.5 -27.5t-37.5 -76.5q0 -58 43 -93.5t157 -78.5z" />
    <glyph glyph-name="arrowleft" unicode="&#x2190;" horiz-adv-x="1650" 
d="M1415 512l-694 33l164 -135q101 -84 85 -190q-13 -82 -84 -131q-81 -55 -170 -24q-46 16 -85 54l-586 588v8l588 590q85 83 188 58q80 -20 123 -92q52 -85 10 -174q-23 -46 -69 -85l-164 -135l694 32q129 6 182.5 -96.5t0 -204.5t-182.5 -96z" />
    <glyph glyph-name="arrowright" unicode="&#x2192;" horiz-adv-x="1650" 
d="M930 545l-694 -33q-129 -6 -182.5 96t0 204.5t182.5 96.5l694 -32l-164 135q-101 83 -85 189q12 82 83 132q79 55 168 26q46 -15 86 -54l588 -590v-8l-586 -588q-86 -84 -190 -59q-80 20 -123 91q-52 84 -10 172q21 48 69 87z" />
    <glyph glyph-name="minus" unicode="&#x2212;" horiz-adv-x="899" 
d="M72 672v53h755v-53h-755z" />
    <glyph glyph-name="uni24C5" unicode="&#x24c5;" horiz-adv-x="1576" 
d="M815 340v-23h-338v23l29 6q37 11 43 22t6 62v25v516q0 38 -0.5 53t-7.5 28t-15.5 16t-31.5 9l-23 6v25h340q146 0 222.5 -58.5t76.5 -168.5q0 -117 -71.5 -180.5t-202.5 -63.5q-28 0 -74 8v19q98 5 140 50.5t42 153.5q0 105 -36 152t-113 47q-56 0 -86 -12v-598
q0 -73 7 -88t48 -21zM61 702q0 150 57 285.5t154 233.5t231.5 155.5t284.5 57.5t285.5 -57.5t232 -155.5t153.5 -233.5t57 -285.5q0 -149 -57 -283.5t-153.5 -232.5t-232 -155.5t-285.5 -57.5q-149 0 -284 57.5t-232 155.5t-154 232.5t-57 283.5zM119 702
q0 -183 88.5 -338.5t243 -247t337.5 -91.5q184 0 339 91.5t244 247t89 338.5q0 138 -52.5 263t-142 216t-214.5 145t-263 54q-137 0 -261.5 -54t-213.5 -145t-141.5 -216t-52.5 -263z" />
    <glyph glyph-name="square" unicode="&#x25a0;" horiz-adv-x="1871" 
d="M225 0v1419h1422v-1419h-1422z" />
    <glyph glyph-name="squareopen" unicode="&#x25a1;" horiz-adv-x="1871" 
d="M225 0v1419h1422v-1419h-1422zM319 90h1233v1243h-1233v-1243z" />
    <glyph glyph-name="triangleup" unicode="&#x25b2;" horiz-adv-x="1673" 
d="M1585 0h-1493v29l725 1454h41l727 -1454v-29z" />
    <glyph glyph-name="triangleupopen" unicode="&#x25b3;" horiz-adv-x="1677" 
d="M1620 0h-1493v29l735 1454h21l737 -1454v-29zM1489 86l-619 1223l-614 -1223h1233z" />
    <glyph glyph-name="triangleright" unicode="&#x25b6;" horiz-adv-x="1736" 
d="M225 -37v1493h29l1393 -735v-21l-1393 -737h-29z" />
    <glyph glyph-name="trianglerightopen" unicode="&#x25b7;" horiz-adv-x="1736" 
d="M225 -37v1493h29l1393 -735v-21l-1393 -737h-29zM319 92l1166 619l-1166 618v-1237z" />
    <glyph glyph-name="triangledown" unicode="&#x25bc;" horiz-adv-x="1673" 
d="M90 1419h1493v-28l-725 -1454h-41l-727 1454v28z" />
    <glyph glyph-name="triangledownopen" unicode="&#x25bd;" horiz-adv-x="1677" 
d="M125 1419h1493v-28l-735 -1454h-21l-737 1454v28zM256 1333l618 -1222l615 1222h-1233z" />
    <glyph glyph-name="triangleleft" unicode="&#x25c0;" horiz-adv-x="1736" 
d="M1511 1456v-1493h-28l-1393 737v21l1393 735h28z" />
    <glyph glyph-name="triangleleftopen" unicode="&#x25c1;" horiz-adv-x="1736" 
d="M1511 1456v-1493h-28l-1393 737v21l1393 735h28zM252 711l1165 -619v1237z" />
    <glyph glyph-name="circle" unicode="&#x25cb;" horiz-adv-x="1626" 
d="M811 -31q-151 0 -288 59t-235.5 158.5t-157 237t-58.5 287.5q0 151 58.5 288t157 235.5t235.5 157t288 58.5q201 0 372 -98.5t271 -269t100 -371.5q0 -150 -59 -287.5t-159 -237t-237.5 -158.5t-287.5 -59z" />
    <glyph glyph-name="circleopen" unicode="&#x25cf;" horiz-adv-x="1626" 
d="M811 -31q-151 0 -288 59t-235.5 158.5t-157 237t-58.5 287.5q0 151 58.5 288t157 235.5t235.5 157t288 58.5q201 0 372 -98.5t271 -269t100 -371.5q0 -150 -59 -287.5t-159 -237t-237.5 -158.5t-287.5 -59zM811 55q176 0 325 89t235.5 240t86.5 327q0 177 -86.5 327.5
t-235.5 238t-325 87.5q-133 0 -252.5 -51.5t-205 -139.5t-135.5 -208.5t-50 -253.5q0 -177 84.5 -327.5t233 -239.5t325.5 -89z" />
    <glyph glyph-name="star" unicode="&#x2605;" horiz-adv-x="1679" 
d="M334 -70l-15 9l197 596l-500 356v16h623l192 596h17l194 -596h621v-16l-498 -356l195 -592l-14 -9l-506 361z" />
    <glyph glyph-name="staropen" unicode="&#x2606;" horiz-adv-x="1679" 
d="M334 -70l-15 9l197 596l-500 356v16h623l192 596h17l194 -596h621v-16l-498 -356l195 -592l-14 -9l-506 361zM457 111l385 286l381 -286l-156 454l389 266h-469l-147 453l-148 -453h-467l387 -266z" />
    <glyph glyph-name="space_uni0326" 
d="M348 -451l-6 15q84 35 121 77.5t45 100.5q-23 -23 -66 -23q-39 0 -62.5 25t-23.5 63t30.5 68.5t80.5 30.5q56 0 91.5 -35t35.5 -94q0 -84 -67 -147.5t-179 -80.5z" />
    <glyph glyph-name="caron.alt" 
d="M446 1198l-16 4l8 264q0 88 76 88q39 0 63.5 -21t26.5 -54q0 -31 -26 -74z" />
    <glyph glyph-name="space_uni0326.alt" 
d="M592 1532l6 -14q-84 -35 -121 -78t-43 -101q20 23 64 23q39 0 62.5 -25t23.5 -63q0 -40 -30 -70t-81 -30q-56 0 -91.5 36t-35.5 95q0 83 67 146.5t179 80.5z" />
    <glyph glyph-name="acute.pl" 
d="M406 1161l-17 8l74 273q24 84 90 84q42 0 70 -25.5t28 -60.5q0 -48 -49 -94z" />
    <glyph glyph-name="grave.uc" 
d="M682 1497l-6 -16l-340 78q-84 19 -84 92q0 38 25.5 66t64.5 28q40 0 78 -35z" />
    <glyph glyph-name="dieresis.uc" 
d="M289 1495q-50 0 -83.5 33.5t-33.5 85.5q0 49 33.5 82t83.5 33q52 0 85.5 -32.5t33.5 -82.5q0 -52 -33 -85.5t-86 -33.5zM651 1495q-51 0 -85 33.5t-34 85.5q0 49 34 82t85 33t85 -33t34 -82q0 -52 -34 -85.5t-85 -33.5z" />
    <glyph glyph-name="macron.uc" 
d="M221 1544v94h498v-94h-498z" />
    <glyph glyph-name="acute.uc" 
d="M260 1491l-6 14l262 215q36 33 78 33q40 0 65 -28t25 -66q0 -74 -84 -90z" />
    <glyph glyph-name="circumflex.uc" 
d="M203 1481l-13 14l242 254h76l240 -254l-11 -14l-266 108z" />
    <glyph glyph-name="caron.uc" 
d="M190 1745l13 14l268 -108l266 108l11 -14l-240 -254h-76z" />
    <glyph glyph-name="breve.uc" 
d="M473 1495q-60 0 -105 21t-71.5 58t-41 80t-19.5 95l16 4q29 -62 79 -91.5t140 -29.5q89 0 136.5 30.5t78.5 90.5l14 -4q-4 -69 -27.5 -124t-75 -92.5t-124.5 -37.5z" />
    <glyph glyph-name="dotaccent.uc" horiz-adv-x="849" 
d="M430 1499q-54 0 -92.5 36t-38.5 87q0 52 38.5 87.5t92.5 35.5q53 0 89 -35.5t36 -87.5q0 -51 -36.5 -87t-88.5 -36z" />
    <glyph glyph-name="ring.uc" horiz-adv-x="942" 
d="M299 1638q0 70 50 117t122 47t122 -47t50 -117q0 -69 -50 -115t-122 -46t-122 46t-50 115zM354 1638q0 -51 32 -84.5t85 -33.5q52 0 84.5 34t32.5 84q0 51 -33 86t-84 35q-53 0 -85 -35t-32 -86z" />
    <glyph glyph-name="tilde.uc" 
d="M594 1530q-46 0 -150 24.5t-147 24.5q-40 0 -63 -17t-52 -65l-20 10q39 113 77 165t105 52q44 0 147 -24.5t142 -24.5q41 0 69.5 19t55.5 65l20 -10q-37 -113 -76 -166t-108 -53z" />
    <glyph glyph-name="hungarumlaut.uc" 
d="M197 1495l-15 12l123 230q19 38 40 54.5t50 16.5q37 0 64.5 -26t27.5 -60q0 -54 -69 -96zM530 1495l-14 12l123 230q19 38 40 54.5t50 16.5q37 0 64.5 -26t27.5 -60q0 -54 -67 -96z" />
    <glyph glyph-name="acute.ucpl" 
d="M362 1485l-14 10l86 250q28 82 92 82q39 0 65.5 -26.5t26.5 -59.5q0 -48 -49 -86z" />
    <glyph glyph-name="Cacute.pl" horiz-adv-x="1220" 
d="M682 -20q-141 0 -254 41t-198.5 126t-132 224.5t-46.5 326.5q0 159 38 286t103 211t155.5 140t191 80.5t213.5 24.5q204 0 366 -47l27 -383h-25q-86 180 -116 231q-53 92 -109 123t-164 31q-97 0 -174.5 -38t-136 -116t-90 -206t-31.5 -298q0 -370 99 -541t296 -171
q142 0 208 32.5t118 130.5q17 31 35 71t41 94.5t34 80.5h25l-25 -379q-179 -75 -448 -75zM657 1485l-14 10l86 250q28 82 92 82q39 0 65.5 -26.5t26.5 -59.5q0 -48 -49 -86z" />
    <glyph glyph-name="Nacute.pl" horiz-adv-x="1337" 
d="M651 1485l-14 10l86 250q28 82 92 82q39 0 65.5 -26.5t26.5 -59.5q0 -48 -49 -86zM1081 -8l-835 1278h-6v-1067q0 -93 14 -120t72 -42l80 -18v-23h-381v23l77 18q51 14 65.5 42t14.5 118v1054q0 69 -16 92.5t-66 34.5l-71 15v22h393l676 -1036h6v834q0 92 -14 120t-70 41
l-88 19v22h383v-22l-74 -19q-51 -13 -65.5 -42t-14.5 -115v-1229h-80z" />
    <glyph glyph-name="Oacute.pl" horiz-adv-x="1394" 
d="M662 1485l-15 10l86 250q28 82 92 82q39 0 66 -26.5t27 -59.5q0 -47 -50 -86zM692 -20q-139 0 -254.5 44.5t-202.5 130.5t-135.5 223t-48.5 312q0 157 36.5 285t98 213t146 143t177 83.5t193.5 25.5q139 0 254.5 -45t202.5 -132.5t135.5 -226.5t48.5 -317
q0 -157 -36.5 -283.5t-98 -210t-146 -140t-176.5 -81t-194 -24.5zM696 25q207 0 303.5 159.5t96.5 499.5q0 711 -398 711q-205 0 -302 -164t-97 -506q0 -348 100.5 -524t296.5 -176z" />
    <glyph glyph-name="Sacute.pl" horiz-adv-x="972" 
d="M449 -20q-249 0 -390 69l-26 361h26q76 -166 125 -240q49 -76 113.5 -110.5t167.5 -34.5q124 0 195 72t71 192q0 113 -65.5 181.5t-249.5 158.5q-84 38 -143.5 76t-109.5 87.5t-75 113t-25 141.5q0 169 119.5 281t323.5 112q203 0 317 -56l23 -331h-25q-70 154 -114 217
q-46 72 -91 98.5t-131 26.5q-120 0 -186 -60.5t-66 -173.5q0 -110 59.5 -175t215.5 -138q118 -57 189 -100t125 -96t76 -113.5t22 -141.5q0 -79 -30 -152t-86 -133t-148.5 -96t-206.5 -36zM430 1485l-14 10l86 250q28 82 92 82q39 0 65.5 -26.5t26.5 -59.5q0 -48 -49 -86z
" />
    <glyph glyph-name="Zacute.pl" horiz-adv-x="1146" 
d="M41 0v49l782 1317v8h-170q-118 0 -188.5 -5.5t-111.5 -21.5t-58 -33t-37 -52q-54 -98 -119 -252h-22l28 409h942v-47l-786 -1321v-8h164q102 0 161 1t111.5 7t76.5 12t49.5 23t38 33t34.5 49q46 69 127 258h22l-36 -426h-1008zM553 1485l-14 10l86 250q28 82 92 82
q39 0 65.5 -26.5t26.5 -59.5q0 -48 -49 -86z" />
    <glyph glyph-name="cacute.pl" horiz-adv-x="923" 
d="M514 -25q-218 0 -343.5 137t-125.5 380q0 118 33.5 217.5t89 166t127 113.5t145.5 68.5t148 21.5q145 0 223 -48.5t78 -133.5q0 -104 -113 -104q-54 0 -77.5 28t-34.5 97q-13 69 -31.5 90.5t-79.5 21.5q-121 0 -204 -120t-83 -343q0 -481 352 -481q144 0 265 70v-25
q-48 -61 -149 -108.5t-220 -47.5zM473 1161l-16 8l73 273q24 84 91 84q42 0 70 -25.5t28 -60.5q0 -48 -49 -94z" />
    <glyph glyph-name="idotaccent" horiz-adv-x="518" 
d="M20 0v20l58 15q53 12 64.5 28t11.5 76v725q0 55 -12.5 72.5t-67.5 44.5l-54 31v16l345 45l10 -4q-8 -140 -8 -238v-692q0 -59 13.5 -75.5t68.5 -28.5l53 -15v-20h-482zM127 1343q0 52 35.5 86.5t89.5 34.5q53 0 89 -34.5t36 -86.5q0 -53 -36 -86.5t-89 -33.5
q-55 0 -90 33.5t-35 86.5z" />
    <glyph glyph-name="nacute.pl" horiz-adv-x="1157" 
d="M557 1161l-16 8l73 273q24 84 91 84q42 0 70 -25.5t28 -60.5q0 -48 -49 -94zM20 0v20l58 15q53 12 64.5 28t11.5 76v727q0 55 -12.5 72t-65.5 45l-51 29v16l329 45l13 -4l-2 -129h2q211 139 381 139q144 0 207 -66.5t63 -207.5v-666q0 -60 11.5 -76t64.5 -28l57 -15v-20
h-479v20l57 13q51 12 62.5 28t11.5 78v629q0 107 -35.5 150t-124.5 43q-23 0 -46 -2t-41 -4t-40.5 -6.5t-35 -7.5t-34 -9.5t-28.5 -9t-28 -9.5t-23 -8v-766q0 -61 12 -77.5t63 -28.5l60 -13v-20h-482z" />
    <glyph glyph-name="oacute.pl" horiz-adv-x="1118" 
d="M559 -20q-109 0 -201.5 34.5t-163 100.5t-110 171t-39.5 238q0 131 43 238.5t116 175.5t164 104.5t191 36.5q109 0 201 -34t162.5 -100t110.5 -171t40 -239q0 -131 -43.5 -238t-115.5 -175t-163.5 -105t-191.5 -37zM567 20q142 0 209.5 118.5t67.5 369.5q0 278 -71.5 403
t-217.5 125q-140 0 -210.5 -117.5t-70.5 -371.5q0 -278 71.5 -402.5t221.5 -124.5zM535 1161l-17 8l74 273q24 84 90 84q42 0 70 -25.5t28 -60.5q0 -48 -49 -94z" />
    <glyph glyph-name="sacute.pl" horiz-adv-x="802" 
d="M367 -20q-175 0 -318 47l-6 299h23q65 -134 86 -168q40 -75 92.5 -106.5t140.5 -31.5q92 0 145.5 52t53.5 139q0 81 -52.5 129t-189.5 102q-148 59 -218.5 133.5t-70.5 194.5q0 137 102.5 223t270.5 86q146 0 268 -47l6 -258h-22q-60 116 -90 162q-35 53 -76 76.5
t-109 23.5q-93 0 -145.5 -49t-52.5 -125q0 -75 55.5 -122t190.5 -101q77 -31 128 -59.5t94.5 -67t64 -88t20.5 -113.5q0 -143 -104 -237t-287 -94zM375 1161l-17 8l74 273q24 84 90 84q42 0 70.5 -25.5t28.5 -60.5q0 -47 -50 -94z" />
    <glyph glyph-name="zacute.pl" horiz-adv-x="946" 
d="M37 0v43l620 948v8h-225q-81 0 -117 -7t-57 -25t-51 -66q-20 -27 -92 -172h-21l15 315h792v-36l-622 -955v-8h206q106 0 160 11t77.5 31t49.5 67q39 62 92 186h21l-23 -340h-825zM453 1161l-17 8l74 273q24 84 90 84q42 0 70 -25.5t28 -60.5q0 -48 -49 -94z" />
    <glyph glyph-name="dollar.old" horiz-adv-x="974" 
d="M45 188q0 44 26.5 73.5t73.5 29.5q49 0 78.5 -29t42.5 -100q7 -51 20.5 -77t52.5 -42t112 -18v557l-2 2q-208 91 -295.5 188t-87.5 238q0 139 107.5 242t279.5 118v129h51v-127q178 0 272 -58t94 -140q0 -44 -26.5 -71.5t-71.5 -27.5q-54 0 -80 28t-33 99q-6 64 -39.5 93
t-115.5 32v-522h2q227 -98 319.5 -194.5t92.5 -241.5q0 -150 -112.5 -262.5t-303.5 -124.5v-191h-51v189q-207 1 -306.5 57t-99.5 151zM735 281q0 91 -53 153.5t-180 124.5v-534q106 9 169.5 78.5t63.5 177.5zM231 1098q0 -86 51 -148.5t171 -120.5v496q-104 -9 -163 -71.5
t-59 -155.5z" />
    <glyph glyph-name="Euro.old" horiz-adv-x="1079" 
d="M14 760v47h125q43 253 203.5 408t380.5 155q150 0 234.5 -50t84.5 -128q0 -45 -27.5 -72.5t-74.5 -27.5q-54 0 -83 30t-36 103q-7 58 -31 78t-83 20q-134 0 -228 -137t-114 -379h432l-11 -47h-426v-74q0 -61 2 -88h394l-11 -47h-380q21 -248 119.5 -358.5t271.5 -110.5
q158 0 286 82v-27q-60 -71 -159 -115.5t-215 -44.5q-112 0 -204.5 34.5t-164 103.5t-115.5 179.5t-55 256.5h-115v47h111v45q0 59 6 117h-117z" />
    <glyph glyph-name="sterling.old" horiz-adv-x="997" 
d="M82 676v49h117q-43 183 -43 264q0 176 128.5 280.5t348.5 104.5q147 0 229 -43t82 -121q0 -43 -27.5 -70.5t-72.5 -27.5q-51 0 -77 26t-40 85q-15 65 -37 85.5t-80 20.5q-101 0 -155 -79.5t-54 -233.5q0 -39 19 -291h323v-49h-319q10 -113 10 -180q0 -115 -54.5 -190
t-176.5 -126v-6h555q60 0 84 24t76 132h22l-41 -330h-860v123q85 48 128 81.5t68 82.5t25 119q0 66 -49 270h-129z" />
    <glyph glyph-name="yen.old" horiz-adv-x="1050" 
d="M104 584v45h308v20l-293 518q-47 86 -68 110t-61 36l-41 12v23h534v-23l-67 -14q-47 -11 -62.5 -25.5t-15.5 -40.5q0 -29 33 -96l235 -432h6l195 413q33 75 33 111q0 29 -17 44.5t-63 25.5l-64 14v23h365v-23l-37 -12q-52 -19 -80 -54.5t-88 -160.5l-215 -445v-24h307
v-45h-307v-142h307v-45h-307v-235q0 -75 13.5 -94.5t70.5 -30.5l78 -14v-23h-555v23l80 14q58 11 71 30t13 95v235h-308v45h308v142h-308z" />
    <glyph glyph-name="zero.old" horiz-adv-x="1171" 
d="M580 -20q-107 0 -200 36.5t-166.5 108.5t-116 190t-42.5 269q0 137 30 247.5t80.5 184t120.5 123t146.5 71t161.5 21.5q81 0 155 -21t141 -68t116.5 -116.5t78.5 -174t29 -233.5q0 -130 -29 -236.5t-78.5 -180t-118 -124t-146 -74t-162.5 -23.5zM588 25q149 0 221 138
t72 425q0 311 -72 455.5t-221 144.5q-155 0 -227 -138t-72 -436t74 -443.5t225 -145.5z" />
    <glyph glyph-name="one.old" horiz-adv-x="626" 
d="M41 0v23l88 12q49 7 62.5 26.5t13.5 81.5v881l-154 8v25q207 36 350 164l23 -7v-1071q0 -63 11.5 -82t56.5 -26l92 -12v-23h-543z" />
    <glyph glyph-name="two.old" horiz-adv-x="950" 
d="M25 0v115q228 171 337 268q163 147 222 264.5t59 257.5q0 136 -64.5 209.5t-166.5 73.5q-126 0 -133 -103q-3 -78 -29 -111.5t-80 -33.5q-49 0 -76.5 25.5t-27.5 70.5q0 81 92.5 138t269.5 57q204 0 322 -94.5t118 -249.5q0 -178 -156.5 -337t-541.5 -376v-6h709
l-15 -168h-839z" />
    <glyph glyph-name="three.old" horiz-adv-x="991" 
d="M387 -250q-360 0 -360 172q0 43 26 70.5t74 27.5q50 0 76 -28.5t37 -89.5q12 -61 42 -85t101 -24q148 0 224.5 100t76.5 283q0 153 -63 232t-224 79h-110v54h92q142 0 209 77.5t67 243.5t-57.5 246t-175.5 80q-72 0 -105 -30.5t-41 -96.5q-9 -67 -36 -96t-78 -29
q-45 0 -70.5 25.5t-25.5 68.5q0 87 101 144t267 57q219 0 334 -93.5t115 -250.5q0 -140 -84 -236.5t-240 -126.5v-6q182 -10 273.5 -104t91.5 -236q0 -105 -42.5 -188t-116.5 -135t-170 -78.5t-208 -26.5z" />
    <glyph glyph-name="four.old" horiz-adv-x="1044" 
d="M811 -229h-219v409h-594v70l690 958h123v-927h223l-14 -101h-209v-409zM88 281h504v688h-6l-498 -686v-2z" />
    <glyph glyph-name="five.old" horiz-adv-x="974" 
d="M362 -250q-162 0 -246.5 45.5t-84.5 124.5q0 44 27 73.5t73 29.5q49 0 76.5 -29.5t36.5 -91.5q12 -68 41 -88.5t98 -20.5q148 0 236 112t88 273q0 150 -88 226.5t-252 76.5q-161 0 -254 -39l-15 11l84 755h709l-25 -186h-651l-43 -387q101 33 256 33q218 0 348.5 -108
t130.5 -308q0 -100 -38.5 -191t-107.5 -160t-172.5 -110t-226.5 -41z" />
    <glyph glyph-name="six.old" horiz-adv-x="1110" 
d="M559 -20q-241 0 -368.5 157.5t-127.5 468.5q0 188 50.5 345t140 265t215 168t272.5 60q145 0 221 -48t76 -120q0 -45 -26 -72.5t-68 -27.5q-52 0 -80.5 27.5t-40.5 86.5q-15 63 -39.5 86t-72.5 23q-54 0 -106.5 -20t-105.5 -69t-94 -122.5t-70 -188.5t-36 -258
q164 115 336 115q202 0 309 -104.5t107 -305.5q0 -98 -33.5 -182.5t-95 -148t-155 -99.5t-208.5 -36zM569 25q87 0 145 52.5t82.5 137.5t24.5 201q0 182 -62 272t-208 90q-63 0 -137 -23t-117 -55l-2 -79q0 -52 0.5 -86t3 -87.5t7.5 -91t15 -85t23.5 -79.5t34.5 -66.5
t47.5 -54.5t62.5 -33t80 -13z" />
    <glyph glyph-name="seven.old" horiz-adv-x="958" 
d="M231 -229q43 205 105 382t144.5 330.5t168 278.5t201.5 268h-660q-46 0 -63.5 -20t-53.5 -100l-4.5 -10.5t-4.5 -9.5t-5 -11h-26l33 329h878v-106q-195 -292 -305 -600.5t-168 -730.5h-240z" />
    <glyph glyph-name="eight.old" horiz-adv-x="1048" 
d="M514 -20q-93 0 -176.5 20.5t-153 61t-110.5 110t-41 158.5q0 123 86 210t252 162v9q-147 89 -208 180t-61 194q0 71 29 135.5t81.5 114.5t134.5 79.5t181 29.5q182 0 303 -86.5t121 -229.5q0 -110 -70.5 -187.5t-219.5 -152.5v-4q183 -102 258 -194t75 -219
q0 -170 -136 -280.5t-345 -110.5zM625 805q76 67 112.5 138.5t36.5 174.5q0 135 -66.5 208t-183.5 73q-116 0 -179.5 -71t-63.5 -175q0 -35 11.5 -68.5t26.5 -59t47 -54.5t53.5 -46t66.5 -43.5t67 -38.5t72 -38zM528 25q138 0 211.5 77t73.5 189q0 27 -6.5 53t-14.5 47
t-27 44.5t-33 39.5t-43.5 38.5t-46 35t-54.5 35.5t-56 33.5t-62 35.5t-62 35q-187 -152 -187 -352q0 -155 85 -233t222 -78z" />
    <glyph glyph-name="nine.old" horiz-adv-x="1112" 
d="M539 1223q243 0 376.5 -167.5t133.5 -477.5q0 -196 -51 -354.5t-140 -261t-208.5 -157.5t-258.5 -55q-150 0 -227.5 45.5t-77.5 120.5q0 46 26 73t74 27q44 0 70 -27t39 -89q19 -66 42.5 -86.5t86.5 -20.5q161 0 266.5 170t118.5 500q-61 -55 -147 -88t-183 -33
q-197 0 -311.5 111t-114.5 309q0 145 66 251t175 158t245 52zM539 1178q-126 0 -191 -107t-65 -283q0 -170 66 -268t206 -98q71 0 143 23.5t113 60.5q2 18 2 72q0 70 -1 116.5t-7 115.5t-16 115t-30.5 98t-49 83t-72 51.5t-98.5 20.5z" />
    <glyph glyph-name="percent.old" horiz-adv-x="1320" 
d="M119 -96l985 1485h63l-983 -1485h-65zM350 696q-59 0 -113 20t-98.5 58t-71 102t-26.5 144q0 86 27.5 155t73 110t100 62t112.5 21q59 0 113 -20.5t98.5 -59.5t71.5 -104t27 -146q0 -84 -28 -151.5t-74 -107.5t-100.5 -61.5t-111.5 -21.5zM350 737q71 0 105 66.5
t34 216.5q0 162 -34.5 235.5t-104.5 73.5q-68 0 -102.5 -67.5t-34.5 -221.5q0 -303 137 -303zM967 -23q-59 0 -113 19.5t-99 57.5t-71.5 102t-26.5 145q0 86 28 155t74 110t101 62t113 21t112 -20.5t98.5 -60t71.5 -104.5t27 -145q0 -85 -28.5 -152.5t-75 -107.5t-101 -61
t-110.5 -21zM969 16q70 0 103.5 66t33.5 217q0 162 -34 236.5t-103 74.5q-140 0 -140 -288q0 -306 140 -306z" />
    <glyph glyph-name="perthousand.old" horiz-adv-x="1998" 
d="M119 -96l985 1485h63l-983 -1485h-65zM350 696q-59 0 -113.5 20t-99.5 58t-71.5 102t-26.5 144q0 86 28 155t74 110t100.5 62t112.5 21q59 0 113 -20.5t98.5 -59.5t71.5 -104t27 -146q0 -84 -28 -151.5t-74 -107.5t-100.5 -61.5t-111.5 -21.5zM350 737q71 0 105 66.5
t34 216.5q0 162 -34.5 235.5t-104.5 73.5q-67 0 -102 -68t-35 -221q0 -303 137 -303zM967 -23q-59 0 -113 19.5t-99 57.5t-71.5 102t-26.5 145q0 86 28 155t74 110t101 62t113 21t112 -20.5t98.5 -60t71.5 -104.5t27 -145q0 -85 -28.5 -152.5t-75 -107.5t-101 -61
t-110.5 -21zM969 16q70 0 103.5 66t33.5 217q0 162 -34 236.5t-103 74.5q-140 0 -140 -288q0 -306 140 -306zM1645 -23q-59 0 -113 19.5t-99 57.5t-71.5 102t-26.5 145q0 86 28 155t74 110t101 62t113 21t112.5 -20.5t99 -60t71 -104.5t26.5 -145q0 -85 -28 -152.5
t-74.5 -107.5t-101 -61t-111.5 -21zM1647 16q72 0 104.5 65.5t32.5 217.5q0 162 -33.5 236.5t-103.5 74.5q-140 0 -140 -288q0 -306 140 -306z" />
    <glyph glyph-name="plus.old" horiz-adv-x="909" 
d="M426 170v395h-348v51h348v398h57v-398h351v-51h-351v-395h-57z" />
    <glyph glyph-name="minus.old" horiz-adv-x="899" 
d="M72 565v53h755v-53h-755z" />
    <glyph glyph-name="multiply.old" horiz-adv-x="870" 
d="M737 948l39 -39l-303 -319l301 -318l-39 -39l-299 316l-299 -316l-41 39l299 318l-299 319l39 39l301 -317z" />
    <glyph glyph-name="divide.old" horiz-adv-x="899" 
d="M72 565v53h757v-53h-757zM446 150q-47 0 -80.5 35t-33.5 83q0 50 33 83.5t81 33.5t82.5 -33.5t34.5 -83.5q0 -47 -35 -82.5t-82 -35.5zM446 795q-47 0 -80.5 35t-33.5 81q0 52 33 84.5t81 32.5t82.5 -33t34.5 -84q0 -46 -35 -81t-82 -35z" />
    <glyph glyph-name="equal.old" horiz-adv-x="987" 
d="M86 721v53h817v-53h-817zM86 422v53h817v-53h-817z" />
    <glyph glyph-name="less.old" horiz-adv-x="913" 
d="M805 221l-739 359v45l739 356v-61l-660 -318l660 -321v-60z" />
    <glyph glyph-name="greater.old" horiz-adv-x="913" 
d="M848 580l-737 -359v60l657 321l-657 318v61l737 -356v-45z" />
    <glyph glyph-name="numbersign.old" horiz-adv-x="931" 
d="M440 0l92 410h-260l-90 -410h-55l92 410h-188l35 153h188l57 254h-188l33 154h190l86 377h51l-86 -377h260l86 377h52l-84 -377h190l-35 -154h-190l-58 -254h191l-33 -153h-192l-90 -410h-54zM365 817l-60 -254h260l60 254h-260z" />
    <glyph glyph-name="zero.num" horiz-adv-x="716" 
d="M354 680q-59 0 -114.5 21.5t-102.5 64t-75.5 116t-28.5 167.5q0 97 30.5 173.5t79.5 121t105 67.5t112 23q46 0 90 -12.5t86.5 -40.5t74.5 -70t51.5 -105.5t19.5 -140.5q0 -94 -30 -170t-79 -121.5t-105.5 -69.5t-113.5 -24zM358 719q33 0 58 14t47 48t33.5 101.5
t11.5 164.5q0 139 -18 216.5t-49 104.5t-83 27q-32 0 -57 -13.5t-47.5 -47t-34.5 -101t-12 -166.5q0 -139 18 -217t49.5 -104.5t83.5 -26.5z" />
    <glyph glyph-name="one.num" horiz-adv-x="395" 
d="M14 692v21l52 12q31 8 40 21t9 55v465l-101 16v18q163 27 250 127l19 -6v-620q0 -42 9.5 -56t39.5 -20l47 -12v-21h-365z" />
    <glyph glyph-name="two.num" horiz-adv-x="555" 
d="M8 692v80q7 6 27 21.5t26.5 21t23 19t24.5 20.5t22.5 19.5t24.5 23t23.5 24l27.5 27.5q79 83 110 151.5t31 143.5q0 152 -102 152q-39 0 -54 -15.5t-18 -48.5q-5 -50 -24.5 -72t-59.5 -22q-33 0 -51.5 19t-18.5 49q0 54 65.5 91.5t168.5 37.5q124 0 194 -56t70 -151
q0 -56 -25.5 -106.5t-81 -100.5t-123.5 -95.5t-173 -105.5v-6h293q35 0 51.5 18t40.5 78h20l-18 -217h-494z" />
    <glyph glyph-name="three.num" horiz-adv-x="552" 
d="M221 680q-98 0 -156.5 34t-58.5 87q0 29 19 46t49 17q32 0 50.5 -18.5t25.5 -59.5q8 -40 22 -53.5t55 -13.5q56 0 90.5 45.5t34.5 120.5q0 82 -33.5 122t-119.5 40h-37v43h43q133 0 133 163q0 142 -98 142q-35 0 -48.5 -12.5t-19.5 -43.5q-8 -48 -25.5 -69t-52.5 -21
q-30 0 -47.5 17.5t-17.5 44.5q0 53 58 88t159 35q111 0 179.5 -48.5t68.5 -130.5q0 -69 -50.5 -116.5t-138.5 -59.5v-6q108 -9 160.5 -53t52.5 -127q0 -87 -75.5 -150t-221.5 -63z" />
    <glyph glyph-name="four.num" horiz-adv-x="587" 
d="M201 692v21l51 12q32 6 40.5 19.5t8.5 56.5v100h-303v43l369 475h100v-456h113l-9 -62h-104v-100q0 -44 7.5 -57t39.5 -19l51 -12v-21h-364zM63 963h238v307h-2z" />
    <glyph glyph-name="five.num" horiz-adv-x="548" 
d="M213 680q-92 0 -143.5 30.5t-51.5 77.5q0 31 18 48.5t50 17.5q31 0 46.5 -17t23.5 -57q8 -35 22.5 -48t52.5 -13q68 0 105 45.5t37 120.5q0 72 -44.5 112.5t-121.5 40.5q-57 0 -135 -20l-15 14l43 387h312q25 0 36 9.5t31 50.5h25l-23 -185l-352 2l-16 -151q52 18 143 18
q126 0 192 -59.5t66 -157.5q0 -118 -83.5 -192t-217.5 -74z" />
    <glyph glyph-name="six.num" horiz-adv-x="624" 
d="M322 680q-139 0 -215 87.5t-76 242.5q0 84 21.5 155.5t58 120t84.5 82.5t100.5 50t107.5 16q84 0 129.5 -31t45.5 -76q0 -31 -18.5 -49t-51.5 -18q-34 0 -52.5 18t-25.5 63q-5 30 -15 42t-34 12q-69 0 -121.5 -78.5t-58.5 -237.5q63 51 172 51q104 0 163.5 -52t59.5 -156
q0 -105 -77.5 -173.5t-196.5 -68.5zM322 717q112 0 112 184q0 94 -31.5 134t-95.5 40q-55 0 -106 -28v-33q0 -160 26.5 -228.5t94.5 -68.5z" />
    <glyph glyph-name="seven.num" horiz-adv-x="518" 
d="M113 692q17 165 107 327t224 273h-327q-32 0 -45.5 -14t-36.5 -74h-23l23 215h485v-69q-116 -145 -171 -303t-58 -355h-178z" />
    <glyph glyph-name="eight.num" horiz-adv-x="606" 
d="M293 680q-117 0 -195 46t-78 126q0 124 170 182v6q-72 36 -102.5 80.5t-30.5 104.5q0 65 39 114t95.5 72t119.5 23q101 0 170.5 -44.5t69.5 -123.5q0 -46 -38 -88t-105 -70v-6q81 -34 123 -80t42 -115q0 -93 -77 -160t-203 -67zM307 719q64 0 104 33.5t40 87.5
q0 60 -49 96.5t-175 85.5q-35 -23 -56 -65.5t-21 -86.5q0 -151 157 -151zM373 1118q57 57 57 142q0 62 -32.5 98.5t-96.5 36.5q-54 0 -91.5 -28t-37.5 -77q0 -58 43.5 -93.5t157.5 -78.5z" />
    <glyph glyph-name="nine.num" horiz-adv-x="624" 
d="M297 1434q137 0 216 -86t79 -246q0 -104 -30 -186.5t-82 -133t-118.5 -76.5t-142.5 -26q-78 0 -126 30t-48 76q0 30 18.5 49t51.5 19q35 0 52.5 -19.5t25.5 -64.5q4 -32 15 -42.5t36 -10.5q69 0 118.5 75.5t57.5 239.5q-27 -22 -72 -36.5t-96 -14.5q-104 0 -164.5 54.5
t-60.5 156.5q0 107 77 174.5t193 67.5zM305 1395q-117 0 -117 -181q0 -97 31.5 -136.5t93.5 -39.5q61 0 107 33v27q0 160 -25 228.5t-90 68.5z" />
    <glyph glyph-name="zero.den" horiz-adv-x="716" 
d="M354 -12q-59 0 -114.5 21.5t-102.5 63.5t-75.5 115.5t-28.5 167.5q0 97 30.5 173.5t79.5 121t105 67.5t112 23q46 0 90 -12t86.5 -40.5t74.5 -70t51.5 -105t19.5 -140.5q0 -94 -30 -170t-79 -121.5t-105.5 -69.5t-113.5 -24zM358 27q33 0 58 14t47 48t33.5 101t11.5 164
q0 139 -18 216.5t-49 104.5t-83 27q-25 0 -45.5 -7.5t-41 -29t-34 -57t-22 -94.5t-8.5 -139q0 -139 18 -217t49.5 -104.5t83.5 -26.5z" />
    <glyph glyph-name="one.den" horiz-adv-x="395" 
d="M14 0v20l52 13q31 8 40 21t9 55v464l-101 17v18q163 27 250 127l19 -6v-620q0 -42 9.5 -56t39.5 -20l47 -13v-20h-365z" />
    <glyph glyph-name="two.den" horiz-adv-x="555" 
d="M8 0v80q7 6 27 21.5t26.5 21t23 19t24.5 20.5t22.5 19.5t24.5 23t23.5 24l27.5 27.5q79 83 110 151.5t31 143.5q0 151 -102 151q-39 0 -54 -15t-18 -48q-5 -50 -24.5 -72t-59.5 -22q-33 0 -51.5 18.5t-18.5 48.5q0 54 65.5 91.5t168.5 37.5q125 0 194.5 -55.5
t69.5 -150.5q0 -56 -25.5 -106.5t-81 -100.5t-123.5 -95.5t-173 -105.5v-6h293q35 0 51.5 18t40.5 78h20l-18 -217h-494z" />
    <glyph glyph-name="three.den" horiz-adv-x="552" 
d="M221 -12q-98 0 -156.5 34t-58.5 87q0 29 19 46t49 17q32 0 50.5 -18.5t25.5 -59.5q8 -40 22 -53.5t55 -13.5q56 0 90.5 45.5t34.5 120.5q0 82 -33.5 121.5t-119.5 39.5h-37v43h43q133 0 133 164q0 141 -98 141q-35 0 -48.5 -12t-19.5 -43q-8 -48 -25.5 -69t-52.5 -21
q-30 0 -47.5 17t-17.5 44q0 53 58 88t159 35q112 0 180 -48t68 -130q0 -69 -50.5 -116.5t-138.5 -59.5v-6q108 -9 160.5 -53t52.5 -127q0 -87 -75.5 -150t-221.5 -63z" />
    <glyph glyph-name="four.den" horiz-adv-x="587" 
d="M201 0v20l51 13q32 6 40.5 19.5t8.5 56.5v100h-303v43l369 475h100v-457h113l-9 -61h-104v-100q0 -44 7.5 -57t39.5 -19l51 -13v-20h-364zM63 270h238v308h-2z" />
    <glyph glyph-name="five.den" horiz-adv-x="548" 
d="M213 -12q-92 0 -143.5 30.5t-51.5 77.5q0 31 18 48.5t50 17.5q31 0 46.5 -17t23.5 -57q8 -35 22.5 -48t52.5 -13q68 0 105 45.5t37 120.5q0 72 -44.5 112.5t-121.5 40.5q-57 0 -135 -20l-15 14l43 387h312q25 0 36 9.5t31 49.5h25l-23 -184l-352 2l-16 -151q52 18 143 18
q126 0 192 -59.5t66 -157.5q0 -118 -83.5 -192t-217.5 -74z" />
    <glyph glyph-name="six.den" horiz-adv-x="624" 
d="M322 -12q-139 0 -215 87t-76 242q0 84 21.5 155.5t58 120t84.5 82.5t100.5 50t107.5 16q84 0 129.5 -31t45.5 -75q0 -31 -18.5 -49.5t-51.5 -18.5q-34 0 -52.5 18.5t-25.5 63.5q-5 30 -15 41.5t-34 11.5q-70 0 -122 -78t-58 -237q63 51 172 51q103 0 163 -52.5t60 -156.5
q0 -105 -77.5 -173t-196.5 -68zM322 25q112 0 112 184q0 94 -31.5 134t-95.5 40q-53 0 -106 -29v-32q0 -160 26.5 -228.5t94.5 -68.5z" />
    <glyph glyph-name="seven.den" horiz-adv-x="518" 
d="M113 0q17 165 107 327t224 273h-327q-32 0 -45.5 -14t-36.5 -74h-23l23 215h485v-70q-116 -145 -171 -302.5t-58 -354.5h-178z" />
    <glyph glyph-name="eight.den" horiz-adv-x="606" 
d="M293 -12q-117 0 -195 46t-78 126q0 124 170 182v6q-72 36 -102.5 80t-30.5 104q0 65 39 114t95.5 72t119.5 23q101 0 170.5 -44.5t69.5 -123.5q0 -46 -38 -87.5t-105 -69.5v-6q81 -34 123 -80t42 -115q0 -93 -77 -160t-203 -67zM307 27q65 0 104.5 33t39.5 87
q0 61 -49.5 97.5t-174.5 85.5q-35 -23 -56 -65.5t-21 -86.5q0 -151 157 -151zM373 426q57 57 57 141q0 62 -32.5 98.5t-96.5 36.5q-54 0 -91.5 -27.5t-37.5 -76.5q0 -58 43.5 -93.5t157.5 -78.5z" />
    </font>
</defs>
</svg>
