<?xml version="1.0" standalone="no"?>
<!DOCTYPE svg PUBLIC "-//W3C//DTD SVG 1.1//EN" "http://www.w3.org/Graphics/SVG/1.1/DTD/svg11.dtd" >
<svg xmlns="http://www.w3.org/2000/svg" xmlns:xlink="http://www.w3.org/1999/xlink" version="1.1">
<metadata>
Created by FontForge 20170731 at Mon Apr 26 17:07:25 2021
 By Aleksey,,,
(c)2012 Paul Barnes, Christian Schwartz, and Ross Milne, under exclusive license to Schwartzco Inc./Commercial Type. All rights reserved.
</metadata>
<defs>
<font id="PublicoBanner-LightItalic" horiz-adv-x="921" >
  <font-face 
    font-family="Publico Banner Light"
    font-weight="300"
    font-style="italic"
    font-stretch="normal"
    units-per-em="2048"
    panose-1="2 4 3 2 6 5 4 6 2 3"
    ascent="1645"
    descent="-403"
    x-height="1067"
    cap-height="1419"
    bbox="-365 -430 2011 2054"
    underline-thickness="145"
    underline-position="-302"
    slope="-10"
    unicode-range="U+0020-FB04"
  />
<missing-glyph horiz-adv-x="1026" 
 />
    <glyph glyph-name="f_f" unicode="ff" horiz-adv-x="1069" 
d="M-127 -420q-76 0 -117 28.5t-41 72.5q0 36 22.5 59.5t61.5 23.5q36 0 55 -21.5t35 -66.5q8 -23 11.5 -31t11 -16t18.5 -8q14 0 27 10.5t29.5 43t33 86.5t36.5 146.5t40 217.5l135 846h-131l4 18l138 47l4 23q40 218 165.5 342.5t290.5 124.5q81 0 132 -23.5t67 -62.5
q106 106 250 106q79 0 121.5 -35t42.5 -81q0 -36 -22 -58t-56 -22q-42 0 -63 24.5t-35 81.5q-8 30 -18 41.5t-31 11.5q-22 0 -45.5 -19t-49 -60.5t-50.5 -120.5t-42 -185l-14 -90h239l-14 -63h-235l-127 -688q-64 -342 -158.5 -512t-237.5 -170q-76 0 -116.5 28t-40.5 72
q0 36 22.5 60t61.5 24q36 0 55 -21.5t35 -66.5q8 -23 11.5 -31t11 -16t18.5 -8q14 0 27 10.5t29.5 43t33 86.5t36.5 146t40 217l139 826h-328l-123 -709q-58 -339 -154.5 -510.5t-240.5 -171.5zM737 1075q25 151 82 254q-37 3 -56 28t-32 79q-8 30 -21.5 42.5t-43.5 12.5
q-31 0 -65 -21t-70.5 -64t-68 -121.5t-48.5 -180.5l-13 -70h328z" />
    <glyph glyph-name="f_i" unicode="fi" horiz-adv-x="987" 
d="M580 223l133 592q22 102 22 125q0 19 -9 25t-34 6h-301l-123 -709q-58 -339 -154.5 -510.5t-240.5 -171.5q-76 0 -117 28.5t-41 72.5q0 36 22.5 59.5t61.5 23.5q36 0 55 -21.5t35 -66.5q8 -23 11.5 -31t11 -16t18.5 -8q14 0 27 10.5t29.5 43t33 86.5t36.5 146.5t40 217.5
l135 846h-131l4 18l138 47l4 23q41 223 162 355t282 132q97 0 151 -33t54 -83q0 -36 -22 -58t-56 -22q-42 0 -63 24.5t-35 81.5q-8 30 -22 42.5t-44 12.5q-65 0 -135 -104.5t-104 -302.5l-13 -70h428q41 0 54.5 -14t13.5 -45q0 -40 -37 -195l-129 -569q-16 -83 -16 -102
q0 -20 13 -27.5t44 1.5t76 36l57 35l10 -15q-161 -155 -274 -155q-43 0 -64.5 26t-21.5 66q0 39 25 147z" />
    <glyph glyph-name="f_l" unicode="fl" horiz-adv-x="1009" 
d="M1014 1546l8 -6q-24 -107 -51 -248l-211 -1081q-12 -58 -12 -94q0 -57 78 -23q30 13 69 37l57 35l11 -14q-180 -168 -297 -168q-41 0 -61.5 24t-20.5 60q0 41 24 155l221 1127q-37 3 -56 27.5t-32 78.5q-8 32 -18 42.5t-39 10.5q-81 0 -160.5 -114t-109.5 -287l-13 -74
h240l-14 -63h-236l-123 -709q-58 -339 -154.5 -510.5t-240.5 -171.5q-76 0 -117 28.5t-41 72.5q0 36 22.5 59.5t61.5 23.5q36 0 55 -21.5t35 -66.5q8 -23 11.5 -31t11 -16t18.5 -8q14 0 27 10.5t29.5 43t33 86.5t36.5 146.5t40 217.5l135 846h-131l4 18l138 47l6 31
q43 224 169.5 351.5t315.5 127.5q124 0 168 -65z" />
    <glyph glyph-name="f_f_i" unicode="ffi" horiz-adv-x="1427" 
d="M879 971l-127 -688q-64 -342 -158.5 -512t-237.5 -170q-76 0 -116.5 28t-40.5 72q0 36 22.5 60t61.5 24q36 0 55 -21.5t35 -66.5q8 -23 11.5 -31t11 -16t18.5 -8q14 0 27 10.5t29.5 43t33 86.5t36.5 146t40 217l139 826h-328l-123 -709q-58 -339 -154.5 -510.5
t-240.5 -171.5q-76 0 -117 28.5t-41 72.5q0 36 22.5 59.5t61.5 23.5q36 0 55 -21.5t35 -66.5q8 -23 11.5 -31t11 -16t18.5 -8q14 0 27 10.5t29.5 43t33 86.5t36.5 146.5t40 217.5l135 846h-131l4 18l138 47l4 23q40 218 165.5 342.5t290.5 124.5q88 0 141.5 -28.5
t61.5 -72.5q118 121 273 121q97 0 150.5 -33t53.5 -83q0 -36 -21.5 -58t-55.5 -22q-42 0 -63.5 24.5t-35.5 81.5q-8 30 -21.5 42.5t-43.5 12.5q-66 0 -136 -104.5t-104 -302.5l-12 -70h428q41 0 54 -14t13 -45q0 -44 -36 -195l-129 -569q-1 -7 -6.5 -30t-8 -39.5t-2.5 -32.5
q0 -20 13 -27.5t44 1.5t76 36l58 35l10 -15q-161 -155 -275 -155q-43 0 -64.5 26t-21.5 66q0 39 25 147l133 592q23 106 23 125t-9 25t-34 6h-301zM414 1104l-13 -70h328l4 25q26 148 98 270h-2q-42 0 -63 24.5t-35 82.5q-8 30 -21.5 42.5t-43.5 12.5q-31 0 -65 -21
t-70.5 -64t-68 -121.5t-48.5 -180.5z" />
    <glyph glyph-name="f_f_l" unicode="ffl" horiz-adv-x="1495" 
d="M580 145l139 826h-328l-123 -709q-58 -339 -154.5 -510.5t-240.5 -171.5q-76 0 -117 28.5t-41 72.5q0 36 22.5 59.5t61.5 23.5q36 0 55 -21.5t35 -66.5q8 -23 11.5 -31t11 -16t18.5 -8q14 0 27 10.5t29.5 43t33 86.5t36.5 146.5t40 217.5l135 846h-131l4 18l138 47l4 23
q40 218 165.5 342.5t290.5 124.5q90 0 143.5 -29t59.5 -74q132 123 316 123q120 0 165 -63l113 63l8 -6q-24 -107 -51 -248l-211 -1081q-12 -58 -12 -94q0 -57 78 -23q29 13 69 37l58 35l10 -14q-180 -168 -297 -168q-41 0 -61.5 24t-20.5 60t25 155l221 1127
q-37 3 -55 27.5t-31 78.5q-8 32 -18.5 42.5t-39.5 10.5q-81 0 -160.5 -114t-109.5 -287l-12 -74h239l-14 -63h-235l-127 -688q-64 -342 -158.5 -512t-237.5 -170q-76 0 -116.5 28t-40.5 72q0 36 22.5 60t61.5 24q36 0 55 -21.5t35 -66.5q8 -23 11.5 -31t11 -16t18.5 -8
q14 0 27 10.5t29.5 43t33 86.5t36.5 146t40 217zM414 1104l-13 -70h328l6 33q24 150 94 262q-42 0 -63 24.5t-35 82.5q-8 30 -21.5 42.5t-43.5 12.5q-31 0 -65 -21t-70.5 -64t-68 -121.5t-48.5 -180.5z" />
    <glyph glyph-name="f_b" unicode="fb" horiz-adv-x="1564" 
d="M1022 1546l8 -6q-24 -111 -51 -248l-74 -350q-20 -105 -55 -233h4q54 72 100.5 126t108 111.5t125.5 89t125 31.5q101 0 156 -76t55 -217q0 -169 -53.5 -320t-139 -253t-191 -161.5t-210.5 -59.5q-215 0 -363 98v4l262 1268q-37 3 -56 27.5t-32 78.5q-8 32 -18 42.5
t-39 10.5q-81 0 -160.5 -114t-109.5 -287l-13 -74h240l-14 -63h-236l-123 -709q-58 -339 -154.5 -510.5t-240.5 -171.5q-76 0 -117 28.5t-41 72.5q0 36 22.5 59.5t61.5 23.5q36 0 55 -21.5t35 -66.5q8 -23 11.5 -31t11 -16t18.5 -8q14 0 27 10.5t29.5 43t33 86.5t36.5 146.5
t40 217.5l135 846h-131l4 18l138 47l6 31q43 224 169.5 351.5t315.5 127.5q126 0 168 -67zM922 14q122 0 223 103.5t157 273.5t56 365q0 229 -109 229q-81 0 -182.5 -93t-220.5 -245l-119 -541q30 -42 81 -67t114 -25z" />
    <glyph glyph-name="f_f_b" unicode="ffb" horiz-adv-x="2052" 
d="M580 145l139 826h-328l-123 -709q-58 -339 -154.5 -510.5t-240.5 -171.5q-76 0 -117 28.5t-41 72.5q0 36 22.5 59.5t61.5 23.5q36 0 55 -21.5t35 -66.5q8 -23 11.5 -31t11 -16t18.5 -8q14 0 27 10.5t29.5 43t33 86.5t36.5 146.5t40 217.5l135 846h-131l4 18l138 47l4 23
q40 218 165.5 342.5t290.5 124.5q90 0 143.5 -29t59.5 -74q132 123 316 123q126 0 168 -67l120 67l9 -6q-25 -111 -52 -248l-73 -350q-18 -93 -56 -233h4q54 72 100.5 126t108 111.5t125.5 89t125 31.5q101 0 156 -76t55 -217q0 -169 -53.5 -320t-139 -253t-191 -161.5
t-210.5 -59.5q-214 0 -362 98v4l262 1268q-37 3 -56 27.5t-32 78.5q-8 32 -18.5 42.5t-39.5 10.5q-81 0 -160.5 -114t-109.5 -287l-12 -74h239l-14 -63h-235l-127 -688q-64 -342 -158.5 -512t-237.5 -170q-76 0 -116.5 28t-40.5 72q0 36 22.5 60t61.5 24q36 0 55 -21.5
t35 -66.5q8 -23 11.5 -31t11 -16t18.5 -8q14 0 27 10.5t29.5 43t33 86.5t36.5 146t40 217zM1409 14q122 0 223 103.5t157 273.5t56 365q0 229 -108 229q-56 0 -130 -52.5t-136.5 -121t-137.5 -164.5l-119 -541q30 -42 81 -67t114 -25zM414 1104l-13 -70h328l6 33
q24 150 94 262q-42 0 -63 24.5t-35 82.5q-8 30 -21.5 42.5t-43.5 12.5q-31 0 -65 -21t-70.5 -64t-68 -121.5t-48.5 -180.5z" />
    <glyph glyph-name="f_f_h" unicode="ffh" horiz-adv-x="2054" 
d="M580 145l139 826h-328l-123 -709q-58 -339 -154.5 -510.5t-240.5 -171.5q-76 0 -117 28.5t-41 72.5q0 36 22.5 59.5t61.5 23.5q36 0 55 -21.5t35 -66.5q8 -23 11.5 -31t11 -16t18.5 -8q14 0 27 10.5t29.5 43t33 86.5t36.5 146.5t40 217.5l135 846h-131l4 18l138 47l4 23
q40 218 165.5 342.5t290.5 124.5q90 0 143.5 -29t59.5 -74q132 123 316 123q125 0 168 -65l116 65l8 -6q-24 -109 -51 -248l-76 -350q-9 -39 -25.5 -121t-25.5 -116h4q70 83 125 141t116.5 112t118.5 81.5t109 27.5q74 0 112 -45.5t38 -128.5q0 -61 -37 -219l-104 -463
q-17 -82 -17 -102q0 -63 133 12l58 33l10 -15q-97 -89 -161.5 -122t-119.5 -33q-80 0 -80 84q0 53 25 155l104 463q26 113 31 174t-9.5 86t-51.5 25q-122 0 -404 -318l-143 -653h-156l281 1350q-37 3 -56 27.5t-32 78.5q-8 32 -18.5 42.5t-39.5 10.5q-81 0 -160.5 -114
t-109.5 -287l-12 -74h239l-14 -63h-235l-127 -688q-64 -342 -158.5 -512t-237.5 -170q-76 0 -116.5 28t-40.5 72q0 36 22.5 60t61.5 24q36 0 55 -21.5t35 -66.5q8 -23 11.5 -31t11 -16t18.5 -8q14 0 27 10.5t29.5 43t33 86.5t36.5 146t40 217zM414 1104l-13 -70h328l6 33
q24 150 94 262q-42 0 -63 24.5t-35 82.5q-8 30 -21.5 42.5t-43.5 12.5q-31 0 -65 -21t-70.5 -64t-68 -121.5t-48.5 -180.5z" />
    <glyph glyph-name="f_f_j" unicode="ffj" horiz-adv-x="1462" 
d="M1315 1034q41 0 54 -14t13 -45q0 -45 -28 -195l-150 -805q-38 -203 -130.5 -302t-217.5 -99q-95 0 -143.5 33t-48.5 90q0 39 24.5 63.5t69.5 24.5q78 0 90 -102q5 -40 14.5 -57t32.5 -17q42 0 79 63.5t62 200.5l166 942q17 105 17 117q0 25 -9 32t-41 7h-290l-129 -688
q-64 -341 -158.5 -511.5t-237.5 -170.5q-76 0 -116.5 28t-40.5 72q0 36 22.5 60t61.5 24q36 0 55 -21.5t35 -66.5q8 -23 11.5 -31t11 -16t18.5 -8q14 0 27 10.5t29.5 43t33 86.5t36.5 146t40 217l139 826h-326l-123 -709q-58 -339 -154.5 -510.5t-240.5 -171.5
q-76 0 -117 28.5t-41 72.5q0 36 22.5 59.5t61.5 23.5q36 0 55 -21.5t35 -66.5q8 -23 11.5 -31t11 -16t18.5 -8q14 0 27 10.5t29.5 43t33 86.5t36.5 146.5t40 217.5l135 846h-131l4 18l138 47l4 23q40 218 165.5 342.5t290.5 124.5q88 0 140.5 -28.5t62.5 -72.5
q121 121 273 121q97 0 150.5 -33t53.5 -83q0 -36 -21.5 -58t-55.5 -22q-42 0 -63.5 24.5t-35.5 81.5q-8 30 -21.5 42.5t-43.5 12.5q-66 0 -136 -104.5t-104 -302.5l-12 -70h426zM414 1104l-13 -70h328l4 25q26 152 96 270q-42 0 -63 24.5t-35 82.5q-8 30 -21.5 42.5
t-43.5 12.5q-31 0 -65 -21t-70.5 -64t-68 -121.5t-48.5 -180.5z" />
    <glyph glyph-name="f_f_k" unicode="ffk" horiz-adv-x="1955" 
d="M580 145l139 826h-328l-123 -709q-58 -339 -154.5 -510.5t-240.5 -171.5q-76 0 -117 28.5t-41 72.5q0 36 22.5 59.5t61.5 23.5q36 0 55 -21.5t35 -66.5q8 -23 11.5 -31t11 -16t18.5 -8q14 0 27 10.5t29.5 43t33 86.5t36.5 146.5t40 217.5l135 846h-131l4 18l138 47l4 23
q40 218 165.5 342.5t290.5 124.5q90 0 143.5 -29t59.5 -74q132 123 316 123q125 0 168 -65l116 65l8 -6q-22 -109 -51 -248l-272 -1292h-154l281 1350q-37 3 -56 27.5t-32 78.5q-8 32 -18.5 42.5t-39.5 10.5q-81 0 -160.5 -114t-109.5 -287l-12 -74h239l-14 -63h-235
l-127 -688q-64 -342 -158.5 -512t-237.5 -170q-76 0 -116.5 28t-40.5 72q0 36 22.5 60t61.5 24q36 0 55 -21.5t35 -66.5q8 -23 11.5 -31t11 -16t18.5 -8q14 0 27 10.5t29.5 43t33 86.5t36.5 146t40 217zM1651 -16q-49 0 -79.5 30.5t-64.5 110.5q-63 147 -143 422v6
q65 95 106.5 152.5t104 135t108 120.5t99 74.5t98.5 31.5q52 0 79.5 -27t27.5 -63q0 -41 -24.5 -66.5t-64.5 -25.5q-28 0 -47 12.5t-26.5 27.5t-17.5 27.5t-23 12.5q-38 0 -128 -95t-177 -221q89 -272 170 -461q24 -56 44 -77.5t52 -19.5t88 34l53 31l10 -15
q-71 -71 -138 -114t-107 -43zM414 1104l-13 -70h328l6 33q24 150 94 262q-42 0 -63 24.5t-35 82.5q-8 30 -21.5 42.5t-43.5 12.5q-31 0 -65 -21t-70.5 -64t-68 -121.5t-48.5 -180.5z" />
    <glyph glyph-name="f_h" unicode="fh" horiz-adv-x="1566" 
d="M1018 1546l8 -6q-24 -109 -51 -248l-76 -350q-9 -39 -25.5 -121t-25.5 -116h4q70 83 125 141t116.5 112t118.5 81.5t109 27.5q74 0 111.5 -45.5t37.5 -128.5q0 -66 -36 -219l-105 -463q-16 -77 -16 -102q0 -63 133 12l57 33l10 -15q-98 -89 -161.5 -122t-118.5 -33
q-80 0 -80 84q0 53 25 155l104 463q26 113 30.5 174t-10 86t-51.5 25q-121 0 -403 -318l-143 -653h-156l280 1350q-37 3 -56 27.5t-32 78.5q-8 32 -18 42.5t-39 10.5q-81 0 -160.5 -114t-109.5 -287l-13 -74h240l-14 -63h-236l-123 -709q-58 -339 -154.5 -510.5
t-240.5 -171.5q-76 0 -117 28.5t-41 72.5q0 36 22.5 59.5t61.5 23.5q36 0 55 -21.5t35 -66.5q8 -23 11.5 -31t11 -16t18.5 -8q14 0 27 10.5t29.5 43t33 86.5t36.5 146.5t40 217.5l135 846h-131l4 18l138 47l6 31q43 224 169.5 351.5t315.5 127.5q125 0 168 -65z" />
    <glyph glyph-name="f_j" unicode="fj" horiz-adv-x="974" 
d="M717 -25q-38 -203 -130.5 -302t-217.5 -99q-96 0 -144.5 33t-48.5 90q0 39 24.5 63.5t69.5 24.5q78 0 90 -102q5 -40 15 -57t33 -17q42 0 79 63.5t62 200.5l166 942q16 99 16 117q0 25 -9.5 32t-41.5 7h-289l-123 -709q-58 -339 -154.5 -510.5t-240.5 -171.5
q-76 0 -117 28.5t-41 72.5q0 36 22.5 59.5t61.5 23.5q36 0 55 -21.5t35 -66.5q8 -23 11.5 -31t11 -16t18.5 -8q14 0 27 10.5t29.5 43t33 86.5t36.5 146.5t40 217.5l135 846h-131l4 18l138 47l4 23q41 223 162 355t282 132q97 0 151 -33t54 -83q0 -36 -22 -58t-56 -22
q-42 0 -63 24.5t-35 81.5q-8 30 -22 42.5t-44 12.5q-65 0 -135 -104.5t-104 -302.5l-13 -70h426q41 0 54.5 -14t13.5 -45q0 -39 -29 -195z" />
    <glyph glyph-name="f_k" unicode="fk" horiz-adv-x="1468" 
d="M-127 -420q-76 0 -117 28.5t-41 72.5q0 36 22.5 59.5t61.5 23.5q36 0 55 -21.5t35 -66.5q8 -23 11.5 -31t11 -16t18.5 -8q14 0 27 10.5t29.5 43t33 86.5t36.5 146.5t40 217.5l135 846h-131l4 18l138 47l6 31q43 224 169.5 351.5t315.5 127.5q125 0 168 -65l117 65l8 -6
q-22 -109 -51 -248l-273 -1292h-153l280 1350q-37 3 -56 27.5t-32 78.5q-8 32 -18 42.5t-39 10.5q-81 0 -160.5 -114t-109.5 -287l-13 -74h240l-14 -63h-236l-123 -709q-58 -339 -154.5 -510.5t-240.5 -171.5zM1163 -16q-48 0 -78 30.5t-65 110.5q-63 147 -143 422v6
q65 95 106.5 152.5t104 135t108 120.5t99 74.5t98.5 31.5q52 0 79 -27t27 -63q0 -41 -24 -66.5t-64 -25.5q-28 0 -47 12.5t-26.5 27.5t-18 27.5t-23.5 12.5q-38 0 -128 -95t-177 -221q89 -272 170 -461q24 -56 44 -77.5t52.5 -19.5t88.5 34l53 31l10 -15
q-70 -70 -138 -113.5t-108 -43.5z" />
    <glyph glyph-name=".notdef" horiz-adv-x="1026" 
 />
    <glyph glyph-name=".null" horiz-adv-x="0" 
 />
    <glyph glyph-name="nonmarkingreturn" horiz-adv-x="682" 
 />
    <glyph glyph-name="space" unicode=" " horiz-adv-x="421" 
 />
    <glyph glyph-name="exclam" unicode="!" horiz-adv-x="491" 
d="M195 383l79 946q4 54 34 81.5t79 27.5q57 0 86.5 -42t9.5 -108l-268 -905h-20zM57 96q0 43 31 74t74 31t73.5 -31t30.5 -74t-30.5 -73.5t-73.5 -30.5t-74 30.5t-31 73.5z" />
    <glyph glyph-name="quotedbl" unicode="&#x22;" horiz-adv-x="546" 
d="M213 1008l-14 307q-6 125 88 125q54 0 74.5 -44t-7.5 -104l-125 -284h-16zM446 1008l-14 307q-6 125 88 125q54 0 74.5 -44t-6.5 -104l-125 -284h-17z" />
    <glyph glyph-name="numbersign" unicode="#" horiz-adv-x="978" 
d="M463 0l112 424h-268l-112 -424h-48l113 424h-192l34 127h193l86 328h-191l35 127h191l110 413h49l-112 -413h268l111 413h47l-111 -413h193l-35 -127h-193l-86 -328h191l-35 -127h-190l-113 -424h-47zM430 879l-88 -328h268l86 328h-266z" />
    <glyph glyph-name="dollar" unicode="$" horiz-adv-x="960" 
d="M328 -215l30 197q-176 7 -275 71.5t-99 143.5q0 98 84 98q49 0 71.5 -28.5t28.5 -92.5q7 -70 48.5 -109.5t148.5 -46.5l108 650q-160 106 -226.5 191t-66.5 200q0 76 27.5 140.5t71.5 106.5t100 71t111 42t106 13h2l25 141h43l-25 -143q147 -7 228 -62.5t81 -134.5
q0 -37 -19 -60.5t-54 -23.5q-41 0 -62 26.5t-27 84.5q-6 66 -39.5 97.5t-113.5 35.5l-96 -580q174 -117 244.5 -210t70.5 -216q0 -80 -33 -154t-91 -129.5t-144 -89t-185 -34.5l-30 -195h-43zM410 18q78 0 140.5 27.5t100 73t57 99.5t19.5 110q0 93 -52 164.5t-165 148.5
l-102 -623h2zM307 1102q0 -74 44 -132.5t149 -129.5l92 555q-126 -3 -205.5 -84.5t-79.5 -208.5z" />
    <glyph glyph-name="percent" unicode="%" horiz-adv-x="1374" 
d="M43 -102l1235 1564h61l-1233 -1564h-63zM500 1438q103 0 173 -72.5t70 -210.5q0 -181 -109.5 -303.5t-248.5 -122.5q-111 0 -181.5 71t-70.5 201q0 190 109 313.5t258 123.5zM391 762q56 0 105.5 64.5t78.5 168t29 215.5q0 193 -117 193q-61 0 -111.5 -66t-77 -166
t-26.5 -208q0 -201 119 -201zM1049 684q103 0 173 -72.5t70 -210.5q0 -181 -109.5 -303.5t-248.5 -122.5q-110 0 -181 71.5t-71 201.5q0 190 109 313t258 123zM940 8q56 0 105.5 64.5t78.5 168.5t29 216q0 192 -117 192q-61 0 -111.5 -66t-77 -166t-26.5 -208
q0 -201 119 -201z" />
    <glyph glyph-name="ampersand" unicode="&#x26;" horiz-adv-x="1236" 
d="M1235 739l-4 -18l-37 -10q-38 -10 -59.5 -19.5t-39 -28t-27.5 -38t-28 -60.5q-4 -9 -24 -57.5t-27.5 -65.5t-26 -54.5t-37 -68.5t-42.5 -65q88 -133 108 -158q20 -24 27.5 -31.5t22 -16.5t36.5 -15l49 -15l-4 -18h-262q-31 42 -92 135q-155 -155 -369 -155
q-186 0 -285.5 85.5t-99.5 237.5q0 148 102 263t292 208q-62 165 -62 283q0 158 98.5 270.5t251.5 112.5q130 0 199.5 -63.5t69.5 -170.5q0 -124 -103 -218t-299 -177q100 -231 299 -535q53 81 94 178t41 164q0 40 -20 60t-80 33l-45 10l2 18h381zM477 39q76 0 141.5 28
t133.5 91q-233 357 -332 594q-236 -134 -236 -385q0 -158 77 -243t216 -85zM489 1124q0 -137 64 -290q276 139 276 376q0 91 -36.5 140t-104.5 49q-87 0 -143 -80t-56 -195z" />
    <glyph glyph-name="quotesingle" unicode="'" horiz-adv-x="313" 
d="M213 1008l-14 307q-6 125 88 125q54 0 74.5 -44t-7.5 -104l-125 -284h-16z" />
    <glyph glyph-name="parenleft" unicode="(" horiz-adv-x="589" 
d="M428 -289q-76 85 -132.5 165.5t-105.5 177t-74.5 207.5t-25.5 231q0 170 48.5 325.5t136 282.5t195 229.5t239.5 188.5l16 -19q-95 -82 -167.5 -160t-138 -175.5t-107.5 -202t-66.5 -235t-24.5 -277.5q0 -384 228 -723z" />
    <glyph glyph-name="parenright" unicode=")" horiz-adv-x="589" 
d="M203 1518q76 -85 132.5 -165.5t105.5 -177t74.5 -207.5t25.5 -231q0 -170 -48.5 -325.5t-136 -282.5t-195 -229.5t-239.5 -188.5l-16 19q95 82 167.5 160t138 175.5t107.5 202t66.5 235t24.5 277.5q0 385 -226 721z" />
    <glyph glyph-name="asterisk" unicode="*" horiz-adv-x="616" 
d="M256 934q-29 0 -47 21.5t-14 49t30 44.5l183 114l-183 21q-53 5 -53 57q0 41 33.5 58t68.5 -11l138 -117l-25 181q-12 86 62 86q34 0 50 -25.5t-1 -66.5l-78 -175l147 82q46 26 77.5 13.5t31.5 -52.5q0 -62 -76 -59l-178 6l131 -133q32 -34 17.5 -72t-60.5 -38
q-20 0 -36.5 15t-20.5 40l-39 180l-97 -176q-23 -43 -61 -43z" />
    <glyph glyph-name="plus" unicode="+" horiz-adv-x="880" 
d="M440 276v396h-342v49h342v397h54v-397h342v-49h-342v-396h-54z" />
    <glyph glyph-name="comma" unicode="," horiz-adv-x="417" 
d="M-74 -227l-6 18q104 35 175 94.5t87 141.5q-21 -27 -69 -27q-42 0 -68.5 27.5t-26.5 66.5q0 41 29.5 71t79.5 30q55 0 90 -34.5t35 -90.5q0 -100 -86.5 -182t-239.5 -115z" />
    <glyph glyph-name="hyphen" unicode="-" horiz-adv-x="538" 
d="M72 530l16 123h408l-17 -123h-407z" />
    <glyph glyph-name="period" unicode="." horiz-adv-x="417" 
d="M25 96q0 43 30.5 74t73.5 31t73.5 -31t30.5 -74t-30.5 -73.5t-73.5 -30.5t-73.5 30.5t-30.5 73.5z" />
    <glyph glyph-name="slash" unicode="/" horiz-adv-x="643" 
d="M-135 -266l883 1769h53l-885 -1769h-51z" />
    <glyph glyph-name="zero" unicode="0" horiz-adv-x="1208" 
d="M510 -20q-70 0 -132.5 18.5t-118.5 60t-97 102t-64.5 150t-23.5 199.5q0 188 55.5 360.5t148 297t217 198.5t257.5 74q88 0 164.5 -32t137 -95.5t95.5 -170t35 -245.5q0 -251 -91.5 -462.5t-246.5 -333t-336 -121.5zM516 20q99 0 186.5 64t154 182.5t105.5 301.5t39 407
q0 424 -256 424q-99 0 -189 -70.5t-156 -193.5t-105 -299t-39 -377q0 -439 260 -439z" />
    <glyph glyph-name="one" unicode="1" horiz-adv-x="628" 
d="M-37 0l4 18l86 19q60 12 78 28t27 66l194 1108l-190 12l2 15q141 30 213.5 63.5t161.5 106.5l10 -4l-227 -1301q-9 -50 3.5 -67.5t67.5 -26.5l94 -19l-4 -18h-520z" />
    <glyph glyph-name="two" unicode="2" horiz-adv-x="956" 
d="M-78 0l17 96q113 81 255.5 192.5t225.5 182.5q383 332 383 641q0 144 -63.5 215.5t-168.5 71.5q-77 0 -110.5 -26.5t-46.5 -98.5q-9 -53 -34.5 -76.5t-70.5 -23.5q-43 0 -65.5 21.5t-22.5 59.5q0 85 100 135t244 50q186 0 296 -93t110 -262q0 -81 -29 -160t-90.5 -157.5
t-135.5 -150.5t-187 -156t-219.5 -155.5t-256.5 -166.5v-4h557q49 0 73.5 3.5t51 23.5t45 45.5t58.5 87.5h14l-74 -295h-856z" />
    <glyph glyph-name="three" unicode="3" horiz-adv-x="946" 
d="M319 -20q-151 0 -246.5 47.5t-95.5 136.5q0 40 25.5 66t65.5 26q45 0 66.5 -28t31.5 -85q13 -71 53 -97t119 -26q184 0 261 106.5t77 317.5q0 57 -12.5 104t-41 88t-81.5 64t-127 23h-90l6 43h104q62 0 113 19t94.5 61t67.5 119t24 184q0 136 -58 193t-161 57
q-72 0 -104.5 -29t-47.5 -102q-19 -99 -102 -99q-39 0 -61.5 22.5t-22.5 61.5q0 78 91.5 132.5t236.5 54.5q188 0 294.5 -86.5t106.5 -235.5q0 -144 -95.5 -245.5t-264.5 -127.5v-4q154 -23 232.5 -102.5t78.5 -208.5q0 -138 -76 -242t-196.5 -156t-264.5 -52z" />
    <glyph glyph-name="four" unicode="4" horiz-adv-x="1026" 
d="M348 0l4 18l86 19q51 11 69.5 28.5t27.5 67.5l53 293h-596l14 74l838 919h84l-158 -901h209l-21 -92h-202l-54 -291q-8 -53 4.5 -72.5t65.5 -29.5l74 -15l-2 -18h-496zM86 518h518l123 703h-6l-635 -701v-2z" />
    <glyph glyph-name="five" unicode="5" horiz-adv-x="962" 
d="M352 -20q-151 0 -239 50t-88 130q0 39 24 65.5t66 26.5q79 0 96 -100q11 -63 42 -98.5t107 -35.5q169 0 274 115t105 283q0 154 -86 236.5t-252 82.5q-132 0 -237 -43l-12 10l188 717h541q37 0 53.5 16t58.5 85h19l-76 -242h-584l-114 -434q99 30 229 30
q190 0 307 -101.5t117 -289.5q0 -211 -154 -357t-385 -146z" />
    <glyph glyph-name="six" unicode="6" horiz-adv-x="1067" 
d="M496 -20q-205 0 -313.5 131.5t-108.5 359.5q0 174 46.5 330.5t125.5 271t180.5 198.5t214.5 126.5t225 42.5q131 0 199 -43t68 -111q0 -44 -25.5 -69t-67.5 -25q-44 0 -69 29.5t-35 97.5q-9 50 -29.5 65t-75.5 15q-175 0 -327 -172.5t-223 -487.5q175 123 340 123
q179 0 275.5 -97t96.5 -271q0 -109 -41 -205.5t-109 -163.5t-159 -106t-188 -39zM489 20q160 0 245 120t85 339q0 72 -12.5 127.5t-40.5 100t-79.5 68.5t-123.5 24q-146 0 -289 -92q-24 -152 -24 -310q0 -178 58 -277.5t181 -99.5z" />
    <glyph glyph-name="seven" unicode="7" horiz-adv-x="923" 
d="M152 0q164 625 813 1274h-648q-44 0 -68 -26.5t-71 -117.5h-20l69 289h850l-12 -71q-596 -681 -729 -1348h-184z" />
    <glyph glyph-name="eight" unicode="8" horiz-adv-x="1007" 
d="M436 -20q-76 0 -147.5 18.5t-134 55t-100.5 100.5t-38 147q0 76 28.5 139.5t85 115t126 92t164.5 79.5v6q-112 98 -158.5 174.5t-46.5 167.5q0 147 116.5 256t307.5 109q94 0 176.5 -33.5t135.5 -99t53 -150.5q0 -66 -25.5 -122.5t-78 -104.5t-112.5 -86t-147 -82v-2
q144 -110 206 -195t62 -200q0 -74 -33 -143t-92.5 -123t-150 -86.5t-197.5 -32.5zM453 20q137 0 221 81t84 208q0 44 -11 84t-36 77t-48.5 65.5t-66 64t-70 56.5t-77.5 57q-85 -53 -142.5 -106.5t-97 -133t-39.5 -172.5q0 -137 78 -209t205 -72zM856 1155q0 117 -61.5 181.5
t-169.5 64.5q-125 0 -196 -72t-71 -182q0 -68 18 -117t75 -110.5t167 -143.5q120 85 179 170.5t59 208.5z" />
    <glyph glyph-name="nine" unicode="9" horiz-adv-x="1064" 
d="M272 -20q-127 0 -195.5 40.5t-68.5 110.5q0 40 23.5 66t64.5 26q46 0 71.5 -29.5t37.5 -93.5q8 -45 27 -62.5t71 -17.5q190 0 327.5 165t209.5 495q-64 -50 -154.5 -85.5t-179.5 -35.5q-189 0 -286 104t-97 269q0 108 39.5 203.5t106.5 161.5t157.5 104.5t189.5 38.5
q212 0 318 -135.5t106 -380.5q0 -183 -45.5 -340t-121.5 -266.5t-176 -187t-208 -114t-217 -36.5zM563 623q86 0 151 23t132 69q24 158 24 313q0 175 -60 273t-187 98q-147 0 -234.5 -125t-87.5 -338q0 -149 69.5 -231t192.5 -82z" />
    <glyph glyph-name="colon" unicode=":" horiz-adv-x="438" 
d="M131 709q0 43 31 73.5t74 30.5t73.5 -30.5t30.5 -73.5t-30.5 -74t-73.5 -31t-74 31t-31 74zM25 96q0 43 30.5 74t73.5 31t73.5 -31t30.5 -74t-30.5 -73.5t-73.5 -30.5t-73.5 30.5t-30.5 73.5z" />
    <glyph glyph-name="semicolon" unicode=";" horiz-adv-x="438" 
d="M-74 -227l-6 18q104 35 175 94.5t87 141.5q-21 -27 -69 -27q-42 0 -68.5 27.5t-26.5 66.5q0 41 29.5 71t79.5 30q55 0 90 -34.5t35 -90.5q0 -100 -86.5 -182t-239.5 -115zM131 709q0 43 31 73.5t74 30.5t73.5 -30.5t30.5 -73.5t-30.5 -74t-73.5 -31t-74 31t-31 74z" />
    <glyph glyph-name="less" unicode="&#x3c;" horiz-adv-x="897" 
d="M813 283l-727 362v37l727 360v-57l-649 -321l649 -326v-55z" />
    <glyph glyph-name="equal" unicode="=" horiz-adv-x="946" 
d="M104 797v49h783v-49h-783zM104 492v51h783v-51h-783z" />
    <glyph glyph-name="greater" unicode="&#x3e;" horiz-adv-x="894" 
d="M852 645l-727 -362v55l649 326l-649 321v57l727 -360v-37z" />
    <glyph glyph-name="question" unicode="?" horiz-adv-x="765" 
d="M221 381l68 405q208 27 310.5 123t102.5 236q0 64 -21 114.5t-55 80.5t-74 45.5t-81 15.5q-46 0 -66.5 -17.5t-35.5 -68.5q-27 -88 -95 -88q-37 0 -60.5 21.5t-23.5 56.5q0 50 59 92.5t179 42.5q101 0 184.5 -39t137 -121t53.5 -193q0 -99 -40 -180t-109.5 -136
t-155.5 -90t-187 -50l-45 -250h-45zM113 96q0 43 30.5 74t73.5 31t74 -31t31 -74t-31 -73.5t-74 -30.5t-73.5 30.5t-30.5 73.5z" />
    <glyph glyph-name="at" unicode="@" horiz-adv-x="1624" 
d="M692 -246q-313 0 -484 162t-171 442q0 180 75.5 354.5t201.5 307t303.5 214t369.5 81.5q158 0 280.5 -43.5t196.5 -119t112 -171.5t38 -207q0 -122 -31.5 -232t-84.5 -191t-119.5 -141t-139 -90t-141.5 -30q-110 0 -144.5 67t-15.5 197h-4q-78 -127 -156.5 -195.5
t-167.5 -68.5q-71 0 -123.5 60.5t-52.5 175.5q0 136 47 262t119.5 212t159.5 137.5t168 51.5q108 0 172 -71h8l72 71l16 -6q-30 -86 -53 -215l-66 -385q-9 -53 -13.5 -86t-5 -69t7.5 -55.5t26.5 -32.5t48.5 -13q75 0 139 45.5t104.5 116t69 156.5t41 164.5t12.5 144.5
q0 83 -16 156.5t-54.5 142t-98 117t-151 77.5t-208.5 29q-173 0 -327.5 -75t-262 -199t-170.5 -286t-63 -333q0 -272 154.5 -427t437.5 -155q264 0 473 117l-7 -20q-205 -144 -522 -144zM674 178q62 0 123 57t137 166l96 473q-11 33 -42 54.5t-70 21.5q-78 0 -155 -87
t-127 -233.5t-50 -303.5q0 -67 23.5 -107.5t64.5 -40.5z" />
    <glyph glyph-name="A" unicode="A" horiz-adv-x="1181" 
d="M-115 0l4 18l31 9q44 13 66 28.5t50 58t81 144.5l604 1161h76l159 -1192q7 -52 12 -78.5t11 -49t19 -33.5t27 -19t42 -18l29 -11l-4 -18h-443l4 18l47 13q37 9 54.5 19t27.5 30q17 32 4 139l-38 316h-431l-149 -291q-51 -99 -51 -144q0 -32 20 -46t58 -23l49 -13l-4 -18
h-355zM659 1202l-319 -624h401l-75 624h-7z" />
    <glyph glyph-name="B" unicode="B" horiz-adv-x="1107" 
d="M-66 0l5 16l79 17q47 11 65.5 29.5t27.5 64.5l204 1163q9 49 -3 66t-58 28l-70 17l4 18h453q117 0 203.5 -26.5t133.5 -71.5t69 -97t22 -112q0 -144 -107.5 -242t-271.5 -129v-6q359 -47 359 -307q0 -191 -151 -309.5t-386 -118.5h-578zM518 39q153 0 250.5 105t97.5 294
q0 132 -83.5 203.5t-254.5 71.5h-147l-92 -502q-6 -35 -6 -60.5t4 -44.5t19 -31t30.5 -19.5t46 -11t59.5 -4.5t76 -1zM391 756h154q344 0 344 358q0 122 -68 193t-192 71q-72 0 -135 -14z" />
    <glyph glyph-name="C" unicode="C" horiz-adv-x="1165" 
d="M598 -20q-257 0 -399 145t-142 403q0 253 104 463t282.5 329.5t390.5 119.5q219 0 356 -72l-35 -334h-20q-32 129 -64 209q-37 94 -89 125t-159 31q-136 0 -248 -74.5t-185 -200t-112.5 -288.5t-39.5 -342q0 -234 97 -355t271 -121q175 0 299 142q63 75 158 252h20
l-90 -367q-130 -65 -395 -65z" />
    <glyph glyph-name="D" unicode="D" horiz-adv-x="1280" 
d="M459 35q134 0 242 47.5t180.5 128.5t122 192.5t71 235t21.5 260.5q0 241 -95.5 363t-318.5 122q-112 0 -186 -18l-209 -1192q-4 -27 -4.5 -47t3 -35t13.5 -25t22 -16.5t34 -10t45.5 -4.5t58.5 -1zM184 1401l2 18h508q132 0 235.5 -29t182.5 -90.5t121.5 -166t42.5 -246.5
q0 -200 -61.5 -367t-170 -280.5t-259 -176.5t-326.5 -63h-522l2 16l79 17q47 11 65.5 29.5t27.5 64.5l204 1163q9 49 -3 66t-58 28z" />
    <glyph glyph-name="E" unicode="E" horiz-adv-x="1091" 
d="M-63 0l2 16l79 17q47 11 65.5 29.5t27.5 64.5l204 1163q9 49 -3 66t-58 28l-70 17l2 18h901l5 -323h-19q-36 106 -69 168q-18 35 -34.5 55t-35 33.5t-54 19t-71 7t-107.5 1.5q-138 0 -208 -18l-105 -604h111q82 0 128.5 8.5t67.5 23.5t39 44q25 47 62 137h18l-84 -465
h-18q-5 85 -11 121q-4 27 -11.5 42.5t-19 26t-43 14.5t-64.5 5.5t-101 1.5h-82l-82 -465q-7 -37 -10.5 -57.5t-4.5 -45.5t-1.5 -36.5t7 -26.5t12 -20t23.5 -12.5t31.5 -9t44.5 -3.5t55.5 -2h71.5q110 0 168 10t88 29.5t66 64.5q78 97 168 250h20l-108 -393h-993z" />
    <glyph glyph-name="F" unicode="F" horiz-adv-x="1036" 
d="M389 737h111q81 0 129 11t68 27.5t38 47.5q26 45 66 148h18l-88 -506h-18q-6 78 -15 137q-7 46 -25.5 64t-61 24t-148.5 6h-80l-98 -563q-9 -51 4.5 -69t66.5 -29l90 -17l-4 -18h-505l4 16l77 17q47 11 65.5 29.5t27.5 64.5l206 1163q9 49 -3 66t-58 28l-70 17l2 18h918
l-12 -352h-19q-37 119 -67 182q-25 55 -54.5 81t-87.5 38t-168 12q-121 0 -198 -22z" />
    <glyph glyph-name="G" unicode="G" horiz-adv-x="1265" 
d="M627 -20q-115 0 -213 30.5t-178.5 94.5t-126.5 175t-46 259q0 167 46 313t124.5 252t181 183t217.5 115t232 38q215 0 365 -58l-35 -350h-20q-39 155 -70 225q-32 76 -87 109t-167 33q-96 0 -184.5 -34.5t-165.5 -107t-134 -176.5t-89.5 -250.5t-32.5 -320.5
q0 -84 12.5 -156t41.5 -134.5t73 -106.5t110.5 -69.5t149.5 -25.5q153 0 260 66l61 348q10 53 -2 68.5t-59 25.5l-80 17l4 18h455l-4 -18l-60 -17q-49 -13 -66.5 -29.5t-27.5 -70.5l-65 -379q-167 -67 -420 -67z" />
    <glyph glyph-name="H" unicode="H" horiz-adv-x="1353" 
d="M-63 0l4 18l77 17q50 11 67 27t26 67l204 1161q9 53 -1.5 68t-59.5 26l-70 17l2 18h480l-4 -18l-89 -17q-49 -9 -66 -26t-26 -68l-96 -545h655l97 545q9 51 -2 67t-58 27l-82 17l4 18h480l-4 -18l-78 -17q-50 -11 -66.5 -26.5t-25.5 -67.5l-205 -1159q-9 -52 2.5 -69
t64.5 -29l66 -15l-4 -18h-481l4 18l88 19q50 13 66.5 28.5t25.5 65.5l102 571h-657l-98 -571q-8 -51 2.5 -69t64.5 -29l72 -15l-2 -18h-479z" />
    <glyph glyph-name="I" unicode="I" horiz-adv-x="542" 
d="M121 131l205 1159q9 51 -2 67t-58 27l-82 17l4 18h480l-4 -18l-78 -17q-50 -11 -66.5 -26.5t-25.5 -67.5l-205 -1159q-9 -52 2.5 -69t64.5 -29l66 -15l-4 -18h-481l4 18l88 19q50 13 66.5 28.5t25.5 65.5z" />
    <glyph glyph-name="J" unicode="J" horiz-adv-x="657" 
d="M109 -20q-83 0 -131 32.5t-48 83.5q0 35 22.5 57.5t61.5 22.5q42 0 63 -24.5t27 -71.5q9 -64 52 -64q76 0 118 226l185 1048q9 51 -1.5 67t-58.5 27l-82 17l5 18h479l-4 -18l-78 -17q-50 -11 -67 -26.5t-25 -67.5l-162 -901q-15 -86 -42.5 -157t-69.5 -129t-104.5 -90.5
t-139.5 -32.5z" />
    <glyph glyph-name="K" unicode="K" horiz-adv-x="1173" 
d="M829 0q-164 249 -368 729l2 12l485 494q60 63 60 96q0 24 -20 35.5t-64 22.5l-50 12l5 18h409l-4 -18l-29 -10q-90 -32 -129.5 -59t-132.5 -120l-393 -395q185 -427 363 -708q23 -37 46 -53t64 -27l41 -11l-4 -18h-281zM111 131l204 1159q9 51 -1.5 67t-57.5 27l-82 17
l4 18h479l-4 -18l-78 -17q-50 -11 -66.5 -26.5t-25.5 -67.5l-204 -1159q-9 -52 2.5 -69t64.5 -29l66 -15l-4 -18h-471l4 18l77 19q50 11 67 27.5t26 66.5z" />
    <glyph glyph-name="L" unicode="L" horiz-adv-x="1050" 
d="M-63 0l2 16l79 17q47 11 65.5 29.5t27.5 64.5l204 1163q9 49 -3 66t-58 28l-72 17l4 18h482l-6 -22l-89 -19q-49 -11 -66 -27.5t-26 -64.5l-188 -1081q-17 -100 23 -132t182 -32q83 0 125.5 2.5t79 14.5t57 30.5t49.5 56.5q67 88 164 269h24l-104 -414h-956z" />
    <glyph glyph-name="M" unicode="M" horiz-adv-x="1548" 
d="M-66 0l5 18l65 15q54 13 77 38t36 97l198 1122q9 49 -3 66t-58 28l-72 17l4 18h334l201 -1147h4l614 1147h328l-4 -18l-76 -17q-48 -11 -63.5 -27t-24.5 -67l-205 -1159q-9 -52 3 -69t65 -29l63 -15l-4 -18h-458l4 18l67 17q54 13 70.5 28t25.5 68l203 1151h-8
l-674 -1249h-53l-221 1257h-8l-197 -1114q-13 -74 2.5 -99.5t79.5 -43.5l53 -15l-4 -18h-369z" />
    <glyph glyph-name="N" unicode="N" horiz-adv-x="1282" 
d="M1004 279l172 964q4 39 5.5 62.5t-13 39.5t-33 25t-56.5 19l-47 12l4 18h367l-4 -18l-56 -15q-62 -17 -82 -41t-32 -94l-225 -1261h-60l-569 1300h-6l-197 -1114q-13 -74 6 -100.5t90 -44.5l51 -13l-4 -18h-381l5 18l65 15q49 11 75 41t38 94l198 1122q9 49 -3 66t-58 28
l-72 17l4 18h314l499 -1140h5z" />
    <glyph glyph-name="O" unicode="O" horiz-adv-x="1302" 
d="M586 -20q-108 0 -203.5 42.5t-165.5 118t-110.5 185t-40.5 237.5q0 150 39.5 287.5t109 243t160.5 184.5t198.5 120.5t217.5 41.5q152 0 267.5 -79t175.5 -214.5t60 -304.5q0 -184 -59 -346.5t-156.5 -274.5t-226.5 -176.5t-266 -64.5zM594 20q150 0 268.5 114.5
t185 320.5t66.5 467q0 477 -323 477q-153 0 -278.5 -117t-197 -321t-71.5 -453q0 -488 350 -488z" />
    <glyph glyph-name="P" unicode="P" horiz-adv-x="1079" 
d="M-66 0l5 18l77 17q50 11 68 28.5t27 69.5l204 1157q9 51 -2 68t-57 26l-74 17l4 18h463q237 0 356 -95.5t119 -260.5q0 -207 -140.5 -334t-369.5 -127q-117 0 -176 23l4 18q110 -18 195 -2t145 53.5t98 98.5t56 133.5t18 158.5q0 145 -81 220t-222 75q-87 0 -153 -14
l-219 -1235q-9 -55 3.5 -71t71.5 -25l92 -17l-4 -18h-508z" />
    <glyph glyph-name="Q" unicode="Q" horiz-adv-x="1302" 
d="M1012 -330q-159 0 -301 103q-46 33 -97 79t-71.5 66.5t-71.5 73.5q-178 39 -291.5 194t-113.5 377q0 150 39.5 287.5t109 243t160.5 184.5t198.5 120.5t217.5 41.5q115 0 210.5 -46t159 -126.5t98.5 -189.5t35 -236q0 -165 -48 -314.5t-130 -259.5t-194 -183t-238 -93v-6
q91 -87 141 -121q82 -57 154.5 -84t155.5 -27q75 0 139 33l-2 -18q-35 -40 -106 -69.5t-154 -29.5zM592 20q151 0 270.5 115.5t185.5 321.5t66 465q0 477 -323 477q-154 0 -279.5 -118t-196.5 -322t-71 -451q0 -488 348 -488z" />
    <glyph glyph-name="R" unicode="R" horiz-adv-x="1163" 
d="M-66 0l5 18l77 17q45 9 66.5 29t28.5 65l204 1161q9 50 -2 66.5t-57 27.5l-74 17l4 18h494q204 0 304.5 -84.5t100.5 -238.5t-105 -260t-273 -134v-6q138 -344 290 -594q23 -38 41 -52t60 -23l35 -9l-3 -18h-268q-165 283 -311 684h-174l-96 -541q-9 -57 2.5 -76.5
t68.5 -31.5l78 -17l-4 -18h-492zM512 723q106 0 185 30.5t125 85t68.5 122.5t22.5 149q0 139 -58 204.5t-191 65.5q-109 0 -166 -14l-113 -633q57 -10 127 -10z" />
    <glyph glyph-name="S" unicode="S" horiz-adv-x="972" 
d="M412 -20q-250 0 -400 108l31 336h18q17 -88 64 -238q28 -90 85.5 -129t192.5 -39q82 0 145 24.5t100.5 67.5t56 97.5t18.5 118.5q0 97 -60.5 176.5t-209.5 181.5q-138 95 -198 182.5t-60 192.5q0 85 36.5 157.5t97.5 121t140.5 75.5t165.5 27q202 0 326 -70l-19 -309h-18
q-32 116 -70 203q-32 77 -85.5 108t-150.5 31q-123 0 -202.5 -77t-79.5 -206q0 -75 46.5 -143t176.5 -158q178 -122 246.5 -215.5t68.5 -206.5q0 -184 -134.5 -300.5t-327.5 -116.5z" />
    <glyph glyph-name="T" unicode="T" horiz-adv-x="1136" 
d="M236 0l4 18l82 17q51 11 70 30t28 68l221 1243h-41q-72 0 -112 -2.5t-79 -9.5t-63 -23.5t-46.5 -41.5t-45.5 -66q-76 -136 -107 -199h-24l88 385h1032l-33 -385h-24q-23 129 -39 203q-15 64 -40.5 91t-79.5 37.5t-173 10.5h-47l-219 -1241q-9 -52 5 -72t69 -30l73 -15
l-4 -18h-495z" />
    <glyph glyph-name="U" unicode="U" horiz-adv-x="1273" 
d="M1055 451l141 792q13 75 -5 101t-91 45l-49 12l4 18h366l-4 -18l-57 -15q-55 -14 -78 -40.5t-35 -94.5l-147 -829q-18 -98 -49.5 -172.5t-86.5 -138t-143 -97.5t-207 -34q-555 0 -467 507l140 799q9 53 -2.5 70t-59.5 28l-69 17l4 18h477l-4 -18l-88 -17
q-48 -9 -65.5 -27.5t-26.5 -70.5l-140 -788q-43 -241 42 -349t294 -108q98 0 170.5 30t118.5 87.5t73.5 128t43.5 164.5z" />
    <glyph glyph-name="V" unicode="V" horiz-adv-x="1169" 
d="M444 0l-190 1200q-18 111 -31 139t-59 45l-45 17l4 18h430l-2 -18l-49 -12q-38 -9 -55.5 -19t-28.5 -27q-18 -34 -4 -126l149 -984h6l510 967q41 78 41 129q0 40 -61 55l-62 17l2 18h353l-4 -18l-37 -15q-56 -21 -90 -60.5t-95 -151.5l-624 -1174h-58z" />
    <glyph glyph-name="W" unicode="W" horiz-adv-x="1705" 
d="M377 0l-141 1200q-12 99 -27 132t-57 50l-46 19l5 18h442l-4 -18l-68 -17q-68 -15 -84 -51q-8 -29 -7.5 -48t7.5 -79l107 -958h4l426 829l-14 111q-15 117 -31.5 150t-65.5 48l-45 15l4 18h437l-5 -18l-43 -12q-38 -10 -58 -21t-30 -33q-18 -37 -8 -129l113 -948h6
l416 922q43 99 43 139q0 26 -15.5 43t-50.5 27l-39 12l4 18h338l-4 -18l-47 -19q-66 -26 -92 -58t-80 -148l-539 -1176h-65l-117 981h-6l-506 -981h-57z" />
    <glyph glyph-name="X" unicode="X" horiz-adv-x="1175" 
d="M-84 0l4 18l35 11q50 14 83.5 43t106.5 123l394 505l-234 566q-30 74 -44.5 93.5t-51.5 29.5l-43 12l4 18h442l-6 -18l-57 -12q-62 -13 -72 -39q-11 -33 29 -133l158 -412h4l307 426q49 67 49 104q0 36 -57 54l-45 12l4 18h336l-5 -18l-40 -12q-49 -14 -81.5 -44
t-95.5 -114l-354 -479l232 -562q4 -10 13.5 -32.5t12 -28.5t10 -22.5t11 -20.5t11 -15t13 -14t14 -9.5t18 -10t21.5 -6.5l41 -13l-4 -18h-440l4 18l59 13q37 6 52.5 17.5t15.5 33.5q0 28 -41 129l-168 438h-2l-369 -481q-51 -68 -51 -96q0 -31 56 -43l45 -11l-4 -18h-320z
" />
    <glyph glyph-name="Y" unicode="Y" horiz-adv-x="1099" 
d="M209 0l4 18l82 17q51 11 69 28t27 66l80 438l-213 684q-24 75 -41.5 99t-58.5 36l-47 15l4 18h458l-4 -18l-82 -21q-21 -5 -33 -10t-23 -18t-11 -33q0 -29 18 -90l176 -596h7l337 541q63 99 66 145q0 24 -14 38t-45 23l-66 21l4 18h375l-4 -18l-35 -12q-41 -15 -60.5 -24
t-45.5 -34.5t-48.5 -58t-66.5 -103.5l-381 -604l-78 -434q-9 -51 5.5 -69t70.5 -29l74 -15l-2 -18h-498z" />
    <glyph glyph-name="Z" unicode="Z" horiz-adv-x="1077" 
d="M-53 0l12 45l1008 1321v8h-156q-173 0 -265.5 -10.5t-134.5 -31.5t-73 -64q-45 -61 -135 -234h-21l72 385h909l-12 -45l-1004 -1323v-8h152q209 0 308 8t143 26t81 60q61 70 152 256h21l-76 -393h-981z" />
    <glyph glyph-name="bracketleft" unicode="[" horiz-adv-x="583" 
d="M750 1503l-5 -18l-174 -21q-60 -6 -77 -26t-31 -97l-254 -1441q-15 -70 -2.5 -95t78.5 -32l157 -21l-4 -18h-385l312 1769h385z" />
    <glyph glyph-name="backslash" unicode="\" horiz-adv-x="679" 
d="M512 -266l-340 1769h51l340 -1769h-51z" />
    <glyph glyph-name="bracketright" unicode="]" horiz-adv-x="583" 
d="M-104 -266l4 18l174 21q60 6 77 26t31 97l254 1441q15 70 2.5 95t-78.5 32l-157 21l4 18h385l-311 -1769h-385z" />
    <glyph glyph-name="asciicircum" unicode="^" horiz-adv-x="778" 
d="M162 999l-15 13l334 434h62l215 -440l-15 -9l-256 250z" />
    <glyph glyph-name="underscore" unicode="_" horiz-adv-x="684" 
d="M-162 -348l10 47h705l-8 -47h-707z" />
    <glyph glyph-name="grave" unicode="`" 
d="M733 1178l-321 106q-32 10 -48 32.5t-16 49.5q0 31 22.5 54.5t57.5 23.5q28 0 64 -31l249 -221z" />
    <glyph glyph-name="a" unicode="a" horiz-adv-x="1056" 
d="M242 -20q-97 0 -150 64t-53 173q0 119 29 233.5t77.5 206t112 169.5t133.5 130.5t141.5 81.5t135.5 29q140 0 245 -72h7l81 74l17 -6q-37 -74 -86 -318l-107 -536q-12 -70 -12 -98q0 -49 67 -21q25 10 62 31l57 33l11 -15q-166 -155 -283 -155q-39 0 -61.5 25t-22.5 73
q0 69 45 227h-6q-226 -329 -440 -329zM324 61q75 0 176.5 90.5t191.5 221.5l123 567q-15 42 -51.5 67t-87.5 25q-81 0 -166.5 -69.5t-152 -179.5t-109.5 -257.5t-43 -292.5q0 -172 119 -172z" />
    <glyph glyph-name="b" unicode="b" horiz-adv-x="1050" 
d="M416 -20q-215 0 -363 98v4l269 1284q9 44 -4 65.5t-62 41.5l-74 30l2 15l324 28l8 -6q-24 -111 -51 -248l-74 -350q-20 -105 -55 -233h4q54 72 100.5 126t108 111.5t125.5 89t125 31.5q101 0 156 -76t55 -217q0 -169 -53.5 -320t-139 -253t-191 -161.5t-210.5 -59.5z
M408 14q122 0 223 103.5t157 273.5t56 365q0 229 -109 229q-81 0 -182.5 -93t-220.5 -245l-119 -541q30 -42 81 -67t114 -25z" />
    <glyph glyph-name="c" unicode="c" horiz-adv-x="851" 
d="M326 -20q-139 0 -214 80t-75 225q0 152 56 298.5t144.5 251t200 168.5t219.5 64q99 0 155 -38.5t56 -100.5q0 -38 -23.5 -65t-60.5 -27q-50 0 -71 28.5t-33 106.5q-9 55 -55 55q-102 0 -201 -107.5t-161 -281t-62 -354.5q0 -236 182 -236q67 0 127 24.5t100.5 56.5
t102.5 91l14 -16q-83 -104 -179.5 -163.5t-221.5 -59.5z" />
    <glyph glyph-name="d" unicode="d" horiz-adv-x="1089" 
d="M1053 1292l-215 -1083q-17 -82 -17 -100q0 -63 133 12l58 33l10 -15q-163 -155 -277 -155q-86 0 -86 96q0 40 50 229h-7q-51 -73 -96 -125.5t-101.5 -102t-121 -75.5t-133.5 -26q-96 0 -153.5 70.5t-57.5 187.5q0 161 59.5 316.5t151.5 266t205.5 178.5t218.5 68
q95 0 172 -25h8q9 66 25 148l36 176q9 46 -3 65.5t-62 41.5l-84 30l2 15l328 28l8 -6q-24 -119 -51 -248zM334 61q83 0 184 88.5t195 223.5l116 575q-47 84 -153 84q-82 0 -167.5 -69.5t-152 -179.5t-109 -257.5t-42.5 -292.5q0 -92 32 -132t97 -40z" />
    <glyph glyph-name="e" unicode="e" horiz-adv-x="884" 
d="M336 -20q-145 0 -221 83.5t-76 225.5q0 137 54 279t139 251t196 178.5t217 69.5q117 0 178.5 -52t61.5 -132q0 -129 -163.5 -238.5t-496.5 -169.5q-22 -99 -22 -192q0 -112 49.5 -175t134.5 -63q91 0 167.5 41t170.5 125l14 -16q-74 -91 -178.5 -153t-224.5 -62z
M629 1030q-98 0 -221 -157t-177 -365q276 55 396 166q47 42 71.5 104t24.5 121q0 131 -94 131z" />
    <glyph glyph-name="f" unicode="f" horiz-adv-x="581" 
d="M-127 -420q-76 0 -117 28.5t-41 72.5q0 36 22.5 59.5t61.5 23.5q36 0 55 -21.5t35 -66.5q8 -23 11.5 -31t11 -16t18.5 -8q14 0 27 10.5t29.5 43t33 86.5t36.5 146.5t40 217.5l135 846h-131l4 18l138 47l8 39q47 226 154.5 348.5t259.5 122.5q79 0 121 -35t42 -81
q0 -36 -21.5 -58t-55.5 -22q-42 0 -63.5 24.5t-35.5 81.5q-8 30 -18 41.5t-31 11.5q-22 0 -45 -19t-49 -60.5t-50.5 -120t-41.5 -185.5l-15 -90h240l-14 -63h-236l-123 -709q-58 -339 -154.5 -510.5t-240.5 -171.5z" />
    <glyph glyph-name="g" unicode="g" horiz-adv-x="944" 
d="M303 -416q-111 0 -202 26t-150.5 84.5t-59.5 139.5q0 188 291 266v4q-92 39 -92 127q0 114 172 195v4q-131 75 -131 229q0 90 35 168.5t91.5 130t127 80.5t143.5 29q128 0 215 -74q54 51 100.5 79t94.5 28q44 0 70 -24.5t26 -65.5q0 -35 -23.5 -58.5t-54.5 -23.5
q-53 0 -77 61q-19 48 -66 19q-14 -9 -49 -37v-4q76 -73 76 -201q0 -88 -34 -162t-90 -121.5t-127 -73.5t-147 -26q-74 0 -147 27q-37 -22 -63.5 -55t-26.5 -66q0 -41 26 -56t86 -20l226 -18q284 -24 284 -228q0 -72 -36 -140t-101 -122.5t-166 -87.5t-221 -33zM328 -377
q172 0 268 76.5t96 185.5q0 83 -42 125t-140 51l-285 27q-78 -31 -132 -95t-54 -149q0 -102 74 -161.5t215 -59.5zM444 420q114 0 181 109t67 288q0 106 -40 159.5t-128 53.5q-112 0 -178.5 -120.5t-66.5 -291.5q0 -100 40.5 -149t124.5 -49z" />
    <glyph glyph-name="h" unicode="h" horiz-adv-x="1056" 
d="M723 -16q-80 0 -80 84q0 53 25 155l104 463q26 113 30.5 174t-10 86t-51.5 25q-119 0 -401 -318l-145 -653h-156l285 1366q9 46 -4 66t-62 41l-74 30l2 13l318 30l8 -6q-24 -109 -51 -248l-68 -350q-20 -102 -55 -237h4q70 83 125 141t116.5 112t118.5 81.5t109 27.5
q74 0 112 -45.5t38 -128.5q0 -61 -37 -219l-105 -463q-16 -77 -16 -102q0 -63 133 12l57 33l11 -15q-97 -89 -161.5 -122t-119.5 -33z" />
    <glyph glyph-name="i" unicode="i" horiz-adv-x="512" 
d="M166 -16q-43 0 -64.5 26t-21.5 66q0 43 24 147l138 611q12 56 12 92q0 19 -10 27.5t-37 1t-70 -36.5l-57 -39l-10 14q174 174 270 174q37 0 60.5 -22.5t23.5 -59.5q0 -20 -4.5 -47.5t-17.5 -84t-17 -75.5l-129 -567q-16 -83 -16 -102q0 -20 13 -27.5t44 1.5t76 36l57 35
l10 -15q-161 -155 -274 -155zM383 1239q-45 0 -74.5 30.5t-29.5 71.5q0 42 29 71.5t73 29.5q45 0 75.5 -30t30.5 -73q0 -39 -30.5 -69.5t-73.5 -30.5z" />
    <glyph glyph-name="j" unicode="j" horiz-adv-x="495" 
d="M375 1239q-46 0 -76.5 30.5t-30.5 71.5q0 42 30 71.5t75 29.5q44 0 74 -30t30 -73q0 -39 -30 -69.5t-72 -30.5zM381 778l-150 -803q-38 -203 -130.5 -302t-217.5 -99q-95 0 -143.5 33t-48.5 90q0 39 24.5 63.5t69.5 24.5q78 0 90 -102q5 -40 14.5 -57t32.5 -17
q42 0 79 63.5t62 200.5l168 961q13 80 13 92q0 19 -10 27.5t-37 1t-70 -36.5l-57 -39l-11 14q174 174 271 174q37 0 60.5 -22.5t23.5 -59.5q0 -17 -3.5 -42.5t-6.5 -44.5t-11.5 -60.5t-11.5 -59.5z" />
    <glyph glyph-name="k" unicode="k" horiz-adv-x="958" 
d="M653 -16q-48 0 -78 30.5t-65 110.5q-63 147 -143 422v6q65 95 106.5 152.5t104 135t108 120.5t99 74.5t98.5 31.5q52 0 79 -27t27 -63q0 -41 -24 -66.5t-64 -25.5q-28 0 -47 12.5t-26.5 27.5t-18 27.5t-23.5 12.5q-38 0 -128 -95t-177 -221q89 -272 170 -461
q24 -56 44 -77.5t52.5 -19.5t88.5 34l53 31l10 -15q-70 -70 -138 -113.5t-108 -43.5zM39 0l285 1366q9 47 -3.5 67t-62.5 40l-74 30l2 13l318 30l8 -6q-22 -109 -51 -248l-268 -1292h-154z" />
    <glyph glyph-name="l" unicode="l" horiz-adv-x="495" 
d="M94 223l225 1143q9 46 -3.5 66.5t-61.5 40.5l-74 30l2 13l318 30l8 -6q-24 -107 -51 -248l-211 -1081q-13 -63 -13 -94q0 -63 97 -15q22 12 51 29l57 35l11 -14q-180 -168 -297 -168q-41 0 -61.5 24t-20.5 60q0 41 24 155z" />
    <glyph glyph-name="m" unicode="m" horiz-adv-x="1599" 
d="M1266 -16q-80 0 -80 84q0 57 24 155l103 447q39 167 35 234t-56 67q-121 0 -372 -287l-154 -684h-154l150 670q19 87 27.5 141.5t6.5 92t-15 52.5t-40 15q-59 0 -162.5 -89.5t-213.5 -217.5l-148 -664h-156l177 834q12 62 12 86t-11 33t-37.5 1t-68.5 -36l-57 -39l-10 14
q169 174 270 174q30 0 52 -20.5t22 -57.5q0 -59 -48 -278h5q77 91 126 144.5t108.5 108t109 79t96.5 24.5q143 0 143 -168q0 -66 -20 -154h4q125 151 228 236.5t190 85.5q149 0 149 -168q0 -76 -35 -225l-104 -463q-16 -77 -16 -102q0 -63 133 12l57 33l10 -15
q-98 -89 -161.5 -122t-118.5 -33z" />
    <glyph glyph-name="n" unicode="n" horiz-adv-x="1079" 
d="M745 -16q-79 0 -79 84q0 57 24 155l105 463q26 113 30.5 174.5t-10 87t-51.5 25.5q-38 0 -88 -28t-107 -80t-103.5 -100t-103.5 -112l-145 -653h-156l177 834q12 62 12 92q0 19 -9.5 27.5t-37 1.5t-70.5 -37l-57 -39l-10 14q169 174 270 174q30 0 52 -20.5t22 -57.5
q0 -56 -50 -284h5q70 83 125 141t116.5 112t118.5 81.5t109 27.5q74 0 111.5 -45.5t37.5 -128.5q0 -61 -37 -219l-104 -463q-17 -82 -17 -102q0 -63 133 12l58 33l10 -15q-97 -89 -161.5 -122t-119.5 -33z" />
    <glyph glyph-name="o" unicode="o" horiz-adv-x="1005" 
d="M403 -20q-158 0 -259 117t-101 294q0 104 24.5 199t66.5 167.5t97 132t117 98t126.5 59t125.5 20.5q160 0 261.5 -117.5t101.5 -294.5q0 -128 -34.5 -240t-91.5 -190t-130.5 -134.5t-151 -83.5t-152.5 -27zM403 16q106 0 198 96.5t145 258.5t53 348q0 160 -49 235.5
t-150 75.5q-103 0 -193.5 -93t-145 -255.5t-54.5 -353.5q0 -160 48.5 -236t147.5 -76z" />
    <glyph glyph-name="p" unicode="p" horiz-adv-x="1062" 
d="M-152 -401l5 16l77 18q42 10 57.5 31.5t26.5 81.5l209 1077q15 73 15 103q0 19 -10.5 27.5t-37.5 1t-69 -36.5l-58 -39l-10 14q171 174 269 174q38 0 58.5 -26t20.5 -74q0 -34 -15 -114t-36 -146h4q49 69 94 123t106 112.5t127.5 91.5t131.5 33q102 0 156.5 -77
t54.5 -216q0 -178 -53 -330.5t-138 -252t-190.5 -155.5t-212.5 -56q-132 0 -213 38q0 -43 -20 -145l-25 -127q-12 -63 -3 -83.5t54 -29.5l86 -18l-2 -16h-459zM434 14q115 0 212.5 98t154.5 269t57 375q0 116 -25.5 172.5t-82.5 56.5q-46 0 -100 -30.5t-110 -86t-99 -105
t-95 -116.5l-102 -522q58 -111 190 -111z" />
    <glyph glyph-name="q" unicode="q" horiz-adv-x="1056" 
d="M403 -401l5 16l96 20q38 7 54 29.5t28 81.5l57 285q8 39 66 278h-7q-52 -74 -95.5 -125t-101 -101.5t-121.5 -76.5t-134 -26q-93 0 -152 69t-59 189q0 109 27.5 217t74 198t110 167.5t133 131.5t145 84.5t145.5 30.5q147 0 254 -72h6l82 74l16 -6q-39 -85 -86 -318
l-203 -995q-13 -66 -3 -88t55 -33l63 -14l-2 -16h-453zM334 61q84 0 185 89.5t194 222.5l116 575q-21 39 -60.5 61.5t-92.5 22.5q-82 0 -167.5 -69.5t-152 -179.5t-109 -257.5t-42.5 -292.5q0 -92 32 -132t97 -40z" />
    <glyph glyph-name="r" unicode="r" horiz-adv-x="798" 
d="M61 0l177 834q12 54 12 92q0 20 -10.5 28t-37.5 0t-69 -36l-57 -39l-10 14q171 174 270 174q33 0 53.5 -21.5t20.5 -56.5q0 -102 -70 -375h6q56 95 102 165.5t101 141t106.5 108.5t94.5 38q50 0 76 -25.5t26 -70.5q0 -41 -25 -71t-65 -30q-33 0 -55 14t-37.5 28t-30.5 14
q-29 0 -117 -110t-184 -273l-121 -543h-156z" />
    <glyph glyph-name="s" unicode="s" horiz-adv-x="747" 
d="M268 -20q-143 0 -214.5 42.5t-71.5 110.5q0 35 21.5 58.5t59.5 23.5q36 0 58.5 -20.5t38.5 -77.5q15 -56 42.5 -77.5t88.5 -21.5q86 0 145.5 59t59.5 144q0 70 -36 122.5t-132 131.5q-102 83 -143.5 149.5t-41.5 137.5q0 133 101.5 219t244.5 86q113 0 180.5 -38.5
t67.5 -98.5q0 -38 -21 -60t-57 -22q-41 0 -62.5 23t-37.5 77q-14 45 -33 62.5t-63 17.5q-86 0 -141.5 -59.5t-55.5 -141.5q0 -60 37 -109t146 -136q95 -74 138.5 -140t43.5 -145q0 -138 -101 -227.5t-262 -89.5z" />
    <glyph glyph-name="t" unicode="t" horiz-adv-x="602" 
d="M184 -16q-52 0 -81 28.5t-29 83.5q0 48 18 133l158 742h-144l5 18l151 43l37 172l150 58h16l-47 -228h233l-16 -63h-232l-153 -731q-14 -61 -14 -99q0 -68 41 -68q47 0 192 99l45 31l14 -17q-98 -98 -187 -150t-157 -52z" />
    <glyph glyph-name="u" unicode="u" horiz-adv-x="1046" 
d="M244 -20q-68 0 -114 43t-46 129q0 82 31 208l110 486q1 8 4.5 22.5t5 26.5t1.5 25q0 21 -13 29t-40 0.5t-64 -31.5l-58 -39l-10 14q98 98 157.5 136t104.5 38q84 0 84 -92q0 -23 -2.5 -46.5t-5 -35.5l-10 -48t-10.5 -50l-97 -430q-36 -172 -25 -235.5t66 -63.5
q134 0 387 317l140 651h153l-174 -823q-14 -72 -14 -94q0 -69 129 4l57 33l10 -15q-91 -87 -155.5 -121t-120.5 -34q-37 0 -59.5 24t-22.5 68q0 74 51 243h-4q-141 -178 -243 -258.5t-203 -80.5z" />
    <glyph glyph-name="v" unicode="v" horiz-adv-x="911" 
d="M246 0q-3 568 -27 793q-7 61 -16 95.5t-24 50t-36.5 11t-54.5 -27.5l-61 -43l-11 14q83 95 136 134.5t104 39.5q57 0 82.5 -53.5t36.5 -184.5q21 -260 24 -667h7q162 175 285.5 371.5t123.5 273.5q0 30 -13 52.5t-28 34.5t-28 34t-13 51q0 38 24.5 63t61.5 25
q45 0 72 -25t27 -77q0 -142 -153.5 -392.5t-453.5 -572.5h-65z" />
    <glyph glyph-name="w" unicode="w" horiz-adv-x="1390" 
d="M879 825q15 -320 2 -659h4q163 175 286 370t123 271q0 30 -13 52.5t-28 34.5t-28 34t-13 51q0 38 24.5 63t61.5 25q45 0 72 -25t27 -77q0 -142 -153 -393t-453 -572h-56q6 452 2 594h-2q-157 -275 -430 -594h-67q-2 375 -5 526.5t-14 266.5q-11 117 -38 145t-93 -16
l-61 -43l-11 14q83 94 134.5 134t101.5 40q59 0 84.5 -54.5t36.5 -178.5q25 -270 14 -670h4q228 288 342 506q1 17 -1.5 66t-2.5 55q-7 121 -32.5 148t-86.5 -17l-61 -43l-10 14q85 95 133.5 134.5t93.5 39.5q56 0 81.5 -57.5t31.5 -184.5z" />
    <glyph glyph-name="x" unicode="x" 
d="M399 500q-46 224 -75 336q-7 27 -10.5 40t-9 31.5t-10 25t-11 16t-14 10t-17.5 1t-23 -6t-28 -14.5t-35 -21l-57 -39l-11 14q168 174 250 174q50 0 72.5 -32.5t44.5 -121.5q20 -86 59 -284h2q145 274 193 336q76 102 158 102q45 0 71.5 -24t26.5 -60q0 -39 -22.5 -63.5
t-65.5 -24.5q-29 0 -56 23.5t-40 23.5q-26 0 -64 -51q-73 -102 -192 -322q58 -278 77 -354q7 -27 10.5 -40t9 -31.5t10 -25t11 -16t14 -10t17.5 -1t23 6t28 14.5t35 21l57 39l11 -14q-168 -174 -250 -174q-50 0 -72.5 32.5t-44.5 120.5l-61 297h-2q-142 -275 -201 -352
q-76 -102 -158 -102q-45 0 -71.5 23.5t-26.5 59.5q0 39 23 64t65 25q29 0 56 -24t40 -24q27 0 64 50q78 109 200 346z" />
    <glyph glyph-name="y" unicode="y" horiz-adv-x="905" 
d="M385 829q41 -280 68 -731h6q174 233 273 423.5t99 279.5q0 28 -15 51t-33 36.5t-33 37.5t-15 53q0 38 24.5 63t61.5 25q44 0 71.5 -29t27.5 -82q0 -170 -122.5 -399.5t-344.5 -531.5q-188 -257 -308 -353t-241 -96q-61 0 -97 28.5t-36 73.5q0 39 27 65t69 26q29 0 50 -17
t31.5 -37.5t25.5 -37.5t34 -17q52 0 124 58.5t183 193.5q-39 565 -88 881q-10 63 -19 96t-24 49.5t-35 11.5t-53 -28l-61 -43l-10 14q83 95 135.5 134.5t103.5 39.5q55 0 78 -50t43 -188z" />
    <glyph glyph-name="z" unicode="z" horiz-adv-x="839" 
d="M504 -20q-48 0 -103.5 25t-97.5 54.5t-91.5 54.5t-86.5 25q-33 0 -59.5 -29.5t-88.5 -125.5h-6l-51 47v6q32 23 57.5 43.5t49.5 44t35 34.5t37.5 40.5t33.5 36.5l545 583q-76 14 -230 70.5t-215 56.5q-28 0 -28 -18q0 -10 22 -19.5t44 -28t22 -49.5q0 -30 -23.5 -50.5
t-60.5 -20.5q-40 0 -63 24.5t-23 65.5q0 79 80 148t180 69q46 0 100.5 -26.5t94.5 -57.5t82 -57.5t67 -26.5q36 0 65.5 34.5t67.5 115.5h6l52 -43v-7q-24 -18 -52 -44t-43 -42t-47 -51t-37 -41l-557 -598q73 -4 211 -49t178 -45q54 0 90 24.5t95 104.5l18 -10
q-26 -45 -36 -62.5t-33 -54t-36 -52t-35 -39.5t-40 -34t-41.5 -18t-48.5 -8z" />
    <glyph glyph-name="braceleft" unicode="{" horiz-adv-x="632" 
d="M479 -266q-192 23 -266 62.5t-74 135.5q0 56 51.5 166t102.5 213t51 144q0 72 -50 110t-185 62l8 39q291 3 291 174q0 60 -27 221.5t-27 236.5q0 111 95.5 156t324.5 51l-2 -16q-117 -14 -178 -38.5t-79 -55.5t-17 -86q-1 -68 9.5 -232t10.5 -227q0 -75 -77 -134
t-246 -73v-8q129 -26 188 -73t59 -120q0 -37 -25 -108t-54.5 -140t-54.5 -150t-25 -134q0 -68 37 -95.5t163 -66.5z" />
    <glyph glyph-name="bar" unicode="|" horiz-adv-x="358" 
d="M154 -266v1769h51v-1769h-51z" />
    <glyph glyph-name="braceright" unicode="}" horiz-adv-x="632" 
d="M193 1505q192 -23 265.5 -62.5t73.5 -135.5q0 -56 -51 -166t-102 -213t-51 -144q0 -72 50 -110t185 -62l-8 -39q-291 -3 -291 -174q0 -60 26.5 -221.5t26.5 -236.5q0 -111 -95 -156t-324 -51l2 16q117 14 178 38.5t79 55.5t17 86q1 68 -9.5 232t-10.5 227q0 75 77 135
t246 74v8q-129 26 -188.5 72t-59.5 119q0 45 40 145.5t80 210t40 176.5q0 68 -37 95.5t-164 66.5z" />
    <glyph glyph-name="asciitilde" unicode="~" horiz-adv-x="716" 
d="M82 465l-23 10q62 118 105.5 169.5t105.5 51.5q47 0 144 -33.5t139 -33.5q54 0 113 100l20 -10q-59 -114 -105.5 -167.5t-103.5 -53.5q-54 0 -149 34.5t-131 34.5q-31 0 -57.5 -25t-57.5 -77z" />
    <glyph glyph-name="uni00A0" unicode="&#xa0;" horiz-adv-x="421" 
 />
    <glyph glyph-name="exclamdown" unicode="&#xa1;" horiz-adv-x="491" 
d="M324 887l-80 -946q-4 -54 -34 -81.5t-79 -27.5q-57 0 -86.5 42t-9.5 108l268 905h21zM461 1174q0 -43 -31 -74t-74 -31t-73.5 31t-30.5 74t30.5 73.5t73.5 30.5t74 -30.5t31 -73.5z" />
    <glyph glyph-name="cent" unicode="&#xa2;" horiz-adv-x="888" 
d="M336 -20q-139 0 -223 80.5t-84 230.5q0 184 79 351t204.5 274.5t267.5 138.5l32 166h43l-30 -158q32 4 53 4q111 0 167 -39.5t56 -105.5q0 -44 -25.5 -70.5t-66.5 -26.5q-56 0 -81.5 31.5t-29.5 112.5q-3 57 -53 57q-5 0 -14.5 -1t-14.5 -1l-190 -979q86 10 151 50
t150 124l14 -16q-150 -184 -325 -215l-41 -209h-41l39 203q-6 0 -18.5 -1t-18.5 -1zM193 283q0 -114 50 -177t132 -63h10l186 971q-99 -34 -186 -144.5t-139.5 -268t-52.5 -318.5z" />
    <glyph glyph-name="sterling" unicode="&#xa3;" horiz-adv-x="940" 
d="M86 713l10 43h144q-7 137 -7 229q0 192 130.5 323.5t345.5 131.5q131 0 194.5 -41t63.5 -111q0 -38 -25 -63t-65 -25q-75 0 -91 90q-11 65 -31 87t-79 22q-102 0 -174.5 -88.5t-93.5 -253.5q-11 -86 -19 -301h359l-11 -43h-350l-6 -183q-13 -129 -69 -201t-212 -171v-11
h535q64 0 98.5 26.5t108.5 133.5h14l-90 -307h-821l22 115q169 86 226 169.5t57 243.5q0 37 -8 185h-156z" />
    <glyph glyph-name="yen" unicode="&#xa5;" horiz-adv-x="1062" 
d="M129 616l8 41h316l-197 600q-25 76 -40.5 99.5t-55.5 34.5l-37 10l4 18h436l-4 -18l-49 -15q-62 -19 -82 -38q-18 -18 -18 -43q0 -37 22 -107l162 -500h4l307 496q53 83 53 127q0 22 -15 35.5t-52 25.5l-57 19l4 18h358l-4 -18l-47 -23q-66 -32 -90 -59t-103 -150
l-325 -512h315l-6 -41h-320l-32 -180h317l-6 -41h-320l-47 -264q-9 -51 5.5 -69t70.5 -29l74 -15l-2 -18h-498l4 18l82 17q51 11 69 28t27 66l50 266h-322l8 41h320l35 180h-322z" />
    <glyph glyph-name="brokenbar" unicode="&#xa6;" horiz-adv-x="415" 
d="M268 1503v-829h-51v829h51zM217 -266v784h51v-784h-51z" />
    <glyph glyph-name="section" unicode="&#xa7;" horiz-adv-x="1040" 
d="M698 25q13 -37 13 -88q0 -143 -111.5 -249t-277.5 -106q-125 0 -188.5 44t-63.5 110q0 37 24 61.5t62 24.5t60.5 -23.5t29.5 -77.5q6 -58 28 -80t72 -22q100 0 168 71.5t68 184.5q0 26 -5.5 51.5t-11.5 45t-23 48t-26.5 44t-37.5 48.5t-40 47t-49 55.5t-51 57.5
q-72 80 -109 124.5t-74.5 98.5t-52 98.5t-14.5 92.5q0 97 63 175t191 128q-12 35 -12 88q0 143 111.5 249t277.5 106q125 0 188.5 -44t63.5 -110q0 -37 -24 -61.5t-62 -24.5t-60.5 23t-29.5 77q-6 58 -28.5 80.5t-72.5 22.5q-100 0 -167.5 -71t-67.5 -185q0 -23 3 -44
t12 -44t15.5 -39.5t24 -42.5t27 -39.5t35 -44t36.5 -43.5t44 -49.5t46 -51.5q58 -65 89 -101t67.5 -83t53.5 -80t28.5 -71.5t11.5 -77.5q0 -97 -63 -175t-191 -128zM690 49q61 35 97 90.5t36 110.5q0 24 -4.5 46.5t-10 41t-21 44t-25 41t-35 46t-39 46.5t-48 55.5
t-52.5 60.5q-5 6 -28.5 33t-30 34.5t-27.5 32t-28.5 34.5t-24.5 32t-25 34t-21.5 32t-21 34.5t-16.5 32.5t-15 35q-61 -35 -97 -90.5t-36 -110.5q0 -27 4 -50.5t17.5 -51.5t23 -45t37 -52t41 -51t54.5 -63t59 -68q126 -145 166 -204q48 -69 71 -130z" />
    <glyph glyph-name="dieresis" unicode="&#xa8;" 
d="M373 1210q-43 0 -73 30t-30 69q0 42 29 70t72 28t71.5 -28.5t28.5 -69.5t-28 -70t-70 -29zM723 1210q-43 0 -72.5 30t-29.5 69q0 43 28.5 70.5t71.5 27.5q44 0 72 -28t28 -70q0 -41 -28 -70t-70 -29z" />
    <glyph glyph-name="copyright" unicode="&#xa9;" horiz-adv-x="1566" 
d="M809 283q-76 0 -141 24t-116 73t-80.5 130.5t-29.5 187.5q0 92 22.5 166.5t61 123t91 81.5t110 47t121.5 14q132 0 221 -28l10 -238h-20q-27 86 -60 150q-21 44 -59 61t-106 17q-124 0 -185 -88.5t-61 -280.5q0 -209 55 -306.5t170 -97.5q150 0 191 78q24 45 59 156h18
l-12 -217q-100 -53 -260 -53zM86 702q0 198 97 366t264.5 266t365.5 98t365 -98t263.5 -266t96.5 -366q0 -149 -57 -283.5t-154 -232.5t-231.5 -155.5t-282.5 -57.5t-283 57.5t-232 155.5t-154.5 232.5t-57.5 283.5zM137 702q0 -184 90.5 -340t246.5 -247.5t339 -91.5
t338.5 91.5t245.5 247.5t90 340q0 137 -53.5 262.5t-143.5 216.5t-215 145t-262 54t-262.5 -54t-216 -145t-144 -216.5t-53.5 -262.5z" />
    <glyph glyph-name="ordfeminine" unicode="&#xaa;" horiz-adv-x="884" 
d="M295 551q-87 0 -133.5 60t-46.5 159q0 107 32 210t85 182.5t119 141t137 94t135 32.5q108 0 182 -68h6l82 76l16 -8q-32 -63 -69 -256l-78 -424q-6 -27 -6 -50q-2 -26 3 -39t20 -13t35.5 8t55.5 26l52 27l8 -15q-158 -137 -248 -137q-37 0 -59.5 23.5t-22.5 66.5
q0 44 33 168h-6q-35 -52 -68 -92t-76.5 -82.5t-91.5 -66t-96 -23.5zM352 627q36 0 75.5 23.5t80 66.5t72 83t67.5 93l78 405q-27 97 -115 97q-77 0 -158 -83t-137.5 -227.5t-58.5 -302.5q0 -71 23.5 -113t72.5 -42z" />
    <glyph glyph-name="guillemotleft" unicode="&#xab;" horiz-adv-x="786" 
d="M625 123l-281 387l8 35l402 366h20l-272 -403l143 -385h-20zM326 123l-281 387l8 35l402 366h20l-272 -403l143 -385h-20z" />
    <glyph glyph-name="registered" unicode="&#xae;" horiz-adv-x="784" 
d="M117 1063q0 154 107.5 262.5t260.5 108.5q154 0 262.5 -108.5t108.5 -262.5t-108.5 -261.5t-262.5 -107.5t-261 107.5t-107 261.5zM162 1063q0 -135 94 -231.5t229 -96.5q136 0 231 94.5t95 233.5q0 135 -95.5 232.5t-230.5 97.5q-134 0 -228.5 -97t-94.5 -233zM307 872
v17l31 6q11 5 13.5 10.5t2.5 22.5v282q0 19 -2.5 24.5t-13.5 10.5l-29 6v15h176q150 0 150 -103q0 -76 -86 -100v-4q35 -71 90 -144q2 -2 6 -6.5t6.5 -7t7 -5t9.5 -3.5l22 -4v-17h-106q-45 55 -99 170h-55v-114q0 -17 3.5 -22.5t15.5 -10.5l28 -6v-17h-170zM430 1067h43
q86 0 86 90q0 82 -82 82h-47v-172z" />
    <glyph glyph-name="macron" unicode="&#xaf;" 
d="M305 1233l14 78h459l-12 -78h-461z" />
    <glyph glyph-name="degree" unicode="&#xb0;" horiz-adv-x="598" 
d="M162 1190q0 103 71.5 175.5t174.5 72.5t175 -72.5t72 -175.5t-72 -174.5t-175 -71.5t-174.5 71.5t-71.5 174.5zM209 1190q0 -85 57 -143t142 -58t142.5 58t57.5 143t-58 144t-142 59t-141.5 -59t-57.5 -144z" />
    <glyph glyph-name="twosuperior" unicode="&#xb2;" horiz-adv-x="516" 
d="M37 717l12 57q165 124 219 172q191 170 191 326q0 66 -27.5 97.5t-66.5 31.5q-62 0 -72 -60q-6 -44 -22 -65t-50 -21q-59 0 -59 56q0 51 57 87t143 36q108 0 167 -50.5t59 -134.5q0 -65 -27.5 -119.5t-103.5 -114t-127 -91.5t-179 -106q-5 -3 -8 -5v-6h265q38 0 53.5 14
t50.5 70h16l-49 -174h-442z" />
    <glyph glyph-name="threesuperior" unicode="&#xb3;" horiz-adv-x="528" 
d="M276 707q-102 0 -156 31.5t-54 80.5q0 26 16 44t43 18q52 0 63 -64q9 -45 27.5 -61.5t63.5 -16.5q65 0 106 57t41 144q0 121 -115 121h-43l6 35h39q75 0 115.5 54.5t40.5 141.5q0 109 -96 109q-33 0 -47 -10.5t-21 -40.5q-12 -50 -28 -68t-50 -18q-25 0 -39 15.5
t-14 41.5q0 43 49 78t137 35q115 0 174.5 -47.5t59.5 -118.5t-54.5 -120.5t-146.5 -64.5v-6q79 -11 122.5 -50t43.5 -103q0 -89 -77 -153t-206 -64z" />
    <glyph glyph-name="acute" unicode="&#xb4;" horiz-adv-x="923" 
d="M668 1278l-322 -100l-8 14l250 215q36 31 63 31q35 0 57.5 -23.5t22.5 -54.5q0 -62 -63 -82z" />
    <glyph glyph-name="paragraph" unicode="&#xb6;" horiz-adv-x="1026" 
d="M399 -205l160 918h-70q-161 0 -254.5 85t-93.5 230q0 172 118.5 281.5t328.5 109.5h536l-4 -18l-102 -21q-37 -8 -50.5 -28.5t-25.5 -89.5l-258 -1467h-57l276 1577h-170l-276 -1577h-58z" />
    <glyph glyph-name="periodcentered" unicode="&#xb7;" horiz-adv-x="417" 
d="M115 692q0 44 33 77.5t77 33.5t77.5 -33.5t33.5 -77.5t-33.5 -77t-77.5 -33t-77 33t-33 77z" />
    <glyph glyph-name="cedilla" unicode="&#xb8;" 
d="M166 -401q203 44 203 143q0 52 -103 72l-8 16l123 170h61l-90 -106q61 -8 102.5 -39.5t41.5 -87.5q0 -146 -330 -187v19z" />
    <glyph glyph-name="onesuperior" unicode="&#xb9;" horiz-adv-x="385" 
d="M74 717l4 16l39 10q35 9 45.5 20.5t17.5 51.5l86 481l-90 13l2 14q75 17 126 42t99 67l11 -2l-109 -617q-7 -41 -2 -51.5t35 -18.5l41 -10l-4 -16h-301z" />
    <glyph glyph-name="ordmasculine" unicode="&#xba;" horiz-adv-x="854" 
d="M438 557q-99 0 -171 47.5t-105 121.5t-33 165q0 101 27.5 190t73 152t103 109t119.5 68t121 22q97 0 169.5 -48t106.5 -122.5t34 -161.5q0 -104 -27 -194t-72 -153t-103 -108t-120 -66.5t-123 -21.5zM434 598q87 0 157 79t107 208.5t37 281.5q0 108 -40.5 169t-121.5 61
q-87 0 -156 -77t-106 -206t-37 -283q0 -233 160 -233z" />
    <glyph glyph-name="guillemotright" unicode="&#xbb;" horiz-adv-x="784" 
d="M162 911l280 -387l-8 -35l-401 -366h-21l273 403l-144 385h21zM459 911l280 -387l-8 -35l-401 -366h-21l273 403l-144 385h21z" />
    <glyph glyph-name="onequarter" unicode="&#xbc;" horiz-adv-x="1187" 
d="M74 717l4 16l39 10q35 9 45.5 20.5t17.5 51.5l86 481l-90 13l2 14q75 17 126 42t99 67l11 -2l-109 -617q-7 -41 -2 -51.5t35 -18.5l41 -10l-4 -16h-301zM-16 -102l1192 1564h55l-1188 -1564h-59zM770 0l4 18l41 9q26 6 32.5 17t14.5 54l19 107h-287l8 39l426 458h64
l-78 -446h102l-14 -51h-98l-19 -109q-6 -40 0 -53t27 -16l43 -9l-4 -18h-281zM670 256h219l51 285h-4l-266 -283v-2z" />
    <glyph glyph-name="onehalf" unicode="&#xbd;" horiz-adv-x="1187" 
d="M74 717l4 16l39 10q35 9 45.5 20.5t17.5 51.5l86 481l-90 13l2 14q75 17 126 42t99 67l11 -2l-109 -617q-7 -41 -2 -51.5t35 -18.5l41 -10l-4 -16h-301zM-57 -102l1192 1564h55l-1188 -1564h-59zM586 0l12 57q165 124 219 172q191 170 191 326q0 65 -27.5 97t-67.5 32
q-61 0 -71 -59q-6 -44 -22 -65t-50 -21q-59 0 -59 55q0 51 57 87t143 36q108 0 167 -50.5t59 -134.5q0 -65 -27.5 -119.5t-103.5 -114t-127 -91.5t-179 -106q-5 -3 -8 -5v-6h264q38 0 54.5 14t50.5 70h16l-49 -174h-442z" />
    <glyph glyph-name="threequarters" unicode="&#xbe;" horiz-adv-x="1208" 
d="M43 -102l1192 1564h55l-1188 -1564h-59zM791 0l4 18l41 9q26 6 32.5 17t14.5 54l18 107h-287l9 39l426 458h63l-78 -446h103l-15 -51h-98l-18 -109q-6 -40 -0.5 -53t26.5 -16l43 -9l-4 -18h-280zM690 256h219l52 285h-5l-266 -283v-2zM276 707q-102 0 -156 31.5t-54 80.5
q0 26 16 44t43 18q52 0 63 -64q9 -45 27.5 -61.5t63.5 -16.5q65 0 106 57t41 144q0 121 -115 121h-43l6 35h39q75 0 115.5 54.5t40.5 141.5q0 109 -96 109q-33 0 -47 -10.5t-21 -40.5q-12 -50 -28 -68t-50 -18q-25 0 -39 15.5t-14 41.5q0 43 49 78t137 35q115 0 174.5 -47.5
t59.5 -118.5t-54.5 -120.5t-146.5 -64.5v-6q79 -11 122.5 -50t43.5 -103q0 -89 -77 -153t-206 -64z" />
    <glyph glyph-name="questiondown" unicode="&#xbf;" horiz-adv-x="745" 
d="M606 889l-67 -406q-208 -27 -311 -122.5t-103 -235.5q0 -64 21 -114.5t55 -80.5t74 -45.5t81 -15.5q46 0 67 17.5t36 68.5q27 88 94 88q37 0 60.5 -21.5t23.5 -56.5q0 -50 -59 -92.5t-179 -42.5q-101 0 -184.5 39t-136.5 120.5t-53 192.5q0 99 39.5 180t109 136.5
t155.5 90.5t187 50l45 250h45zM715 1174q0 -43 -31 -74t-74 -31t-73.5 31t-30.5 74t30.5 73.5t73.5 30.5t74 -30.5t31 -73.5z" />
    <glyph glyph-name="Agrave" unicode="&#xc0;" horiz-adv-x="1181" 
d="M-115 0l4 18l31 9q44 13 66 28.5t50 58t81 144.5l604 1161h76l159 -1192q7 -52 12 -78.5t11 -49t19 -33.5t27 -19t42 -18l29 -11l-4 -18h-443l4 18l47 13q37 9 54.5 19t27.5 30q17 32 4 139l-38 316h-431l-149 -291q-51 -99 -51 -144q0 -32 20 -46t58 -23l49 -13l-4 -18
h-355zM659 1202l-319 -624h401l-75 624h-7zM950 1495l-8 -16l-350 94q-33 8 -54.5 29t-21.5 47q0 31 21 53t53 22q25 0 61 -22z" />
    <glyph glyph-name="Aacute" unicode="&#xc1;" horiz-adv-x="1181" 
d="M-115 0l4 18l31 9q44 13 66 28.5t50 58t81 144.5l604 1161h76l159 -1192q7 -52 12 -78.5t11 -49t19 -33.5t27 -19t42 -18l29 -11l-4 -18h-443l4 18l47 13q37 9 54.5 19t27.5 30q17 32 4 139l-38 316h-431l-149 -291q-51 -99 -51 -144q0 -32 20 -46t58 -23l49 -13l-4 -18
h-355zM659 1202l-319 -624h401l-75 624h-7zM588 1483l-8 16l299 203q36 22 61 22q35 0 55.5 -21.5t20.5 -53.5q0 -26 -21.5 -47t-54.5 -29z" />
    <glyph glyph-name="Acircumflex" unicode="&#xc2;" horiz-adv-x="1181" 
d="M-115 0l4 18l31 9q44 13 66 28.5t50 58t81 144.5l604 1161h76l159 -1192q7 -52 12 -78.5t11 -49t19 -33.5t27 -19t42 -18l29 -11l-4 -18h-443l4 18l47 13q37 9 54.5 19t27.5 30q17 32 4 139l-38 316h-431l-149 -291q-51 -99 -51 -144q0 -32 20 -46t58 -23l49 -13l-4 -18
h-355zM659 1202l-319 -624h401l-75 624h-7zM487 1479l-8 12l287 242h63l187 -240l-10 -12l-228 114z" />
    <glyph glyph-name="Atilde" unicode="&#xc3;" horiz-adv-x="1181" 
d="M-115 0l4 18l31 9q44 13 66 28.5t50 58t81 144.5l604 1161h76l159 -1192q7 -52 12 -78.5t11 -49t19 -33.5t27 -19t42 -18l29 -11l-4 -18h-443l4 18l47 13q37 9 54.5 19t27.5 30q17 32 4 139l-38 316h-431l-149 -291q-51 -99 -51 -144q0 -32 20 -46t58 -23l49 -13l-4 -18
h-355zM659 1202l-319 -624h401l-75 624h-7zM498 1485l-17 8q50 118 87 163.5t104 45.5q48 0 148.5 -25.5t140.5 -25.5q33 0 59.5 21t56.5 71l19 -8q-48 -111 -89 -158t-106 -47q-47 0 -142.5 24.5t-135.5 24.5q-68 0 -125 -94z" />
    <glyph glyph-name="Adieresis" unicode="&#xc4;" horiz-adv-x="1181" 
d="M-115 0l4 18l31 9q44 13 66 28.5t50 58t81 144.5l604 1161h76l159 -1192q7 -52 12 -78.5t11 -49t19 -33.5t27 -19t42 -18l29 -11l-4 -18h-443l4 18l47 13q37 9 54.5 19t27.5 30q17 32 4 139l-38 316h-431l-149 -291q-51 -99 -51 -144q0 -32 20 -46t58 -23l49 -13l-4 -18
h-355zM659 1202l-319 -624h401l-75 624h-7zM944 1509q-42 0 -71 29t-29 68q0 41 27.5 67.5t70.5 26.5t70.5 -27.5t27.5 -68.5q0 -38 -28 -66.5t-68 -28.5zM600 1509q-42 0 -70 29t-28 68q0 41 27.5 67.5t70.5 26.5q41 0 68.5 -27.5t27.5 -68.5q0 -38 -28 -66.5t-68 -28.5z
" />
    <glyph glyph-name="Aring" unicode="&#xc5;" horiz-adv-x="1181" 
d="M-115 0l4 18l31 9q44 13 66 28.5t50 58t81 144.5l604 1161h76l159 -1192q7 -52 12 -78.5t11 -49t19 -33.5t27 -19t42 -18l29 -11l-4 -18h-443l4 18l47 13q37 9 54.5 19t27.5 30q17 32 4 139l-38 316h-431l-149 -291q-51 -99 -51 -144q0 -32 20 -46t58 -23l49 -13l-4 -18
h-355zM659 1202l-319 -624h401l-75 624h-7zM614 1632q0 66 47 112t117 46t118 -46t48 -112t-47.5 -110.5t-118.5 -44.5q-70 0 -117 44.5t-47 110.5zM662 1632q0 -49 32.5 -82.5t83.5 -33.5q52 0 85.5 34t33.5 82t-34 83.5t-85 35.5t-83.5 -35t-32.5 -84z" />
    <glyph glyph-name="AE" unicode="&#xc6;" horiz-adv-x="1722" 
d="M1718 1419l4 -323h-18q-34 101 -70 168q-13 25 -24.5 41.5t-23 30t-29.5 21t-35 13t-48.5 7.5t-60.5 2.5t-80 0.5q-139 0 -209 -18l-104 -604h110q82 0 129 8.5t68 23.5t39 44q21 39 61 137h19l-84 -465h-19q-6 95 -10 121q-4 27 -11.5 42.5t-19 26t-43 14.5t-64.5 5.5
t-101 1.5h-82l-82 -465q-7 -37 -10.5 -57.5t-4.5 -45.5t-1.5 -36.5t7 -26.5t12 -20t23.5 -12.5t31.5 -9t44.5 -3.5t55.5 -2h71.5q110 0 168 10t88 29.5t66 64.5q78 97 168 250h20l-108 -393h-994l2 16l80 17q47 11 65 29t27 65l68 385h-406l-213 -313q-57 -84 -57 -115
q0 -20 17.5 -30t54.5 -19l65 -17l-2 -18h-383l4 18l33 11q28 8 44.5 14t36.5 20t29.5 22t33 38.5t37 50t51.5 74.5l772 1124l-31 8l-100 21l2 18h921zM948 1313l-516 -758h383l131 735q0 7 4 23h-2z" />
    <glyph glyph-name="Ccedilla" unicode="&#xc7;" horiz-adv-x="1165" 
d="M285 -401q202 44 202 143q0 53 -102 72l-8 16l112 158q-207 29 -319.5 170t-112.5 370q0 253 104 463t282.5 329.5t390.5 119.5q219 0 356 -72l-35 -334h-20q-32 129 -64 209q-37 94 -89 125t-159 31q-136 0 -248 -74.5t-185 -200t-112.5 -288.5t-39.5 -342
q0 -234 97 -355t271 -121q175 0 299 142q63 75 158 252h20l-90 -367q-130 -65 -395 -65q-9 0 -27 1t-26 1l-74 -88q61 -8 102 -39.5t41 -87.5q0 -146 -329 -187v19z" />
    <glyph glyph-name="Egrave" unicode="&#xc8;" horiz-adv-x="1091" 
d="M942 1495l-8 -16l-350 94q-33 8 -54.5 29t-21.5 47q0 31 21 53t53 22q25 0 61 -22zM-43 0l2 16l80 17q46 11 64.5 29t27.5 65l205 1163q9 49 -3.5 66t-58.5 28l-69 17l2 18h901l4 -323h-18q-34 101 -70 168q-13 25 -24.5 41.5t-23 30t-29.5 21t-35 13t-48.5 7.5
t-60.5 2.5t-80 0.5q-139 0 -209 -18l-104 -604h110q82 0 129 8.5t68 23.5t39 44q21 39 61 137h19l-84 -465h-19q-6 95 -10 121q-4 27 -11.5 42.5t-19.5 26t-43 14.5t-64.5 5.5t-101.5 1.5h-82l-82 -465q-6 -37 -10 -57.5t-5 -45.5t-1.5 -36.5t7 -26.5t12.5 -20t23.5 -12.5
t31.5 -9t45 -3.5t55.5 -2h71.5q110 0 168 10t87.5 29.5t65.5 64.5q78 97 168 250h21l-109 -393h-993z" />
    <glyph glyph-name="Eacute" unicode="&#xc9;" horiz-adv-x="1091" 
d="M520 1483l-8 16l299 203q36 22 61 22q35 0 55.5 -21.5t20.5 -53.5q0 -26 -21.5 -47t-54.5 -29zM-63 0l2 16l79 17q47 11 65.5 29.5t27.5 64.5l204 1163q9 49 -3 66t-58 28l-70 17l2 18h901l5 -323h-19q-36 106 -69 168q-18 35 -34.5 55t-35 33.5t-54 19t-71 7t-107.5 1.5
q-138 0 -208 -18l-105 -604h111q82 0 128.5 8.5t67.5 23.5t39 44q25 47 62 137h18l-84 -465h-18q-5 85 -11 121q-4 27 -11.5 42.5t-19 26t-43 14.5t-64.5 5.5t-101 1.5h-82l-82 -465q-7 -37 -10.5 -57.5t-4.5 -45.5t-1.5 -36.5t7 -26.5t12 -20t23.5 -12.5t31.5 -9t44.5 -3.5
t55.5 -2h71.5q110 0 168 10t88 29.5t66 64.5q78 97 168 250h20l-108 -393h-993z" />
    <glyph glyph-name="Ecircumflex" unicode="&#xca;" horiz-adv-x="1091" 
d="M461 1479l-8 12l286 242h64l186 -240l-10 -12l-227 114zM-43 0l2 16l80 17q46 11 64.5 29t27.5 65l205 1163q9 49 -3.5 66t-58.5 28l-69 17l2 18h901l4 -323h-18q-34 101 -70 168q-13 25 -24.5 41.5t-23 30t-29.5 21t-35 13t-48.5 7.5t-60.5 2.5t-80 0.5q-139 0 -209 -18
l-104 -604h110q82 0 129 8.5t68 23.5t39 44q21 39 61 137h19l-84 -465h-19q-6 95 -10 121q-4 27 -11.5 42.5t-19.5 26t-43 14.5t-64.5 5.5t-101.5 1.5h-82l-82 -465q-6 -37 -10 -57.5t-5 -45.5t-1.5 -36.5t7 -26.5t12.5 -20t23.5 -12.5t31.5 -9t45 -3.5t55.5 -2h71.5
q110 0 168 10t87.5 29.5t65.5 64.5q78 97 168 250h21l-109 -393h-993z" />
    <glyph glyph-name="Edieresis" unicode="&#xcb;" horiz-adv-x="1091" 
d="M-43 0l2 16l80 17q46 11 64.5 29t27.5 65l205 1163q9 49 -3.5 66t-58.5 28l-69 17l2 18h901l4 -323h-18q-34 101 -70 168q-13 25 -24.5 41.5t-23 30t-29.5 21t-35 13t-48.5 7.5t-60.5 2.5t-80 0.5q-139 0 -209 -18l-104 -604h110q82 0 129 8.5t68 23.5t39 44
q21 39 61 137h19l-84 -465h-19q-6 95 -10 121q-4 27 -11.5 42.5t-19.5 26t-43 14.5t-64.5 5.5t-101.5 1.5h-82l-82 -465q-6 -37 -10 -57.5t-5 -45.5t-1.5 -36.5t7 -26.5t12.5 -20t23.5 -12.5t31.5 -9t45 -3.5t55.5 -2h71.5q110 0 168 10t87.5 29.5t65.5 64.5q78 97 168 250
h21l-109 -393h-993zM571 1509q-42 0 -70 29t-28 68q0 41 27.5 67.5t70.5 26.5q41 0 69 -27.5t28 -68.5q0 -38 -28.5 -66.5t-68.5 -28.5zM915 1509q-42 0 -71 29t-29 68q0 41 27.5 67.5t70.5 26.5t71 -27.5t28 -68.5q0 -38 -28.5 -66.5t-68.5 -28.5z" />
    <glyph glyph-name="Igrave" unicode="&#xcc;" horiz-adv-x="542" 
d="M121 131l205 1159q9 51 -2 67t-58 27l-82 17l4 18h480l-4 -18l-78 -17q-50 -11 -66.5 -26.5t-25.5 -67.5l-205 -1159q-9 -52 2.5 -69t64.5 -29l66 -15l-4 -18h-481l4 18l88 19q50 13 66.5 28.5t25.5 65.5zM645 1495l-8 -16l-350 94q-33 8 -54.5 29t-21.5 47q0 31 21 53
t53 22q25 0 61 -22z" />
    <glyph glyph-name="Iacute" unicode="&#xcd;" horiz-adv-x="542" 
d="M121 131l205 1159q9 51 -2 67t-58 27l-82 17l4 18h480l-4 -18l-78 -17q-50 -11 -66.5 -26.5t-25.5 -67.5l-205 -1159q-9 -52 2.5 -69t64.5 -29l66 -15l-4 -18h-481l4 18l88 19q50 13 66.5 28.5t25.5 65.5zM264 1483l-8 16l299 203q36 22 61 22q35 0 55.5 -21.5
t20.5 -53.5q0 -26 -21.5 -47t-54.5 -29z" />
    <glyph glyph-name="Icircumflex" unicode="&#xce;" horiz-adv-x="542" 
d="M121 131l205 1159q9 51 -2 67t-58 27l-82 17l4 18h480l-4 -18l-78 -17q-50 -11 -66.5 -26.5t-25.5 -67.5l-205 -1159q-9 -52 2.5 -69t64.5 -29l66 -15l-4 -18h-481l4 18l88 19q50 13 66.5 28.5t25.5 65.5zM170 1479l-8 12l287 242h63l186 -240l-10 -12l-227 114z" />
    <glyph glyph-name="Idieresis" unicode="&#xcf;" horiz-adv-x="542" 
d="M121 131l205 1159q9 51 -2 67t-58 27l-82 17l4 18h480l-4 -18l-78 -17q-50 -11 -66.5 -26.5t-25.5 -67.5l-205 -1159q-9 -52 2.5 -69t64.5 -29l66 -15l-4 -18h-481l4 18l88 19q50 13 66.5 28.5t25.5 65.5zM291 1509q-42 0 -70 29t-28 68q0 41 27.5 67.5t70.5 26.5
q41 0 68.5 -27.5t27.5 -68.5q0 -38 -28 -66.5t-68 -28.5zM635 1509q-42 0 -71 29t-29 68q0 41 27.5 67.5t70.5 26.5t70.5 -27.5t27.5 -68.5q0 -38 -28 -66.5t-68 -28.5z" />
    <glyph glyph-name="Eth" unicode="&#xd0;" horiz-adv-x="1280" 
d="M59 702l9 43h151l96 545q9 49 -3 66t-58 28l-70 17l2 18h508q132 0 235.5 -29t182.5 -90.5t121.5 -166t42.5 -246.5q0 -200 -61.5 -367t-170 -280.5t-259 -176.5t-326.5 -63h-522l2 16l79 17q47 11 65.5 29.5t27.5 64.5l100 575h-152zM459 35q134 0 242 47.5t180.5 128.5
t122 192.5t71 235t21.5 260.5q0 241 -95.5 363t-318.5 122q-112 0 -186 -18l-111 -621h393l-8 -43h-391l-92 -528q-4 -27 -4.5 -47t3 -35t13.5 -25t22 -16.5t34 -10t45.5 -4.5t58.5 -1z" />
    <glyph glyph-name="Ntilde" unicode="&#xd1;" horiz-adv-x="1282" 
d="M578 1485l-17 8q50 118 87 163.5t104 45.5q48 0 148 -25.5t140 -25.5q33 0 60 21t57 71l19 -8q-48 -111 -89 -158t-106 -47q-47 0 -143 24.5t-136 24.5q-67 0 -124 -94zM1004 279l172 964q4 39 5.5 62.5t-13 39.5t-33 25t-56.5 19l-47 12l4 18h367l-4 -18l-56 -15
q-62 -17 -82 -41t-32 -94l-225 -1261h-60l-569 1300h-6l-197 -1114q-13 -74 6 -100.5t90 -44.5l51 -13l-4 -18h-381l5 18l65 15q49 11 75 41t38 94l198 1122q9 49 -3 66t-58 28l-72 17l4 18h314l499 -1140h5z" />
    <glyph glyph-name="Ograve" unicode="&#xd2;" horiz-adv-x="1302" 
d="M979 1495l-8 -16l-350 94q-33 8 -54.5 29t-21.5 47q0 31 20.5 53t52.5 22q26 0 62 -22zM586 -20q-108 0 -203.5 42.5t-165.5 118t-110.5 185t-40.5 237.5q0 150 39.5 287.5t109 243t160.5 184.5t198.5 120.5t217.5 41.5q152 0 267.5 -79t175.5 -214.5t60 -304.5
q0 -184 -59 -346.5t-156.5 -274.5t-226.5 -176.5t-266 -64.5zM594 20q150 0 268.5 114.5t185 320.5t66.5 467q0 477 -323 477q-153 0 -278.5 -117t-197 -321t-71.5 -453q0 -488 350 -488z" />
    <glyph glyph-name="Oacute" unicode="&#xd3;" horiz-adv-x="1302" 
d="M631 1483l-8 16l299 203q36 22 61 22q35 0 55.5 -21.5t20.5 -53.5q0 -26 -21.5 -47t-54.5 -29zM586 -20q-108 0 -203.5 42.5t-165.5 118t-110.5 185t-40.5 237.5q0 150 39.5 287.5t109 243t160.5 184.5t198.5 120.5t217.5 41.5q152 0 267.5 -79t175.5 -214.5t60 -304.5
q0 -184 -59 -346.5t-156.5 -274.5t-226.5 -176.5t-266 -64.5zM594 20q150 0 268.5 114.5t185 320.5t66.5 467q0 477 -323 477q-153 0 -278.5 -117t-197 -321t-71.5 -453q0 -488 350 -488z" />
    <glyph glyph-name="Ocircumflex" unicode="&#xd4;" horiz-adv-x="1302" 
d="M528 1479l-8 12l287 242h63l187 -240l-10 -12l-228 114zM586 -20q-108 0 -203.5 42.5t-165.5 118t-110.5 185t-40.5 237.5q0 150 39.5 287.5t109 243t160.5 184.5t198.5 120.5t217.5 41.5q152 0 267.5 -79t175.5 -214.5t60 -304.5q0 -184 -59 -346.5t-156.5 -274.5
t-226.5 -176.5t-266 -64.5zM594 20q150 0 268.5 114.5t185 320.5t66.5 467q0 477 -323 477q-153 0 -278.5 -117t-197 -321t-71.5 -453q0 -488 350 -488z" />
    <glyph glyph-name="Otilde" unicode="&#xd5;" horiz-adv-x="1302" 
d="M553 1485l-16 8q50 118 86.5 163.5t103.5 45.5q49 0 149 -25.5t140 -25.5q33 0 60 21t57 71l18 -8q-48 -111 -89 -158t-106 -47q-47 0 -142.5 24.5t-135.5 24.5q-68 0 -125 -94zM586 -20q-108 0 -203.5 42.5t-165.5 118t-110.5 185t-40.5 237.5q0 150 39.5 287.5t109 243
t160.5 184.5t198.5 120.5t217.5 41.5q152 0 267.5 -79t175.5 -214.5t60 -304.5q0 -184 -59 -346.5t-156.5 -274.5t-226.5 -176.5t-266 -64.5zM594 20q150 0 268.5 114.5t185 320.5t66.5 467q0 477 -323 477q-153 0 -278.5 -117t-197 -321t-71.5 -453q0 -488 350 -488z" />
    <glyph glyph-name="Odieresis" unicode="&#xd6;" horiz-adv-x="1302" 
d="M653 1509q-42 0 -70 29t-28 68q0 41 27.5 67.5t70.5 26.5q41 0 69 -27.5t28 -68.5q0 -38 -28.5 -66.5t-68.5 -28.5zM997 1509q-42 0 -71 29t-29 68q0 41 27.5 67.5t70.5 26.5t71 -27.5t28 -68.5q0 -38 -28.5 -66.5t-68.5 -28.5zM586 -20q-108 0 -203.5 42.5t-165.5 118
t-110.5 185t-40.5 237.5q0 150 39.5 287.5t109 243t160.5 184.5t198.5 120.5t217.5 41.5q152 0 267.5 -79t175.5 -214.5t60 -304.5q0 -184 -59 -346.5t-156.5 -274.5t-226.5 -176.5t-266 -64.5zM594 20q150 0 268.5 114.5t185 320.5t66.5 467q0 477 -323 477
q-153 0 -278.5 -117t-197 -321t-71.5 -453q0 -488 350 -488z" />
    <glyph glyph-name="multiply" unicode="&#xd7;" horiz-adv-x="851" 
d="M156 1032l299 -317l299 317l37 -37l-302 -319l299 -316l-36 -36l-297 315l-297 -315l-37 36l297 316l-299 319z" />
    <glyph glyph-name="Oslash" unicode="&#xd8;" horiz-adv-x="1302" 
d="M49 -123h-53l215 270q-145 164 -145 416q0 150 39.5 287.5t109 243t160.5 184.5t198.5 120.5t217.5 41.5q200 0 337 -140l154 195h55l-180 -225q137 -170 137 -428q0 -184 -59 -346.5t-156.5 -274.5t-226.5 -176.5t-266 -64.5q-206 0 -346 137zM244 508q0 -162 39 -270
l780 983q-79 178 -272 178q-153 0 -278.5 -117t-197 -321t-71.5 -453zM594 20q150 0 268.5 114.5t185 320.5t66.5 467q0 149 -33 252l-780 -981q83 -173 293 -173z" />
    <glyph glyph-name="Ugrave" unicode="&#xd9;" horiz-adv-x="1273" 
d="M1024 1495l-8 -16l-350 94q-33 8 -54.5 29t-21.5 47q0 31 21 53t53 22q25 0 61 -22zM1055 451l141 792q13 75 -5 101t-91 45l-49 12l4 18h366l-4 -18l-57 -15q-55 -14 -78 -40.5t-35 -94.5l-147 -829q-18 -98 -49.5 -172.5t-86.5 -138t-143 -97.5t-207 -34
q-555 0 -467 507l140 799q9 53 -2.5 70t-59.5 28l-69 17l4 18h477l-4 -18l-88 -17q-48 -9 -65.5 -27.5t-26.5 -70.5l-140 -788q-43 -241 42 -349t294 -108q98 0 170.5 30t118.5 87.5t73.5 128t43.5 164.5z" />
    <glyph glyph-name="Uacute" unicode="&#xda;" horiz-adv-x="1273" 
d="M659 1483l-8 16l299 203q36 22 62 22q35 0 55 -21.5t20 -53.5q0 -26 -21 -47t-54 -29zM1055 451l141 792q13 75 -5 101t-91 45l-49 12l4 18h366l-4 -18l-57 -15q-55 -14 -78 -40.5t-35 -94.5l-147 -829q-18 -98 -49.5 -172.5t-86.5 -138t-143 -97.5t-207 -34
q-555 0 -467 507l140 799q9 53 -2.5 70t-59.5 28l-69 17l4 18h477l-4 -18l-88 -17q-48 -9 -65.5 -27.5t-26.5 -70.5l-140 -788q-43 -241 42 -349t294 -108q98 0 170.5 30t118.5 87.5t73.5 128t43.5 164.5z" />
    <glyph glyph-name="Ucircumflex" unicode="&#xdb;" horiz-adv-x="1273" 
d="M557 1479l-8 12l287 242h63l186 -240l-10 -12l-227 114zM1055 451l141 792q13 75 -5 101t-91 45l-49 12l4 18h366l-4 -18l-57 -15q-55 -14 -78 -40.5t-35 -94.5l-147 -829q-18 -98 -49.5 -172.5t-86.5 -138t-143 -97.5t-207 -34q-555 0 -467 507l140 799q9 53 -2.5 70
t-59.5 28l-69 17l4 18h477l-4 -18l-88 -17q-48 -9 -65.5 -27.5t-26.5 -70.5l-140 -788q-43 -241 42 -349t294 -108q98 0 170.5 30t118.5 87.5t73.5 128t43.5 164.5z" />
    <glyph glyph-name="Udieresis" unicode="&#xdc;" horiz-adv-x="1273" 
d="M1055 451l141 792q13 75 -5 101t-91 45l-49 12l4 18h366l-4 -18l-57 -15q-55 -14 -78 -40.5t-35 -94.5l-147 -829q-18 -98 -49.5 -172.5t-86.5 -138t-143 -97.5t-207 -34q-555 0 -467 507l140 799q9 53 -2.5 70t-59.5 28l-69 17l4 18h477l-4 -18l-88 -17
q-48 -9 -65.5 -27.5t-26.5 -70.5l-140 -788q-43 -241 42 -349t294 -108q98 0 170.5 30t118.5 87.5t73.5 128t43.5 164.5zM684 1509q-42 0 -70 29t-28 68q0 41 27.5 67.5t70.5 26.5q41 0 68.5 -27.5t27.5 -68.5q0 -38 -28 -66.5t-68 -28.5zM1028 1509q-42 0 -71 29t-29 68
q0 41 27.5 67.5t70.5 26.5t70.5 -27.5t27.5 -68.5q0 -38 -28 -66.5t-68 -28.5z" />
    <glyph glyph-name="Yacute" unicode="&#xdd;" horiz-adv-x="1099" 
d="M209 0l4 18l82 17q51 11 69 28t27 66l80 438l-213 684q-24 75 -41.5 99t-58.5 36l-47 15l4 18h458l-4 -18l-82 -21q-21 -5 -33 -10t-23 -18t-11 -33q0 -29 18 -90l176 -596h7l337 541q63 99 66 145q0 24 -14 38t-45 23l-66 21l4 18h375l-4 -18l-35 -12q-41 -15 -60.5 -24
t-45.5 -34.5t-48.5 -58t-66.5 -103.5l-381 -604l-78 -434q-9 -51 5.5 -69t70.5 -29l74 -15l-2 -18h-498zM571 1483l-8 16l299 203q36 22 62 22q35 0 55 -21.5t20 -53.5q0 -26 -21 -47t-54 -29z" />
    <glyph glyph-name="Thorn" unicode="&#xde;" horiz-adv-x="1044" 
d="M444 1071l-165 -940q-10 -50 3 -67.5t68 -28.5l80 -17l-4 -18h-489l4 18l77 19q47 11 66.5 30.5t26.5 65.5l204 1157q9 49 -1 66.5t-58 27.5l-78 17l4 18h475l-4 -18l-78 -17q-49 -9 -66 -26t-26 -68l-28 -160h153q232 0 344.5 -81t112.5 -254q0 -197 -139 -313.5
t-359 -116.5q-85 0 -166 22l5 21q125 -21 221.5 1t154 79t86.5 136t29 175q0 293 -287 293q-92 0 -166 -21z" />
    <glyph glyph-name="germandbls" unicode="&#xdf;" horiz-adv-x="1017" 
d="M506 733q0 49 36 104t87 107.5t102 107.5t87 122t36 133q0 99 -45.5 149.5t-114.5 50.5q-97 0 -169.5 -95t-108.5 -288l-148 -862q-118 -682 -395 -682q-74 0 -116 28t-42 73q0 36 22.5 59.5t61.5 23.5q35 0 55.5 -21.5t34.5 -66.5q8 -27 17.5 -39t25.5 -12q83 0 164 500
l135 846h-131l4 18l138 47l8 39q54 248 168 359.5t287 111.5q131 0 207.5 -59.5t76.5 -153.5q0 -60 -40 -123t-96.5 -114.5t-113.5 -100t-97 -95t-40 -83.5q0 -47 34 -92.5t152 -167.5q84 -88 122 -153.5t38 -135.5q0 -120 -93.5 -204t-229.5 -84q-119 0 -186.5 44
t-67.5 109q0 36 23 58t57 22q42 0 63 -23t33 -81q13 -55 32 -74t68 -19q80 0 129 49.5t49 139.5q0 49 -20.5 92t-49 76t-98.5 106q-97 99 -124 146t-27 108z" />
    <glyph glyph-name="agrave" unicode="&#xe0;" horiz-adv-x="1056" 
d="M242 -20q-97 0 -150 64t-53 173q0 119 29 233.5t77.5 206t112 169.5t133.5 130.5t141.5 81.5t135.5 29q140 0 245 -72h7l81 74l17 -6q-37 -74 -86 -318l-107 -536q-12 -70 -12 -98q0 -49 67 -21q25 10 62 31l57 33l11 -15q-166 -155 -283 -155q-39 0 -61.5 25t-22.5 73
q0 69 45 227h-6q-226 -329 -440 -329zM324 61q75 0 176.5 90.5t191.5 221.5l123 567q-15 42 -51.5 67t-87.5 25q-81 0 -166.5 -69.5t-152 -179.5t-109.5 -257.5t-43 -292.5q0 -172 119 -172zM868 1178l-321 106q-32 10 -48 32.5t-16 49.5q0 31 22.5 54.5t57.5 23.5
q28 0 64 -31l250 -221z" />
    <glyph glyph-name="aacute" unicode="&#xe1;" horiz-adv-x="1056" 
d="M242 -20q-97 0 -150 64t-53 173q0 119 29 233.5t77.5 206t112 169.5t133.5 130.5t141.5 81.5t135.5 29q140 0 245 -72h7l81 74l17 -6q-37 -74 -86 -318l-107 -536q-12 -70 -12 -98q0 -49 67 -21q25 10 62 31l57 33l11 -15q-166 -155 -283 -155q-39 0 -61.5 25t-22.5 73
q0 69 45 227h-6q-226 -329 -440 -329zM324 61q75 0 176.5 90.5t191.5 221.5l123 567q-15 42 -51.5 67t-87.5 25q-81 0 -166.5 -69.5t-152 -179.5t-109.5 -257.5t-43 -292.5q0 -172 119 -172zM897 1278l-322 -100l-8 14l250 215q36 31 64 31q35 0 57.5 -23.5t22.5 -54.5
q0 -27 -16 -49.5t-48 -32.5z" />
    <glyph glyph-name="acircumflex" unicode="&#xe2;" horiz-adv-x="1056" 
d="M242 -20q-97 0 -150 64t-53 173q0 119 29 233.5t77.5 206t112 169.5t133.5 130.5t141.5 81.5t135.5 29q140 0 245 -72h7l81 74l17 -6q-37 -74 -86 -318l-107 -536q-12 -70 -12 -98q0 -49 67 -21q25 10 62 31l57 33l11 -15q-166 -155 -283 -155q-39 0 -61.5 25t-22.5 73
q0 69 45 227h-6q-226 -329 -440 -329zM324 61q75 0 176.5 90.5t191.5 221.5l123 567q-15 42 -51.5 67t-87.5 25q-81 0 -166.5 -69.5t-152 -179.5t-109.5 -257.5t-43 -292.5q0 -172 119 -172zM455 1165l-11 13l283 264h61l158 -268l-12 -11l-197 142z" />
    <glyph glyph-name="atilde" unicode="&#xe3;" horiz-adv-x="1056" 
d="M242 -20q-97 0 -150 64t-53 173q0 119 29 233.5t77.5 206t112 169.5t133.5 130.5t141.5 81.5t135.5 29q140 0 245 -72h7l81 74l17 -6q-37 -74 -86 -318l-107 -536q-12 -70 -12 -98q0 -49 67 -21q25 10 62 31l57 33l11 -15q-166 -155 -283 -155q-39 0 -61.5 25t-22.5 73
q0 69 45 227h-6q-226 -329 -440 -329zM324 61q75 0 176.5 90.5t191.5 221.5l123 567q-15 42 -51.5 67t-87.5 25q-81 0 -166.5 -69.5t-152 -179.5t-109.5 -257.5t-43 -292.5q0 -172 119 -172zM455 1180l-17 6q48 114 86.5 158.5t106.5 44.5q48 0 124.5 -30t116.5 -30
q60 0 121 101l19 -7q-48 -112 -87 -157t-104 -45q-47 0 -124 31.5t-117 31.5q-62 0 -125 -104z" />
    <glyph glyph-name="adieresis" unicode="&#xe4;" horiz-adv-x="1056" 
d="M242 -20q-97 0 -150 64t-53 173q0 119 29 233.5t77.5 206t112 169.5t133.5 130.5t141.5 81.5t135.5 29q140 0 245 -72h7l81 74l17 -6q-37 -74 -86 -318l-107 -536q-12 -70 -12 -98q0 -49 67 -21q25 10 62 31l57 33l11 -15q-166 -155 -283 -155q-39 0 -61.5 25t-22.5 73
q0 69 45 227h-6q-226 -329 -440 -329zM324 61q75 0 176.5 90.5t191.5 221.5l123 567q-15 42 -51.5 67t-87.5 25q-81 0 -166.5 -69.5t-152 -179.5t-109.5 -257.5t-43 -292.5q0 -172 119 -172zM543 1210q-43 0 -73 30t-30 69q0 42 29 70t72 28t71.5 -28.5t28.5 -69.5t-28 -70
t-70 -29zM893 1210q-43 0 -72.5 30t-29.5 69q0 43 28.5 70.5t71.5 27.5q44 0 72 -28t28 -70q0 -41 -28 -70t-70 -29z" />
    <glyph glyph-name="aring" unicode="&#xe5;" horiz-adv-x="1056" 
d="M242 -20q-97 0 -150 64t-53 173q0 119 29 233.5t77.5 206t112 169.5t133.5 130.5t141.5 81.5t135.5 29q140 0 245 -72h7l81 74l17 -6q-37 -74 -86 -318l-107 -536q-12 -70 -12 -98q0 -49 67 -21q25 10 62 31l57 33l11 -15q-166 -155 -283 -155q-39 0 -61.5 25t-22.5 73
q0 69 45 227h-6q-226 -329 -440 -329zM324 61q75 0 176.5 90.5t191.5 221.5l123 567q-15 42 -51.5 67t-87.5 25q-81 0 -166.5 -69.5t-152 -179.5t-109.5 -257.5t-43 -292.5q0 -172 119 -172zM535 1339q0 67 46.5 112.5t116.5 45.5t118 -46t48 -112t-47.5 -110.5
t-118.5 -44.5q-70 0 -116.5 44.5t-46.5 110.5zM582 1339q0 -49 32.5 -82.5t83.5 -33.5q52 0 85.5 34t33.5 82t-34 83.5t-85 35.5t-83.5 -35t-32.5 -84z" />
    <glyph glyph-name="ae" unicode="&#xe6;" horiz-adv-x="1423" 
d="M874 -20q-109 0 -183 53.5t-99 146.5q-147 -200 -330 -200q-106 0 -167.5 57.5t-61.5 157.5q0 55 16.5 97.5t53.5 75.5t82.5 57t118 43.5t145.5 33.5t178 30l30 191q23 158 -18 232.5t-156 74.5q-55 0 -85 -20.5t-40 -65.5q-16 -65 -38 -92t-66 -27q-35 0 -54.5 19
t-19.5 53q0 79 86.5 124.5t210.5 45.5q160 0 236.5 -68.5t66.5 -210.5q87 128 192.5 203.5t219.5 75.5q111 0 171 -49t60 -131q0 -133 -153 -220.5t-496 -148.5q-33 -125 -33 -235q0 -112 50 -175t135 -63q91 0 167.5 41t170.5 125l14 -16q-74 -91 -179 -153t-225 -62z
M326 47q130 0 260 166q-4 16 -4 55q0 118 32 230q-244 -47 -336 -106t-92 -181q0 -164 140 -164zM1167 1030q-92 0 -208.5 -142.5t-176.5 -338.5q148 29 241.5 62.5t147.5 82.5q91 81 91 207q0 129 -95 129z" />
    <glyph glyph-name="ccedilla" unicode="&#xe7;" horiz-adv-x="851" 
d="M29 -401q202 44 202 143q0 53 -102 72l-8 16l115 160q-97 23 -148 99t-51 196q0 152 56 298.5t144.5 251t200 168.5t219.5 64q99 0 155 -38.5t56 -100.5q0 -38 -23.5 -65t-60.5 -27q-50 0 -71 28.5t-33 106.5q-9 55 -55 55q-102 0 -201 -107.5t-161 -281t-62 -354.5
q0 -236 182 -236q67 0 127 24.5t100.5 56.5t102.5 91l14 -16q-83 -104 -179.5 -163.5t-221.5 -59.5q-6 0 -18.5 1t-18.5 1l-74 -88q61 -8 102 -39.5t41 -87.5q0 -146 -329 -187v19z" />
    <glyph glyph-name="egrave" unicode="&#xe8;" horiz-adv-x="884" 
d="M336 -20q-145 0 -221 83.5t-76 225.5q0 137 54 279t139 251t196 178.5t217 69.5q117 0 178.5 -52t61.5 -132q0 -129 -163.5 -238.5t-496.5 -169.5q-22 -99 -22 -192q0 -112 49.5 -175t134.5 -63q91 0 167.5 41t170.5 125l14 -16q-74 -91 -178.5 -153t-224.5 -62z
M629 1030q-98 0 -221 -157t-177 -365q276 55 396 166q47 42 71.5 104t24.5 121q0 131 -94 131zM817 1178l-321 106q-32 10 -48 32.5t-16 49.5q0 31 22.5 54.5t57.5 23.5q27 0 63 -31l250 -221z" />
    <glyph glyph-name="eacute" unicode="&#xe9;" horiz-adv-x="884" 
d="M336 -20q-145 0 -221 83.5t-76 225.5q0 137 54 279t139 251t196 178.5t217 69.5q117 0 178.5 -52t61.5 -132q0 -129 -163.5 -238.5t-496.5 -169.5q-22 -99 -22 -192q0 -112 49.5 -175t134.5 -63q91 0 167.5 41t170.5 125l14 -16q-74 -91 -178.5 -153t-224.5 -62z
M629 1030q-98 0 -221 -157t-177 -365q276 55 396 166q47 42 71.5 104t24.5 121q0 131 -94 131zM842 1278l-322 -100l-8 14l250 215q36 31 63 31q35 0 57.5 -23.5t22.5 -54.5q0 -62 -63 -82z" />
    <glyph glyph-name="ecircumflex" unicode="&#xea;" horiz-adv-x="884" 
d="M336 -20q-145 0 -221 83.5t-76 225.5q0 137 54 279t139 251t196 178.5t217 69.5q117 0 178.5 -52t61.5 -132q0 -129 -163.5 -238.5t-496.5 -169.5q-22 -99 -22 -192q0 -112 49.5 -175t134.5 -63q91 0 167.5 41t170.5 125l14 -16q-74 -91 -178.5 -153t-224.5 -62z
M629 1030q-98 0 -221 -157t-177 -365q276 55 396 166q47 42 71.5 104t24.5 121q0 131 -94 131zM397 1165l-10 13l283 264h61l158 -268l-12 -11l-197 142z" />
    <glyph glyph-name="edieresis" unicode="&#xeb;" horiz-adv-x="884" 
d="M336 -20q-145 0 -221 83.5t-76 225.5q0 137 54 279t139 251t196 178.5t217 69.5q117 0 178.5 -52t61.5 -132q0 -129 -163.5 -238.5t-496.5 -169.5q-22 -99 -22 -192q0 -112 49.5 -175t134.5 -63q91 0 167.5 41t170.5 125l14 -16q-74 -91 -178.5 -153t-224.5 -62z
M629 1030q-98 0 -221 -157t-177 -365q276 55 396 166q47 42 71.5 104t24.5 121q0 131 -94 131zM846 1210q-43 0 -73 30t-30 69q0 42 29 70t72 28q44 0 72 -28t28 -70q0 -41 -28 -70t-70 -29zM496 1210q-43 0 -73 30t-30 69q0 42 29 70t72 28t71.5 -28.5t28.5 -69.5t-28 -70
t-70 -29z" />
    <glyph glyph-name="igrave" unicode="&#xec;" horiz-adv-x="512" 
d="M166 -16q-43 0 -64.5 26t-21.5 66q0 43 24 147l138 611q12 56 12 92q0 19 -10 27.5t-37 1t-70 -36.5l-57 -39l-10 14q174 174 270 174q37 0 60.5 -22.5t23.5 -59.5q0 -20 -4.5 -47.5t-17.5 -84t-17 -75.5l-129 -567q-16 -83 -16 -102q0 -20 13 -27.5t44 1.5t76 36l57 35
l10 -15q-161 -155 -274 -155zM516 1178l-321 106q-32 10 -48 32.5t-16 49.5q0 31 22.5 54.5t57.5 23.5q27 0 63 -31l250 -221z" />
    <glyph glyph-name="iacute" unicode="&#xed;" horiz-adv-x="512" 
d="M543 1278l-322 -100l-8 14l250 215q36 31 63 31q35 0 57.5 -23.5t22.5 -54.5q0 -62 -63 -82zM166 -16q-43 0 -64.5 26t-21.5 66q0 43 24 147l138 611q12 56 12 92q0 19 -10 27.5t-37 1t-70 -36.5l-57 -39l-10 14q174 174 270 174q37 0 60.5 -22.5t23.5 -59.5
q0 -20 -4.5 -47.5t-17.5 -84t-17 -75.5l-129 -567q-16 -83 -16 -102q0 -20 13 -27.5t44 1.5t76 36l57 35l10 -15q-161 -155 -274 -155z" />
    <glyph glyph-name="icircumflex" unicode="&#xee;" horiz-adv-x="512" 
d="M102 1165l-10 13l283 264h61l158 -268l-12 -11l-197 142zM166 -16q-43 0 -64.5 26t-21.5 66q0 43 24 147l138 611q12 56 12 92q0 19 -10 27.5t-37 1t-70 -36.5l-57 -39l-10 14q174 174 270 174q37 0 60.5 -22.5t23.5 -59.5q0 -20 -4.5 -47.5t-17.5 -84t-17 -75.5
l-129 -567q-16 -83 -16 -102q0 -20 13 -27.5t44 1.5t76 36l57 35l10 -15q-161 -155 -274 -155z" />
    <glyph glyph-name="idieresis" unicode="&#xef;" horiz-adv-x="512" 
d="M199 1210q-43 0 -73 30t-30 69q0 42 29 70t72 28t71.5 -28.5t28.5 -69.5t-28 -70t-70 -29zM549 1210q-43 0 -73 30t-30 69q0 42 29 70t72 28q44 0 72 -28t28 -70q0 -41 -28 -70t-70 -29zM166 -16q-43 0 -64.5 26t-21.5 66q0 43 24 147l138 611q12 56 12 92q0 19 -10 27.5
t-37 1t-70 -36.5l-57 -39l-10 14q174 174 270 174q37 0 60.5 -22.5t23.5 -59.5q0 -20 -4.5 -47.5t-17.5 -84t-17 -75.5l-129 -567q-16 -83 -16 -102q0 -20 13 -27.5t44 1.5t76 36l57 35l10 -15q-161 -155 -274 -155z" />
    <glyph glyph-name="eth" unicode="&#xf0;" horiz-adv-x="1009" 
d="M340 1214l-16 33l229 103q-98 101 -240 178l6 16q179 -66 306 -162l237 109l12 -33l-217 -100q308 -251 308 -643q0 -215 -69.5 -382.5t-194.5 -260t-285 -92.5q-120 0 -206.5 60t-126.5 153.5t-40 207.5q0 161 48.5 292t126.5 210.5t170.5 121.5t186.5 42q121 0 187 -66
q-57 181 -184 322zM420 16q73 0 141.5 53t121 144.5t84.5 223.5t32 280q0 147 -53.5 230t-153.5 83q-105 0 -194 -96.5t-140 -259t-51 -350.5q0 -308 213 -308z" />
    <glyph glyph-name="ntilde" unicode="&#xf1;" horiz-adv-x="1079" 
d="M745 -16q-79 0 -79 84q0 57 24 155l105 463q26 113 30.5 174.5t-10 87t-51.5 25.5q-38 0 -88 -28t-107 -80t-103.5 -100t-103.5 -112l-145 -653h-156l177 834q12 62 12 92q0 19 -9.5 27.5t-37 1.5t-70.5 -37l-57 -39l-10 14q169 174 270 174q30 0 52 -20.5t22 -57.5
q0 -56 -50 -284h5q70 83 125 141t116.5 112t118.5 81.5t109 27.5q74 0 111.5 -45.5t37.5 -128.5q0 -61 -37 -219l-104 -463q-17 -82 -17 -102q0 -63 133 12l58 33l10 -15q-97 -89 -161.5 -122t-119.5 -33zM432 1180l-16 6q49 115 86.5 159t105.5 44q48 0 125 -30t117 -30
q60 0 121 101l18 -7q-48 -113 -86.5 -157.5t-103.5 -44.5q-47 0 -124.5 31.5t-117.5 31.5q-62 0 -125 -104z" />
    <glyph glyph-name="ograve" unicode="&#xf2;" horiz-adv-x="1005" 
d="M403 -20q-158 0 -259 117t-101 294q0 104 24.5 199t66.5 167.5t97 132t117 98t126.5 59t125.5 20.5q160 0 261.5 -117.5t101.5 -294.5q0 -128 -34.5 -240t-91.5 -190t-130.5 -134.5t-151 -83.5t-152.5 -27zM403 16q106 0 198 96.5t145 258.5t53 348q0 160 -49 235.5
t-150 75.5q-103 0 -193.5 -93t-145 -255.5t-54.5 -353.5q0 -160 48.5 -236t147.5 -76zM784 1178l-321 106q-32 10 -48 32.5t-16 49.5q0 31 22.5 54.5t57.5 23.5q28 0 64 -31l250 -221z" />
    <glyph glyph-name="oacute" unicode="&#xf3;" horiz-adv-x="1005" 
d="M817 1278l-321 -100l-9 14l250 215q36 31 64 31q35 0 57.5 -23.5t22.5 -54.5q0 -27 -16 -49.5t-48 -32.5zM403 -20q-158 0 -259 117t-101 294q0 104 24.5 199t66.5 167.5t97 132t117 98t126.5 59t125.5 20.5q160 0 261.5 -117.5t101.5 -294.5q0 -128 -34.5 -240
t-91.5 -190t-130.5 -134.5t-151 -83.5t-152.5 -27zM403 16q106 0 198 96.5t145 258.5t53 348q0 160 -49 235.5t-150 75.5q-103 0 -193.5 -93t-145 -255.5t-54.5 -353.5q0 -160 48.5 -236t147.5 -76z" />
    <glyph glyph-name="ocircumflex" unicode="&#xf4;" horiz-adv-x="1005" 
d="M379 1165l-10 13l282 264h62l157 -268l-12 -11l-196 142zM403 -20q-158 0 -259 117t-101 294q0 104 24.5 199t66.5 167.5t97 132t117 98t126.5 59t125.5 20.5q160 0 261.5 -117.5t101.5 -294.5q0 -128 -34.5 -240t-91.5 -190t-130.5 -134.5t-151 -83.5t-152.5 -27z
M403 16q106 0 198 96.5t145 258.5t53 348q0 160 -49 235.5t-150 75.5q-103 0 -193.5 -93t-145 -255.5t-54.5 -353.5q0 -160 48.5 -236t147.5 -76z" />
    <glyph glyph-name="otilde" unicode="&#xf5;" horiz-adv-x="1005" 
d="M403 -20q-158 0 -259 117t-101 294q0 104 24.5 199t66.5 167.5t97 132t117 98t126.5 59t125.5 20.5q160 0 261.5 -117.5t101.5 -294.5q0 -128 -34.5 -240t-91.5 -190t-130.5 -134.5t-151 -83.5t-152.5 -27zM403 16q106 0 198 96.5t145 258.5t53 348q0 160 -49 235.5
t-150 75.5q-103 0 -193.5 -93t-145 -255.5t-54.5 -353.5q0 -160 48.5 -236t147.5 -76zM381 1180l-16 6q49 115 86.5 159t105.5 44q49 0 126 -30t116 -30q60 0 121 101l18 -7q-48 -113 -86.5 -157.5t-103.5 -44.5q-47 0 -124.5 31.5t-117.5 31.5q-62 0 -125 -104z" />
    <glyph glyph-name="odieresis" unicode="&#xf6;" horiz-adv-x="1005" 
d="M475 1210q-43 0 -72.5 30t-29.5 69q0 43 28.5 70.5t71.5 27.5t71.5 -28.5t28.5 -69.5t-28 -70t-70 -29zM825 1210q-43 0 -72.5 30t-29.5 69q0 43 28.5 70.5t71.5 27.5q44 0 72.5 -28t28.5 -70q0 -40 -28.5 -69.5t-70.5 -29.5zM403 -20q-158 0 -259 117t-101 294
q0 104 24.5 199t66.5 167.5t97 132t117 98t126.5 59t125.5 20.5q160 0 261.5 -117.5t101.5 -294.5q0 -128 -34.5 -240t-91.5 -190t-130.5 -134.5t-151 -83.5t-152.5 -27zM403 16q106 0 198 96.5t145 258.5t53 348q0 160 -49 235.5t-150 75.5q-103 0 -193.5 -93t-145 -255.5
t-54.5 -353.5q0 -160 48.5 -236t147.5 -76z" />
    <glyph glyph-name="divide" unicode="&#xf7;" horiz-adv-x="870" 
d="M90 672v49h739v-49h-739zM457 260q-42 0 -73.5 33t-31.5 76q0 45 31 75.5t74 30.5q42 0 73 -30.5t31 -75.5q0 -43 -31.5 -76t-72.5 -33zM457 913q-42 0 -73.5 32.5t-31.5 74.5q0 46 30.5 76t74.5 30q42 0 73 -30t31 -76q0 -42 -31.5 -74.5t-72.5 -32.5z" />
    <glyph glyph-name="oslash" unicode="&#xf8;" horiz-adv-x="1005" 
d="M6 -125l150 209q-113 116 -113 307q0 104 24.5 199t66.5 167.5t97 132t117 98t126.5 59t125.5 20.5q116 0 209 -70l109 150h49l-127 -176q123 -120 123 -316q0 -128 -34.5 -240t-91.5 -190t-130.5 -134.5t-151 -83.5t-152.5 -27q-125 0 -219 75l-129 -180h-49zM403 16
q106 0 198 96.5t145 258.5t53 348q0 95 -19 166l-542 -756q45 -113 165 -113zM207 328q0 -95 14 -152l541 754q-46 100 -162 100q-103 0 -193.5 -93t-145 -255.5t-54.5 -353.5z" />
    <glyph glyph-name="ugrave" unicode="&#xf9;" horiz-adv-x="1046" 
d="M805 1178l-322 106q-63 20 -63 82q0 31 22.5 54.5t57.5 23.5q27 0 63 -31l250 -221zM244 -20q-68 0 -114 43t-46 129q0 82 31 208l110 486q1 8 4.5 22.5t5 26.5t1.5 25q0 21 -13 29t-40 0.5t-64 -31.5l-58 -39l-10 14q98 98 157.5 136t104.5 38q84 0 84 -92
q0 -23 -2.5 -46.5t-5 -35.5l-10 -48t-10.5 -50l-97 -430q-36 -172 -25 -235.5t66 -63.5q134 0 387 317l140 651h153l-174 -823q-14 -72 -14 -94q0 -69 129 4l57 33l10 -15q-91 -87 -155.5 -121t-120.5 -34q-37 0 -59.5 24t-22.5 68q0 74 51 243h-4q-141 -178 -243 -258.5
t-203 -80.5z" />
    <glyph glyph-name="uacute" unicode="&#xfa;" horiz-adv-x="1046" 
d="M834 1278l-322 -100l-8 14l250 215q36 31 63 31q35 0 57.5 -23.5t22.5 -54.5q0 -62 -63 -82zM244 -20q-68 0 -114 43t-46 129q0 82 31 208l110 486q1 8 4.5 22.5t5 26.5t1.5 25q0 21 -13 29t-40 0.5t-64 -31.5l-58 -39l-10 14q98 98 157.5 136t104.5 38q84 0 84 -92
q0 -23 -2.5 -46.5t-5 -35.5l-10 -48t-10.5 -50l-97 -430q-36 -172 -25 -235.5t66 -63.5q134 0 387 317l140 651h153l-174 -823q-14 -72 -14 -94q0 -69 129 4l57 33l10 -15q-91 -87 -155.5 -121t-120.5 -34q-37 0 -59.5 24t-22.5 68q0 74 51 243h-4q-141 -178 -243 -258.5
t-203 -80.5z" />
    <glyph glyph-name="ucircumflex" unicode="&#xfb;" horiz-adv-x="1046" 
d="M387 1165l-10 13l282 264h62l158 -268l-13 -11l-196 142zM244 -20q-68 0 -114 43t-46 129q0 82 31 208l110 486q1 8 4.5 22.5t5 26.5t1.5 25q0 21 -13 29t-40 0.5t-64 -31.5l-58 -39l-10 14q98 98 157.5 136t104.5 38q84 0 84 -92q0 -23 -2.5 -46.5t-5 -35.5l-10 -48
t-10.5 -50l-97 -430q-36 -172 -25 -235.5t66 -63.5q134 0 387 317l140 651h153l-174 -823q-14 -72 -14 -94q0 -69 129 4l57 33l10 -15q-91 -87 -155.5 -121t-120.5 -34q-37 0 -59.5 24t-22.5 68q0 74 51 243h-4q-141 -178 -243 -258.5t-203 -80.5z" />
    <glyph glyph-name="udieresis" unicode="&#xfc;" horiz-adv-x="1046" 
d="M485 1210q-43 0 -72.5 30t-29.5 69q0 43 28.5 70.5t71.5 27.5t72 -28.5t29 -69.5q0 -40 -28.5 -69.5t-70.5 -29.5zM836 1210q-43 0 -73 30t-30 69q0 42 29 70t72 28q44 0 72 -28t28 -70q0 -41 -28 -70t-70 -29zM244 -20q-68 0 -114 43t-46 129q0 82 31 208l110 486
q1 8 4.5 22.5t5 26.5t1.5 25q0 21 -13 29t-40 0.5t-64 -31.5l-58 -39l-10 14q98 98 157.5 136t104.5 38q84 0 84 -92q0 -23 -2.5 -46.5t-5 -35.5l-10 -48t-10.5 -50l-97 -430q-36 -172 -25 -235.5t66 -63.5q134 0 387 317l140 651h153l-174 -823q-14 -72 -14 -94
q0 -69 129 4l57 33l10 -15q-91 -87 -155.5 -121t-120.5 -34q-37 0 -59.5 24t-22.5 68q0 74 51 243h-4q-141 -178 -243 -258.5t-203 -80.5z" />
    <glyph glyph-name="yacute" unicode="&#xfd;" horiz-adv-x="905" 
d="M389 829q41 -280 68 -731h6q174 233 273.5 423.5t99.5 279.5q0 28 -15 51t-33.5 36.5t-33.5 37.5t-15 53q0 38 24.5 63t61.5 25q44 0 71.5 -29t27.5 -82q0 -170 -122.5 -399.5t-344.5 -531.5q-188 -257 -308 -353t-241 -96q-61 0 -97 28.5t-36 73.5q0 39 27 65t69 26
q29 0 50 -17t31.5 -37.5t25.5 -37.5t34 -17q52 0 124 58.5t183 193.5q-39 565 -88 881q-10 63 -19 96t-24 49.5t-35 11.5t-53 -28l-61 -43l-10 14q83 95 135.5 134.5t103.5 39.5q55 0 78 -50t43 -188zM754 1278l-322 -100l-8 14l250 215q36 31 63 31q35 0 57.5 -23.5
t22.5 -54.5q0 -62 -63 -82z" />
    <glyph glyph-name="thorn" unicode="&#xfe;" horiz-adv-x="1048" 
d="M336 707h4q254 360 459 360q102 0 156.5 -77t54.5 -216q0 -176 -53.5 -329t-139 -252.5t-190.5 -156t-211 -56.5q-135 0 -213 38q-4 -47 -23 -145l-24 -127q-12 -64 -3.5 -84t54.5 -29l86 -18l-2 -16h-459l4 16l78 18q42 10 57.5 31.5t26.5 81.5l315 1620q9 45 -3.5 66
t-61.5 41l-74 30l2 13l322 30l8 -6q-24 -109 -51 -248l-68 -354q-34 -182 -51 -231zM420 14q114 0 211.5 99.5t155 271t57.5 371.5q0 118 -26.5 173.5t-82.5 55.5q-143 0 -403 -338l-103 -522q57 -111 191 -111z" />
    <glyph glyph-name="ydieresis" unicode="&#xff;" horiz-adv-x="905" 
d="M389 829q41 -280 68 -731h6q174 233 273.5 423.5t99.5 279.5q0 28 -15 51t-33.5 36.5t-33.5 37.5t-15 53q0 38 24.5 63t61.5 25q44 0 71.5 -29t27.5 -82q0 -170 -122.5 -399.5t-344.5 -531.5q-188 -257 -308 -353t-241 -96q-61 0 -97 28.5t-36 73.5q0 39 27 65t69 26
q29 0 50 -17t31.5 -37.5t25.5 -37.5t34 -17q52 0 124 58.5t183 193.5q-39 565 -88 881q-10 63 -19 96t-24 49.5t-35 11.5t-53 -28l-61 -43l-10 14q83 95 135.5 134.5t103.5 39.5q55 0 78 -50t43 -188zM754 1210q-43 0 -73 30t-30 69q0 42 29 70t72 28q44 0 72 -28t28 -70
q0 -41 -28 -70t-70 -29zM403 1210q-43 0 -72.5 30t-29.5 69q0 43 28.5 70.5t71.5 27.5t72 -28.5t29 -69.5q0 -40 -28.5 -69.5t-70.5 -29.5z" />
    <glyph glyph-name="Amacron" unicode="&#x100;" horiz-adv-x="1181" 
d="M-115 0l4 18l31 9q44 13 66 28.5t50 58t81 144.5l604 1161h76l159 -1192q7 -52 12 -78.5t11 -49t19 -33.5t27 -19t42 -18l29 -11l-4 -18h-443l4 18l47 13q37 9 54.5 19t27.5 30q17 32 4 139l-38 316h-431l-149 -291q-51 -99 -51 -144q0 -32 20 -46t58 -23l49 -13l-4 -18
h-355zM659 1202l-319 -624h401l-75 624h-7zM516 1544l14 78h510l-16 -78h-508z" />
    <glyph glyph-name="amacron" unicode="&#x101;" horiz-adv-x="1056" 
d="M242 -20q-97 0 -150 64t-53 173q0 119 29 233.5t77.5 206t112 169.5t133.5 130.5t141.5 81.5t135.5 29q140 0 245 -72h7l81 74l17 -6q-37 -74 -86 -318l-107 -536q-12 -70 -12 -98q0 -49 67 -21q25 10 62 31l57 33l11 -15q-166 -155 -283 -155q-39 0 -61.5 25t-22.5 73
q0 69 45 227h-6q-226 -329 -440 -329zM324 61q75 0 176.5 90.5t191.5 221.5l123 567q-15 42 -51.5 67t-87.5 25q-81 0 -166.5 -69.5t-152 -179.5t-109.5 -257.5t-43 -292.5q0 -172 119 -172zM469 1233l14 78h459l-12 -78h-461z" />
    <glyph glyph-name="Abreve" unicode="&#x102;" horiz-adv-x="1181" 
d="M-115 0l4 18l31 9q44 13 66 28.5t50 58t81 144.5l604 1161h76l159 -1192q7 -52 12 -78.5t11 -49t19 -33.5t27 -19t42 -18l29 -11l-4 -18h-443l4 18l47 13q37 9 54.5 19t27.5 30q17 32 4 139l-38 316h-431l-149 -291q-51 -99 -51 -144q0 -32 20 -46t58 -23l49 -13l-4 -18
h-355zM659 1202l-319 -624h401l-75 624h-7zM762 1499q-112 0 -161.5 66.5t-47.5 173.5l14 4q15 -63 68 -97t133 -34q86 0 148 36t81 95l15 -4q-10 -107 -71.5 -173.5t-178.5 -66.5z" />
    <glyph glyph-name="abreve" unicode="&#x103;" horiz-adv-x="1056" 
d="M242 -20q-97 0 -150 64t-53 173q0 119 29 233.5t77.5 206t112 169.5t133.5 130.5t141.5 81.5t135.5 29q140 0 245 -72h7l81 74l17 -6q-37 -74 -86 -318l-107 -536q-12 -70 -12 -98q0 -49 67 -21q25 10 62 31l57 33l11 -15q-166 -155 -283 -155q-39 0 -61.5 25t-22.5 73
q0 69 45 227h-6q-226 -329 -440 -329zM324 61q75 0 176.5 90.5t191.5 221.5l123 567q-15 42 -51.5 67t-87.5 25q-81 0 -166.5 -69.5t-152 -179.5t-109.5 -257.5t-43 -292.5q0 -172 119 -172zM692 1188q-202 0 -198 235l14 2q30 -127 190 -127q85 0 143 34t77 93l14 -2
q-10 -106 -68.5 -170.5t-171.5 -64.5z" />
    <glyph glyph-name="Aogonek" unicode="&#x104;" horiz-adv-x="1181" 
d="M813 0l-65 535h-431l-149 -291q-51 -99 -51 -144q0 -32 20 -46t58 -23l49 -13l-4 -18h-355l4 18l31 9q44 13 66 28.5t50 58t81 144.5l604 1161h76l159 -1190q6 -44 9.5 -67.5t10 -46.5t12 -33t18 -21.5t25.5 -17t36 -14.5l29 -11l-4 -18h-117q-75 0 -136.5 -25t-98 -64
t-56.5 -83.5t-20 -87.5q0 -96 90 -96q35 0 80 18l-3 -18q-30 -28 -71.5 -46t-73.5 -18q-67 0 -103 38t-36 97q0 46 23.5 91t63.5 81t85 64t94 49zM666 1202h-7l-319 -624h401z" />
    <glyph glyph-name="aogonek" unicode="&#x105;" horiz-adv-x="1056" 
d="M639 -420q-61 0 -99 34.5t-38 90.5q0 41 28 85.5t73 83t82.5 65t74.5 47.5l-33 -2q-39 0 -61.5 24.5t-22.5 73.5q0 69 45 227h-6q-226 -329 -440 -329q-97 0 -150 64t-53 173q0 119 29 233.5t77.5 206t112 169.5t133.5 130.5t141.5 81.5t135.5 29q140 0 245 -72h7l81 74
l17 -6q-37 -74 -86 -318l-107 -536q-12 -70 -12 -98q0 -49 67 -21q25 10 62 31l57 33l11 -15q-35 -30 -100 -79t-68 -52q-9 -7 -38 -29t-40.5 -31t-36.5 -29.5t-36 -32.5t-28 -32.5t-25 -36.5t-14 -36.5t-6 -40.5q0 -96 89 -96q36 0 81 18l-4 -20q-29 -28 -71 -45t-74 -17z
M324 61q75 0 176.5 90.5t191.5 221.5l123 567q-15 42 -51.5 67t-87.5 25q-81 0 -166.5 -69.5t-152 -179.5t-109.5 -257.5t-43 -292.5q0 -172 119 -172z" />
    <glyph glyph-name="Cacute" unicode="&#x106;" horiz-adv-x="1165" 
d="M598 -20q-257 0 -399 145t-142 403q0 253 104 463t282.5 329.5t390.5 119.5q219 0 356 -72l-35 -334h-20q-32 129 -64 209q-37 94 -89 125t-159 31q-136 0 -248 -74.5t-185 -200t-112.5 -288.5t-39.5 -342q0 -234 97 -355t271 -121q175 0 299 142q63 75 158 252h20
l-90 -367q-130 -65 -395 -65zM645 1483l-8 16l299 203q36 22 61 22q35 0 55.5 -21.5t20.5 -53.5q0 -26 -21.5 -47t-54.5 -29z" />
    <glyph glyph-name="cacute" unicode="&#x107;" horiz-adv-x="851" 
d="M856 1278l-321 -100l-9 14l250 215q36 31 64 31q35 0 57.5 -23.5t22.5 -54.5q0 -27 -16 -49.5t-48 -32.5zM326 -20q-139 0 -214 80t-75 225q0 152 56 298.5t144.5 251t200 168.5t219.5 64q99 0 155 -38.5t56 -100.5q0 -38 -23.5 -65t-60.5 -27q-50 0 -71 28.5t-33 106.5
q-9 55 -55 55q-102 0 -201 -107.5t-161 -281t-62 -354.5q0 -236 182 -236q67 0 127 24.5t100.5 56.5t102.5 91l14 -16q-83 -104 -179.5 -163.5t-221.5 -59.5z" />
    <glyph glyph-name="Ccircumflex" unicode="&#x108;" horiz-adv-x="1165" 
d="M543 1479l-8 12l286 242h64l186 -240l-10 -12l-227 114zM598 -20q-257 0 -399 145t-142 403q0 253 104 463t282.5 329.5t390.5 119.5q219 0 356 -72l-35 -334h-20q-32 129 -64 209q-37 94 -89 125t-159 31q-136 0 -248 -74.5t-185 -200t-112.5 -288.5t-39.5 -342
q0 -234 97 -355t271 -121q175 0 299 142q63 75 158 252h20l-90 -367q-130 -65 -395 -65z" />
    <glyph glyph-name="ccircumflex" unicode="&#x109;" horiz-adv-x="851" 
d="M393 1149l-10 12l283 264h61l158 -268l-13 -10l-196 141zM326 -20q-139 0 -214 80t-75 225q0 152 56 298.5t144.5 251t200 168.5t219.5 64q99 0 155 -38.5t56 -100.5q0 -38 -23.5 -65t-60.5 -27q-50 0 -71 28.5t-33 106.5q-9 55 -55 55q-102 0 -201 -107.5t-161 -281
t-62 -354.5q0 -236 182 -236q67 0 127 24.5t100.5 56.5t102.5 91l14 -16q-83 -104 -179.5 -163.5t-221.5 -59.5z" />
    <glyph glyph-name="Cdotaccent" unicode="&#x10a;" horiz-adv-x="1165" 
d="M598 -20q-257 0 -399 145t-142 403q0 253 104 463t282.5 329.5t390.5 119.5q219 0 356 -72l-35 -334h-20q-32 129 -64 209q-37 94 -89 125t-159 31q-136 0 -248 -74.5t-185 -200t-112.5 -288.5t-39.5 -342q0 -234 97 -355t271 -121q175 0 299 142q63 75 158 252h20
l-90 -367q-130 -65 -395 -65zM834 1505q-44 0 -76.5 31.5t-32.5 73.5q0 43 32.5 73.5t76.5 30.5q41 0 71.5 -30.5t30.5 -73.5q0 -42 -30.5 -73.5t-71.5 -31.5z" />
    <glyph glyph-name="cdotaccent" unicode="&#x10b;" horiz-adv-x="851" 
d="M326 -20q-139 0 -214 80t-75 225q0 152 56 298.5t144.5 251t200 168.5t219.5 64q99 0 155 -38.5t56 -100.5q0 -38 -23.5 -65t-60.5 -27q-50 0 -71 28.5t-33 106.5q-9 55 -55 55q-102 0 -201 -107.5t-161 -281t-62 -354.5q0 -236 182 -236q67 0 127 24.5t100.5 56.5
t102.5 91l14 -16q-83 -104 -179.5 -163.5t-221.5 -59.5zM553 1298q0 44 31 75.5t75 31.5t75.5 -31.5t31.5 -75.5t-31.5 -75t-75.5 -31t-75 31t-31 75z" />
    <glyph glyph-name="Ccaron" unicode="&#x10c;" horiz-adv-x="1165" 
d="M1118 1747l8 -12l-286 -242h-64l-186 240l10 12l227 -115zM598 -20q-257 0 -399 145t-142 403q0 253 104 463t282.5 329.5t390.5 119.5q219 0 356 -72l-35 -334h-20q-32 129 -64 209q-37 94 -89 125t-159 31q-136 0 -248 -74.5t-185 -200t-112.5 -288.5t-39.5 -342
q0 -234 97 -355t271 -121q175 0 299 142q63 75 158 252h20l-90 -367q-130 -65 -395 -65z" />
    <glyph glyph-name="ccaron" unicode="&#x10d;" horiz-adv-x="851" 
d="M930 1456l10 -12l-283 -264h-61l-158 268l13 10l196 -141zM326 -20q-139 0 -214 80t-75 225q0 152 56 298.5t144.5 251t200 168.5t219.5 64q99 0 155 -38.5t56 -100.5q0 -38 -23.5 -65t-60.5 -27q-50 0 -71 28.5t-33 106.5q-9 55 -55 55q-102 0 -201 -107.5t-161 -281
t-62 -354.5q0 -236 182 -236q67 0 127 24.5t100.5 56.5t102.5 91l14 -16q-83 -104 -179.5 -163.5t-221.5 -59.5z" />
    <glyph glyph-name="Dcaron" unicode="&#x10e;" horiz-adv-x="1280" 
d="M1057 1747l8 -12l-287 -242h-63l-187 240l11 12l227 -115zM459 35q134 0 242 47.5t180.5 128.5t122 192.5t71 235t21.5 260.5q0 241 -95.5 363t-318.5 122q-112 0 -186 -18l-209 -1192q-4 -27 -4.5 -47t3 -35t13.5 -25t22 -16.5t34 -10t45.5 -4.5t58.5 -1zM184 1401l2 18
h508q132 0 235.5 -29t182.5 -90.5t121.5 -166t42.5 -246.5q0 -200 -61.5 -367t-170 -280.5t-259 -176.5t-326.5 -63h-522l2 16l79 17q47 11 65.5 29.5t27.5 64.5l204 1163q9 49 -3 66t-58 28z" />
    <glyph glyph-name="dcaron" unicode="&#x10f;" horiz-adv-x="1089" 
d="M1130 1210l-14 7l53 262q15 75 76 75q30 0 51 -18.5t21 -48.5q0 -39 -31 -78zM1053 1292l-215 -1083q-17 -82 -17 -100q0 -63 133 12l58 33l10 -15q-163 -155 -277 -155q-86 0 -86 96q0 40 50 229h-7q-51 -73 -96 -125.5t-101.5 -102t-121 -75.5t-133.5 -26
q-96 0 -153.5 70.5t-57.5 187.5q0 161 59.5 316.5t151.5 266t205.5 178.5t218.5 68q95 0 172 -25h8q9 66 25 148l36 176q9 46 -3 65.5t-62 41.5l-84 30l2 15l328 28l8 -6q-24 -119 -51 -248zM334 61q83 0 184 88.5t195 223.5l116 575q-47 84 -153 84q-82 0 -167.5 -69.5
t-152 -179.5t-109 -257.5t-42.5 -292.5q0 -92 32 -132t97 -40z" />
    <glyph glyph-name="Dcroat" unicode="&#x110;" horiz-adv-x="1280" 
d="M59 702l9 43h151l96 545q9 49 -3 66t-58 28l-70 17l2 18h508q132 0 235.5 -29t182.5 -90.5t121.5 -166t42.5 -246.5q0 -200 -61.5 -367t-170 -280.5t-259 -176.5t-326.5 -63h-522l2 16l79 17q47 11 65.5 29.5t27.5 64.5l100 575h-152zM459 35q134 0 242 47.5t180.5 128.5
t122 192.5t71 235t21.5 260.5q0 241 -95.5 363t-318.5 122q-112 0 -186 -18l-111 -621h393l-8 -43h-391l-92 -528q-4 -27 -4.5 -47t3 -35t13.5 -25t22 -16.5t34 -10t45.5 -4.5t58.5 -1z" />
    <glyph glyph-name="dcroat" unicode="&#x111;" horiz-adv-x="1089" 
d="M1053 1292l-2 -6h135l-6 -37h-136l-206 -1040q-17 -82 -17 -100q0 -63 133 12l58 33l10 -15q-163 -155 -277 -155q-86 0 -86 96q0 40 50 229h-7q-51 -73 -96 -125.5t-101.5 -102t-121 -75.5t-133.5 -26q-96 0 -153.5 70.5t-57.5 187.5q0 161 59.5 316.5t151.5 266
t205.5 178.5t218.5 68q95 0 172 -25h6q11 66 27 148l12 59h-330l6 37h332l16 80q9 46 -3 65.5t-62 41.5l-84 30l2 15l328 28l8 -6q-24 -119 -51 -248zM334 61q83 0 184 88.5t195 223.5l116 575q-47 84 -153 84q-82 0 -167.5 -69.5t-152 -179.5t-109 -257.5t-42.5 -292.5
q0 -92 32 -132t97 -40z" />
    <glyph glyph-name="Emacron" unicode="&#x112;" horiz-adv-x="1091" 
d="M-63 0l2 16l79 17q47 11 65.5 29.5t27.5 64.5l204 1163q9 49 -3 66t-58 28l-70 17l2 18h901l5 -323h-19q-36 106 -69 168q-18 35 -34.5 55t-35 33.5t-54 19t-71 7t-107.5 1.5q-138 0 -208 -18l-105 -604h111q82 0 128.5 8.5t67.5 23.5t39 44q25 47 62 137h18l-84 -465
h-18q-5 85 -11 121q-4 27 -11.5 42.5t-19 26t-43 14.5t-64.5 5.5t-101 1.5h-82l-82 -465q-7 -37 -10.5 -57.5t-4.5 -45.5t-1.5 -36.5t7 -26.5t12 -20t23.5 -12.5t31.5 -9t44.5 -3.5t55.5 -2h71.5q110 0 168 10t88 29.5t66 64.5q78 97 168 250h20l-108 -393h-993zM461 1544
l14 78h510l-16 -78h-508z" />
    <glyph glyph-name="emacron" unicode="&#x113;" horiz-adv-x="884" 
d="M336 -20q-145 0 -221 83.5t-76 225.5q0 137 54 279t139 251t196 178.5t217 69.5q117 0 178.5 -52t61.5 -132q0 -129 -163.5 -238.5t-496.5 -169.5q-22 -99 -22 -192q0 -112 49.5 -175t134.5 -63q91 0 167.5 41t170.5 125l14 -16q-74 -91 -178.5 -153t-224.5 -62z
M629 1030q-98 0 -221 -157t-177 -365q276 55 396 166q47 42 71.5 104t24.5 121q0 131 -94 131zM414 1233l14 78h459l-13 -78h-460z" />
    <glyph glyph-name="Ebreve" unicode="&#x114;" horiz-adv-x="1091" 
d="M-63 0l2 16l79 17q47 11 65.5 29.5t27.5 64.5l204 1163q9 49 -3 66t-58 28l-70 17l2 18h901l5 -323h-19q-36 106 -69 168q-18 35 -34.5 55t-35 33.5t-54 19t-71 7t-107.5 1.5q-138 0 -208 -18l-105 -604h111q82 0 128.5 8.5t67.5 23.5t39 44q25 47 62 137h18l-84 -465
h-18q-5 85 -11 121q-4 27 -11.5 42.5t-19 26t-43 14.5t-64.5 5.5t-101 1.5h-82l-82 -465q-7 -37 -10.5 -57.5t-4.5 -45.5t-1.5 -36.5t7 -26.5t12 -20t23.5 -12.5t31.5 -9t44.5 -3.5t55.5 -2h71.5q110 0 168 10t88 29.5t66 64.5q78 97 168 250h20l-108 -393h-993zM709 1499
q-112 0 -161.5 66.5t-47.5 173.5l14 4q15 -63 68 -97t133 -34q86 0 148 36t81 95l14 -4q-10 -107 -71 -173.5t-178 -66.5z" />
    <glyph glyph-name="ebreve" unicode="&#x115;" horiz-adv-x="884" 
d="M336 -20q-145 0 -221 83.5t-76 225.5q0 137 54 279t139 251t196 178.5t217 69.5q117 0 178.5 -52t61.5 -132q0 -129 -163.5 -238.5t-496.5 -169.5q-22 -99 -22 -192q0 -112 49.5 -175t134.5 -63q91 0 167.5 41t170.5 125l14 -16q-74 -91 -178.5 -153t-224.5 -62z
M629 1030q-98 0 -221 -157t-177 -365q276 55 396 166q47 42 71.5 104t24.5 121q0 131 -94 131zM649 1188q-202 0 -198 235l14 2q30 -127 190 -127q85 0 142.5 34t76.5 93l15 -2q-10 -106 -68.5 -170.5t-171.5 -64.5z" />
    <glyph glyph-name="Edotaccent" unicode="&#x116;" horiz-adv-x="1091" 
d="M717 1505q-44 0 -76.5 31.5t-32.5 73.5q0 43 32.5 73.5t76.5 30.5q41 0 71.5 -30.5t30.5 -73.5q0 -42 -30.5 -73.5t-71.5 -31.5zM-63 0l2 16l79 17q47 11 65.5 29.5t27.5 64.5l204 1163q9 49 -3 66t-58 28l-70 17l2 18h901l5 -323h-19q-36 106 -69 168q-18 35 -34.5 55
t-35 33.5t-54 19t-71 7t-107.5 1.5q-138 0 -208 -18l-105 -604h111q82 0 128.5 8.5t67.5 23.5t39 44q25 47 62 137h18l-84 -465h-18q-5 85 -11 121q-4 27 -11.5 42.5t-19 26t-43 14.5t-64.5 5.5t-101 1.5h-82l-82 -465q-7 -37 -10.5 -57.5t-4.5 -45.5t-1.5 -36.5t7 -26.5
t12 -20t23.5 -12.5t31.5 -9t44.5 -3.5t55.5 -2h71.5q110 0 168 10t88 29.5t66 64.5q78 97 168 250h20l-108 -393h-993z" />
    <glyph glyph-name="edotaccent" unicode="&#x117;" horiz-adv-x="884" 
d="M336 -20q-145 0 -221 83.5t-76 225.5q0 137 54 279t139 251t196 178.5t217 69.5q117 0 178.5 -52t61.5 -132q0 -129 -163.5 -238.5t-496.5 -169.5q-22 -99 -22 -192q0 -112 49.5 -175t134.5 -63q91 0 167.5 41t170.5 125l14 -16q-74 -91 -178.5 -153t-224.5 -62z
M629 1030q-98 0 -221 -157t-177 -365q276 55 396 166q47 42 71.5 104t24.5 121q0 131 -94 131zM553 1298q0 44 31 75.5t75 31.5t75.5 -31.5t31.5 -75.5t-31.5 -75t-75.5 -31t-75 31t-31 75z" />
    <glyph glyph-name="Eogonek" unicode="&#x118;" horiz-adv-x="1091" 
d="M930 0h-193q-46 -40 -69.5 -62t-56.5 -58.5t-48 -70.5t-16 -69q-3 -46 19.5 -71t68.5 -25q37 0 82 18l-4 -20q-29 -28 -71 -45t-75 -17q-68 0 -105 38.5t-34 96.5q4 137 279 285h-770l2 16l79 17q47 11 65.5 29.5t27.5 64.5l204 1163q9 49 -3 66t-58 28l-70 17l2 18h901
l5 -323h-19q-36 106 -69 168q-18 35 -34.5 55t-35 33.5t-54 19t-71 7t-107.5 1.5q-138 0 -208 -18l-105 -604h111q82 0 128.5 8.5t67.5 23.5t39 44q25 47 62 137h18l-84 -465h-18q-5 85 -11 121q-4 27 -11.5 42.5t-19 26t-43 14.5t-64.5 5.5t-101 1.5h-82l-82 -465
q-7 -37 -10.5 -57.5t-4.5 -45.5t-1.5 -36.5t7 -26.5t12 -20t23.5 -12.5t31.5 -9t44.5 -3.5t55.5 -2h71.5q110 0 168 10t88 29.5t66 64.5q78 97 168 250h20z" />
    <glyph glyph-name="eogonek" unicode="&#x119;" horiz-adv-x="884" 
d="M336 -20q-145 0 -221 83.5t-76 225.5q0 137 54 279t139 251t196 178.5t217 69.5q118 0 179 -52t61 -136q0 -126 -165.5 -235t-494.5 -169q-22 -105 -22 -192q0 -114 51 -176t133 -62q92 0 167.5 40.5t170.5 121.5l14 -19q-47 -49 -129 -114q-24 -19 -68.5 -51.5
t-72.5 -53.5t-64 -53t-57 -58t-36 -59.5t-15 -66.5q0 -42 24 -65t66 -23t82 16l-4 -18q-31 -29 -72 -45.5t-74 -16.5q-65 0 -103 37t-38 94q0 45 24.5 87t75.5 81t80 57t87 50q3 2 5 3t4.5 2.5t4.5 2.5q-55 -14 -123 -14zM629 1030q-101 0 -218.5 -155t-177.5 -367
q158 33 244 71.5t150 94.5q46 39 71 102.5t25 122.5q0 131 -94 131z" />
    <glyph glyph-name="Ecaron" unicode="&#x11a;" horiz-adv-x="1091" 
d="M1014 1747l8 -12l-287 -242h-63l-187 240l11 12l227 -115zM-63 0l2 16l79 17q47 11 65.5 29.5t27.5 64.5l204 1163q9 49 -3 66t-58 28l-70 17l2 18h901l5 -323h-19q-36 106 -69 168q-18 35 -34.5 55t-35 33.5t-54 19t-71 7t-107.5 1.5q-138 0 -208 -18l-105 -604h111
q82 0 128.5 8.5t67.5 23.5t39 44q25 47 62 137h18l-84 -465h-18q-5 85 -11 121q-4 27 -11.5 42.5t-19 26t-43 14.5t-64.5 5.5t-101 1.5h-82l-82 -465q-7 -37 -10.5 -57.5t-4.5 -45.5t-1.5 -36.5t7 -26.5t12 -20t23.5 -12.5t31.5 -9t44.5 -3.5t55.5 -2h71.5q110 0 168 10
t88 29.5t66 64.5q78 97 168 250h20l-108 -393h-993z" />
    <glyph glyph-name="ecaron" unicode="&#x11b;" horiz-adv-x="884" 
d="M336 -20q-145 0 -221 83.5t-76 225.5q0 137 54 279t139 251t196 178.5t217 69.5q117 0 178.5 -52t61.5 -132q0 -129 -163.5 -238.5t-496.5 -169.5q-22 -99 -22 -192q0 -112 49.5 -175t134.5 -63q91 0 167.5 41t170.5 125l14 -16q-74 -91 -178.5 -153t-224.5 -62z
M629 1030q-98 0 -221 -157t-177 -365q276 55 396 166q47 42 71.5 104t24.5 121q0 131 -94 131zM934 1456l10 -12l-282 -264h-62l-158 268l13 10l196 -141z" />
    <glyph glyph-name="Gcircumflex" unicode="&#x11c;" horiz-adv-x="1265" 
d="M557 1479l-8 12l287 242h63l186 -240l-10 -12l-227 114zM627 -20q-115 0 -213 30.5t-178.5 94.5t-126.5 175t-46 259q0 167 46 313t124.5 252t181 183t217.5 115t232 38q215 0 365 -58l-35 -350h-20q-39 155 -70 225q-32 76 -87 109t-167 33q-96 0 -184.5 -34.5
t-165.5 -107t-134 -176.5t-89.5 -250.5t-32.5 -320.5q0 -84 12.5 -156t41.5 -134.5t73 -106.5t110.5 -69.5t149.5 -25.5q153 0 260 66l61 348q10 53 -2 68.5t-59 25.5l-80 17l4 18h455l-4 -18l-60 -17q-49 -13 -66.5 -29.5t-27.5 -70.5l-65 -379q-167 -67 -420 -67z" />
    <glyph glyph-name="gcircumflex" unicode="&#x11d;" horiz-adv-x="944" 
d="M311 1165l-10 13l283 264h61l158 -268l-12 -11l-197 142zM303 -416q-111 0 -202 26t-150.5 84.5t-59.5 139.5q0 188 291 266v4q-92 39 -92 127q0 114 172 195v4q-131 75 -131 229q0 90 35 168.5t91.5 130t127 80.5t143.5 29q128 0 215 -74q54 51 100.5 79t94.5 28
q44 0 70 -24.5t26 -65.5q0 -35 -23.5 -58.5t-54.5 -23.5q-53 0 -77 61q-19 48 -66 19q-14 -9 -49 -37v-4q76 -73 76 -201q0 -88 -34 -162t-90 -121.5t-127 -73.5t-147 -26q-74 0 -147 27q-37 -22 -63.5 -55t-26.5 -66q0 -41 26 -56t86 -20l226 -18q284 -24 284 -228
q0 -72 -36 -140t-101 -122.5t-166 -87.5t-221 -33zM328 -377q172 0 268 76.5t96 185.5q0 83 -42 125t-140 51l-285 27q-78 -31 -132 -95t-54 -149q0 -102 74 -161.5t215 -59.5zM444 420q114 0 181 109t67 288q0 106 -40 159.5t-128 53.5q-112 0 -178.5 -120.5t-66.5 -291.5
q0 -100 40.5 -149t124.5 -49z" />
    <glyph glyph-name="Gbreve" unicode="&#x11e;" horiz-adv-x="1265" 
d="M860 1499q-112 0 -161.5 66.5t-47.5 173.5l15 4q15 -63 67.5 -97t132.5 -34q86 0 148.5 36t81.5 95l14 -4q-10 -107 -71.5 -173.5t-178.5 -66.5zM627 -20q-115 0 -213 30.5t-178.5 94.5t-126.5 175t-46 259q0 167 46 313t124.5 252t181 183t217.5 115t232 38
q215 0 365 -58l-35 -350h-20q-39 155 -70 225q-32 76 -87 109t-167 33q-96 0 -184.5 -34.5t-165.5 -107t-134 -176.5t-89.5 -250.5t-32.5 -320.5q0 -84 12.5 -156t41.5 -134.5t73 -106.5t110.5 -69.5t149.5 -25.5q153 0 260 66l61 348q10 53 -2 68.5t-59 25.5l-80 17l4 18
h455l-4 -18l-60 -17q-49 -13 -66.5 -29.5t-27.5 -70.5l-65 -379q-167 -67 -420 -67z" />
    <glyph glyph-name="gbreve" unicode="&#x11f;" horiz-adv-x="944" 
d="M303 -416q-111 0 -202 26t-150.5 84.5t-59.5 139.5q0 188 291 266v4q-92 39 -92 127q0 114 172 195v4q-131 75 -131 229q0 90 35 168.5t91.5 130t127 80.5t143.5 29q128 0 215 -74q54 51 100.5 79t94.5 28q44 0 70 -24.5t26 -65.5q0 -35 -23.5 -58.5t-54.5 -23.5
q-53 0 -77 61q-19 48 -66 19q-14 -9 -49 -37v-4q76 -73 76 -201q0 -88 -34 -162t-90 -121.5t-127 -73.5t-147 -26q-74 0 -147 27q-37 -22 -63.5 -55t-26.5 -66q0 -41 26 -56t86 -20l226 -18q284 -24 284 -228q0 -72 -36 -140t-101 -122.5t-166 -87.5t-221 -33zM328 -377
q172 0 268 76.5t96 185.5q0 83 -42 125t-140 51l-285 27q-78 -31 -132 -95t-54 -149q0 -102 74 -161.5t215 -59.5zM444 420q114 0 181 109t67 288q0 106 -40 159.5t-128 53.5q-112 0 -178.5 -120.5t-66.5 -291.5q0 -100 40.5 -149t124.5 -49zM559 1188q-203 0 -199 235l15 2
q30 -127 190 -127q85 0 142.5 34t76.5 93l15 -2q-10 -106 -68.5 -170.5t-171.5 -64.5z" />
    <glyph glyph-name="Gdotaccent" unicode="&#x120;" horiz-adv-x="1265" 
d="M844 1505q-44 0 -76.5 31.5t-32.5 73.5q0 43 32.5 73.5t76.5 30.5q41 0 71.5 -30.5t30.5 -73.5q0 -42 -30.5 -73.5t-71.5 -31.5zM627 -20q-115 0 -213 30.5t-178.5 94.5t-126.5 175t-46 259q0 167 46 313t124.5 252t181 183t217.5 115t232 38q215 0 365 -58l-35 -350h-20
q-39 155 -70 225q-32 76 -87 109t-167 33q-96 0 -184.5 -34.5t-165.5 -107t-134 -176.5t-89.5 -250.5t-32.5 -320.5q0 -84 12.5 -156t41.5 -134.5t73 -106.5t110.5 -69.5t149.5 -25.5q153 0 260 66l61 348q10 53 -2 68.5t-59 25.5l-80 17l4 18h455l-4 -18l-60 -17
q-49 -13 -66.5 -29.5t-27.5 -70.5l-65 -379q-167 -67 -420 -67z" />
    <glyph glyph-name="gdotaccent" unicode="&#x121;" horiz-adv-x="944" 
d="M303 -416q-111 0 -202 26t-150.5 84.5t-59.5 139.5q0 188 291 266v4q-92 39 -92 127q0 114 172 195v4q-131 75 -131 229q0 90 35 168.5t91.5 130t127 80.5t143.5 29q128 0 215 -74q54 51 100.5 79t94.5 28q44 0 70 -24.5t26 -65.5q0 -35 -23.5 -58.5t-54.5 -23.5
q-53 0 -77 61q-19 48 -66 19q-14 -9 -49 -37v-4q76 -73 76 -201q0 -88 -34 -162t-90 -121.5t-127 -73.5t-147 -26q-74 0 -147 27q-37 -22 -63.5 -55t-26.5 -66q0 -41 26 -56t86 -20l226 -18q284 -24 284 -228q0 -72 -36 -140t-101 -122.5t-166 -87.5t-221 -33zM328 -377
q172 0 268 76.5t96 185.5q0 83 -42 125t-140 51l-285 27q-78 -31 -132 -95t-54 -149q0 -102 74 -161.5t215 -59.5zM444 420q114 0 181 109t67 288q0 106 -40 159.5t-128 53.5q-112 0 -178.5 -120.5t-66.5 -291.5q0 -100 40.5 -149t124.5 -49zM461 1278q0 44 31 75t75 31
t75.5 -31t31.5 -75t-31.5 -75.5t-75.5 -31.5t-75 31.5t-31 75.5z" />
    <glyph glyph-name="Gcommaaccent" unicode="&#x122;" horiz-adv-x="1265" 
d="M379 -430l-4 16q189 47 203 168q-21 -18 -62 -18q-34 0 -55 22t-21 58q0 37 29 61.5t68 24.5q52 0 83 -29.5t31 -81.5q0 -84 -72.5 -144t-199.5 -77zM627 -20q-115 0 -213 30.5t-178.5 94.5t-126.5 175t-46 259q0 167 46 313t124.5 252t181 183t217.5 115t232 38
q215 0 365 -58l-35 -350h-20q-39 155 -70 225q-32 76 -87 109t-167 33q-96 0 -184.5 -34.5t-165.5 -107t-134 -176.5t-89.5 -250.5t-32.5 -320.5q0 -84 12.5 -156t41.5 -134.5t73 -106.5t110.5 -69.5t149.5 -25.5q153 0 260 66l61 348q10 53 -2 68.5t-59 25.5l-80 17l4 18
h455l-4 -18l-60 -17q-49 -13 -66.5 -29.5t-27.5 -70.5l-65 -379q-167 -67 -420 -67z" />
    <glyph glyph-name="gcommaaccent" unicode="&#x123;" horiz-adv-x="944" 
d="M713 1522l4 -17q-189 -47 -203 -168q22 19 61 19q34 0 55 -22t21 -58q0 -37 -28.5 -61.5t-67.5 -24.5q-52 0 -83.5 29t-31.5 81q0 84 73 144.5t200 77.5zM303 -416q-111 0 -202 26t-150.5 84.5t-59.5 139.5q0 188 291 266v4q-92 39 -92 127q0 114 172 195v4
q-131 75 -131 229q0 90 35 168.5t91.5 130t127 80.5t143.5 29q128 0 215 -74q54 51 100.5 79t94.5 28q44 0 70 -24.5t26 -65.5q0 -35 -23.5 -58.5t-54.5 -23.5q-53 0 -77 61q-19 48 -66 19q-14 -9 -49 -37v-4q76 -73 76 -201q0 -88 -34 -162t-90 -121.5t-127 -73.5t-147 -26
q-74 0 -147 27q-37 -22 -63.5 -55t-26.5 -66q0 -41 26 -56t86 -20l226 -18q284 -24 284 -228q0 -72 -36 -140t-101 -122.5t-166 -87.5t-221 -33zM328 -377q172 0 268 76.5t96 185.5q0 83 -42 125t-140 51l-285 27q-78 -31 -132 -95t-54 -149q0 -102 74 -161.5t215 -59.5z
M444 420q114 0 181 109t67 288q0 106 -40 159.5t-128 53.5q-112 0 -178.5 -120.5t-66.5 -291.5q0 -100 40.5 -149t124.5 -49z" />
    <glyph glyph-name="Hcircumflex" unicode="&#x124;" horiz-adv-x="1353" 
d="M-63 0l4 18l77 17q50 11 67 27t26 67l204 1161q9 53 -1.5 68t-59.5 26l-70 17l2 18h480l-4 -18l-89 -17q-49 -9 -66 -26t-26 -68l-96 -545h655l97 545q9 51 -2 67t-58 27l-82 17l4 18h480l-4 -18l-78 -17q-50 -11 -66.5 -26.5t-25.5 -67.5l-205 -1159q-9 -52 2.5 -69
t64.5 -29l66 -15l-4 -18h-481l4 18l88 19q50 13 66.5 28.5t25.5 65.5l102 571h-657l-98 -571q-8 -51 2.5 -69t64.5 -29l72 -15l-2 -18h-479zM590 1479l-8 12l286 242h64l186 -240l-10 -12l-227 114z" />
    <glyph glyph-name="hcircumflex" unicode="&#x125;" horiz-adv-x="1056" 
d="M723 -16q-80 0 -80 84q0 53 25 155l104 463q26 113 30.5 174t-10 86t-51.5 25q-119 0 -401 -318l-145 -653h-156l285 1366q9 46 -4 66t-62 41l-74 30l2 13l318 30l8 -6q-24 -109 -51 -248l-68 -350q-20 -102 -55 -237h4q70 83 125 141t116.5 112t118.5 81.5t109 27.5
q74 0 112 -45.5t38 -128.5q0 -61 -37 -219l-105 -463q-16 -77 -16 -102q0 -63 133 12l57 33l11 -15q-97 -89 -161.5 -122t-119.5 -33zM385 1573l-8 12l287 242h63l186 -240l-10 -12l-227 115z" />
    <glyph glyph-name="Hbar" unicode="&#x126;" horiz-adv-x="1353" 
d="M111 1028l10 41h155l39 221q9 53 -1.5 68t-59.5 26l-70 17l2 18h480l-4 -18l-89 -17q-49 -9 -66 -26t-26 -68l-39 -221h656l39 221q9 51 -2 67t-58 27l-82 17l4 18h480l-4 -18l-78 -17q-50 -11 -66.5 -26.5t-25.5 -67.5l-39 -221h180l-8 -41h-181l-157 -897
q-9 -52 2.5 -69t64.5 -29l66 -15l-4 -18h-481l4 18l88 19q50 13 66.5 28.5t25.5 65.5l102 571h-657l-98 -571q-8 -51 2.5 -69t64.5 -29l72 -15l-2 -18h-479l4 18l77 17q50 11 67 27t26 67l157 899h-157zM385 745h655l50 283h-656z" />
    <glyph glyph-name="hbar" unicode="&#x127;" horiz-adv-x="1056" 
d="M119 1249l8 37h180l17 80q9 46 -4 66t-62 41l-74 30l2 13l318 30l8 -6q-24 -109 -51 -248l-2 -6h274l-8 -37h-272l-60 -307q-20 -102 -55 -237h4q70 83 125 141t116.5 112t118.5 81.5t109 27.5q74 0 112 -45.5t38 -128.5q0 -61 -37 -219l-105 -463q-16 -77 -16 -102
q0 -63 133 12l57 33l11 -15q-97 -89 -161.5 -122t-119.5 -33q-80 0 -80 84q0 53 25 155l104 463q26 113 30.5 174t-10 86t-51.5 25q-119 0 -401 -318l-145 -653h-156l260 1249h-180z" />
    <glyph glyph-name="Itilde" unicode="&#x128;" horiz-adv-x="542" 
d="M121 131l205 1159q9 51 -2 67t-58 27l-82 17l4 18h480l-4 -18l-78 -17q-50 -11 -66.5 -26.5t-25.5 -67.5l-205 -1159q-9 -52 2.5 -69t64.5 -29l66 -15l-4 -18h-481l4 18l88 19q50 13 66.5 28.5t25.5 65.5zM176 1485l-16 8q50 118 86.5 163.5t103.5 45.5q48 0 149 -25.5
t140 -25.5q33 0 60 21t57 71l18 -8q-48 -112 -88.5 -158.5t-105.5 -46.5q-47 0 -143 24.5t-136 24.5q-68 0 -125 -94z" />
    <glyph glyph-name="itilde" unicode="&#x129;" horiz-adv-x="512" 
d="M166 -16q-43 0 -64.5 26t-21.5 66q0 43 24 147l138 611q12 56 12 92q0 19 -10 27.5t-37 1t-70 -36.5l-57 -39l-10 14q174 174 270 174q37 0 60.5 -22.5t23.5 -59.5q0 -20 -4.5 -47.5t-17.5 -84t-17 -75.5l-129 -567q-16 -83 -16 -102q0 -20 13 -27.5t44 1.5t76 36l57 35
l10 -15q-161 -155 -274 -155zM102 1180l-16 6q48 114 86.5 158.5t106.5 44.5q49 0 125 -30t116 -30q60 0 121 101l18 -7q-48 -113 -86.5 -157.5t-103.5 -44.5q-47 0 -124.5 31.5t-117.5 31.5q-62 0 -125 -104z" />
    <glyph glyph-name="Imacron" unicode="&#x12a;" horiz-adv-x="542" 
d="M121 131l205 1159q9 51 -2 67t-58 27l-82 17l4 18h480l-4 -18l-78 -17q-50 -11 -66.5 -26.5t-25.5 -67.5l-205 -1159q-9 -52 2.5 -69t64.5 -29l66 -15l-4 -18h-481l4 18l88 19q50 13 66.5 28.5t25.5 65.5zM195 1544l14 78h510l-17 -78h-507z" />
    <glyph glyph-name="imacron" unicode="&#x12b;" horiz-adv-x="512" 
d="M145 1217l17 86h413l-14 -86h-416zM166 -16q-43 0 -64.5 26t-21.5 66q0 43 24 147l138 611q12 56 12 92q0 19 -10 27.5t-37 1t-70 -36.5l-57 -39l-10 14q174 174 270 174q37 0 60.5 -22.5t23.5 -59.5q0 -20 -4.5 -47.5t-17.5 -84t-17 -75.5l-129 -567q-16 -83 -16 -102
q0 -20 13 -27.5t44 1.5t76 36l57 35l10 -15q-161 -155 -274 -155z" />
    <glyph glyph-name="Ibreve" unicode="&#x12c;" horiz-adv-x="542" 
d="M121 131l205 1159q9 51 -2 67t-58 27l-82 17l4 18h480l-4 -18l-78 -17q-50 -11 -66.5 -26.5t-25.5 -67.5l-205 -1159q-9 -52 2.5 -69t64.5 -29l66 -15l-4 -18h-481l4 18l88 19q50 13 66.5 28.5t25.5 65.5zM442 1499q-112 0 -161.5 66.5t-47.5 173.5l15 4q15 -63 68 -97
t133 -34q86 0 148 36t81 95l14 -4q-10 -107 -71.5 -173.5t-178.5 -66.5z" />
    <glyph glyph-name="ibreve" unicode="&#x12d;" horiz-adv-x="512" 
d="M166 -16q-43 0 -64.5 26t-21.5 66q0 43 24 147l138 611q12 56 12 92q0 19 -10 27.5t-37 1t-70 -36.5l-57 -39l-10 14q174 174 270 174q37 0 60.5 -22.5t23.5 -59.5q0 -20 -4.5 -47.5t-17.5 -84t-17 -75.5l-129 -567q-16 -83 -16 -102q0 -20 13 -27.5t44 1.5t76 36l57 35
l10 -15q-161 -155 -274 -155zM365 1188q-203 0 -199 235l14 2q30 -127 191 -127q85 0 142.5 34t76.5 93l14 -2q-10 -107 -68 -171t-171 -64z" />
    <glyph glyph-name="Iogonek" unicode="&#x12e;" horiz-adv-x="542" 
d="M418 0h-146q-161 -153 -163 -260q-2 -46 21.5 -71t68.5 -25q33 0 82 18l-5 -20q-31 -28 -72.5 -45t-72.5 -17q-69 0 -106 38t-35 95q3 77 80 154.5t176 132.5h-309l4 18l88 19q49 11 66 27t26 67l205 1159q9 51 -2 67t-58 27l-82 17l4 18h480l-4 -18l-78 -17
q-50 -11 -66.5 -26.5t-25.5 -67.5l-205 -1159q-9 -52 2.5 -69t64.5 -29l66 -15z" />
    <glyph glyph-name="iogonek" unicode="&#x12f;" horiz-adv-x="512" 
d="M92 -420q-65 0 -103 35.5t-38 91.5q0 78 81 156.5t181 126.5q-27 -6 -49 -6q-43 0 -63.5 26t-20.5 66q0 43 24 147l138 611q12 56 12 92q0 19 -10 27.5t-37 1t-70 -36.5l-57 -39l-10 14q174 174 270 174q37 0 60.5 -22.5t23.5 -59.5q0 -20 -4.5 -47.5t-17.5 -84
t-17 -75.5l-129 -567q-16 -83 -16 -102q0 -20 13 -27.5t44 1.5t76 36l57 35l10 -15q-52 -48 -114 -94q-39 -28 -59 -43.5t-56 -44.5t-56 -51t-42 -50.5t-32.5 -57.5t-10.5 -58q0 -96 90 -96q37 0 82 18l-4 -20q-31 -28 -72.5 -45t-73.5 -17zM385 1239q-45 0 -74.5 30.5
t-29.5 71.5q0 42 29 71.5t73 29.5q45 0 75.5 -30t30.5 -73q0 -39 -30.5 -69.5t-73.5 -30.5z" />
    <glyph glyph-name="Idotaccent" unicode="&#x130;" horiz-adv-x="542" 
d="M121 131l205 1159q9 51 -2 67t-58 27l-82 17l4 18h480l-4 -18l-78 -17q-50 -11 -66.5 -26.5t-25.5 -67.5l-205 -1159q-9 -52 2.5 -69t64.5 -29l66 -15l-4 -18h-481l4 18l88 19q50 13 66.5 28.5t25.5 65.5zM455 1505q-44 0 -76.5 31.5t-32.5 73.5q0 43 32.5 73.5
t76.5 30.5q41 0 71.5 -30.5t30.5 -73.5q0 -42 -30.5 -73.5t-71.5 -31.5z" />
    <glyph glyph-name="dotlessi" unicode="&#x131;" horiz-adv-x="512" 
d="M166 -16q-43 0 -64.5 26t-21.5 66q0 43 24 147l138 611q12 56 12 92q0 19 -10 27.5t-37 1t-70 -36.5l-57 -39l-10 14q174 174 270 174q37 0 60.5 -22.5t23.5 -59.5q0 -20 -4.5 -47.5t-17.5 -84t-17 -75.5l-129 -567q-16 -83 -16 -102q0 -20 13 -27.5t44 1.5t76 36l57 35
l10 -15q-161 -155 -274 -155z" />
    <glyph glyph-name="IJ" unicode="&#x132;" horiz-adv-x="1181" 
d="M111 131l204 1159q9 51 -1.5 67t-57.5 27l-82 17l4 18h479l-4 -18l-78 -17q-50 -11 -66.5 -26.5t-25.5 -67.5l-204 -1159q-9 -52 2.5 -69t64.5 -29l66 -15l-4 -18h-482l4 18l88 19q50 13 67 28.5t26 65.5zM633 -20q-83 0 -130.5 32.5t-47.5 83.5q0 35 22.5 57.5
t61.5 22.5q42 0 63 -24.5t27 -71.5q9 -64 51 -64q77 0 119 226l184 1048q9 51 -1.5 67t-57.5 27l-82 17l4 18h479l-4 -18l-78 -17q-50 -11 -67 -26.5t-25 -67.5l-162 -901q-15 -86 -42.5 -157t-69.5 -129t-104.5 -90.5t-139.5 -32.5z" />
    <glyph glyph-name="ij" unicode="&#x133;" horiz-adv-x="1007" 
d="M166 -16q-43 0 -64.5 26t-21.5 66q0 43 24 147l138 611q12 56 12 92q0 19 -10 27.5t-37 1t-70 -36.5l-57 -39l-10 14q174 174 270 174q37 0 60.5 -22.5t23.5 -59.5q0 -20 -4.5 -47.5t-17.5 -84t-17 -75.5l-129 -567q-16 -83 -16 -102q0 -20 13 -27.5t44 1.5t76 36l57 35
l10 -15q-161 -155 -274 -155zM383 1239q-45 0 -74.5 30.5t-29.5 71.5q0 42 29 71.5t73 29.5q45 0 75.5 -30t30.5 -73q0 -39 -30.5 -69.5t-73.5 -30.5zM887 1239q-46 0 -76.5 30.5t-30.5 71.5q0 42 30 71.5t75 29.5q44 0 74 -30t30 -73q0 -39 -30 -69.5t-72 -30.5zM893 778
l-150 -803q-38 -203 -130.5 -302t-217.5 -99q-95 0 -143.5 33t-48.5 90q0 39 24.5 63.5t69.5 24.5q78 0 90 -102q5 -40 14.5 -57t32.5 -17q42 0 79 63.5t62 200.5l168 961q13 80 13 92q0 19 -10 27.5t-37 1t-70 -36.5l-57 -39l-11 14q174 174 271 174q37 0 60.5 -22.5
t23.5 -59.5q0 -17 -3.5 -42.5t-6.5 -44.5t-11.5 -60.5t-11.5 -59.5z" />
    <glyph glyph-name="Jcircumflex" unicode="&#x134;" horiz-adv-x="657" 
d="M299 1479l-8 12l287 242h63l186 -240l-10 -12l-227 114zM109 -20q-83 0 -131 32.5t-48 83.5q0 35 22.5 57.5t61.5 22.5q42 0 63 -24.5t27 -71.5q9 -64 52 -64q76 0 118 226l185 1048q9 51 -1.5 67t-58.5 27l-82 17l5 18h479l-4 -18l-78 -17q-50 -11 -67 -26.5t-25 -67.5
l-162 -901q-15 -86 -42.5 -157t-69.5 -129t-104.5 -90.5t-139.5 -32.5z" />
    <glyph glyph-name="jcircumflex" unicode="&#x135;" horiz-adv-x="495" 
d="M-117 -426q-95 0 -143.5 33t-48.5 90q0 39 24.5 63.5t69.5 24.5q78 0 90 -102q5 -40 14.5 -57t32.5 -17q42 0 79 63.5t62 200.5l168 961q13 80 13 92q0 19 -10 27.5t-37 1t-70 -36.5l-57 -39l-11 14q174 174 271 174q37 0 60.5 -22.5t23.5 -59.5q0 -17 -3.5 -42.5
t-6.5 -44.5t-11.5 -60.5t-11.5 -59.5l-150 -803q-38 -203 -130.5 -302t-217.5 -99zM92 1165l-10 13l283 264h61l158 -268l-13 -11l-196 142z" />
    <glyph glyph-name="Kcommaaccent" unicode="&#x136;" horiz-adv-x="1173" 
d="M344 -430l-4 16q189 47 203 168q-21 -18 -62 -18q-34 0 -54.5 21.5t-20.5 58.5t28.5 61.5t67.5 24.5q52 0 83 -29.5t31 -81.5q0 -84 -72.5 -144t-199.5 -77zM829 0q-164 249 -368 729l2 12l485 494q60 63 60 96q0 24 -20 35.5t-64 22.5l-50 12l5 18h409l-4 -18l-29 -10
q-90 -32 -129.5 -59t-132.5 -120l-393 -395q185 -427 363 -708q23 -37 46 -53t64 -27l41 -11l-4 -18h-281zM111 131l204 1159q9 51 -1.5 67t-57.5 27l-82 17l4 18h479l-4 -18l-78 -17q-50 -11 -66.5 -26.5t-25.5 -67.5l-204 -1159q-9 -52 2.5 -69t64.5 -29l66 -15l-4 -18
h-471l4 18l77 19q50 11 67 27.5t26 66.5z" />
    <glyph glyph-name="kcommaaccent" unicode="&#x137;" horiz-adv-x="958" 
d="M174 -430l-4 16q189 47 203 168q-21 -18 -62 -18q-34 0 -54.5 21.5t-20.5 58.5t28.5 61.5t67.5 24.5q52 0 83 -29.5t31 -81.5q0 -84 -72.5 -144t-199.5 -77zM649 -16q-48 0 -78 30.5t-65 110.5q-66 154 -144 422v6q65 94 107 152.5t104 135t108 120t99.5 75t98.5 31.5
q52 0 79 -27t27 -63q0 -41 -24 -66.5t-64 -25.5q-28 0 -47 12.5t-26.5 27.5t-18 27.5t-23.5 12.5q-38 0 -128 -95t-177 -221q89 -272 170 -461q24 -56 44 -77.5t52 -19.5t88 34l54 31l10 -15q-70 -70 -138 -113.5t-108 -43.5zM35 0l284 1366q9 47 -3 67t-62 40l-74 30l2 13
l318 30l8 -6q-22 -109 -51 -248l-269 -1292h-153z" />
    <glyph glyph-name="Lacute" unicode="&#x139;" horiz-adv-x="1050" 
d="M252 1483l-8 16l299 203q36 22 61 22q35 0 55.5 -21.5t20.5 -53.5q0 -26 -21.5 -47t-54.5 -29zM-63 0l2 16l79 17q47 11 65.5 29.5t27.5 64.5l204 1163q9 49 -3 66t-58 28l-72 17l4 18h482l-6 -22l-89 -19q-49 -11 -66 -27.5t-26 -64.5l-188 -1081q-17 -100 23 -132
t182 -32q83 0 125.5 2.5t79 14.5t57 30.5t49.5 56.5q67 88 164 269h24l-104 -414h-956z" />
    <glyph glyph-name="lacute" unicode="&#x13a;" horiz-adv-x="495" 
d="M242 1597l-9 17l299 203q36 22 62 22q35 0 55.5 -22t20.5 -54q0 -26 -21.5 -46.5t-54.5 -28.5zM94 223l225 1143q9 46 -3.5 66.5t-61.5 40.5l-74 30l2 13l318 30l8 -6q-24 -107 -51 -248l-211 -1081q-13 -63 -13 -94q0 -63 97 -15q22 12 51 29l57 35l11 -14
q-180 -168 -297 -168q-41 0 -61.5 24t-20.5 60q0 41 24 155z" />
    <glyph glyph-name="Lcommaaccent" unicode="&#x13b;" horiz-adv-x="1050" 
d="M279 -430l-5 16q189 47 203 168q-21 -18 -61 -18q-34 0 -55 22t-21 58q0 37 28.5 61.5t67.5 24.5q52 0 83.5 -29.5t31.5 -81.5q0 -84 -72.5 -144t-199.5 -77zM-63 0l2 16l79 17q47 11 65.5 29.5t27.5 64.5l204 1163q9 49 -3 66t-58 28l-72 17l4 18h482l-6 -22l-89 -19
q-49 -11 -66 -27.5t-26 -64.5l-188 -1081q-17 -100 23 -132t182 -32q83 0 125.5 2.5t79 14.5t57 30.5t49.5 56.5q67 88 164 269h24l-104 -414h-956z" />
    <glyph glyph-name="lcommaaccent" unicode="&#x13c;" horiz-adv-x="495" 
d="M-59 -430l-4 16q188 47 202 168q-21 -18 -61 -18q-34 0 -55 22t-21 58q0 37 28.5 61.5t67.5 24.5q52 0 83.5 -29.5t31.5 -81.5q0 -84 -72.5 -144t-199.5 -77zM94 223l225 1143q9 46 -3.5 66.5t-61.5 40.5l-74 30l2 13l318 30l8 -6q-24 -107 -51 -248l-211 -1081
q-13 -63 -13 -94q0 -63 97 -15q22 12 51 29l57 35l11 -14q-180 -168 -297 -168q-41 0 -61.5 24t-20.5 60q0 41 24 155z" />
    <glyph glyph-name="Lcaron" unicode="&#x13d;" horiz-adv-x="1050" 
d="M-63 0l2 16l79 17q47 11 65.5 29.5t27.5 64.5l204 1163q9 49 -3 66t-58 28l-72 17l4 18h482l-6 -22l-89 -19q-49 -11 -66 -27.5t-26 -64.5l-188 -1081q-17 -100 23 -132t182 -32q83 0 125.5 2.5t79 14.5t57 30.5t49.5 56.5q67 88 164 269h24l-104 -414h-956zM702 1108
l-14 6l53 262q16 76 76 76q30 0 51 -19t21 -49q0 -38 -31 -77z" />
    <glyph glyph-name="lcaron" unicode="&#x13e;" horiz-adv-x="495" 
d="M539 1210l-15 7l54 262q15 75 75 75q30 0 51 -18.5t21 -48.5q0 -39 -31 -78zM94 223l225 1143q9 46 -3.5 66.5t-61.5 40.5l-74 30l2 13l318 30l8 -6q-24 -107 -51 -248l-211 -1081q-13 -63 -13 -94q0 -63 97 -15q22 12 51 29l57 35l11 -14q-180 -168 -297 -168
q-41 0 -61.5 24t-20.5 60q0 41 24 155z" />
    <glyph glyph-name="Ldot" unicode="&#x13f;" horiz-adv-x="1050" 
d="M-63 0l2 16l79 17q47 11 65.5 29.5t27.5 64.5l204 1163q9 49 -3 66t-58 28l-72 17l4 18h482l-6 -22l-89 -19q-49 -11 -66 -27.5t-26 -64.5l-188 -1081q-17 -100 23 -132t182 -32q83 0 125.5 2.5t79 14.5t57 30.5t49.5 56.5q67 88 164 269h24l-104 -414h-956zM754 766
q0 46 32 78.5t78 32.5t78.5 -32.5t32.5 -78.5t-32.5 -78.5t-78.5 -32.5t-78 32.5t-32 78.5z" />
    <glyph glyph-name="ldot" unicode="&#x140;" horiz-adv-x="524" 
d="M442 788q0 42 30.5 72.5t72.5 30.5q41 0 70.5 -30.5t29.5 -72.5q0 -43 -29.5 -72.5t-70.5 -29.5q-43 0 -73 29.5t-30 72.5zM94 223l225 1143q9 46 -3.5 66.5t-61.5 40.5l-74 30l2 13l318 30l8 -6q-24 -107 -51 -248l-211 -1081q-13 -63 -13 -94q0 -63 97 -15q22 12 51 29
l57 35l11 -14q-180 -168 -297 -168q-41 0 -61.5 24t-20.5 60q0 41 24 155z" />
    <glyph glyph-name="Lslash" unicode="&#x141;" horiz-adv-x="1050" 
d="M18 530l11 50l172 63l114 647q9 49 -3 66t-58 28l-72 17l4 18h482l-6 -22l-89 -19q-49 -11 -66 -27.5t-26 -64.5l-100 -575l434 161l-10 -47l-432 -161l-80 -459q-17 -100 23 -132t182 -32q83 0 125.5 2.5t79 14.5t57 30.5t49.5 56.5q67 88 164 269h24l-104 -414h-956
l2 16l79 17q47 11 65.5 29.5t27.5 64.5l82 469z" />
    <glyph glyph-name="lslash" unicode="&#x142;" horiz-adv-x="495" 
d="M33 672l8 47l168 86l110 561q9 46 -3.5 66.5t-61.5 40.5l-74 30l2 13l318 30l8 -6q-24 -107 -51 -248l-78 -399l188 98l-8 -47l-190 -98l-123 -635q-13 -63 -13 -94q0 -63 97 -15q22 12 51 29l57 35l11 -14q-180 -168 -297 -168q-41 0 -61.5 24t-20.5 60q0 41 24 155
l105 535z" />
    <glyph glyph-name="Nacute" unicode="&#x143;" horiz-adv-x="1282" 
d="M625 1483l-9 16l299 203q36 22 62 22q35 0 55.5 -21.5t20.5 -53.5q0 -26 -21.5 -47t-54.5 -29zM1004 279l172 964q4 39 5.5 62.5t-13 39.5t-33 25t-56.5 19l-47 12l4 18h367l-4 -18l-56 -15q-62 -17 -82 -41t-32 -94l-225 -1261h-60l-569 1300h-6l-197 -1114
q-13 -74 6 -100.5t90 -44.5l51 -13l-4 -18h-381l5 18l65 15q49 11 75 41t38 94l198 1122q9 49 -3 66t-58 28l-72 17l4 18h314l499 -1140h5z" />
    <glyph glyph-name="nacute" unicode="&#x144;" horiz-adv-x="1079" 
d="M879 1278l-322 -100l-8 14l250 215q36 31 63 31q35 0 57.5 -23.5t22.5 -54.5q0 -62 -63 -82zM745 -16q-79 0 -79 84q0 57 24 155l105 463q26 113 30.5 174.5t-10 87t-51.5 25.5q-38 0 -88 -28t-107 -80t-103.5 -100t-103.5 -112l-145 -653h-156l177 834q12 62 12 92
q0 19 -9.5 27.5t-37 1.5t-70.5 -37l-57 -39l-10 14q169 174 270 174q30 0 52 -20.5t22 -57.5q0 -56 -50 -284h5q70 83 125 141t116.5 112t118.5 81.5t109 27.5q74 0 111.5 -45.5t37.5 -128.5q0 -61 -37 -219l-104 -463q-17 -82 -17 -102q0 -63 133 12l58 33l10 -15
q-97 -89 -161.5 -122t-119.5 -33z" />
    <glyph glyph-name="Ncommaaccent" unicode="&#x145;" horiz-adv-x="1282" 
d="M344 -430l-4 16q189 47 203 168q-21 -18 -62 -18q-34 0 -54.5 21.5t-20.5 58.5t28.5 61.5t67.5 24.5q52 0 83 -29.5t31 -81.5q0 -84 -72.5 -144t-199.5 -77zM1004 279l172 964q4 39 5.5 62.5t-13 39.5t-33 25t-56.5 19l-47 12l4 18h367l-4 -18l-56 -15q-62 -17 -82 -41
t-32 -94l-225 -1261h-60l-569 1300h-6l-197 -1114q-13 -74 6 -100.5t90 -44.5l51 -13l-4 -18h-381l5 18l65 15q49 11 75 41t38 94l198 1122q9 49 -3 66t-58 28l-72 17l4 18h314l499 -1140h5z" />
    <glyph glyph-name="ncommaaccent" unicode="&#x146;" horiz-adv-x="1079" 
d="M266 -430l-4 16q189 47 203 168q-21 -18 -62 -18q-34 0 -54.5 21.5t-20.5 58.5t28.5 61.5t67.5 24.5q52 0 83.5 -29.5t31.5 -81.5q0 -84 -72.5 -144t-200.5 -77zM745 -16q-79 0 -79 84q0 57 24 155l105 463q26 113 30.5 174.5t-10 87t-51.5 25.5q-38 0 -88 -28t-107 -80
t-103.5 -100t-103.5 -112l-145 -653h-156l177 834q12 62 12 92q0 19 -9.5 27.5t-37 1.5t-70.5 -37l-57 -39l-10 14q169 174 270 174q30 0 52 -20.5t22 -57.5q0 -56 -50 -284h5q70 83 125 141t116.5 112t118.5 81.5t109 27.5q74 0 111.5 -45.5t37.5 -128.5q0 -61 -37 -219
l-104 -463q-17 -82 -17 -102q0 -63 133 12l58 33l10 -15q-97 -89 -161.5 -122t-119.5 -33z" />
    <glyph glyph-name="Ncaron" unicode="&#x147;" horiz-adv-x="1282" 
d="M1108 1747l8 -12l-287 -242h-63l-186 240l10 12l227 -115zM1004 279l172 964q4 39 5.5 62.5t-13 39.5t-33 25t-56.5 19l-47 12l4 18h367l-4 -18l-56 -15q-62 -17 -82 -41t-32 -94l-225 -1261h-60l-569 1300h-6l-197 -1114q-13 -74 6 -100.5t90 -44.5l51 -13l-4 -18h-381
l5 18l65 15q49 11 75 41t38 94l198 1122q9 49 -3 66t-58 28l-72 17l4 18h314l499 -1140h5z" />
    <glyph glyph-name="ncaron" unicode="&#x148;" horiz-adv-x="1079" 
d="M928 1456l10 -12l-283 -264h-61l-158 268l13 10l196 -141zM745 -16q-79 0 -79 84q0 57 24 155l105 463q26 113 30.5 174.5t-10 87t-51.5 25.5q-38 0 -88 -28t-107 -80t-103.5 -100t-103.5 -112l-145 -653h-156l177 834q12 62 12 92q0 19 -9.5 27.5t-37 1.5t-70.5 -37
l-57 -39l-10 14q169 174 270 174q30 0 52 -20.5t22 -57.5q0 -56 -50 -284h5q70 83 125 141t116.5 112t118.5 81.5t109 27.5q74 0 111.5 -45.5t37.5 -128.5q0 -61 -37 -219l-104 -463q-17 -82 -17 -102q0 -63 133 12l58 33l10 -15q-97 -89 -161.5 -122t-119.5 -33z" />
    <glyph glyph-name="napostrophe" unicode="&#x149;" horiz-adv-x="1079" 
d="M745 -16q-79 0 -79 84q0 57 24 155l105 463q26 113 30.5 174.5t-10 87t-51.5 25.5q-38 0 -88 -28t-107 -80t-103.5 -100t-103.5 -112l-145 -653h-156l177 834q12 62 12 92q0 19 -9.5 27.5t-37 1.5t-70.5 -37l-57 -39l-10 14q169 174 270 174q30 0 52 -20.5t22 -57.5
q0 -56 -50 -284h5q70 83 125 141t116.5 112t118.5 81.5t109 27.5q74 0 111.5 -45.5t37.5 -128.5q0 -61 -37 -219l-104 -463q-17 -82 -17 -102q0 -63 133 12l58 33l10 -15q-97 -89 -161.5 -122t-119.5 -33zM18 1090l-4 16q189 47 203 168q-22 -19 -61 -19q-34 0 -55 22
t-21 58q0 37 28.5 61.5t67.5 24.5q52 0 83.5 -29t31.5 -81q0 -84 -72.5 -144t-200.5 -77z" />
    <glyph glyph-name="Eng" unicode="&#x14a;" horiz-adv-x="1282" 
d="M1229 1251l-217 -1212q-34 -191 -100 -270.5t-189 -79.5q-83 0 -127.5 31t-44.5 85q0 39 23.5 64t62.5 25q44 0 66 -26.5t28 -78.5q1 -4 2 -10q5 -27 11 -36t26 -9q64 0 112.5 65.5t69.5 192.5l-577 1298h-6l-197 -1114q-13 -74 6 -100.5t90 -44.5l51 -13l-4 -18h-381
l5 18l65 15q49 11 75 41t38 94l198 1122q9 49 -3 66t-58 28l-72 17l4 18h314l499 -1140h5l172 964q4 39 5.5 62.5t-13 39.5t-33 25t-56.5 19l-47 12l4 18h367l-4 -18l-56 -15q-62 -17 -82 -41t-32 -94z" />
    <glyph glyph-name="eng" unicode="&#x14b;" horiz-adv-x="1062" 
d="M631 -127l164 813q17 86 24 139.5t3.5 87.5t-17.5 47t-41 13q-38 0 -88 -28t-107 -80t-103.5 -100t-103.5 -112l-145 -653h-156l177 834q12 62 12 92q0 20 -11 28t-38 0t-68 -36l-57 -39l-10 14q169 174 270 174q30 0 52 -20.5t22 -57.5q0 -56 -50 -284h5q70 83 125 141
t116.5 112t118.5 81.5t109 27.5q74 0 111.5 -45.5t37.5 -128.5q0 -46 -33 -211l-141 -686q-40 -198 -136 -310t-231 -112q-91 0 -137.5 33t-46.5 90q0 41 25 62.5t69 21.5q38 0 61 -26.5t29 -71.5q5 -40 14.5 -56t32.5 -16q90 0 142 262z" />
    <glyph glyph-name="Omacron" unicode="&#x14c;" horiz-adv-x="1302" 
d="M561 1544l14 78h510l-16 -78h-508zM586 -20q-108 0 -203.5 42.5t-165.5 118t-110.5 185t-40.5 237.5q0 150 39.5 287.5t109 243t160.5 184.5t198.5 120.5t217.5 41.5q152 0 267.5 -79t175.5 -214.5t60 -304.5q0 -184 -59 -346.5t-156.5 -274.5t-226.5 -176.5t-266 -64.5z
M594 20q150 0 268.5 114.5t185 320.5t66.5 467q0 477 -323 477q-153 0 -278.5 -117t-197 -321t-71.5 -453q0 -488 350 -488z" />
    <glyph glyph-name="omacron" unicode="&#x14d;" horiz-adv-x="1005" 
d="M387 1233l14 78h459l-12 -78h-461zM403 -20q-158 0 -259 117t-101 294q0 104 24.5 199t66.5 167.5t97 132t117 98t126.5 59t125.5 20.5q160 0 261.5 -117.5t101.5 -294.5q0 -128 -34.5 -240t-91.5 -190t-130.5 -134.5t-151 -83.5t-152.5 -27zM403 16q106 0 198 96.5
t145 258.5t53 348q0 160 -49 235.5t-150 75.5q-103 0 -193.5 -93t-145 -255.5t-54.5 -353.5q0 -160 48.5 -236t147.5 -76z" />
    <glyph glyph-name="Obreve" unicode="&#x14e;" horiz-adv-x="1302" 
d="M809 1499q-112 0 -161.5 66.5t-47.5 173.5l14 4q15 -63 68 -97t133 -34q86 0 148 36t81 95l15 -4q-10 -107 -71.5 -173.5t-178.5 -66.5zM586 -20q-108 0 -203.5 42.5t-165.5 118t-110.5 185t-40.5 237.5q0 150 39.5 287.5t109 243t160.5 184.5t198.5 120.5t217.5 41.5
q152 0 267.5 -79t175.5 -214.5t60 -304.5q0 -184 -59 -346.5t-156.5 -274.5t-226.5 -176.5t-266 -64.5zM594 20q150 0 268.5 114.5t185 320.5t66.5 467q0 477 -323 477q-153 0 -278.5 -117t-197 -321t-71.5 -453q0 -488 350 -488z" />
    <glyph glyph-name="obreve" unicode="&#x14f;" horiz-adv-x="1005" 
d="M403 -20q-158 0 -259 117t-101 294q0 104 24.5 199t66.5 167.5t97 132t117 98t126.5 59t125.5 20.5q160 0 261.5 -117.5t101.5 -294.5q0 -128 -34.5 -240t-91.5 -190t-130.5 -134.5t-151 -83.5t-152.5 -27zM403 16q106 0 198 96.5t145 258.5t53 348q0 160 -49 235.5
t-150 75.5q-103 0 -193.5 -93t-145 -255.5t-54.5 -353.5q0 -160 48.5 -236t147.5 -76zM625 1188q-203 0 -199 235l14 2q30 -127 191 -127q85 0 142.5 34t76.5 93l14 -2q-10 -107 -68 -171t-171 -64z" />
    <glyph glyph-name="Ohungarumlaut" unicode="&#x150;" horiz-adv-x="1302" 
d="M629 1491l-13 12l162 244q34 49 76 49q33 0 55.5 -21t22.5 -53q0 -51 -62 -88zM948 1491l-12 12l162 244q34 49 76 49q33 0 55 -21t22 -53q0 -52 -61 -88zM586 -20q-108 0 -203.5 42.5t-165.5 118t-110.5 185t-40.5 237.5q0 150 39.5 287.5t109 243t160.5 184.5
t198.5 120.5t217.5 41.5q152 0 267.5 -79t175.5 -214.5t60 -304.5q0 -184 -59 -346.5t-156.5 -274.5t-226.5 -176.5t-266 -64.5zM594 20q150 0 268.5 114.5t185 320.5t66.5 467q0 477 -323 477q-153 0 -278.5 -117t-197 -321t-71.5 -453q0 -488 350 -488z" />
    <glyph glyph-name="ohungarumlaut" unicode="&#x151;" horiz-adv-x="1005" 
d="M436 1161l-12 13l164 258q33 55 78 55q35 0 57 -23t22 -59q0 -44 -51 -76zM754 1161l-13 13l164 258q33 55 78 55q35 0 57.5 -23.5t22.5 -58.5q0 -44 -51 -76zM403 -20q-158 0 -259 117t-101 294q0 104 24.5 199t66.5 167.5t97 132t117 98t126.5 59t125.5 20.5
q160 0 261.5 -117.5t101.5 -294.5q0 -128 -34.5 -240t-91.5 -190t-130.5 -134.5t-151 -83.5t-152.5 -27zM403 16q106 0 198 96.5t145 258.5t53 348q0 160 -49 235.5t-150 75.5q-103 0 -193.5 -93t-145 -255.5t-54.5 -353.5q0 -160 48.5 -236t147.5 -76z" />
    <glyph glyph-name="OE" unicode="&#x152;" horiz-adv-x="1812" 
d="M856 1419h952l4 -323h-18q-34 101 -70 168q-15 30 -26 47.5t-29 32t-33 20.5t-48.5 10.5t-64.5 5t-91 0.5q-139 0 -209 -18l-105 -604h103q82 0 128.5 8.5t67.5 23.5t39 44q25 47 62 137h18l-84 -465h-18q-5 85 -11 121q-4 27 -11.5 42.5t-19 26t-43 14.5t-64.5 5.5
t-101 1.5h-74l-82 -465q-7 -37 -10.5 -57.5t-4.5 -45.5t-1.5 -36.5t7 -26.5t12 -20t23.5 -12.5t31.5 -9t44.5 -3.5t55.5 -2h71.5q110 0 166.5 10t83.5 29t64 65q78 97 168 250h20l-108 -393h-1028q-262 0 -409.5 136t-147.5 411q0 191 62.5 355.5t169.5 277t251.5 176
t306.5 63.5zM864 1380q-116 0 -212.5 -42.5t-162.5 -114.5t-115 -160.5t-76.5 -188.5t-40.5 -190t-13 -172q0 -131 29 -225.5t82 -147.5t117.5 -76.5t145.5 -23.5q48 0 80 2.5t57.5 9.5t40 16.5t26 28t18 39.5t12.5 55l180 1043q6 34 7 57t-5.5 40t-17 26.5t-34 15t-49.5 7
t-69 1.5z" />
    <glyph glyph-name="oe" unicode="&#x153;" horiz-adv-x="1599" 
d="M1051 -20q-236 0 -267 202q-73 -99 -172 -150.5t-209 -51.5q-157 0 -258.5 117.5t-101.5 293.5q0 104 24.5 199t66.5 167.5t97 132t117 98t126.5 59t125.5 20.5q146 0 225 -88t93 -238q89 146 205.5 236t236.5 90q117 0 178 -52t61 -132q0 -129 -163 -238.5t-496 -169.5
q-22 -99 -22 -192q0 -112 49.5 -175t134.5 -63q91 0 167.5 41t170.5 125l14 -16q-74 -91 -178.5 -153t-224.5 -62zM403 16q105 0 196.5 93.5t145.5 251.5t54 339q0 167 -45 248.5t-154 81.5q-103 0 -193.5 -93t-145 -255.5t-54.5 -353.5q0 -160 48.5 -236t147.5 -76z
M1343 1030q-63 0 -141.5 -70t-149 -192t-106.5 -260q274 55 395 166q47 42 72 104.5t25 120.5q0 68 -26 99.5t-69 31.5z" />
    <glyph glyph-name="Racute" unicode="&#x154;" horiz-adv-x="1163" 
d="M502 1483l-8 16l299 203q36 22 61 22q35 0 55.5 -21.5t20.5 -53.5q0 -26 -21.5 -47t-54.5 -29zM-66 0l5 18l77 17q45 9 66.5 29t28.5 65l204 1161q9 50 -2 66.5t-57 27.5l-74 17l4 18h494q204 0 304.5 -84.5t100.5 -238.5t-105 -260t-273 -134v-6q138 -344 290 -594
q23 -38 41 -52t60 -23l35 -9l-3 -18h-268q-165 283 -311 684h-174l-96 -541q-9 -57 2.5 -76.5t68.5 -31.5l78 -17l-4 -18h-492zM512 723q106 0 185 30.5t125 85t68.5 122.5t22.5 149q0 139 -58 204.5t-191 65.5q-109 0 -166 -14l-113 -633q57 -10 127 -10z" />
    <glyph glyph-name="racute" unicode="&#x155;" horiz-adv-x="798" 
d="M774 1278l-321 -100l-9 14l250 215q36 31 64 31q35 0 57.5 -23.5t22.5 -54.5q0 -27 -16 -49.5t-48 -32.5zM61 0l177 834q12 54 12 92q0 20 -10.5 28t-37.5 0t-69 -36l-57 -39l-10 14q171 174 270 174q33 0 53.5 -21.5t20.5 -56.5q0 -102 -70 -375h6q56 95 102 165.5
t101 141t106.5 108.5t94.5 38q50 0 76 -25.5t26 -70.5q0 -41 -25 -71t-65 -30q-33 0 -55 14t-37.5 28t-30.5 14q-29 0 -117 -110t-184 -273l-121 -543h-156z" />
    <glyph glyph-name="Rcommaaccent" unicode="&#x156;" horiz-adv-x="1163" 
d="M354 -430l-4 16q189 47 203 168q-21 -18 -61 -18q-34 0 -55 22t-21 58q0 37 28.5 61.5t67.5 24.5q52 0 83.5 -29.5t31.5 -81.5q0 -84 -72.5 -144t-200.5 -77zM-66 0l5 18l77 17q45 9 66.5 29t28.5 65l204 1161q9 50 -2 66.5t-57 27.5l-74 17l4 18h494q204 0 304.5 -84.5
t100.5 -238.5t-105 -260t-273 -134v-6q138 -344 290 -594q23 -38 41 -52t60 -23l35 -9l-3 -18h-268q-165 283 -311 684h-174l-96 -541q-9 -57 2.5 -76.5t68.5 -31.5l78 -17l-4 -18h-492zM512 723q106 0 185 30.5t125 85t68.5 122.5t22.5 149q0 139 -58 204.5t-191 65.5
q-109 0 -166 -14l-113 -633q57 -10 127 -10z" />
    <glyph glyph-name="rcommaaccent" unicode="&#x157;" horiz-adv-x="798" 
d="M-57 -430l-4 16q188 47 202 168q-21 -18 -61 -18q-34 0 -55 22t-21 58q0 37 28.5 61.5t67.5 24.5q52 0 83.5 -29.5t31.5 -81.5q0 -84 -72.5 -144t-199.5 -77zM61 0l177 834q12 54 12 92q0 20 -10.5 28t-37.5 0t-69 -36l-57 -39l-10 14q171 174 270 174q33 0 53.5 -21.5
t20.5 -56.5q0 -102 -70 -375h6q56 95 102 165.5t101 141t106.5 108.5t94.5 38q50 0 76 -25.5t26 -70.5q0 -41 -25 -71t-65 -30q-33 0 -55 14t-37.5 28t-30.5 14q-29 0 -117 -110t-184 -273l-121 -543h-156z" />
    <glyph glyph-name="Rcaron" unicode="&#x158;" horiz-adv-x="1163" 
d="M967 1747l8 -12l-287 -242h-63l-187 240l11 12l227 -115zM-66 0l5 18l77 17q45 9 66.5 29t28.5 65l204 1161q9 50 -2 66.5t-57 27.5l-74 17l4 18h494q204 0 304.5 -84.5t100.5 -238.5t-105 -260t-273 -134v-6q138 -344 290 -594q23 -38 41 -52t60 -23l35 -9l-3 -18h-268
q-165 283 -311 684h-174l-96 -541q-9 -57 2.5 -76.5t68.5 -31.5l78 -17l-4 -18h-492zM512 723q106 0 185 30.5t125 85t68.5 122.5t22.5 149q0 139 -58 204.5t-191 65.5q-109 0 -166 -14l-113 -633q57 -10 127 -10z" />
    <glyph glyph-name="rcaron" unicode="&#x159;" horiz-adv-x="798" 
d="M846 1456l10 -12l-283 -264h-61l-158 268l13 10l196 -141zM61 0l177 834q12 54 12 92q0 20 -10.5 28t-37.5 0t-69 -36l-57 -39l-10 14q171 174 270 174q33 0 53.5 -21.5t20.5 -56.5q0 -102 -70 -375h6q56 95 102 165.5t101 141t106.5 108.5t94.5 38q50 0 76 -25.5
t26 -70.5q0 -41 -25 -71t-65 -30q-33 0 -55 14t-37.5 28t-30.5 14q-29 0 -117 -110t-184 -273l-121 -543h-156z" />
    <glyph glyph-name="Sacute" unicode="&#x15a;" horiz-adv-x="972" 
d="M412 -20q-250 0 -400 108l31 336h18q17 -88 64 -238q28 -90 85.5 -129t192.5 -39q82 0 145 24.5t100.5 67.5t56 97.5t18.5 118.5q0 97 -60.5 176.5t-209.5 181.5q-138 95 -198 182.5t-60 192.5q0 85 36.5 157.5t97.5 121t140.5 75.5t165.5 27q202 0 326 -70l-19 -309h-18
q-32 116 -70 203q-32 77 -85.5 108t-150.5 31q-123 0 -202.5 -77t-79.5 -206q0 -75 46.5 -143t176.5 -158q178 -122 246.5 -215.5t68.5 -206.5q0 -184 -134.5 -300.5t-327.5 -116.5zM461 1483l-8 16l299 203q36 22 61 22q35 0 55.5 -21.5t20.5 -53.5q0 -26 -21.5 -47
t-54.5 -29z" />
    <glyph glyph-name="sacute" unicode="&#x15b;" horiz-adv-x="747" 
d="M686 1278l-321 -100l-9 14l250 215q36 31 64 31q35 0 57.5 -23.5t22.5 -54.5q0 -27 -16 -49.5t-48 -32.5zM268 -20q-143 0 -214.5 42.5t-71.5 110.5q0 35 21.5 58.5t59.5 23.5q36 0 58.5 -20.5t38.5 -77.5q15 -56 42.5 -77.5t88.5 -21.5q86 0 145.5 59t59.5 144
q0 70 -36 122.5t-132 131.5q-102 83 -143.5 149.5t-41.5 137.5q0 133 101.5 219t244.5 86q113 0 180.5 -38.5t67.5 -98.5q0 -38 -21 -60t-57 -22q-41 0 -62.5 23t-37.5 77q-14 45 -33 62.5t-63 17.5q-86 0 -141.5 -59.5t-55.5 -141.5q0 -60 37 -109t146 -136
q95 -74 138.5 -140t43.5 -145q0 -138 -101 -227.5t-262 -89.5z" />
    <glyph glyph-name="Scircumflex" unicode="&#x15c;" horiz-adv-x="972" 
d="M360 1479l-8 12l287 242h63l187 -240l-10 -12l-228 114zM412 -20q-250 0 -400 108l31 336h18q17 -88 64 -238q28 -90 85.5 -129t192.5 -39q82 0 145 24.5t100.5 67.5t56 97.5t18.5 118.5q0 97 -60.5 176.5t-209.5 181.5q-138 95 -198 182.5t-60 192.5q0 85 36.5 157.5
t97.5 121t140.5 75.5t165.5 27q202 0 326 -70l-19 -309h-18q-32 116 -70 203q-32 77 -85.5 108t-150.5 31q-123 0 -202.5 -77t-79.5 -206q0 -75 46.5 -143t176.5 -158q178 -122 246.5 -215.5t68.5 -206.5q0 -184 -134.5 -300.5t-327.5 -116.5z" />
    <glyph glyph-name="scircumflex" unicode="&#x15d;" horiz-adv-x="747" 
d="M246 1165l-10 13l282 264h62l157 -268l-12 -11l-197 142zM268 -20q-143 0 -214.5 42.5t-71.5 110.5q0 35 21.5 58.5t59.5 23.5q36 0 58.5 -20.5t38.5 -77.5q15 -56 42.5 -77.5t88.5 -21.5q86 0 145.5 59t59.5 144q0 70 -36 122.5t-132 131.5q-102 83 -143.5 149.5
t-41.5 137.5q0 133 101.5 219t244.5 86q113 0 180.5 -38.5t67.5 -98.5q0 -38 -21 -60t-57 -22q-41 0 -62.5 23t-37.5 77q-14 45 -33 62.5t-63 17.5q-86 0 -141.5 -59.5t-55.5 -141.5q0 -60 37 -109t146 -136q95 -74 138.5 -140t43.5 -145q0 -138 -101 -227.5t-262 -89.5z
" />
    <glyph glyph-name="Scedilla" unicode="&#x15e;" horiz-adv-x="972" 
d="M109 -401q202 44 202 143q0 53 -102 72l-8 16l110 154q-184 19 -299 104l31 336h18q17 -88 64 -238q28 -90 85.5 -129t192.5 -39q82 0 145 24.5t100.5 67.5t56 97.5t18.5 118.5q0 97 -60.5 176.5t-209.5 181.5q-138 95 -198 182.5t-60 192.5q0 85 36.5 157.5t97.5 121
t140.5 75.5t165.5 27q202 0 326 -70l-19 -309h-18q-32 116 -70 203q-32 77 -85.5 108t-150.5 31q-123 0 -202.5 -77t-79.5 -206q0 -75 46.5 -143t176.5 -158q178 -122 246.5 -215.5t68.5 -206.5q0 -184 -134.5 -300.5t-327.5 -116.5q-29 0 -43 2l-74 -88q61 -8 102 -39.5
t41 -87.5q0 -146 -329 -187v19z" />
    <glyph glyph-name="scedilla" unicode="&#x15f;" horiz-adv-x="747" 
d="M25 -401q202 44 202 143q0 53 -102 72l-8 16l108 152q-122 6 -182.5 47.5t-60.5 103.5q0 35 21.5 58.5t59.5 23.5q36 0 58.5 -20.5t38.5 -77.5q15 -56 42.5 -77.5t88.5 -21.5q86 0 145.5 59t59.5 144q0 70 -36 122.5t-132 131.5q-102 83 -143.5 149.5t-41.5 137.5
q0 133 101.5 219t244.5 86q113 0 180.5 -38.5t67.5 -98.5q0 -38 -21 -60t-57 -22q-41 0 -62.5 23t-37.5 77q-14 45 -33 62.5t-63 17.5q-86 0 -141.5 -59.5t-55.5 -141.5q0 -60 37 -109t146 -136q95 -74 138.5 -140t43.5 -145q0 -135 -96.5 -224t-251.5 -93l-72 -86
q61 -8 102 -39.5t41 -87.5q0 -146 -329 -187v19z" />
    <glyph glyph-name="Scaron" unicode="&#x160;" horiz-adv-x="972" 
d="M936 1747l8 -12l-287 -242h-63l-186 240l10 12l227 -115zM412 -20q-250 0 -400 108l31 336h18q17 -88 64 -238q28 -90 85.5 -129t192.5 -39q82 0 145 24.5t100.5 67.5t56 97.5t18.5 118.5q0 97 -60.5 176.5t-209.5 181.5q-138 95 -198 182.5t-60 192.5q0 85 36.5 157.5
t97.5 121t140.5 75.5t165.5 27q202 0 326 -70l-19 -309h-18q-32 116 -70 203q-32 77 -85.5 108t-150.5 31q-123 0 -202.5 -77t-79.5 -206q0 -75 46.5 -143t176.5 -158q178 -122 246.5 -215.5t68.5 -206.5q0 -184 -134.5 -300.5t-327.5 -116.5z" />
    <glyph glyph-name="scaron" unicode="&#x161;" horiz-adv-x="747" 
d="M780 1456l11 -12l-283 -264h-62l-157 268l12 10l197 -141zM268 -20q-143 0 -214.5 42.5t-71.5 110.5q0 35 21.5 58.5t59.5 23.5q36 0 58.5 -20.5t38.5 -77.5q15 -56 42.5 -77.5t88.5 -21.5q86 0 145.5 59t59.5 144q0 70 -36 122.5t-132 131.5q-102 83 -143.5 149.5
t-41.5 137.5q0 133 101.5 219t244.5 86q113 0 180.5 -38.5t67.5 -98.5q0 -38 -21 -60t-57 -22q-41 0 -62.5 23t-37.5 77q-14 45 -33 62.5t-63 17.5q-86 0 -141.5 -59.5t-55.5 -141.5q0 -60 37 -109t146 -136q95 -74 138.5 -140t43.5 -145q0 -138 -101 -227.5t-262 -89.5z
" />
    <glyph glyph-name="Tcommaaccent" unicode="&#x162;" horiz-adv-x="1136" 
d="M281 -430l-5 16q189 47 203 168q-21 -18 -61 -18q-34 0 -55 22t-21 58q0 37 28.5 61.5t67.5 24.5q52 0 83.5 -29.5t31.5 -81.5q0 -84 -72.5 -144t-199.5 -77zM236 0l4 18l82 17q51 11 70 30t28 68l221 1243h-41q-72 0 -112 -2.5t-79 -9.5t-63 -23.5t-46.5 -41.5
t-45.5 -66q-76 -136 -107 -199h-24l88 385h1032l-33 -385h-24q-23 129 -39 203q-15 64 -40.5 91t-79.5 37.5t-173 10.5h-47l-219 -1241q-9 -52 5 -72t69 -30l73 -15l-4 -18h-495z" />
    <glyph glyph-name="tcommaaccent" unicode="&#x163;" horiz-adv-x="602" 
d="M-31 -430l-4 16q189 47 203 168q-21 -18 -62 -18q-34 0 -54.5 21.5t-20.5 58.5t28.5 61.5t67.5 24.5q52 0 83.5 -29.5t31.5 -81.5q0 -84 -72.5 -144t-200.5 -77zM184 -16q-52 0 -81 28.5t-29 83.5q0 48 18 133l158 742h-144l5 18l151 43l37 172l150 58h16l-47 -228h233
l-16 -63h-232l-153 -731q-14 -61 -14 -99q0 -68 41 -68q47 0 192 99l45 31l14 -17q-98 -98 -187 -150t-157 -52z" />
    <glyph glyph-name="Tcaron" unicode="&#x164;" horiz-adv-x="1136" 
d="M1040 1747l9 -12l-287 -242h-64l-186 240l10 12l228 -115zM236 0l4 18l82 17q51 11 70 30t28 68l221 1243h-41q-72 0 -112 -2.5t-79 -9.5t-63 -23.5t-46.5 -41.5t-45.5 -66q-76 -136 -107 -199h-24l88 385h1032l-33 -385h-24q-23 129 -39 203q-15 64 -40.5 91t-79.5 37.5
t-173 10.5h-47l-219 -1241q-9 -52 5 -72t69 -30l73 -15l-4 -18h-495z" />
    <glyph glyph-name="tcaron" unicode="&#x165;" horiz-adv-x="602" 
d="M545 1210l-15 7l54 262q15 75 75 75q30 0 51 -18.5t21 -48.5q0 -39 -31 -78zM184 -16q-52 0 -81 28.5t-29 83.5q0 48 18 133l158 742h-144l5 18l151 43l37 172l150 58h16l-47 -228h233l-16 -63h-232l-153 -731q-14 -61 -14 -99q0 -68 41 -68q47 0 192 99l45 31l14 -17
q-98 -98 -187 -150t-157 -52z" />
    <glyph glyph-name="Tbar" unicode="&#x166;" horiz-adv-x="1136" 
d="M248 768l10 43h281l102 565h-41q-72 0 -112 -2.5t-79 -9.5t-63 -23.5t-46.5 -41.5t-45.5 -66q-76 -136 -107 -199h-24l88 385h1032l-33 -385h-24q-23 129 -39 203q-15 64 -40.5 91t-79.5 37.5t-173 10.5h-47l-100 -565h290l-10 -43h-289l-110 -633q-9 -52 5 -72t69 -30
l73 -15l-4 -18h-495l4 18l82 17q51 11 70 30t28 68l112 635h-284z" />
    <glyph glyph-name="tbar" unicode="&#x167;" horiz-adv-x="602" 
d="M66 686l6 35h125l53 250h-144l5 18l151 43l37 172l150 58h16l-47 -228h233l-16 -63h-232l-53 -250h230l-9 -35h-227l-94 -446q-14 -61 -14 -99q0 -68 41 -68q47 0 192 99l45 31l14 -17q-98 -98 -187 -150t-157 -52q-52 0 -81 28.5t-29 83.5q0 48 18 133l96 457h-122z" />
    <glyph glyph-name="Utilde" unicode="&#x168;" horiz-adv-x="1273" 
d="M1055 451l141 792q13 75 -5 101t-91 45l-49 12l4 18h366l-4 -18l-57 -15q-55 -14 -78 -40.5t-35 -94.5l-147 -829q-18 -98 -49.5 -172.5t-86.5 -138t-143 -97.5t-207 -34q-555 0 -467 507l140 799q9 53 -2.5 70t-59.5 28l-69 17l4 18h477l-4 -18l-88 -17
q-48 -9 -65.5 -27.5t-26.5 -70.5l-140 -788q-43 -241 42 -349t294 -108q98 0 170.5 30t118.5 87.5t73.5 128t43.5 164.5zM578 1485l-17 8q50 118 87 163.5t104 45.5q48 0 148 -25.5t140 -25.5q33 0 60 21t57 71l19 -8q-48 -111 -89 -158t-106 -47q-47 0 -143 24.5t-136 24.5
q-67 0 -124 -94z" />
    <glyph glyph-name="utilde" unicode="&#x169;" horiz-adv-x="1046" 
d="M410 1180l-17 6q48 114 86.5 158.5t106.5 44.5q48 0 125 -30t116 -30q60 0 121 101l19 -7q-48 -112 -87 -157t-104 -45q-47 0 -124 31.5t-117 31.5q-62 0 -125 -104zM244 -20q-68 0 -114 43t-46 129q0 82 31 208l110 486q1 8 4.5 22.5t5 26.5t1.5 25q0 21 -13 29t-40 0.5
t-64 -31.5l-58 -39l-10 14q98 98 157.5 136t104.5 38q84 0 84 -92q0 -23 -2.5 -46.5t-5 -35.5l-10 -48t-10.5 -50l-97 -430q-36 -172 -25 -235.5t66 -63.5q134 0 387 317l140 651h153l-174 -823q-14 -72 -14 -94q0 -69 129 4l57 33l10 -15q-91 -87 -155.5 -121t-120.5 -34
q-37 0 -59.5 24t-22.5 68q0 74 51 243h-4q-141 -178 -243 -258.5t-203 -80.5z" />
    <glyph glyph-name="Umacron" unicode="&#x16a;" horiz-adv-x="1273" 
d="M1055 451l141 792q13 75 -5 101t-91 45l-49 12l4 18h366l-4 -18l-57 -15q-55 -14 -78 -40.5t-35 -94.5l-147 -829q-18 -98 -49.5 -172.5t-86.5 -138t-143 -97.5t-207 -34q-555 0 -467 507l140 799q9 53 -2.5 70t-59.5 28l-69 17l4 18h477l-4 -18l-88 -17
q-48 -9 -65.5 -27.5t-26.5 -70.5l-140 -788q-43 -241 42 -349t294 -108q98 0 170.5 30t118.5 87.5t73.5 128t43.5 164.5zM594 1544l14 78h510l-16 -78h-508z" />
    <glyph glyph-name="umacron" unicode="&#x16b;" horiz-adv-x="1046" 
d="M412 1233l14 78h459l-13 -78h-460zM244 -20q-68 0 -114 43t-46 129q0 82 31 208l110 486q1 8 4.5 22.5t5 26.5t1.5 25q0 21 -13 29t-40 0.5t-64 -31.5l-58 -39l-10 14q98 98 157.5 136t104.5 38q84 0 84 -92q0 -23 -2.5 -46.5t-5 -35.5l-10 -48t-10.5 -50l-97 -430
q-36 -172 -25 -235.5t66 -63.5q134 0 387 317l140 651h153l-174 -823q-14 -72 -14 -94q0 -69 129 4l57 33l10 -15q-91 -87 -155.5 -121t-120.5 -34q-37 0 -59.5 24t-22.5 68q0 74 51 243h-4q-141 -178 -243 -258.5t-203 -80.5z" />
    <glyph glyph-name="Ubreve" unicode="&#x16c;" horiz-adv-x="1273" 
d="M1055 451l141 792q13 75 -5 101t-91 45l-49 12l4 18h366l-4 -18l-57 -15q-55 -14 -78 -40.5t-35 -94.5l-147 -829q-18 -98 -49.5 -172.5t-86.5 -138t-143 -97.5t-207 -34q-555 0 -467 507l140 799q9 53 -2.5 70t-59.5 28l-69 17l4 18h477l-4 -18l-88 -17
q-48 -9 -65.5 -27.5t-26.5 -70.5l-140 -788q-43 -241 42 -349t294 -108q98 0 170.5 30t118.5 87.5t73.5 128t43.5 164.5zM840 1499q-112 0 -161.5 66.5t-47.5 173.5l14 4q15 -63 68 -97t133 -34q86 0 148 36t81 95l15 -4q-10 -107 -71.5 -173.5t-178.5 -66.5z" />
    <glyph glyph-name="ubreve" unicode="&#x16d;" horiz-adv-x="1046" 
d="M639 1188q-203 0 -199 235l15 2q30 -127 190 -127q85 0 142.5 34t76.5 93l15 -2q-10 -106 -68.5 -170.5t-171.5 -64.5zM244 -20q-68 0 -114 43t-46 129q0 82 31 208l110 486q1 8 4.5 22.5t5 26.5t1.5 25q0 21 -13 29t-40 0.5t-64 -31.5l-58 -39l-10 14q98 98 157.5 136
t104.5 38q84 0 84 -92q0 -23 -2.5 -46.5t-5 -35.5l-10 -48t-10.5 -50l-97 -430q-36 -172 -25 -235.5t66 -63.5q134 0 387 317l140 651h153l-174 -823q-14 -72 -14 -94q0 -69 129 4l57 33l10 -15q-91 -87 -155.5 -121t-120.5 -34q-37 0 -59.5 24t-22.5 68q0 74 51 243h-4
q-141 -178 -243 -258.5t-203 -80.5z" />
    <glyph glyph-name="Uring" unicode="&#x16e;" horiz-adv-x="1273" 
d="M1055 451l141 792q13 75 -5 101t-91 45l-49 12l4 18h366l-4 -18l-57 -15q-55 -14 -78 -40.5t-35 -94.5l-147 -829q-18 -98 -49.5 -172.5t-86.5 -138t-143 -97.5t-207 -34q-555 0 -467 507l140 799q9 53 -2.5 70t-59.5 28l-69 17l4 18h477l-4 -18l-88 -17
q-48 -9 -65.5 -27.5t-26.5 -70.5l-140 -788q-43 -241 42 -349t294 -108q98 0 170.5 30t118.5 87.5t73.5 128t43.5 164.5zM692 1606q0 66 47 111.5t117 45.5t118 -45.5t48 -111.5t-48 -111t-118 -45t-117 45t-47 111zM739 1606q0 -48 33 -82.5t84 -34.5t85 34.5t34 82.5
t-34 83t-85 35t-84 -34.5t-33 -83.5z" />
    <glyph glyph-name="uring" unicode="&#x16f;" horiz-adv-x="1046" 
d="M492 1333q0 67 46.5 112.5t116.5 45.5t118 -46t48 -112t-47.5 -110.5t-118.5 -44.5q-70 0 -116.5 44.5t-46.5 110.5zM539 1333q0 -49 32.5 -82.5t83.5 -33.5q52 0 85.5 34t33.5 82t-34 83.5t-85 35.5t-83.5 -35t-32.5 -84zM244 -20q-68 0 -114 43t-46 129q0 82 31 208
l110 486q1 8 4.5 22.5t5 26.5t1.5 25q0 21 -13 29t-40 0.5t-64 -31.5l-58 -39l-10 14q98 98 157.5 136t104.5 38q84 0 84 -92q0 -23 -2.5 -46.5t-5 -35.5l-10 -48t-10.5 -50l-97 -430q-36 -172 -25 -235.5t66 -63.5q134 0 387 317l140 651h153l-174 -823q-14 -72 -14 -94
q0 -69 129 4l57 33l10 -15q-91 -87 -155.5 -121t-120.5 -34q-37 0 -59.5 24t-22.5 68q0 74 51 243h-4q-141 -178 -243 -258.5t-203 -80.5z" />
    <glyph glyph-name="Uhungarumlaut" unicode="&#x170;" horiz-adv-x="1273" 
d="M645 1491l-12 12l162 244q34 49 75 49q33 0 55.5 -21t22.5 -53q0 -52 -61 -88zM965 1491l-13 12l162 244q34 49 76 49q33 0 55.5 -21t22.5 -53q0 -51 -62 -88zM1055 451l141 792q13 75 -5 101t-91 45l-49 12l4 18h366l-4 -18l-57 -15q-55 -14 -78 -40.5t-35 -94.5
l-147 -829q-18 -98 -49.5 -172.5t-86.5 -138t-143 -97.5t-207 -34q-555 0 -467 507l140 799q9 53 -2.5 70t-59.5 28l-69 17l4 18h477l-4 -18l-88 -17q-48 -9 -65.5 -27.5t-26.5 -70.5l-140 -788q-43 -241 42 -349t294 -108q98 0 170.5 30t118.5 87.5t73.5 128t43.5 164.5z
" />
    <glyph glyph-name="uhungarumlaut" unicode="&#x171;" horiz-adv-x="1046" 
d="M442 1161l-12 13l164 258q33 55 78 55q35 0 57.5 -23.5t22.5 -58.5q0 -44 -52 -76zM760 1161l-12 13l163 258q33 55 78 55q35 0 57.5 -23.5t22.5 -58.5q0 -44 -51 -76zM244 -20q-68 0 -114 43t-46 129q0 82 31 208l110 486q1 8 4.5 22.5t5 26.5t1.5 25q0 21 -13 29
t-40 0.5t-64 -31.5l-58 -39l-10 14q98 98 157.5 136t104.5 38q84 0 84 -92q0 -23 -2.5 -46.5t-5 -35.5l-10 -48t-10.5 -50l-97 -430q-36 -172 -25 -235.5t66 -63.5q134 0 387 317l140 651h153l-174 -823q-14 -72 -14 -94q0 -69 129 4l57 33l10 -15q-91 -87 -155.5 -121
t-120.5 -34q-37 0 -59.5 24t-22.5 68q0 74 51 243h-4q-141 -178 -243 -258.5t-203 -80.5z" />
    <glyph glyph-name="Uogonek" unicode="&#x172;" horiz-adv-x="1273" 
d="M557 -420q-69 0 -106 38.5t-35 96.5q1 81 89.5 154.5t209.5 118.5q-36 -8 -101 -8q-555 0 -467 507l140 799q9 53 -2.5 70t-59.5 28l-69 17l4 18h477l-4 -18l-88 -17q-48 -9 -65.5 -27.5t-26.5 -70.5l-140 -788q-43 -241 42 -349t294 -108q98 0 170.5 30t118.5 87.5
t73.5 128t43.5 164.5l141 792q13 75 -5 101t-91 45l-49 12l4 18h366l-4 -18l-57 -15q-55 -14 -78 -40.5t-35 -94.5l-147 -829q-28 -149 -90.5 -248t-180.5 -158q-135 -67 -213 -133.5t-81 -142.5q-3 -96 90 -96q33 0 82 18l-5 -20q-31 -28 -72.5 -45t-72.5 -17z" />
    <glyph glyph-name="uogonek" unicode="&#x173;" horiz-adv-x="1046" 
d="M631 -420q-64 0 -101.5 35t-37.5 88q0 21 5.5 41t12 36.5t22.5 35.5t25.5 31t32.5 29.5t33 25.5t37 24.5t34.5 21t36 21t31.5 17.5q-12 -2 -37 -2q-34 0 -58 22t-24 70q0 74 51 243h-4q-141 -178 -243 -258.5t-203 -80.5q-68 0 -114 43t-46 129q0 82 31 208l110 486
q11 46 11 74q0 19 -12.5 28t-40 2t-64.5 -32l-58 -39l-10 14q100 100 159 137t103 37q84 0 84 -92q0 -23 -2.5 -46.5t-5 -35.5l-10 -48t-10.5 -50l-97 -430q-36 -172 -25 -235.5t66 -63.5q134 0 387 317l140 651h153l-174 -823q-14 -72 -14 -94q0 -69 129 4l57 33l10 -15
q-54 -50 -143 -116q-11 -9 -52 -38t-59 -43t-50 -43t-47 -50t-27.5 -50.5t-12.5 -58.5q0 -96 88 -96q37 0 82 18l-4 -20q-30 -29 -69.5 -45.5t-75.5 -16.5z" />
    <glyph glyph-name="Wcircumflex" unicode="&#x174;" horiz-adv-x="1705" 
d="M735 1479l-8 12l287 242h63l187 -240l-11 -12l-227 114zM377 0l-141 1200q-12 99 -27 132t-57 50l-46 19l5 18h442l-4 -18l-68 -17q-68 -15 -84 -51q-8 -29 -7.5 -48t7.5 -79l107 -958h4l426 829l-14 111q-15 117 -31.5 150t-65.5 48l-45 15l4 18h437l-5 -18l-43 -12
q-38 -10 -58 -21t-30 -33q-18 -37 -8 -129l113 -948h6l416 922q43 99 43 139q0 26 -15.5 43t-50.5 27l-39 12l4 18h338l-4 -18l-47 -19q-66 -26 -92 -58t-80 -148l-539 -1176h-65l-117 981h-6l-506 -981h-57z" />
    <glyph glyph-name="wcircumflex" unicode="&#x175;" horiz-adv-x="1390" 
d="M537 1165l-11 13l283 264h61l158 -268l-12 -11l-197 142zM879 825q15 -320 2 -659h4q163 175 286 370t123 271q0 30 -13 52.5t-28 34.5t-28 34t-13 51q0 38 24.5 63t61.5 25q45 0 72 -25t27 -77q0 -142 -153 -393t-453 -572h-56q6 452 2 594h-2q-157 -275 -430 -594h-67
q-2 375 -5 526.5t-14 266.5q-11 117 -38 145t-93 -16l-61 -43l-11 14q83 94 134.5 134t101.5 40q59 0 84.5 -54.5t36.5 -178.5q25 -270 14 -670h4q228 288 342 506q1 17 -1.5 66t-2.5 55q-7 121 -32.5 148t-86.5 -17l-61 -43l-10 14q85 95 133.5 134.5t93.5 39.5
q56 0 81.5 -57.5t31.5 -184.5z" />
    <glyph glyph-name="Ycircumflex" unicode="&#x176;" horiz-adv-x="1099" 
d="M209 0l4 18l82 17q51 11 69 28t27 66l80 438l-213 684q-24 75 -41.5 99t-58.5 36l-47 15l4 18h458l-4 -18l-82 -21q-21 -5 -33 -10t-23 -18t-11 -33q0 -29 18 -90l176 -596h7l337 541q63 99 66 145q0 24 -14 38t-45 23l-66 21l4 18h375l-4 -18l-35 -12q-41 -15 -60.5 -24
t-45.5 -34.5t-48.5 -58t-66.5 -103.5l-381 -604l-78 -434q-9 -51 5.5 -69t70.5 -29l74 -15l-2 -18h-498zM446 1479l-8 12l287 242h63l187 -240l-10 -12l-228 114z" />
    <glyph glyph-name="ycircumflex" unicode="&#x177;" horiz-adv-x="905" 
d="M389 829q41 -280 68 -731h6q174 233 273.5 423.5t99.5 279.5q0 28 -15 51t-33.5 36.5t-33.5 37.5t-15 53q0 38 24.5 63t61.5 25q44 0 71.5 -29t27.5 -82q0 -170 -122.5 -399.5t-344.5 -531.5q-188 -257 -308 -353t-241 -96q-61 0 -97 28.5t-36 73.5q0 39 27 65t69 26
q29 0 50 -17t31.5 -37.5t25.5 -37.5t34 -17q52 0 124 58.5t183 193.5q-39 565 -88 881q-10 63 -19 96t-24 49.5t-35 11.5t-53 -28l-61 -43l-10 14q83 95 135.5 134.5t103.5 39.5q55 0 78 -50t43 -188zM352 1165l-10 13l283 264h61l158 -268l-13 -11l-196 142z" />
    <glyph glyph-name="Ydieresis" unicode="&#x178;" horiz-adv-x="1099" 
d="M209 0l4 18l82 17q51 11 69 28t27 66l80 438l-213 684q-24 75 -41.5 99t-58.5 36l-47 15l4 18h458l-4 -18l-82 -21q-21 -5 -33 -10t-23 -18t-11 -33q0 -29 18 -90l176 -596h7l337 541q63 99 66 145q0 24 -14 38t-45 23l-66 21l4 18h375l-4 -18l-35 -12q-41 -15 -60.5 -24
t-45.5 -34.5t-48.5 -58t-66.5 -103.5l-381 -604l-78 -434q-9 -51 5.5 -69t70.5 -29l74 -15l-2 -18h-498zM571 1509q-42 0 -70 29t-28 68q0 41 27.5 67.5t70.5 26.5q41 0 69 -27.5t28 -68.5q0 -38 -28.5 -66.5t-68.5 -28.5zM915 1509q-42 0 -71 29t-29 68q0 41 27.5 67.5
t70.5 26.5t71 -27.5t28 -68.5q0 -38 -28.5 -66.5t-68.5 -28.5z" />
    <glyph glyph-name="Zacute" unicode="&#x179;" horiz-adv-x="1077" 
d="M539 1483l-9 16l299 203q36 22 62 22q35 0 55.5 -21.5t20.5 -53.5q0 -26 -21.5 -47t-54.5 -29zM-53 0l12 45l1008 1321v8h-156q-173 0 -265.5 -10.5t-134.5 -31.5t-73 -64q-45 -61 -135 -234h-21l72 385h909l-12 -45l-1004 -1323v-8h152q209 0 308 8t143 26t81 60
q61 70 152 256h21l-76 -393h-981z" />
    <glyph glyph-name="zacute" unicode="&#x17a;" horiz-adv-x="839" 
d="M762 1278l-322 -100l-8 14l250 215q36 31 63 31q35 0 57.5 -23.5t22.5 -54.5q0 -62 -63 -82zM504 -20q-48 0 -103.5 25t-97.5 54.5t-91.5 54.5t-86.5 25q-33 0 -59.5 -29.5t-88.5 -125.5h-6l-51 47v6q32 23 57.5 43.5t49.5 44t35 34.5t37.5 40.5t33.5 36.5l545 583
q-76 14 -230 70.5t-215 56.5q-28 0 -28 -18q0 -10 22 -19.5t44 -28t22 -49.5q0 -30 -23.5 -50.5t-60.5 -20.5q-40 0 -63 24.5t-23 65.5q0 79 80 148t180 69q46 0 100.5 -26.5t94.5 -57.5t82 -57.5t67 -26.5q36 0 65.5 34.5t67.5 115.5h6l52 -43v-7q-24 -18 -52 -44t-43 -42
t-47 -51t-37 -41l-557 -598q73 -4 211 -49t178 -45q54 0 90 24.5t95 104.5l18 -10q-26 -45 -36 -62.5t-33 -54t-36 -52t-35 -39.5t-40 -34t-41.5 -18t-48.5 -8z" />
    <glyph glyph-name="Zdotaccent" unicode="&#x17b;" horiz-adv-x="1077" 
d="M-53 0l12 45l1008 1321v8h-156q-173 0 -265.5 -10.5t-134.5 -31.5t-73 -64q-45 -61 -135 -234h-21l72 385h909l-12 -45l-1004 -1323v-8h152q209 0 308 8t143 26t81 60q61 70 152 256h21l-76 -393h-981zM711 1505q-44 0 -76.5 31.5t-32.5 73.5q0 43 32.5 73.5t76.5 30.5
q41 0 71.5 -30.5t30.5 -73.5q0 -42 -30.5 -73.5t-71.5 -31.5z" />
    <glyph glyph-name="zdotaccent" unicode="&#x17c;" horiz-adv-x="839" 
d="M504 -20q-48 0 -103.5 25t-97.5 54.5t-91.5 54.5t-86.5 25q-33 0 -59.5 -29.5t-88.5 -125.5h-6l-51 47v6q32 23 57.5 43.5t49.5 44t35 34.5t37.5 40.5t33.5 36.5l545 583q-76 14 -230 70.5t-215 56.5q-28 0 -28 -18q0 -10 22 -19.5t44 -28t22 -49.5q0 -30 -23.5 -50.5
t-60.5 -20.5q-40 0 -63 24.5t-23 65.5q0 79 80 148t180 69q46 0 100.5 -26.5t94.5 -57.5t82 -57.5t67 -26.5q36 0 65.5 34.5t67.5 115.5h6l52 -43v-7q-24 -18 -52 -44t-43 -42t-47 -51t-37 -41l-557 -598q73 -4 211 -49t178 -45q54 0 90 24.5t95 104.5l18 -10
q-26 -45 -36 -62.5t-33 -54t-36 -52t-35 -39.5t-40 -34t-41.5 -18t-48.5 -8zM467 1298q0 44 31 75.5t75 31.5t75.5 -31.5t31.5 -75.5t-31.5 -75t-75.5 -31t-75 31t-31 75z" />
    <glyph glyph-name="Zcaron" unicode="&#x17d;" horiz-adv-x="1077" 
d="M979 1747l8 -12l-287 -242h-63l-186 240l10 12l227 -115zM-53 0l12 45l1008 1321v8h-156q-173 0 -265.5 -10.5t-134.5 -31.5t-73 -64q-45 -61 -135 -234h-21l72 385h909l-12 -45l-1004 -1323v-8h152q209 0 308 8t143 26t81 60q61 70 152 256h21l-76 -393h-981z" />
    <glyph glyph-name="zcaron" unicode="&#x17e;" horiz-adv-x="839" 
d="M864 1456l10 -12l-282 -264h-62l-157 268l12 10l197 -141zM504 -20q-48 0 -103.5 25t-97.5 54.5t-91.5 54.5t-86.5 25q-33 0 -59.5 -29.5t-88.5 -125.5h-6l-51 47v6q32 23 57.5 43.5t49.5 44t35 34.5t37.5 40.5t33.5 36.5l545 583q-76 14 -230 70.5t-215 56.5
q-28 0 -28 -18q0 -10 22 -19.5t44 -28t22 -49.5q0 -30 -23.5 -50.5t-60.5 -20.5q-40 0 -63 24.5t-23 65.5q0 79 80 148t180 69q46 0 100.5 -26.5t94.5 -57.5t82 -57.5t67 -26.5q36 0 65.5 34.5t67.5 115.5h6l52 -43v-7q-24 -18 -52 -44t-43 -42t-47 -51t-37 -41l-557 -598
q73 -4 211 -49t178 -45q54 0 90 24.5t95 104.5l18 -10q-26 -45 -36 -62.5t-33 -54t-36 -52t-35 -39.5t-40 -34t-41.5 -18t-48.5 -8z" />
    <glyph glyph-name="florin" unicode="&#x192;" horiz-adv-x="720" 
d="M453 1014l-50 -230h232l-8 -43h-234l-96 -454q-70 -327 -177.5 -504.5t-242.5 -177.5q-76 0 -118 29.5t-42 74.5q0 34 22 58t58 24q62 0 80 -90q6 -32 14 -44.5t25 -12.5q27 0 50 36t56.5 150t77.5 320l125 591h-131l8 43h134l38 181q47 221 165 346t278 125
q80 0 126 -35.5t46 -83.5q0 -39 -22.5 -61.5t-61.5 -22.5t-62.5 23t-33.5 81q-10 56 -54 56q-122 0 -202 -379z" />
    <glyph glyph-name="Aringacute" unicode="&#x1fa;" horiz-adv-x="1181" 
d="M-115 0l4 18l31 9q44 13 66 28.5t50 58t81 144.5l604 1161h76l159 -1192q7 -52 12 -78.5t11 -49t19 -33.5t27 -19t42 -18l29 -11l-4 -18h-443l4 18l47 13q37 9 54.5 19t27.5 30q17 32 4 139l-38 316h-431l-149 -291q-51 -99 -51 -144q0 -32 20 -46t58 -23l49 -13l-4 -18
h-355zM659 1202l-319 -624h401l-75 624h-7zM604 1632q0 66 47 112t117 46t118 -46t48 -112t-47.5 -110.5t-118.5 -44.5q-70 0 -117 44.5t-47 110.5zM651 1632q0 -48 33 -82t84 -34q52 0 85.5 34t33.5 82t-34 83.5t-85 35.5t-84 -35t-33 -84zM618 1812l-8 17l299 203
q36 22 62 22q35 0 55.5 -22t20.5 -54q0 -26 -21.5 -46.5t-54.5 -28.5z" />
    <glyph glyph-name="aringacute" unicode="&#x1fb;" horiz-adv-x="1056" 
d="M242 -20q-97 0 -150 64t-53 173q0 119 29 233.5t77.5 206t112 169.5t133.5 130.5t141.5 81.5t135.5 29q140 0 245 -72h7l81 74l17 -6q-37 -74 -86 -318l-107 -536q-12 -70 -12 -98q0 -49 67 -21q25 10 62 31l57 33l11 -15q-166 -155 -283 -155q-39 0 -61.5 25t-22.5 73
q0 69 45 227h-6q-226 -329 -440 -329zM324 61q75 0 176.5 90.5t191.5 221.5l123 567q-15 42 -51.5 67t-87.5 25q-81 0 -166.5 -69.5t-152 -179.5t-109.5 -257.5t-43 -292.5q0 -172 119 -172zM545 1292q0 66 47 112t117 46t117.5 -46t47.5 -112t-47.5 -110.5t-117.5 -44.5
t-117 44.5t-47 110.5zM592 1292q0 -48 33 -82t84 -34t84.5 34t33.5 82q0 49 -33.5 84t-84.5 35t-84 -35t-33 -84zM559 1503l-8 17l299 202q38 23 61 23q35 0 55.5 -22t20.5 -54q0 -26 -21.5 -47t-54.5 -29z" />
    <glyph glyph-name="AEacute" unicode="&#x1fc;" horiz-adv-x="1722" 
d="M1718 1419l4 -323h-18q-34 101 -70 168q-13 25 -24.5 41.5t-23 30t-29.5 21t-35 13t-48.5 7.5t-60.5 2.5t-80 0.5q-139 0 -209 -18l-104 -604h110q82 0 129 8.5t68 23.5t39 44q21 39 61 137h19l-84 -465h-19q-6 95 -10 121q-4 27 -11.5 42.5t-19 26t-43 14.5t-64.5 5.5
t-101 1.5h-82l-82 -465q-7 -37 -10.5 -57.5t-4.5 -45.5t-1.5 -36.5t7 -26.5t12 -20t23.5 -12.5t31.5 -9t44.5 -3.5t55.5 -2h71.5q110 0 168 10t88 29.5t66 64.5q78 97 168 250h20l-108 -393h-994l2 16l80 17q47 11 65 29t27 65l68 385h-406l-213 -313q-57 -84 -57 -115
q0 -20 17.5 -30t54.5 -19l65 -17l-2 -18h-383l4 18l33 11q28 8 44.5 14t36.5 20t29.5 22t33 38.5t37 50t51.5 74.5l772 1124l-31 8l-100 21l2 18h921zM948 1313l-516 -758h383l131 735q0 7 4 23h-2zM1153 1483l-8 16l299 203q36 22 61 22q35 0 55.5 -21.5t20.5 -53.5
q0 -26 -21.5 -47t-54.5 -29z" />
    <glyph glyph-name="aeacute" unicode="&#x1fd;" horiz-adv-x="1423" 
d="M874 -20q-109 0 -183 53.5t-99 146.5q-147 -200 -330 -200q-106 0 -167.5 57.5t-61.5 157.5q0 55 16.5 97.5t53.5 75.5t82.5 57t118 43.5t145.5 33.5t178 30l30 191q23 158 -18 232.5t-156 74.5q-55 0 -85 -20.5t-40 -65.5q-16 -65 -38 -92t-66 -27q-35 0 -54.5 19
t-19.5 53q0 79 86.5 124.5t210.5 45.5q160 0 236.5 -68.5t66.5 -210.5q87 128 192.5 203.5t219.5 75.5q111 0 171 -49t60 -131q0 -133 -153 -220.5t-496 -148.5q-33 -125 -33 -235q0 -112 50 -175t135 -63q91 0 167.5 41t170.5 125l14 -16q-74 -91 -179 -153t-225 -62z
M326 47q130 0 260 166q-4 16 -4 55q0 118 32 230q-244 -47 -336 -106t-92 -181q0 -164 140 -164zM1167 1030q-92 0 -208.5 -142.5t-176.5 -338.5q148 29 241.5 62.5t147.5 82.5q91 81 91 207q0 129 -95 129zM1116 1278l-321 -100l-9 14l250 215q36 31 64 31q35 0 57.5 -23.5
t22.5 -54.5q0 -27 -16 -49.5t-48 -32.5z" />
    <glyph glyph-name="Oslashacute" unicode="&#x1fe;" horiz-adv-x="1302" 
d="M49 -123h-53l211 264q-141 154 -141 402q0 187 60 355.5t159 286t230.5 186.5t272.5 69q207 0 342 -135l152 190h55l-176 -221q133 -158 133 -412q0 -185 -57.5 -350t-154 -281t-225.5 -183.5t-269 -67.5q-210 0 -352 133zM244 508q0 -160 39 -270l780 983
q-79 178 -275 178q-162 0 -287 -117.5t-191 -319.5t-66 -454zM596 20q159 0 277 115.5t179.5 319t61.5 467.5q0 149 -33 252l-780 -979q86 -175 295 -175zM614 1493l-6 18l320 215q42 29 71 29q37 0 59.5 -23t22.5 -61q0 -62 -80 -82z" />
    <glyph glyph-name="oslashacute" unicode="&#x1ff;" horiz-adv-x="1005" 
d="M6 -125l150 209q-113 116 -113 307q0 104 24.5 199t66.5 167.5t97 132t117 98t126.5 59t125.5 20.5q116 0 209 -70l109 150h49l-127 -176q123 -120 123 -316q0 -128 -34.5 -240t-91.5 -190t-130.5 -134.5t-151 -83.5t-152.5 -27q-125 0 -219 75l-129 -180h-49zM403 16
q106 0 198 96.5t145 258.5t53 348q0 95 -19 166l-542 -756q45 -113 165 -113zM207 328q0 -95 14 -152l541 754q-46 100 -162 100q-103 0 -193.5 -93t-145 -255.5t-54.5 -353.5zM815 1278l-321 -100l-9 14l250 215q36 31 64 31q35 0 57.5 -23.5t22.5 -54.5q0 -27 -16 -49.5
t-48 -32.5z" />
    <glyph glyph-name="Scommaaccent" unicode="&#x218;" horiz-adv-x="972" 
d="M154 -430l-4 16q188 47 202 168q-21 -18 -61 -18q-34 0 -55 22t-21 58q0 37 28.5 61.5t67.5 24.5q52 0 83.5 -29.5t31.5 -81.5q0 -84 -72.5 -144t-199.5 -77zM412 -20q-250 0 -400 108l31 336h18q17 -88 64 -238q28 -90 85.5 -129t192.5 -39q82 0 145 24.5t100.5 67.5
t56 97.5t18.5 118.5q0 97 -60.5 176.5t-209.5 181.5q-138 95 -198 182.5t-60 192.5q0 85 36.5 157.5t97.5 121t140.5 75.5t165.5 27q202 0 326 -70l-19 -309h-18q-32 116 -70 203q-32 77 -85.5 108t-150.5 31q-123 0 -202.5 -77t-79.5 -206q0 -75 46.5 -143t176.5 -158
q178 -122 246.5 -215.5t68.5 -206.5q0 -184 -134.5 -300.5t-327.5 -116.5z" />
    <glyph glyph-name="scommaaccent" unicode="&#x219;" horiz-adv-x="747" 
d="M49 -430l-4 16q189 47 203 168q-21 -18 -62 -18q-34 0 -54.5 21.5t-20.5 58.5t28.5 61.5t67.5 24.5q52 0 83.5 -29.5t31.5 -81.5q0 -84 -72.5 -144t-200.5 -77zM268 -20q-143 0 -214.5 42.5t-71.5 110.5q0 35 21.5 58.5t59.5 23.5q36 0 58.5 -20.5t38.5 -77.5
q15 -56 42.5 -77.5t88.5 -21.5q86 0 145.5 59t59.5 144q0 70 -36 122.5t-132 131.5q-102 83 -143.5 149.5t-41.5 137.5q0 133 101.5 219t244.5 86q113 0 180.5 -38.5t67.5 -98.5q0 -38 -21 -60t-57 -22q-41 0 -62.5 23t-37.5 77q-14 45 -33 62.5t-63 17.5
q-86 0 -141.5 -59.5t-55.5 -141.5q0 -60 37 -109t146 -136q95 -74 138.5 -140t43.5 -145q0 -138 -101 -227.5t-262 -89.5z" />
    <glyph glyph-name="uni021A" unicode="&#x21a;" horiz-adv-x="1136" 
d="M281 -430l-5 16q189 47 203 168q-21 -18 -61 -18q-34 0 -55 22t-21 58q0 37 28.5 61.5t67.5 24.5q52 0 83.5 -29.5t31.5 -81.5q0 -84 -72.5 -144t-199.5 -77zM236 0l4 18l82 17q51 11 70 30t28 68l221 1243h-41q-72 0 -112 -2.5t-79 -9.5t-63 -23.5t-46.5 -41.5
t-45.5 -66q-76 -136 -107 -199h-24l88 385h1032l-33 -385h-24q-23 129 -39 203q-15 64 -40.5 91t-79.5 37.5t-173 10.5h-47l-219 -1241q-9 -52 5 -72t69 -30l73 -15l-4 -18h-495z" />
    <glyph glyph-name="uni021B" unicode="&#x21b;" horiz-adv-x="602" 
d="M-31 -430l-4 16q189 47 203 168q-21 -18 -62 -18q-34 0 -54.5 21.5t-20.5 58.5t28.5 61.5t67.5 24.5q52 0 83.5 -29.5t31.5 -81.5q0 -84 -72.5 -144t-200.5 -77zM184 -16q-52 0 -81 28.5t-29 83.5q0 48 18 133l158 742h-144l5 18l151 43l37 172l150 58h16l-47 -228h233
l-16 -63h-232l-153 -731q-14 -61 -14 -99q0 -68 41 -68q47 0 192 99l45 31l14 -17q-98 -98 -187 -150t-157 -52z" />
    <glyph glyph-name="uni0237" unicode="&#x237;" horiz-adv-x="495" 
d="M-117 -426q-95 0 -143.5 33t-48.5 90q0 39 24.5 63.5t69.5 24.5q78 0 90 -102q5 -40 14.5 -57t32.5 -17q42 0 79 63.5t62 200.5l168 961q13 80 13 92q0 19 -10 27.5t-37 1t-70 -36.5l-57 -39l-11 14q174 174 271 174q37 0 60.5 -22.5t23.5 -59.5q0 -17 -3.5 -42.5
t-6.5 -44.5t-11.5 -60.5t-11.5 -59.5l-150 -803q-38 -203 -130.5 -302t-217.5 -99z" />
    <glyph glyph-name="circumflex" unicode="&#x2c6;" 
d="M295 1165l-10 13l282 264h62l157 -268l-12 -11l-196 142z" />
    <glyph glyph-name="caron" unicode="&#x2c7;" 
d="M813 1456l10 -12l-282 -264h-62l-157 268l12 10l196 -141z" />
    <glyph glyph-name="breve" unicode="&#x2d8;" 
d="M532 1188q-202 0 -198 235l14 2q30 -127 191 -127q85 0 142.5 34t76.5 93l14 -2q-10 -106 -68.5 -170.5t-171.5 -64.5z" />
    <glyph glyph-name="dotaccent" unicode="&#x2d9;" 
d="M424 1298q0 44 31 75.5t75 31.5t75.5 -31.5t31.5 -75.5t-31.5 -75t-75.5 -31t-75 31t-31 75z" />
    <glyph glyph-name="ring" unicode="&#x2da;" 
d="M373 1339q0 66 47 112t117 46t117.5 -46t47.5 -112t-47.5 -110.5t-117.5 -44.5t-117 44.5t-47 110.5zM420 1339q0 -48 33 -82t84 -34t84.5 34t33.5 82q0 49 -33.5 84t-84.5 35t-84 -35t-33 -84z" />
    <glyph glyph-name="ogonek" unicode="&#x2db;" 
d="M340 -420q-67 0 -101 33.5t-34 87.5q0 45 30.5 92t80 88t90 68t83.5 51h21q-45 -39 -69 -62t-56 -59t-46.5 -70t-14.5 -69q0 -96 90 -96q35 0 80 18l-2 -18q-24 -27 -66.5 -45.5t-85.5 -18.5z" />
    <glyph glyph-name="tilde" unicode="&#x2dc;" 
d="M291 1180l-17 6q48 114 86.5 158.5t106.5 44.5q49 0 126 -30t116 -30q59 0 120 101l19 -7q-48 -112 -87 -157t-104 -45q-47 0 -124 31.5t-117 31.5q-62 0 -125 -104z" />
    <glyph glyph-name="hungarumlaut" unicode="&#x2dd;" 
d="M317 1161l-12 13l164 258q33 55 78 55q35 0 57.5 -23.5t22.5 -58.5q0 -44 -52 -76zM635 1161l-12 13l163 258q33 55 78 55q35 0 57.5 -23.5t22.5 -58.5q0 -44 -51 -76z" />
    <glyph glyph-name="Wgrave" unicode="&#x1e80;" horiz-adv-x="1705" 
d="M1225 1495l-8 -16l-351 94q-33 8 -54 29t-21 47q0 31 20.5 53t52.5 22q26 0 62 -22zM377 0l-141 1200q-12 99 -27 132t-57 50l-46 19l5 18h442l-4 -18l-68 -17q-68 -15 -84 -51q-8 -29 -7.5 -48t7.5 -79l107 -958h4l426 829l-14 111q-15 117 -31.5 150t-65.5 48l-45 15
l4 18h437l-5 -18l-43 -12q-38 -10 -58 -21t-30 -33q-18 -37 -8 -129l113 -948h6l416 922q43 99 43 139q0 26 -15.5 43t-50.5 27l-39 12l4 18h338l-4 -18l-47 -19q-66 -26 -92 -58t-80 -148l-539 -1176h-65l-117 981h-6l-506 -981h-57z" />
    <glyph glyph-name="wgrave" unicode="&#x1e81;" horiz-adv-x="1390" 
d="M879 825q15 -320 2 -659h4q163 175 286 370t123 271q0 30 -13 52.5t-28 34.5t-28 34t-13 51q0 38 24.5 63t61.5 25q45 0 72 -25t27 -77q0 -142 -153 -393t-453 -572h-56q6 452 2 594h-2q-157 -275 -430 -594h-67q-2 375 -5 526.5t-14 266.5q-11 117 -38 145t-93 -16
l-61 -43l-11 14q83 94 134.5 134t101.5 40q59 0 84.5 -54.5t36.5 -178.5q25 -270 14 -670h4q228 288 342 506q1 17 -1.5 66t-2.5 55q-7 121 -32.5 148t-86.5 -17l-61 -43l-10 14q85 95 133.5 134.5t93.5 39.5q56 0 81.5 -57.5t31.5 -184.5zM952 1178l-321 106
q-32 10 -48 32.5t-16 49.5q0 31 22.5 54.5t57.5 23.5q28 0 64 -31l250 -221z" />
    <glyph glyph-name="Wacute" unicode="&#x1e82;" horiz-adv-x="1705" 
d="M821 1483l-8 16l299 203q36 22 62 22q35 0 55 -21.5t20 -53.5q0 -26 -21 -47t-54 -29zM377 0l-141 1200q-12 99 -27 132t-57 50l-46 19l5 18h442l-4 -18l-68 -17q-68 -15 -84 -51q-8 -29 -7.5 -48t7.5 -79l107 -958h4l426 829l-14 111q-15 117 -31.5 150t-65.5 48l-45 15
l4 18h437l-5 -18l-43 -12q-38 -10 -58 -21t-30 -33q-18 -37 -8 -129l113 -948h6l416 922q43 99 43 139q0 26 -15.5 43t-50.5 27l-39 12l4 18h338l-4 -18l-47 -19q-66 -26 -92 -58t-80 -148l-539 -1176h-65l-117 981h-6l-506 -981h-57z" />
    <glyph glyph-name="wacute" unicode="&#x1e83;" horiz-adv-x="1390" 
d="M1006 1278l-322 -100l-8 14l250 215q36 31 63 31q35 0 57.5 -23.5t22.5 -54.5q0 -62 -63 -82zM879 825q15 -320 2 -659h4q163 175 286 370t123 271q0 30 -13 52.5t-28 34.5t-28 34t-13 51q0 38 24.5 63t61.5 25q45 0 72 -25t27 -77q0 -142 -153 -393t-453 -572h-56
q6 452 2 594h-2q-157 -275 -430 -594h-67q-2 375 -5 526.5t-14 266.5q-11 117 -38 145t-93 -16l-61 -43l-11 14q83 94 134.5 134t101.5 40q59 0 84.5 -54.5t36.5 -178.5q25 -270 14 -670h4q228 288 342 506q1 17 -1.5 66t-2.5 55q-7 121 -32.5 148t-86.5 -17l-61 -43l-10 14
q85 95 133.5 134.5t93.5 39.5q56 0 81.5 -57.5t31.5 -184.5z" />
    <glyph glyph-name="Wdieresis" unicode="&#x1e84;" horiz-adv-x="1705" 
d="M850 1509q-42 0 -70 29t-28 68q0 41 27.5 67.5t70.5 26.5q41 0 68.5 -27.5t27.5 -68.5q0 -38 -28 -66.5t-68 -28.5zM1194 1509q-42 0 -71 29t-29 68q0 41 27.5 67.5t70.5 26.5t70.5 -27.5t27.5 -68.5q0 -38 -28 -66.5t-68 -28.5zM377 0l-141 1200q-12 99 -27 132t-57 50
l-46 19l5 18h442l-4 -18l-68 -17q-68 -15 -84 -51q-8 -29 -7.5 -48t7.5 -79l107 -958h4l426 829l-14 111q-15 117 -31.5 150t-65.5 48l-45 15l4 18h437l-5 -18l-43 -12q-38 -10 -58 -21t-30 -33q-18 -37 -8 -129l113 -948h6l416 922q43 99 43 139q0 26 -15.5 43t-50.5 27
l-39 12l4 18h338l-4 -18l-47 -19q-66 -26 -92 -58t-80 -148l-539 -1176h-65l-117 981h-6l-506 -981h-57z" />
    <glyph glyph-name="wdieresis" unicode="&#x1e85;" horiz-adv-x="1390" 
d="M635 1210q-43 0 -73 30t-30 69q0 42 29 70t72 28t71.5 -28.5t28.5 -69.5t-28 -70t-70 -29zM985 1210q-43 0 -72.5 30t-29.5 69q0 43 28.5 70.5t71.5 27.5q44 0 72 -28t28 -70q0 -41 -28 -70t-70 -29zM879 825q15 -320 2 -659h4q163 175 286 370t123 271q0 30 -13 52.5
t-28 34.5t-28 34t-13 51q0 38 24.5 63t61.5 25q45 0 72 -25t27 -77q0 -142 -153 -393t-453 -572h-56q6 452 2 594h-2q-157 -275 -430 -594h-67q-2 375 -5 526.5t-14 266.5q-11 117 -38 145t-93 -16l-61 -43l-11 14q83 94 134.5 134t101.5 40q59 0 84.5 -54.5t36.5 -178.5
q25 -270 14 -670h4q228 288 342 506q1 17 -1.5 66t-2.5 55q-7 121 -32.5 148t-86.5 -17l-61 -43l-10 14q85 95 133.5 134.5t93.5 39.5q56 0 81.5 -57.5t31.5 -184.5z" />
    <glyph glyph-name="Ygrave" unicode="&#x1ef2;" horiz-adv-x="1099" 
d="M209 0l4 18l82 17q51 11 69 28t27 66l80 438l-213 684q-24 75 -41.5 99t-58.5 36l-47 15l4 18h458l-4 -18l-82 -21q-21 -5 -33 -10t-23 -18t-11 -33q0 -29 18 -90l176 -596h7l337 541q63 99 66 145q0 24 -14 38t-45 23l-66 21l4 18h375l-4 -18l-35 -12q-41 -15 -60.5 -24
t-45.5 -34.5t-48.5 -58t-66.5 -103.5l-381 -604l-78 -434q-9 -51 5.5 -69t70.5 -29l74 -15l-2 -18h-498zM899 1495l-8 -16l-350 94q-33 8 -54.5 29t-21.5 47q0 31 21 53t53 22q25 0 61 -22z" />
    <glyph glyph-name="ygrave" unicode="&#x1ef3;" horiz-adv-x="905" 
d="M389 829q41 -280 68 -731h6q174 233 273.5 423.5t99.5 279.5q0 28 -15 51t-33.5 36.5t-33.5 37.5t-15 53q0 38 24.5 63t61.5 25q44 0 71.5 -29t27.5 -82q0 -170 -122.5 -399.5t-344.5 -531.5q-188 -257 -308 -353t-241 -96q-61 0 -97 28.5t-36 73.5q0 39 27 65t69 26
q29 0 50 -17t31.5 -37.5t25.5 -37.5t34 -17q52 0 124 58.5t183 193.5q-39 565 -88 881q-10 63 -19 96t-24 49.5t-35 11.5t-53 -28l-61 -43l-10 14q83 95 135.5 134.5t103.5 39.5q55 0 78 -50t43 -188zM760 1178l-322 106q-63 20 -63 82q0 31 22.5 54.5t57.5 23.5
q27 0 63 -31l250 -221z" />
    <glyph glyph-name="uni2009" unicode="&#x2009;" horiz-adv-x="139" 
 />
    <glyph glyph-name="endash" unicode="&#x2013;" horiz-adv-x="972" 
d="M74 561l10 47h836l-11 -47h-835z" />
    <glyph glyph-name="emdash" unicode="&#x2014;" horiz-adv-x="1599" 
d="M74 561l10 47h1462l-10 -47h-1462z" />
    <glyph glyph-name="quoteleft" unicode="&#x2018;" horiz-adv-x="364" 
d="M442 1456l4 -14q-179 -85 -200 -209q20 20 63 20q37 0 61.5 -22.5t24.5 -61.5q0 -45 -30.5 -73.5t-79.5 -28.5q-46 0 -77.5 33.5t-31.5 85.5q0 87 71.5 164.5t194.5 105.5z" />
    <glyph glyph-name="quoteright" unicode="&#x2019;" horiz-adv-x="344" 
d="M160 1059l-4 14q179 85 200 209q-20 -20 -63 -20q-37 0 -61.5 22.5t-24.5 61.5q0 45 30.5 73.5t79.5 28.5q46 0 77.5 -33.5t31.5 -85.5q0 -87 -71.5 -164.5t-194.5 -105.5z" />
    <glyph glyph-name="quotesinglbase" unicode="&#x201a;" horiz-adv-x="344" 
d="M-57 -188l-4 14q179 85 200 209q-21 -21 -63 -21q-37 0 -61.5 22.5t-24.5 61.5q0 45 30.5 74t79.5 29q46 0 77.5 -33.5t31.5 -85.5q0 -87 -71.5 -164.5t-194.5 -105.5z" />
    <glyph glyph-name="quotedblleft" unicode="&#x201c;" horiz-adv-x="630" 
d="M442 1456l4 -14q-179 -85 -200 -209q20 20 63 20q37 0 61.5 -22.5t24.5 -61.5q0 -45 -30.5 -73.5t-79.5 -28.5q-46 0 -77.5 33.5t-31.5 85.5q0 87 71.5 164.5t194.5 105.5zM709 1456l4 -14q-180 -86 -201 -209q20 20 63 20q37 0 62 -23t25 -61q0 -45 -31 -73.5t-80 -28.5
q-46 0 -77.5 33.5t-31.5 85.5q0 87 72 164.5t195 105.5z" />
    <glyph glyph-name="quotedblright" unicode="&#x201d;" horiz-adv-x="610" 
d="M426 1059l-4 14q180 86 201 209q-20 -20 -64 -20q-37 0 -61.5 22.5t-24.5 61.5q0 45 31 73.5t80 28.5q46 0 77 -33.5t31 -85.5q0 -87 -71.5 -164.5t-194.5 -105.5zM160 1059l-4 14q179 85 200 209q-20 -20 -63 -20q-37 0 -61.5 22.5t-24.5 61.5q0 45 30.5 73.5t79.5 28.5
q46 0 77.5 -33.5t31.5 -85.5q0 -87 -71.5 -164.5t-194.5 -105.5z" />
    <glyph glyph-name="quotedblbase" unicode="&#x201e;" horiz-adv-x="610" 
d="M209 -188l-4 14q180 86 201 209q-21 -21 -64 -21q-37 0 -61.5 22.5t-24.5 61.5q0 45 31 74t80 29q46 0 77 -33.5t31 -85.5q0 -87 -71.5 -164.5t-194.5 -105.5zM-57 -188l-4 14q179 85 200 209q-21 -21 -63 -21q-37 0 -61.5 22.5t-24.5 61.5q0 45 30.5 74t79.5 29
q46 0 77.5 -33.5t31.5 -85.5q0 -87 -71.5 -164.5t-194.5 -105.5z" />
    <glyph glyph-name="dagger" unicode="&#x2020;" horiz-adv-x="794" 
d="M272 -137l64 907q39 37 77 112.5t54 137.5q-76 2 -160.5 -20.5t-105.5 -22.5q-39 0 -63.5 20t-24.5 56q0 37 22.5 61.5t63.5 24.5q25 0 63 -20t93 -44.5t114 -32.5q9 66 3 112.5t-18 106.5t-12 82q0 43 26.5 68t68.5 25q43 0 69.5 -24t26.5 -64q0 -33 -30.5 -87.5
t-65 -116t-41.5 -106.5q68 -1 163.5 22t112.5 23q40 0 60 -21t20 -56q0 -38 -21 -61t-63 -23q-27 0 -66.5 20t-95 44t-114.5 32q-7 -66 2 -141.5t34 -118.5l-237 -895h-19z" />
    <glyph glyph-name="daggerdbl" unicode="&#x2021;" horiz-adv-x="856" 
d="M541 1032q-20 -118 49 -190l-131 -191h-13l-59 205q46 27 81 74t48 104q-76 2 -160.5 -20.5t-105.5 -22.5q-39 0 -63.5 20t-24.5 56q0 37 22.5 61.5t63.5 24.5q25 0 63 -20t93 -44t114 -32q9 66 3.5 112.5t-17.5 106.5t-12 82q0 43 26 67.5t68 24.5q43 0 69.5 -24
t26.5 -64q0 -33 -30.5 -87t-65 -115.5t-41.5 -106.5q68 -1 163.5 22t112.5 23q40 0 60 -21.5t20 -56.5q0 -38 -21 -61t-63 -23q-27 0 -66.5 20t-95 44t-114.5 32zM358 233q20 119 -49 191l131 190h13l59 -204q-46 -27 -81 -74.5t-48 -104.5q76 -2 160.5 20.5t105.5 22.5
q39 0 63.5 -19.5t24.5 -55.5q0 -37 -22.5 -61.5t-63.5 -24.5q-25 0 -63 20t-93 44t-114 32q-9 -66 -3 -112.5t18 -106.5t12 -82q0 -43 -26.5 -67.5t-68.5 -24.5q-43 0 -69.5 24t-26.5 64q0 33 30.5 87t65 115.5t41.5 106.5q-68 1 -163.5 -22t-112.5 -23q-40 0 -60 21.5
t-20 56.5q0 38 21 61t63 23q27 0 67 -20t95 -44.5t114 -32.5z" />
    <glyph glyph-name="bullet" unicode="&#x2022;" horiz-adv-x="593" 
d="M82 643q0 94 65.5 159.5t159.5 65.5t159.5 -65.5t65.5 -159.5t-65.5 -159.5t-159.5 -65.5t-159.5 65.5t-65.5 159.5z" />
    <glyph glyph-name="ellipsis" unicode="&#x2026;" horiz-adv-x="1185" 
d="M25 96q0 43 30.5 74t73.5 31t73.5 -31t30.5 -74t-30.5 -73.5t-73.5 -30.5t-73.5 30.5t-30.5 73.5zM410 96q0 43 30.5 74t73.5 31t73.5 -31t30.5 -74t-30.5 -73.5t-73.5 -30.5t-73.5 30.5t-30.5 73.5zM793 96q0 43 30.5 74t73.5 31t73.5 -31t30.5 -74t-30.5 -73.5
t-73.5 -30.5t-73.5 30.5t-30.5 73.5z" />
    <glyph glyph-name="perthousand" unicode="&#x2030;" horiz-adv-x="2007" 
d="M43 -102l1235 1564h61l-1233 -1564h-63zM500 1438q103 0 173 -72.5t70 -210.5q0 -181 -109.5 -303.5t-248.5 -122.5q-111 0 -181.5 71t-70.5 201q0 190 109 313.5t258 123.5zM391 762q56 0 105.5 64.5t78.5 168t29 215.5q0 193 -117 193q-61 0 -111.5 -66t-77 -166
t-26.5 -208q0 -201 119 -201zM1049 684q103 0 173 -72.5t70 -210.5q0 -181 -109.5 -303.5t-248.5 -122.5q-110 0 -181 71.5t-71 201.5q0 190 109 313t258 123zM940 8q56 0 105.5 64.5t78.5 168.5t29 216q0 192 -117 192q-61 0 -111.5 -66t-77 -166t-26.5 -208
q0 -201 119 -201zM1729 684q103 0 173 -72.5t70 -210.5q0 -181 -109.5 -303.5t-248.5 -122.5q-110 0 -181 71.5t-71 201.5q0 190 109 313t258 123zM1620 8q56 0 105.5 64.5t78.5 168.5t29 216q0 192 -117 192q-61 0 -111.5 -66t-77 -166t-26.5 -208q0 -201 119 -201z" />
    <glyph glyph-name="uni2032" unicode="&#x2032;" horiz-adv-x="251" 
d="M156 987l30 334q9 113 90 113q63 0 83.5 -49t-15.5 -109l-172 -289h-16z" />
    <glyph glyph-name="uni2033" unicode="&#x2033;" horiz-adv-x="487" 
d="M156 987l30 334q9 113 90 113q63 0 83.5 -49t-15.5 -109l-172 -289h-16zM391 987l31 334q9 113 90 113q63 0 83.5 -49t-15.5 -109l-172 -289h-17z" />
    <glyph glyph-name="guilsinglleft" unicode="&#x2039;" horiz-adv-x="487" 
d="M326 123l-281 387l8 35l402 366h20l-272 -403l143 -385h-20z" />
    <glyph glyph-name="guilsinglright" unicode="&#x203a;" horiz-adv-x="487" 
d="M162 911l280 -387l-8 -35l-401 -366h-21l273 403l-144 385h21z" />
    <glyph glyph-name="fraction" unicode="&#x2044;" horiz-adv-x="479" 
d="M-365 -102l1192 1564h56l-1188 -1564h-60z" />
    <glyph glyph-name="Euro" unicode="&#x20ac;" horiz-adv-x="1142" 
d="M88 817l12 41h123q58 178 167.5 312.5t238.5 202t260 67.5q130 0 208.5 -50.5t78.5 -123.5q0 -43 -25.5 -69t-69.5 -26q-43 0 -64.5 26t-27.5 77q-8 69 -33 98t-84 29q-161 0 -293.5 -147t-193.5 -396h467l-10 -41h-467q-21 -112 -29 -201h440l-10 -41h-432
q-2 -31 -2 -94q0 -191 85 -301t259 -110q179 0 305 94l-2 -27q-59 -67 -159.5 -112t-223.5 -45q-221 0 -329.5 136.5t-108.5 370.5q0 59 2 88h-125l10 41h119q7 83 37 201h-123z" />
    <glyph glyph-name="trademark" unicode="&#x2122;" horiz-adv-x="1236" 
d="M614 879l2 14l27 8q27 9 36 24t15 58l58 363q3 21 -1 29t-20 16l-37 12l4 16h181l82 -418h4l213 418h184l-4 -18l-43 -15q-15 -5 -21.5 -12.5t-9.5 -27.5l-59 -388q-5 -26 -1.5 -36.5t23.5 -16.5l35 -12l-2 -14h-231l2 14l34 10q23 8 30.5 20.5t12.5 43.5l62 395h-6
l-240 -467h-49l-100 467h-4l-62 -383q-6 -38 -1 -53.5t28 -22.5l35 -10l-3 -14h-174zM190 877l3 16l43 12q22 6 30 17.5t13 40.5l71 430h-31q-27 0 -40.5 -1t-30.5 -9t-29 -25q-11 -19 -30.5 -59t-34.5 -68h-19l35 188h465l-17 -188h-20q-14 65 -35 127q-7 17 -20.5 25
t-26 9t-39.5 1h-28l-70 -437q-4 -28 0 -36.5t24 -14.5l41 -12l-2 -16h-252z" />
    <glyph glyph-name="onethird" unicode="&#x2153;" horiz-adv-x="1187" 
d="M74 717l4 16l39 10q35 9 45.5 20.5t17.5 51.5l86 481l-90 13l2 14q75 17 126 42t99 67l11 -2l-109 -617q-7 -41 -2 -51.5t35 -18.5l41 -10l-4 -16h-301zM-61 -102l1191 1564h56l-1188 -1564h-59zM813 -10q-102 0 -156.5 31.5t-54.5 80.5q0 26 16.5 44t43.5 18
q52 0 63 -64q9 -45 27 -61t63 -16q65 0 106.5 56.5t41.5 143.5q0 121 -115 121h-43l6 35h39q75 0 115.5 54.5t40.5 141.5q0 109 -97 109q-32 0 -46 -10t-21 -41q-12 -50 -28 -68t-50 -18q-25 0 -39 15.5t-14 41.5q0 43 49 78t137 35q115 0 174 -47.5t59 -118.5t-54 -120
t-146 -64v-7q79 -11 122.5 -50t43.5 -103q0 -89 -77 -153t-206 -64z" />
    <glyph glyph-name="twothirds" unicode="&#x2154;" horiz-adv-x="1208" 
d="M-18 -102l1192 1564h55l-1188 -1564h-59zM834 -10q-102 0 -156.5 31.5t-54.5 80.5q0 26 16 44t43 18q52 0 63 -64q9 -45 27.5 -61t63.5 -16q65 0 106 56.5t41 143.5q0 121 -115 121h-43l6 35h39q75 0 115.5 54.5t40.5 141.5q0 109 -96 109q-33 0 -47 -10.5t-21 -40.5
q-12 -50 -28 -68t-50 -18q-25 0 -39 15.5t-14 41.5q0 43 49.5 78t137.5 35q115 0 174 -47.5t59 -118.5t-54.5 -120t-146.5 -64v-7q79 -11 122.5 -50t43.5 -103q0 -89 -76.5 -153t-205.5 -64zM37 717l12 57q165 124 219 172q191 170 191 326q0 66 -27.5 97.5t-66.5 31.5
q-62 0 -72 -60q-6 -44 -22 -65t-50 -21q-59 0 -59 56q0 51 57 87t143 36q108 0 167 -50.5t59 -134.5q0 -65 -27.5 -119.5t-103.5 -114t-127 -91.5t-179 -106q-5 -3 -8 -5v-6h265q38 0 53.5 14t50.5 70h16l-49 -174h-442z" />
    <glyph glyph-name="oneeighth" unicode="&#x215b;" horiz-adv-x="1187" 
d="M74 717l4 16l39 10q35 9 45.5 20.5t17.5 51.5l86 481l-90 13l2 14q75 17 126 42t99 67l11 -2l-109 -617q-7 -41 -2 -51.5t35 -18.5l41 -10l-4 -16h-301zM-70 -102l1192 1564h56l-1188 -1564h-60zM823 -10q-102 0 -164.5 41.5t-62.5 120.5q0 67 52.5 116.5t137.5 77.5v6
q-98 70 -98 156t66 147.5t168 61.5q99 0 151.5 -43t52.5 -109q0 -58 -47 -107.5t-123 -74.5v-4q71 -42 102.5 -80.5t31.5 -97.5q0 -90 -78.5 -150.5t-188.5 -60.5zM838 25q65 0 104 37t39 96q0 50 -35.5 83.5t-134.5 92.5q-106 -79 -106 -178q0 -62 34 -96.5t99 -34.5z
M932 397q90 58 90 178q0 48 -28.5 78.5t-84.5 30.5q-57 0 -90 -38t-33 -85q0 -29 10.5 -53t34.5 -44.5t44 -33t57 -33.5z" />
    <glyph glyph-name="threeeighths" unicode="&#x215c;" horiz-adv-x="1208" 
d="M-14 -102l1192 1564h55l-1188 -1564h-59zM844 -10q-102 0 -165 41.5t-63 120.5q0 67 52.5 116.5t138.5 77.5v6q-98 70 -98 156t65.5 147.5t167.5 61.5q99 0 152 -43t53 -109q0 -58 -47 -107.5t-123 -74.5v-4q70 -42 101.5 -80.5t31.5 -97.5q0 -90 -78 -150.5t-188 -60.5z
M858 25q65 0 104 37t39 96q0 50 -35.5 83.5t-134.5 92.5q-106 -79 -106 -178q0 -62 34 -96.5t99 -34.5zM952 397q90 58 90 178q0 49 -28 79t-84 30q-57 0 -90 -38t-33 -85q0 -29 10.5 -53t34 -44.5t43.5 -33.5t57 -33zM276 707q-102 0 -156 31.5t-54 80.5q0 26 16 44t43 18
q52 0 63 -64q9 -45 27.5 -61.5t63.5 -16.5q65 0 106 57t41 144q0 121 -115 121h-43l6 35h39q75 0 115.5 54.5t40.5 141.5q0 109 -96 109q-33 0 -47 -10.5t-21 -40.5q-12 -50 -28 -68t-50 -18q-25 0 -39 15.5t-14 41.5q0 43 49 78t137 35q115 0 174.5 -47.5t59.5 -118.5
t-54.5 -120.5t-146.5 -64.5v-6q79 -11 122.5 -50t43.5 -103q0 -89 -77 -153t-206 -64z" />
    <glyph glyph-name="fiveeighths" unicode="&#x215d;" horiz-adv-x="1208" 
d="M-14 -102l1192 1564h55l-1188 -1564h-59zM844 -10q-102 0 -165 41.5t-63 120.5q0 67 52.5 116.5t138.5 77.5v6q-98 70 -98 156t65.5 147.5t167.5 61.5q99 0 152 -43t53 -109q0 -58 -47 -107.5t-123 -74.5v-4q70 -42 101.5 -80.5t31.5 -97.5q0 -90 -78 -150.5t-188 -60.5z
M858 25q65 0 104 37t39 96q0 50 -35.5 83.5t-134.5 92.5q-106 -79 -106 -178q0 -62 34 -96.5t99 -34.5zM952 397q90 58 90 178q0 49 -28 79t-84 30q-57 0 -90 -38t-33 -85q0 -29 10.5 -53t34 -44.5t43.5 -33.5t57 -33zM276 707q-81 0 -129.5 25t-48.5 77q0 25 16 42t42 17
q30 0 44.5 -16.5t20.5 -52.5t19 -49t51 -13q72 0 117 56.5t45 134.5q0 149 -154 149q-58 0 -123 -26l-10 8l100 360h287q20 0 32 10.5t29 43.5h19l-37 -154h-322l-45 -168q43 16 115 16q109 0 166 -50.5t57 -143.5q0 -110 -82 -188t-209 -78z" />
    <glyph glyph-name="seveneighths" unicode="&#x215e;" horiz-adv-x="1187" 
d="M-59 -102l1192 1564h55l-1188 -1564h-59zM844 -10q-102 0 -165 41.5t-63 120.5q0 67 52.5 116.5t138.5 77.5v6q-98 70 -98 156t65.5 147.5t167.5 61.5q99 0 152 -43t53 -109q0 -58 -47 -107.5t-123 -74.5v-4q70 -42 101.5 -80.5t31.5 -97.5q0 -90 -78 -150.5t-188 -60.5z
M858 25q65 0 104 37t39 96q0 50 -35.5 83.5t-134.5 92.5q-106 -79 -106 -178q0 -62 34 -96.5t99 -34.5zM952 397q90 58 90 178q0 49 -28 79t-84 30q-57 0 -90 -38t-33 -85q0 -29 10.5 -53t34 -44.5t43.5 -33.5t57 -33zM166 717q25 103 66 192t96.5 162t112 130t130.5 116
h-309q-26 0 -38.5 -14t-39.5 -66h-18l45 182h440l-8 -59q-305 -316 -336 -643h-141z" />
    <glyph glyph-name="arrowleft" unicode="&#x2190;" horiz-adv-x="1675" 
d="M1427 512l-694 33l164 -135q101 -84 85 -190q-13 -82 -84 -131q-81 -55 -170 -24q-46 16 -85 54l-586 588v8l588 590q85 83 188 58q80 -20 123 -92q52 -85 10 -174q-23 -46 -69 -85l-164 -135l694 32q129 6 182.5 -96.5t0 -204.5t-182.5 -96z" />
    <glyph glyph-name="arrowright" unicode="&#x2192;" horiz-adv-x="1675" 
d="M954 545l-694 -33q-129 -6 -182.5 96t0 204.5t182.5 96.5l694 -32l-163 135q-101 83 -85 189q12 81 82 131q79 56 168 27q46 -15 86 -54l588 -590v-8l-586 -588q-86 -84 -190 -59q-79 20 -123 91q-51 84 -10 172q22 48 70 87z" />
    <glyph glyph-name="minus" unicode="&#x2212;" horiz-adv-x="868" 
d="M88 672v49h737v-49h-737z" />
    <glyph glyph-name="uni24C5" unicode="&#x24c5;" horiz-adv-x="1566" 
d="M825 340v-21h-303v21l29 6q13 4 19 6t13 4t9.5 6.5t5 7.5t2.5 12.5t0.5 16t0 23t-0.5 29.5v520q0 50 -3 66t-12 23t-40 15l-23 6v21h316q133 0 203.5 -56t70.5 -165q0 -116 -72 -177t-202 -61q-30 0 -60 6v15q109 5 157 52.5t48 153.5q0 102 -39 148.5t-123 46.5
q-66 0 -96 -12v-600q0 -71 6.5 -85t46.5 -20zM86 702q0 198 97 366t264.5 266t365.5 98t365 -98t263.5 -266t96.5 -366q0 -149 -57 -283.5t-154 -232.5t-231.5 -155.5t-282.5 -57.5t-283 57.5t-232 155.5t-154.5 232.5t-57.5 283.5zM137 702q0 -184 90.5 -340t246.5 -247.5
t339 -91.5t339 91.5t246.5 247.5t90.5 340q0 137 -53.5 262.5t-144 216.5t-216 145t-262.5 54t-262.5 -54t-216 -145t-144 -216.5t-53.5 -262.5z" />
    <glyph glyph-name="square" unicode="&#x25a0;" horiz-adv-x="1896" 
d="M262 0v1419h1421v-1419h-1421z" />
    <glyph glyph-name="squareopen" unicode="&#x25a1;" horiz-adv-x="1896" 
d="M262 0v1419h1421v-1419h-1421zM356 90h1233v1243h-1233v-1243z" />
    <glyph glyph-name="triangleup" unicode="&#x25b2;" horiz-adv-x="1697" 
d="M1493 0h-1493v29l725 1454h41l727 -1454v-29z" />
    <glyph glyph-name="triangleupopen" unicode="&#x25b3;" horiz-adv-x="1722" 
d="M1552 0h-1495v29l738 1454h20l737 -1454v-29zM1421 86l-618 1223l-615 -1223h1233z" />
    <glyph glyph-name="triangleright" unicode="&#x25b6;" horiz-adv-x="1761" 
d="M279 -37v1493h28l1393 -735v-21l-1393 -737h-28z" />
    <glyph glyph-name="trianglerightopen" unicode="&#x25b7;" horiz-adv-x="1761" 
d="M279 -37v1493h28l1393 -735v-21l-1393 -737h-28zM373 92l1165 619l-1165 618v-1237z" />
    <glyph glyph-name="triangledown" unicode="&#x25bc;" horiz-adv-x="1697" 
d="M166 1419h1493v-28l-725 -1454h-41l-727 1454v28z" />
    <glyph glyph-name="triangledownopen" unicode="&#x25bd;" horiz-adv-x="1722" 
d="M223 1419h1493v-28l-735 -1454h-20l-738 1454v28zM354 1333l619 -1222l614 1222h-1233z" />
    <glyph glyph-name="triangleleft" unicode="&#x25c0;" horiz-adv-x="1761" 
d="M1524 1456v-1493h-29l-1393 737v21l1393 735h29z" />
    <glyph glyph-name="triangleleftopen" unicode="&#x25c1;" horiz-adv-x="1761" 
d="M1524 1456v-1493h-29l-1393 737v21l1393 735h29zM264 711l1166 -619v1237z" />
    <glyph glyph-name="circle" unicode="&#x25cb;" horiz-adv-x="1650" 
d="M844 -31q-151 0 -288 59t-236 158.5t-157.5 237t-58.5 287.5q0 202 99 372t269 268.5t372 98.5q201 0 372 -98.5t271 -269t100 -371.5q0 -150 -59 -287.5t-159 -237t-237.5 -158.5t-287.5 -59z" />
    <glyph glyph-name="circleopen" unicode="&#x25cf;" horiz-adv-x="1650" 
d="M844 -31q-151 0 -288 59t-236 158.5t-157.5 237t-58.5 287.5q0 202 99 372t269 268.5t372 98.5q201 0 372 -98.5t271 -269t100 -371.5q0 -150 -59 -287.5t-159 -237t-237.5 -158.5t-287.5 -59zM844 55q176 0 325 89t235.5 240t86.5 327q0 177 -86.5 327.5t-235.5 238
t-325 87.5q-133 0 -252.5 -51.5t-205 -139.5t-135.5 -208.5t-50 -253.5q0 -177 84.5 -327.5t233 -239.5t325.5 -89z" />
    <glyph glyph-name="star" unicode="&#x2605;" horiz-adv-x="1703" 
d="M367 -70l-15 9l197 596l-500 356v16h623l192 596h17l194 -596h621v-16l-498 -356l195 -592l-15 -9l-506 361z" />
    <glyph glyph-name="staropen" unicode="&#x2606;" horiz-adv-x="1703" 
d="M367 -70l-15 9l197 596l-500 356v16h623l192 596h17l194 -596h621v-16l-498 -356l195 -592l-15 -9l-506 361zM489 111l385 286l381 -286l-155 454l389 266h-469l-148 453l-147 -453h-467l387 -266z" />
    <glyph glyph-name="space_uni0326" 
d="M209 -430l-4 16q189 47 203 168q-21 -18 -62 -18q-34 0 -55 22t-21 58q0 37 29 61.5t68 24.5q52 0 83 -29.5t31 -81.5q0 -84 -72.5 -144t-199.5 -77z" />
    <glyph glyph-name="caron.alt" 
d="M479 1210l-14 7l53 262q15 75 76 75q30 0 51 -18.5t21 -48.5q0 -39 -31 -78z" />
    <glyph glyph-name="space_uni0326.alt" 
d="M684 1563l4 -17q-189 -47 -203 -168q22 19 62 19q34 0 55 -22t21 -58q0 -37 -29 -61.5t-68 -24.5q-52 0 -83 29t-31 81q0 84 72.5 144.5t199.5 77.5z" />
    <glyph glyph-name="acute.pl" 
d="M465 1180l-14 10l143 278q18 34 35.5 49t42.5 15q31 0 53.5 -22.5t22.5 -53.5q0 -42 -41 -74z" />
    <glyph glyph-name="grave.uc" 
d="M817 1495l-8 -16l-350 94q-33 8 -54.5 29t-21.5 47q0 31 21 53t53 22q25 0 61 -22z" />
    <glyph glyph-name="dieresis.uc" 
d="M438 1509q-42 0 -70 29t-28 68q0 41 27.5 67.5t70.5 26.5q41 0 69 -27.5t28 -68.5q0 -38 -28.5 -66.5t-68.5 -28.5zM782 1509q-42 0 -71 29t-29 68q0 41 27.5 67.5t70.5 26.5t71 -27.5t28 -68.5q0 -38 -28.5 -66.5t-68.5 -28.5z" />
    <glyph glyph-name="macron.uc" 
d="M346 1544l14 78h510l-16 -78h-508z" />
    <glyph glyph-name="acute.uc" 
d="M391 1483l-8 16l299 203q36 22 61 22q35 0 55.5 -21.5t20.5 -53.5q0 -26 -21.5 -47t-54.5 -29z" />
    <glyph glyph-name="circumflex.uc" 
d="M336 1479l-8 12l286 242h64l186 -240l-10 -12l-227 114z" />
    <glyph glyph-name="caron.uc" 
d="M856 1747l8 -12l-286 -242h-64l-186 240l10 12l227 -115z" />
    <glyph glyph-name="breve.uc" 
d="M592 1499q-112 0 -161.5 66.5t-47.5 173.5l14 4q15 -63 68 -97t133 -34q86 0 148 36t81 95l15 -4q-10 -107 -71.5 -173.5t-178.5 -66.5z" />
    <glyph glyph-name="dotaccent.uc" 
d="M602 1505q-44 0 -76 31.5t-32 73.5q0 43 32 73.5t76 30.5q42 0 72.5 -31t30.5 -73q0 -41 -31 -73t-72 -32z" />
    <glyph glyph-name="ring.uc" 
d="M449 1632q0 67 46.5 112.5t116.5 45.5t118 -46t48 -112t-47.5 -110.5t-118.5 -44.5q-70 0 -116.5 44.5t-46.5 110.5zM496 1632q0 -49 32.5 -82.5t83.5 -33.5q52 0 85.5 34t33.5 82t-34 83.5t-85 35.5t-83.5 -35t-32.5 -84z" />
    <glyph glyph-name="tilde.uc" 
d="M356 1485l-16 8q50 118 86.5 163.5t103.5 45.5q48 0 149 -25.5t140 -25.5q33 0 60 21t57 71l18 -8q-48 -112 -88.5 -158.5t-105.5 -46.5q-47 0 -143 24.5t-136 24.5q-68 0 -125 -94z" />
    <glyph glyph-name="hungarumlaut.uc" 
d="M322 1491l-13 12l162 244q34 49 76 49q33 0 55.5 -21t22.5 -53q0 -51 -62 -88zM641 1491l-12 12l162 244q34 49 75 49q33 0 55.5 -21t22.5 -53q0 -52 -61 -88z" />
    <glyph glyph-name="acute.ucpl" horiz-adv-x="1003" 
d="M602 1483l-14 10l133 268q18 34 35.5 49t42.5 15q31 0 53 -21.5t22 -52.5q0 -45 -40 -76z" />
    <glyph glyph-name="Cacute.pl" horiz-adv-x="1165" 
d="M598 -20q-257 0 -399 145t-142 403q0 253 104 463t282.5 329.5t390.5 119.5q219 0 356 -72l-35 -334h-20q-32 129 -64 209q-37 94 -89 125t-159 31q-136 0 -248 -74.5t-185 -200t-112.5 -288.5t-39.5 -342q0 -234 97 -355t271 -121q175 0 299 142q63 75 158 252h20
l-90 -367q-130 -65 -395 -65zM782 1483l-14 10l133 268q18 34 35.5 49t42.5 15q31 0 53.5 -21.5t22.5 -52.5q0 -44 -41 -76z" />
    <glyph glyph-name="Nacute.pl" horiz-adv-x="1282" 
d="M745 1483l-14 10l133 268q18 34 35.5 49t42.5 15q31 0 53.5 -21.5t22.5 -52.5q0 -44 -41 -76zM1004 279l172 964q4 39 5.5 62.5t-13 39.5t-33 25t-56.5 19l-47 12l4 18h367l-4 -18l-56 -15q-62 -17 -82 -41t-32 -94l-225 -1261h-60l-569 1300h-6l-197 -1114
q-13 -74 6 -100.5t90 -44.5l51 -13l-4 -18h-381l5 18l65 15q49 11 75 41t38 94l198 1122q9 49 -3 66t-58 28l-72 17l4 18h314l499 -1140h5z" />
    <glyph glyph-name="Oacute.pl" horiz-adv-x="1302" 
d="M772 1483l-14 10l133 268q18 34 35.5 49t42.5 15q31 0 53 -21.5t22 -52.5q0 -45 -40 -76zM586 -20q-108 0 -203.5 42.5t-165.5 118t-110.5 185t-40.5 237.5q0 150 39.5 287.5t109 243t160.5 184.5t198.5 120.5t217.5 41.5q152 0 267.5 -79t175.5 -214.5t60 -304.5
q0 -184 -59 -346.5t-156.5 -274.5t-226.5 -176.5t-266 -64.5zM594 20q150 0 268.5 114.5t185 320.5t66.5 467q0 477 -323 477q-153 0 -278.5 -117t-197 -321t-71.5 -453q0 -488 350 -488z" />
    <glyph glyph-name="Sacute.pl" horiz-adv-x="972" 
d="M412 -20q-250 0 -400 108l31 336h18q17 -88 64 -238q28 -90 85.5 -129t192.5 -39q82 0 145 24.5t100.5 67.5t56 97.5t18.5 118.5q0 97 -60.5 176.5t-209.5 181.5q-138 95 -198 182.5t-60 192.5q0 85 36.5 157.5t97.5 121t140.5 75.5t165.5 27q202 0 326 -70l-19 -309h-18
q-32 116 -70 203q-32 77 -85.5 108t-150.5 31q-123 0 -202.5 -77t-79.5 -206q0 -75 46.5 -143t176.5 -158q178 -122 246.5 -215.5t68.5 -206.5q0 -184 -134.5 -300.5t-327.5 -116.5zM594 1483l-14 10l133 268q18 34 35.5 49t42.5 15q31 0 53 -21.5t22 -52.5q0 -44 -41 -76z
" />
    <glyph glyph-name="Zacute.pl" horiz-adv-x="1077" 
d="M-53 0l12 45l1008 1321v8h-156q-173 0 -265.5 -10.5t-134.5 -31.5t-73 -64q-45 -61 -135 -234h-21l72 385h909l-12 -45l-1004 -1323v-8h152q209 0 308 8t143 26t81 60q61 70 152 256h21l-76 -393h-981zM637 1483l-14 10l133 268q18 34 35.5 49t42.5 15q31 0 53 -21.5
t22 -52.5q0 -44 -41 -76z" />
    <glyph glyph-name="cacute.pl" horiz-adv-x="851" 
d="M326 -20q-139 0 -214 80t-75 225q0 152 56 298.5t144.5 251t200 168.5t219.5 64q99 0 155 -38.5t56 -100.5q0 -38 -23.5 -65t-60.5 -27q-50 0 -71 28.5t-33 106.5q-9 55 -55 55q-102 0 -201 -107.5t-161 -281t-62 -354.5q0 -236 182 -236q67 0 127 24.5t100.5 56.5
t102.5 91l14 -16q-83 -104 -179.5 -163.5t-221.5 -59.5zM600 1180l-14 10l143 278q18 34 35.5 49t42.5 15q31 0 53.5 -22.5t22.5 -53.5q0 -42 -41 -74z" />
    <glyph glyph-name="idotaccent" horiz-adv-x="512" 
d="M166 -16q-43 0 -64.5 26t-21.5 66q0 43 24 147l138 611q12 56 12 92q0 19 -10 27.5t-37 1t-70 -36.5l-57 -39l-10 14q174 174 270 174q37 0 60.5 -22.5t23.5 -59.5q0 -20 -4.5 -47.5t-17.5 -84t-17 -75.5l-129 -567q-16 -83 -16 -102q0 -20 13 -27.5t44 1.5t76 36l57 35
l10 -15q-161 -155 -274 -155zM383 1239q-45 0 -74.5 30.5t-29.5 71.5q0 42 29 71.5t73 29.5q45 0 75.5 -30t30.5 -73q0 -39 -30.5 -69.5t-73.5 -30.5z" />
    <glyph glyph-name="nacute.pl" horiz-adv-x="1079" 
d="M627 1180l-15 10l144 278q18 34 35.5 49t42.5 15q31 0 53 -22.5t22 -53.5q0 -42 -41 -74zM745 -16q-79 0 -79 84q0 57 24 155l105 463q26 113 30.5 174.5t-10 87t-51.5 25.5q-38 0 -88 -28t-107 -80t-103.5 -100t-103.5 -112l-145 -653h-156l177 834q12 62 12 92
q0 19 -9.5 27.5t-37 1.5t-70.5 -37l-57 -39l-10 14q169 174 270 174q30 0 52 -20.5t22 -57.5q0 -56 -50 -284h5q70 83 125 141t116.5 112t118.5 81.5t109 27.5q74 0 111.5 -45.5t37.5 -128.5q0 -61 -37 -219l-104 -463q-17 -82 -17 -102q0 -63 133 12l58 33l10 -15
q-97 -89 -161.5 -122t-119.5 -33z" />
    <glyph glyph-name="oacute.pl" horiz-adv-x="1005" 
d="M403 -20q-158 0 -259 117t-101 294q0 104 24.5 199t66.5 167.5t97 132t117 98t126.5 59t125.5 20.5q160 0 261.5 -117.5t101.5 -294.5q0 -128 -34.5 -240t-91.5 -190t-130.5 -134.5t-151 -83.5t-152.5 -27zM403 16q106 0 198 96.5t145 258.5t53 348q0 160 -49 235.5
t-150 75.5q-103 0 -193.5 -93t-145 -255.5t-54.5 -353.5q0 -160 48.5 -236t147.5 -76zM575 1180l-14 10l144 278q18 34 35 49t42 15q31 0 53.5 -22.5t22.5 -53.5q0 -42 -41 -74z" />
    <glyph glyph-name="sacute.pl" horiz-adv-x="747" 
d="M268 -20q-143 0 -214.5 42.5t-71.5 110.5q0 35 21.5 58.5t59.5 23.5q36 0 58.5 -20.5t38.5 -77.5q15 -56 42.5 -77.5t88.5 -21.5q86 0 145.5 59t59.5 144q0 70 -36 122.5t-132 131.5q-102 83 -143.5 149.5t-41.5 137.5q0 133 101.5 219t244.5 86q113 0 180.5 -38.5
t67.5 -98.5q0 -38 -21 -60t-57 -22q-41 0 -62.5 23t-37.5 77q-14 45 -33 62.5t-63 17.5q-86 0 -141.5 -59.5t-55.5 -141.5q0 -60 37 -109t146 -136q95 -74 138.5 -140t43.5 -145q0 -138 -101 -227.5t-262 -89.5zM461 1180l-15 10l144 278q18 34 35.5 49t42.5 15
q31 0 53 -22.5t22 -53.5q0 -42 -41 -74z" />
    <glyph glyph-name="zacute.pl" horiz-adv-x="839" 
d="M504 -20q-48 0 -103.5 25t-97.5 54.5t-91.5 54.5t-86.5 25q-33 0 -59.5 -29.5t-88.5 -125.5h-6l-51 47v6q32 23 57.5 43.5t49.5 44t35 34.5t37.5 40.5t33.5 36.5l545 583q-76 14 -230 70.5t-215 56.5q-28 0 -28 -18q0 -10 22 -19.5t44 -28t22 -49.5q0 -30 -23.5 -50.5
t-60.5 -20.5q-40 0 -63 24.5t-23 65.5q0 79 80 148t180 69q46 0 100.5 -26.5t94.5 -57.5t82 -57.5t67 -26.5q36 0 65.5 34.5t67.5 115.5h6l52 -43v-7q-24 -18 -52 -44t-43 -42t-47 -51t-37 -41l-557 -598q73 -4 211 -49t178 -45q54 0 90 24.5t95 104.5l18 -10
q-26 -45 -36 -62.5t-33 -54t-36 -52t-35 -39.5t-40 -34t-41.5 -18t-48.5 -8zM532 1180l-14 10l144 278q18 34 35 49t42 15q31 0 53.5 -22.5t22.5 -53.5q0 -42 -41 -74z" />
    <glyph glyph-name="dollar.old" horiz-adv-x="892" 
d="M307 -207l31 189q-174 7 -269.5 69.5t-95.5 138.5q0 39 22 64t60 25q53 0 72.5 -31t24.5 -96q5 -69 46 -100.5t146 -35.5l105 602l-9 7q-158 98 -222 189.5t-64 195.5q0 80 34.5 148t91.5 114t130.5 72t152.5 28l21 121h43l-23 -123q76 -4 143 -25.5t113.5 -63.5
t46.5 -97q0 -36 -21 -58t-59 -22q-77 0 -86 100q-5 60 -37 90.5t-106 36.5l-94 -545l22 -14q161 -107 227 -195.5t66 -214.5q0 -72 -31 -140t-86 -122t-139 -87t-182 -33h-2l-31 -187h-41zM668 313q0 82 -44.5 148.5t-138.5 132.5l-100 -578h8q130 0 202.5 84t72.5 213z
M289 1057q0 -65 42 -120.5t134 -123.5l90 520q-126 -1 -196 -79.5t-70 -196.5z" />
    <glyph glyph-name="Euro.old" horiz-adv-x="1026" 
d="M47 768l8 41h121q80 254 256.5 406.5t374.5 152.5q125 0 204 -48t79 -120q0 -41 -25 -65.5t-64 -24.5q-82 0 -94 111q-7 65 -29.5 85.5t-78.5 20.5q-153 0 -281 -140t-188 -378h448l-10 -41h-446q-18 -82 -27 -172h422l-8 -41h-416q-2 -29 -2 -88q0 -188 91.5 -291.5
t252.5 -103.5q84 0 148 19t130 59l-4 -29q-137 -141 -346 -141q-203 0 -321.5 123.5t-118.5 351.5q0 67 4 100h-119l8 41h115q7 71 33 172h-117z" />
    </font>
</defs>
</svg>
