<?xml version="1.0" standalone="no"?>
<!DOCTYPE svg PUBLIC "-//W3C//DTD SVG 1.1//EN" "http://www.w3.org/Graphics/SVG/1.1/DTD/svg11.dtd" >
<svg xmlns="http://www.w3.org/2000/svg" xmlns:xlink="http://www.w3.org/1999/xlink" version="1.1">
<metadata>
Created by FontForge 20170731 at Mon Apr 26 17:07:19 2021
 By Aleksey,,,
(c)2012 Paul Barnes, Christian Schwartz, and Ross Milne, under exclusive license to Schwartzco Inc./Commercial Type. All rights reserved.
</metadata>
<defs>
<font id="PublicoBanner-Black" horiz-adv-x="999" >
  <font-face 
    font-family="Publico Banner Black"
    font-weight="850"
    font-stretch="normal"
    units-per-em="2048"
    panose-1="2 4 10 2 6 5 4 6 2 3"
    ascent="1645"
    descent="-403"
    x-height="1077"
    cap-height="1419"
    bbox="-305 -518 2638 2202"
    underline-thickness="145"
    underline-position="-302"
    unicode-range="U+0020-FB04"
  />
<missing-glyph horiz-adv-x="1024" 
 />
    <glyph glyph-name="f_f" unicode="ff" horiz-adv-x="1394" 
d="M651 1536q196 0 275 -88q140 115 389 115q147 0 232 -49t85 -140q0 -68 -41.5 -105.5t-113.5 -37.5q-83 0 -118.5 44.5t-41.5 154.5q-3 45 -10.5 58t-26.5 13q-49 0 -70.5 -49.5t-21.5 -175.5v-199h190l-16 -110h-174v-799q0 -68 12 -85t68 -32l59 -16v-35h-647v35l31 8
q54 13 63.5 30t9.5 95v799h-260v-799q0 -74 10.5 -93t63.5 -32l31 -8v-35h-631v35l37 10q61 17 73.5 34.5t12.5 88.5v799h-133v24l133 86v25q0 199 137 316.5t393 117.5zM784 1077v51q0 34 7 78q-61 9 -84.5 53t-28.5 144q-3 44 -12.5 58t-28.5 14q-57 0 -85 -51t-28 -175
v-172h260z" />
    <glyph glyph-name="f_i" unicode="fi" horiz-adv-x="1306" 
d="M770 1077l406 27l16 -12q-8 -131 -8 -267v-657q0 -72 12.5 -90t73.5 -33l37 -10v-35h-631v35l31 8q54 13 63.5 30t9.5 95v663q0 92 -16.5 114t-83.5 22h-156v-799q0 -74 10.5 -93t63.5 -32l31 -8v-35h-631v35l37 10q61 17 73.5 34.5t12.5 88.5v799h-133v24l133 86v8
q0 217 157 347.5t437 130.5q168 0 270 -60t102 -168q0 -57 -44 -96t-125 -39q-100 0 -139.5 48t-61.5 194q-4 35 -15.5 47t-37.5 12q-63 0 -101.5 -60.5t-38.5 -189.5v-174h246z" />
    <glyph glyph-name="f_l" unicode="fl" horiz-adv-x="1316" 
d="M-2 0v35l37 10q61 17 73.5 34.5t12.5 88.5v799h-133v24l133 86v51q0 200 139.5 317.5t403.5 117.5q111 0 189 -29t108 -84l217 100l18 -12q-8 -111 -8 -248v-1122q0 -38 2 -56.5t15 -32t27 -19t50 -15.5l37 -10v-35h-639v35l31 8q25 6 35 10t20.5 10.5t12.5 21t3.5 31
t1.5 52.5v1065q-59 9 -86 55t-32 142q-3 45 -10.5 58t-26.5 13q-58 0 -81.5 -49t-23.5 -176v-199h166l-16 -110h-150v-799q0 -74 11 -93t63 -32l31 -8v-35h-631z" />
    <glyph glyph-name="f_f_i" unicode="ffi" horiz-adv-x="1970" 
d="M680 0v35l31 8q24 6 35 10.5t20.5 11t12 21.5t4 31t1.5 51v799h-260v-799q0 -74 10.5 -93t63.5 -32l31 -8v-35h-631v35l37 10q61 17 73.5 34.5t12.5 88.5v799h-133v24l133 86v25q0 199 137 316.5t393 117.5q217 0 289 -104q160 131 438 131q168 0 270.5 -60t102.5 -168
q0 -57 -44.5 -96t-125.5 -39q-100 0 -139.5 48t-61.5 194q-4 35 -15.5 47t-37.5 12q-63 0 -101 -60.5t-38 -189.5v-174h246l405 27l16 -12q-8 -131 -8 -267v-657q0 -72 12.5 -90t73.5 -33l37 -10v-35h-631v35l31 8q21 5 31 8t20 10t13 12t6.5 20.5t3.5 30v44.5v663
q0 91 -17 113.5t-84 22.5h-155v-799q0 -74 10.5 -93t63.5 -32l30 -8v-35h-612zM784 1085q0 63 15 119q-66 7 -91 51.5t-30 147.5q-3 44 -12.5 58t-28.5 14q-57 0 -85 -51t-28 -175v-172h260v8z" />
    <glyph glyph-name="f_f_l" unicode="ffl" horiz-adv-x="1980" 
d="M680 0v35l31 8q24 6 35 10.5t20.5 11t12 21.5t4 31t1.5 51v799h-260v-799q0 -74 10.5 -93t63.5 -32l31 -8v-35h-631v35l37 10q61 17 73.5 34.5t12.5 88.5v799h-133v24l133 86v25q0 199 137 316.5t393 117.5q205 0 281 -92q150 119 418 119q231 0 305 -99l186 86l19 -12
q-9 -111 -9 -248v-1122q0 -69 15 -87t80 -36l36 -10v-35h-639v35l31 8q21 5 31 8t20 10t13 12t6.5 20.5t3.5 30v44.5v1092q-49 13 -70 53t-26 117q-3 45 -10.5 58t-26.5 13q-61 0 -94 -51.5t-33 -173.5v-199h194l-16 -110h-178v-799q0 -74 10.5 -93t63.5 -32l30 -8v-35h-612
zM784 1128q0 34 7 78q-61 9 -84.5 53t-28.5 144q-3 44 -12.5 58t-28.5 14q-57 0 -85 -51t-28 -175v-172h260v51z" />
    <glyph glyph-name="f_b" unicode="fb" horiz-adv-x="1964" 
d="M-2 0v35l37 10q61 17 73.5 34.5t12.5 88.5v799h-133v24l133 86v51q0 197 149 316t416 119q108 0 188.5 -25.5t116.5 -73.5l183 86l18 -12q-8 -111 -8 -248v-342h6q160 156 338 156q59 0 114.5 -17t107.5 -56.5t90.5 -96.5t61.5 -143t23 -191q0 -132 -31 -237.5
t-86 -177.5t-133.5 -119.5t-171.5 -69t-203 -21.5q-323 0 -520 142v1143q-47 14 -67 54t-25 116q-3 45 -10.5 58t-26.5 13q-61 0 -94 -51.5t-33 -173.5v-199h166l-16 -110h-150v-799q0 -68 12 -85t68 -32l60 -16v-35h-666zM1325 35q49 0 80.5 17t57.5 66t38 145.5t12 246.5
q0 155 -25.5 241t-74.5 118t-135 32q-44 0 -94 -12v-772q23 -36 60 -59t81 -23z" />
    <glyph glyph-name="f_f_b" unicode="ffb" horiz-adv-x="2627" 
d="M651 1536q205 0 281 -92q150 119 418 119q108 0 188.5 -25.5t116.5 -73.5l182 86l18 -12q-8 -111 -8 -248v-342h6q160 156 338 156q59 0 114.5 -17t107.5 -56.5t90.5 -96.5t62 -143t23.5 -191q0 -132 -31 -237.5t-86 -177.5t-133.5 -119.5t-171.5 -69t-203 -21.5
q-323 0 -520 142v1143q-47 14 -67 54t-25 116q-3 45 -10.5 58t-26.5 13q-61 0 -94 -51.5t-33 -173.5v-199h166l-17 -110h-149v-799q0 -68 12 -85t68 -32l59 -16v-35h-647v35l31 8q24 6 35 10.5t20.5 11t12 21.5t4 31t1.5 51v799h-260v-799q0 -74 10.5 -93t63.5 -32l31 -8
v-35h-631v35l37 10q61 17 73.5 34.5t12.5 88.5v799h-133v24l133 86v25q0 199 137 316.5t393 117.5zM1989 35q49 0 80.5 17t57.5 66t38 145.5t12 246.5q0 155 -25.5 241t-74.5 118t-135 32q-45 0 -95 -12v-772q23 -36 60.5 -59t81.5 -23zM784 1077v51q0 34 7 78
q-61 9 -84.5 53t-28.5 144q-3 44 -12.5 58t-28.5 14q-57 0 -85 -51t-28 -175v-172h260z" />
    <glyph glyph-name="f_f_h" unicode="ffh" horiz-adv-x="2635" 
d="M680 0v35l31 8q24 6 35 10.5t20.5 11t12 21.5t4 31t1.5 51v799h-260v-799q0 -74 10.5 -93t63.5 -32l31 -8v-35h-631v35l37 10q61 17 73.5 34.5t12.5 88.5v799h-133v24l133 86v25q0 199 137 316.5t393 117.5q205 0 281 -92q150 119 418 119q231 0 305 -99l188 86l19 -12
q-9 -111 -9 -248v-338h7q94 70 186.5 111t202.5 41q120 0 192 -71t72 -204v-661q0 -39 1.5 -56.5t12.5 -32t25 -19.5t49 -15l37 -10v-35h-633v35l31 8q53 13 63 30.5t10 94.5v584q0 81 -30 114t-90 33q-83 0 -136 -12v-719q0 -43 1 -61.5t10.5 -33t21 -18.5t41.5 -12l31 -8
v-35h-615v35l31 8q53 13 63.5 31t10.5 94v1092q-49 13 -70 53t-26 117q-3 45 -10.5 58t-26.5 13q-61 0 -94 -51.5t-33 -173.5v-199h166l-17 -110h-149v-799q0 -74 10 -92t64 -33l30 -8v-35h-612zM784 1128q0 34 7 78q-61 9 -84.5 53t-28.5 144q-3 44 -12.5 58t-28.5 14
q-57 0 -85 -51t-28 -175v-172h260v51z" />
    <glyph glyph-name="f_f_j" unicode="ffj" horiz-adv-x="1939" 
d="M651 1536q217 0 289 -104q160 131 438 131q168 0 270.5 -60t102.5 -168q0 -57 -44.5 -96t-125.5 -39q-100 0 -139.5 48t-61.5 194q-4 35 -15.5 47t-37.5 12q-63 0 -101 -60.5t-38 -189.5v-174h246l405 27l16 -12q-8 -131 -8 -267v-778q0 -206 -134.5 -335.5
t-352.5 -129.5q-160 0 -244 59.5t-84 159.5q0 67 42 104.5t116 37.5q57 0 89 -17t53 -69.5t28 -153.5q3 -36 8.5 -46.5t22.5 -10.5q28 0 40.5 29t12.5 110v1046q0 91 -17 113.5t-84 22.5h-155v-799q0 -68 12 -85t68 -32l59 -16v-35h-647v35l31 8q24 6 35 10.5t20.5 11
t12 21.5t4 31t1.5 51v799h-260v-799q0 -74 10.5 -93t63.5 -32l31 -8v-35h-631v35l37 10q61 17 73.5 34.5t12.5 88.5v799h-133v24l133 86v25q0 199 137 316.5t393 117.5zM784 1077v8q0 63 15 119q-66 7 -91 51.5t-30 147.5q-3 44 -12.5 58t-28.5 14q-57 0 -85 -51t-28 -175
v-172h260z" />
    <glyph glyph-name="f_f_k" unicode="ffk" horiz-adv-x="2596" 
d="M680 0v35l31 8q24 6 35 10.5t20.5 11t12 21.5t4 31t1.5 51v799h-260v-799q0 -74 10.5 -93t63.5 -32l31 -8v-35h-631v35l37 10q61 17 73.5 34.5t12.5 88.5v799h-133v24l133 86v25q0 199 137 316.5t393 117.5q205 0 281 -92q150 119 418 119q231 0 305 -99l188 86l19 -12
q-9 -111 -9 -248v-1122q0 -76 9.5 -93t60.5 -32l27 -8v-35h-607v35l31 8q30 8 41.5 12t21 18.5t10.5 33t1 61.5v1092q-49 13 -70 53t-26 117q-3 45 -10.5 58t-26.5 13q-61 0 -94 -51.5t-33 -173.5v-199h166l-17 -110h-149v-799q0 -73 10 -92t64 -33l30 -8v-35h-612zM2138 0
q-83 117 -155.5 254.5t-108.5 241.5v24l219 242q105 116 105 178q0 68 -103 94l-31 8v35h490v-35l-19 -4q-46 -10 -88.5 -34t-101.5 -82l-184 -177q69 -156 181 -352.5t181 -290.5q24 -32 38.5 -44.5t39.5 -18.5l16 -4v-35h-479zM784 1128q0 34 7 78q-61 9 -84.5 53
t-28.5 144q-3 44 -12.5 58t-28.5 14q-57 0 -85 -51t-28 -175v-172h260v51z" />
    <glyph glyph-name="f_h" unicode="fh" horiz-adv-x="1972" 
d="M-2 0v35l37 10q61 17 73.5 34.5t12.5 88.5v799h-133v24l133 86v51q0 197 149 316t416 119q109 0 189 -25t116 -74l189 86l18 -12q-8 -111 -8 -248v-338h6q94 70 186.5 111t202.5 41q120 0 192 -71t72 -204v-661q0 -39 1.5 -56.5t12.5 -32t25 -19.5t49 -15l37 -10v-35
h-633v35l31 8q54 13 64 30.5t10 94.5v584q0 81 -30.5 114t-90.5 33q-83 0 -135 -12v-719q0 -43 1 -61.5t10.5 -33t21 -18.5t41.5 -12l30 -8v-35h-614v35l31 8q53 13 63 31t10 94v1092q-49 13 -70 53t-26 117q-3 45 -10.5 58t-26.5 13q-61 0 -94 -51.5t-33 -173.5v-199h166
l-16 -110h-150v-799q0 -73 10 -91.5t64 -33.5l31 -8v-35h-631z" />
    <glyph glyph-name="f_j" unicode="fj" horiz-adv-x="1275" 
d="M1184 825v-778q0 -206 -135 -335.5t-353 -129.5q-160 0 -243.5 59.5t-83.5 159.5q0 67 41.5 104.5t115.5 37.5q57 0 89 -17t53 -69.5t28 -153.5q3 -36 8.5 -46.5t22.5 -10.5q28 0 40.5 29t12.5 110v1046q0 92 -16.5 114t-83.5 22h-156v-799q0 -68 12 -85t68 -32l60 -16
v-35h-666v35l37 10q61 17 73.5 34.5t12.5 88.5v799h-133v24l133 86v8q0 217 157 347.5t437 130.5q168 0 270 -60t102 -168q0 -57 -44 -96t-125 -39q-100 0 -139.5 48t-61.5 194q-4 35 -15.5 47t-37.5 12q-63 0 -101.5 -60.5t-38.5 -189.5v-174h246l406 27l16 -12
q-8 -131 -8 -267z" />
    <glyph glyph-name="f_k" unicode="fk" horiz-adv-x="1933" 
d="M-2 0v35l37 10q61 17 73.5 34.5t12.5 88.5v799h-133v24l133 86v51q0 197 149 316t416 119q109 0 189 -25t116 -74l189 86l18 -12q-8 -111 -8 -248v-1122q0 -76 9.5 -93t60.5 -32l26 -8v-35h-606v35l31 8q21 5 30 8t19.5 9.5t13.5 12t6.5 21t3.5 30v44.5v1092
q-49 13 -70 53t-26 117q-3 45 -10.5 58t-26.5 13q-61 0 -94 -51.5t-33 -173.5v-199h166l-16 -110h-150v-799q0 -73 10 -91.5t64 -33.5l31 -8v-35h-631zM1475 0q-83 118 -156.5 255.5t-108.5 240.5v24l220 242q104 115 104 178q0 68 -102 94l-31 8v35h489v-35l-18 -4
q-47 -11 -89.5 -34.5t-101.5 -81.5l-184 -177q69 -156 181.5 -352.5t181.5 -290.5q24 -33 38.5 -45t38.5 -18l17 -4v-35h-479z" />
    <glyph glyph-name=".notdef" horiz-adv-x="1024" 
 />
    <glyph glyph-name=".null" horiz-adv-x="0" 
 />
    <glyph glyph-name="nonmarkingreturn" horiz-adv-x="682" 
 />
    <glyph glyph-name="space" unicode=" " horiz-adv-x="378" 
 />
    <glyph glyph-name="exclam" unicode="!" horiz-adv-x="585" 
d="M270 461l-194 637q-51 168 12.5 255t202.5 87q141 0 205.5 -87t13.5 -255l-195 -637h-45zM96 178q0 85 57 140t140 55q79 0 137.5 -55.5t58.5 -139.5q0 -80 -59 -137t-137 -57q-82 0 -139.5 56.5t-57.5 137.5z" />
    <glyph glyph-name="quotedbl" unicode="&#x22;" horiz-adv-x="800" 
d="M205 899l-123 315q-47 123 -2.5 181.5t141.5 58.5q60 0 98.5 -22.5t54 -76t-17.5 -141.5l-112 -315h-39zM557 899l-113 315q-44 124 -0.5 182t138.5 58q96 0 140 -59t-3 -181l-123 -315h-39z" />
    <glyph glyph-name="numbersign" unicode="#" horiz-adv-x="917" 
d="M399 0l88 385h-211l-88 -385h-69l88 385h-182l61 248h180l39 172h-180l57 248h180l87 366h69l-86 -366h211l86 366h70l-86 -366h180l-59 -248h-179l-39 -172h183l-60 -248h-182l-88 -385h-70zM375 805l-39 -172h211l39 172h-211z" />
    <glyph glyph-name="dollar" unicode="$" horiz-adv-x="1089" 
d="M25 236q0 75 44.5 112t120.5 37q44 0 74 -8t56 -31t42.5 -66.5t26.5 -111.5q9 -72 27 -97.5t67 -29.5v475q-131 46 -218 96t-137 109.5t-70.5 124t-20.5 147.5q0 180 138 304t341 139v135h64v-133q218 -3 326 -71t108 -167q0 -66 -44 -102.5t-114 -36.5q-93 0 -130.5 42
t-51.5 161q-8 61 -26 84.5t-68 27.5v-436q265 -97 374 -209t109 -278q0 -191 -137 -325t-379 -146v-199h-64v197q-241 3 -349.5 71.5t-108.5 184.5zM752 258q0 79 -54 141.5t-151 96.5v-457q85 2 145 58.5t60 160.5zM332 1186q0 -76 40.5 -127t143.5 -94v413
q-84 -5 -134 -53t-50 -139z" />
    <glyph glyph-name="percent" unicode="%" horiz-adv-x="1515" 
d="M147 -102l1094 1564h86l-1094 -1564h-86zM410 733q-160 0 -263.5 89.5t-103.5 258.5q0 77 25 140.5t64.5 103.5t90 68t99.5 39.5t96 11.5q72 0 138 -22.5t119 -65.5t84.5 -111.5t31.5 -152.5q0 -90 -33.5 -161t-89 -113t-121.5 -63.5t-137 -21.5zM416 793q63 0 79.5 56
t16.5 230q0 131 -7.5 193t-27.5 87t-61 25q-37 0 -57 -20.5t-31 -84.5t-11 -185q0 -183 18.5 -242t80.5 -59zM1092 -25q-160 0 -263.5 90t-103.5 259q0 77 25 140t64.5 103.5t90 68t99.5 39t96 11.5q72 0 138 -22.5t119 -65.5t84.5 -111.5t31.5 -152.5q0 -90 -33.5 -161
t-89 -113t-121.5 -63.5t-137 -21.5zM1098 35q63 0 79.5 56.5t16.5 230.5q0 131 -7.5 193t-27.5 87t-61 25q-37 0 -57 -21t-31 -85t-11 -185q0 -183 18.5 -242t80.5 -59z" />
    <glyph glyph-name="ampersand" unicode="&#x26;" horiz-adv-x="1536" 
d="M1184 1167q0 -192 -369 -329q155 -235 330 -445q65 127 65 225q0 90 -86 117l-53 17v34h457v-34l-43 -13q-58 -14 -104.5 -69.5t-120.5 -188.5q-48 -87 -78 -133q109 -128 202 -221q41 -41 66 -59t55 -27l21 -6v-35h-582q-36 34 -70 70q-182 -95 -374 -95
q-237 0 -358.5 92t-121.5 265q0 138 103.5 237.5t267.5 155.5q-76 149 -76 276q0 124 65.5 226t176.5 159.5t244 57.5q183 0 283 -80t100 -197zM836 115q-225 248 -412 557q-27 -66 -27 -176q0 -169 81 -285.5t210 -116.5q84 0 148 21zM664 1202q0 -84 28.5 -159.5
t95.5 -168.5q142 92 142 293q0 97 -32 158t-95 61q-61 0 -100 -48t-39 -136z" />
    <glyph glyph-name="quotesingle" unicode="'" horiz-adv-x="444" 
d="M203 899l-123 315q-47 122 -1 181t144 59q96 0 142.5 -59t-0.5 -181l-123 -315h-39z" />
    <glyph glyph-name="parenleft" unicode="(" horiz-adv-x="622" 
d="M582 -289q-57 38 -111 82.5t-115 106t-111.5 136.5t-92.5 162t-65.5 193.5t-23.5 220.5q0 124 34.5 247.5t88.5 222t124.5 187.5t138 151t133.5 106l18 -21q-134 -124 -218.5 -354.5t-84.5 -491.5q0 -168 22.5 -309t65.5 -252.5t95 -197t122 -168.5z" />
    <glyph glyph-name="parenright" unicode=")" horiz-adv-x="622" 
d="M41 1526q66 -44 133.5 -106t138 -151t124 -187.5t88 -222t34.5 -247.5q0 -136 -35 -262t-87 -220t-125 -179t-137 -139.5t-134 -100.5l-21 21q70 83 122 168.5t95.5 197t66 253t22.5 308.5q0 261 -84.5 491.5t-218.5 354.5z" />
    <glyph glyph-name="asterisk" unicode="*" horiz-adv-x="718" 
d="M154 825q-24 16 -37.5 40t-14.5 51.5t20.5 56t63.5 49.5l164 84l-178 -29q-47 -7 -80 3.5t-46 32t-18 48.5t5 53q11 36 36 57.5t66.5 16t87.5 -50.5l131 -125l-84 164q-31 60 -22 99.5t38 58t72 18.5q41 0 69 -18.5t37 -57.5t-22 -100l-84 -164l131 129q34 34 67.5 45
t58 1.5t42 -29.5t25.5 -46q20 -59 -15.5 -104t-125.5 -31l-179 29l164 -86q42 -22 62.5 -50t19 -55t-14 -50t-34.5 -38q-30 -23 -65.5 -24t-67.5 29t-41 90l-29 180l-28 -182q-7 -45 -27.5 -73t-46 -36.5t-52 -4.5t-48.5 19z" />
    <glyph glyph-name="plus" unicode="+" horiz-adv-x="993" 
d="M461 285v391h-371v63h371v389h71v-389h371v-63h-371v-391h-71z" />
    <glyph glyph-name="comma" unicode="," horiz-adv-x="487" 
d="M35 -225l-8 28q117 39 185 123t73 185q-28 -64 -101 -64q-64 0 -103.5 41t-39.5 109q0 79 55 126.5t135 47.5q92 0 155 -60.5t63 -173.5q0 -144 -110 -238t-304 -124z" />
    <glyph glyph-name="hyphen" unicode="-" horiz-adv-x="561" 
d="M33 451l24 237h471l-28 -237h-467z" />
    <glyph glyph-name="period" unicode="." horiz-adv-x="475" 
d="M41 178q0 85 57 140t140 55q79 0 137.5 -55.5t58.5 -139.5q0 -80 -59 -137t-137 -57q-82 0 -139.5 56.5t-57.5 137.5z" />
    <glyph glyph-name="slash" unicode="/" horiz-adv-x="778" 
d="M754 1503l-682 -1769h-76l682 1769h76z" />
    <glyph glyph-name="zero" unicode="0" horiz-adv-x="1443" 
d="M713 -25q-141 0 -261 45t-211 132.5t-142.5 226.5t-51.5 315q0 133 31.5 247t85 194t121.5 141t146 97t152 53.5t144 17.5q104 0 201 -29t182.5 -89t149 -145t100.5 -205t37 -261q0 -150 -40 -275t-106.5 -209.5t-155.5 -143.5t-185 -85.5t-197 -26.5zM723 35
q49 0 81.5 19t56 61t36 120.5t18 185t5.5 267.5q0 226 -10.5 364t-36.5 211.5t-59.5 97t-90.5 23.5q-33 0 -57.5 -9t-48.5 -33.5t-40 -71t-28.5 -118.5t-18.5 -180t-6 -251q0 -287 19 -433t59.5 -199.5t120.5 -53.5z" />
    <glyph glyph-name="one" unicode="1" horiz-adv-x="837" 
d="M14 0v35l68 16q41 10 57 15.5t29.5 24t15.5 44t2 80.5v870l-163 43v35q193 37 348.5 107t240.5 168l39 -15v-1208q0 -55 2 -80.5t16 -44t30 -24t57 -15.5l67 -16v-35h-809z" />
    <glyph glyph-name="two" unicode="2" horiz-adv-x="1120" 
d="M18 0v221q242 193 379 340q126 135 179 259.5t53 283.5q0 151 -29.5 215.5t-97.5 64.5q-44 0 -61.5 -24.5t-20.5 -89.5q-4 -84 -17.5 -136t-42 -81t-66 -39t-97.5 -10q-78 0 -123 41t-45 110q0 123 137.5 206t372.5 83q258 0 403 -99.5t145 -302.5q0 -83 -45 -163.5
t-118 -148.5t-186.5 -138.5t-228.5 -127.5t-265 -122v-8h610q73 0 100.5 25.5t71.5 136.5h41l-29 -496h-1020z" />
    <glyph glyph-name="three" unicode="3" horiz-adv-x="1161" 
d="M496 -25q-480 0 -480 269q0 73 49.5 113t133.5 40q98 0 140.5 -54.5t49.5 -207.5q3 -61 18.5 -80.5t57.5 -19.5q99 0 138.5 90.5t39.5 277.5q0 79 -10.5 134.5t-28 89t-48 52t-63.5 24.5t-81 6h-95v65h86q82 0 129 25.5t72 92.5t25 187q0 166 -25.5 235.5t-97.5 69.5
q-34 0 -49.5 -16.5t-18.5 -52.5q-15 -151 -57 -205.5t-145 -54.5q-166 0 -166 139q0 117 123.5 183.5t345.5 66.5q235 0 381.5 -88t146.5 -252q0 -121 -90.5 -214.5t-271.5 -125.5v-6q92 -5 165 -26.5t130.5 -63t88.5 -109.5t31 -158q0 -201 -157 -313.5t-467 -112.5z" />
    <glyph glyph-name="four" unicode="4" horiz-adv-x="1245" 
d="M430 0v35l59 16q39 11 55 17.5t29.5 25t16 44t2.5 77.5v195h-572v106l719 903h293v-862h197l-17 -147h-180v-195q0 -71 8 -100.5t26 -41t67 -22.5l67 -16v-35h-770zM150 557h442v557h-6l-436 -551v-6z" />
    <glyph glyph-name="five" unicode="5" horiz-adv-x="1093" 
d="M446 -25q-213 0 -318 69t-105 183q0 73 44 110.5t128 37.5q69 0 106.5 -20t58.5 -75t27 -161q3 -46 20 -65t68 -19q191 0 191 264q0 157 -81 226t-243 69q-121 0 -209 -41l-29 18l91 848h639q52 0 74 19t59 92h41l-43 -430h-734l-22 -215q37 16 117 29.5t176 13.5
q262 0 408.5 -119.5t146.5 -345.5q0 -94 -38 -180t-111 -155.5t-192.5 -111t-269.5 -41.5z" />
    <glyph glyph-name="six" unicode="6" horiz-adv-x="1292" 
d="M657 -25q-97 0 -183.5 22.5t-165.5 74.5t-136 130t-91 196.5t-34 265.5q0 165 43 299t114.5 222t170.5 147.5t206.5 85.5t225.5 26q186 0 286.5 -59t100.5 -168q0 -70 -42.5 -110t-133.5 -40q-99 0 -138.5 45t-48.5 170q-4 63 -18.5 81.5t-50.5 18.5q-85 0 -134 -51
t-77 -184t-33 -373q136 74 303 74q204 0 323.5 -98.5t119.5 -303.5q0 -101 -37.5 -186t-110.5 -149t-190.5 -100t-268.5 -36zM666 35q85 0 111 86t26 313q0 118 -19.5 183t-56.5 89.5t-102 24.5q-59 0 -109 -18v-70q0 -257 15 -387.5t45.5 -175.5t89.5 -45z" />
    <glyph glyph-name="seven" unicode="7" horiz-adv-x="1067" 
d="M178 0q26 135 77.5 262.5t117 234.5t154.5 213.5t179.5 194t202.5 182.5h-673q-69 0 -97 -33t-76 -169h-40l36 534h992v-202q-110 -149 -184 -295.5t-114.5 -298.5t-57.5 -297t-19 -326h-498z" />
    <glyph glyph-name="eight" unicode="8" horiz-adv-x="1183" 
d="M571 -25q-254 0 -402.5 91t-148.5 239q0 62 22.5 110t69 84t99.5 62t131 53v4q-146 62 -206 151t-60 220q0 101 48 188t125.5 144.5t174.5 90t197 32.5q128 0 236.5 -34t178.5 -104.5t70 -166.5q0 -51 -25 -96t-67.5 -78.5t-91.5 -58t-105 -40.5v-4q180 -69 264 -171
t84 -251q0 -91 -47.5 -176.5t-127 -148.5t-189.5 -101.5t-230 -38.5zM592 35q109 0 181.5 52t72.5 163q0 41 -12.5 72t-38.5 59.5t-81.5 59t-126 62.5t-188.5 79q-61 -95 -61 -242q0 -305 254 -305zM750 901q32 42 45.5 88t13.5 141q0 254 -209 254q-96 0 -155.5 -48
t-59.5 -140q0 -93 76.5 -155.5t288.5 -139.5z" />
    <glyph glyph-name="nine" unicode="9" horiz-adv-x="1292" 
d="M635 1446q97 0 183.5 -22.5t165.5 -74.5t136 -129.5t91 -196t34 -265.5q0 -166 -42.5 -299.5t-114.5 -222t-172 -148t-211 -85.5t-236 -26q-186 0 -288.5 59.5t-102.5 168.5q0 153 176 153q99 0 139 -45t49 -170q4 -63 20 -83.5t52 -20.5q96 0 149 52t79.5 182t31.5 374
q-128 -74 -303 -74q-204 0 -323 98.5t-119 303.5q0 101 37 186t110 149t190.5 100t268.5 36zM627 1386q-85 0 -111.5 -86t-26.5 -313q0 -172 41 -234.5t138 -62.5q56 0 108 19v69q0 257 -15 387.5t-45 175.5t-89 45z" />
    <glyph glyph-name="colon" unicode=":" horiz-adv-x="475" 
d="M41 178q0 85 57 140t140 55q79 0 137.5 -55.5t58.5 -139.5q0 -80 -59 -137t-137 -57q-82 0 -139.5 56.5t-57.5 137.5zM41 733q0 85 57 140t140 55q79 0 137.5 -55.5t58.5 -139.5q0 -80 -59 -137t-137 -57q-82 0 -139.5 56.5t-57.5 137.5z" />
    <glyph glyph-name="semicolon" unicode=";" horiz-adv-x="487" 
d="M35 -223l-8 28q117 39 185 123t73 185q-28 -64 -101 -64q-64 0 -103.5 41t-39.5 109q0 79 55 126.5t135 47.5q92 0 155 -60.5t63 -173.5q0 -144 -110 -238t-304 -124zM41 733q0 85 57 140t140 55q79 0 137.5 -55.5t58.5 -139.5q0 -80 -59 -137t-137 -57
q-82 0 -139.5 56.5t-57.5 137.5z" />
    <glyph glyph-name="less" unicode="&#x3c;" horiz-adv-x="974" 
d="M866 270l-772 351v65l772 350v-73l-686 -310l686 -309v-74z" />
    <glyph glyph-name="equal" unicode="=" horiz-adv-x="1120" 
d="M96 795v67h928v-67h-928zM96 510v68h928v-68h-928z" />
    <glyph glyph-name="greater" unicode="&#x3e;" horiz-adv-x="974" 
d="M881 621l-772 -351v74l686 309l-686 310v73l772 -350v-65z" />
    <glyph glyph-name="question" unicode="?" horiz-adv-x="968" 
d="M293 461v389q66 19 111.5 41.5t85.5 58t59.5 90.5t19.5 129q0 106 -37 157.5t-100 51.5q-29 0 -39 -18.5t-16 -77.5q-12 -116 -56 -161.5t-145 -45.5q-75 0 -115.5 40t-40.5 102q0 105 117 165t318 60q220 0 344.5 -99.5t124.5 -287.5t-141 -316t-416 -178v-100h-74z
M154 178q0 85 56.5 140t139.5 55q79 0 138 -55.5t59 -139.5q0 -80 -59.5 -137t-137.5 -57q-82 0 -139 56t-57 138z" />
    <glyph glyph-name="at" unicode="@" horiz-adv-x="1859" 
d="M1386 145q32 0 68 16t75 57t69.5 101t50.5 157.5t20 217.5q0 141 -36.5 254.5t-110 198.5t-193.5 131.5t-278 46.5q-128 0 -248.5 -33.5t-228 -104t-187.5 -171t-127 -244.5t-47 -315q0 -335 171.5 -515t508.5 -180q274 0 506 101v-41q-87 -50 -237 -88.5t-328 -38.5
q-130 0 -248 28.5t-218.5 87.5t-174 144t-115 204.5t-41.5 262.5q0 161 58 311t158 266.5t228 204t275 134t293 46.5q351 0 560.5 -177.5t209.5 -489.5q0 -158 -50.5 -284t-136.5 -205t-195.5 -120.5t-232.5 -41.5q-109 0 -159 48.5t-62 135.5h-6q-47 -72 -136.5 -129.5
t-187.5 -57.5q-112 0 -166.5 74.5t-54.5 212.5q0 134 53.5 261t139 217.5t195.5 145t220 54.5q79 0 152.5 -28.5t122.5 -69.5h6l123 82l18 -6q-22 -55 -59 -248l-78 -406q-23 -101 -10.5 -154t71.5 -53zM852 250q68 0 117 65l118 613q-26 51 -69 51q-61 0 -116 -103.5
t-85.5 -246t-30.5 -269.5q0 -110 66 -110z" />
    <glyph glyph-name="A" unicode="A" horiz-adv-x="1433" 
d="M-12 0v35l26 8q37 11 56.5 28t43 64t62.5 154l412 1130h243l420 -1128q55 -148 79 -190.5t67 -55.5l35 -10v-35h-805v35l57 14q42 10 60 32t18 60q0 68 -43 191l-37 119h-363l-40 -121q-41 -121 -41 -183q0 -37 22 -58.5t82 -39.5l49 -14v-35h-403zM506 1004l-164 -484
h317l-147 484h-6z" />
    <glyph glyph-name="B" unicode="B" horiz-adv-x="1388" 
d="M10 0v35l56 14q27 7 39 11.5t25 14.5t17 27t6.5 43t2.5 70v989q0 44 -2.5 70t-6.5 43t-17 27t-25 14.5t-39 11.5l-56 14v35h717q308 0 444 -81.5t136 -256.5q0 -259 -375 -313v-6q220 -31 329 -113.5t109 -249.5q0 -399 -592 -399h-768zM729 72q89 0 126.5 75.5
t37.5 266.5q0 118 -22 184t-64.5 91.5t-118.5 25.5h-72v-525q0 -67 28 -92.5t85 -25.5zM616 778h66q75 0 112 24.5t52.5 85.5t15.5 183q0 112 -17.5 173t-49.5 82.5t-88 21.5q-55 0 -91 -9v-561z" />
    <glyph glyph-name="C" unicode="C" horiz-adv-x="1294" 
d="M770 -25q-221 0 -384.5 82.5t-255 246.5t-91.5 394q0 151 40.5 275.5t112 210.5t170 145.5t213.5 87t244 27.5q225 0 383 -47l33 -479h-39q-125 248 -209 358q-42 56 -83.5 82t-104.5 26q-139 0 -205 -159.5t-66 -485.5q0 -271 30.5 -427.5t86.5 -216.5t148 -60
q74 0 126.5 25.5t102.5 93.5q62 82 190 356h37l-24 -455q-212 -80 -455 -80z" />
    <glyph glyph-name="D" unicode="D" horiz-adv-x="1527" 
d="M10 0v35l56 14q27 7 39 11.5t25 14.5t17 27t6.5 43t2.5 70v989q0 44 -2.5 70t-6.5 43t-17 27t-25 14.5t-39 11.5l-56 14v35h754q348 0 536.5 -170t188.5 -508q0 -344 -195 -542.5t-538 -198.5h-746zM729 68q272 0 272 620q0 157 -12.5 273t-34.5 190t-57 119t-76 62.5
t-96 17.5t-102 -13v-1142q0 -78 23 -102.5t83 -24.5z" />
    <glyph glyph-name="E" unicode="E" horiz-adv-x="1259" 
d="M963 1018v-576h-37q-25 112 -68 197q-20 38 -53 50.5t-129 12.5h-53v-495q0 -46 4 -69t20.5 -40.5t46.5 -22.5t86 -5q78 0 121 13t68 38.5t63 85.5q87 144 162 338h41l-29 -545h-1196v35l56 14q27 7 39 11.5t25 14.5t17 27t6.5 43t2.5 70v989q0 44 -2.5 70t-6.5 43
t-17 27t-25 14.5t-39 11.5l-56 14v35h1155l19 -465h-39q-71 167 -137 273q-45 72 -94 97.5t-140 25.5q-101 0 -151 -13v-569h55q67 0 103 7t50 18.5t27 35.5q42 81 68 189h37z" />
    <glyph glyph-name="F" unicode="F" horiz-adv-x="1202" 
d="M674 682h-51v-467q0 -38 0.5 -60t5 -41t9 -27.5t17.5 -16.5t25 -11t37 -8l76 -16v-35h-783v35l56 14q27 7 39 11.5t25 14.5t17 27t6.5 43t2.5 70v989q0 44 -2.5 70t-6.5 43t-17 27t-25 14.5t-39 11.5l-56 14v35h1147l21 -477h-39q-89 197 -127 262q-35 59 -59.5 86
t-66 43.5t-106.5 16.5q-97 0 -157 -13v-589h53q67 0 103 7.5t50.5 19t32.5 38.5q34 57 68 191h35v-588h-35q-37 141 -68 192q-22 34 -37.5 47t-49 20t-101.5 7z" />
    <glyph glyph-name="G" unicode="G" horiz-adv-x="1419" 
d="M803 -25q-382 0 -573 190t-191 542q0 153 43.5 277.5t119 209t181 141.5t225 83t254.5 26q236 0 391 -51l23 -473h-39q-101 212 -172 315q-61 90 -114 119.5t-128 29.5q-158 0 -228.5 -160t-70.5 -491q0 -395 52 -546.5t202 -151.5q71 0 111 37v331q0 73 -7.5 103
t-23.5 41t-61 22l-56 15v34h684v-34l-43 -13q-40 -10 -48.5 -36t-8.5 -132v-342q-88 -36 -236.5 -61t-285.5 -25z" />
    <glyph glyph-name="H" unicode="H" horiz-adv-x="1607" 
d="M10 0v35l56 14q27 7 39 11.5t25 14.5t17 27t6.5 43t2.5 70v989q0 44 -2.5 70t-6.5 43t-17 27t-25 14.5t-39 11.5l-56 14v35h752v-35l-49 -14q-45 -13 -60.5 -24t-22.5 -40.5t-7 -101.5v-440h362v440q0 72 -7 101.5t-22.5 40.5t-60.5 24l-49 14v35h751v-35l-55 -14
q-27 -7 -39 -11.5t-25 -14.5t-17 -27t-6.5 -43t-2.5 -70v-989q0 -44 2.5 -70t6.5 -43t17 -27t25 -14.5t39 -11.5l55 -14v-35h-751v35l49 14q45 13 60 24t22.5 41t7.5 101v475h-362v-475q0 -71 7.5 -101t22.5 -41t60 -24l49 -14v-35h-752z" />
    <glyph glyph-name="I" unicode="I" horiz-adv-x="790" 
d="M10 0v35l62 14q44 10 59.5 21t23 41.5t7.5 103.5v989q0 73 -7.5 103.5t-23 41.5t-59.5 21l-62 14v35h770v-35l-61 -14q-44 -10 -59.5 -21t-23 -41.5t-7.5 -103.5v-989q0 -73 7.5 -103.5t23 -41.5t59.5 -21l61 -14v-35h-770z" />
    <glyph glyph-name="J" unicode="J" horiz-adv-x="1107" 
d="M375 -20q-186 0 -288.5 69.5t-102.5 177.5q0 86 49 131t137 45q51 0 84.5 -12t61 -44.5t42 -93.5t19.5 -157q1 -29 11 -39t30 -10q67 0 67 141v1016q0 73 -6.5 103.5t-22 42t-57.5 20.5l-59 14v35h758v-35l-58 -14q-28 -7 -40.5 -12t-24.5 -14t-15.5 -27.5t-5.5 -42.5
t-2 -70v-682q0 -244 -155.5 -393t-421.5 -149z" />
    <glyph glyph-name="K" unicode="K" horiz-adv-x="1546" 
d="M1008 0q-212 299 -353 655v41l357 416q80 95 80 168q0 63 -82 88l-56 16v35h519v-35l-52 -12q-57 -14 -109 -52.5t-138 -133.5l-205 -228q111 -239 244 -475t245 -387q20 -26 33.5 -36.5t38.5 -16.5l31 -8v-35h-553zM10 0v35l56 14q27 7 39 11.5t25 14.5t17 27t6.5 43
t2.5 70v989q0 44 -2.5 70t-6.5 43t-17 27t-25 14.5t-39 11.5l-56 14v35h752v-35l-49 -14q-45 -13 -60.5 -24t-22.5 -40.5t-7 -101.5v-989q0 -71 7.5 -101t22.5 -41t60 -24l49 -14v-35h-752z" />
    <glyph glyph-name="L" unicode="L" horiz-adv-x="1228" 
d="M10 0v35l56 14q27 7 39 11.5t25 14.5t17 27t6.5 43t2.5 70v989q0 44 -2.5 70t-6.5 43t-17 27t-25 14.5t-39 11.5l-56 14v35h770v-35l-67 -14q-34 -7 -48.5 -12.5t-26 -24t-13.5 -46t-2 -83.5v-1003q0 -59 9 -84.5t38.5 -37t95.5 -11.5q80 0 119 10.5t63.5 34.5t61.5 86
q71 119 170 372h41l-41 -571h-1170z" />
    <glyph glyph-name="M" unicode="M" horiz-adv-x="1787" 
d="M10 0v35l56 14q58 15 74 51t16 156v948q0 44 -2.5 70t-6.5 43t-17 27t-25 14.5t-39 11.5l-56 14v35h623l256 -719h8l266 719h615v-35l-56 -14q-27 -7 -39 -11.5t-25 -14.5t-17 -27t-6.5 -43t-2.5 -70v-989q0 -44 2.5 -70t6.5 -43t17 -27t25 -14.5t39 -11.5l56 -14v-35
h-764v35l55 14q45 11 61 22t23.5 41t7.5 103v969h-8l-420 -1153h-90l-399 1153h-8v-914q0 -132 15 -168t83 -53l57 -14v-35h-381z" />
    <glyph glyph-name="N" unicode="N" horiz-adv-x="1384" 
d="M1098 0l-854 1169h-8v-899q0 -57 2 -87.5t7 -57t17.5 -39t30.5 -21.5t49 -16l64 -14v-35h-396v35l56 14q58 15 74 51t16 156v948q0 85 -18 119t-72 47l-56 14v35h602l527 -696h8v426q0 57 -2 87t-6.5 56t-17.5 38.5t-30 21t-49 16.5l-67 16v35h399v-35l-57 -14
q-40 -9 -58 -27t-25 -57t-7 -123v-1163h-129z" />
    <glyph glyph-name="O" unicode="O" horiz-adv-x="1523" 
d="M756 -25q-108 0 -209.5 25.5t-194.5 82t-162 138.5t-110 203.5t-41 267.5q0 157 45 286.5t117.5 214t169 143t196 83.5t201.5 25q111 0 211 -22.5t194 -76t162 -134t109 -205t41 -279.5q0 -158 -45 -288t-117.5 -214.5t-169 -142t-196 -82.5t-201.5 -25zM764 35
q84 0 132.5 53.5t74.5 195.5t26 394q0 282 -26.5 438t-75.5 212t-135 56q-59 0 -100.5 -29t-73 -100t-47 -198t-15.5 -316q0 -281 26 -436t76 -212.5t138 -57.5z" />
    <glyph glyph-name="P" unicode="P" horiz-adv-x="1384" 
d="M10 0v35l56 14q27 7 39 11.5t25 14.5t17 27t6.5 43t2.5 70v989q0 55 -2.5 83t-15.5 45.5t-26.5 23t-48.5 14.5l-53 14v35h735q320 0 467.5 -94.5t147.5 -316.5q0 -86 -29.5 -159t-91.5 -133.5t-170 -95t-252 -34.5q-89 0 -149 18v47q50 4 83.5 11.5t59 25t39.5 40.5
t23 63.5t11.5 86.5t2.5 117q0 154 -16.5 229.5t-51.5 101.5t-106 26q-41 0 -90 -11v-1126q0 -67 8 -96.5t25.5 -41t64.5 -24.5l70 -18v-35h-781z" />
    <glyph glyph-name="Q" unicode="Q" horiz-adv-x="1523" 
d="M1198 -344q-124 0 -220 30.5t-202 102.5q-96 64 -280 234q-96 31 -176.5 86t-144.5 136t-100 195.5t-36 251.5q0 157 45 286.5t117.5 214t169 143t196 83.5t201.5 25q111 0 211 -22.5t194 -76t162 -134t109 -205t41 -279.5q0 -148 -34.5 -262t-99.5 -190.5t-144 -125
t-183 -81.5v-5q82 -79 172 -141q65 -44 115.5 -63t109.5 -19q95 0 181 39v-33q-24 -31 -59 -61.5t-85.5 -61t-118.5 -49t-141 -18.5zM764 27q83 0 132 56t75 199.5t26 395.5q0 282 -26.5 438t-75.5 212t-135 56q-59 0 -100.5 -29t-73 -100t-47 -198t-15.5 -316
q0 -281 26 -437.5t76 -216.5t138 -60z" />
    <glyph glyph-name="R" unicode="R" horiz-adv-x="1505" 
d="M10 0v35l56 14q27 7 39 11.5t25 14.5t17 27t6.5 43t2.5 70v989q0 44 -2.5 70t-6.5 43t-17 27t-25 14.5t-39 11.5l-56 14v35h756q315 0 459.5 -89.5t144.5 -282.5q0 -136 -60 -214.5t-194 -121.5v-6q59 -140 151.5 -318.5t164.5 -280.5q34 -49 81 -61l35 -10v-35h-581
q-149 222 -293 625q-24 0 -47 2v-412q0 -56 2 -82.5t11.5 -45.5t22.5 -24.5t42 -13.5l55 -14v-35h-750zM698 690q52 0 87.5 13.5t62.5 48.5t40 99t13 161q0 182 -36 259t-140 77q-53 0 -98 -9v-643q24 -6 71 -6z" />
    <glyph glyph-name="S" unicode="S" horiz-adv-x="1079" 
d="M487 -25q-301 0 -432 64l-26 438h43q98 -201 180 -305q59 -73 117.5 -105t140.5 -32q97 0 150 55.5t53 151.5q0 100 -62 160.5t-225 115.5q-223 75 -310 178t-87 277q0 204 153 337.5t396 133.5q237 0 372 -64l21 -389h-43q-93 202 -174 289q-56 60 -101.5 82t-107.5 22
q-92 0 -145.5 -50t-53.5 -138q0 -84 58.5 -138.5t218.5 -111.5q244 -85 341 -185.5t97 -268.5q0 -81 -25 -157.5t-74 -141.5t-117 -114t-160.5 -76.5t-197.5 -27.5z" />
    <glyph glyph-name="T" unicode="T" horiz-adv-x="1347" 
d="M950 1352h-43v-1137q0 -37 1 -59t6.5 -40.5t10 -27t20.5 -17t28 -12t41 -10.5l61 -14v-35h-803v35l62 14q34 8 48 13t29 14.5t19.5 27t7 42.5t2.5 69v1137h-43q-51 0 -83 -23t-68 -78q-57 -87 -180 -368h-41l16 536h1266l16 -536h-41q-103 254 -178 368
q-42 62 -69.5 81.5t-84.5 19.5z" />
    <glyph glyph-name="U" unicode="U" horiz-adv-x="1425" 
d="M782 -25q-149 0 -260 24t-196 78t-128.5 148t-43.5 228v751q0 55 -2.5 83t-15.5 45.5t-26.5 23t-48.5 14.5l-55 14v35h760v-35l-55 -14q-35 -9 -48.5 -14.5t-26.5 -23t-15.5 -45.5t-2.5 -83v-794q0 -161 72 -236.5t230 -75.5q149 0 212.5 86t63.5 248v717q0 56 -2 87.5
t-7 57t-18 38t-30 21t-47 15.5l-68 16v35h395v-35l-57 -14q-36 -9 -53 -26t-25 -58t-8 -123v-747q0 -97 -28.5 -175.5t-86 -139t-154 -93.5t-225.5 -33z" />
    <glyph glyph-name="V" unicode="V" horiz-adv-x="1396" 
d="M612 0l-450 1163q-24 63 -35 89t-29 58t-35.5 45t-42.5 19l-45 10v35h797v-35l-57 -14q-40 -10 -57 -30.5t-17 -55.5q0 -41 41 -162l231 -678h7l217 676q37 116 37 160q0 39 -19 59t-63 31l-62 14v35h391v-35l-51 -16q-38 -11 -65 -57.5t-62 -145.5l-405 -1165h-226z" />
    <glyph glyph-name="W" unicode="W" horiz-adv-x="2127" 
d="M1671 461l205 663q31 102 31 156q0 41 -20 62.5t-60 29.5l-64 12v35h396v-35l-37 -10q-50 -13 -81.5 -63t-72.5 -172l-383 -1139h-225l-266 831h-4l-281 -831h-242l-426 1192q-38 107 -59 140t-64 42l-49 10v35h762v-35l-45 -12q-76 -19 -76 -82q0 -47 41 -168l230 -661
h6l166 491l-92 287q-20 61 -42.5 90.5t-66.5 42.5l-39 12v35h752v-35l-72 -16q-66 -14 -66 -90q0 -37 35 -156l203 -661h6z" />
    <glyph glyph-name="X" unicode="X" horiz-adv-x="1456" 
d="M762 1149l153 -291h5l153 289q51 92 51 145q0 29 -21.5 50t-64.5 30l-55 12v35h442v-35l-34 -10q-50 -13 -88 -52.5t-103 -145.5l-237 -385l333 -594q13 -23 24 -41t21 -32.5t16.5 -24t16 -17.5t13 -12.5t13 -9t12 -5.5t13 -5t13.5 -5l26 -10v-35h-821v35l74 14
q67 11 67 74q0 47 -55 145l-170 318h-4l-170 -291q-76 -126 -76 -176q0 -30 17.5 -46t54.5 -24l68 -14v-35h-457v35l26 8q59 18 106 57.5t107 128.5l283 422l-324 572q-40 71 -64.5 98.5t-72.5 48.5l-35 14v35h830v-35l-74 -16q-67 -15 -67 -68q0 -56 55 -151z" />
    <glyph glyph-name="Y" unicode="Y" horiz-adv-x="1343" 
d="M305 0v35l62 14q34 8 48 13t29 14.5t19.5 27t7 42.5t2.5 69v399l-330 586q-63 111 -81.5 136t-53.5 36l-37 12v35h820v-35l-64 -14q-94 -22 -94 -90q0 -55 35 -121l227 -442h6l178 420q35 81 35 137q0 71 -88 96l-51 14v35h385v-35l-39 -12q-33 -10 -58.5 -47.5
t-72.5 -140.5l-252 -557v-412q0 -44 2.5 -69t7 -42.5t19.5 -27t29 -14.5t48 -13l62 -14v-35h-801z" />
    <glyph glyph-name="Z" unicode="Z" horiz-adv-x="1304" 
d="M35 0v72l688 1276v6h-55q-112 0 -170 -8t-91.5 -28.5t-64.5 -64.5q-85 -121 -186 -356h-43l30 522h1100v-71l-696 -1274v-8h67q107 0 164.5 4t102 19.5t68.5 38t57 67.5t70.5 112t57.5 107.5t70 144.5h45l-41 -559h-1173z" />
    <glyph glyph-name="bracketleft" unicode="[" horiz-adv-x="657" 
d="M354 1290v-1341q0 -104 26 -131.5t128 -36.5l127 -12v-35h-488v1769h488v-35l-127 -12q-55 -5 -81 -11t-45 -24t-23.5 -46.5t-4.5 -84.5z" />
    <glyph glyph-name="backslash" unicode="\" horiz-adv-x="778" 
d="M707 -266l-682 1769h75l682 -1769h-75z" />
    <glyph glyph-name="bracketright" unicode="]" horiz-adv-x="657" 
d="M303 -51v1341q0 37 -1.5 60.5t-8.5 42.5t-16 28.5t-28.5 17t-40.5 11t-58 6.5l-127 12v35h487v-1769h-487v35l127 12q55 5 81 11t44.5 25t23 47.5t4.5 84.5z" />
    <glyph glyph-name="asciicircum" unicode="^" horiz-adv-x="849" 
d="M59 872l-18 17l332 530h102l334 -530l-18 -17l-371 263z" />
    <glyph glyph-name="underscore" unicode="_" horiz-adv-x="854" 
d="M0 -324v76h854v-76h-854z" />
    <glyph glyph-name="grave" unicode="`" 
d="M737 1200l-8 -20l-393 61q-58 8 -86.5 45t-28.5 86q0 63 41 109.5t98 46.5q41 0 71.5 -15t62.5 -49z" />
    <glyph glyph-name="a" unicode="a" horiz-adv-x="1118" 
d="M315 -25q-137 0 -217 68.5t-80 187.5q0 57 19.5 102t47 73.5t77 53.5t89 38t103.5 30l234 64v196q0 144 -21.5 199t-83.5 55q-42 0 -60.5 -16t-21.5 -68q-7 -130 -44.5 -175.5t-131.5 -45.5q-166 0 -166 133q0 109 123.5 171.5t376.5 62.5q208 0 320 -68.5t112 -224.5
v-561q0 -70 8.5 -97t36.5 -42q40 -21 92 -21v-31q-109 -84 -276 -84q-194 0 -242 134h-8q-51 -61 -117 -97.5t-170 -36.5zM512 129q55 0 76 37v342l-47 -4q-71 -5 -100 -45.5t-29 -145.5q0 -184 100 -184z" />
    <glyph glyph-name="b" unicode="b" horiz-adv-x="1273" 
d="M610 -25q-323 0 -520 142v1171q0 86 -9.5 111.5t-55.5 46.5l-68 31v26l526 47l19 -12q-8 -111 -8 -248v-342h6q160 156 338 156q59 0 114.5 -17t107.5 -56.5t90.5 -96.5t61.5 -143t23 -191q0 -132 -31 -237.5t-86 -177.5t-133.5 -119.5t-171.5 -69t-203 -21.5zM635 35
q49 0 80.5 17t57.5 66t38 145.5t12 246.5q0 155 -25.5 242t-74.5 120t-135 33q-27 0 -94 -16v-772q23 -36 60 -59t81 -23z" />
    <glyph glyph-name="c" unicode="c" horiz-adv-x="1042" 
d="M563 -25q-255 0 -395.5 147t-140.5 400q0 121 38 220.5t101 165.5t147 111t173.5 65t183.5 20q171 0 264.5 -56.5t93.5 -166.5q0 -75 -42.5 -115.5t-127.5 -40.5q-98 0 -134.5 48t-45.5 175q-7 59 -16.5 75.5t-47.5 16.5q-22 0 -40.5 -5t-41 -19t-39 -43t-31 -72.5
t-22.5 -112t-8 -157.5q0 -96 7.5 -163.5t28 -127t55.5 -95t91 -55.5t134 -20q133 0 266 68v-37q-21 -32 -58.5 -67t-93.5 -73t-135 -62t-164 -24z" />
    <glyph glyph-name="d" unicode="d" horiz-adv-x="1306" 
d="M453 -25q-185 0 -299.5 128.5t-114.5 375.5q0 164 48 287t133 195.5t191.5 107.5t233.5 35q65 0 133 -21v205q0 73 -11 95t-56 47l-82 45v28l547 47l16 -12q-8 -111 -8 -248v-1052q0 -84 9.5 -106t59.5 -40l50 -18v-27l-494 -72l-27 19v129h-6q-72 -69 -149 -108.5
t-174 -39.5zM662 158q56 0 116 24v774q-24 44 -53 66t-78 22q-61 0 -102.5 -39.5t-67.5 -144.5t-26 -278q0 -236 48.5 -330t162.5 -94z" />
    <glyph glyph-name="e" unicode="e" horiz-adv-x="1112" 
d="M582 -25q-275 0 -415 140t-140 409q0 112 32.5 208.5t88 163.5t128 115t152.5 70.5t162 22.5q486 0 500 -500h-666q2 -131 24.5 -217.5t68.5 -133.5t105 -65t146 -18q139 0 279 72v-39q-64 -89 -185.5 -158.5t-279.5 -69.5zM573 1047q-34 0 -59 -17t-46 -59t-32 -120
t-12 -192l274 21q0 218 -25.5 292.5t-99.5 74.5z" />
    <glyph glyph-name="f" unicode="f" horiz-adv-x="731" 
d="M-2 0v35l37 10q61 17 73.5 34.5t12.5 88.5v799h-133v24l133 86v51q0 199 137 317t393 118q147 0 232.5 -49t85.5 -140q0 -68 -42 -105.5t-114 -37.5q-83 0 -118.5 44.5t-41.5 154.5q-3 45 -10.5 58t-26.5 13q-49 0 -70.5 -49.5t-21.5 -175.5v-199h191l-17 -110h-174v-799
q0 -68 12 -85t68 -32l60 -16v-35h-666z" />
    <glyph glyph-name="g" unicode="g" horiz-adv-x="1097" 
d="M440 -418q-473 0 -473 217q0 75 70 126.5t201 66.5v4q-107 27 -156 82.5t-49 142.5q0 84 49 151t117 107v4q-168 87 -168 262q0 166 130 262.5t335 96.5q154 0 278 -62q123 119 240 119q62 0 99.5 -31.5t37.5 -93.5q0 -49 -26.5 -81.5t-82.5 -32.5q-47 0 -67 18t-35 61
q-8 23 -22.5 33.5t-32.5 9.5t-36.5 -8.5t-37.5 -21.5v-4q66 -44 108 -104t42 -130q0 -168 -130 -263t-335 -95q-151 0 -256 43q-31 -41 -31 -86q0 -56 88 -56h418q80 0 141.5 -13.5t112 -45t77.5 -88.5t27 -137q0 -140 -82.5 -244t-225 -156.5t-325.5 -52.5zM487 -358
q344 0 344 196q0 76 -46 109t-146 33h-356q-37 -40 -37 -148q0 -91 55 -140.5t186 -49.5zM496 475q42 0 62 22t29 80.5t9 180.5q0 123 -10 185t-30.5 83t-59.5 21q-42 0 -62.5 -21.5t-29.5 -80.5t-9 -181q0 -121 10 -182.5t30.5 -84t60.5 -22.5z" />
    <glyph glyph-name="h" unicode="h" horiz-adv-x="1308" 
d="M922 1104q120 0 192 -71t72 -204v-661q0 -39 1.5 -56.5t12.5 -32t25 -19.5t49 -15l37 -10v-35h-633v35l31 8q53 13 63 30.5t10 94.5v584q0 81 -30 114t-90 33q-84 0 -136 -12v-719q0 -43 1 -61.5t10.5 -33t21 -18.5t41.5 -12l31 -8v-35h-633v35l37 10q61 17 73.5 34.5
t12.5 88.5v1120q0 84 -9.5 108t-56.5 50l-67 31v26l528 47l19 -12q-9 -111 -9 -248v-338h6q94 70 187 111t203 41z" />
    <glyph glyph-name="i" unicode="i" horiz-adv-x="647" 
d="M-2 0v35l37 10q61 17 73.5 34.5t12.5 88.5v674q0 47 -5 68.5t-17.5 35.5t-47.5 39l-65 47v19l530 53l16 -12q-8 -133 -8 -263v-661q0 -71 12.5 -88.5t73.5 -34.5l37 -10v-35h-649zM115 1362q0 82 56.5 132t141.5 50q86 0 142.5 -50t56.5 -132q0 -83 -56 -132.5
t-143 -49.5q-85 0 -141.5 49.5t-56.5 132.5z" />
    <glyph glyph-name="j" unicode="j" horiz-adv-x="616" 
d="M524 829v-782q0 -204 -138 -334.5t-349 -130.5q-162 0 -252 60t-90 163q0 72 44 111t122 39q59 0 93 -19.5t55 -75t28 -157.5q3 -36 8.5 -46.5t20.5 -10.5q28 0 41.5 29.5t13.5 109.5v1057q0 47 -5 68.5t-17.5 35.5t-47.5 39l-65 47v19l530 53l16 -12q-8 -133 -8 -263z
M115 1362q0 82 56.5 132t141.5 50q86 0 142.5 -50t56.5 -132q0 -83 -56 -132.5t-143 -49.5q-85 0 -141.5 49.5t-56.5 132.5z" />
    <glyph glyph-name="k" unicode="k" horiz-adv-x="1269" 
d="M811 0q-83 117 -155.5 254.5t-108.5 241.5v24l219 242q104 115 104 178q0 68 -102 94l-31 8v35h490v-35l-19 -4q-46 -10 -88.5 -34t-101.5 -82l-184 -177q69 -156 181 -352.5t181 -290.5q24 -32 38.5 -44.5t39.5 -18.5l16 -4v-35h-479zM526 1290v-1122q0 -76 9.5 -93
t60.5 -32l27 -8v-35h-625v35l37 10q61 17 73.5 34.5t12.5 88.5v1120q0 84 -9.5 108t-56.5 50l-67 31v26l528 47l19 -12q-9 -111 -9 -248z" />
    <glyph glyph-name="l" unicode="l" horiz-adv-x="659" 
d="M530 1290v-1122q0 -69 15 -87t80 -36l37 -10v-35h-664v35l37 10q30 9 43.5 14t26 12t16 21t5 29t1.5 47v1120q0 83 -11 107.5t-61 50.5l-67 31v26l532 47l19 -12q-9 -111 -9 -248z" />
    <glyph glyph-name="m" unicode="m" horiz-adv-x="1925" 
d="M-2 0v35l37 10q61 17 73.5 34.5t12.5 88.5v672q0 67 -9.5 87.5t-56.5 55.5l-65 47v21l510 53l16 -12v-156h6q198 168 383 168q90 0 153 -43t89 -125h6q199 168 389 168q117 0 188.5 -71.5t71.5 -203.5v-661q0 -72 11.5 -88t76.5 -35l37 -10v-35h-622v35l28 8q27 8 37 12
t18.5 18.5t9.5 33.5t1 61v586q0 82 -25.5 110.5t-89.5 28.5q-81 0 -125 -8q4 -28 4 -80v-637q0 -75 9.5 -92.5t56.5 -32.5l26 -8v-35h-589v35l28 8q22 6 31.5 10.5t18.5 11t11.5 21t3.5 31t1 51.5v586q0 82 -24.5 110.5t-84.5 28.5q-77 0 -127 -12v-713q0 -55 4 -75.5
t16 -30t46 -19.5l28 -8v-35h-620z" />
    <glyph glyph-name="n" unicode="n" horiz-adv-x="1308" 
d="M-2 0v35l37 10q61 17 73.5 34.5t12.5 88.5v672q0 68 -9.5 88.5t-56.5 54.5l-65 47v21l510 53l16 -12v-156h6q102 79 195 123.5t203 44.5q120 0 192 -71t72 -204v-661q0 -39 1.5 -56.5t12.5 -32t25 -19.5t49 -15l37 -10v-35h-633v35l31 8q53 13 63 30.5t10 94.5v584
q0 79 -30 110t-91 31q-83 0 -135 -12v-713q0 -43 1 -61.5t10.5 -33t21 -18.5t41.5 -12l31 -8v-35h-631z" />
    <glyph glyph-name="o" unicode="o" horiz-adv-x="1220" 
d="M610 -25q-92 0 -177 21.5t-159 66.5t-129 110t-86.5 158t-31.5 204q0 121 33.5 218.5t89 162t131.5 107.5t158 62t171 19q116 0 219 -34.5t185.5 -101.5t131 -176.5t48.5 -248.5q0 -120 -33 -217.5t-88 -162t-131 -107.5t-158.5 -62t-173.5 -19zM614 35q35 0 58 8.5
t44.5 36.5t33.5 81t19 143.5t7 221.5q0 137 -8.5 233t-22 151t-37 85.5t-47 39.5t-57.5 9q-39 0 -66 -18t-49.5 -67.5t-33.5 -147.5t-11 -248q0 -175 9 -281t32 -160t51.5 -70.5t77.5 -16.5z" />
    <glyph glyph-name="p" unicode="p" horiz-adv-x="1304" 
d="M-2 -408v35l37 11q62 17 74 34.5t12 87.5v1080q0 50 -4 70t-16 34.5t-46 38.5l-65 47v21l510 53l16 -12v-144h10q78 74 156 115t186 41q82 0 151.5 -28.5t126 -87t88.5 -158t32 -230.5q0 -132 -30.5 -238t-84.5 -177.5t-130.5 -119t-165 -69t-191.5 -21.5q-70 0 -140 17
v-232q0 -32 1.5 -48t4.5 -30t13.5 -20.5t22.5 -11t38 -10.5l51 -13v-35h-657zM662 35q40 0 68 11t52.5 41t39.5 82.5t23.5 137t8.5 203.5q0 117 -13.5 196t-42 122.5t-64.5 61t-87 17.5q-62 0 -123 -18v-778q21 -32 59.5 -54t78.5 -22z" />
    <glyph glyph-name="q" unicode="q" horiz-adv-x="1286" 
d="M645 -408v35l51 13q26 6 38 10.5t22.5 11t13.5 20.5t4.5 30t1.5 48v349h-6q-72 -66 -149 -100t-179 -34q-82 0 -153 30t-128 89.5t-89.5 160.5t-32.5 232q0 161 47 282t131.5 193t192 107t237.5 35q120 0 209.5 -25t183.5 -78h9l110 95l21 -11v-1325q0 -70 12.5 -87.5
t75.5 -34.5l37 -11v-35h-660zM653 147q51 0 123 25v799q-49 73 -133 73q-43 0 -76.5 -22.5t-60 -73.5t-41 -143.5t-14.5 -222.5q0 -170 23 -266.5t65 -132.5t114 -36z" />
    <glyph glyph-name="r" unicode="r" horiz-adv-x="993" 
d="M-2 0v35l37 10q61 17 73.5 34.5t12.5 88.5v674q0 66 -9.5 86.5t-56.5 54.5l-65 47v21l510 53l16 -12v-164h6q55 70 134 122t169 52q76 0 122 -44t46 -128q0 -87 -47.5 -137t-124.5 -50q-68 0 -103.5 27.5t-60.5 81.5q-11 24 -21 32.5t-28 8.5q-52 0 -84 -29v-696
q0 -53 6.5 -75t22 -31t57.5 -17l45 -8v-37h-657z" />
    <glyph glyph-name="s" unicode="s" horiz-adv-x="907" 
d="M391 -25q-197 0 -338 41l-12 355h39q82 -149 162 -244q41 -49 81.5 -69.5t104.5 -20.5q68 0 110 37t42 102q0 63 -48.5 100t-209.5 99q-146 54 -217.5 136t-71.5 210q0 77 28.5 144.5t84 121.5t147.5 85.5t209 31.5q89 0 169.5 -12.5t121.5 -28.5l14 -301h-35
q-97 148 -139 190q-49 49 -85.5 69.5t-94.5 20.5q-64 0 -104 -32.5t-40 -89.5q0 -61 44 -97.5t175 -81.5q196 -70 274.5 -156t78.5 -216q0 -177 -127.5 -285.5t-362.5 -108.5z" />
    <glyph glyph-name="t" unicode="t" horiz-adv-x="772" 
d="M424 -25q-171 0 -247.5 77t-76.5 249v666h-112v24q132 49 246.5 153.5t166.5 219.5h103v-287h250l-17 -110h-233v-668q0 -92 25.5 -122t107.5 -30q67 0 133 17v-35q-128 -154 -346 -154z" />
    <glyph glyph-name="u" unicode="u" horiz-adv-x="1306" 
d="M780 199v639q0 69 -9.5 91t-55.5 54l-66 47v21l518 53l17 -12v-854q0 -83 10.5 -105.5t60.5 -40.5l50 -18v-27l-500 -72l-17 13v151h-6q-102 -79 -192.5 -121.5t-204.5 -42.5q-123 0 -193.5 70.5t-70.5 204.5v588q0 69 -9.5 89.5t-56.5 55.5l-65 47v21l518 53l16 -12
v-746q0 -88 29 -124t88 -36q67 0 139 13z" />
    <glyph glyph-name="v" unicode="v" horiz-adv-x="1150" 
d="M496 0l-365 856q-42 100 -65.5 131t-63.5 45l-31 10v35h713v-35l-47 -14q-43 -13 -61.5 -31t-18.5 -55q0 -45 29 -121l170 -452h6l145 426q37 101 37 153q0 55 -80 80l-45 14v35h361v-35l-27 -10q-46 -18 -74.5 -56t-68.5 -142l-324 -834h-190z" />
    <glyph glyph-name="w" unicode="w" horiz-adv-x="1757" 
d="M1618 836l-313 -836h-181l-231 641h-4l-248 -641h-180l-336 858q-40 101 -63 132.5t-56 41.5l-35 10v35h647v-35l-24 -6q-62 -14 -62 -65q0 -38 35 -148l144 -444h6l137 364l-41 115q-37 106 -57 135.5t-56 40.5l-28 8v35h659v-35l-43 -12q-44 -12 -63 -31.5t-19 -56.5
q0 -42 25 -119l141 -444h8l146 444q26 83 26 127q0 61 -69 78l-56 14v35h359v-35l-27 -10q-48 -18 -75 -53t-66 -143z" />
    <glyph glyph-name="x" unicode="x" horiz-adv-x="1196" 
d="M1047 186q60 -91 78.5 -111.5t58.5 -31.5l26 -8v-35h-708v35l43 8q29 6 46 23t17 40q0 42 -47 117l-139 219h-6l-113 -188q-51 -86 -51 -141q0 -29 17 -46t55 -24l41 -8v-35h-388v35l41 8q38 8 67.5 33.5t84.5 107.5l211 318l-250 389q-55 85 -78 109.5t-53 33.5l-27 8
v35h709v-35l-39 -8q-78 -16 -78 -69q0 -41 49 -115l129 -203h7l94 184q35 66 35 119q0 65 -84 84l-35 8v35h389v-35l-29 -8q-42 -10 -78 -47.5t-88 -122.5l-168 -278z" />
    <glyph glyph-name="y" unicode="y" horiz-adv-x="1136" 
d="M752 408l149 399q37 98 37 137q0 66 -72 84l-53 14v35h352v-35l-39 -14q-32 -12 -55 -50t-70 -151l-389 -915q-37 -88 -70 -144.5t-76.5 -102t-99 -65.5t-128.5 -20q-90 0 -154 46.5t-64 123.5q0 66 42 103.5t118 37.5q134 0 150 -137q3 -32 10 -42.5t27 -10.5
q36 0 83.5 55t94.5 172l8 21l-424 905q-47 101 -72 134.5t-55 43.5l-31 10v35h701v-35l-54 -16q-71 -23 -71 -86q0 -33 33 -119l163 -413h9z" />
    <glyph glyph-name="z" unicode="z" horiz-adv-x="1052" 
d="M25 0v84l555 913v9h-66q-107 0 -147 -11t-86 -57q-10 -10 -20.5 -22.5t-23 -31t-21.5 -31t-25 -39.5t-23.5 -40t-28 -48t-28.5 -48h-33l26 399h918v-80l-553 -917v-8h86q125 0 174 15t92 58q66 66 172 263h35l-41 -408h-962z" />
    <glyph glyph-name="braceleft" unicode="{" horiz-adv-x="708" 
d="M68 598v53q129 7 183 37.5t54 81.5q0 45 -52 240.5t-52 251.5q0 116 111.5 169.5t373.5 77.5v-34q-162 -25 -209 -55.5t-47 -116.5q0 -85 20.5 -256.5t20.5 -215.5q0 -84 -63 -129t-234 -75v-4q118 -23 182.5 -51t89.5 -66t25 -98q0 -40 -20.5 -210t-20.5 -255
q0 -57 21 -88.5t73.5 -51t161.5 -36.5v-35q-268 27 -376.5 80.5t-108.5 171.5q0 57 52 250t52 237q0 114 -237 127z" />
    <glyph glyph-name="bar" unicode="|" horiz-adv-x="376" 
d="M154 -266v1769h69v-1769h-69z" />
    <glyph glyph-name="braceright" unicode="}" horiz-adv-x="708" 
d="M641 651v-53q-238 -13 -238 -127q0 -44 52.5 -237t52.5 -250q0 -118 -108.5 -171.5t-376.5 -80.5v35q109 17 161.5 36.5t73.5 51t21 88.5q0 85 -20.5 255t-20.5 210q0 60 25 98t89.5 66t182.5 51v4q-171 30 -234 75t-63 129q0 44 20.5 215.5t20.5 256.5q0 86 -47 116.5
t-209 55.5v34q262 -24 373.5 -77.5t111.5 -169.5q0 -56 -52.5 -251.5t-52.5 -240.5q0 -51 54.5 -81.5t183.5 -37.5z" />
    <glyph glyph-name="asciitilde" unicode="~" horiz-adv-x="780" 
d="M59 424l-30 16q63 167 109.5 231t125.5 64q49 0 175.5 -29.5t164.5 -29.5q33 0 57.5 23.5t59.5 80.5l31 -16q-60 -165 -108 -230t-128 -65q-71 0 -189 29.5t-151 29.5t-57.5 -23.5t-59.5 -80.5z" />
    <glyph glyph-name="uni00A0" unicode="&#xa0;" horiz-adv-x="378" 
 />
    <glyph glyph-name="exclamdown" unicode="&#xa1;" horiz-adv-x="585" 
d="M76 139l194 637h45l195 -637q51 -168 -12.5 -255t-202.5 -87q-141 0 -205.5 87t-13.5 255zM96 1059q0 80 59.5 137t137.5 57q82 0 139 -56t57 -138q0 -85 -56.5 -140t-139.5 -55q-79 0 -138 55.5t-59 139.5z" />
    <glyph glyph-name="cent" unicode="&#xa2;" horiz-adv-x="1030" 
d="M557 -25q-255 0 -396 147.5t-141 399.5q0 108 31 199.5t83 155.5t124 111t149.5 73.5t163.5 36.5v123h64v-117h33q168 0 261 -56.5t93 -160.5q0 -144 -148 -144q-91 0 -129 43t-47 156q-5 47 -18 69.5t-45 26.5v-864q39 -10 106 -10q123 0 267 74v-37q-19 -28 -50.5 -59
t-78 -64.5t-110.5 -59.5t-134 -36v-199h-64v192h-14zM422 631q0 -186 30 -289t119 -147v841q-149 -36 -149 -405z" />
    <glyph glyph-name="sterling" unicode="&#xa3;" horiz-adv-x="1120" 
d="M47 719v65h115q-53 157 -53 254q0 187 152 296.5t423 109.5q233 0 339.5 -71t106.5 -183q0 -66 -44 -102.5t-121 -36.5q-106 0 -148 53.5t-51 191.5q-4 58 -18 74t-50 16q-63 0 -95 -57.5t-32 -183.5q0 -58 7.5 -184t9.5 -177h282v-65h-282q-3 -77 -26.5 -137.5
t-69.5 -107t-103 -82t-139 -70.5v-7h637q63 0 95.5 30t64.5 132h40l-30 -477h-1034v201q46 31 72 50.5t57 48.5t46.5 55t26.5 62.5t11 78.5q0 65 -52 223h-137z" />
    <glyph glyph-name="yen" unicode="&#xa5;" horiz-adv-x="1357" 
d="M121 651v66h328l-265 483q-58 106 -80 133t-59 39l-37 12v35h809v-35l-53 -14q-52 -14 -73 -34t-21 -56q0 -47 35 -121l182 -383h6l149 361q33 78 33 137q0 71 -88 96l-49 14v35h385v-35l-27 -8q-41 -12 -71 -55.5t-90 -179.5l-191 -424h338v-66h-348v-137h348v-65h-348
v-234q0 -44 2.5 -69t7 -42.5t19.5 -27t29 -14.5t48 -13l62 -14v-35h-801v35l61 14q29 7 41 10.5t28 12t20.5 17t10 27t6.5 40.5t1 59v234h-348v65h348v137h-348z" />
    <glyph glyph-name="brokenbar" unicode="&#xa6;" horiz-adv-x="376" 
d="M154 -266v794h69v-794h-69zM154 662v841h69v-841h-69z" />
    <glyph glyph-name="section" unicode="&#xa7;" horiz-adv-x="1226" 
d="M928 137q57 -75 57 -172q0 -114 -61 -203t-155.5 -134.5t-201.5 -45.5q-181 0 -281 59.5t-100 161.5q0 56 37 89.5t107 33.5q81 0 120 -44.5t46 -151.5q3 -51 22.5 -69.5t71.5 -18.5q60 0 100.5 29t40.5 83q0 68 -59.5 122t-292.5 210q-130 87 -199.5 150t-104 131
t-34.5 153q0 220 270 346q-69 103 -69 197q0 168 120.5 271.5t299.5 103.5q176 0 272 -59.5t96 -157.5q0 -55 -36.5 -89t-108.5 -34q-79 0 -115 43t-45 149q-4 50 -24 69t-66 19q-68 0 -108 -29.5t-40 -88.5q0 -67 56.5 -117t296.5 -205q146 -94 221.5 -168t100 -137
t24.5 -152q0 -110 -74 -197.5t-184 -146.5zM881 190q59 47 59 111q0 28 -8.5 51t-38 57.5t-92 82t-162.5 112.5q-116 75 -181 123t-108 96q-33 -29 -48 -54t-15 -58q0 -54 59 -114t234 -177q219 -148 301 -230z" />
    <glyph glyph-name="dieresis" unicode="&#xa8;" 
d="M98 1343q0 80 53 127.5t130 47.5q79 0 131.5 -47t52.5 -128q0 -82 -52.5 -129t-131.5 -47q-77 0 -130 47t-53 129zM535 1343q0 80 52.5 127.5t129.5 47.5q79 0 131.5 -47t52.5 -128q0 -82 -52.5 -129t-131.5 -47q-77 0 -129.5 47t-52.5 129z" />
    <glyph glyph-name="copyright" unicode="&#xa9;" horiz-adv-x="1576" 
d="M807 270q-204 0 -330.5 116.5t-126.5 324.5q0 92 26 168.5t70.5 129t105 89t129.5 53t144 16.5q136 0 242 -28l14 -267h-47q-67 128 -108 179q-26 33 -51 46t-62 13q-92 0 -120.5 -81t-28.5 -292q0 -169 14.5 -255.5t47.5 -120t97 -33.5q39 0 66.5 16t58.5 55
q40 55 99 185h47l-17 -265q-121 -49 -270 -49zM57 705q0 151 56.5 286.5t153.5 234t233 156.5t288 58q203 0 371.5 -98t264.5 -267t96 -370t-96 -369.5t-264.5 -266.5t-371.5 -98t-371.5 98t-264 266.5t-95.5 369.5zM133 705q0 -136 50 -259.5t136 -214.5t208.5 -144.5
t260.5 -53.5t261 53.5t209 144.5t136 214.5t50 259.5q0 182 -84.5 336t-236 245.5t-335.5 91.5q-138 0 -260.5 -54t-208.5 -145t-136 -214.5t-50 -259.5z" />
    <glyph glyph-name="ordfeminine" unicode="&#xaa;" horiz-adv-x="942" 
d="M258 565q-107 0 -168 55t-61 154q0 100 75 152.5t250 95.5l129 33v139q0 79 -9.5 117.5t-27.5 50.5t-55 12q-25 0 -34.5 -13t-12.5 -48q-12 -102 -47.5 -141t-112.5 -39q-57 0 -90 32t-33 80q0 83 95 136t301 53q84 0 145.5 -10.5t109.5 -35t72.5 -69.5t24.5 -109v-432
q0 -52 7 -74t30 -32q34 -17 76 -17v-26q-97 -64 -228 -64q-165 0 -198 97h-7q-86 -97 -231 -97zM428 690q36 0 55 25v274l-45 -2q-90 -5 -90 -156q0 -82 20 -111.5t60 -29.5z" />
    <glyph glyph-name="guillemotleft" unicode="&#xab;" horiz-adv-x="825" 
d="M393 92l-364 420v10l364 420h41l-168 -422l168 -428h-41zM727 92l-362 420v10l362 420h41l-168 -422l168 -428h-41z" />
    <glyph glyph-name="registered" unicode="&#xae;" horiz-adv-x="770" 
d="M25 1071q0 152 102.5 257.5t255.5 105.5t257.5 -105.5t104.5 -257.5t-104.5 -258t-257.5 -106q-152 0 -255 106t-103 258zM78 1071q0 -131 87 -224t218 -93t220 93.5t89 223.5t-89 222.5t-220 92.5q-132 0 -218.5 -92t-86.5 -223zM184 889v22l19 4q14 3 18 9.5t4 33.5
v236q0 28 -4 35t-18 10l-19 2v25h197q91 0 132.5 -24.5t41.5 -76.5q0 -72 -68 -92v-2q30 -75 76 -139q13 -16 27 -19l10 -2v-22h-145q-41 54 -78 155h-29v-86q0 -26 4.5 -33t18.5 -10l18 -4v-22h-205zM348 1077q10 -2 23 -2q33 0 47 17.5t14 62.5q0 47 -10.5 63.5
t-42.5 16.5q-23 0 -31 -4v-154z" />
    <glyph glyph-name="macron" unicode="&#xaf;" 
d="M205 1257v142h590v-142h-590z" />
    <glyph glyph-name="degree" unicode="&#xb0;" horiz-adv-x="548" 
d="M41 1210q0 98 66 165t167 67q102 0 168 -67t66 -165q0 -99 -66 -166t-168 -67t-167.5 67t-65.5 166zM109 1210q0 -77 45.5 -125.5t119.5 -48.5q75 0 120.5 48.5t45.5 125.5q0 76 -46 124t-120 48t-119.5 -48t-45.5 -124z" />
    <glyph glyph-name="twosuperior" unicode="&#xb2;" horiz-adv-x="712" 
d="M20 612v136q150 110 222 190q74 84 103.5 153.5t29.5 143.5q0 76 -17 108.5t-51 32.5q-22 0 -28 -12t-11 -55q-9 -80 -39 -112t-102 -32q-50 0 -79.5 30t-29.5 75q0 74 88 119t242 45q158 0 250 -61t92 -179q0 -44 -22 -84.5t-74.5 -85t-147.5 -91t-233 -95.5v-7h324
q38 0 56 18.5t46 84.5h39l-14 -322h-644z" />
    <glyph glyph-name="threesuperior" unicode="&#xb3;" horiz-adv-x="747" 
d="M315 596q-142 0 -219.5 45t-77.5 123q0 43 30.5 67.5t80.5 24.5q65 0 93 -32.5t34 -118.5q3 -35 11.5 -44.5t33.5 -9.5q44 0 70 43t26 127q0 100 -37.5 141.5t-111.5 41.5h-58v63h52q71 0 104 39t33 125q0 147 -64 147q-23 0 -30 -9t-13 -42q-13 -69 -40 -101t-85 -32
q-49 0 -75.5 24.5t-26.5 67.5q0 64 73.5 106t215.5 42q154 0 247 -48.5t93 -152.5q0 -70 -58.5 -116.5t-173.5 -59.5v-6q137 -15 202 -66.5t65 -153.5q0 -105 -100.5 -170t-293.5 -65z" />
    <glyph glyph-name="acute" unicode="&#xb4;" 
d="M270 1180l-8 20l244 264q32 34 62 49t71 15q57 0 98 -46.5t41 -109.5q0 -49 -28 -86t-86 -45z" />
    <glyph glyph-name="paragraph" unicode="&#xb6;" horiz-adv-x="1015" 
d="M535 -205v869q-40 -5 -76 -5q-109 0 -192 30.5t-132.5 84.5t-74.5 123t-25 150q0 161 102.5 266.5t288.5 105.5h580v-35l-56 -14q-27 -7 -39 -11.5t-25 -14.5t-17 -27t-6.5 -43t-2.5 -70v-1409h-84v1551h-158v-1551h-83z" />
    <glyph glyph-name="periodcentered" unicode="&#xb7;" horiz-adv-x="475" 
d="M41 686q0 85 57 140t140 55q79 0 137.5 -55.5t58.5 -139.5q0 -80 -59 -137t-137 -57q-82 0 -139.5 56.5t-57.5 137.5z" />
    <glyph glyph-name="cedilla" unicode="&#xb8;" 
d="M315 -414v31q81 18 125.5 50.5t44.5 68.5q0 46 -75 49l-9 10l101 205h73l-61 -82q88 -7 132 -42.5t44 -88.5q0 -44 -33.5 -80.5t-89.5 -60.5t-119.5 -39t-132.5 -21z" />
    <glyph glyph-name="onesuperior" unicode="&#xb9;" horiz-adv-x="548" 
d="M10 612v37l33 8q24 7 32.5 10.5t17 15t10 29t1.5 52.5v412l-90 26v35q110 19 219 73.5t164 119.5l45 -13v-653q0 -63 12.5 -80t53.5 -27l33 -8v-37h-531z" />
    <glyph glyph-name="ordmasculine" unicode="&#xba;" horiz-adv-x="997" 
d="M498 569q-86 0 -167.5 27t-149.5 78t-109 136t-41 191q0 92 28 166.5t74 123.5t107 82.5t125.5 48t132.5 14.5t134.5 -16t127 -50.5t106.5 -84t73.5 -121.5t27.5 -158q0 -92 -27.5 -167.5t-73.5 -124.5t-107.5 -82.5t-126.5 -48t-134 -14.5zM500 618q29 0 48.5 11.5
t38 48t27.5 115.5t9 202q0 169 -15 256t-39 111t-71 24q-43 0 -68 -27.5t-40 -107t-15 -221.5q0 -178 12.5 -266t37.5 -117t75 -29z" />
    <glyph glyph-name="guillemotright" unicode="&#xbb;" horiz-adv-x="825" 
d="M797 512l-365 -420h-41l168 422l-168 428h41l365 -420v-10zM461 512l-363 -420h-41l168 422l-168 428h41l363 -420v-10z" />
    <glyph glyph-name="onequarter" unicode="&#xbc;" horiz-adv-x="1576" 
d="M10 612v37l33 8q24 7 32.5 10.5t17 15t10 29t1.5 52.5v412l-90 26v35q110 19 219 73.5t164 119.5l45 -13v-653q0 -63 12.5 -80t53.5 -27l33 -8v-37h-531zM178 -102l1094 1564h86l-1094 -1564h-86zM1030 0v37l33 8q44 11 53.5 26t9.5 81v69h-323v70l420 516h225v-490h117
l-9 -96h-108v-69q0 -66 9.5 -82t53.5 -25l37 -8v-37h-518zM907 317h219v273h-4l-215 -268v-5z" />
    <glyph glyph-name="onehalf" unicode="&#xbd;" horiz-adv-x="1617" 
d="M10 612v37l33 8q24 7 32.5 10.5t17 15t10 29t1.5 52.5v412l-90 26v35q110 19 219 73.5t164 119.5l45 -13v-653q0 -63 12.5 -80t53.5 -27l33 -8v-37h-531zM166 -102l1094 1564h86l-1094 -1564h-86zM926 0v135q145 106 221 191q74 84 103.5 153.5t29.5 143.5
q0 76 -17 108.5t-51 32.5q-22 0 -27.5 -12t-10.5 -56q-9 -80 -39.5 -111.5t-102.5 -31.5q-50 0 -79 29.5t-29 74.5q0 74 88 119t241 45q158 0 250 -60.5t92 -178.5q0 -44 -22 -84.5t-74.5 -85t-147.5 -91.5t-233 -96v-6h324q38 0 56 18.5t46 84.5h39l-14 -322h-643z" />
    <glyph glyph-name="threequarters" unicode="&#xbe;" horiz-adv-x="1617" 
d="M223 -102l1094 1564h86l-1094 -1564h-86zM1071 0v37l33 8q44 11 53.5 26t9.5 81v69h-323v70l420 516h225v-490h117l-9 -96h-108v-69q0 -66 9.5 -82t53.5 -25l37 -8v-37h-518zM948 317h219v273h-4l-215 -268v-5zM315 596q-142 0 -219.5 45t-77.5 123q0 43 30.5 67.5
t80.5 24.5q65 0 93 -32.5t34 -118.5q3 -35 11.5 -44.5t33.5 -9.5q44 0 70 43t26 127q0 100 -37.5 141.5t-111.5 41.5h-58v63h52q71 0 104 39t33 125q0 147 -64 147q-23 0 -30 -9t-13 -42q-13 -69 -40 -101t-85 -32q-49 0 -75.5 24.5t-26.5 67.5q0 64 73.5 106t215.5 42
q154 0 247 -48.5t93 -152.5q0 -70 -58.5 -116.5t-173.5 -59.5v-6q137 -15 202 -66.5t65 -153.5q0 -105 -100.5 -170t-293.5 -65z" />
    <glyph glyph-name="questiondown" unicode="&#xbf;" horiz-adv-x="968" 
d="M676 795v-389q-66 -19 -111.5 -41.5t-86 -58.5t-60 -91t-19.5 -129q0 -106 37.5 -157.5t100.5 -51.5q29 0 39 18.5t16 77.5q12 116 56 161.5t145 45.5q75 0 115 -39.5t40 -101.5q0 -105 -116.5 -165t-317.5 -60q-220 0 -344.5 99.5t-124.5 287.5t140.5 315.5t416.5 177.5
v101h74zM815 1077q0 -85 -57 -139.5t-140 -54.5q-79 0 -137.5 55t-58.5 139q0 80 59 137.5t137 57.5q82 0 139.5 -56.5t57.5 -138.5z" />
    <glyph glyph-name="Agrave" unicode="&#xc0;" horiz-adv-x="1433" 
d="M-12 0v35l26 8q37 11 56.5 28t43 64t62.5 154l412 1130h243l420 -1128q55 -148 79 -190.5t67 -55.5l35 -10v-35h-805v35l57 14q42 10 60 32t18 60q0 68 -43 191l-37 119h-363l-40 -121q-41 -121 -41 -183q0 -37 22 -58.5t82 -39.5l49 -14v-35h-403zM952 1501l-8 -20
l-385 53q-60 8 -93.5 43t-33.5 90q0 64 42 109t104 45q65 0 124 -62zM506 1004l-164 -484h317l-147 484h-6z" />
    <glyph glyph-name="Aacute" unicode="&#xc1;" horiz-adv-x="1433" 
d="M-12 0v35l26 8q37 11 56.5 28t43 64t62.5 154l412 1130h243l420 -1128q55 -148 79 -190.5t67 -55.5l35 -10v-35h-805v35l57 14q42 10 60 32t18 60q0 68 -43 191l-37 119h-363l-40 -121q-41 -121 -41 -183q0 -37 22 -58.5t82 -39.5l49 -14v-35h-403zM477 1481l-8 20
l250 258q59 62 125 62q62 0 103.5 -45t41.5 -109q0 -55 -33.5 -90t-93.5 -43zM506 1004l-164 -484h317l-147 484h-6z" />
    <glyph glyph-name="Acircumflex" unicode="&#xc2;" horiz-adv-x="1433" 
d="M-12 0v35l26 8q37 11 56.5 28t43 64t62.5 154l412 1130h243l420 -1128q55 -148 79 -190.5t67 -55.5l35 -10v-35h-805v35l57 14q42 10 60 32t18 60q0 68 -43 191l-37 119h-363l-40 -121q-41 -121 -41 -183q0 -37 22 -58.5t82 -39.5l49 -14v-35h-403zM379 1481l-12 20
l280 303h127l281 -303l-13 -20l-331 90zM506 1004l-164 -484h317l-147 484h-6z" />
    <glyph glyph-name="Atilde" unicode="&#xc3;" horiz-adv-x="1433" 
d="M-12 0v35l26 8q37 11 56.5 28t43 64t62.5 154l412 1130h243l420 -1128q55 -148 79 -190.5t67 -55.5l35 -10v-35h-805v35l57 14q42 10 60 32t18 60q0 68 -43 191l-37 119h-363l-40 -121q-41 -121 -41 -183q0 -37 22 -58.5t82 -39.5l49 -14v-35h-403zM874 1520
q-41 0 -176.5 18t-181.5 18q-40 0 -66.5 -19.5t-56.5 -68.5l-28 17q51 154 98.5 225.5t120.5 71.5q42 0 177 -19.5t181 -19.5q39 0 66 20.5t57 69.5l29 -16q-20 -63 -34.5 -103t-35 -81t-41 -63t-48 -36t-61.5 -14zM506 1004l-164 -484h317l-147 484h-6z" />
    <glyph glyph-name="Adieresis" unicode="&#xc4;" horiz-adv-x="1433" 
d="M-12 0v35l26 8q37 11 56.5 28t43 64t62.5 154l412 1130h243l420 -1128q55 -148 79 -190.5t67 -55.5l35 -10v-35h-805v35l57 14q42 10 60 32t18 60q0 68 -43 191l-37 119h-363l-40 -121q-41 -121 -41 -183q0 -37 22 -58.5t82 -39.5l49 -14v-35h-403zM485 1473
q-77 0 -129.5 47t-52.5 129q0 80 52.5 127t129.5 47q79 0 132 -46.5t53 -127.5q0 -82 -52.5 -129t-132.5 -47zM938 1473q-77 0 -129.5 47t-52.5 129q0 80 52.5 127t129.5 47q79 0 131.5 -46.5t52.5 -127.5q0 -82 -52.5 -129t-131.5 -47zM506 1004l-164 -484h317l-147 484h-6
z" />
    <glyph glyph-name="Aring" unicode="&#xc5;" horiz-adv-x="1433" 
d="M-12 0v35l26 8q37 11 56.5 28t43 64t62.5 154l412 1130h243l420 -1128q55 -148 79 -190.5t67 -55.5l35 -10v-35h-805v35l57 14q42 10 60 32t18 60q0 68 -43 191l-37 119h-363l-40 -121q-41 -121 -41 -183q0 -37 22 -58.5t82 -39.5l49 -14v-35h-403zM512 1659q0 80 58 133
t137 53t136.5 -53t57.5 -133t-57.5 -133t-136.5 -53t-137 53t-58 133zM506 1004l-164 -484h317l-147 484h-6zM590 1659q0 -57 31.5 -93t85.5 -36t85 36t31 93t-31 93t-85 36t-85.5 -36t-31.5 -93z" />
    <glyph glyph-name="AE" unicode="&#xc6;" horiz-adv-x="1888" 
d="M1864 545l-29 -545h-1180v35l56 14q27 7 39 11.5t25 14.5t17 27t6.5 43t2.5 70v231h-393l-76 -149q-62 -124 -62 -176q0 -25 21 -39t76 -33l45 -14v-35h-428v35l49 14q58 17 91.5 56t100.5 163l555 1037q-26 41 -110 65l-56 14v35h1180l18 -465h-38q-69 162 -138 273
q-45 73 -94 98t-139 25q-93 0 -143 -13v-569h47q67 0 103 7t50 18.5t27 35.5q41 77 67 189h37v-576h-37q-26 116 -67 197q-20 38 -53 50.5t-129 12.5h-45v-495q0 -46 4 -69t19.5 -40.5t44 -22.5t81.5 -5q78 0 121 13t68 38.5t63 85.5q87 144 162 338h41zM797 1208l-355 -692
h359v692h-4z" />
    <glyph glyph-name="Ccedilla" unicode="&#xc7;" horiz-adv-x="1294" 
d="M457 -414v31q81 18 125.5 50.5t44.5 68.5q0 46 -76 49l-8 10l92 189q-279 36 -437.5 220.5t-158.5 493.5q0 151 40.5 275.5t112 210.5t170 145.5t213.5 87t244 27.5q225 0 383 -47l33 -479h-39q-125 248 -209 358q-42 56 -83.5 82t-104.5 26q-139 0 -205 -159.5
t-66 -485.5q0 -271 30.5 -427.5t86.5 -216.5t148 -60q74 0 126.5 25.5t102.5 93.5q62 82 190 356h37l-24 -455q-212 -80 -455 -80q-13 0 -36 1t-34 1l-45 -59q88 -7 132 -42.5t44 -88.5q0 -44 -33.5 -80.5t-89 -60.5t-119 -39t-132.5 -21z" />
    <glyph glyph-name="Egrave" unicode="&#xc8;" horiz-adv-x="1259" 
d="M963 1018v-576h-37q-25 112 -68 197q-20 38 -53 50.5t-129 12.5h-53v-495q0 -46 4 -69t20.5 -40.5t46.5 -22.5t86 -5q78 0 121 13t68 38.5t63 85.5q87 144 162 338h41l-29 -545h-1196v35l56 14q27 7 39 11.5t25 14.5t17 27t6.5 43t2.5 70v989q0 44 -2.5 70t-6.5 43
t-17 27t-25 14.5t-39 11.5l-56 14v35h1155l19 -465h-39q-71 167 -137 273q-45 72 -94 97.5t-140 25.5q-101 0 -151 -13v-569h55q67 0 103 7t50 18.5t27 35.5q42 81 68 189h37zM872 1501l-8 -20l-385 53q-60 8 -93.5 43t-33.5 90q0 64 42 109t104 45q66 0 125 -62z" />
    <glyph glyph-name="Eacute" unicode="&#xc9;" horiz-adv-x="1259" 
d="M457 1481l-8 20l249 258q59 62 125 62q62 0 104 -45t42 -109q0 -55 -33.5 -90t-93.5 -43zM963 1018v-576h-37q-25 112 -68 197q-20 38 -53 50.5t-129 12.5h-53v-495q0 -46 4 -69t20.5 -40.5t46.5 -22.5t86 -5q78 0 121 13t68 38.5t63 85.5q87 144 162 338h41l-29 -545
h-1196v35l56 14q27 7 39 11.5t25 14.5t17 27t6.5 43t2.5 70v989q0 44 -2.5 70t-6.5 43t-17 27t-25 14.5t-39 11.5l-56 14v35h1155l19 -465h-39q-71 167 -137 273q-45 72 -94 97.5t-140 25.5q-101 0 -151 -13v-569h55q67 0 103 7t50 18.5t27 35.5q42 81 68 189h37z" />
    <glyph glyph-name="Ecircumflex" unicode="&#xca;" horiz-adv-x="1259" 
d="M336 1481l-12 20l280 303h127l281 -303l-13 -20l-331 90zM963 1018v-576h-37q-25 112 -68 197q-20 38 -53 50.5t-129 12.5h-53v-495q0 -46 4 -69t20.5 -40.5t46.5 -22.5t86 -5q78 0 121 13t68 38.5t63 85.5q87 144 162 338h41l-29 -545h-1196v35l56 14q27 7 39 11.5
t25 14.5t17 27t6.5 43t2.5 70v989q0 44 -2.5 70t-6.5 43t-17 27t-25 14.5t-39 11.5l-56 14v35h1155l19 -465h-39q-71 167 -137 273q-45 72 -94 97.5t-140 25.5q-101 0 -151 -13v-569h55q67 0 103 7t50 18.5t27 35.5q42 81 68 189h37z" />
    <glyph glyph-name="Edieresis" unicode="&#xcb;" horiz-adv-x="1259" 
d="M432 1473q-77 0 -129.5 47t-52.5 129q0 80 52.5 127t129.5 47q79 0 131.5 -46.5t52.5 -127.5q0 -82 -52.5 -129t-131.5 -47zM885 1473q-77 0 -130 47t-53 129q0 80 53 127t130 47q79 0 131.5 -46.5t52.5 -127.5q0 -82 -52.5 -129t-131.5 -47zM963 1018v-576h-37
q-25 112 -68 197q-20 38 -53 50.5t-129 12.5h-53v-495q0 -46 4 -69t20.5 -40.5t46.5 -22.5t86 -5q78 0 121 13t68 38.5t63 85.5q87 144 162 338h41l-29 -545h-1196v35l56 14q27 7 39 11.5t25 14.5t17 27t6.5 43t2.5 70v989q0 44 -2.5 70t-6.5 43t-17 27t-25 14.5t-39 11.5
l-56 14v35h1155l19 -465h-39q-71 167 -137 273q-45 72 -94 97.5t-140 25.5q-101 0 -151 -13v-569h55q67 0 103 7t50 18.5t27 35.5q42 81 68 189h37z" />
    <glyph glyph-name="Igrave" unicode="&#xcc;" horiz-adv-x="790" 
d="M10 0v35l62 14q44 10 59.5 21t23 41.5t7.5 103.5v989q0 73 -7.5 103.5t-23 41.5t-59.5 21l-62 14v35h770v-35l-61 -14q-44 -10 -59.5 -21t-23 -41.5t-7.5 -103.5v-989q0 -73 7.5 -103.5t23 -41.5t59.5 -21l61 -14v-35h-770zM635 1501l-8 -20l-385 53q-60 8 -93.5 43
t-33.5 90q0 64 41.5 109t103.5 45q66 0 125 -62z" />
    <glyph glyph-name="Iacute" unicode="&#xcd;" horiz-adv-x="790" 
d="M10 0v35l62 14q44 10 59.5 21t23 41.5t7.5 103.5v989q0 73 -7.5 103.5t-23 41.5t-59.5 21l-62 14v35h770v-35l-61 -14q-44 -10 -59.5 -21t-23 -41.5t-7.5 -103.5v-989q0 -73 7.5 -103.5t23 -41.5t59.5 -21l61 -14v-35h-770zM180 1481l-8 20l250 258q59 62 125 62
q62 0 103.5 -45t41.5 -109q0 -55 -33.5 -90t-93.5 -43z" />
    <glyph glyph-name="Icircumflex" unicode="&#xce;" horiz-adv-x="790" 
d="M10 0v35l62 14q44 10 59.5 21t23 41.5t7.5 103.5v989q0 73 -7.5 103.5t-23 41.5t-59.5 21l-62 14v35h770v-35l-61 -14q-44 -10 -59.5 -21t-23 -41.5t-7.5 -103.5v-989q0 -73 7.5 -103.5t23 -41.5t59.5 -21l61 -14v-35h-770zM70 1481l-13 20l281 303h127l280 -303l-12 -20
l-332 90z" />
    <glyph glyph-name="Idieresis" unicode="&#xcf;" horiz-adv-x="790" 
d="M10 0v35l62 14q44 10 59.5 21t23 41.5t7.5 103.5v989q0 73 -7.5 103.5t-23 41.5t-59.5 21l-62 14v35h770v-35l-61 -14q-44 -10 -59.5 -21t-23 -41.5t-7.5 -103.5v-989q0 -73 7.5 -103.5t23 -41.5t59.5 -21l61 -14v-35h-770zM170 1473q-77 0 -129.5 47t-52.5 129
q0 80 52.5 127t129.5 47q79 0 131.5 -46.5t52.5 -127.5q0 -82 -52.5 -129t-131.5 -47zM623 1473q-77 0 -130 47t-53 129q0 80 53 127t130 47q79 0 131.5 -46.5t52.5 -127.5q0 -82 -52.5 -129t-131.5 -47z" />
    <glyph glyph-name="Eth" unicode="&#xd0;" horiz-adv-x="1527" 
d="M39 676v65h117v463q0 44 -2.5 70t-6.5 43t-17 27t-25 14.5t-39 11.5l-56 14v35h754q348 0 536.5 -170t188.5 -508q0 -344 -195 -542.5t-538 -198.5h-746v35l56 14q27 7 39 11.5t25 14.5t17 27t6.5 43t2.5 70v461h-117zM729 74q272 0 272 614q0 196 -18 326.5t-55.5 201.5
t-85.5 99t-117 28q-59 0 -102 -12v-590h225v-65h-225v-475q0 -78 23 -102.5t83 -24.5z" />
    <glyph glyph-name="Ntilde" unicode="&#xd1;" horiz-adv-x="1384" 
d="M1098 0l-854 1169h-8v-899q0 -57 2 -87.5t7 -57t17.5 -39t30.5 -21.5t49 -16l64 -14v-35h-396v35l56 14q58 15 74 51t16 156v948q0 85 -18 119t-72 47l-56 14v35h602l527 -696h8v426q0 57 -2 87t-6.5 56t-17.5 38.5t-30 21t-49 16.5l-67 16v35h399v-35l-57 -14
q-40 -9 -58 -27t-25 -57t-7 -123v-1163h-129zM905 1520q-41 0 -176.5 18t-181.5 18q-40 0 -66.5 -19.5t-56.5 -68.5l-29 17q51 154 98.5 225.5t120.5 71.5q42 0 178 -19.5t181 -19.5q39 0 66 20.5t57 69.5l28 -16q-20 -64 -34.5 -103.5t-34.5 -80.5t-40.5 -63t-48 -36
t-61.5 -14z" />
    <glyph glyph-name="Ograve" unicode="&#xd2;" horiz-adv-x="1523" 
d="M756 -25q-108 0 -209.5 25.5t-194.5 82t-162 138.5t-110 203.5t-41 267.5q0 157 45 286.5t117.5 214t169 143t196 83.5t201.5 25q111 0 211 -22.5t194 -76t162 -134t109 -205t41 -279.5q0 -158 -45 -288t-117.5 -214.5t-169 -142t-196 -82.5t-201.5 -25zM764 35
q84 0 132.5 53.5t74.5 195.5t26 394q0 282 -26.5 438t-75.5 212t-135 56q-59 0 -100.5 -29t-73 -100t-47 -198t-15.5 -316q0 -281 26 -436t76 -212.5t138 -57.5zM1020 1501l-8 -20l-385 53q-60 8 -93.5 43t-33.5 90q0 64 41.5 109t103.5 45q66 0 125 -62z" />
    <glyph glyph-name="Oacute" unicode="&#xd3;" horiz-adv-x="1523" 
d="M530 1481l-8 20l250 258q59 62 125 62q62 0 103.5 -45t41.5 -109q0 -55 -33.5 -90t-93.5 -43zM756 -25q-108 0 -209.5 25.5t-194.5 82t-162 138.5t-110 203.5t-41 267.5q0 157 45 286.5t117.5 214t169 143t196 83.5t201.5 25q111 0 211 -22.5t194 -76t162 -134t109 -205
t41 -279.5q0 -158 -45 -288t-117.5 -214.5t-169 -142t-196 -82.5t-201.5 -25zM764 35q84 0 132.5 53.5t74.5 195.5t26 394q0 282 -26.5 438t-75.5 212t-135 56q-59 0 -100.5 -29t-73 -100t-47 -198t-15.5 -316q0 -281 26 -436t76 -212.5t138 -57.5z" />
    <glyph glyph-name="Ocircumflex" unicode="&#xd4;" horiz-adv-x="1523" 
d="M428 1481l-12 20l280 303h127l281 -303l-12 -20l-332 90zM756 -25q-108 0 -209.5 25.5t-194.5 82t-162 138.5t-110 203.5t-41 267.5q0 157 45 286.5t117.5 214t169 143t196 83.5t201.5 25q111 0 211 -22.5t194 -76t162 -134t109 -205t41 -279.5q0 -158 -45 -288
t-117.5 -214.5t-169 -142t-196 -82.5t-201.5 -25zM764 35q84 0 132.5 53.5t74.5 195.5t26 394q0 282 -26.5 438t-75.5 212t-135 56q-59 0 -100.5 -29t-73 -100t-47 -198t-15.5 -316q0 -281 26 -436t76 -212.5t138 -57.5z" />
    <glyph glyph-name="Otilde" unicode="&#xd5;" horiz-adv-x="1523" 
d="M756 -25q-108 0 -209.5 25.5t-194.5 82t-162 138.5t-110 203.5t-41 267.5q0 157 45 286.5t117.5 214t169 143t196 83.5t201.5 25q111 0 211 -22.5t194 -76t162 -134t109 -205t41 -279.5q0 -158 -45 -288t-117.5 -214.5t-169 -142t-196 -82.5t-201.5 -25zM764 35
q84 0 132.5 53.5t74.5 195.5t26 394q0 282 -26.5 438t-75.5 212t-135 56q-59 0 -100.5 -29t-73 -100t-47 -198t-15.5 -316q0 -281 26 -436t76 -212.5t138 -57.5zM913 1520q-41 0 -176.5 18t-181.5 18q-40 0 -66.5 -19.5t-56.5 -68.5l-29 17q50 154 98.5 225.5t121.5 71.5
q43 0 178 -19.5t180 -19.5q39 0 66 20.5t57 69.5l29 -16q-20 -63 -34.5 -103t-35 -81t-41 -63t-48 -36t-61.5 -14z" />
    <glyph glyph-name="Odieresis" unicode="&#xd6;" horiz-adv-x="1523" 
d="M535 1473q-77 0 -130 47t-53 129q0 80 53 127t130 47q79 0 131.5 -46.5t52.5 -127.5q0 -82 -52.5 -129t-131.5 -47zM987 1473q-77 0 -129.5 47t-52.5 129q0 80 52.5 127t129.5 47q79 0 131.5 -46.5t52.5 -127.5q0 -82 -52.5 -129t-131.5 -47zM756 -25q-108 0 -209.5 25.5
t-194.5 82t-162 138.5t-110 203.5t-41 267.5q0 157 45 286.5t117.5 214t169 143t196 83.5t201.5 25q111 0 211 -22.5t194 -76t162 -134t109 -205t41 -279.5q0 -158 -45 -288t-117.5 -214.5t-169 -142t-196 -82.5t-201.5 -25zM764 35q84 0 132.5 53.5t74.5 195.5t26 394
q0 282 -26.5 438t-75.5 212t-135 56q-59 0 -100.5 -29t-73 -100t-47 -198t-15.5 -316q0 -281 26 -436t76 -212.5t138 -57.5z" />
    <glyph glyph-name="multiply" unicode="&#xd7;" horiz-adv-x="931" 
d="M772 1077l49 -49l-307 -321l307 -322l-47 -49l-307 321l-307 -321l-49 49l307 322l-305 321l47 49l305 -321z" />
    <glyph glyph-name="Oslash" unicode="&#xd8;" horiz-adv-x="1523" 
d="M756 -25q-231 0 -414 113l-141 -192h-80l168 229q-250 196 -250 567q0 157 45 286.5t117.5 214t169 143t196 83.5t201.5 25q239 0 414 -105l112 156h80l-139 -190q250 -189 250 -578q0 -158 -45 -288t-117.5 -214.5t-169 -142t-196 -82.5t-201.5 -25zM764 35q63 0 106 29
t75.5 100.5t47.5 198t15 315.5q0 166 -13 303l-460 -631q24 -176 78.5 -245.5t150.5 -69.5zM514 741q0 -195 10 -297l461 629q-25 175 -79 243t-146 68q-59 0 -102 -29t-76.5 -99.5t-50.5 -198.5t-17 -316z" />
    <glyph glyph-name="Ugrave" unicode="&#xd9;" horiz-adv-x="1425" 
d="M782 -25q-149 0 -260 24t-196 78t-128.5 148t-43.5 228v751q0 55 -2.5 83t-15.5 45.5t-26.5 23t-48.5 14.5l-55 14v35h760v-35l-55 -14q-35 -9 -48.5 -14.5t-26.5 -23t-15.5 -45.5t-2.5 -83v-794q0 -161 72 -236.5t230 -75.5q149 0 212.5 86t63.5 248v717q0 56 -2 87.5
t-7 57t-18 38t-30 21t-47 15.5l-68 16v35h395v-35l-57 -14q-36 -9 -53 -26t-25 -58t-8 -123v-747q0 -97 -28.5 -175.5t-86 -139t-154 -93.5t-225.5 -33zM1100 1501l-8 -20l-385 53q-60 8 -93.5 43t-33.5 90q0 64 41.5 109t103.5 45q66 0 125 -62z" />
    <glyph glyph-name="Uacute" unicode="&#xda;" horiz-adv-x="1425" 
d="M645 1481l-8 20l250 258q59 62 125 62q62 0 103.5 -45t41.5 -109q0 -55 -33.5 -90t-93.5 -43zM782 -25q-149 0 -260 24t-196 78t-128.5 148t-43.5 228v751q0 55 -2.5 83t-15.5 45.5t-26.5 23t-48.5 14.5l-55 14v35h760v-35l-55 -14q-35 -9 -48.5 -14.5t-26.5 -23
t-15.5 -45.5t-2.5 -83v-794q0 -161 72 -236.5t230 -75.5q149 0 212.5 86t63.5 248v717q0 56 -2 87.5t-7 57t-18 38t-30 21t-47 15.5l-68 16v35h395v-35l-57 -14q-36 -9 -53 -26t-25 -58t-8 -123v-747q0 -97 -28.5 -175.5t-86 -139t-154 -93.5t-225.5 -33z" />
    <glyph glyph-name="Ucircumflex" unicode="&#xdb;" horiz-adv-x="1425" 
d="M510 1481l-12 20l280 303h127l281 -303l-12 -20l-332 90zM782 -25q-149 0 -260 24t-196 78t-128.5 148t-43.5 228v751q0 55 -2.5 83t-15.5 45.5t-26.5 23t-48.5 14.5l-55 14v35h760v-35l-55 -14q-35 -9 -48.5 -14.5t-26.5 -23t-15.5 -45.5t-2.5 -83v-794
q0 -161 72 -236.5t230 -75.5q149 0 212.5 86t63.5 248v717q0 56 -2 87.5t-7 57t-18 38t-30 21t-47 15.5l-68 16v35h395v-35l-57 -14q-36 -9 -53 -26t-25 -58t-8 -123v-747q0 -97 -28.5 -175.5t-86 -139t-154 -93.5t-225.5 -33z" />
    <glyph glyph-name="Udieresis" unicode="&#xdc;" horiz-adv-x="1425" 
d="M580 1473q-77 0 -130 47t-53 129q0 80 53 127t130 47q79 0 131.5 -46.5t52.5 -127.5q0 -82 -52.5 -129t-131.5 -47zM1032 1473q-77 0 -129.5 47t-52.5 129q0 80 52.5 127t129.5 47q79 0 132 -46.5t53 -127.5q0 -82 -52.5 -129t-132.5 -47zM782 -25q-149 0 -260 24
t-196 78t-128.5 148t-43.5 228v751q0 55 -2.5 83t-15.5 45.5t-26.5 23t-48.5 14.5l-55 14v35h760v-35l-55 -14q-35 -9 -48.5 -14.5t-26.5 -23t-15.5 -45.5t-2.5 -83v-794q0 -161 72 -236.5t230 -75.5q149 0 212.5 86t63.5 248v717q0 56 -2 87.5t-7 57t-18 38t-30 21
t-47 15.5l-68 16v35h395v-35l-57 -14q-36 -9 -53 -26t-25 -58t-8 -123v-747q0 -97 -28.5 -175.5t-86 -139t-154 -93.5t-225.5 -33z" />
    <glyph glyph-name="Yacute" unicode="&#xdd;" horiz-adv-x="1343" 
d="M305 0v35l62 14q34 8 48 13t29 14.5t19.5 27t7 42.5t2.5 69v399l-330 586q-63 111 -81.5 136t-53.5 36l-37 12v35h820v-35l-64 -14q-94 -22 -94 -90q0 -55 35 -121l227 -442h6l178 420q35 81 35 137q0 71 -88 96l-51 14v35h385v-35l-39 -12q-33 -10 -58.5 -47.5
t-72.5 -140.5l-252 -557v-412q0 -44 2.5 -69t7 -42.5t19.5 -27t29 -14.5t48 -13l62 -14v-35h-801zM608 1481l-8 20l250 258q59 62 125 62q62 0 103.5 -45t41.5 -109q0 -55 -33.5 -90t-93.5 -43z" />
    <glyph glyph-name="Thorn" unicode="&#xde;" horiz-adv-x="1382" 
d="M10 1419h766v-35l-61 -14q-63 -12 -77.5 -37.5t-14.5 -128.5v-63h122q311 0 463 -97t152 -309q0 -65 -18 -125.5t-59.5 -116t-101.5 -96.5t-150.5 -65.5t-201.5 -24.5q-102 0 -161 19v47q50 3 83.5 11t59 26t39.5 41t23 64t11.5 87t2.5 117q0 147 -17 222t-51 101.5
t-100 26.5q-58 0 -96 -10v-844q0 -70 8 -100t25.5 -40.5t64.5 -19.5l108 -20v-35h-819v35l56 14q27 7 39 11.5t25 14.5t17 27t6.5 43t2.5 70v989q0 44 -2.5 70t-6.5 43t-17 27t-25 14.5t-39 11.5l-56 14v35z" />
    <glyph glyph-name="germandbls" unicode="&#xdf;" horiz-adv-x="1398" 
d="M944 -20q-164 0 -247 50.5t-83 135.5q0 127 146 127q70 0 100 -35.5t45 -136.5q8 -52 18 -67t44 -15q55 0 87.5 30t32.5 74q0 70 -45.5 120t-169.5 134q-126 85 -167 146.5t-41 144.5q0 57 22.5 118t55 115.5t64.5 109.5t54.5 118t22.5 123q0 119 -30 173t-124 54
q-99 0 -152 -63.5t-53 -225.5v-1060q0 -64 10 -81t48 -26l32 -8v-35h-616v35l37 10q61 17 73.5 34.5t12.5 88.5v799h-133v24l133 86v6q0 148 82 258t225 166t328 56q210 0 333 -77.5t123 -199.5q0 -61 -39.5 -117.5t-95.5 -96t-112.5 -72t-96 -58.5t-39.5 -43q0 -23 27 -42
t126 -72q16 -8 25 -13t24.5 -13.5t29.5 -15.5q161 -87 239 -174.5t78 -203.5q0 -165 -118.5 -275t-315.5 -110z" />
    <glyph glyph-name="agrave" unicode="&#xe0;" horiz-adv-x="1118" 
d="M315 -25q-137 0 -217 68.5t-80 187.5q0 57 19.5 102t47 73.5t77 53.5t89 38t103.5 30l234 64v196q0 144 -21.5 199t-83.5 55q-42 0 -60.5 -16t-21.5 -68q-7 -130 -44.5 -175.5t-131.5 -45.5q-166 0 -166 133q0 109 123.5 171.5t376.5 62.5q208 0 320 -68.5t112 -224.5
v-561q0 -70 8.5 -97t36.5 -42q40 -21 92 -21v-31q-109 -84 -276 -84q-194 0 -242 134h-8q-51 -61 -117 -97.5t-170 -36.5zM512 129q55 0 76 37v342l-47 -4q-71 -5 -100 -45.5t-29 -145.5q0 -184 100 -184zM768 1200l-8 -20l-393 61q-58 8 -86.5 45t-28.5 86q0 63 41 109.5
t98 46.5q41 0 71 -15t62 -49z" />
    <glyph glyph-name="aacute" unicode="&#xe1;" horiz-adv-x="1118" 
d="M315 -25q-137 0 -217 68.5t-80 187.5q0 57 19.5 102t47 73.5t77 53.5t89 38t103.5 30l234 64v196q0 144 -21.5 199t-83.5 55q-42 0 -60.5 -16t-21.5 -68q-7 -130 -44.5 -175.5t-131.5 -45.5q-166 0 -166 133q0 109 123.5 171.5t376.5 62.5q208 0 320 -68.5t112 -224.5
v-561q0 -70 8.5 -97t36.5 -42q40 -21 92 -21v-31q-109 -84 -276 -84q-194 0 -242 134h-8q-51 -61 -117 -97.5t-170 -36.5zM512 129q55 0 76 37v342l-47 -4q-71 -5 -100 -45.5t-29 -145.5q0 -184 100 -184zM315 1180l-8 20l244 264q32 34 62 49t71 15q57 0 98 -46.5
t41 -109.5q0 -49 -28 -86t-86 -45z" />
    <glyph glyph-name="acircumflex" unicode="&#xe2;" horiz-adv-x="1118" 
d="M315 -25q-137 0 -217 68.5t-80 187.5q0 57 19.5 102t47 73.5t77 53.5t89 38t103.5 30l234 64v196q0 144 -21.5 199t-83.5 55q-42 0 -60.5 -16t-21.5 -68q-7 -130 -44.5 -175.5t-131.5 -45.5q-166 0 -166 133q0 109 123.5 171.5t376.5 62.5q208 0 320 -68.5t112 -224.5
v-561q0 -70 8.5 -97t36.5 -42q40 -21 92 -21v-31q-109 -84 -276 -84q-194 0 -242 134h-8q-51 -61 -117 -97.5t-170 -36.5zM512 129q55 0 76 37v342l-47 -4q-71 -5 -100 -45.5t-29 -145.5q0 -184 100 -184zM475 1520h119l252 -330l-10 -19l-301 115l-302 -115l-10 19z" />
    <glyph glyph-name="atilde" unicode="&#xe3;" horiz-adv-x="1118" 
d="M315 -25q-137 0 -217 68.5t-80 187.5q0 57 19.5 102t47 73.5t77 53.5t89 38t103.5 30l234 64v196q0 144 -21.5 199t-83.5 55q-42 0 -60.5 -16t-21.5 -68q-7 -130 -44.5 -175.5t-131.5 -45.5q-166 0 -166 133q0 109 123.5 171.5t376.5 62.5q208 0 320 -68.5t112 -224.5
v-561q0 -70 8.5 -97t36.5 -42q40 -21 92 -21v-31q-109 -84 -276 -84q-194 0 -242 134h-8q-51 -61 -117 -97.5t-170 -36.5zM512 129q55 0 76 37v342l-47 -4q-71 -5 -100 -45.5t-29 -145.5q0 -184 100 -184zM248 1165l-29 17q51 154 98.5 225.5t120.5 71.5q43 0 157.5 -19.5
t160.5 -19.5q39 0 66 20.5t57 69.5l28 -17q-20 -63 -34.5 -103t-34.5 -80.5t-40.5 -62.5t-48 -36t-61.5 -14q-41 0 -156 18t-161 18q-40 0 -66.5 -19.5t-56.5 -68.5z" />
    <glyph glyph-name="adieresis" unicode="&#xe4;" horiz-adv-x="1118" 
d="M315 -25q-137 0 -217 68.5t-80 187.5q0 57 19.5 102t47 73.5t77 53.5t89 38t103.5 30l234 64v196q0 144 -21.5 199t-83.5 55q-42 0 -60.5 -16t-21.5 -68q-7 -130 -44.5 -175.5t-131.5 -45.5q-166 0 -166 133q0 109 123.5 171.5t376.5 62.5q208 0 320 -68.5t112 -224.5
v-561q0 -70 8.5 -97t36.5 -42q40 -21 92 -21v-31q-109 -84 -276 -84q-194 0 -242 134h-8q-51 -61 -117 -97.5t-170 -36.5zM512 129q55 0 76 37v342l-47 -4q-71 -5 -100 -45.5t-29 -145.5q0 -184 100 -184zM131 1343q0 80 52.5 127.5t129.5 47.5q79 0 132 -47t53 -128
q0 -82 -52.5 -129t-132.5 -47q-77 0 -129.5 47t-52.5 129zM567 1343q0 80 53 127.5t130 47.5q79 0 131.5 -47t52.5 -128q0 -82 -52.5 -129t-131.5 -47q-77 0 -130 47t-53 129z" />
    <glyph glyph-name="aring" unicode="&#xe5;" horiz-adv-x="1118" 
d="M315 -25q-137 0 -217 68.5t-80 187.5q0 57 19.5 102t47 73.5t77 53.5t89 38t103.5 30l234 64v196q0 144 -21.5 199t-83.5 55q-42 0 -60.5 -16t-21.5 -68q-7 -130 -44.5 -175.5t-131.5 -45.5q-166 0 -166 133q0 109 123.5 171.5t376.5 62.5q208 0 320 -68.5t112 -224.5
v-561q0 -70 8.5 -97t36.5 -42q40 -21 92 -21v-31q-109 -84 -276 -84q-194 0 -242 134h-8q-51 -61 -117 -97.5t-170 -36.5zM512 129q55 0 76 37v342l-47 -4q-71 -5 -100 -45.5t-29 -145.5q0 -184 100 -184zM334 1341q0 80 58 133.5t136 53.5q79 0 137 -53.5t58 -133.5
t-58 -133t-137 -53t-136.5 53t-57.5 133zM412 1341q0 -57 31 -93t85 -36t85.5 36t31.5 93t-31.5 93t-85.5 36t-85 -36t-31 -93z" />
    <glyph glyph-name="ae" unicode="&#xe6;" horiz-adv-x="1669" 
d="M700 147q-73 -89 -164 -130.5t-221 -41.5q-137 0 -217 70.5t-80 192.5q0 58 19.5 104.5t47.5 76t76.5 55t89.5 39t103 30.5l234 63v182q0 144 -21.5 199t-83.5 55q-42 0 -60.5 -16t-21.5 -68q-7 -130 -44.5 -175.5t-131.5 -45.5q-166 0 -166 133q0 108 117 171t342 63
q233 0 320 -123q129 123 313 123q486 0 500 -500h-666q2 -131 24.5 -217.5t68.5 -133.5t105 -65t146 -18q139 0 279 72v-39q-64 -89 -185.5 -158.5t-279.5 -69.5q-298 0 -438 172h-5zM1135 1047q-34 0 -59 -17t-46.5 -59t-32.5 -120t-12 -192l275 21q0 218 -25.5 292.5
t-99.5 74.5zM530 129q82 0 144 59q-83 133 -86 334l-37 -2q-76 -5 -107.5 -49t-31.5 -152q0 -104 30 -147t88 -43z" />
    <glyph glyph-name="ccedilla" unicode="&#xe7;" horiz-adv-x="1042" 
d="M260 -414v31q81 18 125.5 50.5t44.5 68.5q0 46 -76 49l-8 10l92 191q-198 33 -304.5 174.5t-106.5 361.5q0 121 38 220.5t101 165.5t147 111t173.5 65t183.5 20q171 0 264.5 -56.5t93.5 -166.5q0 -75 -42.5 -115.5t-127.5 -40.5q-98 0 -134.5 48t-45.5 175
q-7 59 -16.5 75.5t-47.5 16.5q-22 0 -40.5 -5t-41 -19t-39 -43t-31 -72.5t-22.5 -112t-8 -157.5q0 -96 7.5 -163.5t28 -127t55.5 -95t91 -55.5t134 -20q133 0 266 68v-37q-21 -32 -58.5 -67t-93.5 -73t-135 -62t-164 -24q-14 0 -59 5l-45 -62q88 -7 132 -42.5t44 -88.5
q0 -44 -33.5 -80.5t-89.5 -60.5t-119.5 -39t-132.5 -21z" />
    <glyph glyph-name="egrave" unicode="&#xe8;" horiz-adv-x="1112" 
d="M582 -25q-275 0 -415 140t-140 409q0 112 32.5 208.5t88 163.5t128 115t152.5 70.5t162 22.5q486 0 500 -500h-666q2 -131 24.5 -217.5t68.5 -133.5t105 -65t146 -18q139 0 279 72v-39q-64 -89 -185.5 -158.5t-279.5 -69.5zM819 1200l-8 -20l-393 61q-58 8 -86.5 45
t-28.5 86q0 63 41 109.5t98 46.5q41 0 71 -15t62 -49zM573 1047q-34 0 -59 -17t-46 -59t-32 -120t-12 -192l274 21q0 218 -25.5 292.5t-99.5 74.5z" />
    <glyph glyph-name="eacute" unicode="&#xe9;" horiz-adv-x="1112" 
d="M582 -25q-275 0 -415 140t-140 409q0 112 32.5 208.5t88 163.5t128 115t152.5 70.5t162 22.5q486 0 500 -500h-666q2 -131 24.5 -217.5t68.5 -133.5t105 -65t146 -18q139 0 279 72v-39q-64 -89 -185.5 -158.5t-279.5 -69.5zM352 1180l-8 20l244 264q32 34 62 49t71 15
q57 0 98 -46.5t41 -109.5q0 -49 -28.5 -86t-86.5 -45zM573 1047q-34 0 -59 -17t-46 -59t-32 -120t-12 -192l274 21q0 218 -25.5 292.5t-99.5 74.5z" />
    <glyph glyph-name="ecircumflex" unicode="&#xea;" horiz-adv-x="1112" 
d="M582 -25q-275 0 -415 140t-140 409q0 112 32.5 208.5t88 163.5t128 115t152.5 70.5t162 22.5q486 0 500 -500h-666q2 -131 24.5 -217.5t68.5 -133.5t105 -65t146 -18q139 0 279 72v-39q-64 -89 -185.5 -158.5t-279.5 -69.5zM506 1520h119l252 -330l-11 -19l-301 115
l-301 -115l-10 19zM573 1047q-34 0 -59 -17t-46 -59t-32 -120t-12 -192l274 21q0 218 -25.5 292.5t-99.5 74.5z" />
    <glyph glyph-name="edieresis" unicode="&#xeb;" horiz-adv-x="1112" 
d="M582 -25q-275 0 -415 140t-140 409q0 112 32.5 208.5t88 163.5t128 115t152.5 70.5t162 22.5q486 0 500 -500h-666q2 -131 24.5 -217.5t68.5 -133.5t105 -65t146 -18q139 0 279 72v-39q-64 -89 -185.5 -158.5t-279.5 -69.5zM614 1343q0 80 53 127.5t130 47.5
q79 0 131.5 -47t52.5 -128q0 -82 -52.5 -129t-131.5 -47q-77 0 -130 47t-53 129zM178 1343q0 80 52.5 127.5t129.5 47.5q79 0 132 -47t53 -128q0 -82 -52.5 -129t-132.5 -47q-77 0 -129.5 47t-52.5 129zM573 1047q-34 0 -59 -17t-46 -59t-32 -120t-12 -192l274 21
q0 218 -25.5 292.5t-99.5 74.5z" />
    <glyph glyph-name="igrave" unicode="&#xec;" horiz-adv-x="647" 
d="M-2 0v35l37 10q61 17 73.5 34.5t12.5 88.5v674q0 47 -5 68.5t-17.5 35.5t-47.5 39l-65 47v19l530 53l16 -12q-8 -133 -8 -263v-661q0 -71 12.5 -88.5t73.5 -34.5l37 -10v-35h-649zM555 1200l-8 -20l-393 61q-58 8 -86.5 45t-28.5 86q0 63 41 109.5t98 46.5q41 0 71 -15
t62 -49z" />
    <glyph glyph-name="iacute" unicode="&#xed;" horiz-adv-x="647" 
d="M82 1180l-8 20l243 264q32 34 62.5 49t71.5 15q57 0 98 -46.5t41 -109.5q0 -49 -28.5 -86t-86.5 -45zM-2 0v35l37 10q61 17 73.5 34.5t12.5 88.5v674q0 47 -5 68.5t-17.5 35.5t-47.5 39l-65 47v19l530 53l16 -12q-8 -133 -8 -263v-661q0 -71 12.5 -88.5t73.5 -34.5
l37 -10v-35h-649z" />
    <glyph glyph-name="icircumflex" unicode="&#xee;" horiz-adv-x="647" 
d="M252 1520h119l252 -330l-11 -19l-301 115l-301 -115l-10 19zM-2 0v35l37 10q61 17 73.5 34.5t12.5 88.5v674q0 47 -5 68.5t-17.5 35.5t-47.5 39l-65 47v19l530 53l16 -12q-8 -133 -8 -263v-661q0 -71 12.5 -88.5t73.5 -34.5l37 -10v-35h-649z" />
    <glyph glyph-name="idieresis" unicode="&#xef;" horiz-adv-x="647" 
d="M-90 1343q0 80 52.5 127.5t129.5 47.5q79 0 131.5 -47t52.5 -128q0 -82 -52.5 -129t-131.5 -47q-77 0 -129.5 47t-52.5 129zM346 1343q0 80 52.5 127.5t129.5 47.5q79 0 132 -47t53 -128q0 -82 -52.5 -129t-132.5 -47q-77 0 -129.5 47t-52.5 129zM-2 0v35l37 10
q61 17 73.5 34.5t12.5 88.5v674q0 47 -5 68.5t-17.5 35.5t-47.5 39l-65 47v19l530 53l16 -12q-8 -133 -8 -263v-661q0 -71 12.5 -88.5t73.5 -34.5l37 -10v-35h-649z" />
    <glyph glyph-name="eth" unicode="&#xf0;" horiz-adv-x="1222" 
d="M287 1204l-29 53l244 115q-99 88 -250 164l14 35q214 -51 377 -131l231 110l29 -53l-194 -92q232 -130 358.5 -325t126.5 -451q0 -147 -33.5 -262.5t-88.5 -188t-132.5 -119.5t-158.5 -65.5t-173 -18.5q-117 0 -219.5 34.5t-184.5 101.5t-129.5 177.5t-47.5 252.5
q0 120 35.5 218t93 160.5t132.5 105.5t150 61t150 18q71 0 119 -23q-54 142 -158 248zM610 35q36 0 58.5 7.5t45 35.5t35 80t20 142t7.5 222q0 165 -11 272t-35 160t-51.5 71.5t-68.5 18.5q-61 0 -95.5 -41t-52.5 -150t-18 -306q0 -115 4.5 -199.5t15 -140t23.5 -90.5
t33.5 -52.5t40 -23.5t49.5 -6z" />
    <glyph glyph-name="ntilde" unicode="&#xf1;" horiz-adv-x="1308" 
d="M-2 0v35l37 10q61 17 73.5 34.5t12.5 88.5v672q0 68 -9.5 88.5t-56.5 54.5l-65 47v21l510 53l16 -12v-156h6q102 79 195 123.5t203 44.5q120 0 192 -71t72 -204v-661q0 -39 1.5 -56.5t12.5 -32t25 -19.5t49 -15l37 -10v-35h-633v35l31 8q53 13 63 30.5t10 94.5v584
q0 79 -30 110t-91 31q-83 0 -135 -12v-713q0 -43 1 -61.5t10.5 -33t21 -18.5t41.5 -12l31 -8v-35h-631zM369 1165l-29 17q51 154 98.5 225.5t120.5 71.5q43 0 158 -19.5t160 -19.5q38 0 65 20.5t57 69.5l29 -17q-20 -63 -34.5 -103t-34.5 -80.5t-40.5 -62.5t-48 -36
t-61.5 -14q-41 0 -156 18t-161 18q-40 0 -66.5 -19.5t-56.5 -68.5z" />
    <glyph glyph-name="ograve" unicode="&#xf2;" horiz-adv-x="1220" 
d="M610 -25q-92 0 -177 21.5t-159 66.5t-129 110t-86.5 158t-31.5 204q0 121 33.5 218.5t89 162t131.5 107.5t158 62t171 19q116 0 219 -34.5t185.5 -101.5t131 -176.5t48.5 -248.5q0 -120 -33 -217.5t-88 -162t-131 -107.5t-158.5 -62t-173.5 -19zM614 35q35 0 58 8.5
t44.5 36.5t33.5 81t19 143.5t7 221.5q0 137 -8.5 233t-22 151t-37 85.5t-47 39.5t-57.5 9q-39 0 -66 -18t-49.5 -67.5t-33.5 -147.5t-11 -248q0 -175 9 -281t32 -160t51.5 -70.5t77.5 -16.5zM850 1200l-8 -20l-393 61q-58 8 -86.5 45t-28.5 86q0 63 41 109.5t98 46.5
q41 0 71 -15t62 -49z" />
    <glyph glyph-name="oacute" unicode="&#xf3;" horiz-adv-x="1220" 
d="M371 1180l-9 20l244 264q32 34 62 49t71 15q57 0 98.5 -46.5t41.5 -109.5q0 -49 -28.5 -86t-86.5 -45zM610 -25q-92 0 -177 21.5t-159 66.5t-129 110t-86.5 158t-31.5 204q0 121 33.5 218.5t89 162t131.5 107.5t158 62t171 19q116 0 219 -34.5t185.5 -101.5t131 -176.5
t48.5 -248.5q0 -120 -33 -217.5t-88 -162t-131 -107.5t-158.5 -62t-173.5 -19zM614 35q35 0 58 8.5t44.5 36.5t33.5 81t19 143.5t7 221.5q0 137 -8.5 233t-22 151t-37 85.5t-47 39.5t-57.5 9q-39 0 -66 -18t-49.5 -67.5t-33.5 -147.5t-11 -248q0 -175 9 -281t32 -160
t51.5 -70.5t77.5 -16.5z" />
    <glyph glyph-name="ocircumflex" unicode="&#xf4;" horiz-adv-x="1220" 
d="M553 1520h119l252 -330l-11 -19l-301 115l-301 -115l-10 19zM610 -25q-92 0 -177 21.5t-159 66.5t-129 110t-86.5 158t-31.5 204q0 121 33.5 218.5t89 162t131.5 107.5t158 62t171 19q116 0 219 -34.5t185.5 -101.5t131 -176.5t48.5 -248.5q0 -120 -33 -217.5t-88 -162
t-131 -107.5t-158.5 -62t-173.5 -19zM614 35q35 0 58 8.5t44.5 36.5t33.5 81t19 143.5t7 221.5q0 137 -8.5 233t-22 151t-37 85.5t-47 39.5t-57.5 9q-39 0 -66 -18t-49.5 -67.5t-33.5 -147.5t-11 -248q0 -175 9 -281t32 -160t51.5 -70.5t77.5 -16.5z" />
    <glyph glyph-name="otilde" unicode="&#xf5;" horiz-adv-x="1220" 
d="M610 -25q-92 0 -177 21.5t-159 66.5t-129 110t-86.5 158t-31.5 204q0 121 33.5 218.5t89 162t131.5 107.5t158 62t171 19q116 0 219 -34.5t185.5 -101.5t131 -176.5t48.5 -248.5q0 -120 -33 -217.5t-88 -162t-131 -107.5t-158.5 -62t-173.5 -19zM614 35q35 0 58 8.5
t44.5 36.5t33.5 81t19 143.5t7 221.5q0 137 -8.5 233t-22 151t-37 85.5t-47 39.5t-57.5 9q-39 0 -66 -18t-49.5 -67.5t-33.5 -147.5t-11 -248q0 -175 9 -281t32 -160t51.5 -70.5t77.5 -16.5zM301 1165l-29 17q50 154 98.5 225.5t121.5 71.5q42 0 156.5 -19.5t160.5 -19.5
q39 0 66 20.5t57 69.5l29 -17q-20 -63 -35 -103t-35 -80.5t-40.5 -62.5t-48 -36t-61.5 -14q-41 0 -156 18t-161 18q-40 0 -66.5 -19.5t-56.5 -68.5z" />
    <glyph glyph-name="odieresis" unicode="&#xf6;" horiz-adv-x="1220" 
d="M211 1343q0 80 52.5 127.5t129.5 47.5q79 0 132 -47t53 -128q0 -82 -52.5 -129t-132.5 -47q-77 0 -129.5 47t-52.5 129zM647 1343q0 80 52.5 127.5t129.5 47.5q79 0 132 -47t53 -128q0 -82 -52.5 -129t-132.5 -47q-77 0 -129.5 47t-52.5 129zM610 -25q-92 0 -177 21.5
t-159 66.5t-129 110t-86.5 158t-31.5 204q0 121 33.5 218.5t89 162t131.5 107.5t158 62t171 19q116 0 219 -34.5t185.5 -101.5t131 -176.5t48.5 -248.5q0 -120 -33 -217.5t-88 -162t-131 -107.5t-158.5 -62t-173.5 -19zM614 35q35 0 58 8.5t44.5 36.5t33.5 81t19 143.5
t7 221.5q0 137 -8.5 233t-22 151t-37 85.5t-47 39.5t-57.5 9q-39 0 -66 -18t-49.5 -67.5t-33.5 -147.5t-11 -248q0 -175 9 -281t32 -160t51.5 -70.5t77.5 -16.5z" />
    <glyph glyph-name="divide" unicode="&#xf7;" horiz-adv-x="993" 
d="M90 674v67h813v-67h-813zM496 248q-64 0 -108 45t-44 106q0 65 44 108.5t108 43.5q62 0 106.5 -43.5t44.5 -108.5q0 -60 -45 -105.5t-106 -45.5zM496 864q-63 0 -107.5 45.5t-44.5 106.5q0 65 44 108t108 43q63 0 107 -43t44 -108q0 -60 -45 -106t-106 -46z" />
    <glyph glyph-name="oslash" unicode="&#xf8;" horiz-adv-x="1220" 
d="M610 -25q-187 0 -327 82l-103 -141h-78l127 176q-202 148 -202 443q0 121 33.5 218.5t89 162t131.5 107.5t158 62t171 19q167 0 301 -70l93 129h77l-114 -159q106 -71 166.5 -187.5t60.5 -273.5q0 -120 -33 -217.5t-88 -162t-131 -107.5t-158.5 -62t-173.5 -19zM614 35
q30 0 50 5.5t41.5 22.5t35.5 51t25.5 87t16.5 134.5t5 190.5q0 141 -8 222l-338 -469q7 -78 21 -127.5t37 -74.5t48.5 -33.5t65.5 -8.5zM432 563q0 -80 4 -186l334 463q-11 65 -27 107t-38.5 62.5t-45 27.5t-55.5 7q-40 0 -68 -18t-53.5 -67t-38 -148t-12.5 -248z" />
    <glyph glyph-name="ugrave" unicode="&#xf9;" horiz-adv-x="1306" 
d="M780 199v639q0 69 -9.5 91t-55.5 54l-66 47v21l518 53l17 -12v-854q0 -83 10.5 -105.5t60.5 -40.5l50 -18v-27l-500 -72l-17 13v151h-6q-102 -79 -192.5 -121.5t-204.5 -42.5q-123 0 -193.5 70.5t-70.5 204.5v588q0 69 -9.5 89.5t-56.5 55.5l-65 47v21l518 53l16 -12
v-746q0 -88 29 -124t88 -36q67 0 139 13zM881 1200l-9 -20l-393 61q-58 8 -86 45t-28 86q0 63 41 109.5t98 46.5q41 0 71 -15t62 -49z" />
    <glyph glyph-name="uacute" unicode="&#xfa;" horiz-adv-x="1306" 
d="M436 1180l-8 20l244 264q32 34 62 49t71 15q57 0 98 -46.5t41 -109.5q0 -49 -28.5 -86t-86.5 -45zM780 199v639q0 69 -9.5 91t-55.5 54l-66 47v21l518 53l17 -12v-854q0 -83 10.5 -105.5t60.5 -40.5l50 -18v-27l-500 -72l-17 13v151h-6q-102 -79 -192.5 -121.5
t-204.5 -42.5q-123 0 -193.5 70.5t-70.5 204.5v588q0 69 -9.5 89.5t-56.5 55.5l-65 47v21l518 53l16 -12v-746q0 -88 29 -124t88 -36q67 0 139 13z" />
    <glyph glyph-name="ucircumflex" unicode="&#xfb;" horiz-adv-x="1306" 
d="M590 1520h119l252 -330l-11 -19l-301 115l-301 -115l-10 19zM780 199v639q0 69 -9.5 91t-55.5 54l-66 47v21l518 53l17 -12v-854q0 -83 10.5 -105.5t60.5 -40.5l50 -18v-27l-500 -72l-17 13v151h-6q-102 -79 -192.5 -121.5t-204.5 -42.5q-123 0 -193.5 70.5t-70.5 204.5
v588q0 69 -9.5 89.5t-56.5 55.5l-65 47v21l518 53l16 -12v-746q0 -88 29 -124t88 -36q67 0 139 13z" />
    <glyph glyph-name="udieresis" unicode="&#xfc;" horiz-adv-x="1306" 
d="M236 1343q0 80 52.5 127.5t129.5 47.5q79 0 131.5 -47t52.5 -128q0 -82 -52.5 -129t-131.5 -47q-77 0 -129.5 47t-52.5 129zM672 1343q0 80 52.5 127.5t129.5 47.5q79 0 131.5 -47t52.5 -128q0 -82 -52.5 -129t-131.5 -47q-77 0 -129.5 47t-52.5 129zM780 199v639
q0 69 -9.5 91t-55.5 54l-66 47v21l518 53l17 -12v-854q0 -83 10.5 -105.5t60.5 -40.5l50 -18v-27l-500 -72l-17 13v151h-6q-102 -79 -192.5 -121.5t-204.5 -42.5q-123 0 -193.5 70.5t-70.5 204.5v588q0 69 -9.5 89.5t-56.5 55.5l-65 47v21l518 53l16 -12v-746q0 -88 29 -124
t88 -36q67 0 139 13z" />
    <glyph glyph-name="yacute" unicode="&#xfd;" horiz-adv-x="1136" 
d="M752 408l149 399q37 98 37 137q0 66 -72 84l-53 14v35h352v-35l-39 -14q-32 -12 -55 -50t-70 -151l-389 -915q-37 -88 -70 -144.5t-76.5 -102t-99 -65.5t-128.5 -20q-90 0 -154 46.5t-64 123.5q0 66 42 103.5t118 37.5q134 0 150 -137q3 -32 10 -42.5t27 -10.5
q36 0 83.5 55t94.5 172l8 21l-424 905q-47 101 -72 134.5t-55 43.5l-31 10v35h701v-35l-54 -16q-71 -23 -71 -86q0 -33 33 -119l163 -413h9zM428 1180l-8 20l244 264q32 34 62 49t71 15q57 0 98 -46.5t41 -109.5q0 -49 -28.5 -86t-86.5 -45z" />
    <glyph glyph-name="thorn" unicode="&#xfe;" horiz-adv-x="1273" 
d="M494 1290v-342h6q78 74 155.5 115t182.5 41q82 0 151.5 -28.5t125.5 -87t88 -158t32 -230.5q0 -132 -30.5 -238t-84.5 -177.5t-130.5 -119t-165 -69t-191.5 -21.5q-69 0 -139 17v-232q0 -72 11 -89.5t68 -30.5l52 -13v-35h-658v35l37 11q62 17 74 34.5t12 87.5v1528
q0 86 -9.5 111.5t-55.5 46.5l-68 31v26l526 47l19 -12q-8 -111 -8 -248zM631 35q40 0 68 11t52.5 41t39.5 82.5t23.5 137t8.5 203.5q0 117 -13.5 196t-42 122.5t-64.5 61t-87 17.5q-61 0 -122 -18v-778q21 -32 59 -54t78 -22z" />
    <glyph glyph-name="ydieresis" unicode="&#xff;" horiz-adv-x="1136" 
d="M752 408l149 399q37 98 37 137q0 66 -72 84l-53 14v35h352v-35l-39 -14q-32 -12 -55 -50t-70 -151l-389 -915q-37 -88 -70 -144.5t-76.5 -102t-99 -65.5t-128.5 -20q-90 0 -154 46.5t-64 123.5q0 66 42 103.5t118 37.5q134 0 150 -137q3 -32 10 -42.5t27 -10.5
q36 0 83.5 55t94.5 172l8 21l-424 905q-47 101 -72 134.5t-55 43.5l-31 10v35h701v-35l-54 -16q-71 -23 -71 -86q0 -33 33 -119l163 -413h9zM238 1343q0 80 52.5 127.5t129.5 47.5q79 0 131.5 -47t52.5 -128q0 -82 -52.5 -129t-131.5 -47q-77 0 -129.5 47t-52.5 129z
M674 1343q0 80 52.5 127.5t129.5 47.5q79 0 131.5 -47t52.5 -128q0 -82 -52.5 -129t-131.5 -47q-77 0 -129.5 47t-52.5 129z" />
    <glyph glyph-name="Amacron" unicode="&#x100;" horiz-adv-x="1433" 
d="M-12 0v35l26 8q37 11 56.5 28t43 64t62.5 154l412 1130h243l420 -1128q55 -148 79 -190.5t67 -55.5l35 -10v-35h-805v35l57 14q42 10 60 32t18 60q0 68 -43 191l-37 119h-363l-40 -121q-41 -121 -41 -183q0 -37 22 -58.5t82 -39.5l49 -14v-35h-403zM410 1546v142h589
v-142h-589zM506 1004l-164 -484h317l-147 484h-6z" />
    <glyph glyph-name="amacron" unicode="&#x101;" horiz-adv-x="1118" 
d="M315 -25q-137 0 -217 68.5t-80 187.5q0 57 19.5 102t47 73.5t77 53.5t89 38t103.5 30l234 64v196q0 144 -21.5 199t-83.5 55q-42 0 -60.5 -16t-21.5 -68q-7 -130 -44.5 -175.5t-131.5 -45.5q-166 0 -166 133q0 109 123.5 171.5t376.5 62.5q208 0 320 -68.5t112 -224.5
v-561q0 -70 8.5 -97t36.5 -42q40 -21 92 -21v-31q-109 -84 -276 -84q-194 0 -242 134h-8q-51 -61 -117 -97.5t-170 -36.5zM512 129q55 0 76 37v342l-47 -4q-71 -5 -100 -45.5t-29 -145.5q0 -184 100 -184zM248 1257v142h590v-142h-590z" />
    <glyph glyph-name="Abreve" unicode="&#x102;" horiz-adv-x="1433" 
d="M-12 0v35l26 8q37 11 56.5 28t43 64t62.5 154l412 1130h243l420 -1128q55 -148 79 -190.5t67 -55.5l35 -10v-35h-805v35l57 14q42 10 60 32t18 60q0 68 -43 191l-37 119h-363l-40 -121q-41 -121 -41 -183q0 -37 22 -58.5t82 -39.5l49 -14v-35h-403zM702 1485
q-242 0 -296 325l22 9q47 -68 107.5 -96.5t169.5 -28.5q103 0 164 28.5t112 96.5l23 -9q-21 -153 -96.5 -239t-205.5 -86zM506 1004l-164 -484h317l-147 484h-6z" />
    <glyph glyph-name="abreve" unicode="&#x103;" horiz-adv-x="1118" 
d="M315 -25q-137 0 -217 68.5t-80 187.5q0 57 19.5 102t47 73.5t77 53.5t89 38t103.5 30l234 64v196q0 144 -21.5 199t-83.5 55q-42 0 -60.5 -16t-21.5 -68q-7 -130 -44.5 -175.5t-131.5 -45.5q-166 0 -166 133q0 109 123.5 171.5t376.5 62.5q208 0 320 -68.5t112 -224.5
v-561q0 -70 8.5 -97t36.5 -42q40 -21 92 -21v-31q-109 -84 -276 -84q-194 0 -242 134h-8q-51 -61 -117 -97.5t-170 -36.5zM512 129q55 0 76 37v342l-47 -4q-71 -5 -100 -45.5t-29 -145.5q0 -184 100 -184zM541 1176q-111 0 -178.5 88.5t-94.5 236.5l23 8q36 -66 94.5 -92
t157.5 -26q93 0 153.5 26.5t98.5 91.5l22 -8q-21 -146 -91 -235.5t-185 -89.5z" />
    <glyph glyph-name="Aogonek" unicode="&#x104;" horiz-adv-x="1433" 
d="M1432 0h-281q-181 0 -263.5 -50.5t-82.5 -166.5q0 -48 27.5 -74t70.5 -26q24 0 51 6v-31q-29 -30 -82 -54t-112 -24q-100 0 -154.5 41.5t-54.5 110.5q0 72 70.5 134.5t207.5 104.5l-147 480h-363l-40 -121q-41 -121 -41 -183q0 -37 22 -58.5t82 -39.5l49 -14v-35h-403v35
l26 8q37 11 56.5 28t43 64t62.5 154l412 1130h243l420 -1128q55 -148 79 -190.5t67 -55.5l35 -10v-35zM512 1004h-6l-164 -484h317z" />
    <glyph glyph-name="aogonek" unicode="&#x105;" horiz-adv-x="1118" 
d="M680 -260q0 81 67.5 137.5t219.5 112.5q-73 -15 -119 -15q-92 0 -153.5 34.5t-84.5 99.5h-8q-51 -61 -117 -97.5t-170 -36.5q-137 0 -217 68.5t-80 187.5q0 57 19.5 102t47 73.5t77 53.5t89 38t103.5 30l234 64v196q0 144 -21.5 199t-83.5 55q-42 0 -60.5 -16t-21.5 -68
q-7 -130 -44.5 -175.5t-131.5 -45.5q-166 0 -166 133q0 109 123.5 171.5t376.5 62.5q208 0 320 -68.5t112 -224.5v-561q0 -70 8.5 -97t36.5 -42q40 -21 92 -21v-27q-105 -86 -147.5 -149t-42.5 -127q0 -55 22.5 -79.5t69.5 -24.5q26 0 53 6v-31q-74 -78 -186 -78
q-105 0 -161 43t-56 117zM512 129q55 0 76 37v342l-47 -4q-71 -5 -100 -45.5t-29 -145.5q0 -184 100 -184z" />
    <glyph glyph-name="Cacute" unicode="&#x106;" horiz-adv-x="1294" 
d="M770 -25q-221 0 -384.5 82.5t-255 246.5t-91.5 394q0 151 40.5 275.5t112 210.5t170 145.5t213.5 87t244 27.5q225 0 383 -47l33 -479h-39q-125 248 -209 358q-42 56 -83.5 82t-104.5 26q-139 0 -205 -159.5t-66 -485.5q0 -271 30.5 -427.5t86.5 -216.5t148 -60
q74 0 126.5 25.5t102.5 93.5q62 82 190 356h37l-24 -455q-212 -80 -455 -80zM518 1481l-8 20l250 258q59 62 125 62q62 0 103.5 -45t41.5 -109q0 -55 -33.5 -90t-93.5 -43z" />
    <glyph glyph-name="cacute" unicode="&#x107;" horiz-adv-x="1042" 
d="M563 -25q-255 0 -395.5 147t-140.5 400q0 121 38 220.5t101 165.5t147 111t173.5 65t183.5 20q171 0 264.5 -56.5t93.5 -166.5q0 -75 -42.5 -115.5t-127.5 -40.5q-98 0 -134.5 48t-45.5 175q-7 59 -16.5 75.5t-47.5 16.5q-22 0 -40.5 -5t-41 -19t-39 -43t-31 -72.5
t-22.5 -112t-8 -157.5q0 -96 7.5 -163.5t28 -127t55.5 -95t91 -55.5t134 -20q133 0 266 68v-37q-21 -32 -58.5 -67t-93.5 -73t-135 -62t-164 -24zM371 1180l-9 20l244 264q32 34 62 49t71 15q57 0 98.5 -46.5t41.5 -109.5q0 -49 -28.5 -86t-86.5 -45z" />
    <glyph glyph-name="Ccircumflex" unicode="&#x108;" horiz-adv-x="1294" 
d="M770 -25q-221 0 -384.5 82.5t-255 246.5t-91.5 394q0 151 40.5 275.5t112 210.5t170 145.5t213.5 87t244 27.5q225 0 383 -47l33 -479h-39q-125 248 -209 358q-42 56 -83.5 82t-104.5 26q-139 0 -205 -159.5t-66 -485.5q0 -271 30.5 -427.5t86.5 -216.5t148 -60
q74 0 126.5 25.5t102.5 93.5q62 82 190 356h37l-24 -455q-212 -80 -455 -80zM414 1481l-13 20l281 303h127l281 -303l-13 -20l-332 90z" />
    <glyph glyph-name="ccircumflex" unicode="&#x109;" horiz-adv-x="1042" 
d="M563 -25q-255 0 -395.5 147t-140.5 400q0 121 38 220.5t101 165.5t147 111t173.5 65t183.5 20q171 0 264.5 -56.5t93.5 -166.5q0 -75 -42.5 -115.5t-127.5 -40.5q-98 0 -134.5 48t-45.5 175q-7 59 -16.5 75.5t-47.5 16.5q-22 0 -40.5 -5t-41 -19t-39 -43t-31 -72.5
t-22.5 -112t-8 -157.5q0 -96 7.5 -163.5t28 -127t55.5 -95t91 -55.5t134 -20q133 0 266 68v-37q-21 -32 -58.5 -67t-93.5 -73t-135 -62t-164 -24zM516 1520h119l252 -330l-10 -19l-302 115l-301 -115l-10 19z" />
    <glyph glyph-name="Cdotaccent" unicode="&#x10a;" horiz-adv-x="1294" 
d="M770 -25q-221 0 -384.5 82.5t-255 246.5t-91.5 394q0 151 40.5 275.5t112 210.5t170 145.5t213.5 87t244 27.5q225 0 383 -47l33 -479h-39q-125 248 -209 358q-42 56 -83.5 82t-104.5 26q-139 0 -205 -159.5t-66 -485.5q0 -271 30.5 -427.5t86.5 -216.5t148 -60
q74 0 126.5 25.5t102.5 93.5q62 82 190 356h37l-24 -455q-212 -80 -455 -80zM766 1481q-86 0 -142.5 49.5t-56.5 132.5q0 82 57 132t142 50q86 0 142.5 -50t56.5 -132q0 -83 -56 -132.5t-143 -49.5z" />
    <glyph glyph-name="cdotaccent" unicode="&#x10b;" horiz-adv-x="1042" 
d="M563 -25q-255 0 -395.5 147t-140.5 400q0 121 38 220.5t101 165.5t147 111t173.5 65t183.5 20q171 0 264.5 -56.5t93.5 -166.5q0 -75 -42.5 -115.5t-127.5 -40.5q-98 0 -134.5 48t-45.5 175q-7 59 -16.5 75.5t-47.5 16.5q-22 0 -40.5 -5t-41 -19t-39 -43t-31 -72.5
t-22.5 -112t-8 -157.5q0 -96 7.5 -163.5t28 -127t55.5 -95t91 -55.5t134 -20q133 0 266 68v-37q-21 -32 -58.5 -67t-93.5 -73t-135 -62t-164 -24zM393 1339q0 82 57 132.5t142 50.5q86 0 142.5 -50.5t56.5 -132.5q0 -83 -56 -132.5t-143 -49.5q-86 0 -142.5 49.5
t-56.5 132.5z" />
    <glyph glyph-name="Ccaron" unicode="&#x10c;" horiz-adv-x="1294" 
d="M770 -25q-221 0 -384.5 82.5t-255 246.5t-91.5 394q0 151 40.5 275.5t112 210.5t170 145.5t213.5 87t244 27.5q225 0 383 -47l33 -479h-39q-125 248 -209 358q-42 56 -83.5 82t-104.5 26q-139 0 -205 -159.5t-66 -485.5q0 -271 30.5 -427.5t86.5 -216.5t148 -60
q74 0 126.5 25.5t102.5 93.5q62 82 190 356h37l-24 -455q-212 -80 -455 -80zM430 1800l12 21l332 -90l332 90l12 -21l-280 -303h-127z" />
    <glyph glyph-name="ccaron" unicode="&#x10d;" horiz-adv-x="1042" 
d="M563 -25q-255 0 -395.5 147t-140.5 400q0 121 38 220.5t101 165.5t147 111t173.5 65t183.5 20q171 0 264.5 -56.5t93.5 -166.5q0 -75 -42.5 -115.5t-127.5 -40.5q-98 0 -134.5 48t-45.5 175q-7 59 -16.5 75.5t-47.5 16.5q-22 0 -40.5 -5t-41 -19t-39 -43t-31 -72.5
t-22.5 -112t-8 -157.5q0 -96 7.5 -163.5t28 -127t55.5 -95t91 -55.5t134 -20q133 0 266 68v-37q-21 -32 -58.5 -67t-93.5 -73t-135 -62t-164 -24zM635 1188h-119l-252 330l10 18l301 -115l302 115l10 -18z" />
    <glyph glyph-name="Dcaron" unicode="&#x10e;" horiz-adv-x="1527" 
d="M10 0v35l56 14q27 7 39 11.5t25 14.5t17 27t6.5 43t2.5 70v989q0 44 -2.5 70t-6.5 43t-17 27t-25 14.5t-39 11.5l-56 14v35h754q348 0 536.5 -170t188.5 -508q0 -344 -195 -542.5t-538 -198.5h-746zM729 68q272 0 272 620q0 157 -12.5 273t-34.5 190t-57 119t-76 62.5
t-96 17.5t-102 -13v-1142q0 -78 23 -102.5t83 -24.5zM416 1800l12 21l332 -90l332 90l12 -21l-281 -303h-127z" />
    <glyph glyph-name="dcaron" unicode="&#x10f;" horiz-adv-x="1306" 
d="M453 -25q-185 0 -299.5 128.5t-114.5 375.5q0 164 48 287t133 195.5t191.5 107.5t233.5 35q65 0 133 -21v205q0 73 -11 95t-56 47l-82 45v28l547 47l16 -12q-8 -111 -8 -248v-1052q0 -84 9.5 -106t59.5 -40l50 -18v-27l-494 -72l-27 19v129h-6q-72 -69 -149 -108.5
t-174 -39.5zM662 158q56 0 116 24v774q-24 44 -53 66t-78 22q-61 0 -102.5 -39.5t-67.5 -144.5t-26 -278q0 -236 48.5 -330t162.5 -94zM1270 1155l-23 8l8 293q0 103 101 103q52 0 90 -30t41 -71q0 -48 -35 -88z" />
    <glyph glyph-name="Dcroat" unicode="&#x110;" horiz-adv-x="1527" 
d="M53 672v76h103v456q0 44 -2.5 70t-6.5 43t-17 27t-25 14.5t-39 11.5l-56 14v35h754q348 0 536.5 -170t188.5 -508q0 -344 -195 -542.5t-538 -198.5h-746v35l56 14q27 7 39 11.5t25 14.5t17 27t6.5 43t2.5 70v457h-103zM729 68q272 0 272 620q0 157 -12.5 273t-34.5 190
t-57 119t-76 62.5t-96 17.5t-102 -13l2 -589h219v-76h-219l-2 -477q0 -78 23 -102.5t83 -24.5z" />
    <glyph glyph-name="dcroat" unicode="&#x111;" horiz-adv-x="1306" 
d="M1178 1217l6 -979q0 -84 9.5 -106t59.5 -40l50 -18v-27l-494 -72l-27 19v129h-6q-72 -69 -149 -108.5t-174 -39.5q-185 0 -299.5 128.5t-114.5 375.5q0 164 48 287t133 195.5t191.5 107.5t233.5 35q65 0 133 -21v134h-313v81h313q-1 66 -12 86.5t-55 45.5l-82 45v28
l547 47l16 -12q-14 -109 -14 -240h122v-81h-122zM662 158q56 0 116 24v774q-24 44 -53 66t-78 22q-61 0 -102.5 -39.5t-67.5 -144.5t-26 -278q0 -236 48.5 -330t162.5 -94z" />
    <glyph glyph-name="Emacron" unicode="&#x112;" horiz-adv-x="1259" 
d="M963 1018v-576h-37q-25 112 -68 197q-20 38 -53 50.5t-129 12.5h-53v-495q0 -46 4 -69t20.5 -40.5t46.5 -22.5t86 -5q78 0 121 13t68 38.5t63 85.5q87 144 162 338h41l-29 -545h-1196v35l56 14q27 7 39 11.5t25 14.5t17 27t6.5 43t2.5 70v989q0 44 -2.5 70t-6.5 43
t-17 27t-25 14.5t-39 11.5l-56 14v35h1155l19 -465h-39q-71 167 -137 273q-45 72 -94 97.5t-140 25.5q-101 0 -151 -13v-569h55q67 0 103 7t50 18.5t27 35.5q42 81 68 189h37zM379 1546v142h590v-142h-590z" />
    <glyph glyph-name="emacron" unicode="&#x113;" horiz-adv-x="1112" 
d="M582 -25q-275 0 -415 140t-140 409q0 112 32.5 208.5t88 163.5t128 115t152.5 70.5t162 22.5q486 0 500 -500h-666q2 -131 24.5 -217.5t68.5 -133.5t105 -65t146 -18q139 0 279 72v-39q-64 -89 -185.5 -158.5t-279.5 -69.5zM573 1047q-34 0 -59 -17t-46 -59t-32 -120
t-12 -192l274 21q0 218 -25.5 292.5t-99.5 74.5zM264 1257v142h590v-142h-590z" />
    <glyph glyph-name="Ebreve" unicode="&#x114;" horiz-adv-x="1259" 
d="M963 1018v-576h-37q-25 112 -68 197q-20 38 -53 50.5t-129 12.5h-53v-495q0 -46 4 -69t20.5 -40.5t46.5 -22.5t86 -5q78 0 121 13t68 38.5t63 85.5q87 144 162 338h41l-29 -545h-1196v35l56 14q27 7 39 11.5t25 14.5t17 27t6.5 43t2.5 70v989q0 44 -2.5 70t-6.5 43
t-17 27t-25 14.5t-39 11.5l-56 14v35h1155l19 -465h-39q-71 167 -137 273q-45 72 -94 97.5t-140 25.5q-101 0 -151 -13v-569h55q67 0 103 7t50 18.5t27 35.5q42 81 68 189h37zM678 1485q-243 0 -297 325l22 9q47 -68 107.5 -96.5t169.5 -28.5q103 0 164 28.5t112 96.5l23 -9
q-21 -153 -96.5 -239t-204.5 -86z" />
    <glyph glyph-name="ebreve" unicode="&#x115;" horiz-adv-x="1112" 
d="M582 -25q-275 0 -415 140t-140 409q0 112 32.5 208.5t88 163.5t128 115t152.5 70.5t162 22.5q486 0 500 -500h-666q2 -131 24.5 -217.5t68.5 -133.5t105 -65t146 -18q139 0 279 72v-39q-64 -89 -185.5 -158.5t-279.5 -69.5zM575 1176q-111 0 -178 88.5t-94 236.5l23 8
q36 -66 94.5 -92t157.5 -26q93 0 153 26.5t98 91.5l23 -8q-21 -146 -91.5 -235.5t-185.5 -89.5zM573 1047q-34 0 -59 -17t-46 -59t-32 -120t-12 -192l274 21q0 218 -25.5 292.5t-99.5 74.5z" />
    <glyph glyph-name="Edotaccent" unicode="&#x116;" horiz-adv-x="1259" 
d="M963 1018v-576h-37q-25 112 -68 197q-20 38 -53 50.5t-129 12.5h-53v-495q0 -46 4 -69t20.5 -40.5t46.5 -22.5t86 -5q78 0 121 13t68 38.5t63 85.5q87 144 162 338h41l-29 -545h-1196v35l56 14q27 7 39 11.5t25 14.5t17 27t6.5 43t2.5 70v989q0 44 -2.5 70t-6.5 43
t-17 27t-25 14.5t-39 11.5l-56 14v35h1155l19 -465h-39q-71 167 -137 273q-45 72 -94 97.5t-140 25.5q-101 0 -151 -13v-569h55q67 0 103 7t50 18.5t27 35.5q42 81 68 189h37zM651 1481q-85 0 -141.5 49.5t-56.5 132.5q0 82 56.5 132t141.5 50q86 0 142.5 -50t56.5 -132
q0 -83 -56 -132.5t-143 -49.5z" />
    <glyph glyph-name="edotaccent" unicode="&#x117;" horiz-adv-x="1112" 
d="M582 -25q-275 0 -415 140t-140 409q0 112 32.5 208.5t88 163.5t128 115t152.5 70.5t162 22.5q486 0 500 -500h-666q2 -131 24.5 -217.5t68.5 -133.5t105 -65t146 -18q139 0 279 72v-39q-64 -89 -185.5 -158.5t-279.5 -69.5zM362 1339q0 82 57 132.5t142 50.5
q86 0 142.5 -50.5t56.5 -132.5q0 -83 -56 -132.5t-143 -49.5q-86 0 -142.5 49.5t-56.5 132.5zM573 1047q-34 0 -59 -17t-46 -59t-32 -120t-12 -192l274 21q0 218 -25.5 292.5t-99.5 74.5z" />
    <glyph glyph-name="Eogonek" unicode="&#x118;" horiz-adv-x="1259" 
d="M979 0h-969v35l56 14q27 7 39 11.5t25 14.5t17 27t6.5 43t2.5 70v989q0 44 -2.5 70t-6.5 43t-17 27t-25 14.5t-39 11.5l-56 14v35h1155l19 -465h-39q-71 167 -137 273q-45 72 -94 97.5t-140 25.5q-101 0 -151 -13v-569h55q67 0 103 7t50 18.5t27 35.5q42 81 68 189h37
v-576h-37q-25 112 -68 197q-20 38 -53 50.5t-129 12.5h-53v-495q0 -46 4 -69t20.5 -40.5t46.5 -22.5t86 -5q78 0 121 13t68 38.5t63 85.5q87 144 162 338h41l-29 -545h-186q-35 -42 -59.5 -103t-24.5 -126q0 -43 22 -65.5t60 -22.5q32 0 59 6v-31q-74 -78 -186 -78
q-105 0 -161 43t-56 117q0 161 305 260z" />
    <glyph glyph-name="eogonek" unicode="&#x119;" horiz-adv-x="1112" 
d="M483 -260q0 75 82 143.5t207 118.5q-118 -27 -190 -27q-275 0 -415 140t-140 409q0 112 32.5 208.5t88 163.5t128 115t152.5 70.5t162 22.5q486 0 500 -500h-666q2 -131 24.5 -217.5t68.5 -133.5t105 -65t146 -18q139 0 279 72v-39q-34 -37 -107.5 -108t-85.5 -83
q-64 -64 -89.5 -115t-25.5 -110q0 -104 97 -104q24 0 51 6v-31q-74 -78 -187 -78q-105 0 -161 43t-56 117zM573 1047q-34 0 -59 -17t-46 -59t-32 -120t-12 -192l274 21q0 218 -25.5 292.5t-99.5 74.5z" />
    <glyph glyph-name="Ecaron" unicode="&#x11a;" horiz-adv-x="1259" 
d="M963 1018v-576h-37q-25 112 -68 197q-20 38 -53 50.5t-129 12.5h-53v-495q0 -46 4 -69t20.5 -40.5t46.5 -22.5t86 -5q78 0 121 13t68 38.5t63 85.5q87 144 162 338h41l-29 -545h-1196v35l56 14q27 7 39 11.5t25 14.5t17 27t6.5 43t2.5 70v989q0 44 -2.5 70t-6.5 43
t-17 27t-25 14.5t-39 11.5l-56 14v35h1155l19 -465h-39q-71 167 -137 273q-45 72 -94 97.5t-140 25.5q-101 0 -151 -13v-569h55q67 0 103 7t50 18.5t27 35.5q42 81 68 189h37zM338 1800l12 21l332 -90l332 90l12 -21l-281 -303h-127z" />
    <glyph glyph-name="ecaron" unicode="&#x11b;" horiz-adv-x="1112" 
d="M582 -25q-275 0 -415 140t-140 409q0 112 32.5 208.5t88 163.5t128 115t152.5 70.5t162 22.5q486 0 500 -500h-666q2 -131 24.5 -217.5t68.5 -133.5t105 -65t146 -18q139 0 279 72v-39q-64 -89 -185.5 -158.5t-279.5 -69.5zM625 1188h-119l-252 330l10 18l301 -115
l301 115l11 -18zM573 1047q-34 0 -59 -17t-46 -59t-32 -120t-12 -192l274 21q0 218 -25.5 292.5t-99.5 74.5z" />
    <glyph glyph-name="Gcircumflex" unicode="&#x11c;" horiz-adv-x="1419" 
d="M803 -25q-382 0 -573 190t-191 542q0 153 43.5 277.5t119 209t181 141.5t225 83t254.5 26q236 0 391 -51l23 -473h-39q-101 212 -172 315q-61 90 -114 119.5t-128 29.5q-158 0 -228.5 -160t-70.5 -491q0 -395 52 -546.5t202 -151.5q71 0 111 37v331q0 73 -7.5 103
t-23.5 41t-61 22l-56 15v34h684v-34l-43 -13q-40 -10 -48.5 -36t-8.5 -132v-342q-88 -36 -236.5 -61t-285.5 -25zM457 1481l-13 20l281 303h127l281 -303l-13 -20l-332 90z" />
    <glyph glyph-name="gcircumflex" unicode="&#x11d;" horiz-adv-x="1097" 
d="M440 -418q-473 0 -473 217q0 75 70 126.5t201 66.5v4q-107 27 -156 82.5t-49 142.5q0 84 49 151t117 107v4q-168 87 -168 262q0 166 130 262.5t335 96.5q154 0 278 -62q123 119 240 119q62 0 99.5 -31.5t37.5 -93.5q0 -49 -26.5 -81.5t-82.5 -32.5q-47 0 -67 18t-35 61
q-8 23 -22.5 33.5t-32.5 9.5t-36.5 -8.5t-37.5 -21.5v-4q66 -44 108 -104t42 -130q0 -168 -130 -263t-335 -95q-151 0 -256 43q-31 -41 -31 -86q0 -56 88 -56h418q80 0 141.5 -13.5t112 -45t77.5 -88.5t27 -137q0 -140 -82.5 -244t-225 -156.5t-325.5 -52.5zM487 -358
q344 0 344 196q0 76 -46 109t-146 33h-356q-37 -40 -37 -148q0 -91 55 -140.5t186 -49.5zM496 475q42 0 62 22t29 80.5t9 180.5q0 123 -10 185t-30.5 83t-59.5 21q-42 0 -62.5 -21.5t-29.5 -80.5t-9 -181q0 -121 10 -182.5t30.5 -84t60.5 -22.5zM457 1520h118l252 -330
l-10 -19l-301 115l-301 -115l-10 19z" />
    <glyph glyph-name="Gbreve" unicode="&#x11e;" horiz-adv-x="1419" 
d="M803 -25q-382 0 -573 190t-191 542q0 153 43.5 277.5t119 209t181 141.5t225 83t254.5 26q236 0 391 -51l23 -473h-39q-101 212 -172 315q-61 90 -114 119.5t-128 29.5q-158 0 -228.5 -160t-70.5 -491q0 -395 52 -546.5t202 -151.5q71 0 111 37v331q0 73 -7.5 103
t-23.5 41t-61 22l-56 15v34h684v-34l-43 -13q-40 -10 -48.5 -36t-8.5 -132v-342q-88 -36 -236.5 -61t-285.5 -25zM784 1485q-243 0 -297 325l23 9q47 -68 107 -96.5t169 -28.5q103 0 164.5 28.5t112.5 96.5l22 -9q-21 -153 -96.5 -239t-204.5 -86z" />
    <glyph glyph-name="gbreve" unicode="&#x11f;" horiz-adv-x="1097" 
d="M440 -418q-473 0 -473 217q0 75 70 126.5t201 66.5v4q-107 27 -156 82.5t-49 142.5q0 84 49 151t117 107v4q-168 87 -168 262q0 166 130 262.5t335 96.5q154 0 278 -62q123 119 240 119q62 0 99.5 -31.5t37.5 -93.5q0 -49 -26.5 -81.5t-82.5 -32.5q-47 0 -67 18t-35 61
q-8 23 -22.5 33.5t-32.5 9.5t-36.5 -8.5t-37.5 -21.5v-4q66 -44 108 -104t42 -130q0 -168 -130 -263t-335 -95q-151 0 -256 43q-31 -41 -31 -86q0 -56 88 -56h418q80 0 141.5 -13.5t112 -45t77.5 -88.5t27 -137q0 -140 -82.5 -244t-225 -156.5t-325.5 -52.5zM487 -358
q344 0 344 196q0 76 -46 109t-146 33h-356q-37 -40 -37 -148q0 -91 55 -140.5t186 -49.5zM496 475q42 0 62 22t29 80.5t9 180.5q0 123 -10 185t-30.5 83t-59.5 21q-42 0 -62.5 -21.5t-29.5 -80.5t-9 -181q0 -121 10 -182.5t30.5 -84t60.5 -22.5zM518 1176q-111 0 -178 88.5
t-94 236.5l22 8q36 -66 94.5 -92t157.5 -26q93 0 153.5 26.5t98.5 91.5l23 -8q-21 -146 -91.5 -235.5t-185.5 -89.5z" />
    <glyph glyph-name="Gdotaccent" unicode="&#x120;" horiz-adv-x="1419" 
d="M803 -25q-382 0 -573 190t-191 542q0 153 43.5 277.5t119 209t181 141.5t225 83t254.5 26q236 0 391 -51l23 -473h-39q-101 212 -172 315q-61 90 -114 119.5t-128 29.5q-158 0 -228.5 -160t-70.5 -491q0 -395 52 -546.5t202 -151.5q71 0 111 37v331q0 73 -7.5 103
t-23.5 41t-61 22l-56 15v34h684v-34l-43 -13q-40 -10 -48.5 -36t-8.5 -132v-342q-88 -36 -236.5 -61t-285.5 -25zM782 1481q-85 0 -141.5 49.5t-56.5 132.5q0 82 56.5 132t141.5 50q86 0 142.5 -50t56.5 -132q0 -83 -56 -132.5t-143 -49.5z" />
    <glyph glyph-name="gdotaccent" unicode="&#x121;" horiz-adv-x="1097" 
d="M440 -418q-473 0 -473 217q0 75 70 126.5t201 66.5v4q-107 27 -156 82.5t-49 142.5q0 84 49 151t117 107v4q-168 87 -168 262q0 166 130 262.5t335 96.5q154 0 278 -62q123 119 240 119q62 0 99.5 -31.5t37.5 -93.5q0 -49 -26.5 -81.5t-82.5 -32.5q-47 0 -67 18t-35 61
q-8 23 -22.5 33.5t-32.5 9.5t-36.5 -8.5t-37.5 -21.5v-4q66 -44 108 -104t42 -130q0 -168 -130 -263t-335 -95q-151 0 -256 43q-31 -41 -31 -86q0 -56 88 -56h418q80 0 141.5 -13.5t112 -45t77.5 -88.5t27 -137q0 -140 -82.5 -244t-225 -156.5t-325.5 -52.5zM487 -358
q344 0 344 196q0 76 -46 109t-146 33h-356q-37 -40 -37 -148q0 -91 55 -140.5t186 -49.5zM496 475q42 0 62 22t29 80.5t9 180.5q0 123 -10 185t-30.5 83t-59.5 21q-42 0 -62.5 -21.5t-29.5 -80.5t-9 -181q0 -121 10 -182.5t30.5 -84t60.5 -22.5zM305 1339q0 82 57 132.5
t142 50.5q86 0 142 -50.5t56 -132.5q0 -83 -55.5 -132.5t-142.5 -49.5q-86 0 -142.5 49.5t-56.5 132.5z" />
    <glyph glyph-name="Gcommaaccent" unicode="&#x122;" horiz-adv-x="1419" 
d="M803 -25q-382 0 -573 190t-191 542q0 153 43.5 277.5t119 209t181 141.5t225 83t254.5 26q236 0 391 -51l23 -473h-39q-101 212 -172 315q-61 90 -114 119.5t-128 29.5q-158 0 -228.5 -160t-70.5 -491q0 -395 52 -546.5t202 -151.5q71 0 111 37v331q0 73 -7.5 103
t-23.5 41t-61 22l-56 15v34h684v-34l-43 -13q-40 -10 -48.5 -36t-8.5 -132v-342q-88 -36 -236.5 -61t-285.5 -25zM557 -518l-4 22q210 53 229 195q-31 -31 -84 -31q-56 0 -90.5 33.5t-34.5 87.5t46.5 93.5t119.5 39.5q77 0 131 -50t54 -124q0 -117 -96.5 -186t-270.5 -80z
" />
    <glyph glyph-name="gcommaaccent" unicode="&#x123;" horiz-adv-x="1097" 
d="M440 -418q-473 0 -473 217q0 75 70 126.5t201 66.5v4q-107 27 -156 82.5t-49 142.5q0 84 49 151t117 107v4q-168 87 -168 262q0 166 130 262.5t335 96.5q154 0 278 -62q123 119 240 119q62 0 99.5 -31.5t37.5 -93.5q0 -49 -26.5 -81.5t-82.5 -32.5q-47 0 -67 18t-35 61
q-8 23 -22.5 33.5t-32.5 9.5t-36.5 -8.5t-37.5 -21.5v-4q66 -44 108 -104t42 -130q0 -168 -130 -263t-335 -95q-151 0 -256 43q-31 -41 -31 -86q0 -56 88 -56h418q80 0 141.5 -13.5t112 -45t77.5 -88.5t27 -137q0 -140 -82.5 -244t-225 -156.5t-325.5 -52.5zM487 -358
q344 0 344 196q0 76 -46 109t-146 33h-356q-37 -40 -37 -148q0 -91 55 -140.5t186 -49.5zM496 475q42 0 62 22t29 80.5t9 180.5q0 123 -10 185t-30.5 83t-59.5 21q-42 0 -62.5 -21.5t-29.5 -80.5t-9 -181q0 -121 10 -182.5t30.5 -84t60.5 -22.5zM709 1585l4 -22
q-211 -53 -230 -195q31 31 84 31q56 0 90.5 -33.5t34.5 -87.5t-46.5 -93.5t-119.5 -39.5q-77 0 -130.5 50t-53.5 124q0 117 96.5 186t270.5 80z" />
    <glyph glyph-name="Hcircumflex" unicode="&#x124;" horiz-adv-x="1607" 
d="M10 0v35l56 14q27 7 39 11.5t25 14.5t17 27t6.5 43t2.5 70v989q0 44 -2.5 70t-6.5 43t-17 27t-25 14.5t-39 11.5l-56 14v35h752v-35l-49 -14q-45 -13 -60.5 -24t-22.5 -40.5t-7 -101.5v-440h362v440q0 72 -7 101.5t-22.5 40.5t-60.5 24l-49 14v35h751v-35l-55 -14
q-27 -7 -39 -11.5t-25 -14.5t-17 -27t-6.5 -43t-2.5 -70v-989q0 -44 2.5 -70t6.5 -43t17 -27t25 -14.5t39 -11.5l55 -14v-35h-751v35l49 14q45 13 60 24t22.5 41t7.5 101v475h-362v-475q0 -71 7.5 -101t22.5 -41t60 -24l49 -14v-35h-752zM473 1481l-12 20l280 303h127
l281 -303l-12 -20l-332 90z" />
    <glyph glyph-name="hcircumflex" unicode="&#x125;" horiz-adv-x="1308" 
d="M922 1104q120 0 192 -71t72 -204v-661q0 -39 1.5 -56.5t12.5 -32t25 -19.5t49 -15l37 -10v-35h-633v35l31 8q53 13 63 30.5t10 94.5v584q0 81 -30 114t-90 33q-84 0 -136 -12v-719q0 -43 1 -61.5t10.5 -33t21 -18.5t41.5 -12l31 -8v-35h-633v35l37 10q61 17 73.5 34.5
t12.5 88.5v1120q0 84 -9.5 108t-56.5 50l-67 31v26l528 47l19 -12q-9 -111 -9 -248v-338h6q94 70 187 111t203 41zM-14 1608l-13 20l281 303h127l281 -303l-13 -20l-332 90z" />
    <glyph glyph-name="Hbar" unicode="&#x126;" horiz-adv-x="1607" 
d="M18 1020v63h138v121q0 44 -2.5 70t-6.5 43t-17 27t-25 14.5t-39 11.5l-56 14v35h752v-35l-49 -14q-45 -13 -60.5 -24t-22.5 -40.5t-7 -101.5v-121h362v121q0 72 -7 101.5t-22.5 40.5t-60.5 24l-49 14v35h751v-35l-55 -14q-27 -7 -39 -11.5t-25 -14.5t-17 -27t-6.5 -43
t-2.5 -70v-121h160v-63h-160v-805q0 -44 2.5 -70t6.5 -43t17 -27t25 -14.5t39 -11.5l55 -14v-35h-751v35l49 14q45 13 60 24t22.5 41t7.5 101v475h-362v-475q0 -71 7.5 -101t22.5 -41t60 -24l49 -14v-35h-752v35l56 14q27 7 39 11.5t25 14.5t17 27t6.5 43t2.5 70v805h-138z
M623 764h362v256h-362v-256z" />
    <glyph glyph-name="hbar" unicode="&#x127;" horiz-adv-x="1308" 
d="M-16 1221v73h137q0 78 -10 102t-56 50l-67 31v26l528 47l19 -12q-9 -109 -9 -244h293v-73h-293v-269h6q94 70 187 111t203 41q120 0 192 -71t72 -204v-661q0 -39 1.5 -56.5t12.5 -32t25 -19.5t49 -15l37 -10v-35h-633v35l31 8q53 13 63 30.5t10 94.5v584q0 81 -30 114
t-90 33q-84 0 -136 -12v-719q0 -43 1 -61.5t10.5 -33t21 -18.5t41.5 -12l31 -8v-35h-633v35l37 10q61 17 73.5 34.5t12.5 88.5v1053h-137z" />
    <glyph glyph-name="Itilde" unicode="&#x128;" horiz-adv-x="790" 
d="M10 0v35l62 14q44 10 59.5 21t23 41.5t7.5 103.5v989q0 73 -7.5 103.5t-23 41.5t-59.5 21l-62 14v35h770v-35l-61 -14q-44 -10 -59.5 -21t-23 -41.5t-7.5 -103.5v-989q0 -73 7.5 -103.5t23 -41.5t59.5 -21l61 -14v-35h-770zM545 1520q-41 0 -177 18t-182 18
q-40 0 -66.5 -19.5t-56.5 -68.5l-28 17q51 154 98.5 225.5t120.5 71.5q42 0 177 -19.5t181 -19.5q39 0 66 20.5t57 69.5l29 -16q-20 -64 -34.5 -103.5t-34.5 -80.5t-40.5 -63t-48 -36t-61.5 -14z" />
    <glyph glyph-name="itilde" unicode="&#x129;" horiz-adv-x="647" 
d="M-2 0v35l37 10q61 17 73.5 34.5t12.5 88.5v674q0 47 -5 68.5t-17.5 35.5t-47.5 39l-65 47v19l530 53l16 -12q-8 -133 -8 -263v-661q0 -71 12.5 -88.5t73.5 -34.5l37 -10v-35h-649zM8 1165l-28 17q51 154 98.5 225.5t120.5 71.5q43 0 157 -19.5t160 -19.5q39 0 66 20.5
t57 69.5l29 -17q-20 -63 -34.5 -103t-34.5 -80.5t-40.5 -62.5t-48 -36t-61.5 -14q-41 0 -156.5 18t-161.5 18q-40 0 -66.5 -19.5t-56.5 -68.5z" />
    <glyph glyph-name="Imacron" unicode="&#x12a;" horiz-adv-x="790" 
d="M10 0v35l62 14q44 10 59.5 21t23 41.5t7.5 103.5v989q0 73 -7.5 103.5t-23 41.5t-59.5 21l-62 14v35h770v-35l-61 -14q-44 -10 -59.5 -21t-23 -41.5t-7.5 -103.5v-989q0 -73 7.5 -103.5t23 -41.5t59.5 -21l61 -14v-35h-770zM102 1546v142h590v-142h-590z" />
    <glyph glyph-name="imacron" unicode="&#x12b;" horiz-adv-x="647" 
d="M-2 0v35l37 10q61 17 73.5 34.5t12.5 88.5v674q0 47 -5 68.5t-17.5 35.5t-47.5 39l-65 47v19l530 53l16 -12q-8 -133 -8 -263v-661q0 -71 12.5 -88.5t73.5 -34.5l37 -10v-35h-649zM14 1257v142h590v-142h-590z" />
    <glyph glyph-name="Ibreve" unicode="&#x12c;" horiz-adv-x="790" 
d="M10 0v35l62 14q44 10 59.5 21t23 41.5t7.5 103.5v989q0 73 -7.5 103.5t-23 41.5t-59.5 21l-62 14v35h770v-35l-61 -14q-44 -10 -59.5 -21t-23 -41.5t-7.5 -103.5v-989q0 -73 7.5 -103.5t23 -41.5t59.5 -21l61 -14v-35h-770zM393 1485q-243 0 -297 325l23 9
q47 -68 107 -96.5t169 -28.5q103 0 164.5 28.5t112.5 96.5l22 -9q-21 -153 -96.5 -239t-204.5 -86z" />
    <glyph glyph-name="ibreve" unicode="&#x12d;" horiz-adv-x="647" 
d="M-2 0v35l37 10q61 17 73.5 34.5t12.5 88.5v674q0 47 -5 68.5t-17.5 35.5t-47.5 39l-65 47v19l530 53l16 -12q-8 -133 -8 -263v-661q0 -71 12.5 -88.5t73.5 -34.5l37 -10v-35h-649zM322 1176q-111 0 -178.5 88.5t-94.5 236.5l23 8q36 -66 94.5 -92t157.5 -26
q93 0 153 26.5t98 91.5l23 -8q-21 -146 -91 -235.5t-185 -89.5z" />
    <glyph glyph-name="Iogonek" unicode="&#x12e;" horiz-adv-x="790" 
d="M780 0h-192q-35 -42 -59.5 -103t-24.5 -126q0 -43 22 -65.5t60 -22.5q32 0 59 6v-31q-74 -78 -186 -78q-105 0 -161 43t-56 117q0 161 305 260h-537v35l62 14q44 10 59.5 21t23 41.5t7.5 103.5v989q0 73 -7.5 103.5t-23 41.5t-59.5 21l-62 14v35h770v-35l-61 -14
q-44 -10 -59.5 -21t-23 -41.5t-7.5 -103.5v-989q0 -73 7.5 -103.5t23 -41.5t59.5 -21l61 -14v-35z" />
    <glyph glyph-name="iogonek" unicode="&#x12f;" horiz-adv-x="647" 
d="M115 1362q0 82 56.5 132t141.5 50q86 0 142.5 -50t56.5 -132q0 -83 -56 -132.5t-143 -49.5q-85 0 -141.5 49.5t-56.5 132.5zM426 0h-428v35l37 10q61 17 73.5 34.5t12.5 88.5v674q0 47 -5 68.5t-17.5 35.5t-47.5 39l-65 47v19l530 53l16 -12q-8 -133 -8 -263v-661
q0 -71 12.5 -88.5t73.5 -34.5l37 -10v-35h-180q-35 -42 -59.5 -103t-24.5 -126q0 -43 22 -65.5t60 -22.5q32 0 59 6v-31q-74 -78 -186 -78q-105 0 -161 43t-56 117q0 161 305 260z" />
    <glyph glyph-name="Idotaccent" unicode="&#x130;" horiz-adv-x="790" 
d="M10 0v35l62 14q44 10 59.5 21t23 41.5t7.5 103.5v989q0 73 -7.5 103.5t-23 41.5t-59.5 21l-62 14v35h770v-35l-61 -14q-44 -10 -59.5 -21t-23 -41.5t-7.5 -103.5v-989q0 -73 7.5 -103.5t23 -41.5t59.5 -21l61 -14v-35h-770zM395 1481q-85 0 -141.5 49.5t-56.5 132.5
q0 82 56.5 132t141.5 50q86 0 142.5 -50t56.5 -132q0 -83 -56 -132.5t-143 -49.5z" />
    <glyph glyph-name="dotlessi" unicode="&#x131;" horiz-adv-x="647" 
d="M-2 0v35l37 10q61 17 73.5 34.5t12.5 88.5v674q0 47 -5 68.5t-17.5 35.5t-47.5 39l-65 47v19l530 53l16 -12q-8 -133 -8 -263v-661q0 -71 12.5 -88.5t73.5 -34.5l37 -10v-35h-649z" />
    <glyph glyph-name="IJ" unicode="&#x132;" horiz-adv-x="1882" 
d="M10 0v35l62 14q44 10 59.5 21t23 41.5t7.5 103.5v989q0 73 -7.5 103.5t-23 41.5t-59.5 21l-62 14v35h766v-35l-57 -14q-44 -10 -59.5 -21t-23 -41.5t-7.5 -103.5v-989q0 -73 7.5 -103.5t23 -41.5t59.5 -21l61 -14v-35h-770zM1149 -20q-186 0 -288.5 69.5t-102.5 177.5
q0 86 49 131t137 45q51 0 84.5 -12t61 -44.5t42 -93.5t19.5 -157q1 -29 11 -39t30 -10q68 0 68 141v1016q0 73 -6.5 103.5t-22 42t-57.5 20.5l-60 14v35h758v-35l-57 -14q-28 -7 -40.5 -12t-25 -14t-16 -27t-5.5 -43t-2 -70v-682q0 -244 -155.5 -393t-421.5 -149z" />
    <glyph glyph-name="ij" unicode="&#x133;" horiz-adv-x="1263" 
d="M-2 0v35l37 10q61 17 73.5 34.5t12.5 88.5v674q0 47 -5 68.5t-17.5 35.5t-47.5 39l-65 47v19l530 53l16 -12q-8 -133 -8 -263v-661q0 -71 12.5 -88.5t73.5 -34.5l37 -10v-35h-649zM115 1362q0 82 56.5 132t141.5 50q86 0 142.5 -50t56.5 -132q0 -83 -56 -132.5
t-143 -49.5q-85 0 -141.5 49.5t-56.5 132.5zM1171 829v-782q0 -204 -138 -334.5t-349 -130.5q-162 0 -252 60t-90 163q0 72 44 111t122 39q59 0 93 -19.5t55 -75t28 -157.5q3 -36 8.5 -46.5t20.5 -10.5q28 0 41.5 29.5t13.5 109.5v1057q0 47 -5 68.5t-17.5 35.5t-47.5 39
l-65 47v19l530 53l17 -12q-9 -150 -9 -263zM762 1362q0 82 57 132t142 50q86 0 142 -50t56 -132q0 -83 -55.5 -132.5t-142.5 -49.5q-86 0 -142.5 49.5t-56.5 132.5z" />
    <glyph glyph-name="Jcircumflex" unicode="&#x134;" horiz-adv-x="1107" 
d="M375 -20q-186 0 -288.5 69.5t-102.5 177.5q0 86 49 131t137 45q51 0 84.5 -12t61 -44.5t42 -93.5t19.5 -157q1 -29 11 -39t30 -10q67 0 67 141v1016q0 73 -6.5 103.5t-22 42t-57.5 20.5l-59 14v35h758v-35l-58 -14q-28 -7 -40.5 -12t-24.5 -14t-15.5 -27.5t-5.5 -42.5
t-2 -70v-682q0 -244 -155.5 -393t-421.5 -149zM385 1481l-12 20l280 303h127l281 -303l-12 -20l-332 90z" />
    <glyph glyph-name="jcircumflex" unicode="&#x135;" horiz-adv-x="616" 
d="M524 829v-782q0 -204 -138 -334.5t-349 -130.5q-162 0 -252 60t-90 163q0 72 44 111t122 39q59 0 93 -19.5t55 -75t28 -157.5q3 -36 8.5 -46.5t20.5 -10.5q28 0 41.5 29.5t13.5 109.5v1057q0 47 -5 68.5t-17.5 35.5t-47.5 39l-65 47v19l530 53l16 -12q-8 -133 -8 -263z
M250 1520h119l252 -330l-11 -19l-301 115l-301 -115l-10 19z" />
    <glyph glyph-name="Kcommaaccent" unicode="&#x136;" horiz-adv-x="1546" 
d="M1008 0q-212 299 -353 655v41l357 416q80 95 80 168q0 63 -82 88l-56 16v35h519v-35l-52 -12q-57 -14 -109 -52.5t-138 -133.5l-205 -228q111 -239 244 -475t245 -387q20 -26 33.5 -36.5t38.5 -16.5l31 -8v-35h-553zM10 0v35l56 14q27 7 39 11.5t25 14.5t17 27t6.5 43
t2.5 70v989q0 44 -2.5 70t-6.5 43t-17 27t-25 14.5t-39 11.5l-56 14v35h752v-35l-49 -14q-45 -13 -60.5 -24t-22.5 -40.5t-7 -101.5v-989q0 -71 7.5 -101t22.5 -41t60 -24l49 -14v-35h-752zM565 -518l-4 22q211 53 230 195q-31 -31 -84 -31q-56 0 -90.5 33.5t-34.5 87.5
t46.5 93.5t119.5 39.5q77 0 130.5 -50t53.5 -124q0 -117 -96.5 -186t-270.5 -80z" />
    <glyph glyph-name="kcommaaccent" unicode="&#x137;" horiz-adv-x="1269" 
d="M811 0q-83 117 -155.5 254.5t-108.5 241.5v24l219 242q104 115 104 178q0 68 -102 94l-31 8v35h490v-35l-19 -4q-46 -10 -88.5 -34t-101.5 -82l-184 -177q69 -156 181 -352.5t181 -290.5q24 -32 38.5 -44.5t39.5 -18.5l16 -4v-35h-479zM526 1290v-1122q0 -76 9.5 -93
t60.5 -32l27 -8v-35h-625v35l37 10q61 17 73.5 34.5t12.5 88.5v1120q0 84 -9.5 108t-56.5 50l-67 31v26l528 47l19 -12q-9 -111 -9 -248zM465 -518l-4 22q210 53 229 195q-31 -31 -84 -31q-56 0 -90.5 33.5t-34.5 87.5t46.5 93.5t119.5 39.5q77 0 130.5 -50t53.5 -124
q0 -117 -96 -186t-270 -80z" />
    <glyph glyph-name="Lacute" unicode="&#x139;" horiz-adv-x="1228" 
d="M10 0v35l56 14q27 7 39 11.5t25 14.5t17 27t6.5 43t2.5 70v989q0 44 -2.5 70t-6.5 43t-17 27t-25 14.5t-39 11.5l-56 14v35h770v-35l-67 -14q-34 -7 -48.5 -12.5t-26 -24t-13.5 -46t-2 -83.5v-1003q0 -59 9 -84.5t38.5 -37t95.5 -11.5q80 0 119 10.5t63.5 34.5t61.5 86
q71 119 170 372h41l-41 -571h-1170zM168 1481l-8 20l250 258q59 62 125 62q62 0 103.5 -45t41.5 -109q0 -55 -33.5 -90t-93.5 -43z" />
    <glyph glyph-name="lacute" unicode="&#x13a;" horiz-adv-x="659" 
d="M530 1290v-1122q0 -69 15 -87t80 -36l37 -10v-35h-664v35l37 10q30 9 43.5 14t26 12t16 21t5 29t1.5 47v1120q0 83 -11 107.5t-61 50.5l-67 31v26l532 47l19 -12q-9 -111 -9 -248zM84 1608l-8 20l250 258q59 62 125 62q62 0 103.5 -45t41.5 -109q0 -55 -33.5 -90
t-93.5 -43z" />
    <glyph glyph-name="Lcommaaccent" unicode="&#x13b;" horiz-adv-x="1228" 
d="M10 0v35l56 14q27 7 39 11.5t25 14.5t17 27t6.5 43t2.5 70v989q0 44 -2.5 70t-6.5 43t-17 27t-25 14.5t-39 11.5l-56 14v35h770v-35l-67 -14q-34 -7 -48.5 -12.5t-26 -24t-13.5 -46t-2 -83.5v-1003q0 -59 9 -84.5t38.5 -37t95.5 -11.5q80 0 119 10.5t63.5 34.5t61.5 86
q71 119 170 372h41l-41 -571h-1170zM442 -518l-4 22q211 53 230 195q-31 -31 -84 -31q-56 0 -90.5 33.5t-34.5 87.5t46.5 93.5t119.5 39.5q77 0 130.5 -50t53.5 -124q0 -117 -96.5 -186t-270.5 -80z" />
    <glyph glyph-name="lcommaaccent" unicode="&#x13c;" horiz-adv-x="659" 
d="M530 1290v-1122q0 -69 15 -87t80 -36l37 -10v-35h-664v35l37 10q30 9 43.5 14t26 12t16 21t5 29t1.5 47v1120q0 83 -11 107.5t-61 50.5l-67 31v26l532 47l19 -12q-9 -111 -9 -248zM133 -518l-4 22q210 53 229 195q-31 -31 -84 -31q-55 0 -89.5 33.5t-34.5 87.5t46 93.5
t119 39.5q77 0 131 -50t54 -124q0 -117 -96.5 -186t-270.5 -80z" />
    <glyph glyph-name="Lcaron" unicode="&#x13d;" horiz-adv-x="1228" 
d="M10 0v35l56 14q27 7 39 11.5t25 14.5t17 27t6.5 43t2.5 70v989q0 44 -2.5 70t-6.5 43t-17 27t-25 14.5t-39 11.5l-56 14v35h770v-35l-67 -14q-34 -7 -48.5 -12.5t-26 -24t-13.5 -46t-2 -83.5v-1003q0 -59 9 -84.5t38.5 -37t95.5 -11.5q80 0 119 10.5t63.5 34.5t61.5 86
q71 119 170 372h41l-41 -571h-1170zM856 1036l-22 8l8 293q0 103 100 103q52 0 90 -30t41 -71q0 -48 -35 -88z" />
    <glyph glyph-name="lcaron" unicode="&#x13e;" horiz-adv-x="659" 
d="M530 1290v-1122q0 -69 15 -87t80 -36l37 -10v-35h-664v35l37 10q30 9 43.5 14t26 12t16 21t5 29t1.5 47v1120q0 83 -11 107.5t-61 50.5l-67 31v26l532 47l19 -12q-9 -111 -9 -248zM616 1155l-22 8l8 293q0 103 100 103q52 0 90.5 -30.5t41.5 -70.5q0 -48 -35 -88z" />
    <glyph glyph-name="Ldot" unicode="&#x13f;" horiz-adv-x="1228" 
d="M10 0v35l56 14q27 7 39 11.5t25 14.5t17 27t6.5 43t2.5 70v989q0 44 -2.5 70t-6.5 43t-17 27t-25 14.5t-39 11.5l-56 14v35h770v-35l-67 -14q-34 -7 -48.5 -12.5t-26 -24t-13.5 -46t-2 -83.5v-1003q0 -59 9 -84.5t38.5 -37t95.5 -11.5q80 0 122.5 10.5t73 36t70.5 84.5
q72 105 142 274h40l-34 -473h-1170zM1018 590q-82 0 -139.5 56.5t-57.5 137.5q0 85 57 140t140 55q79 0 137.5 -55.5t58.5 -139.5q0 -80 -59 -137t-137 -57z" />
    <glyph glyph-name="ldot" unicode="&#x140;" horiz-adv-x="985" 
d="M530 1290v-1122q0 -69 15 -87t80 -36l37 -10v-35h-664v35l37 10q30 9 43.5 14t26 12t16 21t5 29t1.5 47v1120q0 83 -11 107.5t-61 50.5l-67 31v26l532 47l19 -12q-9 -111 -9 -248zM592 748q0 85 56.5 139.5t139.5 54.5q79 0 138 -55t59 -139q0 -80 -59.5 -137.5
t-137.5 -57.5q-82 0 -139 56.5t-57 138.5z" />
    <glyph glyph-name="Lslash" unicode="&#x141;" horiz-adv-x="1228" 
d="M10 481v68l146 47v608q0 44 -2.5 70t-6.5 43t-17 27t-25 14.5t-39 11.5l-56 14v35h770v-35l-67 -14q-34 -7 -48.5 -12.5t-26 -24t-13.5 -46t-2 -83.5v-456l378 124v-67l-378 -125v-475q0 -59 9 -84.5t38.5 -37t95.5 -11.5q81 0 119 9t63 33t62 85q71 119 170 372h41
l-41 -571h-1170v35l56 14q27 7 39 11.5t25 14.5t17 27t6.5 43t2.5 70v313z" />
    <glyph glyph-name="lslash" unicode="&#x142;" horiz-adv-x="659" 
d="M532 1290v-278l127 67v-80l-127 -67v-764q0 -69 15 -87t80 -36l37 -10v-35h-666v35l37 10q30 9 43.5 14t26 12t16 21t5 29t1.5 47v553l-127 -66v80l127 66v487q0 83 -11 107.5t-61 50.5l-67 31v26l534 47l19 -12q-9 -111 -9 -248z" />
    <glyph glyph-name="Nacute" unicode="&#x143;" horiz-adv-x="1384" 
d="M1098 0l-854 1169h-8v-899q0 -57 2 -87.5t7 -57t17.5 -39t30.5 -21.5t49 -16l64 -14v-35h-396v35l56 14q58 15 74 51t16 156v948q0 85 -18 119t-72 47l-56 14v35h602l527 -696h8v426q0 57 -2 87t-6.5 56t-17.5 38.5t-30 21t-49 16.5l-67 16v35h399v-35l-57 -14
q-40 -9 -58 -27t-25 -57t-7 -123v-1163h-129zM516 1481l-8 20l250 258q59 62 125 62q62 0 103.5 -45t41.5 -109q0 -55 -33.5 -90t-93.5 -43z" />
    <glyph glyph-name="nacute" unicode="&#x144;" horiz-adv-x="1308" 
d="M-2 0v35l37 10q61 17 73.5 34.5t12.5 88.5v672q0 68 -9.5 88.5t-56.5 54.5l-65 47v21l510 53l16 -12v-156h6q102 79 195 123.5t203 44.5q120 0 192 -71t72 -204v-661q0 -39 1.5 -56.5t12.5 -32t25 -19.5t49 -15l37 -10v-35h-633v35l31 8q53 13 63 30.5t10 94.5v584
q0 79 -30 110t-91 31q-83 0 -135 -12v-713q0 -43 1 -61.5t10.5 -33t21 -18.5t41.5 -12l31 -8v-35h-631zM463 1180l-8 20l243 264q32 34 62 49t71 15q57 0 98.5 -46.5t41.5 -109.5q0 -49 -28.5 -86t-86.5 -45z" />
    <glyph glyph-name="Ncommaaccent" unicode="&#x145;" horiz-adv-x="1384" 
d="M1098 0l-854 1169h-8v-899q0 -57 2 -87.5t7 -57t17.5 -39t30.5 -21.5t49 -16l64 -14v-35h-396v35l56 14q58 15 74 51t16 156v948q0 85 -18 119t-72 47l-56 14v35h602l527 -696h8v426q0 57 -2 87t-6.5 56t-17.5 38.5t-30 21t-49 16.5l-67 16v35h399v-35l-57 -14
q-40 -9 -58 -27t-25 -57t-7 -123v-1163h-129zM485 -518l-4 22q211 53 230 195q-31 -31 -84 -31q-56 0 -90.5 33.5t-34.5 87.5t46.5 93.5t119.5 39.5q77 0 130.5 -50t53.5 -124q0 -117 -96.5 -186t-270.5 -80z" />
    <glyph glyph-name="ncommaaccent" unicode="&#x146;" horiz-adv-x="1308" 
d="M-2 0v35l37 10q61 17 73.5 34.5t12.5 88.5v672q0 68 -9.5 88.5t-56.5 54.5l-65 47v21l510 53l16 -12v-156h6q102 79 195 123.5t203 44.5q120 0 192 -71t72 -204v-661q0 -39 1.5 -56.5t12.5 -32t25 -19.5t49 -15l37 -10v-35h-633v35l31 8q53 13 63 30.5t10 94.5v584
q0 79 -30 110t-91 31q-83 0 -135 -12v-713q0 -43 1 -61.5t10.5 -33t21 -18.5t41.5 -12l31 -8v-35h-631zM453 -518l-4 22q210 53 229 195q-31 -31 -84 -31q-56 0 -90.5 33.5t-34.5 87.5t46.5 93.5t119.5 39.5q77 0 130.5 -50t53.5 -124q0 -117 -96 -186t-270 -80z" />
    <glyph glyph-name="Ncaron" unicode="&#x147;" horiz-adv-x="1384" 
d="M1098 0l-854 1169h-8v-899q0 -57 2 -87.5t7 -57t17.5 -39t30.5 -21.5t49 -16l64 -14v-35h-396v35l56 14q58 15 74 51t16 156v948q0 85 -18 119t-72 47l-56 14v35h602l527 -696h8v426q0 57 -2 87t-6.5 56t-17.5 38.5t-30 21t-49 16.5l-67 16v35h399v-35l-57 -14
q-40 -9 -58 -27t-25 -57t-7 -123v-1163h-129zM362 1800l13 21l332 -90l331 90l13 -21l-281 -303h-127z" />
    <glyph glyph-name="ncaron" unicode="&#x148;" horiz-adv-x="1308" 
d="M-2 0v35l37 10q61 17 73.5 34.5t12.5 88.5v672q0 68 -9.5 88.5t-56.5 54.5l-65 47v21l510 53l16 -12v-156h6q102 79 195 123.5t203 44.5q120 0 192 -71t72 -204v-661q0 -39 1.5 -56.5t12.5 -32t25 -19.5t49 -15l37 -10v-35h-633v35l31 8q53 13 63 30.5t10 94.5v584
q0 79 -30 110t-91 31q-83 0 -135 -12v-713q0 -43 1 -61.5t10.5 -33t21 -18.5t41.5 -12l31 -8v-35h-631zM713 1188h-119l-252 330l10 18l301 -115l301 115l11 -18z" />
    <glyph glyph-name="napostrophe" unicode="&#x149;" horiz-adv-x="1429" 
d="M-225 899l-6 27q234 79 223 264q-28 -45 -84 -45q-58 0 -95.5 37t-37.5 104q0 72 50.5 115t123.5 43q81 0 139.5 -56.5t58.5 -156.5q0 -271 -372 -332zM121 0v35l37 10q61 17 73.5 34.5t12.5 88.5v672q0 68 -9.5 88.5t-56.5 54.5l-65 47v21l510 53l16 -12v-156h6
q102 79 194.5 123.5t202.5 44.5q121 0 193 -71t72 -204v-661q0 -39 1.5 -56.5t12.5 -32t25 -19.5t49 -15l37 -10v-35h-633v35l30 8q54 13 64 30.5t10 94.5v584q0 79 -30 110t-91 31q-82 0 -135 -12v-713q0 -43 1 -61.5t10.5 -33t21 -18.5t41.5 -12l31 -8v-35h-631z" />
    <glyph glyph-name="Eng" unicode="&#x14a;" horiz-adv-x="1384" 
d="M1139 -57l-895 1226h-8v-899q0 -57 2 -87.5t7 -57t17.5 -39t30.5 -21.5t49 -16l64 -14v-35h-396v35l56 14q58 15 74 51t16 156v948q0 85 -18 119t-72 47l-56 14v35h602l527 -696h8v426q0 57 -2 87t-6.5 56t-17.5 38.5t-30 21t-49 16.5l-67 16v35h399v-35l-57 -14
q-40 -9 -58 -27t-25 -57t-7 -123v-1181q0 -371 -318 -371q-144 0 -214 60.5t-70 152.5q0 58 40.5 95.5t106.5 37.5q76 0 112.5 -42.5t61.5 -158.5q8 -36 18.5 -49.5t34.5 -13.5q51 0 95 63t45 187z" />
    <glyph glyph-name="eng" unicode="&#x14b;" horiz-adv-x="1267" 
d="M780 752q0 79 -30 110t-91 31q-83 0 -135 -12v-713q0 -43 1 -61.5t10.5 -33t21 -18.5t41.5 -12l31 -8v-35h-631v35l37 10q61 17 73.5 34.5t12.5 88.5v672q0 68 -9.5 88.5t-56.5 54.5l-65 47v21l510 53l16 -12v-156h6q102 79 195 123.5t203 44.5q120 0 192 -71t72 -204
v-761q0 -212 -140.5 -349t-347.5 -137q-154 0 -236.5 53.5t-82.5 145.5q0 64 37.5 97.5t107.5 33.5q75 0 112 -48t46 -177q3 -30 8 -38.5t17 -8.5q29 0 52 34.5t23 110.5v967z" />
    <glyph glyph-name="Omacron" unicode="&#x14c;" horiz-adv-x="1523" 
d="M756 -25q-108 0 -209.5 25.5t-194.5 82t-162 138.5t-110 203.5t-41 267.5q0 157 45 286.5t117.5 214t169 143t196 83.5t201.5 25q111 0 211 -22.5t194 -76t162 -134t109 -205t41 -279.5q0 -158 -45 -288t-117.5 -214.5t-169 -142t-196 -82.5t-201.5 -25zM764 35
q84 0 132.5 53.5t74.5 195.5t26 394q0 282 -26.5 438t-75.5 212t-135 56q-59 0 -100.5 -29t-73 -100t-47 -198t-15.5 -316q0 -281 26 -436t76 -212.5t138 -57.5zM467 1546v142h590v-142h-590z" />
    <glyph glyph-name="omacron" unicode="&#x14d;" horiz-adv-x="1220" 
d="M610 -25q-92 0 -177 21.5t-159 66.5t-129 110t-86.5 158t-31.5 204q0 121 33.5 218.5t89 162t131.5 107.5t158 62t171 19q116 0 219 -34.5t185.5 -101.5t131 -176.5t48.5 -248.5q0 -120 -33 -217.5t-88 -162t-131 -107.5t-158.5 -62t-173.5 -19zM614 35q35 0 58 8.5
t44.5 36.5t33.5 81t19 143.5t7 221.5q0 137 -8.5 233t-22 151t-37 85.5t-47 39.5t-57.5 9q-39 0 -66 -18t-49.5 -67.5t-33.5 -147.5t-11 -248q0 -175 9 -281t32 -160t51.5 -70.5t77.5 -16.5zM315 1257v142h590v-142h-590z" />
    <glyph glyph-name="Obreve" unicode="&#x14e;" horiz-adv-x="1523" 
d="M756 -25q-108 0 -209.5 25.5t-194.5 82t-162 138.5t-110 203.5t-41 267.5q0 157 45 286.5t117.5 214t169 143t196 83.5t201.5 25q111 0 211 -22.5t194 -76t162 -134t109 -205t41 -279.5q0 -158 -45 -288t-117.5 -214.5t-169 -142t-196 -82.5t-201.5 -25zM764 35
q84 0 132.5 53.5t74.5 195.5t26 394q0 282 -26.5 438t-75.5 212t-135 56q-59 0 -100.5 -29t-73 -100t-47 -198t-15.5 -316q0 -281 26 -436t76 -212.5t138 -57.5zM756 1485q-243 0 -297 325l22 9q47 -68 107.5 -96.5t169.5 -28.5q103 0 164 28.5t112 96.5l23 -9
q-21 -153 -96.5 -239t-204.5 -86z" />
    <glyph glyph-name="obreve" unicode="&#x14f;" horiz-adv-x="1220" 
d="M610 -25q-92 0 -177 21.5t-159 66.5t-129 110t-86.5 158t-31.5 204q0 121 33.5 218.5t89 162t131.5 107.5t158 62t171 19q116 0 219 -34.5t185.5 -101.5t131 -176.5t48.5 -248.5q0 -120 -33 -217.5t-88 -162t-131 -107.5t-158.5 -62t-173.5 -19zM614 35q35 0 58 8.5
t44.5 36.5t33.5 81t19 143.5t7 221.5q0 137 -8.5 233t-22 151t-37 85.5t-47 39.5t-57.5 9q-39 0 -66 -18t-49.5 -67.5t-33.5 -147.5t-11 -248q0 -175 9 -281t32 -160t51.5 -70.5t77.5 -16.5zM608 1176q-111 0 -178 88.5t-94 236.5l22 8q36 -66 94.5 -92t157.5 -26
q93 0 153.5 26.5t98.5 91.5l23 -8q-21 -146 -91.5 -235.5t-185.5 -89.5z" />
    <glyph glyph-name="Ohungarumlaut" unicode="&#x150;" horiz-adv-x="1523" 
d="M756 -25q-108 0 -209.5 25.5t-194.5 82t-162 138.5t-110 203.5t-41 267.5q0 157 45 286.5t117.5 214t169 143t196 83.5t201.5 25q111 0 211 -22.5t194 -76t162 -134t109 -205t41 -279.5q0 -158 -45 -288t-117.5 -214.5t-169 -142t-196 -82.5t-201.5 -25zM764 35
q84 0 132.5 53.5t74.5 195.5t26 394q0 282 -26.5 438t-75.5 212t-135 56q-59 0 -100.5 -29t-73 -100t-47 -198t-15.5 -316q0 -281 26 -436t76 -212.5t138 -57.5zM563 1481l-20 16l96 250q40 104 115 104q49 0 91 -38.5t42 -90.5q0 -77 -109 -133zM918 1481l-21 16l96 250
q40 104 115 104q49 0 91 -38.5t42 -90.5q0 -78 -108 -133z" />
    <glyph glyph-name="ohungarumlaut" unicode="&#x151;" horiz-adv-x="1220" 
d="M610 -25q-92 0 -177 21.5t-159 66.5t-129 110t-86.5 158t-31.5 204q0 121 33.5 218.5t89 162t131.5 107.5t158 62t171 19q116 0 219 -34.5t185.5 -101.5t131 -176.5t48.5 -248.5q0 -120 -33 -217.5t-88 -162t-131 -107.5t-158.5 -62t-173.5 -19zM614 35q35 0 58 8.5
t44.5 36.5t33.5 81t19 143.5t7 221.5q0 137 -8.5 233t-22 151t-37 85.5t-47 39.5t-57.5 9q-39 0 -66 -18t-49.5 -67.5t-33.5 -147.5t-11 -248q0 -175 9 -281t32 -160t51.5 -70.5t77.5 -16.5zM346 1159l-20 17l108 270q42 100 119 100q49 0 91 -38.5t42 -90.5
q0 -84 -104 -137zM700 1159l-20 17l108 270q42 100 119 100q49 0 91 -38.5t42 -90.5q0 -84 -104 -137z" />
    <glyph glyph-name="OE" unicode="&#x152;" horiz-adv-x="2041" 
d="M2017 545l-28 -545h-1213q-127 0 -235 22.5t-202 74t-159.5 130.5t-103 197t-37.5 268q0 152 41 275.5t111 206.5t166.5 139t204.5 81t229 25h1157l18 -465h-39q-71 167 -137 273q-45 72 -94 97.5t-140 25.5q-101 0 -151 -13v-569h55q67 0 103 7t50 18.5t27 35.5
q42 81 68 189h37v-576h-37q-25 112 -68 197q-20 38 -53 50.5t-129 12.5h-53v-495q0 -46 4 -69t21 -40.5t47 -22.5t86 -5q78 0 121 13t68 38.5t63 85.5q84 139 161 338h41zM793 68q88 0 116.5 44t28.5 138v932q0 92 -34.5 132t-125.5 40q-56 0 -100.5 -32t-80 -101.5
t-54.5 -191t-19 -288.5q0 -377 56 -525t213 -148z" />
    <glyph glyph-name="oe" unicode="&#x153;" horiz-adv-x="1861" 
d="M610 -25q-92 0 -177 21.5t-159 66.5t-129 110t-86.5 158t-31.5 204q0 121 33.5 218.5t89 162t131.5 107.5t158 62t171 19q113 0 212 -39t169 -115q70 74 161 114t187 40q486 0 500 -500h-665q2 -131 24.5 -217.5t68.5 -133.5t105 -65t146 -18q138 0 278 72v-39
q-64 -89 -185.5 -158.5t-279.5 -69.5q-244 0 -368 136q-73 -67 -166 -101.5t-187 -34.5zM614 35q35 0 58 8.5t44.5 36.5t33.5 81t19 143.5t7 221.5q0 137 -8.5 233t-22 151t-37 85.5t-47 39.5t-57.5 9q-39 0 -66 -18t-49.5 -67.5t-33.5 -147.5t-11 -248q0 -175 9 -281
t32 -160t51.5 -70.5t77.5 -16.5zM1323 1047q-34 0 -59 -17t-46 -59t-32 -120t-12 -192l274 21q0 218 -25.5 292.5t-99.5 74.5z" />
    <glyph glyph-name="Racute" unicode="&#x154;" horiz-adv-x="1505" 
d="M10 0v35l56 14q27 7 39 11.5t25 14.5t17 27t6.5 43t2.5 70v989q0 44 -2.5 70t-6.5 43t-17 27t-25 14.5t-39 11.5l-56 14v35h756q315 0 459.5 -89.5t144.5 -282.5q0 -136 -60 -214.5t-194 -121.5v-6q59 -140 151.5 -318.5t164.5 -280.5q34 -49 81 -61l35 -10v-35h-581
q-149 222 -293 625q-24 0 -47 2v-412q0 -56 2 -82.5t11.5 -45.5t22.5 -24.5t42 -13.5l55 -14v-35h-750zM698 690q52 0 87.5 13.5t62.5 48.5t40 99t13 161q0 182 -36 259t-140 77q-53 0 -98 -9v-643q24 -6 71 -6zM518 1481l-8 20l250 258q59 62 125 62q62 0 103.5 -45
t41.5 -109q0 -55 -33.5 -90t-93.5 -43z" />
    <glyph glyph-name="racute" unicode="&#x155;" horiz-adv-x="993" 
d="M-2 0v35l37 10q61 17 73.5 34.5t12.5 88.5v674q0 66 -9.5 86.5t-56.5 54.5l-65 47v21l510 53l16 -12v-164h6q55 70 134 122t169 52q76 0 122 -44t46 -128q0 -87 -47.5 -137t-124.5 -50q-68 0 -103.5 27.5t-60.5 81.5q-11 24 -21 32.5t-28 8.5q-52 0 -84 -29v-696
q0 -53 6.5 -75t22 -31t57.5 -17l45 -8v-37h-657zM299 1180l-8 20l244 264q32 34 62 49t71 15q57 0 98 -46.5t41 -109.5q0 -49 -28.5 -86t-86.5 -45z" />
    <glyph glyph-name="Rcommaaccent" unicode="&#x156;" horiz-adv-x="1505" 
d="M10 0v35l56 14q27 7 39 11.5t25 14.5t17 27t6.5 43t2.5 70v989q0 44 -2.5 70t-6.5 43t-17 27t-25 14.5t-39 11.5l-56 14v35h756q315 0 459.5 -89.5t144.5 -282.5q0 -136 -60 -214.5t-194 -121.5v-6q59 -140 151.5 -318.5t164.5 -280.5q34 -49 81 -61l35 -10v-35h-581
q-149 222 -293 625q-24 0 -47 2v-412q0 -56 2 -82.5t11.5 -45.5t22.5 -24.5t42 -13.5l55 -14v-35h-750zM698 690q52 0 87.5 13.5t62.5 48.5t40 99t13 161q0 182 -36 259t-140 77q-53 0 -98 -9v-643q24 -6 71 -6zM524 -518l-4 22q211 53 230 195q-31 -31 -84 -31
q-56 0 -90.5 33.5t-34.5 87.5t46.5 93.5t119.5 39.5q77 0 130.5 -50t53.5 -124q0 -117 -96.5 -186t-270.5 -80z" />
    <glyph glyph-name="rcommaaccent" unicode="&#x157;" horiz-adv-x="993" 
d="M-2 0v35l37 10q61 17 73.5 34.5t12.5 88.5v674q0 66 -9.5 86.5t-56.5 54.5l-65 47v21l510 53l16 -12v-164h6q55 70 134 122t169 52q76 0 122 -44t46 -128q0 -87 -47.5 -137t-124.5 -50q-68 0 -103.5 27.5t-60.5 81.5q-11 24 -21 32.5t-28 8.5q-52 0 -84 -29v-696
q0 -53 6.5 -75t22 -31t57.5 -17l45 -8v-37h-657zM123 -518l-4 22q210 53 229 195q-31 -31 -84 -31q-56 0 -90.5 33.5t-34.5 87.5t46.5 93.5t119.5 39.5q77 0 130.5 -50t53.5 -124q0 -117 -96 -186t-270 -80z" />
    <glyph glyph-name="Rcaron" unicode="&#x158;" horiz-adv-x="1505" 
d="M10 0v35l56 14q27 7 39 11.5t25 14.5t17 27t6.5 43t2.5 70v989q0 44 -2.5 70t-6.5 43t-17 27t-25 14.5t-39 11.5l-56 14v35h756q315 0 459.5 -89.5t144.5 -282.5q0 -136 -60 -214.5t-194 -121.5v-6q59 -140 151.5 -318.5t164.5 -280.5q34 -49 81 -61l35 -10v-35h-581
q-149 222 -293 625q-24 0 -47 2v-412q0 -56 2 -82.5t11.5 -45.5t22.5 -24.5t42 -13.5l55 -14v-35h-750zM698 690q52 0 87.5 13.5t62.5 48.5t40 99t13 161q0 182 -36 259t-140 77q-53 0 -98 -9v-643q24 -6 71 -6zM367 1800l12 21l332 -90l331 90l13 -21l-281 -303h-127z" />
    <glyph glyph-name="rcaron" unicode="&#x159;" horiz-adv-x="993" 
d="M-2 0v35l37 10q61 17 73.5 34.5t12.5 88.5v674q0 66 -9.5 86.5t-56.5 54.5l-65 47v21l510 53l16 -12v-164h6q55 70 134 122t169 52q76 0 122 -44t46 -128q0 -87 -47.5 -137t-124.5 -50q-68 0 -103.5 27.5t-60.5 81.5q-11 24 -21 32.5t-28 8.5q-52 0 -84 -29v-696
q0 -53 6.5 -75t22 -31t57.5 -17l45 -8v-37h-657zM565 1188h-119l-251 330l10 18l301 -115l301 115l10 -18z" />
    <glyph glyph-name="Sacute" unicode="&#x15a;" horiz-adv-x="1079" 
d="M487 -25q-301 0 -432 64l-26 438h43q98 -201 180 -305q59 -73 117.5 -105t140.5 -32q97 0 150 55.5t53 151.5q0 100 -62 160.5t-225 115.5q-223 75 -310 178t-87 277q0 204 153 337.5t396 133.5q237 0 372 -64l21 -389h-43q-93 202 -174 289q-56 60 -101.5 82t-107.5 22
q-92 0 -145.5 -50t-53.5 -138q0 -84 58.5 -138.5t218.5 -111.5q244 -85 341 -185.5t97 -268.5q0 -81 -25 -157.5t-74 -141.5t-117 -114t-160.5 -76.5t-197.5 -27.5zM346 1481l-8 20l250 258q59 62 125 62q62 0 103.5 -45t41.5 -109q0 -55 -33.5 -90t-93.5 -43z" />
    <glyph glyph-name="sacute" unicode="&#x15b;" horiz-adv-x="907" 
d="M391 -25q-197 0 -338 41l-12 355h39q82 -149 162 -244q41 -49 81.5 -69.5t104.5 -20.5q68 0 110 37t42 102q0 63 -48.5 100t-209.5 99q-146 54 -217.5 136t-71.5 210q0 77 28.5 144.5t84 121.5t147.5 85.5t209 31.5q89 0 169.5 -12.5t121.5 -28.5l14 -301h-35
q-97 148 -139 190q-49 49 -85.5 69.5t-94.5 20.5q-64 0 -104 -32.5t-40 -89.5q0 -61 44 -97.5t175 -81.5q196 -70 274.5 -156t78.5 -216q0 -177 -127.5 -285.5t-362.5 -108.5zM225 1180l-8 20l244 264q32 34 62 49t71 15q57 0 98 -46.5t41 -109.5q0 -49 -28.5 -86t-86.5 -45
z" />
    <glyph glyph-name="Scircumflex" unicode="&#x15c;" horiz-adv-x="1079" 
d="M487 -25q-301 0 -432 64l-26 438h43q98 -201 180 -305q59 -73 117.5 -105t140.5 -32q97 0 150 55.5t53 151.5q0 100 -62 160.5t-225 115.5q-223 75 -310 178t-87 277q0 204 153 337.5t396 133.5q237 0 372 -64l21 -389h-43q-93 202 -174 289q-56 60 -101.5 82t-107.5 22
q-92 0 -145.5 -50t-53.5 -138q0 -84 58.5 -138.5t218.5 -111.5q244 -85 341 -185.5t97 -268.5q0 -81 -25 -157.5t-74 -141.5t-117 -114t-160.5 -76.5t-197.5 -27.5zM209 1481l-12 20l280 303h127l281 -303l-13 -20l-331 90z" />
    <glyph glyph-name="scircumflex" unicode="&#x15d;" horiz-adv-x="907" 
d="M391 -25q-197 0 -338 41l-12 355h39q82 -149 162 -244q41 -49 81.5 -69.5t104.5 -20.5q68 0 110 37t42 102q0 63 -48.5 100t-209.5 99q-146 54 -217.5 136t-71.5 210q0 77 28.5 144.5t84 121.5t147.5 85.5t209 31.5q89 0 169.5 -12.5t121.5 -28.5l14 -301h-35
q-97 148 -139 190q-49 49 -85.5 69.5t-94.5 20.5q-64 0 -104 -32.5t-40 -89.5q0 -61 44 -97.5t175 -81.5q196 -70 274.5 -156t78.5 -216q0 -177 -127.5 -285.5t-362.5 -108.5zM395 1520h119l252 -330l-10 -19l-301 115l-301 -115l-11 19z" />
    <glyph glyph-name="Scedilla" unicode="&#x15e;" horiz-adv-x="1079" 
d="M311 -414v31q81 18 125.5 50.5t44.5 68.5q0 46 -75 49l-9 10l88 180q-299 0 -430 64l-26 438h43q98 -201 180 -305q59 -73 117.5 -105t140.5 -32q97 0 150 55.5t53 151.5q0 100 -62 160.5t-225 115.5q-223 75 -310 178t-87 277q0 204 153 337.5t396 133.5q237 0 372 -64
l21 -389h-43q-93 202 -174 289q-56 60 -101.5 82t-107.5 22q-92 0 -145.5 -50t-53.5 -138q0 -84 58.5 -138.5t218.5 -111.5q244 -85 341 -185.5t97 -268.5q0 -128 -59 -239t-175.5 -185.5t-271.5 -87.5l-45 -62q88 -7 132 -42.5t44 -88.5q0 -44 -33.5 -80.5t-89.5 -60.5
t-119.5 -39t-132.5 -21z" />
    <glyph glyph-name="scedilla" unicode="&#x15f;" horiz-adv-x="907" 
d="M166 -414v31q81 18 125.5 50.5t44.5 68.5q0 46 -76 49l-8 10l88 180q-156 6 -287 41l-12 355h39q82 -149 162 -244q41 -49 81.5 -69.5t104.5 -20.5q68 0 110 37t42 102q0 63 -48.5 100t-209.5 99q-146 54 -217.5 136t-71.5 210q0 77 28.5 144.5t84 121.5t147.5 85.5
t209 31.5q89 0 169.5 -12.5t121.5 -28.5l14 -301h-35q-97 148 -139 190q-49 49 -85.5 69.5t-94.5 20.5q-64 0 -104 -32.5t-40 -89.5q0 -61 44 -97.5t175 -81.5q196 -70 274.5 -156t78.5 -216q0 -174 -123.5 -282t-349.5 -112l-43 -57q88 -7 132 -42.5t44 -88.5
q0 -44 -33.5 -80.5t-89.5 -60.5t-119.5 -39t-132.5 -21z" />
    <glyph glyph-name="Scaron" unicode="&#x160;" horiz-adv-x="1079" 
d="M203 1800l12 21l332 -90l332 90l12 -21l-281 -303h-127zM487 -25q-301 0 -432 64l-26 438h43q98 -201 180 -305q59 -73 117.5 -105t140.5 -32q97 0 150 55.5t53 151.5q0 100 -62 160.5t-225 115.5q-223 75 -310 178t-87 277q0 204 153 337.5t396 133.5q237 0 372 -64
l21 -389h-43q-93 202 -174 289q-56 60 -101.5 82t-107.5 22q-92 0 -145.5 -50t-53.5 -138q0 -84 58.5 -138.5t218.5 -111.5q244 -85 341 -185.5t97 -268.5q0 -81 -25 -157.5t-74 -141.5t-117 -114t-160.5 -76.5t-197.5 -27.5z" />
    <glyph glyph-name="scaron" unicode="&#x161;" horiz-adv-x="907" 
d="M520 1188h-119l-251 330l10 18l301 -115l301 115l10 -18zM391 -25q-197 0 -338 41l-12 355h39q82 -149 162 -244q41 -49 81.5 -69.5t104.5 -20.5q68 0 110 37t42 102q0 63 -48.5 100t-209.5 99q-146 54 -217.5 136t-71.5 210q0 77 28.5 144.5t84 121.5t147.5 85.5
t209 31.5q89 0 169.5 -12.5t121.5 -28.5l14 -301h-35q-97 148 -139 190q-49 49 -85.5 69.5t-94.5 20.5q-64 0 -104 -32.5t-40 -89.5q0 -61 44 -97.5t175 -81.5q196 -70 274.5 -156t78.5 -216q0 -177 -127.5 -285.5t-362.5 -108.5z" />
    <glyph glyph-name="Tcommaaccent" unicode="&#x162;" horiz-adv-x="1331" 
d="M942 1352h-43v-1137q0 -37 1 -59t6.5 -40.5t10 -27t20.5 -17t28 -12t41 -10.5l61 -14v-35h-803v35l62 14q34 8 48 13t29 14.5t19.5 27t7 42.5t2.5 69v1137h-43q-51 0 -83 -23t-68 -78q-60 -91 -181 -368h-41l17 536h1265l17 -536h-41q-103 254 -178 368
q-42 62 -69.5 81.5t-84.5 19.5zM461 -518l-4 22q210 53 229 195q-31 -31 -84 -31q-56 0 -90.5 33.5t-34.5 87.5t46.5 93.5t119.5 39.5q77 0 130.5 -50t53.5 -124q0 -117 -96 -186t-270 -80z" />
    <glyph glyph-name="tcommaaccent" unicode="&#x163;" horiz-adv-x="772" 
d="M424 -25q-171 0 -247.5 77t-76.5 249v666h-112v24q132 49 246.5 153.5t166.5 219.5h103v-287h250l-17 -110h-233v-668q0 -92 25.5 -122t107.5 -30q67 0 133 17v-35q-128 -154 -346 -154zM225 -518l-4 22q211 53 230 195q-31 -31 -84 -31q-56 0 -90.5 33.5t-34.5 87.5
t46.5 93.5t119.5 39.5q77 0 130.5 -50t53.5 -124q0 -117 -96.5 -186t-270.5 -80z" />
    <glyph glyph-name="Tcaron" unicode="&#x164;" horiz-adv-x="1347" 
d="M942 1352h-43v-1137q0 -37 1 -59t6.5 -40.5t10 -27t20.5 -17t28 -12t41 -10.5l61 -14v-35h-803v35l62 14q34 8 48 13t29 14.5t19.5 27t7 42.5t2.5 69v1137h-43q-51 0 -83 -23t-68 -78q-60 -91 -181 -368h-41l17 536h1265l17 -536h-41q-103 254 -178 368
q-42 62 -69.5 81.5t-84.5 19.5zM322 1800l12 21l332 -90l331 90l13 -21l-281 -303h-127z" />
    <glyph glyph-name="tcaron" unicode="&#x165;" horiz-adv-x="772" 
d="M424 -25q-171 0 -247.5 77t-76.5 249v666h-112v24q132 49 246.5 153.5t166.5 219.5h103v-287h250l-17 -110h-233v-668q0 -92 25.5 -122t107.5 -30q67 0 133 17v-35q-128 -154 -346 -154zM600 1155l-22 8l8 293q0 103 100 103q52 0 90 -30t41 -71q0 -48 -35 -88z" />
    <glyph glyph-name="Tbar" unicode="&#x166;" horiz-adv-x="1347" 
d="M152 723v76h280v553h-43q-51 0 -83 -23t-68 -78q-60 -91 -181 -368h-41l17 536h1265l17 -536h-41q-103 254 -178 368q-42 62 -69.5 81.5t-84.5 19.5h-43v-553h289v-76h-289v-508q0 -37 1 -59t6.5 -40.5t10 -27t20.5 -17t28 -12t41 -10.5l61 -14v-35h-803v35l62 14
q34 8 48 13t29 14.5t19.5 27t7 42.5t2.5 69v508h-280z" />
    <glyph glyph-name="tbar" unicode="&#x167;" horiz-adv-x="772" 
d="M-12 670v73h112v224h-112v24q132 49 246.5 153.5t166.5 219.5h103v-287h250l-17 -110h-233v-224h246v-73h-246v-371q0 -92 25.5 -122t107.5 -30q67 0 133 17v-35q-128 -154 -346 -154q-171 0 -247.5 77t-76.5 249v369h-112z" />
    <glyph glyph-name="Utilde" unicode="&#x168;" horiz-adv-x="1425" 
d="M782 -25q-149 0 -260 24t-196 78t-128.5 148t-43.5 228v751q0 55 -2.5 83t-15.5 45.5t-26.5 23t-48.5 14.5l-55 14v35h760v-35l-55 -14q-35 -9 -48.5 -14.5t-26.5 -23t-15.5 -45.5t-2.5 -83v-794q0 -161 72 -236.5t230 -75.5q149 0 212.5 86t63.5 248v717q0 56 -2 87.5
t-7 57t-18 38t-30 21t-47 15.5l-68 16v35h395v-35l-57 -14q-36 -9 -53 -26t-25 -58t-8 -123v-747q0 -97 -28.5 -175.5t-86 -139t-154 -93.5t-225.5 -33zM1024 1520q-41 0 -176.5 18t-181.5 18q-40 0 -66.5 -19.5t-56.5 -68.5l-29 17q51 154 98.5 225.5t120.5 71.5
q43 0 178 -19.5t181 -19.5q38 0 65 20.5t57 69.5l29 -16q-20 -64 -34.5 -103.5t-34.5 -80.5t-40.5 -63t-48 -36t-61.5 -14z" />
    <glyph glyph-name="utilde" unicode="&#x169;" horiz-adv-x="1306" 
d="M780 199v639q0 69 -9.5 91t-55.5 54l-66 47v21l518 53l17 -12v-854q0 -83 10.5 -105.5t60.5 -40.5l50 -18v-27l-500 -72l-17 13v151h-6q-102 -79 -192.5 -121.5t-204.5 -42.5q-123 0 -193.5 70.5t-70.5 204.5v588q0 69 -9.5 89.5t-56.5 55.5l-65 47v21l518 53l16 -12
v-746q0 -88 29 -124t88 -36q67 0 139 13zM342 1165l-29 17q51 154 98.5 225.5t120.5 71.5q42 0 157 -19.5t161 -19.5q39 0 66 20.5t57 69.5l28 -17q-20 -63 -34.5 -103t-34.5 -80.5t-40.5 -62.5t-48 -36t-61.5 -14q-41 0 -156 18t-161 18q-40 0 -66.5 -19.5t-56.5 -68.5z
" />
    <glyph glyph-name="Umacron" unicode="&#x16a;" horiz-adv-x="1425" 
d="M782 -25q-149 0 -260 24t-196 78t-128.5 148t-43.5 228v751q0 55 -2.5 83t-15.5 45.5t-26.5 23t-48.5 14.5l-55 14v35h760v-35l-55 -14q-35 -9 -48.5 -14.5t-26.5 -23t-15.5 -45.5t-2.5 -83v-794q0 -161 72 -236.5t230 -75.5q149 0 212.5 86t63.5 248v717q0 56 -2 87.5
t-7 57t-18 38t-30 21t-47 15.5l-68 16v35h395v-35l-57 -14q-36 -9 -53 -26t-25 -58t-8 -123v-747q0 -97 -28.5 -175.5t-86 -139t-154 -93.5t-225.5 -33zM532 1546v142h590v-142h-590z" />
    <glyph glyph-name="umacron" unicode="&#x16b;" horiz-adv-x="1306" 
d="M780 199v639q0 69 -9.5 91t-55.5 54l-66 47v21l518 53l17 -12v-854q0 -83 10.5 -105.5t60.5 -40.5l50 -18v-27l-500 -72l-17 13v151h-6q-102 -79 -192.5 -121.5t-204.5 -42.5q-123 0 -193.5 70.5t-70.5 204.5v588q0 69 -9.5 89.5t-56.5 55.5l-65 47v21l518 53l16 -12
v-746q0 -88 29 -124t88 -36q67 0 139 13zM358 1257v142h590v-142h-590z" />
    <glyph glyph-name="Ubreve" unicode="&#x16c;" horiz-adv-x="1425" 
d="M782 -25q-149 0 -260 24t-196 78t-128.5 148t-43.5 228v751q0 55 -2.5 83t-15.5 45.5t-26.5 23t-48.5 14.5l-55 14v35h760v-35l-55 -14q-35 -9 -48.5 -14.5t-26.5 -23t-15.5 -45.5t-2.5 -83v-794q0 -161 72 -236.5t230 -75.5q149 0 212.5 86t63.5 248v717q0 56 -2 87.5
t-7 57t-18 38t-30 21t-47 15.5l-68 16v35h395v-35l-57 -14q-36 -9 -53 -26t-25 -58t-8 -123v-747q0 -97 -28.5 -175.5t-86 -139t-154 -93.5t-225.5 -33zM842 1485q-243 0 -297 325l22 9q47 -68 107.5 -96.5t169.5 -28.5q103 0 164 28.5t112 96.5l23 -9q-21 -153 -96.5 -239
t-204.5 -86z" />
    <glyph glyph-name="ubreve" unicode="&#x16d;" horiz-adv-x="1306" 
d="M780 199v639q0 69 -9.5 91t-55.5 54l-66 47v21l518 53l17 -12v-854q0 -83 10.5 -105.5t60.5 -40.5l50 -18v-27l-500 -72l-17 13v151h-6q-102 -79 -192.5 -121.5t-204.5 -42.5q-123 0 -193.5 70.5t-70.5 204.5v588q0 69 -9.5 89.5t-56.5 55.5l-65 47v21l518 53l16 -12
v-746q0 -88 29 -124t88 -36q67 0 139 13zM659 1176q-111 0 -178 88.5t-94 236.5l23 8q36 -66 94.5 -92t157.5 -26q93 0 153 26.5t98 91.5l23 -8q-21 -146 -91.5 -235.5t-185.5 -89.5z" />
    <glyph glyph-name="Uring" unicode="&#x16e;" horiz-adv-x="1425" 
d="M782 -25q-149 0 -260 24t-196 78t-128.5 148t-43.5 228v751q0 55 -2.5 83t-15.5 45.5t-26.5 23t-48.5 14.5l-55 14v35h760v-35l-55 -14q-35 -9 -48.5 -14.5t-26.5 -23t-15.5 -45.5t-2.5 -83v-794q0 -161 72 -236.5t230 -75.5q149 0 212.5 86t63.5 248v717q0 56 -2 87.5
t-7 57t-18 38t-30 21t-47 15.5l-68 16v35h395v-35l-57 -14q-36 -9 -53 -26t-25 -58t-8 -123v-747q0 -97 -28.5 -175.5t-86 -139t-154 -93.5t-225.5 -33zM686 1659q0 80 58 133t137 53t136.5 -53t57.5 -133t-57.5 -133t-136.5 -53t-137 53t-58 133zM764 1659q0 -57 31.5 -93
t85.5 -36t85 36t31 93t-31 93t-85 36t-85.5 -36t-31.5 -93z" />
    <glyph glyph-name="uring" unicode="&#x16f;" horiz-adv-x="1306" 
d="M780 199v639q0 69 -9.5 91t-55.5 54l-66 47v21l518 53l17 -12v-854q0 -83 10.5 -105.5t60.5 -40.5l50 -18v-27l-500 -72l-17 13v151h-6q-102 -79 -192.5 -121.5t-204.5 -42.5q-123 0 -193.5 70.5t-70.5 204.5v588q0 69 -9.5 89.5t-56.5 55.5l-65 47v21l518 53l16 -12
v-746q0 -88 29 -124t88 -36q67 0 139 13zM463 1352q0 80 57.5 133t136.5 53t137 -53t58 -133t-58 -133.5t-137 -53.5q-78 0 -136 53.5t-58 133.5zM541 1352q0 -57 31 -93t85 -36t85.5 36t31.5 93t-31.5 93t-85.5 36t-85 -36t-31 -93z" />
    <glyph glyph-name="Uhungarumlaut" unicode="&#x170;" horiz-adv-x="1425" 
d="M782 -25q-149 0 -260 24t-196 78t-128.5 148t-43.5 228v751q0 55 -2.5 83t-15.5 45.5t-26.5 23t-48.5 14.5l-55 14v35h760v-35l-55 -14q-35 -9 -48.5 -14.5t-26.5 -23t-15.5 -45.5t-2.5 -83v-794q0 -161 72 -236.5t230 -75.5q149 0 212.5 86t63.5 248v717q0 56 -2 87.5
t-7 57t-18 38t-30 21t-47 15.5l-68 16v35h395v-35l-57 -14q-36 -9 -53 -26t-25 -58t-8 -123v-747q0 -97 -28.5 -175.5t-86 -139t-154 -93.5t-225.5 -33zM580 1481l-21 16l96 250q40 104 115 104q49 0 91 -38.5t42 -90.5q0 -78 -108 -133zM934 1481l-21 16l97 250
q40 104 114 104q49 0 91 -38.5t42 -90.5q0 -78 -108 -133z" />
    <glyph glyph-name="uhungarumlaut" unicode="&#x171;" horiz-adv-x="1306" 
d="M780 199v639q0 69 -9.5 91t-55.5 54l-66 47v21l518 53l17 -12v-854q0 -83 10.5 -105.5t60.5 -40.5l50 -18v-27l-500 -72l-17 13v151h-6q-102 -79 -192.5 -121.5t-204.5 -42.5q-123 0 -193.5 70.5t-70.5 204.5v588q0 69 -9.5 89.5t-56.5 55.5l-65 47v21l518 53l16 -12
v-746q0 -88 29 -124t88 -36q67 0 139 13zM403 1159l-20 17l109 270q42 100 118 100q49 0 91 -38.5t42 -90.5q0 -84 -104 -137zM758 1159l-21 17l109 270q42 100 119 100q49 0 91 -38.5t42 -90.5q0 -83 -105 -137z" />
    <glyph glyph-name="Uogonek" unicode="&#x172;" horiz-adv-x="1425" 
d="M782 -25q-149 0 -260 24t-196 78t-128.5 148t-43.5 228v751q0 55 -2.5 83t-15.5 45.5t-26.5 23t-48.5 14.5l-55 14v35h760v-35l-55 -14q-35 -9 -48.5 -14.5t-26.5 -23t-15.5 -45.5t-2.5 -83v-794q0 -161 72 -236.5t230 -75.5q149 0 212.5 86t63.5 248v717q0 56 -2 87.5
t-7 57t-18 38t-30 21t-47 15.5l-68 16v35h395v-35l-57 -14q-36 -9 -53 -26t-25 -58t-8 -123v-747q0 -138 -45.5 -226t-161.5 -178q-93 -71 -127.5 -122.5t-34.5 -118.5q0 -43 22 -65.5t60 -22.5q33 0 60 6v-31q-78 -78 -199 -78q-93 0 -149 44t-56 116q0 84 75 143t241 111
q-103 -19 -179 -19z" />
    <glyph glyph-name="uogonek" unicode="&#x173;" horiz-adv-x="1306" 
d="M793 -41v180h-7q-101 -78 -194 -121t-207 -43q-123 0 -193.5 70.5t-70.5 204.5v588q0 69 -9.5 89.5t-56.5 55.5l-65 47v21l518 53l16 -12v-746q0 -88 29 -124t88 -36q67 0 139 13v639q0 69 -9.5 91t-55.5 54l-66 47v21l518 53l17 -12v-854q0 -83 10.5 -105.5t60.5 -40.5
l50 -18v-27l-125 -18q-193 -28 -272 -86.5t-79 -159.5q0 -100 103 -100q20 0 47 6v-31q-74 -78 -186 -78q-105 0 -161.5 43t-56.5 117q0 72 53 123.5t165 95.5z" />
    <glyph glyph-name="Wcircumflex" unicode="&#x174;" horiz-adv-x="2127" 
d="M1671 461l205 663q31 102 31 156q0 41 -20 62.5t-60 29.5l-64 12v35h396v-35l-37 -10q-50 -13 -81.5 -63t-72.5 -172l-383 -1139h-225l-266 831h-4l-281 -831h-242l-426 1192q-38 107 -59 140t-64 42l-49 10v35h762v-35l-45 -12q-76 -19 -76 -82q0 -47 41 -168l230 -661
h6l166 491l-92 287q-20 61 -42.5 90.5t-66.5 42.5l-39 12v35h752v-35l-72 -16q-66 -14 -66 -90q0 -37 35 -156l203 -661h6zM840 1481l-13 20l281 303h127l281 -303l-13 -20l-332 90z" />
    <glyph glyph-name="wcircumflex" unicode="&#x175;" horiz-adv-x="1757" 
d="M1618 836l-313 -836h-181l-231 641h-4l-248 -641h-180l-336 858q-40 101 -63 132.5t-56 41.5l-35 10v35h647v-35l-24 -6q-62 -14 -62 -65q0 -38 35 -148l144 -444h6l137 364l-41 115q-37 106 -57 135.5t-56 40.5l-28 8v35h659v-35l-43 -12q-44 -12 -63 -31.5t-19 -56.5
q0 -42 25 -119l141 -444h8l146 444q26 83 26 127q0 61 -69 78l-56 14v35h359v-35l-27 -10q-48 -18 -75 -53t-66 -143zM840 1520h118l252 -330l-10 -19l-301 115l-301 -115l-10 19z" />
    <glyph glyph-name="Ycircumflex" unicode="&#x176;" horiz-adv-x="1343" 
d="M305 0v35l62 14q34 8 48 13t29 14.5t19.5 27t7 42.5t2.5 69v399l-330 586q-63 111 -81.5 136t-53.5 36l-37 12v35h820v-35l-64 -14q-94 -22 -94 -90q0 -55 35 -121l227 -442h6l178 420q35 81 35 137q0 71 -88 96l-51 14v35h385v-35l-39 -12q-33 -10 -58.5 -47.5
t-72.5 -140.5l-252 -557v-412q0 -44 2.5 -69t7 -42.5t19.5 -27t29 -14.5t48 -13l62 -14v-35h-801zM475 1481l-12 20l280 303h127l281 -303l-12 -20l-332 90z" />
    <glyph glyph-name="ycircumflex" unicode="&#x177;" horiz-adv-x="1136" 
d="M752 408l149 399q37 98 37 137q0 66 -72 84l-53 14v35h352v-35l-39 -14q-32 -12 -55 -50t-70 -151l-389 -915q-37 -88 -70 -144.5t-76.5 -102t-99 -65.5t-128.5 -20q-90 0 -154 46.5t-64 123.5q0 66 42 103.5t118 37.5q134 0 150 -137q3 -32 10 -42.5t27 -10.5
q36 0 83.5 55t94.5 172l8 21l-424 905q-47 101 -72 134.5t-55 43.5l-31 10v35h701v-35l-54 -16q-71 -23 -71 -86q0 -33 33 -119l163 -413h9zM557 1520h119l252 -330l-10 -19l-302 115l-301 -115l-10 19z" />
    <glyph glyph-name="Ydieresis" unicode="&#x178;" horiz-adv-x="1343" 
d="M305 0v35l62 14q34 8 48 13t29 14.5t19.5 27t7 42.5t2.5 69v399l-330 586q-63 111 -81.5 136t-53.5 36l-37 12v35h820v-35l-64 -14q-94 -22 -94 -90q0 -55 35 -121l227 -442h6l178 420q35 81 35 137q0 71 -88 96l-51 14v35h385v-35l-39 -12q-33 -10 -58.5 -47.5
t-72.5 -140.5l-252 -557v-412q0 -44 2.5 -69t7 -42.5t19.5 -27t29 -14.5t48 -13l62 -14v-35h-801zM582 1473q-77 0 -130 47t-53 129q0 80 53 127t130 47q79 0 131.5 -46.5t52.5 -127.5q0 -82 -52.5 -129t-131.5 -47zM1034 1473q-77 0 -129.5 47t-52.5 129q0 80 52.5 127
t129.5 47q79 0 132 -46.5t53 -127.5q0 -82 -52.5 -129t-132.5 -47z" />
    <glyph glyph-name="Zacute" unicode="&#x179;" horiz-adv-x="1304" 
d="M35 0v72l688 1276v6h-55q-112 0 -170 -8t-91.5 -28.5t-64.5 -64.5q-85 -121 -186 -356h-43l30 522h1100v-71l-696 -1274v-8h67q107 0 164.5 4t102 19.5t68.5 38t57 67.5t70.5 112t57.5 107.5t70 144.5h45l-41 -559h-1173zM508 1481l-8 20l250 258q59 62 124 62
q62 0 104 -45t42 -109q0 -55 -33.5 -90t-93.5 -43z" />
    <glyph glyph-name="zacute" unicode="&#x17a;" horiz-adv-x="1052" 
d="M25 0v84l555 913v9h-66q-107 0 -147 -11t-86 -57q-10 -10 -20.5 -22.5t-23 -31t-21.5 -31t-25 -39.5t-23.5 -40t-28 -48t-28.5 -48h-33l26 399h918v-80l-553 -917v-8h86q125 0 174 15t92 58q66 66 172 263h35l-41 -408h-962zM356 1180l-8 20l244 264q32 34 62 49t71 15
q57 0 98 -46.5t41 -109.5q0 -49 -28 -86t-86 -45z" />
    <glyph glyph-name="Zdotaccent" unicode="&#x17b;" horiz-adv-x="1304" 
d="M35 0v72l688 1276v6h-55q-112 0 -170 -8t-91.5 -28.5t-64.5 -64.5q-85 -121 -186 -356h-43l30 522h1100v-71l-696 -1274v-8h67q107 0 164.5 4t102 19.5t68.5 38t57 67.5t70.5 112t57.5 107.5t70 144.5h45l-41 -559h-1173zM709 1481q-86 0 -142.5 49.5t-56.5 132.5
q0 82 57 132t142 50q86 0 142 -50t56 -132q0 -83 -55.5 -132.5t-142.5 -49.5z" />
    <glyph glyph-name="zdotaccent" unicode="&#x17c;" horiz-adv-x="1052" 
d="M25 0v84l555 913v9h-66q-107 0 -147 -11t-86 -57q-10 -10 -20.5 -22.5t-23 -31t-21.5 -31t-25 -39.5t-23.5 -40t-28 -48t-28.5 -48h-33l26 399h918v-80l-553 -917v-8h86q125 0 174 15t92 58q66 66 172 263h35l-41 -408h-962zM365 1339q0 82 56.5 132.5t141.5 50.5
q86 0 142.5 -50.5t56.5 -132.5q0 -83 -56 -132.5t-143 -49.5q-85 0 -141.5 49.5t-56.5 132.5z" />
    <glyph glyph-name="Zcaron" unicode="&#x17d;" horiz-adv-x="1304" 
d="M381 1800l12 21l332 -90l332 90l12 -21l-281 -303h-126zM35 0v72l688 1276v6h-55q-112 0 -170 -8t-91.5 -28.5t-64.5 -64.5q-85 -121 -186 -356h-43l30 522h1100v-71l-696 -1274v-8h67q107 0 164.5 4t102 19.5t68.5 38t57 67.5t70.5 112t57.5 107.5t70 144.5h45l-41 -559
h-1173z" />
    <glyph glyph-name="zcaron" unicode="&#x17e;" horiz-adv-x="1052" 
d="M631 1188h-119l-252 330l10 18l301 -115l301 115l11 -18zM25 0v84l555 913v9h-66q-107 0 -147 -11t-86 -57q-10 -10 -20.5 -22.5t-23 -31t-21.5 -31t-25 -39.5t-23.5 -40t-28 -48t-28.5 -48h-33l26 399h918v-80l-553 -917v-8h86q125 0 174 15t92 58q66 66 172 263h35
l-41 -408h-962z" />
    <glyph glyph-name="florin" unicode="&#x192;" horiz-adv-x="1105" 
d="M113 768v66h159l9 77q30 270 173 402.5t388 132.5q144 0 227.5 -58t83.5 -153q0 -57 -41.5 -89t-103.5 -32q-81 0 -118 39.5t-44 149.5q-3 50 -12 65.5t-33 15.5q-28 0 -44 -17t-28 -65.5t-22 -142.5l-37 -325h254v-66h-262l-70 -621q-31 -274 -169 -407t-362 -133
q-142 0 -210 52t-68 128q0 127 139 127q73 0 104 -35.5t40 -146.5q3 -31 8.5 -46t11 -17.5t16.5 -2.5q24 0 38 40.5t24 141.5l100 920h-151z" />
    <glyph glyph-name="Aringacute" unicode="&#x1fa;" horiz-adv-x="1433" 
d="M-12 0v35l26 8q37 11 56.5 28t43 64t62.5 154l412 1130h243l420 -1128q55 -148 79 -190.5t67 -55.5l35 -10v-35h-805v35l57 14q42 10 60 32t18 60q0 68 -43 191l-37 119h-363l-40 -121q-41 -121 -41 -183q0 -37 22 -58.5t82 -39.5l49 -14v-35h-403zM516 1659q0 80 58 133
t137 53t136.5 -53t57.5 -133t-57.5 -133t-136.5 -53t-137 53t-58 133zM467 1862l-8 20l250 258q59 62 125 62q62 0 103.5 -45t41.5 -109q0 -55 -33.5 -90t-93.5 -43zM506 1004l-164 -484h317l-147 484h-6zM594 1659q0 -57 31.5 -93t85.5 -36t85 36t31 93t-31 93t-85 36
t-85.5 -36t-31.5 -93z" />
    <glyph glyph-name="aringacute" unicode="&#x1fb;" horiz-adv-x="1118" 
d="M315 -25q-137 0 -217 68.5t-80 187.5q0 57 19.5 102t47 73.5t77 53.5t89 38t103.5 30l234 64v196q0 144 -21.5 199t-83.5 55q-42 0 -60.5 -16t-21.5 -68q-7 -130 -44.5 -175.5t-131.5 -45.5q-166 0 -166 133q0 109 123.5 171.5t376.5 62.5q208 0 320 -68.5t112 -224.5
v-561q0 -70 8.5 -97t36.5 -42q40 -21 92 -21v-31q-109 -84 -276 -84q-194 0 -242 134h-8q-51 -61 -117 -97.5t-170 -36.5zM512 129q55 0 76 37v342l-47 -4q-71 -5 -100 -45.5t-29 -145.5q0 -184 100 -184zM340 1352q0 80 58 133t137 53t136.5 -53t57.5 -133t-58 -133.5
t-136 -53.5q-79 0 -137 53.5t-58 133.5zM418 1352q0 -57 31.5 -93t85.5 -36t85 36t31 93t-31 93t-85 36t-85.5 -36t-31.5 -93zM285 1563l-9 20l250 258q59 62 125 62q62 0 104 -45t42 -109q0 -55 -33.5 -90t-93.5 -43z" />
    <glyph glyph-name="AEacute" unicode="&#x1fc;" horiz-adv-x="1888" 
d="M1866 545l-29 -545h-1180v35l56 14q27 7 39 11.5t25 14.5t17 27t6.5 43t2.5 70v231h-393l-76 -149q-62 -124 -62 -176q0 -25 21 -39t76 -33l45 -14v-35h-428v35l49 14q58 17 91.5 56t100.5 163l555 1037q-26 41 -110 65l-56 14v35h1180l19 -465h-39q-69 162 -138 273
q-45 73 -94 98t-139 25q-93 0 -143 -13v-569h47q67 0 103 7t50 18.5t27 35.5q41 77 67 189h37v-576h-37q-26 116 -67 197q-20 38 -53 50.5t-129 12.5h-45v-495q0 -46 4 -69t19.5 -40.5t44 -22.5t81.5 -5q78 0 121 13t68 38.5t63 85.5q87 144 162 338h41zM799 1208l-355 -692
h359v692h-4zM1085 1481l-8 20l250 258q59 62 125 62q62 0 103.5 -45t41.5 -109q0 -55 -33.5 -90t-93.5 -43z" />
    <glyph glyph-name="aeacute" unicode="&#x1fd;" horiz-adv-x="1669" 
d="M700 147q-73 -89 -164 -130.5t-221 -41.5q-137 0 -217 70.5t-80 192.5q0 58 19.5 104.5t47.5 76t76.5 55t89.5 39t103 30.5l234 63v182q0 144 -21.5 199t-83.5 55q-42 0 -60.5 -16t-21.5 -68q-7 -130 -44.5 -175.5t-131.5 -45.5q-166 0 -166 133q0 108 117 171t342 63
q233 0 320 -123q129 123 313 123q486 0 500 -500h-666q2 -131 24.5 -217.5t68.5 -133.5t105 -65t146 -18q139 0 279 72v-39q-64 -89 -185.5 -158.5t-279.5 -69.5q-298 0 -438 172h-5zM659 1180l-8 20l244 264q32 34 62 49t71 15q57 0 98 -46.5t41 -109.5q0 -49 -28 -86
t-86 -45zM1135 1047q-34 0 -59 -17t-46.5 -59t-32.5 -120t-12 -192l275 21q0 218 -25.5 292.5t-99.5 74.5zM530 129q82 0 144 59q-83 133 -86 334l-37 -2q-76 -5 -107.5 -49t-31.5 -152q0 -104 30 -147t88 -43z" />
    <glyph glyph-name="Oslashacute" unicode="&#x1fe;" horiz-adv-x="1523" 
d="M756 -25q-231 0 -414 113l-141 -192h-80l168 229q-250 196 -250 567q0 157 45 286.5t117.5 214t169 143t196 83.5t201.5 25q239 0 414 -105l112 156h80l-139 -190q250 -189 250 -578q0 -158 -45 -288t-117.5 -214.5t-169 -142t-196 -82.5t-201.5 -25zM764 35q63 0 106 29
t75.5 100.5t47.5 198t15 315.5q0 166 -13 303l-460 -631q24 -176 78.5 -245.5t150.5 -69.5zM514 741q0 -195 10 -297l461 629q-25 175 -79 243t-146 68q-59 0 -102 -29t-76.5 -99.5t-50.5 -198.5t-17 -316zM526 1481l-8 20l250 258q59 62 125 62q62 0 103.5 -45t41.5 -109
q0 -55 -33.5 -90t-93.5 -43z" />
    <glyph glyph-name="oslashacute" unicode="&#x1ff;" horiz-adv-x="1220" 
d="M610 -25q-187 0 -327 82l-103 -141h-78l127 176q-202 148 -202 443q0 121 33.5 218.5t89 162t131.5 107.5t158 62t171 19q167 0 301 -70l93 129h77l-114 -159q106 -71 166.5 -187.5t60.5 -273.5q0 -120 -33 -217.5t-88 -162t-131 -107.5t-158.5 -62t-173.5 -19zM614 35
q30 0 50 5.5t41.5 22.5t35.5 51t25.5 87t16.5 134.5t5 190.5q0 141 -8 222l-338 -469q7 -78 21 -127.5t37 -74.5t48.5 -33.5t65.5 -8.5zM432 563q0 -80 4 -186l334 463q-11 65 -27 107t-38.5 62.5t-45 27.5t-55.5 7q-40 0 -68 -18t-53.5 -67t-38 -148t-12.5 -248zM371 1180
l-9 20l244 264q32 34 62 49t71 15q57 0 98.5 -46.5t41.5 -109.5q0 -49 -28.5 -86t-86.5 -45z" />
    <glyph glyph-name="Scommaaccent" unicode="&#x218;" horiz-adv-x="1079" 
d="M487 -25q-301 0 -432 64l-26 438h43q98 -201 180 -305q59 -73 117.5 -105t140.5 -32q97 0 150 55.5t53 151.5q0 100 -62 160.5t-225 115.5q-223 75 -310 178t-87 277q0 204 153 337.5t396 133.5q237 0 372 -64l21 -389h-43q-93 202 -174 289q-56 60 -101.5 82t-107.5 22
q-92 0 -145.5 -50t-53.5 -138q0 -84 58.5 -138.5t218.5 -111.5q244 -85 341 -185.5t97 -268.5q0 -81 -25 -157.5t-74 -141.5t-117 -114t-160.5 -76.5t-197.5 -27.5zM307 -518l-4 22q210 53 229 195q-31 -31 -83 -31q-56 0 -90.5 33.5t-34.5 87.5t46 93.5t119 39.5
q77 0 131 -50t54 -124q0 -117 -96.5 -186t-270.5 -80z" />
    <glyph glyph-name="scommaaccent" unicode="&#x219;" horiz-adv-x="907" 
d="M391 -25q-197 0 -338 41l-12 355h39q82 -149 162 -244q41 -49 81.5 -69.5t104.5 -20.5q68 0 110 37t42 102q0 63 -48.5 100t-209.5 99q-146 54 -217.5 136t-71.5 210q0 77 28.5 144.5t84 121.5t147.5 85.5t209 31.5q89 0 169.5 -12.5t121.5 -28.5l14 -301h-35
q-97 148 -139 190q-49 49 -85.5 69.5t-94.5 20.5q-64 0 -104 -32.5t-40 -89.5q0 -61 44 -97.5t175 -81.5q196 -70 274.5 -156t78.5 -216q0 -177 -127.5 -285.5t-362.5 -108.5zM248 -518l-4 22q210 53 229 195q-31 -31 -84 -31q-56 0 -90.5 33.5t-34.5 87.5t46.5 93.5
t119.5 39.5q77 0 130.5 -50t53.5 -124q0 -117 -96 -186t-270 -80z" />
    <glyph glyph-name="uni021A" unicode="&#x21a;" horiz-adv-x="1331" 
d="M942 1352h-43v-1137q0 -37 1 -59t6.5 -40.5t10 -27t20.5 -17t28 -12t41 -10.5l61 -14v-35h-803v35l62 14q34 8 48 13t29 14.5t19.5 27t7 42.5t2.5 69v1137h-43q-51 0 -83 -23t-68 -78q-60 -91 -181 -368h-41l17 536h1265l17 -536h-41q-103 254 -178 368
q-42 62 -69.5 81.5t-84.5 19.5zM461 -518l-4 22q210 53 229 195q-31 -31 -84 -31q-56 0 -90.5 33.5t-34.5 87.5t46.5 93.5t119.5 39.5q77 0 130.5 -50t53.5 -124q0 -117 -96 -186t-270 -80z" />
    <glyph glyph-name="uni021B" unicode="&#x21b;" horiz-adv-x="772" 
d="M424 -25q-171 0 -247.5 77t-76.5 249v666h-112v24q132 49 246.5 153.5t166.5 219.5h103v-287h250l-17 -110h-233v-668q0 -92 25.5 -122t107.5 -30q67 0 133 17v-35q-128 -154 -346 -154zM225 -518l-4 22q211 53 230 195q-31 -31 -84 -31q-56 0 -90.5 33.5t-34.5 87.5
t46.5 93.5t119.5 39.5q77 0 130.5 -50t53.5 -124q0 -117 -96.5 -186t-270.5 -80z" />
    <glyph glyph-name="uni0237" unicode="&#x237;" horiz-adv-x="616" 
d="M524 829v-782q0 -204 -138 -334.5t-349 -130.5q-162 0 -252 60t-90 163q0 72 44 111t122 39q59 0 93 -19.5t55 -75t28 -157.5q3 -36 8.5 -46.5t20.5 -10.5q28 0 41.5 29.5t13.5 109.5v1057q0 47 -5 68.5t-17.5 35.5t-47.5 39l-65 47v19l530 53l16 -12q-8 -133 -8 -263z
" />
    <glyph glyph-name="circumflex" unicode="&#x2c6;" 
d="M440 1520h119l252 -330l-10 -19l-301 115l-301 -115l-11 19z" />
    <glyph glyph-name="caron" unicode="&#x2c7;" 
d="M559 1188h-119l-252 330l11 18l301 -115l301 115l10 -18z" />
    <glyph glyph-name="breve" unicode="&#x2d8;" 
d="M498 1176q-111 0 -178.5 88.5t-94.5 236.5l23 8q36 -66 94.5 -92t157.5 -26q93 0 153.5 26.5t98.5 91.5l22 -8q-21 -146 -91 -235.5t-185 -89.5z" />
    <glyph glyph-name="dotaccent" unicode="&#x2d9;" horiz-adv-x="626" 
d="M115 1339q0 82 56.5 132.5t141.5 50.5q86 0 142.5 -50.5t56.5 -132.5q0 -83 -56 -132.5t-143 -49.5q-85 0 -141.5 49.5t-56.5 132.5z" />
    <glyph glyph-name="ring" unicode="&#x2da;" 
d="M305 1352q0 80 58 133t137 53t136.5 -53t57.5 -133t-58 -133.5t-136 -53.5q-79 0 -137 53.5t-58 133.5zM383 1352q0 -57 31.5 -93t85.5 -36t85 36t31 93t-31 93t-85 36t-85.5 -36t-31.5 -93z" />
    <glyph glyph-name="ogonek" unicode="&#x2db;" horiz-adv-x="686" 
d="M403 0h41q-35 -42 -59.5 -103t-24.5 -126q0 -43 22 -65.5t60 -22.5q33 0 60 6v-31q-74 -78 -187 -78q-105 0 -161 43t-56 117q0 161 305 260z" />
    <glyph glyph-name="tilde" unicode="&#x2dc;" 
d="M184 1165l-28 17q51 154 98.5 225.5t120.5 71.5q43 0 157 -19.5t160 -19.5q39 0 66 20.5t57 69.5l29 -17q-20 -63 -34.5 -103t-34.5 -80.5t-40.5 -62.5t-48 -36t-61.5 -14q-41 0 -156.5 18t-161.5 18q-40 0 -66.5 -19.5t-56.5 -68.5z" />
    <glyph glyph-name="hungarumlaut" unicode="&#x2dd;" 
d="M229 1159l-20 17l108 270q42 100 119 100q49 0 91 -38.5t42 -90.5q0 -84 -104 -137zM584 1159l-21 17l109 270q42 100 119 100q49 0 91 -38.5t42 -90.5q0 -83 -105 -137z" />
    <glyph glyph-name="Wgrave" unicode="&#x1e80;" horiz-adv-x="2127" 
d="M1671 461l205 663q31 102 31 156q0 41 -20 62.5t-60 29.5l-64 12v35h396v-35l-37 -10q-50 -13 -81.5 -63t-72.5 -172l-383 -1139h-225l-266 831h-4l-281 -831h-242l-426 1192q-38 107 -59 140t-64 42l-49 10v35h762v-35l-45 -12q-76 -19 -76 -82q0 -47 41 -168l230 -661
h6l166 491l-92 287q-20 61 -42.5 90.5t-66.5 42.5l-39 12v35h752v-35l-72 -16q-66 -14 -66 -90q0 -37 35 -156l203 -661h6zM1378 1501l-8 -20l-385 53q-60 8 -93.5 43t-33.5 90q0 64 42 109t104 45q65 0 124 -62z" />
    <glyph glyph-name="wgrave" unicode="&#x1e81;" horiz-adv-x="1757" 
d="M1618 836l-313 -836h-181l-231 641h-4l-248 -641h-180l-336 858q-40 101 -63 132.5t-56 41.5l-35 10v35h647v-35l-24 -6q-62 -14 -62 -65q0 -38 35 -148l144 -444h6l137 364l-41 115q-37 106 -57 135.5t-56 40.5l-28 8v35h659v-35l-43 -12q-44 -12 -63 -31.5t-19 -56.5
q0 -42 25 -119l141 -444h8l146 444q26 83 26 127q0 61 -69 78l-56 14v35h359v-35l-27 -10q-48 -18 -75 -53t-66 -143zM1149 1200l-8 -20l-393 61q-58 8 -86.5 45t-28.5 86q0 63 41 109.5t98 46.5q41 0 71 -15t62 -49z" />
    <glyph glyph-name="Wacute" unicode="&#x1e82;" horiz-adv-x="2127" 
d="M1671 461l205 663q31 102 31 156q0 41 -20 62.5t-60 29.5l-64 12v35h396v-35l-37 -10q-50 -13 -81.5 -63t-72.5 -172l-383 -1139h-225l-266 831h-4l-281 -831h-242l-426 1192q-38 107 -59 140t-64 42l-49 10v35h762v-35l-45 -12q-76 -19 -76 -82q0 -47 41 -168l230 -661
h6l166 491l-92 287q-20 61 -42.5 90.5t-66.5 42.5l-39 12v35h752v-35l-72 -16q-66 -14 -66 -90q0 -37 35 -156l203 -661h6zM965 1481l-9 20l250 258q59 62 125 62q62 0 104 -45t42 -109q0 -55 -33.5 -90t-93.5 -43z" />
    <glyph glyph-name="wacute" unicode="&#x1e83;" horiz-adv-x="1757" 
d="M1618 836l-313 -836h-181l-231 641h-4l-248 -641h-180l-336 858q-40 101 -63 132.5t-56 41.5l-35 10v35h647v-35l-24 -6q-62 -14 -62 -65q0 -38 35 -148l144 -444h6l137 364l-41 115q-37 106 -57 135.5t-56 40.5l-28 8v35h659v-35l-43 -12q-44 -12 -63 -31.5t-19 -56.5
q0 -42 25 -119l141 -444h8l146 444q26 83 26 127q0 61 -69 78l-56 14v35h359v-35l-27 -10q-48 -18 -75 -53t-66 -143zM754 1180l-9 20l244 264q32 34 62 49t71 15q57 0 98.5 -46.5t41.5 -109.5q0 -49 -28.5 -86t-86.5 -45z" />
    <glyph glyph-name="Wdieresis" unicode="&#x1e84;" horiz-adv-x="2127" 
d="M1671 461l205 663q31 102 31 156q0 41 -20 62.5t-60 29.5l-64 12v35h396v-35l-37 -10q-50 -13 -81.5 -63t-72.5 -172l-383 -1139h-225l-266 831h-4l-281 -831h-242l-426 1192q-38 107 -59 140t-64 42l-49 10v35h762v-35l-45 -12q-76 -19 -76 -82q0 -47 41 -168l230 -661
h6l166 491l-92 287q-20 61 -42.5 90.5t-66.5 42.5l-39 12v35h752v-35l-72 -16q-66 -14 -66 -90q0 -37 35 -156l203 -661h6zM940 1473q-77 0 -129.5 47t-52.5 129q0 80 52.5 127t129.5 47q79 0 131.5 -46.5t52.5 -127.5q0 -82 -52.5 -129t-131.5 -47zM1393 1473
q-77 0 -130 47t-53 129q0 80 53 127t130 47q79 0 131.5 -46.5t52.5 -127.5q0 -82 -52.5 -129t-131.5 -47z" />
    <glyph glyph-name="wdieresis" unicode="&#x1e85;" horiz-adv-x="1757" 
d="M1618 836l-313 -836h-181l-231 641h-4l-248 -641h-180l-336 858q-40 101 -63 132.5t-56 41.5l-35 10v35h647v-35l-24 -6q-62 -14 -62 -65q0 -38 35 -148l144 -444h6l137 364l-41 115q-37 106 -57 135.5t-56 40.5l-28 8v35h659v-35l-43 -12q-44 -12 -63 -31.5t-19 -56.5
q0 -42 25 -119l141 -444h8l146 444q26 83 26 127q0 61 -69 78l-56 14v35h359v-35l-27 -10q-48 -18 -75 -53t-66 -143zM510 1343q0 80 52.5 127.5t129.5 47.5q79 0 132 -47t53 -128q0 -82 -52.5 -129t-132.5 -47q-77 0 -129.5 47t-52.5 129zM946 1343q0 80 52.5 127.5
t129.5 47.5q79 0 132 -47t53 -128q0 -82 -52.5 -129t-132.5 -47q-77 0 -129.5 47t-52.5 129z" />
    <glyph glyph-name="Ygrave" unicode="&#x1ef2;" horiz-adv-x="1343" 
d="M305 0v35l62 14q34 8 48 13t29 14.5t19.5 27t7 42.5t2.5 69v399l-330 586q-63 111 -81.5 136t-53.5 36l-37 12v35h820v-35l-64 -14q-94 -22 -94 -90q0 -55 35 -121l227 -442h6l178 420q35 81 35 137q0 71 -88 96l-51 14v35h385v-35l-39 -12q-33 -10 -58.5 -47.5
t-72.5 -140.5l-252 -557v-412q0 -44 2.5 -69t7 -42.5t19.5 -27t29 -14.5t48 -13l62 -14v-35h-801zM1020 1501l-8 -20l-385 53q-60 8 -93.5 43t-33.5 90q0 64 41.5 109t103.5 45q66 0 125 -62z" />
    <glyph glyph-name="ygrave" unicode="&#x1ef3;" horiz-adv-x="1136" 
d="M752 408l149 399q37 98 37 137q0 66 -72 84l-53 14v35h352v-35l-39 -14q-32 -12 -55 -50t-70 -151l-389 -915q-37 -88 -70 -144.5t-76.5 -102t-99 -65.5t-128.5 -20q-90 0 -154 46.5t-64 123.5q0 66 42 103.5t118 37.5q134 0 150 -137q3 -32 10 -42.5t27 -10.5
q36 0 83.5 55t94.5 172l8 21l-424 905q-47 101 -72 134.5t-55 43.5l-31 10v35h701v-35l-54 -16q-71 -23 -71 -86q0 -33 33 -119l163 -413h9zM819 1200l-8 -20l-393 61q-58 8 -86.5 45t-28.5 86q0 63 41 109.5t98 46.5q41 0 71 -15t62 -49z" />
    <glyph glyph-name="uni2009" unicode="&#x2009;" horiz-adv-x="139" 
 />
    <glyph glyph-name="endash" unicode="&#x2013;" horiz-adv-x="780" 
d="M63 561v76h654v-76h-654z" />
    <glyph glyph-name="emdash" unicode="&#x2014;" horiz-adv-x="1280" 
d="M63 561v76h1154v-76h-1154z" />
    <glyph glyph-name="quoteleft" unicode="&#x2018;" horiz-adv-x="432" 
d="M397 1434l6 -27q-234 -79 -223 -264q28 45 84 45q58 0 95.5 -37t37.5 -104q0 -72 -50.5 -115t-123.5 -43q-81 0 -139.5 56.5t-58.5 156.5q0 271 372 332z" />
    <glyph glyph-name="quoteright" unicode="&#x2019;" horiz-adv-x="432" 
d="M35 899l-6 27q234 79 223 264q-28 -45 -84 -45q-58 0 -95.5 37t-37.5 104q0 72 50.5 115t123.5 43q81 0 140 -56.5t59 -156.5q0 -271 -373 -332z" />
    <glyph glyph-name="quotesinglbase" unicode="&#x201a;" horiz-adv-x="432" 
d="M35 -223l-6 26q234 79 223 265q-28 -45 -84 -45q-58 0 -95.5 37t-37.5 104q0 72 50.5 115t123.5 43q81 0 140 -56.5t59 -156.5q0 -271 -373 -332z" />
    <glyph glyph-name="quotedblleft" unicode="&#x201c;" horiz-adv-x="864" 
d="M829 1434l7 -27q-130 -44 -179.5 -111t-44.5 -153q28 45 84 45q58 0 95.5 -37t37.5 -104q0 -72 -50.5 -115t-123.5 -43q-81 0 -139.5 56.5t-58.5 156.5q0 271 372 332zM397 1434l6 -27q-234 -79 -223 -264q28 45 84 45q58 0 95.5 -37t37.5 -104q0 -72 -50.5 -115
t-123.5 -43q-81 0 -139.5 56.5t-58.5 156.5q0 271 372 332z" />
    <glyph glyph-name="quotedblright" unicode="&#x201d;" horiz-adv-x="864" 
d="M35 899l-6 27q234 79 223 264q-28 -45 -84 -45q-58 0 -95.5 37t-37.5 104q0 72 50.5 115t123.5 43q81 0 140 -56.5t59 -156.5q0 -271 -373 -332zM467 899l-6 27q234 79 223 264q-28 -45 -84 -45q-58 0 -95.5 37t-37.5 104q0 72 50.5 115t123.5 43q81 0 140 -56.5
t59 -156.5q0 -271 -373 -332z" />
    <glyph glyph-name="quotedblbase" unicode="&#x201e;" horiz-adv-x="864" 
d="M35 -223l-6 26q234 79 223 265q-28 -45 -84 -45q-58 0 -95.5 37t-37.5 104q0 72 50.5 115t123.5 43q81 0 140 -56.5t59 -156.5q0 -271 -373 -332zM467 -223l-6 26q234 79 223 265q-28 -45 -84 -45q-58 0 -95.5 37t-37.5 104q0 72 50.5 115t123.5 43q81 0 140 -56.5
t59 -156.5q0 -271 -373 -332z" />
    <glyph glyph-name="dagger" unicode="&#x2020;" horiz-adv-x="858" 
d="M408 985q-32 -8 -115 -65.5t-131 -57.5q-62 0 -99.5 42t-37.5 100t37.5 99.5t99.5 41.5q37 0 81 -26.5t89 -58t76 -38.5q-6 39 -40 90t-65 99.5t-31 86.5q0 58 43.5 99t112.5 41t112.5 -41t43.5 -99q0 -30 -19 -67.5t-42 -68t-45 -69.5t-27 -71q31 7 113.5 65t131.5 58
q61 0 99.5 -41.5t38.5 -99.5t-38.5 -100t-99.5 -42q-38 0 -82 26t-88.5 57.5t-74.5 39.5q4 -58 44.5 -123.5t96.5 -111.5l-148 -887h-30l-148 887q57 47 98 112t44 123z" />
    <glyph glyph-name="daggerdbl" unicode="&#x2021;" horiz-adv-x="845" 
d="M578 887l-144 -213h-22l-146 213q56 26 91.5 70t43.5 94q-31 -7 -74 -37.5t-85.5 -56t-79.5 -25.5q-62 0 -99.5 40t-37.5 97q0 59 37 99t100 40q37 0 79.5 -26t85.5 -57t74 -38q-5 37 -39 89t-65 101t-31 83q0 53 43 88t113 35t113 -35t43 -88q0 -34 -30.5 -83
t-64.5 -101t-39 -89q30 8 73 39t86 56.5t81 25.5q61 0 99 -40t38 -99q0 -56 -38 -96.5t-99 -40.5q-48 0 -128 56t-112 63q8 -50 43.5 -94t90.5 -70zM434 653l144 -213q-55 -26 -90.5 -70t-43.5 -94q32 7 112 63t128 56q61 0 99 -40.5t38 -96.5q0 -59 -38 -99t-99 -40
q-38 0 -81 25.5t-86 56.5t-73 39q5 -37 39 -89t64.5 -101t30.5 -83q0 -53 -43 -88t-113 -35t-113 35t-43 88q0 34 31 83t65 101t39 89q-31 -7 -74 -38t-85.5 -57t-79.5 -26q-63 0 -100 40t-37 99q0 57 37.5 97t99.5 40q37 0 79.5 -25.5t85.5 -56t74 -37.5q-8 50 -43.5 94
t-91.5 70l146 213h22z" />
    <glyph glyph-name="bullet" unicode="&#x2022;" horiz-adv-x="598" 
d="M33 684q0 114 78 190t188 76q108 0 187 -76.5t79 -189.5q0 -104 -80 -184t-186 -80q-108 0 -187 79.5t-79 184.5z" />
    <glyph glyph-name="ellipsis" unicode="&#x2026;" horiz-adv-x="1449" 
d="M41 178q0 85 57 140t140 55q79 0 137.5 -55.5t58.5 -139.5q0 -80 -59 -137t-137 -57q-82 0 -139.5 56.5t-57.5 137.5zM528 178q0 85 57 140t140 55q79 0 138 -55.5t59 -139.5q0 -80 -59.5 -137t-137.5 -57q-82 0 -139.5 56.5t-57.5 137.5zM1016 178q0 85 56.5 140
t139.5 55q79 0 138 -55.5t59 -139.5q0 -80 -59.5 -137t-137.5 -57q-82 0 -139 56t-57 138z" />
    <glyph glyph-name="perthousand" unicode="&#x2030;" horiz-adv-x="2285" 
d="M139 -102l1094 1564h86l-1094 -1564h-86zM410 733q-160 0 -263.5 89.5t-103.5 258.5q0 77 25 140.5t64.5 103.5t90 68t99.5 39.5t96 11.5q72 0 138 -22.5t119 -65.5t84.5 -111.5t31.5 -152.5q0 -90 -33.5 -161t-89 -113t-121.5 -63.5t-137 -21.5zM416 793q63 0 79.5 56
t16.5 230q0 131 -7.5 193t-27.5 87t-61 25q-37 0 -57 -20.5t-31 -84.5t-11 -185q0 -183 18.5 -242t80.5 -59zM1067 -25q-160 0 -263.5 90t-103.5 259q0 77 25 140t64.5 103.5t90 68t99.5 39t96 11.5q72 0 138 -22.5t119 -65.5t84.5 -111.5t31.5 -152.5q0 -90 -33.5 -161
t-89 -113t-121.5 -63.5t-137 -21.5zM1073 35q63 0 79.5 56.5t16.5 230.5q0 131 -7.5 193t-27.5 87t-61 25q-37 0 -56.5 -21t-30.5 -85t-11 -185q0 -184 18 -242.5t80 -58.5zM1862 -25q-160 0 -263.5 90t-103.5 259q0 77 25 140t64.5 103.5t90 68t99.5 39t96 11.5
q72 0 138 -22.5t119 -65.5t84.5 -111.5t31.5 -152.5q0 -90 -33.5 -161t-89 -113t-121.5 -63.5t-137 -21.5zM1868 35q63 0 79.5 56.5t16.5 230.5q0 131 -7.5 193t-27.5 87t-61 25q-37 0 -57 -21t-31 -85t-11 -185q0 -183 18.5 -242t80.5 -59z" />
    <glyph glyph-name="uni2032" unicode="&#x2032;" horiz-adv-x="425" 
d="M129 858l-63 363q-20 115 17.5 174t129.5 59q93 0 135.5 -66.5t-2.5 -166.5l-178 -363h-39z" />
    <glyph glyph-name="uni2033" unicode="&#x2033;" horiz-adv-x="790" 
d="M129 858l-63 363q-20 115 17.5 174t129.5 59q93 0 135.5 -66.5t-2.5 -166.5l-178 -363h-39zM496 858l-64 363q-20 115 17.5 174t130.5 59t135 -66.5t-4 -166.5l-176 -363h-39z" />
    <glyph glyph-name="guilsinglleft" unicode="&#x2039;" horiz-adv-x="491" 
d="M393 92l-364 420v10l364 420h41l-168 -422l168 -428h-41z" />
    <glyph glyph-name="guilsinglright" unicode="&#x203a;" horiz-adv-x="491" 
d="M463 512l-365 -420h-41l168 422l-168 428h41l365 -420v-10z" />
    <glyph glyph-name="fraction" unicode="&#x2044;" horiz-adv-x="761" 
d="M-209 -102l1094 1564h86l-1094 -1564h-86z" />
    <glyph glyph-name="Euro" unicode="&#x20ac;" horiz-adv-x="1259" 
d="M-2 776v66h121q17 124 65.5 225.5t117.5 170.5t157 116t182 68.5t195 21.5q113 0 205 -27t151 -87t59 -144q0 -73 -51 -111.5t-125 -38.5q-112 0 -152 52t-49 198q-4 62 -16.5 79t-46.5 17q-57 0 -95.5 -22t-69.5 -79.5t-47.5 -165.5t-20.5 -273h405l-14 -66h-391v-26
q0 -76 2 -111h360l-14 -66h-342q8 -102 28 -176t49.5 -121.5t75 -75.5t97.5 -39t124 -11q134 0 269 73v-41q-24 -33 -63 -66.5t-96.5 -66.5t-138.5 -53.5t-171 -20.5q-282 0 -447 147.5t-194 450.5h-119v66h113v61q0 51 2 76h-115z" />
    <glyph glyph-name="trademark" unicode="&#x2122;" horiz-adv-x="1454" 
d="M612 858v29l45 8q24 5 31.5 18.5t7.5 59.5v346q0 32 -7.5 42.5t-31.5 18.5l-32 11v28h305l92 -276h8l96 276h314v-24l-35 -9q-24 -6 -29.5 -17t-5.5 -46v-371q0 -36 5.5 -45t29.5 -14l39 -8v-27h-369v27l37 8q23 4 29 14.5t6 44.5v385h-2l-162 -475h-72l-170 475h-2v-360
q0 -51 6 -65.5t31 -18.5l45 -8v-27h-209zM201 958v420h-8q-51 0 -72 -30q-9 -12 -18.5 -32.5t-14.5 -34t-17 -47.5t-16 -44h-24l6 229h541l8 -229h-25q-46 126 -69 158q-21 30 -72 30h-6v-420q0 -37 6.5 -46.5t32.5 -14.5l45 -8v-29h-379v29l43 8q26 5 32.5 14.5t6.5 46.5z
" />
    <glyph glyph-name="onethird" unicode="&#x2153;" horiz-adv-x="1617" 
d="M10 612v37l33 8q24 7 32.5 10.5t17 15t10 29t1.5 52.5v412l-90 26v35q110 19 219 73.5t164 119.5l45 -13v-653q0 -63 12.5 -80t53.5 -27l33 -8v-37h-531zM170 -102l1094 1564h86l-1094 -1564h-86zM1186 -16q-142 0 -219.5 45t-77.5 123q0 44 30 68t80 24q65 0 93 -33
t34 -119q3 -34 11.5 -43.5t33.5 -9.5q44 0 70.5 43t26.5 127q0 100 -37.5 141t-112.5 41h-57v64h51q71 0 104 38.5t33 124.5q0 148 -63 148q-23 0 -30 -9t-13 -42q-13 -69 -40 -101t-85 -32q-49 0 -76 24.5t-27 67.5q0 64 73.5 105.5t215.5 41.5q154 0 247 -48t93 -152
q0 -70 -58 -117t-173 -60v-6q137 -15 201.5 -66t64.5 -153q0 -105 -100 -170t-293 -65z" />
    <glyph glyph-name="twothirds" unicode="&#x2154;" horiz-adv-x="1679" 
d="M240 -102l1093 1564h86l-1093 -1564h-86zM1247 -16q-142 0 -219.5 45t-77.5 123q0 43 30.5 67.5t80.5 24.5q65 0 93 -33t34 -119q3 -34 11.5 -43.5t33.5 -9.5q44 0 70 43t26 127q0 100 -37 141t-112 41h-58v64h52q71 0 104 38.5t33 124.5q0 148 -64 148q-23 0 -30 -9
t-13 -42q-13 -69 -40 -101t-85 -32q-49 0 -75.5 24.5t-26.5 67.5q0 64 73.5 105.5t215.5 41.5q154 0 247 -48t93 -152q0 -70 -58.5 -117t-173.5 -60v-6q137 -15 201.5 -66t64.5 -153q0 -105 -100 -170t-293 -65zM20 612v136q150 110 222 190q74 84 103.5 153.5t29.5 143.5
q0 76 -17 108.5t-51 32.5q-22 0 -28 -12t-11 -55q-9 -80 -39 -112t-102 -32q-50 0 -79.5 30t-29.5 75q0 74 88 119t242 45q158 0 250 -61t92 -179q0 -44 -22 -84.5t-74.5 -85t-147.5 -91t-233 -95.5v-7h324q38 0 56 18.5t46 84.5h39l-14 -322h-644z" />
    <glyph glyph-name="oneeighth" unicode="&#x215b;" horiz-adv-x="1617" 
d="M10 612v37l33 8q24 7 32.5 10.5t17 15t10 29t1.5 52.5v412l-90 26v35q110 19 219 73.5t164 119.5l45 -13v-653q0 -63 12.5 -80t53.5 -27l33 -8v-37h-531zM166 -102l1094 1564h86l-1094 -1564h-86zM1204 -14q-174 0 -264 50.5t-90 131.5q0 60 52 103.5t145 62.5v6
q-91 42 -127.5 93t-36.5 128q0 63 32.5 114.5t84.5 82t112 47t121 16.5q81 0 148 -16t114 -57t47 -101q0 -50 -51.5 -89t-116.5 -52v-6q103 -44 154 -100.5t51 -133.5q0 -120 -105.5 -200t-269.5 -80zM1214 41q51 0 90 24.5t39 75.5q0 53 -45 87.5t-194 90.5
q-35 -47 -35 -122t36.5 -115.5t108.5 -40.5zM1307 524q26 33 26 111q0 131 -112 131q-51 0 -83 -25t-32 -63q0 -49 42 -83t159 -71z" />
    <glyph glyph-name="threeeighths" unicode="&#x215c;" horiz-adv-x="1679" 
d="M221 -102l1094 1564h86l-1094 -1564h-86zM1266 -14q-174 0 -264.5 50.5t-90.5 131.5q0 60 52 103.5t145 62.5v6q-91 42 -127.5 93t-36.5 128q0 63 32.5 114.5t84.5 82t112 47t121 16.5q81 0 148.5 -16t114.5 -57t47 -101q0 -50 -51.5 -89t-116.5 -52v-6
q103 -44 153.5 -100t50.5 -134q0 -120 -105 -200t-269 -80zM1276 41q51 0 90 24.5t39 75.5q0 53 -45.5 87.5t-194.5 90.5q-35 -47 -35 -122t37 -115.5t109 -40.5zM1368 524q27 34 27 111q0 131 -113 131q-51 0 -83 -25t-32 -63q0 -49 42 -83t159 -71zM315 596
q-142 0 -219.5 45t-77.5 123q0 43 30.5 67.5t80.5 24.5q65 0 93 -32.5t34 -118.5q3 -35 11.5 -44.5t33.5 -9.5q44 0 70 43t26 127q0 100 -37.5 141.5t-111.5 41.5h-58v63h52q71 0 104 39t33 125q0 147 -64 147q-23 0 -30 -9t-13 -42q-13 -69 -40 -101t-85 -32
q-49 0 -75.5 24.5t-26.5 67.5q0 64 73.5 106t215.5 42q154 0 247 -48.5t93 -152.5q0 -70 -58.5 -116.5t-173.5 -59.5v-6q137 -15 202 -66.5t65 -153.5q0 -105 -100.5 -170t-293.5 -65z" />
    <glyph glyph-name="fiveeighths" unicode="&#x215d;" horiz-adv-x="1658" 
d="M186 -102l1094 1564h86l-1094 -1564h-86zM1245 -14q-174 0 -264 50.5t-90 131.5q0 60 52 103.5t144 62.5v6q-91 42 -127 92.5t-36 128.5q0 63 32.5 114.5t84.5 82t112 47t121 16.5q81 0 148 -16t114 -57t47 -101q0 -50 -51.5 -89t-116.5 -52v-6q103 -44 154 -100.5
t51 -133.5q0 -120 -105.5 -200t-269.5 -80zM1255 41q51 0 90 24.5t39 75.5q0 53 -45 87.5t-194 90.5q-35 -47 -35 -122t36.5 -115.5t108.5 -40.5zM1348 524q26 33 26 111q0 131 -112 131q-51 0 -83 -25t-32 -63q0 -49 42 -83t159 -71zM285 596q-137 0 -199.5 40t-62.5 103
q0 43 28 67.5t80 24.5q54 0 80 -27t35 -91q6 -38 17.5 -49t43.5 -11q107 0 107 121q0 68 -49.5 103.5t-128.5 35.5q-95 0 -148 -24l-18 10l59 520l399 -2q35 0 50 14.5t40 63.5h41l-26 -274l-463 2l-10 -93q66 21 180 21q168 0 255 -67.5t87 -190.5q0 -127 -104.5 -212
t-292.5 -85z" />
    <glyph glyph-name="seveneighths" unicode="&#x215e;" horiz-adv-x="1617" 
d="M143 -102l1094 1564h86l-1094 -1564h-86zM1204 -14q-174 0 -264 50.5t-90 131.5q0 60 52 103.5t145 62.5v6q-91 42 -127.5 93t-36.5 128q0 63 32.5 114.5t84.5 82t112 47t121 16.5q81 0 148 -16t114 -57t47 -101q0 -50 -51.5 -89t-116.5 -52v-6q103 -44 154 -100.5
t51 -133.5q0 -120 -105.5 -200t-269.5 -80zM1214 41q51 0 90 24.5t39 75.5q0 53 -45 87.5t-194 90.5q-35 -47 -35 -122t36.5 -115.5t108.5 -40.5zM1307 524q26 33 26 111q0 131 -112 131q-51 0 -83 -25t-32 -63q0 -49 42 -83t159 -71zM117 612q64 346 440 600h-371
q-52 0 -72.5 -18t-50.5 -92h-40l20 317h623v-137q-82 -95 -128.5 -211t-60 -218.5t-14.5 -240.5h-346z" />
    <glyph glyph-name="arrowleft" unicode="&#x2190;" horiz-adv-x="1675" 
d="M1427 512l-694 33l164 -135q101 -84 85 -190q-13 -82 -84 -131q-81 -55 -170 -24q-46 16 -85 54l-586 588v8l588 590q85 83 188 58q80 -20 123 -92q52 -85 10 -174q-23 -46 -69 -85l-164 -135l694 32q129 6 182.5 -96.5t0 -204.5t-182.5 -96z" />
    <glyph glyph-name="arrowright" unicode="&#x2192;" horiz-adv-x="1675" 
d="M942 545l-694 -33q-129 -6 -182.5 96t0 204.5t182.5 96.5l694 -32l-164 135q-101 83 -85 189q12 82 83 132q79 55 168 26q46 -15 86 -54l588 -590v-8l-586 -588q-86 -84 -190 -59q-80 20 -123 91q-52 84 -10 172q21 48 69 87z" />
    <glyph glyph-name="minus" unicode="&#x2212;" horiz-adv-x="995" 
d="M92 674v67h811v-67h-811z" />
    <glyph glyph-name="uni24C5" unicode="&#x24c5;" horiz-adv-x="1609" 
d="M877 342v-35h-449v35l23 8q25 9 34.5 16.5t15 30t5.5 70.5v502q0 64 -10.5 84.5t-44.5 29.5l-23 7v36h414q188 0 282.5 -64.5t94.5 -178.5q0 -121 -71.5 -193t-203.5 -72q-63 0 -119 17v29q61 8 85 47t24 149q0 115 -26.5 163t-84.5 48q-23 0 -47 -6v-594q0 -56 5 -78.5
t15 -29.5t40 -13zM74 705q0 151 56.5 286.5t153.5 234t233 156.5t288 58t288 -58t233 -156.5t153.5 -234t56.5 -286.5q0 -201 -95.5 -369.5t-264 -266.5t-371.5 -98t-371.5 98t-264 266.5t-95.5 369.5zM150 705q0 -136 50 -259.5t136 -214.5t208.5 -144.5t260.5 -53.5
t260.5 53.5t208.5 144.5t136 214.5t50 259.5t-50 259.5t-136 214.5t-208.5 145t-260.5 54t-260.5 -54t-208.5 -145t-136 -214.5t-50 -259.5z" />
    <glyph glyph-name="square" unicode="&#x25a0;" horiz-adv-x="1896" 
d="M238 0v1419h1421v-1419h-1421z" />
    <glyph glyph-name="squareopen" unicode="&#x25a1;" horiz-adv-x="1896" 
d="M238 0v1419h1421v-1419h-1421zM332 90h1233v1243h-1233v-1243z" />
    <glyph glyph-name="triangleup" unicode="&#x25b2;" horiz-adv-x="1697" 
d="M1597 0h-1493v29l725 1454h41l727 -1454v-29z" />
    <glyph glyph-name="triangleupopen" unicode="&#x25b3;" horiz-adv-x="1636" 
d="M1565 0h-1493v29l735 1454h20l738 -1454v-29zM1434 86l-619 1223l-614 -1223h1233z" />
    <glyph glyph-name="triangleright" unicode="&#x25b6;" horiz-adv-x="1761" 
d="M238 -37v1493h28l1393 -735v-21l-1393 -737h-28z" />
    <glyph glyph-name="trianglerightopen" unicode="&#x25b7;" horiz-adv-x="1761" 
d="M238 -37v1493h28l1393 -735v-21l-1393 -737h-28zM332 92l1165 619l-1165 618v-1237z" />
    <glyph glyph-name="triangledown" unicode="&#x25bc;" horiz-adv-x="1697" 
d="M102 1419h1493v-28l-725 -1454h-41l-727 1454v28z" />
    <glyph glyph-name="triangledownopen" unicode="&#x25bd;" horiz-adv-x="1636" 
d="M72 1419h1493v-28l-736 -1454h-20l-737 1454v28zM203 1333l618 -1222l615 1222h-1233z" />
    <glyph glyph-name="triangleleft" unicode="&#x25c0;" horiz-adv-x="1761" 
d="M1524 1456v-1493h-29l-1393 737v21l1393 735h29z" />
    <glyph glyph-name="triangleleftopen" unicode="&#x25c1;" horiz-adv-x="1761" 
d="M1524 1456v-1493h-29l-1393 737v21l1393 735h29zM264 711l1166 -619v1237z" />
    <glyph glyph-name="circle" unicode="&#x25cb;" horiz-adv-x="1650" 
d="M823 -31q-151 0 -288 59t-235.5 158.5t-157 237t-58.5 287.5q0 151 58.5 288t157 235.5t235.5 157t288 58.5q150 0 287.5 -58.5t237.5 -157t159.5 -235.5t59.5 -288q0 -150 -59.5 -287.5t-159 -237t-237.5 -158.5t-288 -59z" />
    <glyph glyph-name="circleopen" unicode="&#x25cf;" horiz-adv-x="1650" 
d="M823 -31q-151 0 -288 59t-235.5 158.5t-157 237t-58.5 287.5q0 151 58.5 288t157 235.5t235.5 157t288 58.5q150 0 287.5 -58.5t237.5 -157t159.5 -235.5t59.5 -288q0 -150 -59.5 -287.5t-159 -237t-237.5 -158.5t-288 -59zM823 55q176 0 325 89t235.5 240t86.5 327
q0 177 -86.5 327.5t-235.5 238t-325 87.5q-133 0 -252.5 -51.5t-205 -139.5t-135.5 -208.5t-50 -253.5q0 -177 84.5 -327.5t233 -239.5t325.5 -89z" />
    <glyph glyph-name="star" unicode="&#x2605;" horiz-adv-x="1703" 
d="M346 -70l-14 9l196 596l-499 356v16h622l193 596h16l195 -596h620v-16l-497 -356l194 -592l-14 -9l-506 361z" />
    <glyph glyph-name="staropen" unicode="&#x2606;" horiz-adv-x="1703" 
d="M346 -70l-14 9l196 596l-499 356v16h622l193 596h16l195 -596h620v-16l-497 -356l194 -592l-14 -9l-506 361zM469 111l385 286l381 -286l-156 454l389 266h-469l-147 453l-147 -453h-467l387 -266z" />
    <glyph glyph-name="space_uni0326" 
d="M311 -518l-4 22q211 53 230 195q-31 -31 -84 -31q-56 0 -90.5 33.5t-34.5 87.5t46.5 93.5t119.5 39.5q77 0 130.5 -50t53.5 -124q0 -117 -96.5 -186t-270.5 -80z" />
    <glyph glyph-name="caron.alt" 
d="M451 1155l-23 8l8 293q0 103 101 103q52 0 90 -30t41 -71q0 -48 -35 -88z" />
    <glyph glyph-name="space_uni0326.alt" 
d="M688 1585l4 -22q-210 -53 -229 -195q31 31 84 31q56 0 90.5 -33.5t34.5 -87.5t-46.5 -93.5t-119.5 -39.5q-77 0 -130.5 50t-53.5 124q0 117 96 186t270 80z" />
    <glyph glyph-name="acute.pl" 
d="M479 1145l-16 12l55 295q25 133 135 133q64 0 107 -41.5t43 -99.5q0 -68 -88 -133z" />
    <glyph glyph-name="grave.uc" 
d="M737 1501l-8 -20l-385 53q-60 8 -93.5 43t-33.5 90q0 64 41.5 109t103.5 45q66 0 125 -62z" />
    <glyph glyph-name="dieresis.uc" 
d="M272 1473q-77 0 -129.5 47t-52.5 129q0 80 52.5 127t129.5 47q79 0 132 -46.5t53 -127.5q0 -82 -52.5 -129t-132.5 -47zM725 1473q-77 0 -129.5 47t-52.5 129q0 80 52.5 127t129.5 47q79 0 131.5 -46.5t52.5 -127.5q0 -82 -52.5 -129t-131.5 -47z" />
    <glyph glyph-name="macron.uc" 
d="M205 1546v142h590v-142h-590z" />
    <glyph glyph-name="acute.uc" 
d="M270 1481l-8 20l250 258q59 62 125 62q62 0 103.5 -45t41.5 -109q0 -55 -33.5 -90t-93.5 -43z" />
    <glyph glyph-name="circumflex.uc" 
d="M168 1481l-12 20l280 303h127l281 -303l-13 -20l-331 90z" />
    <glyph glyph-name="caron.uc" 
d="M156 1800l12 21l332 -90l331 90l13 -21l-281 -303h-127z" />
    <glyph glyph-name="breve.uc" 
d="M498 1485q-243 0 -297 325l22 9q47 -68 107.5 -96.5t169.5 -28.5q103 0 164 28.5t112 96.5l23 -9q-21 -153 -96.5 -239t-204.5 -86z" />
    <glyph glyph-name="dotaccent.uc" horiz-adv-x="626" 
d="M313 1481q-85 0 -141.5 49.5t-56.5 132.5q0 82 56.5 132t141.5 50q86 0 142.5 -50t56.5 -132q0 -83 -56 -132.5t-143 -49.5z" />
    <glyph glyph-name="ring.uc" 
d="M305 1659q0 80 58 133t137 53t136.5 -53t57.5 -133t-57.5 -133t-136.5 -53t-137 53t-58 133zM383 1659q0 -57 31.5 -93t85.5 -36t85 36t31 93t-31 93t-85 36t-85.5 -36t-31.5 -93z" />
    <glyph glyph-name="tilde.uc" 
d="M645 1520q-41 0 -176.5 18t-181.5 18q-40 0 -66.5 -19.5t-56.5 -68.5l-29 17q51 154 98.5 225.5t120.5 71.5q42 0 178 -19.5t181 -19.5q39 0 66 20.5t57 69.5l28 -16q-20 -64 -34.5 -103.5t-34.5 -80.5t-40.5 -63t-48 -36t-61.5 -14z" />
    <glyph glyph-name="hungarumlaut.uc" 
d="M246 1481l-21 16l97 250q40 104 114 104q49 0 91 -38.5t42 -90.5q0 -78 -108 -133zM600 1481l-20 16l96 250q40 104 115 104q49 0 91 -38.5t42 -90.5q0 -77 -109 -133z" />
    <glyph glyph-name="acute.ucpl" 
d="M375 1481l-17 12l60 256q17 68 48.5 99.5t84.5 31.5q57 0 102 -40.5t45 -94.5q0 -75 -88 -127z" />
    <glyph glyph-name="Cacute.pl" horiz-adv-x="1294" 
d="M770 -25q-221 0 -384.5 82.5t-255 246.5t-91.5 394q0 151 40.5 275.5t112 210.5t170 145.5t213.5 87t244 27.5q225 0 383 -47l33 -479h-39q-125 248 -209 358q-42 56 -83.5 82t-104.5 26q-139 0 -205 -159.5t-66 -485.5q0 -271 30.5 -427.5t86.5 -216.5t148 -60
q74 0 126.5 25.5t102.5 93.5q62 82 190 356h37l-24 -455q-212 -80 -455 -80zM705 1481l-17 12l60 256q17 68 48.5 99.5t84.5 31.5q57 0 102 -40.5t45 -94.5q0 -75 -88 -127z" />
    <glyph glyph-name="Nacute.pl" horiz-adv-x="1384" 
d="M1098 0l-854 1169h-8v-899q0 -57 2 -87.5t7 -57t17.5 -39t30.5 -21.5t49 -16l64 -14v-35h-396v35l56 14q58 15 74 51t16 156v948q0 85 -18 119t-72 47l-56 14v35h602l527 -696h8v426q0 57 -2 87t-6.5 56t-17.5 38.5t-30 21t-49 16.5l-67 16v35h399v-35l-57 -14
q-40 -9 -58 -27t-25 -57t-7 -123v-1163h-129zM668 1481l-17 12l60 256q17 68 48.5 99.5t84.5 31.5q57 0 102 -40.5t45 -94.5q0 -75 -88 -127z" />
    <glyph glyph-name="Oacute.pl" horiz-adv-x="1523" 
d="M756 -25q-108 0 -209.5 25.5t-194.5 82t-162 138.5t-110 203.5t-41 267.5q0 157 45 286.5t117.5 214t169 143t196 83.5t201.5 25q111 0 211 -22.5t194 -76t162 -134t109 -205t41 -279.5q0 -158 -45 -288t-117.5 -214.5t-169 -142t-196 -82.5t-201.5 -25zM764 35
q84 0 132.5 53.5t74.5 195.5t26 394q0 282 -26.5 438t-75.5 212t-135 56q-59 0 -100.5 -29t-73 -100t-47 -198t-15.5 -316q0 -281 26 -436t76 -212.5t138 -57.5zM713 1481l-17 12l60 256q17 68 48.5 99.5t84.5 31.5q57 0 102 -40.5t45 -94.5q0 -75 -88 -127z" />
    <glyph glyph-name="Sacute.pl" horiz-adv-x="1079" 
d="M487 -25q-301 0 -432 64l-26 438h43q98 -201 180 -305q59 -73 117.5 -105t140.5 -32q97 0 150 55.5t53 151.5q0 100 -62 160.5t-225 115.5q-223 75 -310 178t-87 277q0 204 153 337.5t396 133.5q237 0 372 -64l21 -389h-43q-93 202 -174 289q-56 60 -101.5 82t-107.5 22
q-92 0 -145.5 -50t-53.5 -138q0 -84 58.5 -138.5t218.5 -111.5q244 -85 341 -185.5t97 -268.5q0 -81 -25 -157.5t-74 -141.5t-117 -114t-160.5 -76.5t-197.5 -27.5zM489 1481l-16 12l59 256q17 68 49 99.5t85 31.5q57 0 102 -40.5t45 -94.5q0 -75 -88 -127z" />
    <glyph glyph-name="Zacute.pl" horiz-adv-x="1304" 
d="M35 0v72l688 1276v6h-55q-112 0 -170 -8t-91.5 -28.5t-64.5 -64.5q-85 -121 -186 -356h-43l30 522h1100v-71l-696 -1274v-8h67q107 0 164.5 4t102 19.5t68.5 38t57 67.5t70.5 112t57.5 107.5t70 144.5h45l-41 -559h-1173zM625 1481l-17 12l60 256q17 68 48.5 99.5
t84.5 31.5q57 0 102 -40.5t45 -94.5q0 -75 -88 -127z" />
    <glyph glyph-name="cacute.pl" horiz-adv-x="1042" 
d="M563 -25q-255 0 -395.5 147t-140.5 400q0 121 38 220.5t101 165.5t147 111t173.5 65t183.5 20q171 0 264.5 -56.5t93.5 -166.5q0 -75 -42.5 -115.5t-127.5 -40.5q-98 0 -134.5 48t-45.5 175q-7 59 -16.5 75.5t-47.5 16.5q-22 0 -40.5 -5t-41 -19t-39 -43t-31 -72.5
t-22.5 -112t-8 -157.5q0 -96 7.5 -163.5t28 -127t55.5 -95t91 -55.5t134 -20q133 0 266 68v-37q-21 -32 -58.5 -67t-93.5 -73t-135 -62t-164 -24zM504 1145l-17 12l56 295q25 133 135 133q64 0 106.5 -41.5t42.5 -99.5q0 -68 -88 -133z" />
    <glyph glyph-name="idotaccent" horiz-adv-x="647" 
d="M-2 0v35l37 10q61 17 73.5 34.5t12.5 88.5v674q0 47 -5 68.5t-17.5 35.5t-47.5 39l-65 47v19l530 53l16 -12q-8 -133 -8 -263v-661q0 -71 12.5 -88.5t73.5 -34.5l37 -10v-35h-649zM115 1362q0 82 56.5 132t141.5 50q86 0 142.5 -50t56.5 -132q0 -83 -56 -132.5
t-143 -49.5q-85 0 -141.5 49.5t-56.5 132.5z" />
    <glyph glyph-name="nacute.pl" horiz-adv-x="1308" 
d="M-2 0v35l37 10q61 17 73.5 34.5t12.5 88.5v672q0 68 -9.5 88.5t-56.5 54.5l-65 47v21l510 53l16 -12v-156h6q102 79 195 123.5t203 44.5q120 0 192 -71t72 -204v-661q0 -39 1.5 -56.5t12.5 -32t25 -19.5t49 -15l37 -10v-35h-633v35l31 8q53 13 63 30.5t10 94.5v584
q0 79 -30 110t-91 31q-83 0 -135 -12v-713q0 -43 1 -61.5t10.5 -33t21 -18.5t41.5 -12l31 -8v-35h-631zM643 1145l-16 12l55 295q25 133 135 133q64 0 107 -41.5t43 -99.5q0 -68 -88 -133z" />
    <glyph glyph-name="oacute.pl" horiz-adv-x="1220" 
d="M610 -25q-92 0 -177 21.5t-159 66.5t-129 110t-86.5 158t-31.5 204q0 121 33.5 218.5t89 162t131.5 107.5t158 62t171 19q116 0 219 -34.5t185.5 -101.5t131 -176.5t48.5 -248.5q0 -120 -33 -217.5t-88 -162t-131 -107.5t-158.5 -62t-173.5 -19zM614 35q35 0 58 8.5
t44.5 36.5t33.5 81t19 143.5t7 221.5q0 137 -8.5 233t-22 151t-37 85.5t-47 39.5t-57.5 9q-39 0 -66 -18t-49.5 -67.5t-33.5 -147.5t-11 -248q0 -175 9 -281t32 -160t51.5 -70.5t77.5 -16.5zM582 1145l-17 12l56 295q25 133 135 133q64 0 106.5 -41.5t42.5 -99.5
q0 -68 -88 -133z" />
    <glyph glyph-name="sacute.pl" horiz-adv-x="907" 
d="M391 -25q-197 0 -338 41l-12 355h39q82 -149 162 -244q41 -49 81.5 -69.5t104.5 -20.5q68 0 110 37t42 102q0 63 -48.5 100t-209.5 99q-146 54 -217.5 136t-71.5 210q0 77 28.5 144.5t84 121.5t147.5 85.5t209 31.5q89 0 169.5 -12.5t121.5 -28.5l14 -301h-35
q-97 148 -139 190q-49 49 -85.5 69.5t-94.5 20.5q-64 0 -104 -32.5t-40 -89.5q0 -61 44 -97.5t175 -81.5q196 -70 274.5 -156t78.5 -216q0 -177 -127.5 -285.5t-362.5 -108.5zM406 1145l-17 12l55 295q25 133 136 133q64 0 106.5 -41.5t42.5 -99.5q0 -68 -88 -133z" />
    <glyph glyph-name="zacute.pl" horiz-adv-x="1052" 
d="M25 0v84l555 913v9h-66q-107 0 -147 -11t-86 -57q-10 -10 -20.5 -22.5t-23 -31t-21.5 -31t-25 -39.5t-23.5 -40t-28 -48t-28.5 -48h-33l26 399h918v-80l-553 -917v-8h86q125 0 174 15t92 58q66 66 172 263h35l-41 -408h-962zM492 1145l-17 12l55 295q25 133 136 133
q64 0 106.5 -41.5t42.5 -99.5q0 -68 -88 -133z" />
    <glyph glyph-name="dollar.old" horiz-adv-x="1069" 
d="M29 223q0 71 40.5 107.5t118.5 36.5q79 0 125.5 -45.5t65.5 -163.5q8 -66 24.5 -89.5t65.5 -27.5v448q-126 44 -210.5 92.5t-133 105.5t-68.5 119t-20 142q0 178 129 295t336 131v142h63v-140q215 -3 320.5 -70t105.5 -161q0 -65 -43 -101t-112 -36q-86 0 -126 41.5
t-53 154.5q-8 63 -24.5 85t-67.5 26v-412l15 -4q246 -88 349 -200.5t103 -270.5q0 -183 -132 -308.5t-368 -137.5v-168h-63v166q-440 5 -440 243zM729 240q0 158 -197 229v-430q83 2 140 52t57 149zM326 1135q0 -64 41 -114t135 -91v387q-83 -5 -129.5 -49.5t-46.5 -132.5z
" />
    <glyph glyph-name="Euro.old" horiz-adv-x="1191" 
d="M-8 733v66h114q21 147 87.5 261t162.5 181.5t206.5 102t230.5 34.5q105 0 191 -26.5t139 -81t53 -127.5q0 -68 -45 -106t-117 -38q-89 0 -133 50.5t-54 181.5q-5 48 -18 65t-47 17q-72 0 -116 -41.5t-70.5 -156t-30.5 -316.5h385l-12 -66h-373v-12q0 -80 2 -115h342
l-12 -65h-326q20 -233 100.5 -321.5t255.5 -88.5q62 0 138 22.5t131 57.5v-41q-65 -89 -181 -143t-270 -54q-169 0 -299 60t-215.5 189.5t-106.5 318.5h-112v65h106v60q0 12 1 34t1 33h-108z" />
    <glyph glyph-name="sterling.old" horiz-adv-x="1107" 
d="M35 684v66h102q-45 133 -45 219q0 182 146.5 295.5t420.5 113.5q219 0 328 -65.5t109 -169.5q0 -60 -42 -99.5t-112 -39.5q-95 0 -136.5 49t-57.5 159q-9 67 -24.5 87t-55.5 20q-64 0 -86.5 -57t-22.5 -191q0 -53 14.5 -174t16.5 -147h258v-66h-254v-33
q0 -141 -79 -220.5t-271 -137.5v-6h647q61 0 91.5 32t57.5 132h39l-26 -451h-1037v195q51 34 80.5 57t59 55.5t42.5 71t13 86.5q0 68 -51 219h-125z" />
    <glyph glyph-name="yen.old" horiz-adv-x="1169" 
d="M43 618v62h303l-256 457q-56 100 -76.5 125t-56.5 38l-35 13v35h778v-35l-51 -15q-53 -15 -73.5 -32.5t-20.5 -48.5q0 -40 39 -117l170 -348h6l141 327q35 83 35 133q0 33 -20 52.5t-66 33.5l-47 15v35h369v-35l-27 -8q-39 -10 -67.5 -54t-86.5 -170l-186 -401h311v-62
h-311v-129h311v-63h-311v-219q0 -49 3 -74.5t14.5 -43.5t29 -25.5t53.5 -14.5l60 -14v-35h-780v35l59 14q33 8 46.5 13.5t27.5 14t18 25.5t6 39.5t2 65.5v219h-311v63h311v129h-311z" />
    <glyph glyph-name="zero.old" horiz-adv-x="1323" 
d="M651 -25q-100 0 -189.5 22.5t-167.5 71t-135 119.5t-89.5 173.5t-32.5 226.5q0 136 37 247t98.5 184t144.5 122t170.5 70.5t180.5 21.5q96 0 184.5 -22.5t168 -71.5t138 -120t93 -174.5t34.5 -228.5q0 -135 -37.5 -245t-99.5 -182t-145.5 -121.5t-171.5 -71t-181 -21.5z
M662 35q114 0 155 122t41 435q0 145 -8.5 247.5t-23 167.5t-40 102.5t-54.5 51t-70 13.5q-79 0 -120.5 -51t-59 -169.5t-17.5 -341.5q0 -173 12 -287t38.5 -177t61 -88t85.5 -25z" />
    <glyph glyph-name="one.old" horiz-adv-x="706" 
d="M-4 0v35l61 10q58 9 72 33t14 104v774l-133 13v39q249 38 482 219l67 -15v-1030q0 -79 14 -103.5t70 -33.5l59 -10v-35h-706z" />
    <glyph glyph-name="two.old" horiz-adv-x="1075" 
d="M25 0v178q190 114 297 211q150 136 216 264.5t66 282.5q0 117 -39 176t-110 59q-42 0 -61 -24t-21 -72q-3 -123 -48.5 -176t-136.5 -53q-70 0 -113.5 41.5t-43.5 113.5q0 97 117 164.5t341 67.5q246 0 385.5 -97t139.5 -264q0 -186 -180 -335t-529 -250v-8h701l-21 -279
h-960z" />
    <glyph glyph-name="three.old" horiz-adv-x="1148" 
d="M463 -254q-235 0 -341 61.5t-106 180.5q0 65 42 106t118 41q91 0 132.5 -50t49.5 -167q5 -66 24.5 -90.5t74.5 -24.5q87 0 126.5 92t39.5 277q0 180 -50.5 246.5t-181.5 66.5h-94v66h80q87 0 135.5 26t72 94t23.5 193q0 126 -11.5 192t-37 92t-74.5 26q-44 0 -60.5 -23.5
t-21.5 -73.5q-10 -125 -56 -176t-140 -51q-72 0 -113 39.5t-41 111.5q0 102 118.5 167t346.5 65q263 0 396 -86.5t133 -255.5q0 -131 -93.5 -224t-269.5 -126v-6q111 -4 193 -35.5t128.5 -83.5t68.5 -114t22 -134q0 -200 -163.5 -311t-469.5 -111z" />
    <glyph glyph-name="four.old" horiz-adv-x="1210" 
d="M1004 -229h-414v327h-574v107l711 1003h277v-962h202l-20 -148h-182v-327zM141 246h449v628h-6l-443 -622v-6z" />
    <glyph glyph-name="five.old" horiz-adv-x="1083" 
d="M436 -254q-215 0 -317.5 60.5t-102.5 168.5q0 66 40.5 111t121.5 45q86 0 130 -51.5t57 -173.5q6 -61 22.5 -81t69.5 -20q99 0 163 84.5t64 212.5q0 138 -86 207.5t-244 69.5q-129 0 -225 -35l-25 16l93 848h819l-33 -319h-750l-24 -221q110 43 287 43q266 0 408.5 -121
t142.5 -344q0 -145 -79 -259.5t-218.5 -177.5t-313.5 -63z" />
    <glyph glyph-name="six.old" horiz-adv-x="1261" 
d="M635 -25q-126 0 -231 39.5t-186.5 120.5t-127 215.5t-45.5 311.5q0 377 195 579.5t544 202.5q192 0 289.5 -61t97.5 -160q0 -69 -41 -108.5t-116 -39.5q-91 0 -136.5 46t-52.5 153q-4 68 -21 88t-65 20q-61 0 -104 -26.5t-78 -92.5t-53.5 -188t-22.5 -305q136 78 293 78
q210 0 328.5 -98t118.5 -304q0 -214 -153 -342.5t-433 -128.5zM643 35q88 0 120 92.5t32 306.5q0 170 -40 233.5t-137 63.5q-84 0 -139 -22v-66q0 -177 6.5 -286t25 -185t50 -106.5t82.5 -30.5z" />
    <glyph glyph-name="seven.old" horiz-adv-x="1056" 
d="M199 -229q36 175 102.5 335t159.5 298.5t196.5 256t233.5 234.5h-651q-67 0 -94.5 -26t-71.5 -132h-45l32 471h983v-202q-105 -139 -176 -283t-111.5 -301t-60 -306t-28.5 -345h-469z" />
    <glyph glyph-name="eight.old" horiz-adv-x="1187" 
d="M575 -25q-256 0 -401 86t-145 246q0 117 76 192t247 122v8q-272 164 -272 395q0 185 146.5 302.5t383.5 117.5q93 0 179.5 -20t157 -58t113 -99.5t42.5 -136.5q0 -101 -73 -168t-214 -112v-8q185 -91 262.5 -183.5t77.5 -238.5q0 -189 -165 -317t-415 -128zM752 872
q65 83 65 240q0 129 -62 197.5t-163 68.5q-98 0 -154.5 -52.5t-56.5 -143.5q0 -51 20 -89.5t71.5 -76t111.5 -67.5t168 -77zM590 39q127 0 196.5 56t69.5 153q0 28 -3.5 49.5t-17 44t-25.5 38t-44 37.5t-56 36.5t-78.5 41.5t-95 45.5t-120.5 55.5q-88 -123 -88 -250
q0 -164 64.5 -235.5t197.5 -71.5z" />
    <glyph glyph-name="nine.old" horiz-adv-x="1263" 
d="M627 1233q99 0 184.5 -21.5t162.5 -72.5t131.5 -129t86 -197.5t31.5 -271.5q0 -205 -56 -360t-157.5 -249t-234 -140t-294.5 -46q-192 0 -294.5 63.5t-102.5 161.5q0 71 44 112.5t126 41.5q84 0 124.5 -46.5t55.5 -168.5q8 -63 22 -83t64 -20q91 0 146.5 58.5t85 196
t34.5 372.5q-57 -37 -138 -60.5t-165 -23.5q-210 0 -326 111.5t-116 316.5q0 210 150.5 332.5t435.5 122.5zM618 1174q-38 0 -64 -17.5t-42.5 -48t-25.5 -83t-12 -110t-3 -141.5q0 -167 41.5 -237t130.5 -70t145 35v53q0 249 -15 379.5t-51 185t-104 54.5z" />
    <glyph glyph-name="percent.old" horiz-adv-x="1462" 
d="M147 -94l1035 1480h86l-1035 -1480h-86zM387 698q-157 0 -256.5 85t-99.5 247q0 74 24 135t61.5 99.5t87 65t97 37.5t94.5 11q96 0 176.5 -37t132.5 -115.5t52 -185.5q0 -86 -32 -153.5t-85.5 -107.5t-117.5 -60.5t-134 -20.5zM393 760q53 0 70.5 54.5t17.5 213.5
q0 120 -9.5 183.5t-27.5 85.5t-51 22q-31 0 -49 -19t-29.5 -81.5t-11.5 -176.5q0 -115 8.5 -175.5t27.5 -83.5t54 -23zM1065 -27q-157 0 -256.5 85t-99.5 247q0 74 24 135t61.5 99.5t87 65t97 37.5t94.5 11q96 0 176.5 -37t132.5 -115.5t52 -185.5q0 -86 -32 -153.5
t-85.5 -107.5t-117.5 -60.5t-134 -20.5zM1071 35q53 0 70.5 54.5t17.5 213.5q0 120 -9.5 183.5t-27.5 85.5t-51 22q-31 0 -49 -19t-29.5 -81.5t-11.5 -176.5q0 -115 8.5 -175.5t27.5 -83.5t54 -23z" />
    <glyph glyph-name="perthousand.old" horiz-adv-x="2226" 
d="M147 -94l1035 1480h86l-1035 -1480h-86zM385 698q-157 0 -256.5 85t-99.5 247q0 74 24 135t61.5 99.5t87 65t97 37.5t94.5 11q96 0 176.5 -37t132.5 -115.5t52 -185.5q0 -86 -32 -153.5t-85.5 -107.5t-117.5 -60.5t-134 -20.5zM391 760q53 0 70.5 54.5t17.5 213.5
q0 120 -9.5 183.5t-27.5 85.5t-51 22q-31 0 -49 -19t-29.5 -81.5t-11.5 -176.5q0 -115 8.5 -175.5t27.5 -83.5t54 -23zM1065 -27q-157 0 -256.5 85t-99.5 247q0 74 24 135t61.5 99.5t87 65t97 37.5t94.5 11q96 0 176.5 -37t132.5 -115.5t52 -185.5q0 -86 -32 -153.5
t-85.5 -107.5t-117.5 -60.5t-134 -20.5zM1071 35q53 0 70.5 54.5t17.5 213.5q0 120 -9.5 183.5t-27.5 85.5t-51 22q-31 0 -49 -19t-29.5 -81.5t-11.5 -176.5q0 -115 8.5 -175.5t27.5 -83.5t54 -23zM1829 -27q-157 0 -256.5 85t-99.5 247q0 74 24 135t61.5 99.5t87 65
t97 37.5t94.5 11q96 0 176.5 -37t132.5 -115.5t52 -185.5q0 -86 -32 -153.5t-85.5 -107.5t-117.5 -60.5t-134 -20.5zM1835 35q53 0 70.5 54.5t17.5 213.5q0 120 -9.5 183.5t-27.5 85.5t-51 22q-31 0 -49 -19t-29.5 -81.5t-11.5 -176.5q0 -115 8.5 -175.5t27.5 -83.5t54 -23z
" />
    <glyph glyph-name="plus.old" horiz-adv-x="993" 
d="M461 166v391h-371v64h371v389h71v-389h371v-64h-371v-391h-71z" />
    <glyph glyph-name="minus.old" horiz-adv-x="995" 
d="M92 555v68h811v-68h-811z" />
    <glyph glyph-name="multiply.old" horiz-adv-x="931" 
d="M772 958l49 -49l-307 -321l307 -322l-47 -49l-307 322l-307 -322l-49 49l307 322l-305 321l47 49l305 -321z" />
    <glyph glyph-name="divide.old" horiz-adv-x="993" 
d="M90 555v68h813v-68h-813zM496 129q-63 0 -107.5 45.5t-44.5 106.5q0 65 44 108t108 43q63 0 107 -43t44 -108q0 -60 -45 -106t-106 -46zM496 745q-63 0 -107.5 45.5t-44.5 106.5q0 65 44 108.5t108 43.5q62 0 106.5 -43.5t44.5 -108.5q0 -60 -45 -106t-106 -46z" />
    <glyph glyph-name="equal.old" horiz-adv-x="1120" 
d="M96 696v68h928v-68h-928zM96 412v67h928v-67h-928z" />
    <glyph glyph-name="less.old" horiz-adv-x="974" 
d="M866 205l-772 350v66l772 350v-74l-686 -309l686 -309v-74z" />
    <glyph glyph-name="greater.old" horiz-adv-x="974" 
d="M881 555l-772 -350v74l686 309l-686 309v74l772 -350v-66z" />
    <glyph glyph-name="numbersign.old" horiz-adv-x="901" 
d="M401 0l82 356h-215l-82 -356h-69l82 356h-174l59 244h172l37 164h-170l55 244h172l80 340h70l-80 -340h215l80 340h69l-79 -340h172l-60 -244h-170l-37 -164h174l-59 -244h-172l-82 -356h-70zM362 764l-36 -164h215l37 164h-216z" />
    </font>
</defs>
</svg>
