<?xml version="1.0" standalone="no"?>
<!DOCTYPE svg PUBLIC "-//W3C//DTD SVG 1.1//EN" "http://www.w3.org/Graphics/SVG/1.1/DTD/svg11.dtd" >
<svg xmlns="http://www.w3.org/2000/svg" xmlns:xlink="http://www.w3.org/1999/xlink" version="1.1">
<metadata>
Created by FontForge 20170731 at Mon Apr 26 17:07:30 2021
 By Aleksey,,,
(c)2012 Paul Barnes, Christian Schwartz, and Ross Milne, under exclusive license to Schwartzco Inc./Commercial Type. All rights reserved.
</metadata>
<defs>
<font id="PublicoBanner-Ultra" horiz-adv-x="1503" >
  <font-face 
    font-family="Publico Banner Ultra"
    font-weight="900"
    font-stretch="normal"
    units-per-em="2048"
    panose-1="2 4 11 2 6 5 4 6 2 3"
    ascent="1645"
    descent="-403"
    x-height="1083"
    cap-height="1419"
    bbox="-356 -520 2873 2208"
    underline-thickness="145"
    underline-position="-302"
    unicode-range="U+0020-FB04"
  />
<missing-glyph horiz-adv-x="1019" 
 />
    <glyph glyph-name="f_f" unicode="ff" horiz-adv-x="1579" 
d="M623 952v-786q0 -55 4.5 -77t17 -32t45.5 -20l15 -4v-33h-723v33l6 2q33 12 45.5 16t29 13.5t20 14.5t8.5 20t5 27v40v786h-129v25l129 96v29q0 98 33.5 176.5t102 137t179.5 90.5t259 32q229 0 321 -65q148 92 395 92q194 0 292 -53.5t98 -149.5q0 -73 -46.5 -112.5
t-132.5 -39.5q-96 0 -139 49.5t-49 170.5q-3 46 -12 60.5t-25 14.5q-11 0 -16.5 -5t-10 -26.5t-5.5 -61t-1 -112.5v-217h193l-12 -131h-181v-786q0 -69 16 -86.5t101 -42.5l14 -4v-33h-737v33l8 2q49 12 60.5 34t11.5 97v786h-190zM623 1274v-191h190v136q-33 20 -49 61.5
t-25 122.5q-6 48 -17.5 62t-37.5 14q-24 0 -36 -14t-18.5 -58t-6.5 -133z" />
    <glyph glyph-name="f_i" unicode="fi" horiz-adv-x="1431" 
d="M96 1081q0 219 174 351.5t486 132.5q198 0 324 -61t126 -175q0 -62 -55.5 -107.5t-155.5 -45.5q-43 0 -72.5 4.5t-53.5 16.5t-39.5 29t-28 47t-20.5 64.5t-17 87.5q-7 45 -19.5 62.5t-35.5 17.5q-28 0 -45.5 -16t-29 -72t-11.5 -157v-177h299l411 25l15 -12
q-9 -129 -9 -273v-657q0 -68 14 -86t87 -43l12 -4v-33h-719v33l8 2q49 12 60.5 34t11.5 97v651q0 91 -17.5 113t-86.5 22h-86v-786q0 -55 4.5 -77t17 -32t45.5 -20l15 -4v-33h-723v33l6 2q33 12 45.5 16t29 13.5t20 14.5t8.5 20t5 27v40v786h-129v25l129 96v8z" />
    <glyph glyph-name="f_l" unicode="fl" horiz-adv-x="1437" 
d="M623 166q0 -55 4.5 -77t17 -32t45.5 -20l15 -4v-33h-723v33l6 2q33 12 45.5 16t29 13.5t20 14.5t8.5 20t5 27v40v786h-129v25l129 96v55q0 202 142 319.5t432 117.5q229 0 329 -78l330 67l19 -12q-9 -111 -9 -248v-1128q0 -69 14 -86t91 -43l12 -4v-33h-723v33l8 2
q49 12 60.5 34t11.5 97v786h-190v-786zM623 1300v-217h190v136q-57 17 -83.5 66.5t-31.5 144.5q-3 46 -14.5 60.5t-28.5 14.5q-11 0 -16.5 -5t-9.5 -27t-5 -60.5t-1 -112.5z" />
    <glyph glyph-name="f_f_i" unicode="ffi" horiz-adv-x="2148" 
d="M623 952v-786q0 -55 4.5 -77t17 -32t45.5 -20l15 -4v-33h-723v33l6 2q33 12 45.5 16t29 13.5t20 14.5t8.5 20t5 27v40v786h-129v25l129 96v29q0 98 33.5 176.5t102 137t179.5 90.5t259 32q263 0 346 -86q174 113 457 113q198 0 324 -61t126 -175q0 -62 -55.5 -107.5
t-155.5 -45.5q-43 0 -72.5 4.5t-53.5 16.5t-39.5 29t-28 47t-20.5 64.5t-17 87.5q-7 45 -19.5 62.5t-36.5 17.5q-28 0 -45.5 -16t-29 -72t-11.5 -157v-177h299l412 25l14 -12q-8 -115 -8 -273v-657q0 -68 14 -86t87 -43l12 -4v-33h-719v33l8 2q49 12 60.5 34t11.5 97v651
q0 91 -18 113t-87 22h-86v-786q0 -77 10.5 -96t57.5 -33l14 -4v-33h-688v33l8 2q49 12 60.5 34t11.5 97v786h-190zM623 1274v-191h190v136q-33 20 -49 61.5t-25 122.5q-6 48 -17.5 62t-37.5 14q-24 0 -36 -14t-18.5 -58t-6.5 -133z" />
    <glyph glyph-name="f_f_l" unicode="ffl" horiz-adv-x="2154" 
d="M1530 166v786h-191v-786q0 -77 10.5 -96t57.5 -33l14 -4v-33h-688v33l8 2q49 12 60.5 34t11.5 97v786h-190v-786q0 -55 4.5 -77t17 -32t45.5 -20l15 -4v-33h-723v33l6 2q33 12 45.5 16t29 13.5t20 14.5t8.5 20t5 27v40v786h-129v25l129 96v29q0 98 33.5 176.5t102 137
t179.5 90.5t259 32q229 0 321 -65q148 92 395 92q230 0 330 -78l330 67l18 -12q-8 -111 -8 -248v-1128q0 -69 14 -86t91 -43l12 -4v-33h-723v33l8 2q49 12 60.5 34t11.5 97zM623 1274v-191h190v136q-33 20 -49 61.5t-25 122.5q-6 48 -17.5 62t-37.5 14q-24 0 -36 -14
t-18.5 -58t-6.5 -133zM1339 1300v-217h191v136q-57 17 -83.5 66.5t-31.5 144.5q-3 46 -14.5 60.5t-28.5 14.5q-11 0 -16.5 -5t-10 -26.5t-5.5 -61t-1 -112.5z" />
    <glyph glyph-name="f_b" unicode="fb" horiz-adv-x="2107" 
d="M623 952v-786q0 -69 15.5 -86.5t100.5 -42.5l15 -4v-33h-772v33l6 2q33 12 45.5 16t29 13.5t20 14.5t8.5 20t5 27v40v786h-129v25l129 96v55q0 202 142 319.5t432 117.5q226 0 325 -74l324 63l18 -12q-8 -111 -8 -248v-350h4q69 80 161.5 122t182.5 42q83 0 151.5 -26.5
t124 -83.5t87 -157t31.5 -237q0 -135 -33.5 -241.5t-92 -178.5t-142 -119.5t-180 -68.5t-210.5 -21q-190 0 -353 41.5t-257 110.5v825h-180zM1329 76q19 -39 78 -39q32 0 52.5 16t38 64t26 145.5t8.5 249.5q0 150 -16 234.5t-44.5 115.5t-78.5 31q-40 0 -64 -12v-805z
M623 1300v-217h180v140q-51 19 -76 67.5t-29 139.5q-3 46 -14.5 60.5t-28.5 14.5q-11 0 -16.5 -5t-9.5 -27t-5 -60.5t-1 -112.5z" />
    <glyph glyph-name="f_f_b" unicode="ffb" horiz-adv-x="2824" 
d="M623 952v-786q0 -55 4.5 -77t17 -32t45.5 -20l15 -4v-33h-723v33l6 2q33 12 45.5 16t29 13.5t20 14.5t8.5 20t5 27v40v786h-129v25l129 96v29q0 98 33.5 176.5t102 137t179.5 90.5t259 32q226 0 321 -65q143 92 395 92q227 0 326 -74l324 63l18 -12q-8 -111 -8 -248v-350
h4q69 80 161.5 122t182.5 42q83 0 151 -26.5t124 -83.5t87 -157t31 -237q0 -135 -33 -241.5t-91.5 -178.5t-142 -119.5t-180 -68.5t-210.5 -21q-190 0 -353 41.5t-257 110.5v825h-181v-786q0 -69 16 -86.5t101 -42.5l14 -4v-33h-737v33l8 2q49 12 60.5 34t11.5 97v786h-190z
M2046 76q19 -39 78 -39q32 0 52.5 16t38 64t26 145.5t8.5 249.5q0 150 -16 234.5t-45 115.5t-79 31q-39 0 -63 -12v-805zM623 1274v-191h190v136q-33 20 -49 61.5t-25 122.5q-6 48 -17.5 62t-37.5 14q-24 0 -36 -14t-18.5 -58t-6.5 -133zM1339 1300v-217h181v140
q-51 19 -76 67.5t-29 139.5q-3 46 -14.5 60.5t-28.5 14.5q-11 0 -16.5 -5t-10 -26.5t-5.5 -61t-1 -112.5z" />
    <glyph glyph-name="f_f_h" unicode="ffh" horiz-adv-x="2844" 
d="M2126 0h-676v33l8 2q49 12 60.5 34t11.5 97v786h-191v-786q0 -77 10.5 -96t57.5 -33l14 -4v-33h-688v33l8 2q49 12 60.5 34t11.5 97v786h-190v-786q0 -55 4.5 -77t17 -32t45.5 -20l15 -4v-33h-723v33l6 2q33 12 45.5 16t29 13.5t20 14.5t8.5 20t5 27v40v786h-129v25
l129 96v29q0 98 33.5 176.5t102 137t179.5 90.5t259 32q229 0 321 -65q148 92 395 92q230 0 330 -78l330 67l18 -12q-8 -111 -8 -248v-348h4q201 162 402 162q129 0 210 -74t81 -200v-668q0 -69 14 -86.5t86 -42.5l12 -4v-33h-711v33l13 4q35 11 47 31t12 82v602
q0 78 -27 109.5t-81 31.5q-38 0 -62 -6v-737q0 -64 10.5 -84t44.5 -29l15 -4v-33zM623 1274v-191h190v136q-33 20 -49 61.5t-25 122.5q-6 48 -17.5 62t-37.5 14q-24 0 -36 -14t-18.5 -58t-6.5 -133zM1339 1300v-217h191v136q-57 17 -83.5 66.5t-31.5 144.5q-3 46 -14.5 60.5
t-28.5 14.5q-11 0 -16.5 -5t-10 -26.5t-5.5 -61t-1 -112.5z" />
    <glyph glyph-name="f_f_j" unicode="ffj" horiz-adv-x="2148" 
d="M623 952v-786q0 -55 4.5 -77t17 -32t45.5 -20l15 -4v-33h-723v33l6 2q33 12 45.5 16t29 13.5t20 14.5t8.5 20t5 27v40v786h-129v25l129 96v29q0 98 33.5 176.5t102 137t179.5 90.5t259 32q260 0 346 -86q174 113 457 113q198 0 324 -61t126 -175q0 -62 -55.5 -107.5
t-155.5 -45.5q-43 0 -72.5 4.5t-53.5 16.5t-39.5 29t-28 47t-20.5 64.5t-17 87.5q-7 45 -19.5 62.5t-36.5 17.5q-28 0 -45.5 -16t-29 -72t-11.5 -157v-177h299l412 25l14 -12q-8 -115 -8 -273v-760q0 -208 -159 -343.5t-414 -135.5q-195 0 -298.5 60.5t-103.5 165.5
q0 76 45 123t131 47q109 0 161 -64.5t61 -218.5q1 -27 6 -37t16 -10q10 0 16 9.5t9.5 40.5t3.5 87v1030q0 91 -18 113t-87 22h-86v-786q0 -69 16 -86.5t101 -42.5l14 -4v-33h-737v33l8 2q49 12 60.5 34t11.5 97v786h-190zM623 1274v-191h190v136q-33 20 -49 61.5t-25 122.5
q-6 48 -17.5 62t-37.5 14q-24 0 -36 -14t-18.5 -58t-6.5 -133z" />
    <glyph glyph-name="f_f_k" unicode="ffk" horiz-adv-x="2840" 
d="M1450 0v33l8 2q49 12 60.5 34t11.5 97v786h-191v-786q0 -77 10.5 -96t57.5 -33l14 -4v-33h-688v33l8 2q49 12 60.5 34t11.5 97v786h-190v-786q0 -55 4.5 -77t17 -32t45.5 -20l15 -4v-33h-723v33l6 2q33 12 45.5 16t29 13.5t20 14.5t8.5 20t5 27v40v786h-129v25l129 96v29
q0 98 33.5 176.5t102 137t179.5 90.5t259 32q229 0 321 -65q148 92 395 92q230 0 330 -78l330 67l18 -12q-8 -111 -8 -248v-1144q0 -62 12 -80.5t48 -30.5l18 -6v-33h-684zM2873 33v-33h-589q-158 280 -218 510v20l238 242q69 71 96 110.5t27 69.5q0 32 -28 52t-107 38
l-27 7v34h512v-34l-24 -7q-95 -24 -139 -48t-101 -85l-76 -80q72 -174 174 -385t174 -333q21 -36 35 -49.5t43 -24.5zM623 1274v-191h190v136q-33 20 -49 61.5t-25 122.5q-6 48 -17.5 62t-37.5 14q-24 0 -36 -14t-18.5 -58t-6.5 -133zM1339 1300v-217h191v136
q-57 17 -83.5 66.5t-31.5 144.5q-3 46 -14.5 60.5t-28.5 14.5q-11 0 -16.5 -5t-10 -26.5t-5.5 -61t-1 -112.5z" />
    <glyph glyph-name="f_h" unicode="fh" horiz-adv-x="2127" 
d="M623 952v-786q0 -55 4.5 -77t17 -32t45.5 -20l15 -4v-33h-723v33l6 2q33 12 45.5 16t29 13.5t20 14.5t8.5 20t5 27v40v786h-129v25l129 96v55q0 202 142 319.5t432 117.5q229 0 329 -78l330 67l19 -12q-9 -111 -9 -248v-348h4q201 162 402 162q129 0 210 -74t81 -200
v-668q0 -69 14 -86.5t86 -42.5l12 -4v-33h-710v33l12 4q35 11 47 31t12 82v602q0 78 -27 109.5t-81 31.5q-38 0 -62 -6v-737q0 -63 11 -83.5t45 -29.5l14 -4v-33h-676v33l8 2q49 12 60.5 34t11.5 97v786h-190zM623 1300v-217h190v136q-57 17 -83.5 66.5t-31.5 144.5
q-3 46 -14.5 60.5t-28.5 14.5q-11 0 -16.5 -5t-9.5 -27t-5 -60.5t-1 -112.5z" />
    <glyph glyph-name="f_j" unicode="fj" horiz-adv-x="1429" 
d="M623 1260v-177h299l411 25l15 -12q-9 -129 -9 -273v-760q0 -208 -159 -343.5t-414 -135.5q-195 0 -298 60.5t-103 165.5q0 76 45 123t131 47q109 0 160.5 -64t60.5 -219q1 -27 6 -37t16 -10q10 0 16 9.5t9.5 40.5t3.5 87v1030q0 91 -17.5 113t-86.5 22h-86v-786
q0 -69 15.5 -86.5t100.5 -42.5l15 -4v-33h-772v33l6 2q33 12 45.5 16t29 13.5t20 14.5t8.5 20t5 27v40v786h-129v25l129 96v8q0 219 174 351.5t486 132.5q198 0 324 -61t126 -175q0 -62 -55.5 -107.5t-155.5 -45.5q-43 0 -72.5 4.5t-53.5 16.5t-39.5 29t-28 47t-20.5 64.5
t-17 87.5q-7 45 -19.5 62.5t-35.5 17.5q-28 0 -45.5 -16t-29 -72t-11.5 -157z" />
    <glyph glyph-name="f_k" unicode="fk" horiz-adv-x="2123" 
d="M623 166q0 -55 4.5 -77t17 -32t45.5 -20l15 -4v-33h-723v33l6 2q33 12 45.5 16t29 13.5t20 14.5t8.5 20t5 27v40v786h-129v25l129 96v55q0 202 142 319.5t432 117.5q229 0 329 -78l330 67l19 -12q-9 -111 -9 -248v-1144q0 -62 12 -80.5t48 -30.5l18 -6v-33h-684v33l8 2
q49 12 60.5 34t11.5 97v786h-190v-786zM2157 33v-33h-590q-157 277 -217 510v20l237 242q69 71 96 110.5t27 69.5q0 32 -28 52t-107 38l-27 7v34h512v-34l-24 -7q-95 -24 -139 -48t-101 -85l-76 -80q72 -174 174 -385t174 -333q21 -36 35 -49.5t43 -24.5zM623 1300v-217h190
v136q-57 17 -83.5 66.5t-31.5 144.5q-3 46 -14.5 60.5t-28.5 14.5q-11 0 -16.5 -5t-9.5 -27t-5 -60.5t-1 -112.5z" />
    <glyph glyph-name=".notdef" horiz-adv-x="1019" 
 />
    <glyph glyph-name=".null" horiz-adv-x="0" 
 />
    <glyph glyph-name="nonmarkingreturn" horiz-adv-x="682" 
 />
    <glyph glyph-name="space" unicode=" " horiz-adv-x="329" 
 />
    <glyph glyph-name="exclam" unicode="!" horiz-adv-x="630" 
d="M102 188q0 87 60 146t153 59t153 -59t60 -146t-60 -145.5t-153 -58.5t-153 58.5t-60 145.5zM573 1044l-243 -573h-29l-244 573q-45 115 -32 203t89.5 140.5t200.5 52.5t200.5 -52.5t89.5 -140.5t-32 -203z" />
    <glyph glyph-name="quotedbl" unicode="&#x22;" horiz-adv-x="843" 
d="M233 883h-24l-141 301q-55 118 -10.5 194t163.5 76q120 0 164 -76t-10 -194zM633 883h-25l-141 301q-54 118 -10 194t164 76q119 0 163.5 -76t-10.5 -194z" />
    <glyph glyph-name="numbersign" unicode="#" horiz-adv-x="901" 
d="M399 0l86 373h-227l-86 -373h-53l86 373h-193l64 260h190l39 172h-190l59 260h191l84 354h53l-84 -354h227l84 354h53l-84 -354h191l-62 -260h-188l-39 -172h193l-62 -260h-192l-86 -373h-54zM358 805l-39 -172h228l39 172h-228z" />
    <glyph glyph-name="dollar" unicode="$" horiz-adv-x="1189" 
d="M580 -217h-52v192q-112 1 -200 15.5t-145.5 39.5t-95 59.5t-53.5 73t-16 83.5q0 79 48 124.5t139 45.5q94 0 145 -59.5t72 -206.5q8 -55 32 -83t74 -34v387q-40 13 -55 20q-134 49 -219.5 98.5t-137 113t-71.5 137t-20 176.5q0 202 146.5 334.5t391.5 142.5v129h51v-127
q244 -1 369 -70.5t125 -181.5q0 -73 -44.5 -112.5t-131.5 -39.5q-110 0 -159 56.5t-71 197.5q-7 47 -29 68t-59 24v-333q44 -19 95 -37q262 -99 360 -210.5t98 -305.5q0 -108 -39 -201t-112.5 -163t-185.5 -112t-250 -47v-194zM748 213q0 61 -40 103.5t-128 80.5v-366
q84 4 126 52t42 130zM412 1239q0 -56 33 -91.5t118 -72.5v311q-65 -5 -108 -42t-43 -105z" />
    <glyph glyph-name="percent" unicode="%" horiz-adv-x="1544" 
d="M154 -102l1114 1564h73l-1114 -1564h-73zM410 737q-187 0 -292.5 93t-105.5 255q0 161 111.5 260t302.5 99q184 0 290.5 -93t106.5 -253q0 -158 -115.5 -259.5t-297.5 -101.5zM348 1098q0 -124 8 -190.5t22.5 -87.5t39.5 -21q26 0 39.5 18.5t21.5 82t8 185.5
q0 126 -7.5 191t-21.5 86.5t-40 21.5q-27 0 -40.5 -19t-21.5 -81.5t-8 -185.5zM1118 -25q-187 0 -292 93.5t-105 255.5q0 160 111.5 259t302.5 99q184 0 290.5 -93t106.5 -253q0 -157 -116 -259t-298 -102zM1057 336q0 -124 8 -190.5t22 -87.5t39 -21q26 0 39.5 19t22 82.5
t8.5 185.5q0 125 -7.5 190.5t-22 87t-40.5 21.5q-27 0 -40.5 -19t-21 -82t-7.5 -186z" />
    <glyph glyph-name="ampersand" unicode="&#x26;" horiz-adv-x="1710" 
d="M1415 633q0 36 -26.5 61.5t-81.5 48.5l-39 17v33h428v-29l-25 -12q-64 -33 -105.5 -74.5t-82.5 -128.5q-8 -17 -27.5 -58t-34.5 -71t-32 -58q45 -54 178 -206q42 -49 70 -72.5t65 -42.5l16 -8v-33h-702q-3 3 -27.5 24t-36.5 33q-149 -84 -340 -84q-290 0 -442 105.5
t-152 294.5q0 276 416 422q-41 109 -41 200q0 90 37.5 170.5t108 143t182 99t248.5 36.5q189 0 300 -70.5t111 -202.5q0 -96 -89 -180t-269 -145q118 -178 328 -434q65 141 65 221zM498 655q-2 -23 -2 -73q0 -211 104.5 -349.5t257.5 -138.5q39 0 53 4q-263 270 -413 557z
M1063 1174q0 215 -98 215q-42 0 -67.5 -40.5t-25.5 -105.5q0 -83 27.5 -164.5t89.5 -183.5q74 106 74 279z" />
    <glyph glyph-name="quotesingle" unicode="'" horiz-adv-x="442" 
d="M233 883h-24l-141 301q-55 118 -10.5 194t163.5 76q120 0 164 -76t-10 -194z" />
    <glyph glyph-name="parenleft" unicode="(" horiz-adv-x="604" 
d="M295 659q0 -292 72.5 -519.5t224.5 -413.5l-10 -15q-105 67 -198.5 159.5t-169.5 206.5t-120.5 252.5t-44.5 280.5q0 151 45 294t122 257.5t169 205.5t197 159l10 -15q-297 -363 -297 -852z" />
    <glyph glyph-name="parenright" unicode=")" horiz-adv-x="604" 
d="M309 578q0 292 -72.5 519.5t-224.5 413.5l11 15q105 -67 198.5 -159.5t169 -206.5t120 -252.5t44.5 -280.5q0 -151 -44.5 -294t-121.5 -257.5t-169 -205.5t-197 -159l-11 15q297 363 297 852z" />
    <glyph glyph-name="asterisk" unicode="*" horiz-adv-x="714" 
d="M547 1073l-180 33l170 -84q53 -26 72 -63.5t5 -75t-55 -66.5q-58 -42 -111 -15t-65 113l-25 183l-28 -183q-13 -86 -65.5 -113t-110.5 15q-41 28 -54.5 66.5t6 76t70.5 62.5l174 84l-182 -33q-83 -15 -123.5 30t-17.5 114q24 73 83.5 84.5t118.5 -50.5l125 -135l-92 164
q-40 74 -10 126t106 52q75 0 103 -51.5t-10 -126.5l-89 -164l125 135q59 62 119 50.5t84 -84.5q23 -68 -18 -113.5t-125 -30.5z" />
    <glyph glyph-name="plus" unicode="+" horiz-adv-x="993" 
d="M461 285v391h-371v63h371v389h71v-389h371v-63h-371v-391h-71z" />
    <glyph glyph-name="comma" unicode="," horiz-adv-x="532" 
d="M25 -225l-7 26q277 80 295 301q-40 -57 -123 -57q-66 0 -112.5 46.5t-46.5 121.5q0 91 61.5 147t161.5 56q105 0 174.5 -67.5t69.5 -188.5q0 -157 -123 -258.5t-350 -126.5z" />
    <glyph glyph-name="hyphen" unicode="-" horiz-adv-x="565" 
d="M16 475l31 238h502l-31 -238h-502z" />
    <glyph glyph-name="period" unicode="." horiz-adv-x="524" 
d="M39 199q0 92 63 153.5t160 61.5t160 -61.5t63 -153.5t-63 -153.5t-160 -61.5t-160 61.5t-63 153.5z" />
    <glyph glyph-name="slash" unicode="/" horiz-adv-x="778" 
d="M754 1503l-682 -1769h-76l682 1769h76z" />
    <glyph glyph-name="zero" unicode="0" horiz-adv-x="1560" 
d="M780 31q33 0 52.5 24.5t33 97.5t18.5 198.5t5 336.5q0 308 -13 463t-34 196.5t-62 41.5q-31 0 -48.5 -20.5t-32.5 -88t-21 -202.5t-6 -357q0 -224 4.5 -355.5t18 -208.5t33 -101.5t52.5 -24.5zM772 -25q-167 0 -303.5 46.5t-234.5 136t-151.5 227t-53.5 311.5
q0 180 63.5 325t170 236t240 139t279.5 48q160 0 296.5 -48.5t237.5 -139t158.5 -230.5t57.5 -313q0 -176 -60 -318t-164.5 -233t-241 -139t-294.5 -48z" />
    <glyph glyph-name="one" unicode="1" horiz-adv-x="903" 
d="M762 1430v-1211v-50t2 -37t3 -28t7 -19.5t9.5 -15t15.5 -10t20.5 -9.5t28.5 -9l26 -8v-33h-858v33l31 8q33 10 46.5 16t27 15.5t17 29t5.5 44t2 73.5v928l-147 51v33q524 64 727 215z" />
    <glyph glyph-name="two" unicode="2" horiz-adv-x="1228" 
d="M551 1444q325 0 487 -105t162 -292q0 -144 -90 -254t-295 -204t-543 -175v-8h715q66 0 91 25.5t63 135.5h35l-29 -567h-1122v287q76 53 116.5 82.5t109 87.5t118.5 114q229 253 229 590q0 97 -5 144t-16.5 64t-35.5 17q-50 0 -58 -120q-13 -168 -72.5 -238t-185.5 -70
q-95 0 -148.5 52.5t-53.5 142.5q0 128 134.5 209.5t393.5 81.5z" />
    <glyph glyph-name="three" unicode="3" horiz-adv-x="1273" 
d="M524 -25q-497 0 -497 261q0 77 50.5 126.5t143.5 49.5q112 0 169.5 -62.5t70.5 -224.5q4 -56 18 -74t43 -18q44 0 67 85t23 285q0 179 -40.5 243.5t-155.5 64.5h-74v63h74q81 0 126.5 26t68 92t22.5 187q0 133 -10.5 203.5t-24 87t-37.5 16.5q-26 0 -38 -17.5t-17 -53.5
q-23 -170 -77.5 -237.5t-168.5 -67.5q-93 0 -147 48t-54 130q0 44 16 81t54.5 70t98 55.5t151 36t209.5 13.5q309 0 455.5 -92t146.5 -256q0 -63 -20 -114t-66 -95.5t-126.5 -77t-195.5 -51.5v-8q237 -7 351 -93.5t114 -253.5q0 -203 -186 -315.5t-537 -112.5z" />
    <glyph glyph-name="four" unicode="4" horiz-adv-x="1327" 
d="M1282 33v-33h-905v33l33 8q88 23 110.5 52.5t22.5 125.5v187h-514v112l680 901h421v-858h177l-11 -155h-166v-187q0 -98 20.5 -128t102.5 -50zM154 561h389v522h-6l-383 -516v-6z" />
    <glyph glyph-name="five" unicode="5" horiz-adv-x="1202" 
d="M535 33q54 0 92.5 61t38.5 178q0 267 -332 267q-126 0 -217 -43l-27 18l105 905h743q61 0 85.5 19t63.5 92h37l-51 -508h-856l-16 -141q146 47 366 47q607 0 607 -465q0 -103 -46 -192t-131.5 -155t-216.5 -103.5t-293 -37.5q-469 0 -469 256q0 75 54 126t143 51
q114 0 173.5 -62.5t72.5 -220.5q8 -92 74 -92z" />
    <glyph glyph-name="six" unicode="6" horiz-adv-x="1435" 
d="M786 1389q-32 0 -55 -26t-41.5 -91t-28 -187.5t-10.5 -304.5q58 29 142 47.5t170 18.5q216 0 333 -103.5t117 -298.5q0 -218 -174 -343.5t-520 -125.5q-148 0 -271.5 41.5t-218 124.5t-147.5 220t-53 317q0 188 58 334.5t163.5 240.5t249.5 142.5t321 48.5
q269 0 395.5 -69.5t126.5 -190.5q0 -89 -57.5 -142t-150.5 -53q-125 0 -184 65.5t-89 250.5q-7 46 -25 65t-51 19zM745 31q54 0 74.5 90.5t20.5 316.5q0 163 -35.5 227t-104.5 64q-30 0 -51 -8v-135q0 -190 5 -302.5t18.5 -167.5t29 -70t43.5 -15z" />
    <glyph glyph-name="seven" unicode="7" horiz-adv-x="1202" 
d="M190 0q25 158 98.5 302.5t189 268t251.5 227.5t307 203h-762q-43 0 -65 -4.5t-45.5 -25.5t-41.5 -57t-46 -107h-35l39 612h1098v-303q-109 -139 -179.5 -281t-102 -275.5t-40 -276t7.5 -283.5h-674z" />
    <glyph glyph-name="eight" unicode="8" horiz-adv-x="1323" 
d="M27 283q0 95 73 158.5t242 95.5v4q-289 134 -289 436q0 84 32.5 158.5t90.5 130t134.5 96.5t166.5 61.5t185 20.5q269 0 421 -83.5t152 -207.5q0 -190 -274 -235v-7q160 -63 247.5 -168.5t87.5 -275.5q0 -216 -178 -354t-485 -138q-290 0 -448 86.5t-158 221.5zM881 205
q0 34 -9.5 61t-33.5 51t-53.5 43.5t-82 42t-106.5 43t-137 50.5q-26 9 -39 14q-53 -97 -53 -209q0 -127 80 -198.5t206 -71.5q104 0 166 50t62 124zM438 1231q0 -106 117 -172q69 -39 262 -99q37 -11 47 -14q25 73 25 189q0 122 -59 188t-179 66q-95 0 -154 -43.5
t-59 -114.5z" />
    <glyph glyph-name="nine" unicode="9" horiz-adv-x="1435" 
d="M692 1444q220 0 378.5 -74t247.5 -230.5t89 -385.5q0 -398 -217 -588.5t-645 -190.5q-234 0 -360 67.5t-126 188.5q0 82 50.5 138.5t158.5 56.5q126 0 189 -70t86 -245q12 -80 73 -80q65 0 99 50.5t50.5 178t18.5 373.5q-133 -58 -295 -58q-226 0 -346 106t-120 302
q0 101 38 183t116.5 145.5t209.5 98t305 34.5zM690 1389q-52 0 -73 -91.5t-21 -312.5q0 -161 36 -229t105 -68q22 0 49 6v140q0 186 -4 292t-16 166.5t-28.5 78.5t-47.5 18z" />
    <glyph glyph-name="colon" unicode=":" horiz-adv-x="520" 
d="M37 199q0 92 63 153.5t160 61.5t160 -61.5t63 -153.5t-63 -153.5t-160 -61.5t-160 61.5t-63 153.5zM37 735q0 92 63 153.5t160 61.5t160 -61.5t63 -153.5t-63 -153.5t-160 -61.5t-160 61.5t-63 153.5z" />
    <glyph glyph-name="semicolon" unicode=";" horiz-adv-x="518" 
d="M25 -225l-7 26q277 80 295 301q-40 -57 -123 -57q-66 0 -112.5 46.5t-46.5 121.5q0 91 61.5 147t161.5 56q105 0 174.5 -67.5t69.5 -188.5q0 -157 -123 -258.5t-350 -126.5zM29 735q0 92 63 153.5t160 61.5t160 -61.5t63 -153.5t-63 -153.5t-160 -61.5t-160 61.5
t-63 153.5z" />
    <glyph glyph-name="less" unicode="&#x3c;" horiz-adv-x="974" 
d="M866 270l-772 351v65l772 350v-73l-686 -310l686 -309v-74z" />
    <glyph glyph-name="equal" unicode="=" horiz-adv-x="1120" 
d="M96 795v67h928v-67h-928zM96 510v68h928v-68h-928z" />
    <glyph glyph-name="greater" unicode="&#x3e;" horiz-adv-x="974" 
d="M881 621l-772 -351v74l686 309l-686 310v73l772 -350v-65z" />
    <glyph glyph-name="question" unicode="?" horiz-adv-x="1034" 
d="M485 1389q-17 0 -26 -11.5t-12 -24.5t-5 -40q-15 -158 -74.5 -223.5t-172.5 -65.5q-86 0 -136.5 48t-50.5 128q0 112 115.5 178t349.5 66q252 0 392.5 -108t140.5 -302q0 -150 -86.5 -259t-230 -165t-331.5 -65v-74h-57v444q113 16 188.5 93t75.5 206q0 175 -80 175z
M166 188q0 87 60 146t153 59t153 -59t60 -146t-60 -145.5t-153 -58.5t-153 58.5t-60 145.5z" />
    <glyph glyph-name="at" unicode="@" horiz-adv-x="1906" 
d="M874 254q40 0 70 43l141 649q-15 41 -51 41q-37 0 -77 -57.5t-71.5 -146.5t-52 -203.5t-20.5 -221.5q0 -104 61 -104zM1260 61q-235 0 -297 183h-5q-53 -86 -133.5 -134.5t-173.5 -48.5q-118 0 -192 77t-74 214q0 141 46.5 265.5t130 216t207.5 145t271 53.5
q89 0 177 -30t147 -80h6l168 96l12 -8q-22 -53 -63 -254l-84 -408q-26 -101 -19.5 -154t60.5 -53q32 0 67.5 16t74 57t69 101t50 157.5t19.5 217.5q0 112 -24.5 208.5t-76.5 177t-127.5 137.5t-182.5 88.5t-238 31.5q-130 0 -254.5 -34.5t-236 -106.5t-195.5 -174
t-133 -247.5t-49 -315.5q0 -334 180.5 -517.5t523.5 -183.5q261 0 504 103v-35q-87 -50 -241.5 -89.5t-319.5 -39.5q-139 0 -262 28t-226 87t-177.5 144.5t-116 206t-41.5 265.5q0 170 56.5 323t156 268t231 199.5t286 128t316.5 43.5q242 0 423.5 -79.5t281.5 -232.5
t100 -361q0 -127 -34 -234t-92.5 -183t-137.5 -130t-169.5 -79.5t-188.5 -25.5z" />
    <glyph glyph-name="A" unicode="A" 
d="M-12 0v33l10 4q44 18 65.5 38t44 65.5t62.5 152.5l412 1126h356l395 -1120q62 -176 81 -207q16 -26 50 -44q3 -2 9 -5l18 -10v-33h-932v33l53 10q53 12 75 35.5t22 66.5q0 52 -31 154l-45 145h-326l-51 -145q-45 -130 -45 -172q0 -32 20.5 -51t79.5 -33l39 -10v-33h-362z
M479 934l-149 -424h284l-129 424h-6z" />
    <glyph glyph-name="B" unicode="B" horiz-adv-x="1546" 
d="M16 0v33l25 8q23 8 34 12t22 14.5t14.5 17.5t6.5 30.5t3 41.5v62v981v62t-3 41.5t-6.5 30.5t-14.5 17.5t-22 14.5t-34 12l-25 8v33h834q238 0 378.5 -37t199.5 -109t59 -192q0 -132 -92.5 -211t-300.5 -100v-8q227 -10 337.5 -100.5t110.5 -249.5q0 -136 -61.5 -225
t-205 -138t-372.5 -49h-887zM807 70q39 0 60.5 31t32.5 111.5t11 227.5q0 118 -14.5 177.5t-44 79.5t-88.5 20h-29v-543q0 -57 17 -80.5t55 -23.5zM735 778h27q56 0 84 20t41.5 78t13.5 173q0 124 -13 189.5t-38 88.5t-72 23q-25 0 -43 -9v-563z" />
    <glyph glyph-name="C" unicode="C" horiz-adv-x="1404" 
d="M827 -25q-380 0 -589 189.5t-209 533.5q0 150 42.5 273.5t118 210.5t181.5 146.5t230.5 87.5t266.5 28q246 0 404 -47l43 -494h-31q-123 208 -242 361q-55 71 -92 98t-80 27q-72 0 -113.5 -59.5t-61 -200.5t-19.5 -390q0 -273 26 -431.5t71.5 -217.5t119.5 -59
q59 0 102 34t99 113q71 98 206 359h31l-28 -484q-206 -78 -476 -78z" />
    <glyph glyph-name="D" unicode="D" horiz-adv-x="1644" 
d="M16 0v33l25 8q23 8 34 12t22 14.5t14.5 17.5t6.5 30.5t3 41.5v62v981v62t-3 41.5t-6.5 30.5t-14.5 17.5t-22 14.5t-34 12l-25 8v33h813q389 0 588 -166.5t199 -498.5q0 -357 -208 -555.5t-579 -198.5h-813zM817 66q38 0 65 28t48 97.5t31 195t10 311.5q0 203 -10 332.5
t-33 200t-53 96t-76 25.5q-34 0 -60 -11v-1169q0 -58 18.5 -82t59.5 -24z" />
    <glyph glyph-name="E" unicode="E" horiz-adv-x="1345" 
d="M1030 1022v-584h-29q-46 132 -73 180q-27 49 -57 66.5t-97 17.5h-35v-516q0 -71 27 -94.5t104 -23.5q90 0 132.5 28t101.5 119q74 115 168 338h28l-26 -553h-1258v33l25 8q23 8 34 12t22 14.5t14.5 17.5t6.5 30.5t3 41.5v62v981v62t-3 41.5t-6.5 30.5t-14.5 17.5
t-22 14.5t-34 12l-25 8v33h1221l16 -495h-28q-103 194 -176 299q-53 73 -93 101t-106 28q-69 0 -111 -11v-575h35q67 0 97 16.5t57 63.5q24 40 73 176h29z" />
    <glyph glyph-name="F" unicode="F" horiz-adv-x="1304" 
d="M801 684h-62v-465q0 -38 0.5 -58.5t6.5 -40t11 -28t23 -19t33.5 -15.5t50.5 -15l37 -10v-33h-885v33l25 8q24 8 34 11.5t22 14t14.5 16.5t6 30t3.5 42v64v981v64t-3.5 42t-6 30t-14.5 16.5t-22 14t-34 11.5l-25 8v33h1231l17 -506h-31q-97 193 -176 310
q-52 76 -93.5 102.5t-109.5 26.5q-67 0 -115 -11v-593h62q68 0 98 16t57 63q25 43 74 177h29v-584h-29q-44 127 -74 180q-27 49 -57.5 66.5t-97.5 17.5z" />
    <glyph glyph-name="G" unicode="G" 
d="M1430 422v-352q-95 -42 -261 -68.5t-325 -26.5q-815 0 -815 732q0 130 33.5 239t94.5 189t143 140t184 96.5t212.5 54.5t231.5 18q120 0 229 -13.5t162 -33.5l33 -498h-33q-90 145 -225 322q-79 102 -119.5 133.5t-85.5 31.5q-118 0 -165.5 -157t-47.5 -498
q0 -434 19.5 -567t109.5 -133q34 0 55 12v381v63t-3.5 42t-7 29.5t-15 17.5t-22.5 14t-34 12l-18 6v33h747v-33l-10 -4q-23 -9 -33 -15.5t-19 -14.5t-11 -30t-3 -42.5t-1 -72.5v-7z" />
    <glyph glyph-name="H" unicode="H" horiz-adv-x="1695" 
d="M831 0h-815v33l25 8q23 8 34 12t22 14.5t14.5 17.5t6.5 30.5t3 41.5v62v981v62t-3 41.5t-6.5 30.5t-14.5 17.5t-22 14.5t-34 12l-25 8v33h815v-33l-10 -4q-59 -24 -70.5 -50t-11.5 -132v-436h217v436q0 106 -11.5 132t-70.5 50l-10 4v33h815v-33l-24 -8q-23 -8 -34 -12
t-22 -14.5t-14.5 -17.5t-6.5 -30.5t-3 -41.5v-62v-981v-62t3 -41.5t6.5 -30.5t14.5 -17.5t22 -14.5t34 -12l24 -8v-33h-815v33l10 4q59 24 70.5 50t11.5 132v475h-217v-475q0 -106 11.5 -132t70.5 -50l10 -4v-33z" />
    <glyph glyph-name="I" unicode="I" horiz-adv-x="870" 
d="M16 0v33l27 8q17 5 27 8.5t20 10t15 10t9.5 16t6 19.5t3 29t1.5 36.5v48.5v981v63t-3 42t-7 30.5t-14.5 17.5t-22.5 15t-35 10l-27 8v33h838v-33l-27 -8q-17 -5 -27 -8.5t-20 -10t-15 -10t-9.5 -16t-6 -19.5t-3 -29t-1.5 -36.5v-48.5v-981v-48.5t1.5 -36.5t3 -29t6 -19.5
t9.5 -16t15 -10t20 -10t27 -8.5l27 -8v-33h-838z" />
    <glyph glyph-name="J" unicode="J" horiz-adv-x="1216" 
d="M477 180v1020q0 73 -7.5 104.5t-25.5 45t-65 28.5l-27 8v33h848v-33l-24 -8q-23 -8 -34 -12t-22 -14.5t-14.5 -17.5t-6.5 -30.5t-3 -41.5v-62v-655q0 -254 -174.5 -409.5t-481.5 -155.5q-252 0 -369.5 73t-117.5 197q0 84 52.5 139t152.5 55q129 0 185 -80t67 -272
q1 -25 7.5 -34t20.5 -9q22 0 30.5 27.5t8.5 103.5z" />
    <glyph glyph-name="K" unicode="K" horiz-adv-x="1675" 
d="M16 1419h834v-33l-27 -8q-23 -7 -35 -11t-23 -14.5t-15 -18t-7 -30t-3.5 -42.5t-0.5 -62v-981v-62t3 -41.5t6.5 -30t14.5 -17t22 -15t34 -12.5l23 -8v-33h-826v33l25 8q23 8 34 12t22 14.5t14.5 17.5t6.5 30.5t3 41.5v62v981v62t-3 41.5t-6.5 30.5t-14.5 17.5t-22 14.5
t-34 12l-25 8v33zM1008 0q-167 345 -256 655v21l309 344q96 108 130 166.5t34 99.5q0 33 -23.5 53.5t-91.5 38.5l-31 8v33h484v-33l-17 -6q-80 -28 -133.5 -71t-120.5 -125l-96 -119q223 -570 430 -932q3 -5 11.5 -20t10.5 -18.5t8.5 -14t10 -14t9.5 -10t11.5 -10.5t12.5 -7
l12 -6v-33h-704z" />
    <glyph glyph-name="L" unicode="L" horiz-adv-x="1345" 
d="M1284 0h-1268v33l25 8q23 8 34 12t22 14.5t14.5 17.5t6.5 30.5t3 41.5v62v981v62t-3 41.5t-6.5 30.5t-14.5 17.5t-22 14.5t-34 12l-25 8v33h881v-33l-29 -8q-92 -26 -110.5 -52t-18.5 -126v-1014q0 -69 32 -94.5t103 -25.5q64 0 108.5 27.5t107.5 115.5
q48 65 105.5 172.5t102.5 210.5h31z" />
    <glyph glyph-name="M" unicode="M" horiz-adv-x="1835" 
d="M309 33v-33h-293v33l29 10q39 14 54.5 29.5t20.5 45t5 101.5v981v48.5t-1.5 36.5t-3 29.5t-6 20t-9 16t-14.5 10t-19.5 9.5t-26.5 8l-29 8v33h713l176 -547h6l183 547h725v-33l-27 -8q-17 -5 -27 -8.5t-20 -10t-15 -10t-9.5 -16t-6 -19.5t-3 -29t-1.5 -36.5v-48.5v-981
v-48.5t1.5 -36.5t3 -29t6 -19.5t9.5 -16t15 -10t20 -10t27 -8.5l27 -8v-33h-844v33l29 8q27 8 40.5 14.5t24.5 15.5t14.5 30t5 45t1.5 73v950h-9l-381 -1138h-127l-370 1138h-8v-950q0 -73 5 -101.5t20.5 -44t58.5 -30.5z" />
    <glyph glyph-name="N" unicode="N" horiz-adv-x="1404" 
d="M1391 1419v-33l-29 -10q-40 -15 -55.5 -29.5t-22 -45.5t-6.5 -101v-1200h-342l-737 1053h-9v-834q0 -55 2 -81t13.5 -45.5t27.5 -27.5t52 -18l51 -14v-33h-322v33l27 10q58 23 69 48t11 128v981q0 73 -5 101.5t-19.5 44t-55.5 30.5l-27 10v33h688l498 -698h8v491
q0 91 -16 115.5t-88 46.5l-41 12v33h328z" />
    <glyph glyph-name="O" unicode="O" horiz-adv-x="1605" 
d="M799 -25q-109 0 -215.5 25t-207.5 81.5t-177.5 138t-123 203.5t-46.5 269q0 114 26 213.5t71 175t107 137t131.5 103t146 70t150 41t144.5 12.5q112 0 216.5 -21.5t207.5 -74t178.5 -131.5t122.5 -205t47 -283q0 -159 -50.5 -290t-130.5 -215t-184.5 -142t-208 -82.5
t-204.5 -24.5zM803 31q51 0 77 54t38 191t12 402q0 233 -5.5 369.5t-21.5 214.5t-38.5 102.5t-61.5 24.5t-61.5 -25t-38.5 -97.5t-21.5 -195.5t-5.5 -328q0 -228 5.5 -363.5t21.5 -215t38.5 -106.5t61.5 -27z" />
    <glyph glyph-name="P" unicode="P" horiz-adv-x="1521" 
d="M16 0v33l25 8q23 8 34 12t22 14.5t14.5 17.5t6.5 30.5t3 41.5v62v981v62t-3 41.5t-6.5 30.5t-14.5 17.5t-22 14.5t-34 12l-25 8v33h805q254 0 403 -43t215 -134t66 -245q0 -204 -136.5 -318t-428.5 -114q-86 0 -158 21v28q51 14 76.5 42t39 104t13.5 223q0 119 -8 195
t-26 113.5t-39 50t-54 12.5q-27 0 -43 -8v-1127q0 -39 0.5 -59t6 -40.5t10.5 -28.5t22.5 -18.5t33 -15t50.5 -14.5l37 -10v-33h-885z" />
    <glyph glyph-name="Q" unicode="Q" horiz-adv-x="1605" 
d="M1126 -352q-257 0 -442 147q-30 23 -59.5 54t-46.5 51t-55.5 69t-55.5 70q-91 37 -166.5 92.5t-138.5 134t-98 188t-35 238.5q0 114 26 213.5t71 175t107 137t131.5 103t146 70t150 41t144.5 12.5q112 0 216.5 -21.5t207.5 -74t178.5 -131.5t122.5 -205t47 -283
q0 -134 -32.5 -245t-90.5 -190t-129 -134t-158 -92v-5q30 -47 90 -116q44 -51 90.5 -71.5t114.5 -20.5q97 0 156 30v-35q-186 -202 -492 -202zM803 47q49 0 75.5 50.5t39 186.5t12.5 394q0 233 -5.5 369.5t-21.5 214.5t-38.5 102.5t-61.5 24.5t-61.5 -25t-38.5 -97.5
t-21.5 -195.5t-5.5 -328q0 -294 13 -444t38.5 -201t75.5 -51z" />
    <glyph glyph-name="R" unicode="R" horiz-adv-x="1638" 
d="M774 686q82 0 116 73t34 269q0 178 -29.5 250t-99.5 72q-29 0 -60 -9v-651q16 -4 39 -4zM838 0h-822v33l25 8q23 8 34 12t22 14.5t14.5 17.5t6.5 30.5t3 41.5v62v981v62t-3 41.5t-6.5 30.5t-14.5 17.5t-22 14.5t-34 12l-25 8v33h904q319 0 468.5 -99.5t149.5 -295.5
q0 -124 -50 -216.5t-140 -131.5v-6q128 -355 254 -547q33 -49 45 -59q12 -9 43 -23l18 -8v-33h-709q-68 138 -128 305t-97 318h-39v-404v-62t3 -41.5t6.5 -30t14.5 -17t22 -15t34 -12.5l23 -8v-33z" />
    <glyph glyph-name="S" unicode="S" horiz-adv-x="1200" 
d="M524 -25q-262 0 -448 70l-31 447h31q116 -192 198 -293q76 -94 137.5 -131t131.5 -37q92 0 147 46.5t55 121.5q0 85 -71 142.5t-242 121.5q-120 45 -199.5 95t-125 111.5t-64 128.5t-18.5 156q0 217 166 353.5t456 136.5q239 0 416 -68l18 -407h-30q-94 151 -203 284
q-62 76 -113.5 106t-109.5 30q-80 0 -132.5 -42.5t-52.5 -115.5q0 -75 68 -122t250 -110q232 -82 327 -198t95 -293q0 -152 -81 -273t-231 -190.5t-344 -69.5z" />
    <glyph glyph-name="T" unicode="T" 
d="M1075 1354h-14v-1135q0 -99 20.5 -127t110.5 -51l35 -8v-33h-951v33l35 8q90 23 110.5 51t20.5 127v1135h-16q-48 0 -82.5 -29.5t-89.5 -120.5q-78 -131 -193 -362h-28l14 577h1409l14 -577h-28q-108 217 -193 362q-53 91 -87.5 120.5t-86.5 29.5z" />
    <glyph glyph-name="U" unicode="U" horiz-adv-x="1460" 
d="M743 1200v-801q0 -139 67 -207.5t194 -68.5q125 0 192.5 74t67.5 225v792q0 93 -16.5 119t-86.5 43l-41 10v33h326v-33l-19 -6q-27 -9 -38 -13t-25.5 -13.5t-18 -18t-8.5 -28.5t-5.5 -42.5t-0.5 -62.5v-790q0 -219 -131.5 -328t-427.5 -109q-339 0 -491 112.5t-152 363.5
v749v62t-3.5 42t-7 29t-15.5 17t-23 14t-35 12l-31 10v33h854v-33l-34 -10q-24 -7 -35.5 -11.5t-24 -13.5t-17 -18t-9 -28.5t-5 -42.5t-0.5 -62z" />
    <glyph glyph-name="V" unicode="V" horiz-adv-x="1505" 
d="M1497 1419v-33l-8 -4q-39 -19 -59 -39t-44 -68t-59 -147l-401 -1128h-353l-436 1174q-32 87 -49.5 125t-28 50.5t-34.5 26.5l-17 10v33h916v-33l-45 -12q-53 -13 -75 -37t-22 -67q0 -41 33 -150l203 -624h6l217 624q37 107 37 158q0 40 -20.5 60.5t-81.5 37.5l-37 10v33
h358z" />
    <glyph glyph-name="W" unicode="W" horiz-adv-x="2318" 
d="M1982 1419h328v-33l-12 -6q-55 -28 -80 -68.5t-74 -183.5l-370 -1128h-338l-273 819l-252 -819h-356l-410 1163q-36 96 -52 131t-28 50t-40 32l-17 10v33h842v-33l-19 -8q-33 -15 -46 -34.5t-13 -55.5q0 -43 41 -172l184 -584h7l122 398l-84 256q-39 117 -64.5 150
t-86.5 48l-8 2v33h886v-33l-20 -8q-51 -20 -69.5 -42t-18.5 -60q0 -28 37 -158l170 -586h6l192 613q29 84 29 131q0 40 -18.5 62.5t-69.5 39.5l-25 8v33z" />
    <glyph glyph-name="X" unicode="X" horiz-adv-x="1550" 
d="M672 272l-140 277h-4l-163 -277q-58 -95 -58 -141q0 -32 23.5 -51.5t83.5 -36.5l37 -10v-33h-451v33l16 6q89 37 119 63t96 127l261 394l-308 569q-59 110 -81 137.5t-64 46.5l-23 10v33h961v-33l-41 -12q-50 -15 -72 -36.5t-22 -53.5q0 -39 53 -137l127 -246h4l141 246
q54 93 54 137q0 62 -95 90l-41 12v33h441v-33l-27 -10q-5 -2 -22.5 -9.5t-21.5 -9.5t-18 -8.5t-18.5 -10t-16 -11.5t-17.5 -15t-17 -18.5t-19.5 -24t-20 -29t-23.5 -36.5l-242 -381l342 -630q49 -90 66.5 -111t60.5 -41l18 -8v-33h-962v33l37 10q58 17 79 37.5t21 52.5
q0 23 -10 48t-43 91z" />
    <glyph glyph-name="Y" unicode="Y" horiz-adv-x="1490" 
d="M1495 1419v-33l-8 -4q-47 -24 -78.5 -65t-89.5 -156l-258 -514v-428q0 -69 10 -100t35.5 -46t89.5 -32l33 -8v-33h-953v33l33 8q64 17 89.5 32t35.5 46t10 100v418l-356 635q-33 60 -45 74t-41 30l-18 10v33h968v-33l-43 -12q-64 -18 -91 -43.5t-27 -62.5q0 -49 30 -111
l201 -401h6l186 364q46 95 46 154q0 35 -23.5 58.5t-83.5 41.5l-41 12v33h383z" />
    <glyph glyph-name="Z" unicode="Z" horiz-adv-x="1423" 
d="M29 0v72l647 1278v6h-55q-83 0 -132.5 -13.5t-78.5 -38t-68 -77.5q-100 -140 -225 -371h-29l39 563h1235v-71l-645 -1276v-9h26q128 0 190.5 12.5t103 44t96.5 109.5q82 113 210 363h31l-51 -592h-1294z" />
    <glyph glyph-name="bracketleft" unicode="[" horiz-adv-x="593" 
d="M322 1290v-1341q0 -43 0.5 -63t8 -42t14.5 -29t32 -16.5t48.5 -13t74.5 -10.5l78 -11v-30h-476v1769h476v-30l-78 -11q-52 -7 -74.5 -10t-48 -12.5t-32.5 -16.5t-15 -29t-8 -41.5v-62.5z" />
    <glyph glyph-name="backslash" unicode="\" horiz-adv-x="778" 
d="M707 -266l-682 1769h75l682 -1769h-75z" />
    <glyph glyph-name="bracketright" unicode="]" horiz-adv-x="593" 
d="M272 -51v1341v62.5t-8 41.5t-15 29t-32.5 16.5t-48 12.5t-74.5 10l-78 11v30h476v-1769h-476v30l78 11q51 7 74.5 10.5t48.5 13t32 16.5t14.5 29t8 42t0.5 63z" />
    <glyph glyph-name="asciicircum" unicode="^" horiz-adv-x="827" 
d="M414 1120l-396 -252l-10 11l344 540h123l344 -540l-10 -11z" />
    <glyph glyph-name="underscore" unicode="_" horiz-adv-x="854" 
d="M0 -324v76h854v-76h-854z" />
    <glyph glyph-name="grave" unicode="`" horiz-adv-x="983" 
d="M717 1174l-10 -19l-365 76q-64 13 -98.5 51t-34.5 90q0 69 42.5 116.5t110.5 47.5q82 0 144 -80z" />
    <glyph glyph-name="a" unicode="a" horiz-adv-x="1271" 
d="M334 -25q-145 0 -230.5 83t-85.5 208q0 49 11.5 88t36.5 68t54 50.5t74 39t85.5 29.5t99.5 26l266 56v184q0 141 -17 191.5t-55 50.5q-29 0 -41.5 -22t-17.5 -77q-12 -172 -67 -236.5t-189 -64.5q-86 0 -139 49t-53 127q0 127 141 205t436 78q265 0 396.5 -83t131.5 -273
v-490q0 -76 6 -100.5t35 -42.5q11 -6 30.5 -11.5t33 -7.5t16.5 -2v-22q-140 -101 -338 -101q-90 0 -146.5 15.5t-87.5 45.5t-50 81h-6q-109 -142 -330 -142zM598 154q35 0 47 12v385l-24 -4q-29 -5 -46.5 -18.5t-31 -60.5t-13.5 -130q0 -109 16.5 -146.5t51.5 -37.5z" />
    <glyph glyph-name="b" unicode="b" horiz-adv-x="1372" 
d="M594 1294v-350h4q69 80 161.5 122t182.5 42q83 0 151 -26.5t124 -83.5t87 -157t31 -237q0 -135 -33 -241.5t-91.5 -178.5t-142 -119.5t-180 -68.5t-210.5 -21q-190 0 -353 41.5t-257 110.5v1130q0 86 -10.5 111.5t-61.5 56.5l-49 31v25l637 73l18 -12q-8 -111 -8 -248z
M672 37q32 0 52.5 16t38 64t26 145.5t8.5 249.5q0 150 -16 234.5t-45 115.5t-79 31q-39 0 -63 -12v-805q19 -39 78 -39z" />
    <glyph glyph-name="c" unicode="c" horiz-adv-x="1175" 
d="M625 -25q-283 0 -439.5 147t-156.5 404q0 182 93 315.5t250 200t357 66.5q208 0 318 -69.5t110 -174.5q0 -90 -51.5 -138t-147.5 -48q-112 0 -167 58t-76 218q-7 59 -20 76t-42 17q-13 0 -22.5 -6t-21.5 -30t-19.5 -66t-13 -121t-5.5 -187q0 -239 74 -343t244 -104
q58 0 126.5 15t119.5 41v-31q-71 -107 -207.5 -173.5t-302.5 -66.5z" />
    <glyph glyph-name="d" unicode="d" horiz-adv-x="1400" 
d="M776 1094v157q0 77 -15 101.5t-83 64.5l-53 31v27l667 79l19 -12q-8 -111 -8 -248v-1054q0 -59 4.5 -82.5t19 -37t51.5 -26.5l33 -12v-27l-610 -80l-23 15l2 137h-2q-59 -75 -145 -113.5t-184 -38.5q-193 0 -304.5 128.5t-111.5 373.5q0 167 46 291t130 197t192.5 108
t243.5 35q76 0 131 -14zM711 168q35 0 65 18v805q-20 62 -82 62q-43 0 -68.5 -40.5t-39 -144.5t-13.5 -286q0 -158 16 -250t45 -128t77 -36z" />
    <glyph glyph-name="e" unicode="e" horiz-adv-x="1198" 
d="M608 -25q-279 0 -429 138t-150 413q0 123 44 230t122.5 185t194 122.5t251.5 44.5q253 0 387 -121t146 -377h-633q1 -125 21.5 -207.5t65 -129.5t105 -66t150.5 -19q128 0 247 58v-31q-73 -103 -202.5 -171.5t-319.5 -68.5zM618 1053q-31 0 -47 -33t-23 -116.5t-7 -244.5
l153 19q0 223 -15 299t-61 76z" />
    <glyph glyph-name="f" unicode="f" horiz-adv-x="862" 
d="M623 952v-786q0 -69 15.5 -86.5t100.5 -42.5l15 -4v-33h-772v33l6 2q33 12 45.5 16t29 13.5t20 14.5t8.5 20t5 27v40v786h-129v25l129 96v55q0 202 142 319.5t432 117.5q194 0 291.5 -53.5t97.5 -149.5q0 -74 -46 -113t-132 -39q-96 0 -139.5 50t-49.5 170
q-3 46 -12 60.5t-25 14.5q-11 0 -16.5 -5t-9.5 -27t-5 -60.5t-1 -112.5v-217h192l-12 -131h-180z" />
    <glyph glyph-name="g" unicode="g" horiz-adv-x="1257" 
d="M281 -205q0 -68 68.5 -109.5t197.5 -41.5q332 0 332 172q0 58 -48.5 79t-154.5 21h-361q-34 -43 -34 -121zM651 762q0 91 -5.5 151t-16.5 89.5t-23.5 40t-30.5 10.5q-23 0 -35.5 -19t-21 -84t-8.5 -186q0 -122 8.5 -187.5t21 -84.5t35.5 -19q18 0 30.5 10.5t23.5 39.5
t16.5 88.5t5.5 150.5zM954 1020v-6q150 -88 150 -258q0 -160 -137.5 -249t-388.5 -89q-192 0 -308 45q-22 -34 -22 -60q0 -31 21.5 -43t70.5 -12h473q194 0 296.5 -85t102.5 -238q0 -69 -32.5 -134.5t-94.5 -120.5t-145.5 -97t-192.5 -65.5t-229 -23.5q-193 0 -312 23.5
t-170.5 67t-51.5 110.5q0 70 61 104.5t211 53.5v6q-223 43 -223 254q0 81 45.5 150t146.5 132v7q-80 41 -125 108.5t-45 155.5q0 165 140 258.5t383 93.5q205 0 333 -59q66 66 122 98.5t122 32.5q70 0 115 -40.5t45 -103.5q0 -53 -33.5 -87t-89.5 -34q-88 0 -123 86
q-20 50 -44.5 54t-70.5 -35z" />
    <glyph glyph-name="h" unicode="h" horiz-adv-x="1406" 
d="M1427 0h-710v33l12 4q35 11 47 31t12 82v602q0 78 -27 109.5t-81 31.5q-38 0 -62 -6v-737q0 -63 11 -83.5t45 -29.5l14 -4v-33h-711v33l7 2q31 11 44 15.5t29 13.5t20 14.5t9 19.5t5.5 28t0.5 40v1091q0 86 -10.5 111.5t-61.5 56.5l-49 31v25l637 73l19 -12
q-9 -111 -9 -248v-348h5q201 162 401 162q129 0 210 -74t81 -200v-668q0 -69 14 -86.5t86 -42.5l12 -4v-33z" />
    <glyph glyph-name="i" unicode="i" horiz-adv-x="710" 
d="M350 1141q-110 0 -177 61t-67 162q0 99 67 160t177 61q111 0 176.5 -61t65.5 -160q0 -102 -65 -162.5t-177 -60.5zM-20 1042l632 66l15 -12q-9 -129 -9 -273v-657q0 -68 14 -86t87 -43l12 -4v-33h-751v33l6 2q44 15 60.5 21.5t30 22t14.5 32t1 55.5v659q0 83 -10 104.5
t-70 65.5l-32 25v22z" />
    <glyph glyph-name="j" unicode="j" horiz-adv-x="710" 
d="M346 1141q-110 0 -177 61t-67 162q0 99 67 160t177 61q111 0 176.5 -61t65.5 -160q0 -102 -65 -162.5t-177 -60.5zM618 823v-760q0 -208 -159 -343.5t-414 -135.5q-195 0 -298 60.5t-103 165.5q0 76 45 123t131 47q109 0 160.5 -64t60.5 -219q1 -27 6 -37t16 -10
q10 0 16 9.5t9.5 40.5t3.5 87v1038q0 62 -4.5 84t-18.5 38.5t-59 47.5l-35 25v22l637 66l15 -12q-9 -129 -9 -273z" />
    <glyph glyph-name="k" unicode="k" horiz-adv-x="1402" 
d="M-23 0v33l7 2q80 26 94 43.5t14 87.5v1091q0 86 -10.5 111.5t-61.5 56.5l-49 31v25l637 73l19 -12q-9 -111 -9 -248v-1144q0 -63 12.5 -81.5t53.5 -31.5l12 -4v-33h-719zM846 0q-157 277 -217 510v20l237 242q69 71 96 110.5t27 69.5q0 32 -28 52t-107 38l-27 7v34h512
v-34l-24 -7q-95 -24 -139 -48t-101 -85l-76 -80q71 -173 173.5 -384t175.5 -334q22 -36 35 -49.5t42 -24.5l11 -4v-33h-590z" />
    <glyph glyph-name="l" unicode="l" horiz-adv-x="716" 
d="M735 0h-758v33l7 2q31 11 44.5 15.5t29 13.5t20 14.5t9.5 20t5 27.5v40v1098q0 60 -6 86.5t-21 42t-57 41.5l-37 22v25l637 73l19 -12q-9 -111 -9 -248v-1128q0 -69 14 -86t91 -43l12 -4v-33z" />
    <glyph glyph-name="m" unicode="m" horiz-adv-x="2078" 
d="M1458 141v611q0 73 -25.5 105t-78.5 32q-38 0 -56 -6q5 -30 5 -78v-664q0 -57 8.5 -75.5t42.5 -28.5l12 -4v-33h-653v33l12 4q35 12 43 29t8 75v611q0 73 -25.5 105t-78.5 32q-39 0 -54 -6v-742q0 -56 10 -74.5t44 -29.5l12 -4v-33h-704v33l6 2q78 26 92 43.5t14 87.5
v659q0 60 -5 83t-18 38.5t-57 48.5l-32 25v22l616 66l16 -10l-2 -164h4q93 78 197.5 126t202.5 48q104 0 175 -44t97 -130h4q91 76 201.5 125t210.5 49q129 0 207 -74t78 -200v-668q0 -69 14 -86.5t86 -42.5l12 -4v-33h-704v33l12 4q35 12 43 29t8 75z" />
    <glyph glyph-name="n" unicode="n" horiz-adv-x="1406" 
d="M688 0h-708v33l6 2q44 15 60.5 21.5t30 22t14.5 32t1 55.5v659q0 82 -10 104t-70 66l-32 25v22l616 66l16 -12l-2 -162h4q208 174 410 174q129 0 210 -74t81 -200v-668q0 -69 14.5 -87.5t85.5 -41.5l12 -4v-33h-710v33l12 4q37 12 48 32t11 81v602q0 74 -26.5 105.5
t-83.5 31.5q-32 0 -60 -8v-731q0 -63 10.5 -83.5t45.5 -29.5l14 -4v-33z" />
    <glyph glyph-name="o" unicode="o" horiz-adv-x="1316" 
d="M659 -25q-125 0 -236.5 35t-200.5 102t-141 176.5t-52 248.5q0 103 25.5 189t71 147.5t104.5 107.5t131 73.5t146 40.5t152 13q95 0 184.5 -21t170.5 -66.5t141.5 -110.5t96.5 -159t36 -206q0 -123 -36 -221.5t-95.5 -162.5t-142 -107t-170.5 -61t-185 -18zM567 559
q0 -231 10.5 -345t29.5 -147.5t57 -33.5q34 0 51.5 32t27 139t9.5 320q0 232 -10 345.5t-29 147.5t-58 34q-24 0 -39 -16.5t-27 -67t-17 -149.5t-5 -259z" />
    <glyph glyph-name="p" unicode="p" horiz-adv-x="1392" 
d="M614 -10v-230q0 -25 0.5 -39t6 -27.5t9.5 -19t21 -14t28.5 -13t43.5 -14.5l18 -6v-33h-764v33l7 2q77 26 90.5 43.5t13.5 87.5v1065q0 83 -10.5 105t-69.5 65l-33 25v22l617 66l16 -12l-2 -152h6q65 74 160.5 119t190.5 45q179 0 286 -124t107 -380q0 -163 -46 -286
t-128 -196.5t-188 -110t-234 -36.5q-84 0 -146 15zM692 37q33 0 54.5 18t38.5 68t24.5 145t7.5 244q0 157 -17.5 242.5t-46 112t-77.5 26.5q-34 0 -62 -12v-807q10 -17 32.5 -27t45.5 -10z" />
    <glyph glyph-name="q" unicode="q" horiz-adv-x="1378" 
d="M713 162q36 0 61 14v807q-9 32 -32 51t-52 19q-41 0 -66.5 -40.5t-40 -146t-14.5 -284.5q0 -132 9.5 -217t29.5 -128.5t44 -59t61 -15.5zM774 -240v351h-4q-133 -136 -326 -136q-85 0 -158 30.5t-130 90.5t-90 160.5t-33 230.5q0 156 47 275.5t133 194.5t202 113t259 38
q115 0 213.5 -26t214.5 -81h6l172 107l20 -12v-1336q0 -70 14.5 -87.5t94.5 -43.5l6 -2v-33h-768v33l19 6q77 25 92.5 42.5t15.5 84.5z" />
    <glyph glyph-name="r" unicode="r" horiz-adv-x="1130" 
d="M92 166v659q0 82 -10 104t-70 66l-32 25v22l616 66l16 -12l-2 -170h4q57 81 132 130.5t161 49.5q100 0 159.5 -61t59.5 -168q0 -102 -58.5 -161t-152.5 -59q-77 0 -128.5 36.5t-88.5 115.5q-19 40 -28 51.5t-25 11.5q-15 0 -27 -12v-694q0 -49 8 -69t27 -30.5t76 -27.5
l21 -6v-33h-770v33l6 2q78 26 92 43.5t14 87.5z" />
    <glyph glyph-name="s" unicode="s" horiz-adv-x="1009" 
d="M578 152q0 51 -40.5 85.5t-146.5 65.5q-107 31 -178.5 72.5t-110 96t-54 113.5t-15.5 138q0 174 133.5 279.5t394.5 105.5q171 0 320 -41l18 -307h-22q-67 85 -154 176q-63 66 -105 89.5t-96 23.5q-55 0 -87 -30.5t-32 -76.5q0 -50 42 -82.5t157 -68.5
q209 -68 293 -157.5t84 -238.5q0 -193 -140 -306.5t-417 -113.5q-220 0 -367 39l-16 348h22q86 -120 187 -221q57 -60 105.5 -83t101.5 -23q123 0 123 117z" />
    <glyph glyph-name="t" unicode="t" horiz-adv-x="888" 
d="M446 -25q-198 0 -279 79.5t-81 262.5v635h-92v37q148 58 284.5 157.5t213.5 229.5h120v-293h240l-12 -131h-228v-641q0 -97 23.5 -126t109.5 -29q61 0 115 14v-29q-57 -72 -174 -119t-240 -47z" />
    <glyph glyph-name="u" unicode="u" horiz-adv-x="1398" 
d="M778 201v626q0 82 -9 104.5t-60 61.5l-35 27v22l618 66l13 -10v-860q0 -59 5 -82t18.5 -36t51.5 -26l33 -12v-27l-616 -80l-15 13l2 155h-4q-98 -89 -188.5 -128.5t-202.5 -39.5q-59 0 -112.5 17.5t-96.5 52t-68.5 91.5t-25.5 130v561q0 79 -10 100t-68 66l-35 27v22
l627 66l12 -10v-752q0 -87 24.5 -121.5t82.5 -34.5q37 0 59 11z" />
    <glyph glyph-name="v" unicode="v" horiz-adv-x="1226" 
d="M897 1083h330v-34l-8 -5q-52 -27 -80 -66.5t-70 -156.5l-297 -821h-291l-362 858q-35 82 -51 113.5t-28.5 44.5t-37.5 26l-12 7v34h823v-34l-39 -13q-49 -17 -67.5 -36.5t-18.5 -49.5q0 -38 29 -127l131 -383h4l137 377q29 79 29 133q0 29 -20 49t-66 37l-35 13v34z" />
    <glyph glyph-name="w" unicode="w" horiz-adv-x="1900" 
d="M1745 831l-289 -831h-287l-206 606l-209 -606h-287l-336 858q-29 73 -47.5 107.5t-32.5 48t-43 28.5l-12 7v34h723v-34l-8 -2q-43 -10 -43 -70q0 -39 45 -156l129 -348h4l82 236l-49 149q-43 115 -65.5 147.5t-61.5 41.5l-9 2v34h768v-34l-30 -13q-84 -28 -84 -90
q0 -49 28 -125l115 -352h4l119 352q25 77 25 125q0 62 -84 90l-31 13v34h323v-34l-8 -5q-37 -19 -54 -34t-39 -56t-50 -123z" />
    <glyph glyph-name="x" unicode="x" horiz-adv-x="1325" 
d="M1098 870l-176 -284l243 -404q48 -79 67 -101.5t60 -43.5l8 -4v-33h-839v35l26 6q55 13 75 31t20 47q0 33 -45 114l-123 216l-125 -199q-49 -80 -49 -123q0 -35 21 -54t77 -32l24 -6v-35h-370v35l8 4q72 36 98.5 63t79.5 111l197 303l-232 383q-51 82 -69.5 105.5
t-42.5 35.5l-17 9v34h824v-34l-23 -7q-54 -13 -73 -31t-19 -48t47 -113l111 -193h4l104 177q47 76 47 124q0 31 -19 50.5t-73 33.5l-22 7v34h356v-34l-8 -5q-59 -29 -88 -58.5t-84 -115.5z" />
    <glyph glyph-name="y" unicode="y" horiz-adv-x="1224" 
d="M608 -121l-489 979q-70 141 -83 158q-12 15 -34 26l-12 7v34h823v-34l-29 -9q-56 -17 -77 -37t-21 -51q0 -46 43 -147l127 -299h8l119 299q37 106 37 143q0 31 -21 53t-73 39l-27 9v34h326v-34l-8 -5q-32 -16 -50.5 -32.5t-42 -58.5t-53.5 -119l-323 -826
q-90 -231 -197 -329.5t-264 -98.5q-120 0 -192 59t-72 152q0 74 47.5 121t132.5 47q78 0 121 -39t63 -131q10 -47 20.5 -63.5t36.5 -16.5q37 0 86 50.5t78 119.5z" />
    <glyph glyph-name="z" unicode="z" horiz-adv-x="1165" 
d="M31 0v88l510 922v8h-47q-89 0 -130 -22.5t-112 -106.5q-55 -66 -168 -223h-27l35 417h1008v-84l-502 -923v-8h49q76 0 125 14.5t78 37.5t72 73q90 108 174 239h28l-55 -432h-1038z" />
    <glyph glyph-name="braceleft" unicode="{" horiz-adv-x="690" 
d="M61 596v49q95 13 147 32.5t67.5 40.5t15.5 54q0 44 -55.5 237.5t-55.5 250.5q0 48 22 85.5t61 63.5t102.5 45.5t136 31.5t172.5 23v-30q-157 -27 -203.5 -57.5t-46.5 -114.5q0 -85 16.5 -262t16.5 -220q0 -56 -25 -91t-96 -62.5t-205 -48.5v-5q134 -21 205 -48.5
t96 -62.5t25 -91q0 -43 -16.5 -220t-16.5 -262q0 -84 46.5 -114.5t203.5 -57.5v-30q-126 13 -211 30t-152 45.5t-99 71.5t-32 103q0 57 55.5 250t55.5 237q0 33 -15.5 54t-67.5 40.5t-147 32.5z" />
    <glyph glyph-name="bar" unicode="|" horiz-adv-x="376" 
d="M154 -266v1769h69v-1769h-69z" />
    <glyph glyph-name="braceright" unicode="}" horiz-adv-x="690" 
d="M629 645v-49q-95 -13 -147 -32.5t-67.5 -40.5t-15.5 -54q0 -44 55.5 -237t55.5 -250q0 -60 -32 -103t-99 -71.5t-152 -45.5t-211 -30v30q157 27 203.5 57.5t46.5 114.5q0 85 -16.5 262t-16.5 220q0 56 25 91t96 62.5t205 48.5v5q-134 21 -205 48.5t-96 62.5t-25 91
q0 43 16.5 220t16.5 262q0 84 -46.5 114.5t-203.5 57.5v30q100 -11 172.5 -23t136 -31.5t102.5 -45.5t61 -63.5t22 -85.5q0 -57 -55.5 -250.5t-55.5 -237.5q0 -33 15.5 -54t67.5 -40.5t147 -32.5z" />
    <glyph glyph-name="asciitilde" unicode="~" horiz-adv-x="798" 
d="M31 436l-23 15q62 170 118.5 238.5t152.5 68.5q55 0 184 -29t168 -29q44 0 70.5 23t66.5 84l23 -14q-57 -166 -118 -237t-155 -71q-54 0 -182 29t-168 29q-44 0 -70.5 -23t-66.5 -84z" />
    <glyph glyph-name="uni00A0" unicode="&#xa0;" horiz-adv-x="329" 
 />
    <glyph glyph-name="exclamdown" unicode="&#xa1;" horiz-adv-x="630" 
d="M102 1044q0 87 60 146t153 59t153 -59t60 -146t-60 -145.5t-153 -58.5t-153 58.5t-60 145.5zM330 762l243 -574q45 -115 32 -202.5t-89.5 -140t-200.5 -52.5t-200.5 52.5t-89.5 140t32 202.5l244 574h29z" />
    <glyph glyph-name="cent" unicode="&#xa2;" horiz-adv-x="1153" 
d="M612 -25q-281 0 -436.5 142.5t-155.5 408.5q0 254 164.5 407.5t454.5 170.5v117h51v-113h23q205 0 310 -66t105 -176q0 -78 -42.5 -123t-120.5 -45q-92 0 -141 54.5t-72 193.5q-9 52 -22 73.5t-40 24.5v-841q54 -21 158 -21q131 0 248 60v-31q-59 -91 -168 -153.5
t-238 -77.5v-197h-51v194q-5 0 -14 -1t-13 -1zM537 637q0 -176 23 -271t79 -137v811q-48 -17 -75 -106.5t-27 -296.5z" />
    <glyph glyph-name="sterling" unicode="&#xa3;" horiz-adv-x="1259" 
d="M16 723v61h107q-62 145 -62 244q0 90 36 163.5t111.5 131.5t205.5 89.5t305 31.5q512 0 512 -264q0 -85 -52.5 -135t-142.5 -50q-114 0 -167.5 66t-71.5 244q-5 50 -14 68t-38 18q-38 0 -50.5 -51.5t-12.5 -182.5q0 -52 8.5 -178.5t9.5 -194.5h250v-61h-252
q-9 -149 -101.5 -229.5t-322.5 -149.5v-6h719q72 0 105.5 30.5t54.5 131.5h31l-33 -500h-1122v215q50 34 80.5 58t59.5 56t42.5 68t13.5 78q0 33 -12 78t-25 78t-38 92h-134z" />
    <glyph glyph-name="yen" unicode="&#xa5;" horiz-adv-x="1431" 
d="M991 793h6l146 327q45 102 45 154q0 35 -23.5 58.5t-83.5 41.5l-41 12v33h383v-33l-8 -4q-48 -25 -81 -66.5t-87 -154.5l-209 -440h299v-64h-307v-133h307v-63h-307v-242q0 -69 10 -100t35.5 -46t89.5 -32l33 -8v-33h-952v33l33 8q34 9 52.5 14.5t36 16t25 20.5t13 29
t7 40.5t1.5 57.5v242h-308v63h308v133h-308v64h289l-264 496q-47 88 -69 115t-52 44l-18 10v33h954v-33l-43 -12q-63 -18 -90 -44.5t-27 -63.5q0 -45 31 -109z" />
    <glyph glyph-name="brokenbar" unicode="&#xa6;" horiz-adv-x="376" 
d="M154 -266v794h69v-794h-69zM154 662v841h69v-841h-69z" />
    <glyph glyph-name="section" unicode="&#xa7;" horiz-adv-x="1294" 
d="M1069 -49q0 -163 -123 -266t-346 -103q-205 0 -314.5 61t-109.5 160q0 68 42.5 111t117.5 43q87 0 139 -53t74 -183q9 -46 31.5 -63.5t68.5 -17.5q55 0 89 28.5t34 77.5q0 46 -26 80.5t-105.5 87t-259.5 152.5q-199 111 -277.5 206.5t-78.5 214.5q0 104 64.5 190.5
t217.5 176.5q-82 98 -82 221q0 163 123 266t346 103q205 0 314.5 -61t109.5 -160q0 -68 -42.5 -111t-117.5 -43q-87 0 -139 53t-74 183q-9 46 -31.5 63.5t-68.5 17.5q-55 0 -89 -28.5t-34 -77.5q0 -35 11 -58.5t54.5 -60t115.5 -80t210 -120.5q199 -111 278 -207t79 -215
q0 -104 -66 -191t-219 -176q84 -100 84 -221zM977 311q0 42 -20.5 75.5t-88.5 83.5t-202 126q-220 122 -312 209q-37 -40 -37 -90q0 -42 21 -75.5t89 -83.5t202 -126q219 -127 309 -209q39 42 39 90z" />
    <glyph glyph-name="dieresis" unicode="&#xa8;" horiz-adv-x="978" 
d="M266 1174q-80 0 -135 49t-55 133t55 133t135 49q83 0 137 -48.5t54 -133.5t-54 -133.5t-137 -48.5zM711 1174q-80 0 -134.5 48.5t-54.5 133.5t54.5 133.5t134.5 48.5q83 0 137.5 -48.5t54.5 -133.5t-54.5 -133.5t-137.5 -48.5z" />
    <glyph glyph-name="copyright" unicode="&#xa9;" horiz-adv-x="1601" 
d="M844 270q-229 0 -360.5 116.5t-131.5 326.5q0 114 41 203.5t112 144t160.5 82.5t192.5 28q155 0 256 -36l21 -289h-29q-77 116 -125 178q-39 53 -66.5 71.5t-58.5 18.5q-30 0 -49.5 -13.5t-35.5 -52.5t-23 -115t-7 -194q0 -162 11.5 -250.5t36.5 -124.5t69 -36
q37 0 65 19t66 71q62 85 121 196h29l-21 -295q-116 -49 -274 -49zM803 -29q-160 0 -300.5 57.5t-239.5 156t-156.5 234t-57.5 286.5t57.5 286.5t156.5 234t239.5 156.5t300.5 58q214 0 386 -98.5t267.5 -266.5t95.5 -370q0 -151 -56.5 -286.5t-154 -234t-238 -156
t-300.5 -57.5zM803 31q195 0 351.5 91t242.5 244.5t86 338.5q0 138 -50.5 262t-139 215t-216.5 144.5t-274 53.5t-274 -53.5t-217.5 -144.5t-141 -215t-51.5 -262t51.5 -262t141 -214.5t217.5 -144t274 -53.5z" />
    <glyph glyph-name="ordfeminine" unicode="&#xaa;" horiz-adv-x="1013" 
d="M270 565q-117 0 -179 58t-62 159q0 98 75 155t265 99l129 29v141q0 74 -7 113.5t-17 49t-28 9.5q-15 0 -23.5 -10t-11.5 -23.5t-5 -37.5q-10 -119 -59.5 -168t-139.5 -49q-65 0 -104.5 34t-39.5 93q0 45 22.5 83t70.5 69.5t134 49t202 17.5q217 0 314 -64.5t97 -212.5
v-373q0 -56 5.5 -76.5t29.5 -31.5q25 -14 68 -14v-23q-117 -76 -273 -76q-75 0 -134.5 25.5t-80.5 73.5h-4q-38 -46 -103.5 -72.5t-140.5 -26.5zM467 700q17 0 31 9v297l-17 -2q-44 -6 -63 -43t-19 -119q0 -142 68 -142z" />
    <glyph glyph-name="guillemotleft" unicode="&#xab;" horiz-adv-x="794" 
d="M721 133l-371 379v10l371 379h24l-143 -381l143 -387h-24zM395 133l-375 379v10l375 379h25l-144 -381l144 -387h-25z" />
    <glyph glyph-name="registered" unicode="&#xae;" horiz-adv-x="774" 
d="M385 711q-152 0 -254 105t-102 257q0 151 102 256t254 105q153 0 256.5 -105.5t103.5 -255.5q0 -152 -103.5 -257t-256.5 -105zM385 758q128 0 218.5 93.5t90.5 221.5t-90.5 220.5t-218.5 92.5q-130 0 -217.5 -92t-87.5 -221q0 -130 87.5 -222.5t217.5 -92.5zM217 963
v233q0 27 -5 34.5t-22 10.5l-12 2v23h215q178 0 178 -107q0 -63 -57 -86v-2q34 -88 59 -133q8 -14 23 -20l6 -3v-22h-174q-30 70 -51 154h-17v-84q0 -27 5 -34.5t22 -10.5l12 -3v-22h-221v22l12 3q17 3 22 10.5t5 34.5zM375 1077q22 0 32.5 17t10.5 61q0 45 -9 62.5
t-30 17.5q-11 0 -19 -2v-154q6 -2 15 -2z" />
    <glyph glyph-name="macron" unicode="&#xaf;" horiz-adv-x="978" 
d="M195 1231v141h589v-141h-589z" />
    <glyph glyph-name="degree" unicode="&#xb0;" horiz-adv-x="491" 
d="M246 985q-101 0 -163.5 65t-62.5 164q0 98 62.5 163t163.5 65q100 0 162.5 -65t62.5 -163t-62.5 -163.5t-162.5 -65.5zM246 1040q74 0 119 48.5t45 125.5q0 76 -45 124t-119 48t-119 -48t-45 -124q0 -77 45 -125.5t119 -48.5z" />
    <glyph glyph-name="twosuperior" unicode="&#xb2;" horiz-adv-x="800" 
d="M23 604v144q159 116 210 186q90 87 124 157t34 144q0 50 -7 83t-16 45.5t-20 12.5q-13 0 -18.5 -14t-10.5 -55q-11 -85 -47 -117.5t-131 -32.5q-58 0 -92.5 31t-34.5 78q0 77 106 122.5t286 45.5q183 0 287 -61.5t104 -182.5q0 -35 -9.5 -63.5t-42 -65t-90 -69.5
t-159.5 -71.5t-244 -76.5v-6h379q39 0 59 19t49 85h41l-16 -338h-741z" />
    <glyph glyph-name="threesuperior" unicode="&#xb3;" horiz-adv-x="851" 
d="M371 588q-164 0 -254 46.5t-90 127.5q0 45 39.5 70.5t101.5 25.5q85 0 118.5 -35.5t39.5 -128.5q0 -23 2 -34.5t5 -14t9 -2.5q30 0 54 44.5t24 125.5q0 186 -166 186h-53v66h49q73 0 110 40t37 126q0 79 -8 113t-27 34q-15 0 -20.5 -9t-13.5 -42q-20 -75 -52 -108
t-100 -33q-60 0 -92.5 25t-32.5 71q0 67 79 109.5t251 42.5q85 0 154.5 -10.5t126 -33.5t87.5 -64t31 -97q0 -69 -66 -115t-194 -59v-6q164 -17 234.5 -68t70.5 -156q0 -107 -114.5 -172t-339.5 -65z" />
    <glyph glyph-name="acute" unicode="&#xb4;" horiz-adv-x="983" 
d="M641 1231l-365 -76l-10 19l211 282q62 80 144 80q68 0 110.5 -47.5t42.5 -116.5q0 -52 -34.5 -90t-98.5 -51z" />
    <glyph glyph-name="paragraph" unicode="&#xb6;" horiz-adv-x="1019" 
d="M571 -205v862q-28 -4 -79 -4q-114 0 -200 31t-137.5 85.5t-76.5 123t-25 149.5q0 162 99.5 269.5t279.5 107.5h572v-33l-29 -8q-31 -9 -45 -13.5t-29.5 -15t-20.5 -18.5t-10 -28.5t-5.5 -41.5t-0.5 -61v-1405h-73v1551h-146v-1551h-74z" />
    <glyph glyph-name="periodcentered" unicode="&#xb7;" horiz-adv-x="524" 
d="M39 684q0 92 63 153.5t160 61.5t160 -61.5t63 -153.5t-63 -153.5t-160 -61.5t-160 61.5t-63 153.5z" />
    <glyph glyph-name="cedilla" unicode="&#xb8;" horiz-adv-x="978" 
d="M293 -424v25q79 22 124.5 55.5t45.5 71.5q0 24 -16.5 38.5t-49.5 14.5l-6 10l125 209h68l-47 -59q89 -7 133.5 -44.5t44.5 -97.5q0 -79 -101.5 -138.5t-320.5 -84.5z" />
    <glyph glyph-name="onesuperior" unicode="&#xb9;" horiz-adv-x="626" 
d="M4 604v37l21 8q35 9 46.5 16t17 26.5t5.5 68.5v444l-84 31v33q149 21 281.5 63t193.5 99l54 -15v-655q0 -46 9 -69t23 -30t45 -12l21 -8v-37h-633z" />
    <glyph glyph-name="ordmasculine" unicode="&#xba;" horiz-adv-x="1069" 
d="M535 569q-93 0 -179.5 27t-159 78.5t-116 137t-43.5 192.5q0 93 30 168.5t79 124t115 81t134 46.5t140 14q70 0 139 -16t134 -51t114.5 -84t79.5 -121.5t30 -157.5q0 -95 -30 -171.5t-78.5 -125.5t-114 -81.5t-133.5 -46.5t-141 -14zM537 616q13 0 22.5 7t19.5 30
t16.5 63t10.5 110t4 167q0 136 -2.5 210t-11.5 118.5t-22.5 57t-38.5 12.5q-29 0 -44.5 -27.5t-23.5 -106t-8 -229.5q0 -137 3 -214.5t12.5 -123.5t23.5 -60t39 -14z" />
    <glyph glyph-name="guillemotright" unicode="&#xbb;" horiz-adv-x="794" 
d="M444 512l-370 -379h-25l144 387l-144 381h25l370 -379v-10zM774 512l-375 -379h-24l143 387l-143 381h24l375 -379v-10z" />
    <glyph glyph-name="onequarter" unicode="&#xbc;" horiz-adv-x="1712" 
d="M6 604v33l31 8q49 12 60.5 30t11.5 81v452l-97 31v29q152 19 290.5 62t197.5 100l51 -15v-659q0 -63 13 -80t67 -31l31 -8v-33h-656zM221 -102l1237 1564h82l-1237 -1564h-82zM1071 0v33l31 8q52 14 62 29t10 82v71h-308v72l418 520h309v-491h113l-6 -101h-107v-71
q0 -70 9.5 -84.5t60.5 -26.5l35 -8v-33h-627zM965 324h209v258h-5l-204 -254v-4z" />
    <glyph glyph-name="onehalf" unicode="&#xbd;" horiz-adv-x="1785" 
d="M6 604v33l31 8q49 12 60.5 30t11.5 81v452l-97 31v29q152 19 290.5 62t197.5 100l51 -15v-659q0 -63 13 -80t67 -31l31 -8v-33h-656zM184 -102l1237 1564h82l-1237 -1564h-82zM991 0v180q126 82 211 174q78 86 116 158t38 154q0 110 -39 110q-16 0 -23 -13t-10 -54
q-7 -99 -46 -145t-112 -46q-141 0 -141 119q0 80 93.5 136t254.5 56q422 0 422 -247q0 -69 -50.5 -124.5t-183.5 -108t-352 -93.5v-6h433q36 0 55.5 19.5t48.5 84.5h37l-12 -354h-740z" />
    <glyph glyph-name="threequarters" unicode="&#xbe;" horiz-adv-x="1708" 
d="M352 588q-334 0 -334 174q0 48 35.5 80t98.5 32q78 0 107 -38.5t40 -139.5q4 -33 12.5 -44t24.5 -11q61 0 61 172q0 108 -32.5 149.5t-116.5 41.5h-58v59h52q73 0 105 38t32 138q0 79 -9.5 109t-29.5 30q-28 0 -35 -61q-10 -78 -37.5 -112t-97.5 -34q-60 0 -92.5 28
t-32.5 75q0 73 80.5 116.5t247.5 43.5q381 0 381 -209q0 -138 -262 -172v-6q163 -12 235 -58t72 -139q0 -121 -110 -191.5t-337 -70.5zM227 -102l1237 1564h82l-1237 -1564h-82zM1067 0v33l31 8q29 8 40.5 12t20 17t9.5 28.5t1 53.5v71h-307v72l418 520h309v-491h113
l-6 -101h-107v-71q0 -70 9.5 -84.5t60.5 -26.5l35 -8v-33h-627zM961 324h208v258h-4l-204 -254v-4z" />
    <glyph glyph-name="questiondown" unicode="&#xbf;" horiz-adv-x="1034" 
d="M549 -131q17 0 26 11.5t12 24.5t5 40q15 157 75 222.5t173 65.5q86 0 136 -48t50 -128q0 -111 -115 -177t-350 -66q-252 0 -392 107.5t-140 301.5q0 113 49 204t137 150.5t205 94t256 41.5v73h57v-444q-113 -16 -188.5 -93t-75.5 -206q0 -174 80 -174zM868 1069
q0 -87 -60 -146t-153 -59t-153 59t-60 146t60 146t153 59t153 -59t60 -146z" />
    <glyph glyph-name="Agrave" unicode="&#xc0;" 
d="M-12 0v33l10 4q44 18 65.5 38t44 65.5t62.5 152.5l412 1126h356l395 -1120q62 -176 81 -207q16 -26 50 -44q3 -2 9 -5l18 -10v-33h-932v33l53 10q53 12 75 35.5t22 66.5q0 52 -31 154l-45 145h-326l-51 -145q-45 -130 -45 -172q0 -32 20.5 -51t79.5 -33l39 -10v-33h-362z
M1004 1499l-9 -18l-370 45q-70 9 -108 48t-38 97q0 70 44 116t112 46q71 0 135 -70zM479 934l-149 -424h284l-129 424h-6z" />
    <glyph glyph-name="Aacute" unicode="&#xc1;" 
d="M-12 0v33l10 4q44 18 65.5 38t44 65.5t62.5 152.5l412 1126h356l395 -1120q62 -176 81 -207q16 -26 50 -44q3 -2 9 -5l18 -10v-33h-932v33l53 10q53 12 75 35.5t22 66.5q0 52 -31 154l-45 145h-326l-51 -145q-45 -130 -45 -172q0 -32 20.5 -51t79.5 -33l39 -10v-33h-362z
M520 1481l-8 18l233 264q64 70 136 70q68 0 111.5 -46t43.5 -116q0 -58 -37.5 -97t-107.5 -48zM479 934l-149 -424h284l-129 424h-6z" />
    <glyph glyph-name="Acircumflex" unicode="&#xc2;" 
d="M-12 0v33l10 4q44 18 65.5 38t44 65.5t62.5 152.5l412 1126h356l395 -1120q62 -176 81 -207q16 -26 50 -44q3 -2 9 -5l18 -10v-33h-932v33l53 10q53 12 75 35.5t22 66.5q0 52 -31 154l-45 145h-326l-51 -145q-45 -130 -45 -172q0 -32 20.5 -51t79.5 -33l39 -10v-33h-362z
M418 1483l-10 18l266 311h162l264 -311l-10 -18l-336 92zM479 934l-149 -424h284l-129 424h-6z" />
    <glyph glyph-name="Atilde" unicode="&#xc3;" 
d="M-12 0v33l10 4q44 18 65.5 38t44 65.5t62.5 152.5l412 1126h356l395 -1120q62 -176 81 -207q16 -26 50 -44q3 -2 9 -5l18 -10v-33h-932v33l53 10q53 12 75 35.5t22 66.5q0 52 -31 154l-45 145h-326l-51 -145q-45 -130 -45 -172q0 -32 20.5 -51t79.5 -33l39 -10v-33h-362z
M657 1796q43 0 164 -19.5t166 -19.5q42 0 71.5 17.5t57.5 62.5l19 -12q-21 -67 -34.5 -104t-33.5 -81t-39 -65t-46.5 -36t-61.5 -15q-41 0 -162.5 18.5t-167.5 18.5q-41 0 -69 -17t-56 -63l-23 12q21 67 34 104t33.5 81.5t39.5 66t46.5 36.5t61.5 15zM479 934l-149 -424h284
l-129 424h-6z" />
    <glyph glyph-name="Adieresis" unicode="&#xc4;" 
d="M-12 0v33l10 4q44 18 65.5 38t44 65.5t62.5 152.5l412 1126h356l395 -1120q62 -176 81 -207q16 -26 50 -44q3 -2 9 -5l18 -10v-33h-932v33l53 10q53 12 75 35.5t22 66.5q0 52 -31 154l-45 145h-326l-51 -145q-45 -130 -45 -172q0 -32 20.5 -51t79.5 -33l39 -10v-33h-362z
M545 1485q-77 0 -130 47t-53 129q0 80 53 127t130 47q79 0 131.5 -46.5t52.5 -127.5q0 -82 -52.5 -129t-131.5 -47zM989 1485q-77 0 -129.5 47t-52.5 129q0 80 52.5 127t129.5 47q79 0 132 -46.5t53 -127.5q0 -82 -52.5 -129t-132.5 -47zM479 934l-149 -424h284l-129 424h-6
z" />
    <glyph glyph-name="Aring" unicode="&#xc5;" 
d="M-12 0v33l10 4q44 18 65.5 38t44 65.5t62.5 152.5l412 1126h356l395 -1120q62 -176 81 -207q16 -26 50 -44q3 -2 9 -5l18 -10v-33h-932v33l53 10q53 12 75 35.5t22 66.5q0 52 -31 154l-45 145h-326l-51 -145q-45 -130 -45 -172q0 -32 20.5 -51t79.5 -33l39 -10v-33h-362z
M555 1655q0 80 58 133t137 53t136.5 -53t57.5 -133t-58 -133.5t-136 -53.5q-79 0 -137 53.5t-58 133.5zM479 934l-149 -424h284l-129 424h-6zM633 1655q0 -57 31.5 -93t85.5 -36t85 36t31 93t-31 93t-85 36t-85.5 -36t-31.5 -93z" />
    <glyph glyph-name="AE" unicode="&#xc6;" horiz-adv-x="1957" 
d="M1913 553l-27 -553h-1251v33l27 8q23 7 35 11t23 14.5t14.5 18t7 30.5t3.5 42v62v225h-358l-78 -151q-57 -111 -57 -156q0 -37 22.5 -56t96.5 -40l28 -8v-33h-411v33l18 8q50 22 74 40t48.5 53.5t66.5 115.5l542 1036q-10 36 -36 53.5t-89 38.5l-26 8v33h1263l17 -495
h-29q-103 194 -176 299q-53 73 -93 101t-106 28q-64 0 -106 -11v-575h30q67 0 97 16.5t57 63.5q26 45 74 176h28v-584h-28q-44 127 -74 180q-27 49 -57 66.5t-97 17.5h-30v-516q0 -72 25 -95t102 -23q89 0 131.5 28t101.5 119q74 115 168 338h29zM741 1135l-319 -623h323
v623h-4z" />
    <glyph glyph-name="Ccedilla" unicode="&#xc7;" horiz-adv-x="1404" 
d="M440 -424v25q79 22 124.5 55.5t45.5 71.5q0 53 -65 53l-6 10l116 197q-300 40 -463 224t-163 486q0 150 42.5 273.5t118 210.5t181.5 146.5t230.5 87.5t266.5 28q246 0 404 -47l43 -494h-31q-123 208 -242 361q-55 71 -92 98t-80 27q-72 0 -113.5 -59.5t-61 -200.5
t-19.5 -390q0 -273 26 -431.5t71.5 -217.5t119.5 -59q59 0 102 34t99 113q71 98 206 359h31l-28 -484q-206 -78 -476 -78q-25 0 -112 5l-31 -39q89 -7 133.5 -44.5t44.5 -97.5q0 -79 -101.5 -138.5t-320.5 -84.5z" />
    <glyph glyph-name="Egrave" unicode="&#xc8;" horiz-adv-x="1345" 
d="M915 1499l-8 -18l-370 45q-70 9 -108 48t-38 97q0 70 44 116t112 46q71 0 135 -70zM1030 1022v-584h-29q-46 132 -73 180q-27 49 -57 66.5t-97 17.5h-35v-516q0 -71 27 -94.5t104 -23.5q90 0 132.5 28t101.5 119q74 115 168 338h28l-26 -553h-1258v33l25 8q23 8 34 12
t22 14.5t14.5 17.5t6.5 30.5t3 41.5v62v981v62t-3 41.5t-6.5 30.5t-14.5 17.5t-22 14.5t-34 12l-25 8v33h1221l16 -495h-28q-103 194 -176 299q-53 73 -93 101t-106 28q-69 0 -111 -11v-575h35q67 0 97 16.5t57 63.5q24 40 73 176h29z" />
    <glyph glyph-name="Eacute" unicode="&#xc9;" horiz-adv-x="1345" 
d="M483 1481l-8 18l234 264q64 70 135 70q68 0 111.5 -46t43.5 -116q0 -58 -37.5 -97t-107.5 -48zM1030 1022v-584h-29q-46 132 -73 180q-27 49 -57 66.5t-97 17.5h-35v-516q0 -71 27 -94.5t104 -23.5q90 0 132.5 28t101.5 119q74 115 168 338h28l-26 -553h-1258v33l25 8
q23 8 34 12t22 14.5t14.5 17.5t6.5 30.5t3 41.5v62v981v62t-3 41.5t-6.5 30.5t-14.5 17.5t-22 14.5t-34 12l-25 8v33h1221l16 -495h-28q-103 194 -176 299q-53 73 -93 101t-106 28q-69 0 -111 -11v-575h35q67 0 97 16.5t57 63.5q24 40 73 176h29z" />
    <glyph glyph-name="Ecircumflex" unicode="&#xca;" horiz-adv-x="1345" 
d="M367 1483l-11 18l267 311h161l265 -311l-11 -18l-336 92zM1030 1022v-584h-29q-46 132 -73 180q-27 49 -57 66.5t-97 17.5h-35v-516q0 -71 27 -94.5t104 -23.5q90 0 132.5 28t101.5 119q74 115 168 338h28l-26 -553h-1258v33l25 8q23 8 34 12t22 14.5t14.5 17.5t6.5 30.5
t3 41.5v62v981v62t-3 41.5t-6.5 30.5t-14.5 17.5t-22 14.5t-34 12l-25 8v33h1221l16 -495h-28q-103 194 -176 299q-53 73 -93 101t-106 28q-69 0 -111 -11v-575h35q67 0 97 16.5t57 63.5q24 40 73 176h29z" />
    <glyph glyph-name="Edieresis" unicode="&#xcb;" horiz-adv-x="1345" 
d="M1030 1022v-584h-29q-46 132 -73 180q-27 49 -57 66.5t-97 17.5h-35v-516q0 -71 27 -94.5t104 -23.5q90 0 132.5 28t101.5 119q74 115 168 338h28l-26 -553h-1258v33l25 8q23 8 34 12t22 14.5t14.5 17.5t6.5 30.5t3 41.5v62v981v62t-3 41.5t-6.5 30.5t-14.5 17.5
t-22 14.5t-34 12l-25 8v33h1221l16 -495h-28q-103 194 -176 299q-53 73 -93 101t-106 28q-69 0 -111 -11v-575h35q67 0 97 16.5t57 63.5q24 40 73 176h29zM469 1485q-77 0 -129.5 47t-52.5 129q0 80 52.5 127t129.5 47q79 0 131.5 -46.5t52.5 -127.5q0 -82 -52.5 -129
t-131.5 -47zM913 1485q-77 0 -129.5 47t-52.5 129q0 80 52.5 127t129.5 47q79 0 132 -46.5t53 -127.5q0 -82 -52.5 -129t-132.5 -47z" />
    <glyph glyph-name="Igrave" unicode="&#xcc;" horiz-adv-x="870" 
d="M16 0v33l27 8q17 5 27 8.5t20 10t15 10t9.5 16t6 19.5t3 29t1.5 36.5v48.5v981v63t-3 42t-7 30.5t-14.5 17.5t-22.5 15t-35 10l-27 8v33h838v-33l-27 -8q-17 -5 -27 -8.5t-20 -10t-15 -10t-9.5 -16t-6 -19.5t-3 -29t-1.5 -36.5v-48.5v-981v-48.5t1.5 -36.5t3 -29t6 -19.5
t9.5 -16t15 -10t20 -10t27 -8.5l27 -8v-33h-838zM686 1499l-8 -18l-371 45q-70 9 -107.5 48t-37.5 97q0 70 43.5 116t111.5 46q72 0 136 -70z" />
    <glyph glyph-name="Iacute" unicode="&#xcd;" horiz-adv-x="870" 
d="M16 0v33l27 8q17 5 27 8.5t20 10t15 10t9.5 16t6 19.5t3 29t1.5 36.5v48.5v981v63t-3 42t-7 30.5t-14.5 17.5t-22.5 15t-35 10l-27 8v33h838v-33l-27 -8q-17 -5 -27 -8.5t-20 -10t-15 -10t-9.5 -16t-6 -19.5t-3 -29t-1.5 -36.5v-48.5v-981v-48.5t1.5 -36.5t3 -29t6 -19.5
t9.5 -16t15 -10t20 -10t27 -8.5l27 -8v-33h-838zM217 1481l-8 18l233 264q64 70 136 70q68 0 111.5 -46t43.5 -116q0 -58 -37.5 -97t-107.5 -48z" />
    <glyph glyph-name="Icircumflex" unicode="&#xce;" horiz-adv-x="870" 
d="M16 0v33l27 8q17 5 27 8.5t20 10t15 10t9.5 16t6 19.5t3 29t1.5 36.5v48.5v981v63t-3 42t-7 30.5t-14.5 17.5t-22.5 15t-35 10l-27 8v33h838v-33l-27 -8q-17 -5 -27 -8.5t-20 -10t-15 -10t-9.5 -16t-6 -19.5t-3 -29t-1.5 -36.5v-48.5v-981v-48.5t1.5 -36.5t3 -29t6 -19.5
t9.5 -16t15 -10t20 -10t27 -8.5l27 -8v-33h-838zM98 1483l-10 18l266 311h162l264 -311l-10 -18l-336 92z" />
    <glyph glyph-name="Idieresis" unicode="&#xcf;" horiz-adv-x="870" 
d="M16 0v33l27 8q17 5 27 8.5t20 10t15 10t9.5 16t6 19.5t3 29t1.5 36.5v48.5v981v63t-3 42t-7 30.5t-14.5 17.5t-22.5 15t-35 10l-27 8v33h838v-33l-27 -8q-17 -5 -27 -8.5t-20 -10t-15 -10t-9.5 -16t-6 -19.5t-3 -29t-1.5 -36.5v-48.5v-981v-48.5t1.5 -36.5t3 -29t6 -19.5
t9.5 -16t15 -10t20 -10t27 -8.5l27 -8v-33h-838zM213 1485q-77 0 -129.5 47t-52.5 129q0 80 52.5 127t129.5 47q79 0 131.5 -46.5t52.5 -127.5q0 -82 -52.5 -129t-131.5 -47zM657 1485q-77 0 -129.5 47t-52.5 129q0 80 52.5 127t129.5 47q79 0 132 -46.5t53 -127.5
q0 -82 -52.5 -129t-132.5 -47z" />
    <glyph glyph-name="Eth" unicode="&#xd0;" horiz-adv-x="1644" 
d="M29 676v63h92v461v62t-3 41.5t-6.5 30.5t-14.5 17.5t-22 14.5t-34 12l-25 8v33h813q389 0 588 -166.5t199 -498.5q0 -357 -208 -555.5t-579 -198.5h-813v33l25 8q23 8 34 12t22 14.5t14.5 17.5t6.5 30.5t3 41.5v62v457h-92zM817 66q38 0 65 28t48 97.5t31 195t10 311.5
q0 203 -10 332.5t-33 200t-53 96t-76 25.5q-34 0 -60 -11v-602h152v-63h-152v-504q0 -58 18.5 -82t59.5 -24z" />
    <glyph glyph-name="Ntilde" unicode="&#xd1;" horiz-adv-x="1404" 
d="M1391 1419v-33l-29 -10q-40 -15 -55.5 -29.5t-22 -45.5t-6.5 -101v-1200h-342l-737 1053h-9v-834q0 -55 2 -81t13.5 -45.5t27.5 -27.5t52 -18l51 -14v-33h-322v33l27 10q58 23 69 48t11 128v981q0 73 -5 101.5t-19.5 44t-55.5 30.5l-27 10v33h688l498 -698h8v491
q0 91 -16 115.5t-88 46.5l-41 12v33h328zM621 1796q43 0 163 -19.5t166 -19.5q42 0 71.5 17.5t57.5 62.5l19 -12q-21 -67 -34.5 -104t-33.5 -81t-39 -65t-46.5 -36t-61.5 -15q-41 0 -162.5 18.5t-167.5 18.5q-41 0 -69 -17t-56 -63l-22 12q21 67 34 104t33.5 81.5t39.5 66
t46.5 36.5t61.5 15z" />
    <glyph glyph-name="Ograve" unicode="&#xd2;" horiz-adv-x="1605" 
d="M1065 1499l-8 -18l-371 45q-70 9 -107.5 48t-37.5 97q0 70 43.5 116t111.5 46q71 0 135 -70zM799 -25q-109 0 -215.5 25t-207.5 81.5t-177.5 138t-123 203.5t-46.5 269q0 114 26 213.5t71 175t107 137t131.5 103t146 70t150 41t144.5 12.5q112 0 216.5 -21.5t207.5 -74
t178.5 -131.5t122.5 -205t47 -283q0 -159 -50.5 -290t-130.5 -215t-184.5 -142t-208 -82.5t-204.5 -24.5zM803 31q51 0 77 54t38 191t12 402q0 233 -5.5 369.5t-21.5 214.5t-38.5 102.5t-61.5 24.5t-61.5 -25t-38.5 -97.5t-21.5 -195.5t-5.5 -328q0 -228 5.5 -363.5
t21.5 -215t38.5 -106.5t61.5 -27z" />
    <glyph glyph-name="Oacute" unicode="&#xd3;" horiz-adv-x="1605" 
d="M565 1481l-8 18l234 264q64 70 135 70q68 0 111.5 -46t43.5 -116q0 -58 -37.5 -97t-107.5 -48zM799 -25q-109 0 -215.5 25t-207.5 81.5t-177.5 138t-123 203.5t-46.5 269q0 114 26 213.5t71 175t107 137t131.5 103t146 70t150 41t144.5 12.5q112 0 216.5 -21.5t207.5 -74
t178.5 -131.5t122.5 -205t47 -283q0 -159 -50.5 -290t-130.5 -215t-184.5 -142t-208 -82.5t-204.5 -24.5zM803 31q51 0 77 54t38 191t12 402q0 233 -5.5 369.5t-21.5 214.5t-38.5 102.5t-61.5 24.5t-61.5 -25t-38.5 -97.5t-21.5 -195.5t-5.5 -328q0 -228 5.5 -363.5
t21.5 -215t38.5 -106.5t61.5 -27z" />
    <glyph glyph-name="Ocircumflex" unicode="&#xd4;" horiz-adv-x="1605" 
d="M465 1483l-10 18l266 311h162l264 -311l-10 -18l-336 92zM799 -25q-109 0 -215.5 25t-207.5 81.5t-177.5 138t-123 203.5t-46.5 269q0 114 26 213.5t71 175t107 137t131.5 103t146 70t150 41t144.5 12.5q112 0 216.5 -21.5t207.5 -74t178.5 -131.5t122.5 -205t47 -283
q0 -159 -50.5 -290t-130.5 -215t-184.5 -142t-208 -82.5t-204.5 -24.5zM803 31q51 0 77 54t38 191t12 402q0 233 -5.5 369.5t-21.5 214.5t-38.5 102.5t-61.5 24.5t-61.5 -25t-38.5 -97.5t-21.5 -195.5t-5.5 -328q0 -228 5.5 -363.5t21.5 -215t38.5 -106.5t61.5 -27z" />
    <glyph glyph-name="Otilde" unicode="&#xd5;" horiz-adv-x="1605" 
d="M711 1796q43 0 163 -19.5t166 -19.5q42 0 71.5 17.5t57.5 62.5l19 -12q-21 -67 -34.5 -104t-33.5 -81t-39 -65t-46.5 -36t-61.5 -15q-41 0 -162.5 18.5t-167.5 18.5q-41 0 -69 -17t-56 -63l-22 12q21 67 34 104t33.5 81.5t39.5 66t46.5 36.5t61.5 15zM799 -25
q-109 0 -215.5 25t-207.5 81.5t-177.5 138t-123 203.5t-46.5 269q0 114 26 213.5t71 175t107 137t131.5 103t146 70t150 41t144.5 12.5q112 0 216.5 -21.5t207.5 -74t178.5 -131.5t122.5 -205t47 -283q0 -159 -50.5 -290t-130.5 -215t-184.5 -142t-208 -82.5t-204.5 -24.5z
M803 31q51 0 77 54t38 191t12 402q0 233 -5.5 369.5t-21.5 214.5t-38.5 102.5t-61.5 24.5t-61.5 -25t-38.5 -97.5t-21.5 -195.5t-5.5 -328q0 -228 5.5 -363.5t21.5 -215t38.5 -106.5t61.5 -27z" />
    <glyph glyph-name="Odieresis" unicode="&#xd6;" horiz-adv-x="1605" 
d="M580 1485q-77 0 -130 47t-53 129q0 80 53 127t130 47q79 0 131.5 -46.5t52.5 -127.5q0 -82 -52.5 -129t-131.5 -47zM1024 1485q-77 0 -129.5 47t-52.5 129q0 80 52.5 127t129.5 47q79 0 131.5 -46.5t52.5 -127.5q0 -82 -52.5 -129t-131.5 -47zM799 -25q-109 0 -215.5 25
t-207.5 81.5t-177.5 138t-123 203.5t-46.5 269q0 114 26 213.5t71 175t107 137t131.5 103t146 70t150 41t144.5 12.5q112 0 216.5 -21.5t207.5 -74t178.5 -131.5t122.5 -205t47 -283q0 -159 -50.5 -290t-130.5 -215t-184.5 -142t-208 -82.5t-204.5 -24.5zM803 31q51 0 77 54
t38 191t12 402q0 233 -5.5 369.5t-21.5 214.5t-38.5 102.5t-61.5 24.5t-61.5 -25t-38.5 -97.5t-21.5 -195.5t-5.5 -328q0 -228 5.5 -363.5t21.5 -215t38.5 -106.5t61.5 -27z" />
    <glyph glyph-name="multiply" unicode="&#xd7;" horiz-adv-x="931" 
d="M772 1077l49 -49l-307 -321l307 -322l-47 -49l-307 321l-307 -321l-49 49l307 322l-305 321l47 49l305 -321z" />
    <glyph glyph-name="Oslash" unicode="&#xd8;" horiz-adv-x="1605" 
d="M193 -98l143 202q-141 91 -224 238t-83 350q0 114 26 213.5t71 175t107 137t131.5 103t146 70t150 41t144.5 12.5q241 0 422 -94l104 145h80l-127 -178q136 -85 214.5 -231t78.5 -357q0 -159 -50.5 -290t-130.5 -215t-184.5 -142t-208 -82.5t-204.5 -24.5q-219 0 -406 97
l-121 -170h-79zM674 743v-168l256 357q-4 191 -18 289.5t-38.5 133t-70.5 34.5q-40 0 -63.5 -24.5t-39 -98t-21 -195t-5.5 -328.5zM803 31q40 0 63.5 27t39 102t21 196t5.5 322v145l-256 -356q5 -178 19.5 -272t39 -129t68.5 -35z" />
    <glyph glyph-name="Ugrave" unicode="&#xd9;" horiz-adv-x="1460" 
d="M743 1200v-801q0 -139 67 -207.5t194 -68.5q125 0 192.5 74t67.5 225v792q0 93 -16.5 119t-86.5 43l-41 10v33h326v-33l-19 -6q-27 -9 -38 -13t-25.5 -13.5t-18 -18t-8.5 -28.5t-5.5 -42.5t-0.5 -62.5v-790q0 -219 -131.5 -328t-427.5 -109q-339 0 -491 112.5t-152 363.5
v749v62t-3.5 42t-7 29t-15.5 17t-23 14t-35 12l-31 10v33h854v-33l-34 -10q-24 -7 -35.5 -11.5t-24 -13.5t-17 -18t-9 -28.5t-5 -42.5t-0.5 -62zM1030 1499l-8 -18l-371 45q-70 9 -107.5 48t-37.5 97q0 70 44 116t112 46q71 0 135 -70z" />
    <glyph glyph-name="Uacute" unicode="&#xda;" horiz-adv-x="1460" 
d="M743 1200v-801q0 -139 67 -207.5t194 -68.5q125 0 192.5 74t67.5 225v792q0 93 -16.5 119t-86.5 43l-41 10v33h326v-33l-19 -6q-27 -9 -38 -13t-25.5 -13.5t-18 -18t-8.5 -28.5t-5.5 -42.5t-0.5 -62.5v-790q0 -219 -131.5 -328t-427.5 -109q-339 0 -491 112.5t-152 363.5
v749v62t-3.5 42t-7 29t-15.5 17t-23 14t-35 12l-31 10v33h854v-33l-34 -10q-24 -7 -35.5 -11.5t-24 -13.5t-17 -18t-9 -28.5t-5 -42.5t-0.5 -62zM606 1481l-8 18l233 264q64 70 136 70q68 0 111.5 -46t43.5 -116q0 -58 -37.5 -97t-107.5 -48z" />
    <glyph glyph-name="Ucircumflex" unicode="&#xdb;" horiz-adv-x="1460" 
d="M743 1200v-801q0 -139 67 -207.5t194 -68.5q125 0 192.5 74t67.5 225v792q0 93 -16.5 119t-86.5 43l-41 10v33h326v-33l-19 -6q-27 -9 -38 -13t-25.5 -13.5t-18 -18t-8.5 -28.5t-5.5 -42.5t-0.5 -62.5v-790q0 -219 -131.5 -328t-427.5 -109q-339 0 -491 112.5t-152 363.5
v749v62t-3.5 42t-7 29t-15.5 17t-23 14t-35 12l-31 10v33h854v-33l-34 -10q-24 -7 -35.5 -11.5t-24 -13.5t-17 -18t-9 -28.5t-5 -42.5t-0.5 -62zM469 1483l-10 18l266 311h162l264 -311l-10 -18l-336 92z" />
    <glyph glyph-name="Udieresis" unicode="&#xdc;" horiz-adv-x="1460" 
d="M743 1200v-801q0 -139 67 -207.5t194 -68.5q125 0 192.5 74t67.5 225v792q0 93 -16.5 119t-86.5 43l-41 10v33h326v-33l-19 -6q-27 -9 -38 -13t-25.5 -13.5t-18 -18t-8.5 -28.5t-5.5 -42.5t-0.5 -62.5v-790q0 -219 -131.5 -328t-427.5 -109q-339 0 -491 112.5t-152 363.5
v749v62t-3.5 42t-7 29t-15.5 17t-23 14t-35 12l-31 10v33h854v-33l-34 -10q-24 -7 -35.5 -11.5t-24 -13.5t-17 -18t-9 -28.5t-5 -42.5t-0.5 -62zM1049 1485q-77 0 -130 47t-53 129q0 80 53 127t130 47q79 0 131.5 -46.5t52.5 -127.5q0 -82 -52.5 -129t-131.5 -47zM604 1485
q-77 0 -129.5 47t-52.5 129q0 80 52.5 127t129.5 47q79 0 131.5 -46.5t52.5 -127.5q0 -82 -52.5 -129t-131.5 -47z" />
    <glyph glyph-name="Yacute" unicode="&#xdd;" horiz-adv-x="1490" 
d="M1495 1419v-33l-8 -4q-47 -24 -78.5 -65t-89.5 -156l-258 -514v-428q0 -69 10 -100t35.5 -46t89.5 -32l33 -8v-33h-953v33l33 8q64 17 89.5 32t35.5 46t10 100v418l-356 635q-33 60 -45 74t-41 30l-18 10v33h968v-33l-43 -12q-64 -18 -91 -43.5t-27 -62.5q0 -49 30 -111
l201 -401h6l186 364q46 95 46 154q0 35 -23.5 58.5t-83.5 41.5l-41 12v33h383zM735 1481l-8 18l234 264q64 70 135 70q68 0 111.5 -46t43.5 -116q0 -58 -37.5 -97t-107.5 -48z" />
    <glyph glyph-name="Thorn" unicode="&#xde;" horiz-adv-x="1533" 
d="M743 1067v-848q0 -38 1 -60t6.5 -41.5t12 -29.5t22 -19.5t32 -14.5t47.5 -13l35 -8v-33h-883v33l27 8q17 5 27 8.5t20 10t15 10t9.5 16t6 19.5t3 29t1.5 36.5v48.5v981v48.5t-1.5 36.5t-3 29t-6 19.5t-9.5 16t-15 10t-20 10t-27 8.5l-27 8v33h883v-33l-35 -8
q-31 -8 -47.5 -13t-32 -14.5t-22 -19.5t-12 -29.5t-6.5 -41.5t-1 -60v-59h99q356 0 516 -100t160 -312q0 -426 -566 -426q-98 0 -170 21v28q52 13 77.5 42t38.5 103t13 216q0 151 -15 232.5t-38.5 105.5t-64.5 24q-34 0 -50 -8z" />
    <glyph glyph-name="germandbls" unicode="&#xdf;" horiz-adv-x="1521" 
d="M692 0h-710v33l6 2q79 26 93.5 44.5t14.5 86.5v786h-129v25l129 96v21q0 471 717 471q259 0 390.5 -75.5t131.5 -203.5q0 -53 -30.5 -98t-77 -74t-100 -56t-100 -46.5t-77 -43t-30.5 -46.5q0 -31 36.5 -56.5t180.5 -101.5q55 -29 88 -47.5t77 -46t70.5 -50t55.5 -54
t44.5 -62.5t26 -71t10.5 -85q0 -161 -129 -264.5t-350 -103.5q-348 0 -348 190q0 66 39.5 106.5t114.5 40.5q82 0 123.5 -46t58.5 -154q8 -48 18.5 -64t36.5 -16q30 0 50 25t20 69q0 67 -48.5 119t-170.5 137q-122 86 -164.5 151.5t-42.5 153.5q0 58 25.5 114.5t61.5 104
t72 97.5t61.5 117t25.5 141q0 121 -46.5 178t-117.5 57q-78 0 -127 -66.5t-49 -222.5v-1062q0 -63 10 -83.5t45 -29.5l14 -4v-33z" />
    <glyph glyph-name="agrave" unicode="&#xe0;" horiz-adv-x="1271" 
d="M334 -25q-145 0 -230.5 83t-85.5 208q0 49 11.5 88t36.5 68t54 50.5t74 39t85.5 29.5t99.5 26l266 56v184q0 141 -17 191.5t-55 50.5q-29 0 -41.5 -22t-17.5 -77q-12 -172 -67 -236.5t-189 -64.5q-86 0 -139 49t-53 127q0 127 141 205t436 78q265 0 396.5 -83t131.5 -273
v-490q0 -76 6 -100.5t35 -42.5q11 -6 30.5 -11.5t33 -7.5t16.5 -2v-22q-140 -101 -338 -101q-90 0 -146.5 15.5t-87.5 45.5t-50 81h-6q-109 -142 -330 -142zM598 154q35 0 47 12v385l-24 -4q-29 -5 -46.5 -18.5t-31 -60.5t-13.5 -130q0 -109 16.5 -146.5t51.5 -37.5z
M854 1174l-10 -19l-365 76q-64 13 -98.5 51t-34.5 90q0 69 43 116.5t111 47.5q81 0 143 -80z" />
    <glyph glyph-name="aacute" unicode="&#xe1;" horiz-adv-x="1271" 
d="M334 -25q-145 0 -230.5 83t-85.5 208q0 49 11.5 88t36.5 68t54 50.5t74 39t85.5 29.5t99.5 26l266 56v184q0 141 -17 191.5t-55 50.5q-29 0 -41.5 -22t-17.5 -77q-12 -172 -67 -236.5t-189 -64.5q-86 0 -139 49t-53 127q0 127 141 205t436 78q265 0 396.5 -83t131.5 -273
v-490q0 -76 6 -100.5t35 -42.5q11 -6 30.5 -11.5t33 -7.5t16.5 -2v-22q-140 -101 -338 -101q-90 0 -146.5 15.5t-87.5 45.5t-50 81h-6q-109 -142 -330 -142zM598 154q35 0 47 12v385l-24 -4q-29 -5 -46.5 -18.5t-31 -60.5t-13.5 -130q0 -109 16.5 -146.5t51.5 -37.5z
M807 1231l-365 -76l-10 19l211 282q62 80 143 80q68 0 111 -47.5t43 -116.5q0 -52 -34.5 -90t-98.5 -51z" />
    <glyph glyph-name="acircumflex" unicode="&#xe2;" horiz-adv-x="1271" 
d="M334 -25q-145 0 -230.5 83t-85.5 208q0 49 11.5 88t36.5 68t54 50.5t74 39t85.5 29.5t99.5 26l266 56v184q0 141 -17 191.5t-55 50.5q-29 0 -41.5 -22t-17.5 -77q-12 -172 -67 -236.5t-189 -64.5q-86 0 -139 49t-53 127q0 127 141 205t436 78q265 0 396.5 -83t131.5 -273
v-490q0 -76 6 -100.5t35 -42.5q11 -6 30.5 -11.5t33 -7.5t16.5 -2v-22q-140 -101 -338 -101q-90 0 -146.5 15.5t-87.5 45.5t-50 81h-6q-109 -142 -330 -142zM598 154q35 0 47 12v385l-24 -4q-29 -5 -46.5 -18.5t-31 -60.5t-13.5 -130q0 -109 16.5 -146.5t51.5 -37.5z
M543 1511h168l231 -329l-10 -17l-305 113l-305 -113l-11 17z" />
    <glyph glyph-name="atilde" unicode="&#xe3;" horiz-adv-x="1271" 
d="M334 -25q-145 0 -230.5 83t-85.5 208q0 49 11.5 88t36.5 68t54 50.5t74 39t85.5 29.5t99.5 26l266 56v184q0 141 -17 191.5t-55 50.5q-29 0 -41.5 -22t-17.5 -77q-12 -172 -67 -236.5t-189 -64.5q-86 0 -139 49t-53 127q0 127 141 205t436 78q265 0 396.5 -83t131.5 -273
v-490q0 -76 6 -100.5t35 -42.5q11 -6 30.5 -11.5t33 -7.5t16.5 -2v-22q-140 -101 -338 -101q-90 0 -146.5 15.5t-87.5 45.5t-50 81h-6q-109 -142 -330 -142zM598 154q35 0 47 12v385l-24 -4q-29 -5 -46.5 -18.5t-31 -60.5t-13.5 -130q0 -109 16.5 -146.5t51.5 -37.5z
M520 1497q42 0 163 -19.5t167 -19.5q42 0 71.5 17.5t57.5 62.5l18 -12q-17 -57 -28.5 -91.5t-27.5 -74.5t-31 -62.5t-34 -43t-42.5 -29t-51.5 -8.5q-41 0 -162 18t-167 18q-41 0 -69 -16.5t-56 -62.5l-23 12q21 69 34.5 108.5t33.5 84t39 66.5t46.5 37t61.5 15z" />
    <glyph glyph-name="adieresis" unicode="&#xe4;" horiz-adv-x="1271" 
d="M334 -25q-145 0 -230.5 83t-85.5 208q0 49 11.5 88t36.5 68t54 50.5t74 39t85.5 29.5t99.5 26l266 56v184q0 141 -17 191.5t-55 50.5q-29 0 -41.5 -22t-17.5 -77q-12 -172 -67 -236.5t-189 -64.5q-86 0 -139 49t-53 127q0 127 141 205t436 78q265 0 396.5 -83t131.5 -273
v-490q0 -76 6 -100.5t35 -42.5q11 -6 30.5 -11.5t33 -7.5t16.5 -2v-22q-140 -101 -338 -101q-90 0 -146.5 15.5t-87.5 45.5t-50 81h-6q-109 -142 -330 -142zM598 154q35 0 47 12v385l-24 -4q-29 -5 -46.5 -18.5t-31 -60.5t-13.5 -130q0 -109 16.5 -146.5t51.5 -37.5z
M403 1174q-80 0 -135 49t-55 133t55 133t135 49q83 0 137 -48.5t54 -133.5t-54 -133.5t-137 -48.5zM848 1174q-80 0 -134.5 48.5t-54.5 133.5t54.5 133.5t134.5 48.5q83 0 137.5 -48.5t54.5 -133.5t-54.5 -133.5t-137.5 -48.5z" />
    <glyph glyph-name="aring" unicode="&#xe5;" horiz-adv-x="1271" 
d="M334 -25q-145 0 -230.5 83t-85.5 208q0 49 11.5 88t36.5 68t54 50.5t74 39t85.5 29.5t99.5 26l266 56v184q0 141 -17 191.5t-55 50.5q-29 0 -41.5 -22t-17.5 -77q-12 -172 -67 -236.5t-189 -64.5q-86 0 -139 49t-53 127q0 127 141 205t436 78q265 0 396.5 -83t131.5 -273
v-490q0 -76 6 -100.5t35 -42.5q11 -6 30.5 -11.5t33 -7.5t16.5 -2v-22q-140 -101 -338 -101q-90 0 -146.5 15.5t-87.5 45.5t-50 81h-6q-109 -142 -330 -142zM598 154q35 0 47 12v385l-24 -4q-29 -5 -46.5 -18.5t-31 -60.5t-13.5 -130q0 -109 16.5 -146.5t51.5 -37.5z
M414 1360q0 80 57.5 133t136.5 53t137 -53t58 -133t-58 -133t-137 -53t-136.5 53t-57.5 133zM492 1360q0 -57 31 -93t85 -36t85.5 36t31.5 93t-31.5 93t-85.5 36t-85 -36t-31 -93z" />
    <glyph glyph-name="ae" unicode="&#xe6;" horiz-adv-x="1802" 
d="M356 -25q-163 0 -250.5 74t-87.5 199q0 68 25 118.5t75 85t109 57t144 42.5l233 55v201q0 145 -12 193.5t-45 48.5q-25 0 -36.5 -23.5t-14.5 -75.5q-12 -156 -68.5 -218t-173.5 -62q-83 0 -134.5 47t-51.5 117q0 136 136.5 205t364.5 69q209 0 314 -94q159 94 358 94
q251 0 386 -119.5t147 -378.5h-633q1 -125 21.5 -207.5t65 -129.5t105 -66t150.5 -19q132 0 248 58v-31q-73 -103 -203 -171.5t-320 -68.5q-307 0 -463 156h-8q-153 -156 -381 -156zM1219 1053q-31 0 -47 -33t-23.5 -117t-7.5 -244l153 19q0 115 -3 183.5t-11.5 113.5
t-23 61.5t-37.5 16.5zM606 147q52 0 96 33q-98 137 -98 346v9l-20 -5q-44 -10 -65 -54t-21 -146q0 -183 108 -183z" />
    <glyph glyph-name="ccedilla" unicode="&#xe7;" horiz-adv-x="1175" 
d="M260 -424v25q79 22 124.5 55.5t45.5 71.5q0 53 -65 53l-7 10l117 197q-215 37 -330.5 177t-115.5 361q0 182 93 315.5t250 200t357 66.5q208 0 318 -69.5t110 -174.5q0 -90 -51.5 -138t-147.5 -48q-112 0 -167 58t-76 218q-7 59 -20 76t-42 17q-13 0 -22.5 -6t-21.5 -30
t-19.5 -66t-13 -121t-5.5 -187q0 -239 74 -343t244 -104q58 0 126.5 15t119.5 41v-31q-71 -107 -207.5 -173.5t-302.5 -66.5q-17 0 -90 5l-31 -39q89 -7 133.5 -44.5t44.5 -97.5q0 -79 -101.5 -138.5t-320.5 -84.5z" />
    <glyph glyph-name="egrave" unicode="&#xe8;" horiz-adv-x="1198" 
d="M608 -25q-279 0 -429 138t-150 413q0 123 44 230t122.5 185t194 122.5t251.5 44.5q253 0 387 -121t146 -377h-633q1 -125 21.5 -207.5t65 -129.5t105 -66t150.5 -19q128 0 247 58v-31q-73 -103 -202.5 -171.5t-319.5 -68.5zM860 1174l-10 -19l-365 76q-64 13 -98.5 51
t-34.5 90q0 69 43 116.5t111 47.5q81 0 143 -80zM618 1053q-31 0 -47 -33t-23 -116.5t-7 -244.5l153 19q0 223 -15 299t-61 76z" />
    <glyph glyph-name="eacute" unicode="&#xe9;" horiz-adv-x="1198" 
d="M608 -25q-279 0 -429 138t-150 413q0 123 44 230t122.5 185t194 122.5t251.5 44.5q253 0 387 -121t146 -377h-633q1 -125 21.5 -207.5t65 -129.5t105 -66t150.5 -19q128 0 247 58v-31q-73 -103 -202.5 -171.5t-319.5 -68.5zM784 1231l-364 -76l-10 19l211 282
q62 80 143 80q68 0 111 -47.5t43 -116.5q0 -52 -34.5 -90t-99.5 -51zM618 1053q-31 0 -47 -33t-23 -116.5t-7 -244.5l153 19q0 223 -15 299t-61 76z" />
    <glyph glyph-name="ecircumflex" unicode="&#xea;" horiz-adv-x="1198" 
d="M608 -25q-279 0 -429 138t-150 413q0 123 44 230t122.5 185t194 122.5t251.5 44.5q253 0 387 -121t146 -377h-633q1 -125 21.5 -207.5t65 -129.5t105 -66t150.5 -19q128 0 247 58v-31q-73 -103 -202.5 -171.5t-319.5 -68.5zM524 1511h168l232 -329l-11 -17l-305 113
l-305 -113l-10 17zM618 1053q-31 0 -47 -33t-23 -116.5t-7 -244.5l153 19q0 223 -15 299t-61 76z" />
    <glyph glyph-name="edieresis" unicode="&#xeb;" horiz-adv-x="1198" 
d="M608 -25q-279 0 -429 138t-150 413q0 123 44 230t122.5 185t194 122.5t251.5 44.5q253 0 387 -121t146 -377h-633q1 -125 21.5 -207.5t65 -129.5t105 -66t150.5 -19q128 0 247 58v-31q-73 -103 -202.5 -171.5t-319.5 -68.5zM389 1174q-80 0 -135 49t-55 133t55 133
t135 49q83 0 137 -48.5t54 -133.5t-54 -133.5t-137 -48.5zM834 1174q-80 0 -134.5 48.5t-54.5 133.5t54.5 133.5t134.5 48.5q83 0 137.5 -48.5t54.5 -133.5t-54.5 -133.5t-137.5 -48.5zM618 1053q-31 0 -47 -33t-23 -116.5t-7 -244.5l153 19q0 223 -15 299t-61 76z" />
    <glyph glyph-name="igrave" unicode="&#xec;" horiz-adv-x="710" 
d="M-20 1020v22l632 66l15 -12q-9 -129 -9 -273v-657q0 -68 14 -86t87 -43l12 -4v-33h-751v33l6 2q44 15 60.5 21.5t30 22t14.5 32t1 55.5v659q0 83 -10 104.5t-70 65.5zM584 1174l-11 -19l-364 76q-64 13 -98.5 51t-34.5 90q0 69 42.5 116.5t110.5 47.5q82 0 144 -80z" />
    <glyph glyph-name="iacute" unicode="&#xed;" horiz-adv-x="710" 
d="M481 1231l-364 -76l-11 19l211 282q62 80 144 80q68 0 110.5 -47.5t42.5 -116.5q0 -52 -34.5 -90t-98.5 -51zM-20 1020v22l632 66l15 -12q-9 -129 -9 -273v-657q0 -68 14 -86t87 -43l12 -4v-33h-751v33l6 2q44 15 60.5 21.5t30 22t14.5 32t1 55.5v659q0 83 -10 104.5
t-70 65.5z" />
    <glyph glyph-name="icircumflex" unicode="&#xee;" horiz-adv-x="710" 
d="M258 1511h168l231 -329l-10 -17l-305 113l-305 -113l-10 17zM-20 1020v22l632 66l15 -12q-9 -129 -9 -273v-657q0 -68 14 -86t87 -43l12 -4v-33h-751v33l6 2q44 15 60.5 21.5t30 22t14.5 32t1 55.5v659q0 83 -10 104.5t-70 65.5z" />
    <glyph glyph-name="idieresis" unicode="&#xef;" horiz-adv-x="710" 
d="M129 1174q-80 0 -135 49t-55 133t55 133t135 49q82 0 136 -48.5t54 -133.5t-54 -133.5t-136 -48.5zM573 1174q-80 0 -134 48.5t-54 133.5t54 133.5t134 48.5q83 0 138 -48.5t55 -133.5t-55 -133.5t-138 -48.5zM-20 1020v22l632 66l15 -12q-9 -129 -9 -273v-657
q0 -68 14 -86t87 -43l12 -4v-33h-751v33l6 2q44 15 60.5 21.5t30 22t14.5 32t1 55.5v659q0 83 -10 104.5t-70 65.5z" />
    <glyph glyph-name="eth" unicode="&#xf0;" horiz-adv-x="1331" 
d="M295 1204l-29 56l248 114q-98 80 -262 166l10 33q232 -54 410 -125l235 108l27 -55l-186 -88q265 -123 403.5 -308.5t138.5 -451.5q0 -178 -48 -311t-135 -212t-199.5 -117t-250.5 -38q-185 0 -325 61.5t-221.5 189.5t-81.5 309q0 140 48.5 251t133 180.5t192 105.5
t230.5 36q28 0 69 -6q-28 120 -139 227zM664 33q19 0 30 6t23.5 33t19 78t11 144.5t4.5 229.5q0 231 -10.5 345.5t-29.5 148t-57 33.5q-27 0 -43.5 -20.5t-27 -79t-14 -153t-3.5 -253.5q0 -140 5 -237t12.5 -150.5t21 -82t26 -35.5t32.5 -7z" />
    <glyph glyph-name="ntilde" unicode="&#xf1;" horiz-adv-x="1406" 
d="M688 0h-708v33l6 2q44 15 60.5 21.5t30 22t14.5 32t1 55.5v659q0 82 -10 104t-70 66l-32 25v22l616 66l16 -12l-2 -162h4q208 174 410 174q129 0 210 -74t81 -200v-668q0 -69 14.5 -87.5t85.5 -41.5l12 -4v-33h-710v33l12 4q37 12 48 32t11 81v602q0 74 -26.5 105.5
t-83.5 31.5q-32 0 -60 -8v-731q0 -63 10.5 -83.5t45.5 -29.5l14 -4v-33zM616 1497q42 0 163 -19.5t167 -19.5q42 0 71.5 17.5t57.5 62.5l19 -12q-17 -57 -28.5 -91.5t-27.5 -74.5t-31 -62.5t-34 -43t-42.5 -29t-51.5 -8.5q-41 0 -162.5 18t-167.5 18q-41 0 -69 -16.5
t-56 -62.5l-23 12q21 69 34.5 108.5t33.5 84t39 66.5t46.5 37t61.5 15z" />
    <glyph glyph-name="ograve" unicode="&#xf2;" horiz-adv-x="1316" 
d="M659 -25q-125 0 -236.5 35t-200.5 102t-141 176.5t-52 248.5q0 103 25.5 189t71 147.5t104.5 107.5t131 73.5t146 40.5t152 13q95 0 184.5 -21t170.5 -66.5t141.5 -110.5t96.5 -159t36 -206q0 -123 -36 -221.5t-95.5 -162.5t-142 -107t-170.5 -61t-185 -18zM567 559
q0 -231 10.5 -345t29.5 -147.5t57 -33.5q34 0 51.5 32t27 139t9.5 320q0 232 -10 345.5t-29 147.5t-58 34q-24 0 -39 -16.5t-27 -67t-17 -149.5t-5 -259zM883 1174l-11 -19l-364 76q-64 13 -98.5 51t-34.5 90q0 69 42.5 116.5t110.5 47.5q82 0 144 -80z" />
    <glyph glyph-name="oacute" unicode="&#xf3;" horiz-adv-x="1316" 
d="M809 1231l-365 -76l-10 19l211 282q62 80 143 80q68 0 111 -47.5t43 -116.5q0 -52 -34.5 -90t-98.5 -51zM659 -25q-125 0 -236.5 35t-200.5 102t-141 176.5t-52 248.5q0 103 25.5 189t71 147.5t104.5 107.5t131 73.5t146 40.5t152 13q95 0 184.5 -21t170.5 -66.5
t141.5 -110.5t96.5 -159t36 -206q0 -123 -36 -221.5t-95.5 -162.5t-142 -107t-170.5 -61t-185 -18zM567 559q0 -231 10.5 -345t29.5 -147.5t57 -33.5q34 0 51.5 32t27 139t9.5 320q0 232 -10 345.5t-29 147.5t-58 34q-24 0 -39 -16.5t-27 -67t-17 -149.5t-5 -259z" />
    <glyph glyph-name="ocircumflex" unicode="&#xf4;" horiz-adv-x="1316" 
d="M575 1511h168l232 -329l-10 -17l-306 113l-305 -113l-10 17zM659 -25q-125 0 -236.5 35t-200.5 102t-141 176.5t-52 248.5q0 103 25.5 189t71 147.5t104.5 107.5t131 73.5t146 40.5t152 13q95 0 184.5 -21t170.5 -66.5t141.5 -110.5t96.5 -159t36 -206q0 -123 -36 -221.5
t-95.5 -162.5t-142 -107t-170.5 -61t-185 -18zM567 559q0 -231 10.5 -345t29.5 -147.5t57 -33.5q34 0 51.5 32t27 139t9.5 320q0 232 -10 345.5t-29 147.5t-58 34q-24 0 -39 -16.5t-27 -67t-17 -149.5t-5 -259z" />
    <glyph glyph-name="otilde" unicode="&#xf5;" horiz-adv-x="1316" 
d="M659 -25q-125 0 -236.5 35t-200.5 102t-141 176.5t-52 248.5q0 103 25.5 189t71 147.5t104.5 107.5t131 73.5t146 40.5t152 13q95 0 184.5 -21t170.5 -66.5t141.5 -110.5t96.5 -159t36 -206q0 -123 -36 -221.5t-95.5 -162.5t-142 -107t-170.5 -61t-185 -18zM567 559
q0 -231 10.5 -345t29.5 -147.5t57 -33.5q34 0 51.5 32t27 139t9.5 320q0 232 -10 345.5t-29 147.5t-58 34q-24 0 -39 -16.5t-27 -67t-17 -149.5t-5 -259zM543 1497q43 0 163 -19.5t166 -19.5q42 0 71.5 17.5t57.5 62.5l19 -12q-17 -57 -28.5 -91.5t-27.5 -74.5t-31 -62.5
t-34 -43t-42.5 -29t-51.5 -8.5q-41 0 -162.5 18t-167.5 18q-41 0 -69 -16.5t-56 -62.5l-22 12q21 69 34.5 108.5t33.5 84t39 66.5t46.5 37t61.5 15z" />
    <glyph glyph-name="odieresis" unicode="&#xf6;" horiz-adv-x="1316" 
d="M436 1174q-80 0 -135 49t-55 133t55 133t135 49q83 0 137 -48.5t54 -133.5t-54 -133.5t-137 -48.5zM881 1174q-80 0 -134.5 48.5t-54.5 133.5t54.5 133.5t134.5 48.5q83 0 137.5 -48.5t54.5 -133.5t-54.5 -133.5t-137.5 -48.5zM659 -25q-125 0 -236.5 35t-200.5 102
t-141 176.5t-52 248.5q0 103 25.5 189t71 147.5t104.5 107.5t131 73.5t146 40.5t152 13q95 0 184.5 -21t170.5 -66.5t141.5 -110.5t96.5 -159t36 -206q0 -123 -36 -221.5t-95.5 -162.5t-142 -107t-170.5 -61t-185 -18zM567 559q0 -231 10.5 -345t29.5 -147.5t57 -33.5
q34 0 51.5 32t27 139t9.5 320q0 232 -10 345.5t-29 147.5t-58 34q-24 0 -39 -16.5t-27 -67t-17 -149.5t-5 -259z" />
    <glyph glyph-name="divide" unicode="&#xf7;" horiz-adv-x="993" 
d="M90 674v67h813v-67h-813zM496 248q-64 0 -108 45t-44 106q0 65 44 108.5t108 43.5q62 0 106.5 -43.5t44.5 -108.5q0 -60 -45 -105.5t-106 -45.5zM496 864q-63 0 -107.5 45.5t-44.5 106.5q0 65 44 108t108 43q63 0 107 -43t44 -108q0 -60 -45 -106t-106 -46z" />
    <glyph glyph-name="oslash" unicode="&#xf8;" horiz-adv-x="1316" 
d="M659 -25q-189 0 -340 74l-90 -119h-71l112 148q-112 71 -176.5 186.5t-64.5 272.5q0 103 25.5 189t71 147.5t104.5 107.5t131 73.5t146 40.5t152 13q181 0 334 -78l97 127h71l-117 -153q113 -73 178.5 -188.5t65.5 -270.5q0 -123 -36 -221.5t-95.5 -162.5t-142 -107
t-170.5 -61t-185 -18zM664 33q34 0 51.5 32t27 139t9.5 320v94l-185 -241q4 -147 16.5 -223t30.5 -98.5t50 -22.5zM567 559v-90l183 242q-4 145 -16 220t-29.5 97.5t-49.5 22.5q-24 0 -39 -16.5t-27 -67t-17 -149.5t-5 -259z" />
    <glyph glyph-name="ugrave" unicode="&#xf9;" horiz-adv-x="1398" 
d="M778 201v626q0 82 -9 104.5t-60 61.5l-35 27v22l618 66l13 -10v-860q0 -59 5 -82t18.5 -36t51.5 -26l33 -12v-27l-616 -80l-15 13l2 155h-4q-98 -89 -188.5 -128.5t-202.5 -39.5q-59 0 -112.5 17.5t-96.5 52t-68.5 91.5t-25.5 130v561q0 79 -10 100t-68 66l-35 27v22
l627 66l12 -10v-752q0 -87 24.5 -121.5t82.5 -34.5q37 0 59 11zM891 1174l-10 -19l-365 76q-64 13 -98.5 51t-34.5 90q0 69 43 116.5t111 47.5q81 0 143 -80z" />
    <glyph glyph-name="uacute" unicode="&#xfa;" horiz-adv-x="1398" 
d="M842 1231l-365 -76l-10 19l211 282q62 80 143 80q68 0 111 -47.5t43 -116.5q0 -52 -34.5 -90t-98.5 -51zM778 201v626q0 82 -9 104.5t-60 61.5l-35 27v22l618 66l13 -10v-860q0 -59 5 -82t18.5 -36t51.5 -26l33 -12v-27l-616 -80l-15 13l2 155h-4q-98 -89 -188.5 -128.5
t-202.5 -39.5q-59 0 -112.5 17.5t-96.5 52t-68.5 91.5t-25.5 130v561q0 79 -10 100t-68 66l-35 27v22l627 66l12 -10v-752q0 -87 24.5 -121.5t82.5 -34.5q37 0 59 11z" />
    <glyph glyph-name="ucircumflex" unicode="&#xfb;" horiz-adv-x="1398" 
d="M600 1511h168l231 -329l-10 -17l-305 113l-305 -113l-10 17zM778 201v626q0 82 -9 104.5t-60 61.5l-35 27v22l618 66l13 -10v-860q0 -59 5 -82t18.5 -36t51.5 -26l33 -12v-27l-616 -80l-15 13l2 155h-4q-98 -89 -188.5 -128.5t-202.5 -39.5q-59 0 -112.5 17.5t-96.5 52
t-68.5 91.5t-25.5 130v561q0 79 -10 100t-68 66l-35 27v22l627 66l12 -10v-752q0 -87 24.5 -121.5t82.5 -34.5q37 0 59 11z" />
    <glyph glyph-name="udieresis" unicode="&#xfc;" horiz-adv-x="1398" 
d="M428 1174q-80 0 -135 49t-55 133t55 133t135 49q82 0 136 -48.5t54 -133.5t-54 -133.5t-136 -48.5zM872 1174q-80 0 -134 48.5t-54 133.5t54 133.5t134 48.5q83 0 138 -48.5t55 -133.5t-55 -133.5t-138 -48.5zM778 201v626q0 82 -9 104.5t-60 61.5l-35 27v22l618 66
l13 -10v-860q0 -59 5 -82t18.5 -36t51.5 -26l33 -12v-27l-616 -80l-15 13l2 155h-4q-98 -89 -188.5 -128.5t-202.5 -39.5q-59 0 -112.5 17.5t-96.5 52t-68.5 91.5t-25.5 130v561q0 79 -10 100t-68 66l-35 27v22l627 66l12 -10v-752q0 -87 24.5 -121.5t82.5 -34.5q37 0 59 11
z" />
    <glyph glyph-name="yacute" unicode="&#xfd;" horiz-adv-x="1224" 
d="M608 -121l-489 979q-70 141 -83 158q-12 15 -34 26l-12 7v34h823v-34l-29 -9q-56 -17 -77 -37t-21 -51q0 -46 43 -147l127 -299h8l119 299q37 106 37 143q0 31 -21 53t-73 39l-27 9v34h326v-34l-8 -5q-32 -16 -50.5 -32.5t-42 -58.5t-53.5 -119l-323 -826
q-90 -231 -197 -329.5t-264 -98.5q-120 0 -192 59t-72 152q0 74 47.5 121t132.5 47q78 0 121 -39t63 -131q10 -47 20.5 -63.5t36.5 -16.5q37 0 86 50.5t78 119.5zM950 1231l-364 -76l-11 19l211 282q62 80 144 80q68 0 110.5 -47.5t42.5 -116.5q0 -52 -34.5 -90t-98.5 -51z
" />
    <glyph glyph-name="thorn" unicode="&#xfe;" horiz-adv-x="1396" 
d="M618 -240q0 -25 0.5 -39t6 -27.5t9.5 -19t21 -14t28.5 -13t43.5 -14.5l18 -6v-33h-763v33l6 2q44 15 61 21.5t29.5 22.5t13 31t0.5 56v1504q0 48 -1 67.5t-9 40t-21 31t-41 27.5l-49 30v25l637 65l19 -12q-9 -109 -9 -246v-348h5q142 164 344 164q179 0 286 -124
t107 -380q0 -131 -30.5 -236.5t-85.5 -178t-133.5 -121t-171.5 -71t-202 -22.5q-57 0 -119 15v-230zM696 37q33 0 54.5 18t38.5 68t24.5 145t7.5 244q0 157 -17.5 242.5t-46 112t-77.5 26.5q-34 0 -62 -12v-807q10 -17 32.5 -27t45.5 -10z" />
    <glyph glyph-name="ydieresis" unicode="&#xff;" horiz-adv-x="1224" 
d="M608 -121l-489 979q-70 141 -83 158q-12 15 -34 26l-12 7v34h823v-34l-29 -9q-56 -17 -77 -37t-21 -51q0 -46 43 -147l127 -299h8l119 299q37 106 37 143q0 31 -21 53t-73 39l-27 9v34h326v-34l-8 -5q-32 -16 -50.5 -32.5t-42 -58.5t-53.5 -119l-323 -826
q-90 -231 -197 -329.5t-264 -98.5q-120 0 -192 59t-72 152q0 74 47.5 121t132.5 47q78 0 121 -39t63 -131q10 -47 20.5 -63.5t36.5 -16.5q37 0 86 50.5t78 119.5zM520 1174q-80 0 -135 49t-55 133t55 133t135 49q83 0 137 -48.5t54 -133.5t-54 -133.5t-137 -48.5zM965 1174
q-80 0 -134.5 48.5t-54.5 133.5t54.5 133.5t134.5 48.5q83 0 137.5 -48.5t54.5 -133.5t-54.5 -133.5t-137.5 -48.5z" />
    <glyph glyph-name="Amacron" unicode="&#x100;" 
d="M-12 0v33l10 4q44 18 65.5 38t44 65.5t62.5 152.5l412 1126h356l395 -1120q62 -176 81 -207q16 -26 50 -44q3 -2 9 -5l18 -10v-33h-932v33l53 10q53 12 75 35.5t22 66.5q0 52 -31 154l-45 145h-326l-51 -145q-45 -130 -45 -172q0 -32 20.5 -51t79.5 -33l39 -10v-33h-362z
M449 1552v142h622v-142h-622zM479 934l-149 -424h284l-129 424h-6z" />
    <glyph glyph-name="amacron" unicode="&#x101;" horiz-adv-x="1271" 
d="M334 -25q-145 0 -230.5 83t-85.5 208q0 49 11.5 88t36.5 68t54 50.5t74 39t85.5 29.5t99.5 26l266 56v184q0 141 -17 191.5t-55 50.5q-29 0 -41.5 -22t-17.5 -77q-12 -172 -67 -236.5t-189 -64.5q-86 0 -139 49t-53 127q0 127 141 205t436 78q265 0 396.5 -83t131.5 -273
v-490q0 -76 6 -100.5t35 -42.5q11 -6 30.5 -11.5t33 -7.5t16.5 -2v-22q-140 -101 -338 -101q-90 0 -146.5 15.5t-87.5 45.5t-50 81h-6q-109 -142 -330 -142zM598 154q35 0 47 12v385l-24 -4q-29 -5 -46.5 -18.5t-31 -60.5t-13.5 -130q0 -109 16.5 -146.5t51.5 -37.5z
M334 1231v141h590v-141h-590z" />
    <glyph glyph-name="Abreve" unicode="&#x102;" 
d="M-12 0v33l10 4q44 18 65.5 38t44 65.5t62.5 152.5l412 1126h356l395 -1120q62 -176 81 -207q16 -26 50 -44q3 -2 9 -5l18 -10v-33h-932v33l53 10q53 12 75 35.5t22 66.5q0 52 -31 154l-45 145h-326l-51 -145q-45 -130 -45 -172q0 -32 20.5 -51t79.5 -33l39 -10v-33h-362z
M756 1485q-126 0 -208.5 85t-88.5 247l14 8q52 -69 116.5 -94t166.5 -25t166 25t116 94l15 -8q-6 -162 -88.5 -247t-208.5 -85zM479 934l-149 -424h284l-129 424h-6z" />
    <glyph glyph-name="abreve" unicode="&#x103;" horiz-adv-x="1271" 
d="M334 -25q-145 0 -230.5 83t-85.5 208q0 49 11.5 88t36.5 68t54 50.5t74 39t85.5 29.5t99.5 26l266 56v184q0 141 -17 191.5t-55 50.5q-29 0 -41.5 -22t-17.5 -77q-12 -172 -67 -236.5t-189 -64.5q-86 0 -139 49t-53 127q0 127 141 205t436 78q265 0 396.5 -83t131.5 -273
v-490q0 -76 6 -100.5t35 -42.5q11 -6 30.5 -11.5t33 -7.5t16.5 -2v-22q-140 -101 -338 -101q-90 0 -146.5 15.5t-87.5 45.5t-50 81h-6q-109 -142 -330 -142zM598 154q35 0 47 12v385l-24 -4q-29 -5 -46.5 -18.5t-31 -60.5t-13.5 -130q0 -109 16.5 -146.5t51.5 -37.5z
M639 1184q-241 0 -283 327l15 9q58 -68 119 -94.5t149 -26.5t149 26.5t119 94.5l15 -9q-42 -327 -283 -327z" />
    <glyph glyph-name="Aogonek" unicode="&#x104;" 
d="M471 -268q0 77 71 136.5t236 100.5l-145 475h-326l-51 -145q-45 -130 -45 -172q0 -32 20.5 -51t79.5 -33l39 -10v-33h-362v33l10 4q34 14 51 24.5t37 40t36.5 69t47.5 122.5l412 1126h356l395 -1120q62 -175 80 -205q15 -26 49 -45q4 -2 11 -6l18 -10v-33h-340
q-147 0 -237.5 -29t-125 -76t-34.5 -116q0 -50 22 -73t68 -23q24 0 51 6v-19q-37 -40 -96.5 -65t-126.5 -25q-91 0 -146 40.5t-55 111.5zM479 934l-149 -424h284l-129 424h-6z" />
    <glyph glyph-name="aogonek" unicode="&#x105;" horiz-adv-x="1271" 
d="M1292 76q-113 -86 -156.5 -154.5t-43.5 -150.5q0 -43 22 -65.5t60 -22.5q32 0 59 6v-19q-37 -40 -96.5 -65t-126.5 -25q-91 0 -146 40.5t-55 111.5q0 148 313 266q-84 -23 -168 -23q-90 0 -146.5 15.5t-87.5 45.5t-50 81h-6q-109 -142 -330 -142q-145 0 -230.5 83
t-85.5 208q0 49 11.5 88t36.5 68t54 50.5t74 39t85.5 29.5t99.5 26l266 56v184q0 141 -17 191.5t-55 50.5q-29 0 -41.5 -22t-17.5 -77q-12 -172 -67 -236.5t-189 -64.5q-86 0 -139 49t-53 127q0 127 141 205t436 78q265 0 396.5 -83t131.5 -273v-490q0 -76 6 -100.5
t35 -42.5q11 -6 30.5 -11.5t33 -7.5t16.5 -2v-22zM598 154q35 0 47 12v385l-24 -4q-29 -5 -46.5 -18.5t-31 -60.5t-13.5 -130q0 -109 16.5 -146.5t51.5 -37.5zM1122 -2h4h-4z" />
    <glyph glyph-name="Cacute" unicode="&#x106;" horiz-adv-x="1404" 
d="M827 -25q-380 0 -589 189.5t-209 533.5q0 150 42.5 273.5t118 210.5t181.5 146.5t230.5 87.5t266.5 28q246 0 404 -47l43 -494h-31q-123 208 -242 361q-55 71 -92 98t-80 27q-72 0 -113.5 -59.5t-61 -200.5t-19.5 -390q0 -273 26 -431.5t71.5 -217.5t119.5 -59
q59 0 102 34t99 113q71 98 206 359h31l-28 -484q-206 -78 -476 -78zM551 1481l-8 18l233 264q64 70 135 70q68 0 112 -46t44 -116q0 -58 -37.5 -97t-107.5 -48z" />
    <glyph glyph-name="cacute" unicode="&#x107;" horiz-adv-x="1175" 
d="M778 1231l-364 -76l-11 19l211 282q62 80 144 80q68 0 110.5 -47.5t42.5 -116.5q0 -52 -34.5 -90t-98.5 -51zM625 -25q-283 0 -439.5 147t-156.5 404q0 182 93 315.5t250 200t357 66.5q208 0 318 -69.5t110 -174.5q0 -90 -51.5 -138t-147.5 -48q-112 0 -167 58t-76 218
q-7 59 -20 76t-42 17q-13 0 -22.5 -6t-21.5 -30t-19.5 -66t-13 -121t-5.5 -187q0 -239 74 -343t244 -104q58 0 126.5 15t119.5 41v-31q-71 -107 -207.5 -173.5t-302.5 -66.5z" />
    <glyph glyph-name="Ccircumflex" unicode="&#x108;" horiz-adv-x="1404" 
d="M459 1483l-10 18l266 311h162l264 -311l-11 -18l-335 92zM827 -25q-380 0 -589 189.5t-209 533.5q0 150 42.5 273.5t118 210.5t181.5 146.5t230.5 87.5t266.5 28q246 0 404 -47l43 -494h-31q-123 208 -242 361q-55 71 -92 98t-80 27q-72 0 -113.5 -59.5t-61 -200.5
t-19.5 -390q0 -273 26 -431.5t71.5 -217.5t119.5 -59q59 0 102 34t99 113q71 98 206 359h31l-28 -484q-206 -78 -476 -78z" />
    <glyph glyph-name="ccircumflex" unicode="&#x109;" horiz-adv-x="1175" 
d="M518 1511h168l232 -329l-11 -17l-305 113l-305 -113l-10 17zM625 -25q-283 0 -439.5 147t-156.5 404q0 182 93 315.5t250 200t357 66.5q208 0 318 -69.5t110 -174.5q0 -90 -51.5 -138t-147.5 -48q-112 0 -167 58t-76 218q-7 59 -20 76t-42 17q-13 0 -22.5 -6t-21.5 -30
t-19.5 -66t-13 -121t-5.5 -187q0 -239 74 -343t244 -104q58 0 126.5 15t119.5 41v-31q-71 -107 -207.5 -173.5t-302.5 -66.5z" />
    <glyph glyph-name="Cdotaccent" unicode="&#x10a;" horiz-adv-x="1404" 
d="M827 -25q-380 0 -589 189.5t-209 533.5q0 150 42.5 273.5t118 210.5t181.5 146.5t230.5 87.5t266.5 28q246 0 404 -47l43 -494h-31q-123 208 -242 361q-55 71 -92 98t-80 27q-72 0 -113.5 -59.5t-61 -200.5t-19.5 -390q0 -273 26 -431.5t71.5 -217.5t119.5 -59
q59 0 102 34t99 113q71 98 206 359h31l-28 -484q-206 -78 -476 -78zM811 1481q-104 0 -167.5 56.5t-63.5 150.5q0 90 63.5 146t167.5 56q105 0 167 -56t62 -146q0 -94 -62 -150.5t-167 -56.5z" />
    <glyph glyph-name="cdotaccent" unicode="&#x10b;" horiz-adv-x="1175" 
d="M625 -25q-283 0 -439.5 147t-156.5 404q0 182 93 315.5t250 200t357 66.5q208 0 318 -69.5t110 -174.5q0 -90 -51.5 -138t-147.5 -48q-112 0 -167 58t-76 218q-7 59 -20 76t-42 17q-13 0 -22.5 -6t-21.5 -30t-19.5 -66t-13 -121t-5.5 -187q0 -239 74 -343t244 -104
q58 0 126.5 15t119.5 41v-31q-71 -107 -207.5 -173.5t-302.5 -66.5zM625 1145q-105 0 -168.5 58t-63.5 155q0 93 64 151t168 58q105 0 167 -58t62 -151q0 -97 -62 -155t-167 -58z" />
    <glyph glyph-name="Ccaron" unicode="&#x10c;" horiz-adv-x="1404" 
d="M455 1800l10 19l336 -93l336 93l10 -19l-264 -311h-162zM827 -25q-380 0 -589 189.5t-209 533.5q0 150 42.5 273.5t118 210.5t181.5 146.5t230.5 87.5t266.5 28q246 0 404 -47l43 -494h-31q-123 208 -242 361q-55 71 -92 98t-80 27q-72 0 -113.5 -59.5t-61 -200.5
t-19.5 -390q0 -273 26 -431.5t71.5 -217.5t119.5 -59q59 0 102 34t99 113q71 98 206 359h31l-28 -484q-206 -78 -476 -78z" />
    <glyph glyph-name="ccaron" unicode="&#x10d;" horiz-adv-x="1175" 
d="M688 1182h-168l-231 329l10 17l305 -113l305 113l11 -17zM625 -25q-283 0 -439.5 147t-156.5 404q0 182 93 315.5t250 200t357 66.5q208 0 318 -69.5t110 -174.5q0 -90 -51.5 -138t-147.5 -48q-112 0 -167 58t-76 218q-7 59 -20 76t-42 17q-13 0 -22.5 -6t-21.5 -30
t-19.5 -66t-13 -121t-5.5 -187q0 -239 74 -343t244 -104q58 0 126.5 15t119.5 41v-31q-71 -107 -207.5 -173.5t-302.5 -66.5z" />
    <glyph glyph-name="Dcaron" unicode="&#x10e;" horiz-adv-x="1644" 
d="M463 1800l10 19l336 -93l336 93l10 -19l-264 -311h-162zM16 0v33l25 8q23 8 34 12t22 14.5t14.5 17.5t6.5 30.5t3 41.5v62v981v62t-3 41.5t-6.5 30.5t-14.5 17.5t-22 14.5t-34 12l-25 8v33h813q389 0 588 -166.5t199 -498.5q0 -357 -208 -555.5t-579 -198.5h-813zM817 66
q38 0 65 28t48 97.5t31 195t10 311.5q0 203 -10 332.5t-33 200t-53 96t-76 25.5q-34 0 -60 -11v-1169q0 -58 18.5 -82t59.5 -24z" />
    <glyph glyph-name="dcaron" unicode="&#x10f;" horiz-adv-x="1400" 
d="M776 1094v157q0 77 -15 101.5t-83 64.5l-53 31v27l667 79l19 -12q-8 -111 -8 -248v-1054q0 -59 4.5 -82.5t19 -37t51.5 -26.5l33 -12v-27l-610 -80l-23 15l2 137h-2q-59 -75 -145 -113.5t-184 -38.5q-193 0 -304.5 128.5t-111.5 373.5q0 167 46 291t130 197t192.5 108
t243.5 35q76 0 131 -14zM711 168q35 0 65 18v805q-20 62 -82 62q-43 0 -68.5 -40.5t-39 -144.5t-13.5 -286q0 -158 16 -250t45 -128t77 -36zM1376 1130l-18 9l8 284q2 61 36 96t95 35q57 0 93 -33.5t36 -84.5q0 -69 -67 -131z" />
    <glyph glyph-name="Dcroat" unicode="&#x110;" horiz-adv-x="1644" 
d="M29 676v63h92v461v62t-3 41.5t-6.5 30.5t-14.5 17.5t-22 14.5t-34 12l-25 8v33h813q389 0 588 -166.5t199 -498.5q0 -357 -208 -555.5t-579 -198.5h-813v33l25 8q23 8 34 12t22 14.5t14.5 17.5t6.5 30.5t3 41.5v62v457h-92zM817 66q38 0 65 28t48 97.5t31 195t10 311.5
q0 203 -10 332.5t-33 200t-53 96t-76 25.5q-34 0 -60 -11v-602h152v-63h-152v-504q0 -58 18.5 -82t59.5 -24z" />
    <glyph glyph-name="dcroat" unicode="&#x111;" horiz-adv-x="1400" 
d="M711 168q35 0 65 18v805q-20 62 -82 62q-43 0 -68.5 -40.5t-39 -144.5t-13.5 -286q0 -158 16 -250t45 -128t77 -36zM776 1286q-3 52 -19.5 73t-78.5 58l-53 31v27l667 79l19 -12q-8 -111 -8 -248v-8h88v-65h-88v-981q0 -59 4.5 -82.5t19 -37t51.5 -26.5l33 -12v-27
l-608 -80l-23 15l-4 137h-2q-59 -75 -143.5 -113.5t-181.5 -38.5q-193 0 -304.5 128.5t-111.5 373.5q0 167 46 291t130 197t192.5 108t243.5 35q76 0 131 -14v127h-323v65h323z" />
    <glyph glyph-name="Emacron" unicode="&#x112;" horiz-adv-x="1345" 
d="M1030 1022v-584h-29q-46 132 -73 180q-27 49 -57 66.5t-97 17.5h-35v-516q0 -71 27 -94.5t104 -23.5q90 0 132.5 28t101.5 119q74 115 168 338h28l-26 -553h-1258v33l25 8q23 8 34 12t22 14.5t14.5 17.5t6.5 30.5t3 41.5v62v981v62t-3 41.5t-6.5 30.5t-14.5 17.5
t-22 14.5t-34 12l-25 8v33h1221l16 -495h-28q-103 194 -176 299q-53 73 -93 101t-106 28q-69 0 -111 -11v-575h35q67 0 97 16.5t57 63.5q24 40 73 176h29zM397 1552v142h623v-142h-623z" />
    <glyph glyph-name="emacron" unicode="&#x113;" horiz-adv-x="1198" 
d="M608 -25q-279 0 -429 138t-150 413q0 123 44 230t122.5 185t194 122.5t251.5 44.5q253 0 387 -121t146 -377h-633q1 -125 21.5 -207.5t65 -129.5t105 -66t150.5 -19q128 0 247 58v-31q-73 -103 -202.5 -171.5t-319.5 -68.5zM326 1231v141h589v-141h-589zM618 1053
q-31 0 -47 -33t-23 -116.5t-7 -244.5l153 19q0 223 -15 299t-61 76z" />
    <glyph glyph-name="Ebreve" unicode="&#x114;" horiz-adv-x="1345" 
d="M1030 1022v-584h-29q-46 132 -73 180q-27 49 -57 66.5t-97 17.5h-35v-516q0 -71 27 -94.5t104 -23.5q90 0 132.5 28t101.5 119q74 115 168 338h28l-26 -553h-1258v33l25 8q23 8 34 12t22 14.5t14.5 17.5t6.5 30.5t3 41.5v62v981v62t-3 41.5t-6.5 30.5t-14.5 17.5
t-22 14.5t-34 12l-25 8v33h1221l16 -495h-28q-103 194 -176 299q-53 73 -93 101t-106 28q-69 0 -111 -11v-575h35q67 0 97 16.5t57 63.5q24 40 73 176h29zM713 1485q-126 0 -208.5 85t-88.5 247l14 8q52 -69 116.5 -94t166.5 -25t166 25t116 94l15 -8q-6 -162 -88.5 -247
t-208.5 -85z" />
    <glyph glyph-name="ebreve" unicode="&#x115;" horiz-adv-x="1198" 
d="M608 -25q-279 0 -429 138t-150 413q0 123 44 230t122.5 185t194 122.5t251.5 44.5q253 0 387 -121t146 -377h-633q1 -125 21.5 -207.5t65 -129.5t105 -66t150.5 -19q128 0 247 58v-31q-73 -103 -202.5 -171.5t-319.5 -68.5zM606 1184q-240 0 -282 327l14 9
q58 -68 119 -94.5t149 -26.5t149 26.5t119 94.5l15 -9q-42 -327 -283 -327zM618 1053q-31 0 -47 -33t-23 -116.5t-7 -244.5l153 19q0 223 -15 299t-61 76z" />
    <glyph glyph-name="Edotaccent" unicode="&#x116;" horiz-adv-x="1345" 
d="M711 1481q-104 0 -168 56.5t-64 150.5q0 90 64 146t168 56q105 0 167 -56t62 -146q0 -94 -62 -150.5t-167 -56.5zM1030 1022v-584h-29q-46 132 -73 180q-27 49 -57 66.5t-97 17.5h-35v-516q0 -71 27 -94.5t104 -23.5q90 0 132.5 28t101.5 119q74 115 168 338h28l-26 -553
h-1258v33l25 8q23 8 34 12t22 14.5t14.5 17.5t6.5 30.5t3 41.5v62v981v62t-3 41.5t-6.5 30.5t-14.5 17.5t-22 14.5t-34 12l-25 8v33h1221l16 -495h-28q-103 194 -176 299q-53 73 -93 101t-106 28q-69 0 -111 -11v-575h35q67 0 97 16.5t57 63.5q24 40 73 176h29z" />
    <glyph glyph-name="edotaccent" unicode="&#x117;" horiz-adv-x="1198" 
d="M608 -25q-279 0 -429 138t-150 413q0 123 44 230t122.5 185t194 122.5t251.5 44.5q253 0 387 -121t146 -377h-633q1 -125 21.5 -207.5t65 -129.5t105 -66t150.5 -19q128 0 247 58v-31q-73 -103 -202.5 -171.5t-319.5 -68.5zM612 1145q-104 0 -167.5 58t-63.5 155
q0 93 63.5 151t167.5 58q105 0 167.5 -58t62.5 -151q0 -97 -62.5 -155t-167.5 -58zM618 1053q-31 0 -47 -33t-23 -116.5t-7 -244.5l153 19q0 223 -15 299t-61 76z" />
    <glyph glyph-name="Eogonek" unicode="&#x118;" horiz-adv-x="1345" 
d="M1024 0h-1008v33l25 8q23 8 34 12t22 14.5t14.5 17.5t6.5 30.5t3 41.5v62v981v62t-3 41.5t-6.5 30.5t-14.5 17.5t-22 14.5t-34 12l-25 8v33h1221l16 -495h-28q-103 194 -176 299q-53 73 -93 101t-106 28q-69 0 -111 -11v-575h35q67 0 97 16.5t57 63.5q24 40 73 176h29
v-584h-29q-46 132 -73 180q-27 49 -57 66.5t-97 17.5h-35v-516q0 -71 27 -94.5t104 -23.5q90 0 132.5 28t101.5 119q74 115 168 338h28l-26 -553h-209q-33 -39 -54.5 -100.5t-21.5 -128.5q0 -43 22 -65.5t60 -22.5q32 0 59 6v-19q-37 -40 -96.5 -65t-126.5 -25
q-91 0 -145.5 40.5t-54.5 111.5q0 84 82 152t235 116z" />
    <glyph glyph-name="eogonek" unicode="&#x119;" horiz-adv-x="1198" 
d="M608 -25q-279 0 -429 138t-150 413q0 123 44 230t122.5 185t194 122.5t251.5 44.5q251 0 386 -119.5t147 -378.5h-633q1 -127 22.5 -210t66.5 -129.5t105 -64.5t148 -18q128 0 247 58v-31q-50 -68 -131 -129q-119 -89 -162.5 -152.5t-43.5 -148.5q0 -102 81 -102
q33 0 60 6v-19q-37 -40 -96.5 -65t-126.5 -25q-91 0 -146 40.5t-55 111.5q0 86 81 149.5t220 116.5q-100 -23 -203 -23zM541 659l153 19q0 223 -15 299t-61 76q-31 0 -47 -33t-23 -116.5t-7 -244.5z" />
    <glyph glyph-name="Ecaron" unicode="&#x11a;" horiz-adv-x="1345" 
d="M373 1800l10 19l336 -93l336 93l10 -19l-264 -311h-162zM1030 1022v-584h-29q-46 132 -73 180q-27 49 -57 66.5t-97 17.5h-35v-516q0 -71 27 -94.5t104 -23.5q90 0 132.5 28t101.5 119q74 115 168 338h28l-26 -553h-1258v33l25 8q23 8 34 12t22 14.5t14.5 17.5t6.5 30.5
t3 41.5v62v981v62t-3 41.5t-6.5 30.5t-14.5 17.5t-22 14.5t-34 12l-25 8v33h1221l16 -495h-28q-103 194 -176 299q-53 73 -93 101t-106 28q-69 0 -111 -11v-575h35q67 0 97 16.5t57 63.5q24 40 73 176h29z" />
    <glyph glyph-name="ecaron" unicode="&#x11b;" horiz-adv-x="1198" 
d="M608 -25q-279 0 -429 138t-150 413q0 123 44 230t122.5 185t194 122.5t251.5 44.5q253 0 387 -121t146 -377h-633q1 -125 21.5 -207.5t65 -129.5t105 -66t150.5 -19q128 0 247 58v-31q-73 -103 -202.5 -171.5t-319.5 -68.5zM686 1182h-168l-231 329l10 17l305 -113
l305 113l11 -17zM618 1053q-31 0 -47 -33t-23 -116.5t-7 -244.5l153 19q0 223 -15 299t-61 76z" />
    <glyph glyph-name="Gcircumflex" unicode="&#x11c;" 
d="M473 1483l-10 18l266 311h162l264 -311l-10 -18l-336 92zM1430 422v-352q-95 -42 -261 -68.5t-325 -26.5q-815 0 -815 732q0 130 33.5 239t94.5 189t143 140t184 96.5t212.5 54.5t231.5 18q120 0 229 -13.5t162 -33.5l33 -498h-33q-90 145 -225 322q-79 102 -119.5 133.5
t-85.5 31.5q-118 0 -165.5 -157t-47.5 -498q0 -434 19.5 -567t109.5 -133q34 0 55 12v381v63t-3.5 42t-7 29.5t-15 17.5t-22.5 14t-34 12l-18 6v33h747v-33l-10 -4q-23 -9 -33 -15.5t-19 -14.5t-11 -30t-3 -42.5t-1 -72.5v-7z" />
    <glyph glyph-name="gcircumflex" unicode="&#x11d;" horiz-adv-x="1257" 
d="M485 1511h168l232 -329l-11 -17l-305 113l-305 -113l-10 17zM281 -205q0 -68 68.5 -109.5t197.5 -41.5q332 0 332 172q0 58 -48.5 79t-154.5 21h-361q-34 -43 -34 -121zM651 762q0 91 -5.5 151t-16.5 89.5t-23.5 40t-30.5 10.5q-23 0 -35.5 -19t-21 -84t-8.5 -186
q0 -122 8.5 -187.5t21 -84.5t35.5 -19q18 0 30.5 10.5t23.5 39.5t16.5 88.5t5.5 150.5zM954 1020v-6q150 -88 150 -258q0 -160 -137.5 -249t-388.5 -89q-192 0 -308 45q-22 -34 -22 -60q0 -31 21.5 -43t70.5 -12h473q194 0 296.5 -85t102.5 -238q0 -69 -32.5 -134.5
t-94.5 -120.5t-145.5 -97t-192.5 -65.5t-229 -23.5q-193 0 -312 23.5t-170.5 67t-51.5 110.5q0 70 61 104.5t211 53.5v6q-223 43 -223 254q0 81 45.5 150t146.5 132v7q-80 41 -125 108.5t-45 155.5q0 165 140 258.5t383 93.5q205 0 333 -59q66 66 122 98.5t122 32.5
q70 0 115 -40.5t45 -103.5q0 -53 -33.5 -87t-89.5 -34q-88 0 -123 86q-20 50 -44.5 54t-70.5 -35z" />
    <glyph glyph-name="Gbreve" unicode="&#x11e;" 
d="M827 1485q-126 0 -208.5 85t-88.5 247l15 8q52 -69 116 -94t166 -25t166.5 25t116.5 94l14 -8q-6 -162 -88.5 -247t-208.5 -85zM1430 422v-352q-95 -42 -261 -68.5t-325 -26.5q-815 0 -815 732q0 130 33.5 239t94.5 189t143 140t184 96.5t212.5 54.5t231.5 18
q120 0 229 -13.5t162 -33.5l33 -498h-33q-90 145 -225 322q-79 102 -119.5 133.5t-85.5 31.5q-118 0 -165.5 -157t-47.5 -498q0 -434 19.5 -567t109.5 -133q34 0 55 12v381v63t-3.5 42t-7 29.5t-15 17.5t-22.5 14t-34 12l-18 6v33h747v-33l-10 -4q-23 -9 -33 -15.5
t-19 -14.5t-11 -30t-3 -42.5t-1 -72.5v-7z" />
    <glyph glyph-name="gbreve" unicode="&#x11f;" horiz-adv-x="1257" 
d="M281 -205q0 -68 68.5 -109.5t197.5 -41.5q332 0 332 172q0 58 -48.5 79t-154.5 21h-361q-34 -43 -34 -121zM651 762q0 91 -5.5 151t-16.5 89.5t-23.5 40t-30.5 10.5q-23 0 -35.5 -19t-21 -84t-8.5 -186q0 -122 8.5 -187.5t21 -84.5t35.5 -19q18 0 30.5 10.5t23.5 39.5
t16.5 88.5t5.5 150.5zM954 1020v-6q150 -88 150 -258q0 -160 -137.5 -249t-388.5 -89q-192 0 -308 45q-22 -34 -22 -60q0 -31 21.5 -43t70.5 -12h473q194 0 296.5 -85t102.5 -238q0 -69 -32.5 -134.5t-94.5 -120.5t-145.5 -97t-192.5 -65.5t-229 -23.5q-193 0 -312 23.5
t-170.5 67t-51.5 110.5q0 70 61 104.5t211 53.5v6q-223 43 -223 254q0 81 45.5 150t146.5 132v7q-80 41 -125 108.5t-45 155.5q0 165 140 258.5t383 93.5q205 0 333 -59q66 66 122 98.5t122 32.5q70 0 115 -40.5t45 -103.5q0 -53 -33.5 -87t-89.5 -34q-88 0 -123 86
q-20 50 -44.5 54t-70.5 -35zM571 1184q-240 0 -282 327l14 9q58 -68 119 -94.5t149 -26.5t149.5 26.5t119.5 94.5l14 -9q-42 -327 -283 -327z" />
    <glyph glyph-name="Gdotaccent" unicode="&#x120;" 
d="M809 1481q-104 0 -167.5 56.5t-63.5 150.5q0 90 63.5 146t167.5 56q105 0 167 -56t62 -146q0 -94 -62 -150.5t-167 -56.5zM1430 422v-352q-95 -42 -261 -68.5t-325 -26.5q-815 0 -815 732q0 130 33.5 239t94.5 189t143 140t184 96.5t212.5 54.5t231.5 18q120 0 229 -13.5
t162 -33.5l33 -498h-33q-90 145 -225 322q-79 102 -119.5 133.5t-85.5 31.5q-118 0 -165.5 -157t-47.5 -498q0 -434 19.5 -567t109.5 -133q34 0 55 12v381v63t-3.5 42t-7 29.5t-15 17.5t-22.5 14t-34 12l-18 6v33h747v-33l-10 -4q-23 -9 -33 -15.5t-19 -14.5t-11 -30
t-3 -42.5t-1 -72.5v-7z" />
    <glyph glyph-name="gdotaccent" unicode="&#x121;" horiz-adv-x="1257" 
d="M276 -205q0 -68 68.5 -109.5t198.5 -41.5q331 0 331 172q0 58 -48 79t-154 21h-361q-35 -44 -35 -121zM647 762q0 91 -5.5 151t-16.5 89.5t-23.5 40t-30.5 10.5q-23 0 -35.5 -19t-21 -84t-8.5 -186q0 -122 8.5 -187.5t21 -84.5t35.5 -19q18 0 30.5 10.5t23.5 39.5
t16.5 88.5t5.5 150.5zM950 1020v-6q150 -88 150 -258q0 -160 -138 -249t-389 -89q-191 0 -307 45q-22 -34 -22 -60q0 -31 21.5 -43t70.5 -12h473q194 0 296.5 -85t102.5 -238q0 -69 -32.5 -134.5t-94.5 -120.5t-145.5 -97t-192.5 -65.5t-229 -23.5q-193 0 -312 23.5
t-170.5 67t-51.5 110.5q0 70 61 104.5t211 53.5v6q-223 43 -223 254q0 81 45.5 150t146.5 132v7q-80 41 -125 108.5t-45 155.5q0 165 139.5 258.5t382.5 93.5q206 0 334 -59q66 66 122 98.5t122 32.5q70 0 115 -40.5t45 -103.5q0 -53 -33.5 -87t-89.5 -34q-88 0 -123 86
q-20 50 -44.5 54t-70.5 -35zM569 1145q-104 0 -167.5 58t-63.5 155q0 93 63.5 151t167.5 58q105 0 167.5 -58t62.5 -151q0 -97 -62.5 -155t-167.5 -58z" />
    <glyph glyph-name="Gcommaaccent" unicode="&#x122;" 
d="M578 -520l-5 18q214 53 234 203q-31 -31 -84 -31q-61 0 -95 33t-34 88q0 58 45.5 97.5t124.5 39.5q80 0 134 -50.5t54 -127.5q0 -119 -98 -189t-276 -81zM1430 422v-352q-95 -42 -261 -68.5t-325 -26.5q-815 0 -815 732q0 130 33.5 239t94.5 189t143 140t184 96.5
t212.5 54.5t231.5 18q120 0 229 -13.5t162 -33.5l33 -498h-33q-90 145 -225 322q-79 102 -119.5 133.5t-85.5 31.5q-118 0 -165.5 -157t-47.5 -498q0 -434 19.5 -567t109.5 -133q34 0 55 12v381v63t-3.5 42t-7 29.5t-15 17.5t-22.5 14t-34 12l-18 6v33h747v-33l-10 -4
q-23 -9 -33 -15.5t-19 -14.5t-11 -30t-3 -42.5t-1 -72.5v-7z" />
    <glyph glyph-name="gcommaaccent" unicode="&#x123;" horiz-adv-x="1232" 
d="M764 1602l4 -19q-213 -53 -233 -203q31 31 83 31q61 0 95.5 -33t34.5 -88q0 -58 -45.5 -97.5t-124.5 -39.5q-80 0 -134.5 50.5t-54.5 127.5q0 119 98.5 189.5t276.5 81.5zM281 -205q0 -68 68.5 -109.5t197.5 -41.5q332 0 332 172q0 58 -48.5 79t-154.5 21h-361
q-34 -43 -34 -121zM651 762q0 91 -5.5 151t-16.5 89.5t-23.5 40t-30.5 10.5q-23 0 -35.5 -19t-21 -84t-8.5 -186q0 -122 8.5 -187.5t21 -84.5t35.5 -19q18 0 30.5 10.5t23.5 39.5t16.5 88.5t5.5 150.5zM954 1020v-6q150 -88 150 -258q0 -160 -137.5 -249t-388.5 -89
q-192 0 -308 45q-22 -34 -22 -60q0 -31 21.5 -43t70.5 -12h473q194 0 296.5 -85t102.5 -238q0 -69 -32.5 -134.5t-94.5 -120.5t-145.5 -97t-192.5 -65.5t-229 -23.5q-193 0 -312 23.5t-170.5 67t-51.5 110.5q0 70 61 104.5t211 53.5v6q-223 43 -223 254q0 81 45.5 150
t146.5 132v7q-80 41 -125 108.5t-45 155.5q0 165 140 258.5t383 93.5q205 0 333 -59q66 66 122 98.5t122 32.5q70 0 115 -40.5t45 -103.5q0 -53 -33.5 -87t-89.5 -34q-88 0 -123 86q-20 50 -44.5 54t-70.5 -35z" />
    <glyph glyph-name="Hcircumflex" unicode="&#x124;" horiz-adv-x="1695" 
d="M831 0h-815v33l25 8q23 8 34 12t22 14.5t14.5 17.5t6.5 30.5t3 41.5v62v981v62t-3 41.5t-6.5 30.5t-14.5 17.5t-22 14.5t-34 12l-25 8v33h815v-33l-10 -4q-59 -24 -70.5 -50t-11.5 -132v-436h217v436q0 106 -11.5 132t-70.5 50l-10 4v33h815v-33l-24 -8q-23 -8 -34 -12
t-22 -14.5t-14.5 -17.5t-6.5 -30.5t-3 -41.5v-62v-981v-62t3 -41.5t6.5 -30.5t14.5 -17.5t22 -14.5t34 -12l24 -8v-33h-815v33l10 4q59 24 70.5 50t11.5 132v475h-217v-475q0 -106 11.5 -132t70.5 -50l10 -4v-33zM514 1483l-10 18l266 311h162l264 -311l-10 -18l-336 92z
" />
    <glyph glyph-name="hcircumflex" unicode="&#x125;" horiz-adv-x="1406" 
d="M1427 0h-710v33l12 4q35 11 47 31t12 82v602q0 78 -27 109.5t-81 31.5q-38 0 -62 -6v-737q0 -63 11 -83.5t45 -29.5l14 -4v-33h-711v33l7 2q31 11 44 15.5t29 13.5t20 14.5t9 19.5t5.5 28t0.5 40v1091q0 86 -10.5 111.5t-61.5 56.5l-49 31v25l637 73l19 -12
q-9 -111 -9 -248v-348h5q201 162 401 162q129 0 210 -74t81 -200v-668q0 -69 14 -86.5t86 -42.5l12 -4v-33zM-6 1602l-10 18l266 311h162l264 -311l-10 -18l-336 92z" />
    <glyph glyph-name="Hbar" unicode="&#x126;" horiz-adv-x="1695" 
d="M831 0h-815v33l25 8q23 8 34 12t22 14.5t14.5 17.5t6.5 30.5t3 41.5v62v799h-94v65h94v117v62t-3 41.5t-6.5 30.5t-14.5 17.5t-22 14.5t-34 12l-25 8v33h815v-33l-10 -4q-59 -24 -70.5 -50t-11.5 -132v-117h217v117q0 106 -11.5 132t-70.5 50l-10 4v33h815v-33l-24 -8
q-23 -8 -34 -12t-22 -14.5t-14.5 -17.5t-6.5 -30.5t-3 -41.5v-62v-117h94v-65h-94v-799v-62t3 -41.5t6.5 -30.5t14.5 -17.5t22 -14.5t34 -12l24 -8v-33h-815v33l10 4q59 24 70.5 50t11.5 132v475h-217v-475q0 -106 11.5 -132t70.5 -50l10 -4v-33zM739 764h217v254h-217v-254
z" />
    <glyph glyph-name="hbar" unicode="&#x127;" horiz-adv-x="1406" 
d="M-25 1221v65h117q-1 63 -13.5 86.5t-58.5 52.5l-49 31v25l637 73l19 -12q-9 -111 -9 -248v-8h283v-65h-283v-275h5q201 162 401 162q129 0 210 -74t81 -200v-668q0 -69 14 -86.5t86 -42.5l12 -4v-33h-710v33l12 4q35 11 47 31t12 82v602q0 78 -27 109.5t-81 31.5
q-38 0 -62 -6v-737q0 -63 11 -83.5t45 -29.5l14 -4v-33h-711v33l7 2q31 11 44 15.5t29 13.5t20 14.5t9 19.5t5.5 28t0.5 40v1055h-117z" />
    <glyph glyph-name="Itilde" unicode="&#x128;" horiz-adv-x="870" 
d="M16 0v33l27 8q17 5 27 8.5t20 10t15 10t9.5 16t6 19.5t3 29t1.5 36.5v48.5v981v63t-3 42t-7 30.5t-14.5 17.5t-22.5 15t-35 10l-27 8v33h838v-33l-27 -8q-17 -5 -27 -8.5t-20 -10t-15 -10t-9.5 -16t-6 -19.5t-3 -29t-1.5 -36.5v-48.5v-981v-48.5t1.5 -36.5t3 -29t6 -19.5
t9.5 -16t15 -10t20 -10t27 -8.5l27 -8v-33h-838zM338 1796q42 0 163 -19.5t167 -19.5q42 0 71.5 17.5t57.5 62.5l18 -12q-21 -67 -34.5 -104t-33.5 -81t-39 -65t-46.5 -36t-61.5 -15q-41 0 -162.5 18.5t-167.5 18.5q-41 0 -69 -17t-56 -63l-22 12q21 67 34 104t33.5 81.5
t39.5 66t46.5 36.5t61.5 15z" />
    <glyph glyph-name="itilde" unicode="&#x129;" horiz-adv-x="710" 
d="M-20 1020v22l632 66l15 -12q-9 -129 -9 -273v-657q0 -68 14 -86t87 -43l12 -4v-33h-751v33l6 2q44 15 60.5 21.5t30 22t14.5 32t1 55.5v659q0 83 -10 104.5t-70 65.5zM233 1497q43 0 164 -19.5t166 -19.5q42 0 71.5 17.5t57.5 62.5l19 -12q-17 -57 -28.5 -91.5
t-27.5 -74.5t-31 -62.5t-34 -43t-42.5 -29t-51.5 -8.5q-41 0 -162.5 18t-167.5 18q-41 0 -69 -16.5t-56 -62.5l-23 12q21 69 34.5 108.5t33.5 84t39 66.5t46.5 37t61.5 15z" />
    <glyph glyph-name="Imacron" unicode="&#x12a;" horiz-adv-x="870" 
d="M16 0v33l27 8q17 5 27 8.5t20 10t15 10t9.5 16t6 19.5t3 29t1.5 36.5v48.5v981v63t-3 42t-7 30.5t-14.5 17.5t-22.5 15t-35 10l-27 8v33h838v-33l-27 -8q-17 -5 -27 -8.5t-20 -10t-15 -10t-9.5 -16t-6 -19.5t-3 -29t-1.5 -36.5v-48.5v-981v-48.5t1.5 -36.5t3 -29t6 -19.5
t9.5 -16t15 -10t20 -10t27 -8.5l27 -8v-33h-838zM125 1552v142h623v-142h-623z" />
    <glyph glyph-name="imacron" unicode="&#x12b;" horiz-adv-x="710" 
d="M55 1262v141h590v-141h-590zM-20 1055l636 53l15 -12q-8 -92 -8 -273v-657v-39t5 -27.5t9.5 -19.5t20 -14t29 -13.5t44.5 -15.5l12 -4v-33h-763v33l6 2q82 26 96 43t14 88v672q0 37 -2 55.5t-3.5 33.5t-14 27.5t-21.5 20.5t-37 29l-38 28v23z" />
    <glyph glyph-name="Ibreve" unicode="&#x12c;" horiz-adv-x="870" 
d="M16 0v33l27 8q17 5 27 8.5t20 10t15 10t9.5 16t6 19.5t3 29t1.5 36.5v48.5v981v63t-3 42t-7 30.5t-14.5 17.5t-22.5 15t-35 10l-27 8v33h838v-33l-27 -8q-17 -5 -27 -8.5t-20 -10t-15 -10t-9.5 -16t-6 -19.5t-3 -29t-1.5 -36.5v-48.5v-981v-48.5t1.5 -36.5t3 -29t6 -19.5
t9.5 -16t15 -10t20 -10t27 -8.5l27 -8v-33h-838zM434 1485q-126 0 -208.5 85t-88.5 247l15 8q52 -69 116 -94t166 -25t166.5 25t116.5 94l14 -8q-6 -162 -88.5 -247t-208.5 -85z" />
    <glyph glyph-name="ibreve" unicode="&#x12d;" horiz-adv-x="710" 
d="M-20 1020v22l632 66l15 -12q-9 -129 -9 -273v-657q0 -68 14 -86t87 -43l12 -4v-33h-751v33l6 2q44 15 60.5 21.5t30 22t14.5 32t1 55.5v659q0 83 -10 104.5t-70 65.5zM352 1184q-240 0 -282 327l14 9q58 -68 119 -94.5t149 -26.5t149.5 26.5t119.5 94.5l14 -9
q-42 -327 -283 -327z" />
    <glyph glyph-name="Iogonek" unicode="&#x12e;" horiz-adv-x="870" 
d="M625 0h-609v33l27 8q17 5 27 8.5t20 10t15 10t9.5 16t6 19.5t3 29t1.5 36.5v48.5v981v63t-3 42t-7 30.5t-14.5 17.5t-22.5 15t-35 10l-27 8v33h838v-33l-27 -8q-17 -5 -27 -8.5t-20 -10t-15 -10t-9.5 -16t-6 -19.5t-3 -29t-1.5 -36.5v-48.5v-981v-48.5t1.5 -36.5t3 -29
t6 -19.5t9.5 -16t15 -10t20 -10t27 -8.5l27 -8v-33h-188q-33 -39 -54.5 -100.5t-21.5 -128.5q0 -43 22 -65.5t60 -22.5q32 0 59 6v-19q-37 -40 -96.5 -65t-126.5 -25q-91 0 -146 40.5t-55 111.5q0 84 82.5 152t235.5 116z" />
    <glyph glyph-name="iogonek" unicode="&#x12f;" horiz-adv-x="710" 
d="M354 1141q-110 0 -176.5 61t-66.5 162q0 99 66.5 160t176.5 61q111 0 176.5 -61t65.5 -160q0 -102 -65 -162.5t-177 -60.5zM451 -420q-91 0 -146 40.5t-55 111.5q0 84 82 152t235 116h-587v33l6 2q82 26 96 43t14 88v672q0 37 -2 55.5t-3.5 33.5t-14 27.5t-21.5 20.5
t-37 29l-38 28v23l636 53l15 -12q-8 -92 -8 -273v-657v-39t5 -27.5t9.5 -19.5t20 -14t29 -13.5t44.5 -15.5l12 -4v-33h-135q-33 -39 -54.5 -100.5t-21.5 -128.5q0 -43 22 -65.5t60 -22.5q33 0 60 6v-19q-37 -40 -96.5 -65t-126.5 -25z" />
    <glyph glyph-name="Idotaccent" unicode="&#x130;" horiz-adv-x="870" 
d="M16 0v33l27 8q17 5 27 8.5t20 10t15 10t9.5 16t6 19.5t3 29t1.5 36.5v48.5v981v63t-3 42t-7 30.5t-14.5 17.5t-22.5 15t-35 10l-27 8v33h838v-33l-27 -8q-17 -5 -27 -8.5t-20 -10t-15 -10t-9.5 -16t-6 -19.5t-3 -29t-1.5 -36.5v-48.5v-981v-48.5t1.5 -36.5t3 -29t6 -19.5
t9.5 -16t15 -10t20 -10t27 -8.5l27 -8v-33h-838zM438 1481q-104 0 -167.5 56.5t-63.5 150.5q0 90 63.5 146t167.5 56q105 0 167.5 -56t62.5 -146q0 -94 -62.5 -150.5t-167.5 -56.5z" />
    <glyph glyph-name="dotlessi" unicode="&#x131;" horiz-adv-x="710" 
d="M-20 1020v22l632 66l15 -12q-9 -129 -9 -273v-657q0 -68 14 -86t87 -43l12 -4v-33h-751v33l6 2q44 15 60.5 21.5t30 22t14.5 32t1 55.5v659q0 83 -10 104.5t-70 65.5z" />
    <glyph glyph-name="IJ" unicode="&#x132;" horiz-adv-x="2050" 
d="M1311 180v1020q0 73 -8 104.5t-25.5 45t-65.5 28.5l-26 8v33h848v-33l-25 -8q-23 -8 -34 -12t-22 -14.5t-14.5 -17.5t-6.5 -30.5t-3 -41.5v-62v-655q0 -254 -174.5 -409.5t-480.5 -155.5q-242 0 -353.5 73t-111.5 197q0 84 51 139t146 55q125 0 178.5 -79.5t64.5 -272.5
q1 -26 7 -34.5t20 -8.5q20 0 27.5 27.5t7.5 103.5zM16 0v33l27 8q17 5 27 8.5t20 10t15 10t9.5 16t6 19.5t3 29t1.5 36.5v48.5v981v63t-3 42t-7 30.5t-14.5 17.5t-22.5 15t-35 10l-27 8v33h838v-33l-27 -8q-17 -5 -27 -8.5t-20 -10t-15 -10t-9.5 -16t-6 -19.5t-3 -29
t-1.5 -36.5v-48.5v-981v-48.5t1.5 -36.5t3 -29t6 -19.5t9.5 -16t15 -10t20 -10t27 -8.5l27 -8v-33h-838z" />
    <glyph glyph-name="ij" unicode="&#x133;" horiz-adv-x="1421" 
d="M350 1141q-110 0 -177 61t-67 162q0 99 67 160t177 61q111 0 176.5 -61t65.5 -160q0 -102 -65 -162.5t-177 -60.5zM-20 1042l632 66l15 -12q-9 -129 -9 -273v-657q0 -68 14 -86t87 -43l12 -4v-33h-751v33l6 2q44 15 60.5 21.5t30 22t14.5 32t1 55.5v659q0 83 -10 104.5
t-70 65.5l-32 25v22zM1057 1141q-110 0 -177 61t-67 162q0 99 67 160t177 61q111 0 176 -61t65 -160q0 -102 -64.5 -162.5t-176.5 -60.5zM1329 823v-760q0 -208 -159 -343.5t-414 -135.5q-195 0 -298.5 60.5t-103.5 165.5q0 76 45 123t131 47q109 0 161 -64.5t61 -218.5
q1 -27 6 -37t16 -10q10 0 16 9.5t9.5 40.5t3.5 87v1038q0 62 -4.5 84t-18.5 38.5t-59 47.5l-35 25v22l637 66l14 -12q-8 -115 -8 -273z" />
    <glyph glyph-name="Jcircumflex" unicode="&#x134;" horiz-adv-x="1216" 
d="M449 1483l-11 18l267 311h161l264 -311l-10 -18l-336 92zM477 180v1020q0 73 -7.5 104.5t-25.5 45t-65 28.5l-27 8v33h848v-33l-24 -8q-23 -8 -34 -12t-22 -14.5t-14.5 -17.5t-6.5 -30.5t-3 -41.5v-62v-655q0 -254 -174.5 -409.5t-481.5 -155.5q-252 0 -369.5 73
t-117.5 197q0 84 52.5 139t152.5 55q129 0 185 -80t67 -272q1 -25 7.5 -34t20.5 -9q22 0 30.5 27.5t8.5 103.5z" />
    <glyph glyph-name="jcircumflex" unicode="&#x135;" horiz-adv-x="710" 
d="M627 1096q-9 -129 -9 -273v-760q0 -208 -159 -343.5t-414 -135.5q-195 0 -298 60.5t-103 165.5q0 76 45 123t131 47q109 0 160.5 -64t60.5 -219q1 -27 6 -37t16 -10q10 0 16 9.5t9.5 40.5t3.5 87v1038q0 62 -4.5 84t-18.5 38.5t-59 47.5l-35 25v22l637 66zM254 1511h168
l231 -329l-10 -17l-305 113l-305 -113l-10 17z" />
    <glyph glyph-name="Kcommaaccent" unicode="&#x136;" horiz-adv-x="1675" 
d="M16 1419h834v-33l-27 -8q-23 -7 -35 -11t-23 -14.5t-15 -18t-7 -30t-3.5 -42.5t-0.5 -62v-981v-62t3 -41.5t6.5 -30t14.5 -17t22 -15t34 -12.5l23 -8v-33h-826v33l25 8q23 8 34 12t22 14.5t14.5 17.5t6.5 30.5t3 41.5v62v981v62t-3 41.5t-6.5 30.5t-14.5 17.5t-22 14.5
t-34 12l-25 8v33zM1008 0q-167 345 -256 655v21l309 344q96 108 130 166.5t34 99.5q0 33 -23.5 53.5t-91.5 38.5l-31 8v33h484v-33l-17 -6q-80 -28 -133.5 -71t-120.5 -125l-96 -119q223 -570 430 -932q3 -5 11.5 -20t10.5 -18.5t8.5 -14t10 -14t9.5 -10t11.5 -10.5t12.5 -7
l12 -6v-33h-704zM631 -520l-4 18q213 53 233 203q-31 -31 -84 -31q-61 0 -95 33t-34 88q0 58 45.5 97.5t124.5 39.5q80 0 134.5 -50.5t54.5 -127.5q0 -119 -98.5 -189t-276.5 -81z" />
    <glyph glyph-name="kcommaaccent" unicode="&#x137;" horiz-adv-x="1402" 
d="M-23 0v33l7 2q80 26 94 43.5t14 87.5v1091q0 86 -10.5 111.5t-61.5 56.5l-49 31v25l637 73l19 -12q-9 -111 -9 -248v-1144q0 -63 12.5 -81.5t53.5 -31.5l12 -4v-33h-719zM846 0q-157 277 -217 510v20l237 242q69 71 96 110.5t27 69.5q0 32 -28 52t-107 38l-27 7v34h512
v-34l-24 -7q-95 -24 -139 -48t-101 -85l-76 -80q71 -173 173.5 -384t175.5 -334q22 -36 35 -49.5t42 -24.5l11 -4v-33h-590zM465 -520l-4 18q213 53 233 203q-31 -31 -84 -31q-61 0 -95 33t-34 88q0 58 45.5 97.5t124.5 39.5q80 0 134.5 -50.5t54.5 -127.5
q0 -119 -98.5 -189t-276.5 -81z" />
    <glyph glyph-name="Lacute" unicode="&#x139;" horiz-adv-x="1345" 
d="M209 1481l-8 18l233 264q64 70 135 70q68 0 112 -46t44 -116q0 -58 -37.5 -97t-107.5 -48zM1284 0h-1268v33l25 8q23 8 34 12t22 14.5t14.5 17.5t6.5 30.5t3 41.5v62v981v62t-3 41.5t-6.5 30.5t-14.5 17.5t-22 14.5t-34 12l-25 8v33h881v-33l-29 -8q-92 -26 -110.5 -52
t-18.5 -126v-1014q0 -69 32 -94.5t103 -25.5q64 0 108.5 27.5t107.5 115.5q48 65 105.5 172.5t102.5 210.5h31z" />
    <glyph glyph-name="lacute" unicode="&#x13a;" horiz-adv-x="716" 
d="M106 1612l-8 18l234 264q64 70 135 70q68 0 112 -46t44 -116q0 -58 -38 -97t-108 -48zM735 0h-758v33l7 2q31 11 44.5 15.5t29 13.5t20 14.5t9.5 20t5 27.5v40v1098q0 60 -6 86.5t-21 42t-57 41.5l-37 22v25l637 73l19 -12q-9 -111 -9 -248v-1128q0 -69 14 -86t91 -43
l12 -4v-33z" />
    <glyph glyph-name="Lcommaaccent" unicode="&#x13b;" horiz-adv-x="1345" 
d="M461 -520l-4 18q213 53 233 203q-31 -31 -84 -31q-61 0 -95 33t-34 88q0 58 45.5 97.5t124.5 39.5q80 0 134.5 -50.5t54.5 -127.5q0 -119 -98.5 -189t-276.5 -81zM1284 0h-1268v33l25 8q23 8 34 12t22 14.5t14.5 17.5t6.5 30.5t3 41.5v62v981v62t-3 41.5t-6.5 30.5
t-14.5 17.5t-22 14.5t-34 12l-25 8v33h881v-33l-29 -8q-92 -26 -110.5 -52t-18.5 -126v-1014q0 -69 32 -94.5t103 -25.5q64 0 108.5 27.5t107.5 115.5q48 65 105.5 172.5t102.5 210.5h31z" />
    <glyph glyph-name="lcommaaccent" unicode="&#x13c;" horiz-adv-x="716" 
d="M152 -520l-5 18q214 53 234 203q-31 -31 -84 -31q-61 0 -95 33t-34 88q0 58 45.5 97.5t124.5 39.5q80 0 134 -50.5t54 -127.5q0 -119 -98 -189t-276 -81zM735 0h-758v33l7 2q31 11 44.5 15.5t29 13.5t20 14.5t9.5 20t5 27.5v40v1098q0 60 -6 86.5t-21 42t-57 41.5l-37 22
v25l637 73l19 -12q-9 -111 -9 -248v-1128q0 -69 14 -86t91 -43l12 -4v-33z" />
    <glyph glyph-name="Lcaron" unicode="&#x13d;" horiz-adv-x="1345" 
d="M948 983l-20 8l8 291q2 68 41.5 109t107.5 41q65 0 106.5 -39t41.5 -97q0 -74 -80 -143zM1284 0h-1268v33l25 8q23 8 34 12t22 14.5t14.5 17.5t6.5 30.5t3 41.5v62v981v62t-3 41.5t-6.5 30.5t-14.5 17.5t-22 14.5t-34 12l-25 8v33h881v-33l-29 -8q-92 -26 -110.5 -52
t-18.5 -126v-1014q0 -69 32 -94.5t103 -25.5q64 0 108.5 27.5t107.5 115.5q48 65 105.5 172.5t102.5 210.5h31z" />
    <glyph glyph-name="lcaron" unicode="&#x13e;" horiz-adv-x="716" 
d="M735 0h-758v33l7 2q31 11 44.5 15.5t29 13.5t20 14.5t9.5 20t5 27.5v40v1098q0 60 -6 86.5t-21 42t-57 41.5l-37 22v25l637 73l19 -12q-9 -111 -9 -248v-1128q0 -69 14 -86t91 -43l12 -4v-33zM692 1130l-18 9l8 284q2 61 36 96t95 35q57 0 93 -33.5t36 -84.5
q0 -69 -68 -131z" />
    <glyph glyph-name="Ldot" unicode="&#x13f;" horiz-adv-x="1345" 
d="M1159 606q-77 0 -129.5 47t-52.5 129q0 80 52.5 127t129.5 47q79 0 131.5 -46.5t52.5 -127.5q0 -82 -52.5 -129t-131.5 -47zM1286 0h-1270v33l25 8q23 8 34 12t22 14.5t14.5 17.5t6.5 30.5t3 41.5v62v981v62t-3 41.5t-6.5 30.5t-14.5 17.5t-22 14.5t-34 12l-25 8v33h881
v-33l-29 -8q-92 -26 -110.5 -52t-18.5 -126v-1014q0 -68 35.5 -94t108.5 -26q69 0 123.5 36.5t119.5 128.5q83 117 166 279h31z" />
    <glyph glyph-name="ldot" unicode="&#x140;" horiz-adv-x="976" 
d="M1028 758q0 -82 -52.5 -129t-131.5 -47q-77 0 -129.5 47t-52.5 129q0 80 52.5 127t129.5 47q79 0 131.5 -46.5t52.5 -127.5zM737 0h-757v33l6 2q31 11 44.5 15.5t29 13.5t20 14.5t9.5 20t5 27.5v40v1098q0 60 -6 86.5t-21 42t-57 41.5l-37 22v25l637 73l19 -12
q-8 -111 -8 -248v-1128q0 -69 13.5 -86t90.5 -43l12 -4v-33z" />
    <glyph glyph-name="Lslash" unicode="&#x141;" horiz-adv-x="1345" 
d="M1284 0h-1268v33l25 8q23 8 34 12t22 14.5t14.5 17.5t6.5 30.5t3 41.5v62v305l-105 -30v63l105 31v612v62t-3 41.5t-6.5 30.5t-14.5 17.5t-22 14.5t-34 12l-25 8v33h881v-33l-29 -8q-92 -26 -110.5 -52t-18.5 -126v-432l299 88v-63l-299 -88v-519q0 -69 32 -94.5
t103 -25.5q64 0 108.5 27.5t107.5 115.5q48 65 105.5 172.5t102.5 210.5h31z" />
    <glyph glyph-name="lslash" unicode="&#x142;" horiz-adv-x="716" 
d="M4 596v72l88 53v543q0 60 -6 86.5t-21 42t-57 41.5l-37 22v25l637 73l19 -12q-9 -111 -9 -248v-250l80 50v-72l-80 -49v-807q0 -69 14 -86t91 -43l12 -4v-33h-758v33l7 2q31 11 44.5 15.5t29 13.5t20 14.5t9.5 20t5 27.5v40v483z" />
    <glyph glyph-name="Nacute" unicode="&#x143;" horiz-adv-x="1404" 
d="M1391 1419v-33l-29 -10q-40 -15 -55.5 -29.5t-22 -45.5t-6.5 -101v-1200h-342l-737 1053h-9v-834q0 -55 2 -81t13.5 -45.5t27.5 -27.5t52 -18l51 -14v-33h-322v33l27 10q58 23 69 48t11 128v981q0 73 -5 101.5t-19.5 44t-55.5 30.5l-27 10v33h688l498 -698h8v491
q0 91 -16 115.5t-88 46.5l-41 12v33h328zM532 1481l-8 18l234 264q64 70 135 70q68 0 112 -46t44 -116q0 -58 -38 -97t-108 -48z" />
    <glyph glyph-name="nacute" unicode="&#x144;" horiz-adv-x="1406" 
d="M893 1231l-365 -76l-10 19l211 282q62 80 143 80q68 0 111 -47.5t43 -116.5q0 -52 -34.5 -90t-98.5 -51zM688 0h-708v33l6 2q44 15 60.5 21.5t30 22t14.5 32t1 55.5v659q0 82 -10 104t-70 66l-32 25v22l616 66l16 -12l-2 -162h4q208 174 410 174q129 0 210 -74t81 -200
v-668q0 -69 14.5 -87.5t85.5 -41.5l12 -4v-33h-710v33l12 4q37 12 48 32t11 81v602q0 74 -26.5 105.5t-83.5 31.5q-32 0 -60 -8v-731q0 -63 10.5 -83.5t45.5 -29.5l14 -4v-33z" />
    <glyph glyph-name="Ncommaaccent" unicode="&#x145;" horiz-adv-x="1404" 
d="M1391 1419v-33l-29 -10q-40 -15 -55.5 -29.5t-22 -45.5t-6.5 -101v-1200h-342l-737 1053h-9v-834q0 -55 2 -81t13.5 -45.5t27.5 -27.5t52 -18l51 -14v-33h-322v33l27 10q58 23 69 48t11 128v981q0 73 -5 101.5t-19.5 44t-55.5 30.5l-27 10v33h688l498 -698h8v491
q0 91 -16 115.5t-88 46.5l-41 12v33h328zM469 -520l-4 18q213 53 233 203q-31 -31 -84 -31q-61 0 -95 33t-34 88q0 58 45.5 97.5t124.5 39.5q80 0 134.5 -50.5t54.5 -127.5q0 -119 -98.5 -189t-276.5 -81z" />
    <glyph glyph-name="ncommaaccent" unicode="&#x146;" horiz-adv-x="1406" 
d="M479 -520l-4 18q214 53 234 203q-31 -31 -84 -31q-61 0 -95 33t-34 88q0 58 45.5 97.5t124.5 39.5q80 0 134 -50.5t54 -127.5q0 -119 -98.5 -189t-276.5 -81zM688 0h-708v33l6 2q44 15 60.5 21.5t30 22t14.5 32t1 55.5v659q0 82 -10 104t-70 66l-32 25v22l616 66l16 -12
l-2 -162h4q208 174 410 174q129 0 210 -74t81 -200v-668q0 -69 14.5 -87.5t85.5 -41.5l12 -4v-33h-710v33l12 4q37 12 48 32t11 81v602q0 74 -26.5 105.5t-83.5 31.5q-32 0 -60 -8v-731q0 -63 10.5 -83.5t45.5 -29.5l14 -4v-33z" />
    <glyph glyph-name="Ncaron" unicode="&#x147;" horiz-adv-x="1404" 
d="M1391 1419v-33l-29 -10q-40 -15 -55.5 -29.5t-22 -45.5t-6.5 -101v-1200h-342l-737 1053h-9v-834q0 -55 2 -81t13.5 -45.5t27.5 -27.5t52 -18l51 -14v-33h-322v33l27 10q58 23 69 48t11 128v981q0 73 -5 101.5t-19.5 44t-55.5 30.5l-27 10v33h688l498 -698h8v491
q0 91 -16 115.5t-88 46.5l-41 12v33h328zM391 1800l10 19l336 -93l336 93l10 -19l-264 -311h-162z" />
    <glyph glyph-name="ncaron" unicode="&#x148;" horiz-adv-x="1406" 
d="M788 1182h-167l-232 329l10 17l306 -113l305 113l10 -17zM688 0h-708v33l6 2q44 15 60.5 21.5t30 22t14.5 32t1 55.5v659q0 82 -10 104t-70 66l-32 25v22l616 66l16 -12l-2 -162h4q208 174 410 174q129 0 210 -74t81 -200v-668q0 -69 14.5 -87.5t85.5 -41.5l12 -4v-33
h-710v33l12 4q37 12 48 32t11 81v602q0 74 -26.5 105.5t-83.5 31.5q-32 0 -60 -8v-731q0 -63 10.5 -83.5t45.5 -29.5l14 -4v-33z" />
    <glyph glyph-name="napostrophe" unicode="&#x149;" horiz-adv-x="1531" 
d="M-229 899l-4 19q240 81 229 268q-27 -41 -92 -41q-59 0 -96 38.5t-37 102.5q0 72 50.5 115t123.5 43q81 0 139.5 -56.5t58.5 -156.5q0 -271 -372 -332zM813 0h-709v33l7 2q44 15 60.5 21.5t30 22t14.5 32t1 55.5v659q0 82 -10 104t-70 66l-33 25v22l617 66l16 -12
l-2 -162h4q208 174 410 174q129 0 210 -74t81 -200v-668q0 -69 14.5 -87.5t85.5 -41.5l12 -4v-33h-710v33l12 4q37 12 48 32t11 81v602q0 74 -26.5 105.5t-83.5 31.5q-32 0 -60 -8v-731q0 -63 10.5 -83.5t45.5 -29.5l14 -4v-33z" />
    <glyph glyph-name="Eng" unicode="&#x14a;" horiz-adv-x="1404" 
d="M1391 1419v-33l-29 -10q-40 -15 -55.5 -29.5t-22 -45.5t-6.5 -101v-1268q0 -179 -77 -263.5t-240 -84.5q-146 0 -230 61t-84 160q0 76 48 122t130 46q84 0 134.5 -51t66.5 -180q5 -37 17.5 -52.5t39.5 -15.5q41 0 79 56.5t42 165.5l-1005 1153h-9v-830q0 -55 2 -81
t13.5 -45.5t27.5 -27.5t52 -18l51 -14v-33h-322v33l27 10q58 23 69 48t11 128v981q0 73 -5 101.5t-19.5 44t-55.5 30.5l-27 10v33h697l489 -557h8v350q0 91 -16 115.5t-88 46.5l-41 12v33h328z" />
    <glyph glyph-name="eng" unicode="&#x14b;" horiz-adv-x="1374" 
d="M1315 834v-709q0 -150 -71 -273t-203 -195.5t-300 -72.5q-193 0 -293 61t-100 162q0 73 44.5 119.5t127.5 46.5q106 0 157 -63t60 -213q3 -47 23 -47q10 0 15.5 9.5t9 40t3.5 87.5v965q0 74 -26.5 105.5t-83.5 31.5q-32 0 -60 -8v-731q0 -63 10.5 -83.5t45.5 -29.5l14 -4
v-33h-708v33l6 2q78 26 92 43.5t14 87.5v659q0 82 -10 104t-70 66l-32 25v22l612 66l16 -12l2 -162h4q206 174 410 174q129 0 210 -74t81 -200z" />
    <glyph glyph-name="Omacron" unicode="&#x14c;" horiz-adv-x="1605" 
d="M492 1552v142h622v-142h-622zM799 -25q-109 0 -215.5 25t-207.5 81.5t-177.5 138t-123 203.5t-46.5 269q0 114 26 213.5t71 175t107 137t131.5 103t146 70t150 41t144.5 12.5q112 0 216.5 -21.5t207.5 -74t178.5 -131.5t122.5 -205t47 -283q0 -159 -50.5 -290
t-130.5 -215t-184.5 -142t-208 -82.5t-204.5 -24.5zM803 31q51 0 77 54t38 191t12 402q0 233 -5.5 369.5t-21.5 214.5t-38.5 102.5t-61.5 24.5t-61.5 -25t-38.5 -97.5t-21.5 -195.5t-5.5 -328q0 -228 5.5 -363.5t21.5 -215t38.5 -106.5t61.5 -27z" />
    <glyph glyph-name="omacron" unicode="&#x14d;" horiz-adv-x="1316" 
d="M362 1231v141h590v-141h-590zM659 -25q-125 0 -236.5 35t-200.5 102t-141 176.5t-52 248.5q0 103 25.5 189t71 147.5t104.5 107.5t131 73.5t146 40.5t152 13q95 0 184.5 -21t170.5 -66.5t141.5 -110.5t96.5 -159t36 -206q0 -123 -36 -221.5t-95.5 -162.5t-142 -107
t-170.5 -61t-185 -18zM567 559q0 -231 10.5 -345t29.5 -147.5t57 -33.5q34 0 51.5 32t27 139t9.5 320q0 232 -10 345.5t-29 147.5t-58 34q-24 0 -39 -16.5t-27 -67t-17 -149.5t-5 -259z" />
    <glyph glyph-name="Obreve" unicode="&#x14e;" horiz-adv-x="1605" 
d="M803 1485q-126 0 -208.5 85t-88.5 247l14 8q52 -69 116.5 -94t166.5 -25t166 25t116 94l15 -8q-6 -162 -88.5 -247t-208.5 -85zM799 -25q-109 0 -215.5 25t-207.5 81.5t-177.5 138t-123 203.5t-46.5 269q0 114 26 213.5t71 175t107 137t131.5 103t146 70t150 41
t144.5 12.5q112 0 216.5 -21.5t207.5 -74t178.5 -131.5t122.5 -205t47 -283q0 -159 -50.5 -290t-130.5 -215t-184.5 -142t-208 -82.5t-204.5 -24.5zM803 31q51 0 77 54t38 191t12 402q0 233 -5.5 369.5t-21.5 214.5t-38.5 102.5t-61.5 24.5t-61.5 -25t-38.5 -97.5
t-21.5 -195.5t-5.5 -328q0 -228 5.5 -363.5t21.5 -215t38.5 -106.5t61.5 -27z" />
    <glyph glyph-name="obreve" unicode="&#x14f;" horiz-adv-x="1316" 
d="M659 -25q-125 0 -236.5 35t-200.5 102t-141 176.5t-52 248.5q0 103 25.5 189t71 147.5t104.5 107.5t131 73.5t146 40.5t152 13q95 0 184.5 -21t170.5 -66.5t141.5 -110.5t96.5 -159t36 -206q0 -123 -36 -221.5t-95.5 -162.5t-142 -107t-170.5 -61t-185 -18zM567 559
q0 -231 10.5 -345t29.5 -147.5t57 -33.5q34 0 51.5 32t27 139t9.5 320q0 232 -10 345.5t-29 147.5t-58 34q-24 0 -39 -16.5t-27 -67t-17 -149.5t-5 -259zM659 1184q-240 0 -282 327l14 9q58 -68 119 -94.5t149 -26.5t149.5 26.5t119.5 94.5l14 -9q-42 -327 -283 -327z" />
    <glyph glyph-name="Ohungarumlaut" unicode="&#x150;" horiz-adv-x="1605" 
d="M946 1481l-12 14l78 240q23 64 55.5 92t79.5 28q61 0 104 -42t43 -107q0 -96 -131 -143zM604 1481l-12 14l78 240q23 64 55.5 92t79.5 28q61 0 104 -42t43 -107q0 -96 -131 -143zM799 -25q-109 0 -215.5 25t-207.5 81.5t-177.5 138t-123 203.5t-46.5 269q0 114 26 213.5
t71 175t107 137t131.5 103t146 70t150 41t144.5 12.5q112 0 216.5 -21.5t207.5 -74t178.5 -131.5t122.5 -205t47 -283q0 -159 -50.5 -290t-130.5 -215t-184.5 -142t-208 -82.5t-204.5 -24.5zM803 31q51 0 77 54t38 191t12 402q0 233 -5.5 369.5t-21.5 214.5t-38.5 102.5
t-61.5 24.5t-61.5 -25t-38.5 -97.5t-21.5 -195.5t-5.5 -328q0 -228 5.5 -363.5t21.5 -215t38.5 -106.5t61.5 -27z" />
    <glyph glyph-name="ohungarumlaut" unicode="&#x151;" horiz-adv-x="1316" 
d="M760 1174l-12 14l67 252q34 121 129 121q64 0 110 -42.5t46 -107.5q0 -95 -129 -149zM424 1174l-12 14l67 252q34 121 129 121q64 0 110 -42.5t46 -107.5q0 -95 -129 -149zM659 -25q-125 0 -236.5 35t-200.5 102t-141 176.5t-52 248.5q0 103 25.5 189t71 147.5
t104.5 107.5t131 73.5t146 40.5t152 13q95 0 184.5 -21t170.5 -66.5t141.5 -110.5t96.5 -159t36 -206q0 -123 -36 -221.5t-95.5 -162.5t-142 -107t-170.5 -61t-185 -18zM567 559q0 -231 10.5 -345t29.5 -147.5t57 -33.5q34 0 51.5 32t27 139t9.5 320q0 232 -10 345.5
t-29 147.5t-58 34q-24 0 -39 -16.5t-27 -67t-17 -149.5t-5 -259z" />
    <glyph glyph-name="OE" unicode="&#x152;" horiz-adv-x="2140" 
d="M2095 553l-27 -553h-1273q-134 0 -246.5 22.5t-210 74t-165 130.5t-106 197t-38.5 268q0 153 45 277.5t119.5 207t176.5 138t211.5 80t227.5 24.5h1223l16 -495h-29q-103 194 -176 299q-53 74 -92.5 101.5t-105.5 27.5q-65 0 -107 -11v-575h31q67 0 96.5 16.5t56.5 63.5
q26 45 74 176h29v-584h-29q-44 127 -74 180q-27 49 -56.5 66.5t-96.5 17.5h-31v-516q0 -72 25 -95t102 -23q89 0 131.5 28t101.5 119q74 115 168 338h29zM672 707q0 -198 9 -326t30 -197t47.5 -95t68.5 -26q93 0 93 109v1073q0 109 -93 109q-40 0 -67 -26.5t-48 -96
t-30.5 -198.5t-9.5 -326z" />
    <glyph glyph-name="oe" unicode="&#x153;" horiz-adv-x="1937" 
d="M1343 -25q-219 0 -339 117q-142 -117 -345 -117q-102 0 -194 21.5t-172 66.5t-138.5 110.5t-92 158.5t-33.5 205q0 103 25.5 189t71 147.5t104.5 107.5t131 73.5t146 40.5t152 13q232 0 377 -133q136 133 340 133q251 0 386 -119.5t147 -378.5h-633q1 -127 22.5 -210
t66.5 -129.5t105 -64.5t148 -18q129 0 248 58v-31q-73 -103 -203 -171.5t-320 -68.5zM567 559q0 -231 10.5 -345t29.5 -147.5t57 -33.5q34 0 51.5 32t27 139t9.5 320q0 232 -10 345.5t-29 147.5t-58 34q-24 0 -39 -16.5t-27 -67t-17 -149.5t-5 -259zM1354 1053
q-31 0 -47 -33t-23.5 -117t-7.5 -244l154 19q0 150 -7 229.5t-23 112.5t-46 33z" />
    <glyph glyph-name="Racute" unicode="&#x154;" horiz-adv-x="1638" 
d="M616 1481l-8 18l234 264q64 70 135 70q68 0 112 -46t44 -116q0 -58 -38 -97t-108 -48zM774 686q82 0 116 73t34 269q0 178 -29.5 250t-99.5 72q-29 0 -60 -9v-651q16 -4 39 -4zM838 0h-822v33l25 8q23 8 34 12t22 14.5t14.5 17.5t6.5 30.5t3 41.5v62v981v62t-3 41.5
t-6.5 30.5t-14.5 17.5t-22 14.5t-34 12l-25 8v33h904q319 0 468.5 -99.5t149.5 -295.5q0 -124 -50 -216.5t-140 -131.5v-6q128 -355 254 -547q33 -49 45 -59q12 -9 43 -23l18 -8v-33h-709q-68 138 -128 305t-97 318h-39v-404v-62t3 -41.5t6.5 -30t14.5 -17t22 -15t34 -12.5
l23 -8v-33z" />
    <glyph glyph-name="racute" unicode="&#x155;" horiz-adv-x="1130" 
d="M778 1231l-364 -76l-11 19l211 282q62 80 144 80q68 0 110.5 -47.5t42.5 -116.5q0 -52 -34.5 -90t-98.5 -51zM92 166v659q0 82 -10 104t-70 66l-32 25v22l616 66l16 -12l-2 -170h4q57 81 132 130.5t161 49.5q100 0 159.5 -61t59.5 -168q0 -102 -58.5 -161t-152.5 -59
q-77 0 -128.5 36.5t-88.5 115.5q-19 40 -28 51.5t-25 11.5q-15 0 -27 -12v-694q0 -49 8 -69t27 -30.5t76 -27.5l21 -6v-33h-770v33l6 2q78 26 92 43.5t14 87.5z" />
    <glyph glyph-name="Rcommaaccent" unicode="&#x156;" horiz-adv-x="1638" 
d="M625 -520l-4 18q213 53 233 203q-31 -31 -84 -31q-61 0 -95 33t-34 88q0 58 45.5 97.5t124.5 39.5q80 0 134 -50.5t54 -127.5q0 -119 -98 -189t-276 -81zM774 686q82 0 116 73t34 269q0 178 -29.5 250t-99.5 72q-29 0 -60 -9v-651q16 -4 39 -4zM838 0h-822v33l25 8
q23 8 34 12t22 14.5t14.5 17.5t6.5 30.5t3 41.5v62v981v62t-3 41.5t-6.5 30.5t-14.5 17.5t-22 14.5t-34 12l-25 8v33h904q319 0 468.5 -99.5t149.5 -295.5q0 -124 -50 -216.5t-140 -131.5v-6q128 -355 254 -547q33 -49 45 -59q12 -9 43 -23l18 -8v-33h-709q-68 138 -128 305
t-97 318h-39v-404v-62t3 -41.5t6.5 -30t14.5 -17t22 -15t34 -12.5l23 -8v-33z" />
    <glyph glyph-name="rcommaaccent" unicode="&#x157;" horiz-adv-x="1130" 
d="M156 -520l-4 18q213 53 233 203q-31 -31 -84 -31q-61 0 -95 33t-34 88q0 58 45.5 97.5t124.5 39.5q80 0 134 -50.5t54 -127.5q0 -119 -98 -189t-276 -81zM92 166v659q0 82 -10 104t-70 66l-32 25v22l616 66l16 -12l-2 -170h4q57 81 132 130.5t161 49.5q100 0 159.5 -61
t59.5 -168q0 -102 -58.5 -161t-152.5 -59q-77 0 -128.5 36.5t-88.5 115.5q-19 40 -28 51.5t-25 11.5q-15 0 -27 -12v-694q0 -49 8 -69t27 -30.5t76 -27.5l21 -6v-33h-770v33l6 2q78 26 92 43.5t14 87.5z" />
    <glyph glyph-name="Rcaron" unicode="&#x158;" horiz-adv-x="1638" 
d="M463 1800l10 19l336 -93l336 93l10 -19l-264 -311h-162zM774 686q82 0 116 73t34 269q0 178 -29.5 250t-99.5 72q-29 0 -60 -9v-651q16 -4 39 -4zM838 0h-822v33l25 8q23 8 34 12t22 14.5t14.5 17.5t6.5 30.5t3 41.5v62v981v62t-3 41.5t-6.5 30.5t-14.5 17.5t-22 14.5
t-34 12l-25 8v33h904q319 0 468.5 -99.5t149.5 -295.5q0 -124 -50 -216.5t-140 -131.5v-6q128 -355 254 -547q33 -49 45 -59q12 -9 43 -23l18 -8v-33h-709q-68 138 -128 305t-97 318h-39v-404v-62t3 -41.5t6.5 -30t14.5 -17t22 -15t34 -12.5l23 -8v-33z" />
    <glyph glyph-name="rcaron" unicode="&#x159;" horiz-adv-x="1130" 
d="M711 1182h-168l-232 329l11 17l305 -113l305 113l10 -17zM92 166v659q0 82 -10 104t-70 66l-32 25v22l616 66l16 -12l-2 -170h4q57 81 132 130.5t161 49.5q100 0 159.5 -61t59.5 -168q0 -102 -58.5 -161t-152.5 -59q-77 0 -128.5 36.5t-88.5 115.5q-19 40 -28 51.5
t-25 11.5q-15 0 -27 -12v-694q0 -49 8 -69t27 -30.5t76 -27.5l21 -6v-33h-770v33l6 2q78 26 92 43.5t14 87.5z" />
    <glyph glyph-name="Sacute" unicode="&#x15a;" horiz-adv-x="1200" 
d="M524 -25q-262 0 -448 70l-31 447h31q116 -192 198 -293q76 -94 137.5 -131t131.5 -37q92 0 147 46.5t55 121.5q0 85 -71 142.5t-242 121.5q-120 45 -199.5 95t-125 111.5t-64 128.5t-18.5 156q0 217 166 353.5t456 136.5q239 0 416 -68l18 -407h-30q-94 151 -203 284
q-62 76 -113.5 106t-109.5 30q-80 0 -132.5 -42.5t-52.5 -115.5q0 -75 68 -122t250 -110q232 -82 327 -198t95 -293q0 -152 -81 -273t-231 -190.5t-344 -69.5zM395 1481l-8 18l234 264q64 70 135 70q68 0 111.5 -46t43.5 -116q0 -58 -37.5 -97t-107.5 -48z" />
    <glyph glyph-name="sacute" unicode="&#x15b;" horiz-adv-x="1009" 
d="M664 1231l-365 -76l-10 19l211 282q62 80 143 80q68 0 111 -47.5t43 -116.5q0 -52 -34.5 -90t-98.5 -51zM578 152q0 51 -40.5 85.5t-146.5 65.5q-107 31 -178.5 72.5t-110 96t-54 113.5t-15.5 138q0 174 133.5 279.5t394.5 105.5q171 0 320 -41l18 -307h-22
q-67 85 -154 176q-63 66 -105 89.5t-96 23.5q-55 0 -87 -30.5t-32 -76.5q0 -50 42 -82.5t157 -68.5q209 -68 293 -157.5t84 -238.5q0 -193 -140 -306.5t-417 -113.5q-220 0 -367 39l-16 348h22q86 -120 187 -221q57 -60 105.5 -83t101.5 -23q123 0 123 117z" />
    <glyph glyph-name="Scircumflex" unicode="&#x15c;" horiz-adv-x="1200" 
d="M266 1483l-10 18l266 311h162l264 -311l-10 -18l-336 92zM524 -25q-262 0 -448 70l-31 447h31q116 -192 198 -293q76 -94 137.5 -131t131.5 -37q92 0 147 46.5t55 121.5q0 85 -71 142.5t-242 121.5q-120 45 -199.5 95t-125 111.5t-64 128.5t-18.5 156q0 217 166 353.5
t456 136.5q239 0 416 -68l18 -407h-30q-94 151 -203 284q-62 76 -113.5 106t-109.5 30q-80 0 -132.5 -42.5t-52.5 -115.5q0 -75 68 -122t250 -110q232 -82 327 -198t95 -293q0 -152 -81 -273t-231 -190.5t-344 -69.5z" />
    <glyph glyph-name="scircumflex" unicode="&#x15d;" horiz-adv-x="1009" 
d="M416 1511h168l231 -329l-10 -17l-305 113l-305 -113l-11 17zM578 152q0 51 -40.5 85.5t-146.5 65.5q-107 31 -178.5 72.5t-110 96t-54 113.5t-15.5 138q0 174 133.5 279.5t394.5 105.5q171 0 320 -41l18 -307h-22q-67 85 -154 176q-63 66 -105 89.5t-96 23.5
q-55 0 -87 -30.5t-32 -76.5q0 -50 42 -82.5t157 -68.5q209 -68 293 -157.5t84 -238.5q0 -193 -140 -306.5t-417 -113.5q-220 0 -367 39l-16 348h22q86 -120 187 -221q57 -60 105.5 -83t101.5 -23q123 0 123 117z" />
    <glyph glyph-name="Scedilla" unicode="&#x15e;" horiz-adv-x="1200" 
d="M281 -424v25q79 22 124.5 55.5t45.5 71.5q0 24 -16.5 38.5t-49.5 14.5l-6 10l110 184q-246 6 -413 70l-31 447h31q116 -192 198 -293q76 -94 137.5 -131t131.5 -37q92 0 147 46.5t55 121.5q0 85 -71 142.5t-242 121.5q-120 45 -199.5 95t-125 111.5t-64 128.5t-18.5 156
q0 217 166 353.5t456 136.5q239 0 416 -68l18 -407h-30q-94 151 -203 284q-62 76 -113.5 106t-109.5 30q-80 0 -132.5 -42.5t-52.5 -115.5q0 -75 68 -122t250 -110q232 -82 327 -198t95 -293q0 -149 -77 -268t-221 -189.5t-331 -75.5l-27 -34q89 -7 133.5 -44.5t44.5 -97.5
q0 -79 -101 -138.5t-320 -84.5z" />
    <glyph glyph-name="scedilla" unicode="&#x15f;" horiz-adv-x="1009" 
d="M190 -424v25q79 22 124.5 55.5t45.5 71.5q0 53 -65 53l-6 10l110 184q-207 3 -344 39l-16 348h22q86 -120 187 -221q57 -60 105.5 -83t101.5 -23q123 0 123 117q0 51 -40.5 85.5t-146.5 65.5q-107 31 -178.5 72.5t-110 96t-54 113.5t-15.5 138q0 174 133.5 279.5
t394.5 105.5q171 0 320 -41l18 -307h-22q-67 85 -154 176q-63 66 -105 89.5t-96 23.5q-55 0 -87 -30.5t-32 -76.5q0 -50 42 -82.5t157 -68.5q209 -68 293 -157.5t84 -238.5q0 -187 -130.5 -299t-387.5 -121l-27 -34q89 -7 133.5 -44.5t44.5 -97.5q0 -79 -101.5 -138.5
t-320.5 -84.5z" />
    <glyph glyph-name="Scaron" unicode="&#x160;" horiz-adv-x="1200" 
d="M256 1800l10 19l336 -93l336 93l10 -19l-264 -311h-162zM524 -25q-262 0 -448 70l-31 447h31q116 -192 198 -293q76 -94 137.5 -131t131.5 -37q92 0 147 46.5t55 121.5q0 85 -71 142.5t-242 121.5q-120 45 -199.5 95t-125 111.5t-64 128.5t-18.5 156q0 217 166 353.5
t456 136.5q239 0 416 -68l18 -407h-30q-94 151 -203 284q-62 76 -113.5 106t-109.5 30q-80 0 -132.5 -42.5t-52.5 -115.5q0 -75 68 -122t250 -110q232 -82 327 -198t95 -293q0 -152 -81 -273t-231 -190.5t-344 -69.5z" />
    <glyph glyph-name="scaron" unicode="&#x161;" horiz-adv-x="1009" 
d="M604 1182h-168l-231 329l10 17l305 -113l305 113l11 -17zM578 152q0 51 -40.5 85.5t-146.5 65.5q-107 31 -178.5 72.5t-110 96t-54 113.5t-15.5 138q0 174 133.5 279.5t394.5 105.5q171 0 320 -41l18 -307h-22q-67 85 -154 176q-63 66 -105 89.5t-96 23.5
q-55 0 -87 -30.5t-32 -76.5q0 -50 42 -82.5t157 -68.5q209 -68 293 -157.5t84 -238.5q0 -193 -140 -306.5t-417 -113.5q-220 0 -367 39l-16 348h22q86 -120 187 -221q57 -60 105.5 -83t101.5 -23q123 0 123 117z" />
    <glyph glyph-name="Tcommaaccent" unicode="&#x162;" 
d="M535 -520l-5 18q214 53 234 203q-31 -31 -84 -31q-61 0 -95 33t-34 88q0 58 45.5 97.5t124.5 39.5q80 0 134 -50.5t54 -127.5q0 -119 -98 -189t-276 -81zM1075 1354h-14v-1135q0 -99 20.5 -127t110.5 -51l35 -8v-33h-951v33l35 8q90 23 110.5 51t20.5 127v1135h-16
q-48 0 -82.5 -29.5t-89.5 -120.5q-78 -131 -193 -362h-28l14 577h1409l14 -577h-28q-108 217 -193 362q-53 91 -87.5 120.5t-86.5 29.5z" />
    <glyph glyph-name="tcommaaccent" unicode="&#x163;" horiz-adv-x="888" 
d="M203 -520l-4 18q213 53 233 203q-31 -31 -84 -31q-61 0 -95 33t-34 88q0 58 45.5 97.5t124.5 39.5q80 0 134.5 -50.5t54.5 -127.5q0 -119 -98.5 -189t-276.5 -81zM446 -25q-198 0 -279 79.5t-81 262.5v635h-92v37q148 58 284.5 157.5t213.5 229.5h120v-293h240l-12 -131
h-228v-641q0 -97 23.5 -126t109.5 -29q61 0 115 14v-29q-57 -72 -174 -119t-240 -47z" />
    <glyph glyph-name="Tcaron" unicode="&#x164;" 
d="M406 1800l10 19l336 -93l335 93l11 -19l-264 -311h-162zM1075 1354h-14v-1135q0 -99 20.5 -127t110.5 -51l35 -8v-33h-951v33l35 8q90 23 110.5 51t20.5 127v1135h-16q-48 0 -82.5 -29.5t-89.5 -120.5q-78 -131 -193 -362h-28l14 577h1409l14 -577h-28q-108 217 -193 362
q-53 91 -87.5 120.5t-86.5 29.5z" />
    <glyph glyph-name="tcaron" unicode="&#x165;" horiz-adv-x="888" 
d="M682 1147l-18 8l8 268q2 61 36 96t95 35q57 0 93 -33.5t36 -84.5q0 -69 -68 -131zM446 -25q-198 0 -279 79.5t-81 262.5v635h-92v37q148 58 284.5 157.5t213.5 229.5h120v-293h240l-12 -131h-228v-641q0 -97 23.5 -126t109.5 -29q61 0 115 14v-29q-57 -72 -174 -119
t-240 -47z" />
    <glyph glyph-name="Tbar" unicode="&#x166;" 
d="M197 725v66h245v563h-16q-48 0 -82.5 -29.5t-89.5 -120.5q-78 -131 -193 -362h-28l14 577h1409l14 -577h-28q-108 217 -193 362q-53 91 -87.5 120.5t-86.5 29.5h-14v-563h246v-66h-246v-506q0 -99 20.5 -127t110.5 -51l35 -8v-33h-951v33l35 8q90 23 110.5 51t20.5 127
v506h-245z" />
    <glyph glyph-name="tbar" unicode="&#x167;" horiz-adv-x="888" 
d="M-12 674v65h98v213h-92v37q148 58 284.5 157.5t213.5 229.5h120v-293h240l-12 -131h-228v-213h219v-65h-219v-363q0 -97 23.5 -126t109.5 -29q61 0 115 14v-29q-57 -72 -174 -119t-240 -47q-198 0 -279 79.5t-81 262.5v357h-98z" />
    <glyph glyph-name="Utilde" unicode="&#x168;" horiz-adv-x="1460" 
d="M743 1200v-801q0 -139 67 -207.5t194 -68.5q125 0 192.5 74t67.5 225v792q0 93 -16.5 119t-86.5 43l-41 10v33h326v-33l-19 -6q-27 -9 -38 -13t-25.5 -13.5t-18 -18t-8.5 -28.5t-5.5 -42.5t-0.5 -62.5v-790q0 -219 -131.5 -328t-427.5 -109q-339 0 -491 112.5t-152 363.5
v749v62t-3.5 42t-7 29t-15.5 17t-23 14t-35 12l-31 10v33h854v-33l-34 -10q-24 -7 -35.5 -11.5t-24 -13.5t-17 -18t-9 -28.5t-5 -42.5t-0.5 -62zM707 1796q43 0 163.5 -19.5t165.5 -19.5q42 0 71.5 17.5t57.5 62.5l19 -12q-21 -67 -34.5 -104t-33.5 -81t-39 -65t-46.5 -36
t-61.5 -15q-41 0 -162.5 18.5t-167.5 18.5q-41 0 -69 -17t-56 -63l-22 12q21 67 34 104t33.5 81.5t39.5 66t46.5 36.5t61.5 15z" />
    <glyph glyph-name="utilde" unicode="&#x169;" horiz-adv-x="1398" 
d="M778 201v626q0 82 -9 104.5t-60 61.5l-35 27v22l618 66l13 -10v-860q0 -59 5 -82t18.5 -36t51.5 -26l33 -12v-27l-616 -80l-15 13l2 155h-4q-98 -89 -188.5 -128.5t-202.5 -39.5q-59 0 -112.5 17.5t-96.5 52t-68.5 91.5t-25.5 130v561q0 79 -10 100t-68 66l-35 27v22
l627 66l12 -10v-752q0 -87 24.5 -121.5t82.5 -34.5q37 0 59 11zM557 1497q43 0 164 -19.5t166 -19.5q42 0 71.5 17.5t57.5 62.5l18 -12q-17 -57 -28.5 -91.5t-27.5 -74.5t-31 -62.5t-34 -43t-42.5 -29t-51.5 -8.5q-41 0 -162.5 18t-167.5 18q-41 0 -68.5 -16.5t-55.5 -62.5
l-23 12q21 69 34.5 108.5t33.5 84t39 66.5t46.5 37t61.5 15z" />
    <glyph glyph-name="Umacron" unicode="&#x16a;" horiz-adv-x="1460" 
d="M743 1200v-801q0 -139 67 -207.5t194 -68.5q125 0 192.5 74t67.5 225v792q0 93 -16.5 119t-86.5 43l-41 10v33h326v-33l-19 -6q-27 -9 -38 -13t-25.5 -13.5t-18 -18t-8.5 -28.5t-5.5 -42.5t-0.5 -62.5v-790q0 -219 -131.5 -328t-427.5 -109q-339 0 -491 112.5t-152 363.5
v749v62t-3.5 42t-7 29t-15.5 17t-23 14t-35 12l-31 10v33h854v-33l-34 -10q-24 -7 -35.5 -11.5t-24 -13.5t-17 -18t-9 -28.5t-5 -42.5t-0.5 -62zM528 1552v142h623v-142h-623z" />
    <glyph glyph-name="umacron" unicode="&#x16b;" horiz-adv-x="1398" 
d="M778 201v626q0 82 -9 104.5t-60 61.5l-35 27v22l618 66l13 -10v-860q0 -59 5 -82t18.5 -36t51.5 -26l33 -12v-27l-616 -80l-15 13l2 155h-4q-98 -89 -188.5 -128.5t-202.5 -39.5q-59 0 -112.5 17.5t-96.5 52t-68.5 91.5t-25.5 130v561q0 79 -10 100t-68 66l-35 27v22
l627 66l12 -10v-752q0 -87 24.5 -121.5t82.5 -34.5q37 0 59 11zM408 1231v141h589v-141h-589z" />
    <glyph glyph-name="Ubreve" unicode="&#x16c;" horiz-adv-x="1460" 
d="M743 1200v-801q0 -139 67 -207.5t194 -68.5q125 0 192.5 74t67.5 225v792q0 93 -16.5 119t-86.5 43l-41 10v33h326v-33l-19 -6q-27 -9 -38 -13t-25.5 -13.5t-18 -18t-8.5 -28.5t-5.5 -42.5t-0.5 -62.5v-790q0 -219 -131.5 -328t-427.5 -109q-339 0 -491 112.5t-152 363.5
v749v62t-3.5 42t-7 29t-15.5 17t-23 14t-35 12l-31 10v33h854v-33l-34 -10q-24 -7 -35.5 -11.5t-24 -13.5t-17 -18t-9 -28.5t-5 -42.5t-0.5 -62zM811 1485q-126 0 -208.5 85t-88.5 247l14 8q52 -69 116.5 -94t166.5 -25t166.5 25t116.5 94l14 -8q-6 -162 -88.5 -247
t-208.5 -85z" />
    <glyph glyph-name="ubreve" unicode="&#x16d;" horiz-adv-x="1398" 
d="M778 201v626q0 82 -9 104.5t-60 61.5l-35 27v22l618 66l13 -10v-860q0 -59 5 -82t18.5 -36t51.5 -26l33 -12v-27l-616 -80l-15 13l2 155h-4q-98 -89 -188.5 -128.5t-202.5 -39.5q-59 0 -112.5 17.5t-96.5 52t-68.5 91.5t-25.5 130v561q0 79 -10 100t-68 66l-35 27v22
l627 66l12 -10v-752q0 -87 24.5 -121.5t82.5 -34.5q37 0 59 11zM698 1184q-240 0 -282 327l14 9q58 -68 119 -94.5t149 -26.5t149.5 26.5t119.5 94.5l14 -9q-42 -327 -283 -327z" />
    <glyph glyph-name="Uring" unicode="&#x16e;" horiz-adv-x="1460" 
d="M743 1200v-801q0 -139 67 -207.5t194 -68.5q125 0 192.5 74t67.5 225v792q0 93 -16.5 119t-86.5 43l-41 10v33h326v-33l-19 -6q-27 -9 -38 -13t-25.5 -13.5t-18 -18t-8.5 -28.5t-5.5 -42.5t-0.5 -62.5v-790q0 -219 -131.5 -328t-427.5 -109q-339 0 -491 112.5t-152 363.5
v749v62t-3.5 42t-7 29t-15.5 17t-23 14t-35 12l-31 10v33h854v-33l-34 -10q-24 -7 -35.5 -11.5t-24 -13.5t-17 -18t-9 -28.5t-5 -42.5t-0.5 -62zM762 1632q0 80 58 133.5t136 53.5q79 0 137 -53.5t58 -133.5t-58 -133t-137 -53t-136.5 53t-57.5 133zM840 1632q0 -57 31 -93
t85 -36t85.5 36t31.5 93t-31.5 93t-85.5 36t-85 -36t-31 -93z" />
    <glyph glyph-name="uring" unicode="&#x16f;" horiz-adv-x="1398" 
d="M496 1360q0 80 57.5 133t136.5 53t137 -53t58 -133t-58 -133t-137 -53t-136.5 53t-57.5 133zM573 1360q0 -57 31.5 -93t85.5 -36t85.5 36t31.5 93t-31.5 93t-85.5 36t-85.5 -36t-31.5 -93zM778 201v626q0 82 -9 104.5t-60 61.5l-35 27v22l618 66l13 -10v-860q0 -59 5 -82
t18.5 -36t51.5 -26l33 -12v-27l-616 -80l-15 13l2 155h-4q-98 -89 -188.5 -128.5t-202.5 -39.5q-59 0 -112.5 17.5t-96.5 52t-68.5 91.5t-25.5 130v561q0 79 -10 100t-68 66l-35 27v22l627 66l12 -10v-752q0 -87 24.5 -121.5t82.5 -34.5q37 0 59 11z" />
    <glyph glyph-name="Uhungarumlaut" unicode="&#x170;" horiz-adv-x="1460" 
d="M743 1200v-801q0 -139 67 -207.5t194 -68.5q125 0 192.5 74t67.5 225v792q0 93 -16.5 119t-86.5 43l-41 10v33h326v-33l-19 -6q-27 -9 -38 -13t-25.5 -13.5t-18 -18t-8.5 -28.5t-5.5 -42.5t-0.5 -62.5v-790q0 -219 -131.5 -328t-427.5 -109q-339 0 -491 112.5t-152 363.5
v749v62t-3.5 42t-7 29t-15.5 17t-23 14t-35 12l-31 10v33h854v-33l-34 -10q-24 -7 -35.5 -11.5t-24 -13.5t-17 -18t-9 -28.5t-5 -42.5t-0.5 -62zM918 1481l-13 14l78 240q23 64 55.5 92t79.5 28q61 0 104.5 -42t43.5 -107q0 -96 -131 -143zM575 1481l-12 14l78 240
q23 64 55.5 92t79.5 28q61 0 104.5 -42t43.5 -107q0 -96 -131 -143z" />
    <glyph glyph-name="uhungarumlaut" unicode="&#x171;" horiz-adv-x="1398" 
d="M778 201v626q0 82 -9 104.5t-60 61.5l-35 27v22l618 66l13 -10v-860q0 -59 5 -82t18.5 -36t51.5 -26l33 -12v-27l-616 -80l-15 13l2 155h-4q-98 -89 -188.5 -128.5t-202.5 -39.5q-59 0 -112.5 17.5t-96.5 52t-68.5 91.5t-25.5 130v561q0 79 -10 100t-68 66l-35 27v22
l627 66l12 -10v-752q0 -87 24.5 -121.5t82.5 -34.5q37 0 59 11zM754 1174l-13 14l68 252q34 121 129 121q64 0 110 -42.5t46 -107.5q0 -95 -129 -149zM418 1174l-12 14l67 252q34 121 129 121q64 0 110 -42.5t46 -107.5q0 -95 -129 -149z" />
    <glyph glyph-name="Uogonek" unicode="&#x172;" horiz-adv-x="1460" 
d="M772 -25q-337 0 -490 111.5t-153 364.5v749v62t-3.5 42t-7 29t-15.5 17t-23 14t-35 12l-31 10v33h854v-33l-34 -10q-24 -7 -35.5 -11.5t-24 -13.5t-17 -18t-9 -28.5t-5 -42.5t-0.5 -62v-801q0 -138 67.5 -207t193.5 -69q125 0 192.5 74t67.5 227v790q0 93 -16.5 119
t-86.5 43l-41 10v33h326v-33l-19 -6q-27 -9 -38 -13t-25.5 -13.5t-18 -18t-8.5 -28.5t-5.5 -42.5t-0.5 -62.5v-790q0 -132 -43.5 -216t-169.5 -194q-145 -129 -145 -229q0 -43 23.5 -66.5t64.5 -23.5q32 0 59 6v-19q-36 -39 -98 -64.5t-129 -25.5q-91 0 -146 40.5t-55 111.5
q0 51 25.5 93t97.5 86t195 85q-119 -21 -238 -21z" />
    <glyph glyph-name="uogonek" unicode="&#x173;" horiz-adv-x="1398" 
d="M1413 55l-149 -18q-146 -18 -233 -53t-120.5 -81.5t-33.5 -115.5q0 -104 90 -104q24 0 51 6v-19q-37 -40 -96.5 -65t-126.5 -25q-91 0 -146 40.5t-55 111.5q0 69 47 120.5t150 90.5l-7 200h-4q-98 -89 -188.5 -128.5t-202.5 -39.5q-59 0 -112.5 17.5t-96.5 52t-68.5 91.5
t-25.5 130v561q0 79 -10 100t-68 66l-35 27v22l627 66l12 -10v-752q0 -87 24.5 -121.5t82.5 -34.5q37 0 59 11v626q0 82 -9 104.5t-60 61.5l-35 27v22l618 66l13 -10v-860q0 -59 5 -82t18.5 -36t51.5 -26l33 -12v-27z" />
    <glyph glyph-name="Wcircumflex" unicode="&#x174;" horiz-adv-x="2318" 
d="M1982 1419h328v-33l-12 -6q-55 -28 -80 -68.5t-74 -183.5l-370 -1128h-338l-273 819l-252 -819h-356l-410 1163q-36 96 -52 131t-28 50t-40 32l-17 10v33h842v-33l-19 -8q-33 -15 -46 -34.5t-13 -55.5q0 -43 41 -172l184 -584h7l122 398l-84 256q-39 117 -64.5 150
t-86.5 48l-8 2v33h886v-33l-20 -8q-51 -20 -69.5 -42t-18.5 -60q0 -28 37 -158l170 -586h6l192 613q29 84 29 131q0 40 -18.5 62.5t-69.5 39.5l-25 8v33zM838 1483l-11 18l267 311h161l265 -311l-11 -18l-335 92z" />
    <glyph glyph-name="wcircumflex" unicode="&#x175;" horiz-adv-x="1900" 
d="M1745 831l-289 -831h-287l-206 606l-209 -606h-287l-336 858q-29 73 -47.5 107.5t-32.5 48t-43 28.5l-12 7v34h723v-34l-8 -2q-43 -10 -43 -70q0 -39 45 -156l129 -348h4l82 236l-49 149q-43 115 -65.5 147.5t-61.5 41.5l-9 2v34h768v-34l-30 -13q-84 -28 -84 -90
q0 -49 28 -125l115 -352h4l119 352q25 77 25 125q0 62 -84 90l-31 13v34h323v-34l-8 -5q-37 -19 -54 -34t-39 -56t-50 -123zM1006 1511h168l231 -329l-10 -17l-305 113l-306 -113l-10 17z" />
    <glyph glyph-name="Ycircumflex" unicode="&#x176;" horiz-adv-x="1490" 
d="M1495 1419v-33l-8 -4q-47 -24 -78.5 -65t-89.5 -156l-258 -514v-428q0 -69 10 -100t35.5 -46t89.5 -32l33 -8v-33h-953v33l33 8q64 17 89.5 32t35.5 46t10 100v418l-356 635q-33 60 -45 74t-41 30l-18 10v33h968v-33l-43 -12q-64 -18 -91 -43.5t-27 -62.5q0 -49 30 -111
l201 -401h6l186 364q46 95 46 154q0 35 -23.5 58.5t-83.5 41.5l-41 12v33h383zM639 1483l-10 18l266 311h162l264 -311l-10 -18l-336 92z" />
    <glyph glyph-name="ycircumflex" unicode="&#x177;" horiz-adv-x="1224" 
d="M608 -121l-489 979q-70 141 -83 158q-12 15 -34 26l-12 7v34h823v-34l-29 -9q-56 -17 -77 -37t-21 -51q0 -46 43 -147l127 -299h8l119 299q37 106 37 143q0 31 -21 53t-73 39l-27 9v34h326v-34l-8 -5q-32 -16 -50.5 -32.5t-42 -58.5t-53.5 -119l-323 -826
q-90 -231 -197 -329.5t-264 -98.5q-120 0 -192 59t-72 152q0 74 47.5 121t132.5 47q78 0 121 -39t63 -131q10 -47 20.5 -63.5t36.5 -16.5q37 0 86 50.5t78 119.5zM676 1511h168l231 -329l-10 -17l-305 113l-305 -113l-11 17z" />
    <glyph glyph-name="Ydieresis" unicode="&#x178;" horiz-adv-x="1490" 
d="M1495 1419v-33l-8 -4q-47 -24 -78.5 -65t-89.5 -156l-258 -514v-428q0 -69 10 -100t35.5 -46t89.5 -32l33 -8v-33h-953v33l33 8q64 17 89.5 32t35.5 46t10 100v418l-356 635q-33 60 -45 74t-41 30l-18 10v33h968v-33l-43 -12q-64 -18 -91 -43.5t-27 -62.5q0 -49 30 -111
l201 -401h6l186 364q46 95 46 154q0 35 -23.5 58.5t-83.5 41.5l-41 12v33h383zM748 1485q-77 0 -130 47t-53 129q0 80 53 127t130 47q79 0 131.5 -46.5t52.5 -127.5q0 -82 -52.5 -129t-131.5 -47zM1192 1485q-77 0 -129.5 47t-52.5 129q0 80 52.5 127t129.5 47
q79 0 131.5 -46.5t52.5 -127.5q0 -82 -52.5 -129t-131.5 -47z" />
    <glyph glyph-name="Zacute" unicode="&#x179;" horiz-adv-x="1423" 
d="M575 1481l-8 18l234 264q64 70 135 70q68 0 112 -46t44 -116q0 -58 -38 -97t-108 -48zM29 0v72l647 1278v6h-55q-83 0 -132.5 -13.5t-78.5 -38t-68 -77.5q-100 -140 -225 -371h-29l39 563h1235v-71l-645 -1276v-9h26q128 0 190.5 12.5t103 44t96.5 109.5q82 113 210 363
h31l-51 -592h-1294z" />
    <glyph glyph-name="zacute" unicode="&#x17a;" horiz-adv-x="1165" 
d="M799 1231l-365 -76l-10 19l211 282q62 80 143 80q68 0 111 -47.5t43 -116.5q0 -52 -34.5 -90t-98.5 -51zM31 0v88l510 922v8h-47q-89 0 -130 -22.5t-112 -106.5q-55 -66 -168 -223h-27l35 417h1008v-84l-502 -923v-8h49q76 0 125 14.5t78 37.5t72 73q90 108 174 239h28
l-55 -432h-1038z" />
    <glyph glyph-name="Zdotaccent" unicode="&#x17b;" horiz-adv-x="1423" 
d="M29 0v72l647 1278v6h-55q-83 0 -132.5 -13.5t-78.5 -38t-68 -77.5q-100 -140 -225 -371h-29l39 563h1235v-71l-645 -1276v-9h26q128 0 190.5 12.5t103 44t96.5 109.5q82 113 210 363h31l-51 -592h-1294zM768 1481q-104 0 -167.5 56.5t-63.5 150.5q0 90 63.5 146t167.5 56
q105 0 167 -56t62 -146q0 -94 -62 -150.5t-167 -56.5z" />
    <glyph glyph-name="zdotaccent" unicode="&#x17c;" horiz-adv-x="1165" 
d="M31 0v88l510 922v8h-47q-89 0 -130 -22.5t-112 -106.5q-55 -66 -168 -223h-27l35 417h1008v-84l-502 -923v-8h49q76 0 125 14.5t78 37.5t72 73q90 108 174 239h28l-55 -432h-1038zM621 1145q-105 0 -168.5 58t-63.5 155q0 93 64 151t168 58q105 0 167 -58t62 -151
q0 -97 -62 -155t-167 -58z" />
    <glyph glyph-name="Zcaron" unicode="&#x17d;" horiz-adv-x="1423" 
d="M434 1800l10 19l336 -93l336 93l10 -19l-264 -311h-162zM29 0v72l647 1278v6h-55q-83 0 -132.5 -13.5t-78.5 -38t-68 -77.5q-100 -140 -225 -371h-29l39 563h1235v-71l-645 -1276v-9h26q128 0 190.5 12.5t103 44t96.5 109.5q82 113 210 363h31l-51 -592h-1294z" />
    <glyph glyph-name="zcaron" unicode="&#x17e;" horiz-adv-x="1165" 
d="M715 1182h-168l-232 329l11 17l305 -113l305 113l10 -17zM31 0v88l510 922v8h-47q-89 0 -130 -22.5t-112 -106.5q-55 -66 -168 -223h-27l35 417h1008v-84l-502 -923v-8h49q76 0 125 14.5t78 37.5t72 73q90 108 174 239h28l-55 -432h-1038z" />
    <glyph glyph-name="florin" unicode="&#x192;" horiz-adv-x="1298" 
d="M129 776v62h137l4 55q20 278 185.5 416.5t457.5 138.5q190 0 285.5 -58.5t95.5 -154.5q0 -78 -47.5 -120t-134.5 -42q-96 0 -142 58t-52 182q-2 33 -8 50t-12 20t-17 3q-32 0 -41.5 -37.5t-20.5 -187.5l-24 -323h270v-62h-277l-47 -614q-21 -276 -188 -414.5t-444 -138.5
q-175 0 -267 54.5t-92 148.5q0 70 43.5 110.5t120.5 40.5q93 0 138.5 -51.5t51.5 -171.5q2 -33 8 -50t12 -20.5t17 -3.5q24 0 37.5 42t20.5 145l63 923h-133z" />
    <glyph glyph-name="Aringacute" unicode="&#x1fa;" 
d="M-12 0v33l10 4q44 18 65.5 38t44 65.5t62.5 152.5l412 1126h356l395 -1120q62 -176 81 -207q16 -26 50 -44q3 -2 9 -5l18 -10v-33h-932v33l53 10q53 12 75 35.5t22 66.5q0 52 -31 154l-45 145h-326l-51 -145q-45 -130 -45 -172q0 -32 20.5 -51t79.5 -33l39 -10v-33h-362z
M559 1651q0 80 58 133t137 53t136.5 -53t57.5 -133t-58 -133.5t-136 -53.5q-79 0 -137 53.5t-58 133.5zM498 1855l-9 19l234 264q64 70 135 70q68 0 112 -46t44 -116q0 -58 -38 -97t-108 -48zM479 934l-149 -424h284l-129 424h-6zM637 1651q0 -57 31.5 -93t85.5 -36t85 36
t31 93t-31 93t-85 36t-85.5 -36t-31.5 -93z" />
    <glyph glyph-name="aringacute" unicode="&#x1fb;" horiz-adv-x="1271" 
d="M334 -25q-145 0 -230.5 83t-85.5 208q0 49 11.5 88t36.5 68t54 50.5t74 39t85.5 29.5t99.5 26l266 56v184q0 141 -17 191.5t-55 50.5q-29 0 -41.5 -22t-17.5 -77q-12 -172 -67 -236.5t-189 -64.5q-86 0 -139 49t-53 127q0 127 141 205t436 78q265 0 396.5 -83t131.5 -273
v-490q0 -76 6 -100.5t35 -42.5q11 -6 30.5 -11.5t33 -7.5t16.5 -2v-22q-140 -101 -338 -101q-90 0 -146.5 15.5t-87.5 45.5t-50 81h-6q-109 -142 -330 -142zM598 154q35 0 47 12v385l-24 -4q-29 -5 -46.5 -18.5t-31 -60.5t-13.5 -130q0 -109 16.5 -146.5t51.5 -37.5z
M397 1360q0 80 58 133t137 53t136.5 -53t57.5 -133t-57.5 -133t-136.5 -53t-137 53t-58 133zM475 1360q0 -57 31.5 -93t85.5 -36t85.5 36t31.5 93t-31.5 93t-85.5 36t-85.5 -36t-31.5 -93zM338 1577l-8 18l233 265q63 69 135 69q68 0 112 -46t44 -116q0 -58 -37.5 -97
t-107.5 -48z" />
    <glyph glyph-name="AEacute" unicode="&#x1fc;" horiz-adv-x="1957" 
d="M1913 553l-27 -553h-1251v33l27 8q23 7 35 11t23 14.5t14.5 18t7 30.5t3.5 42v62v225h-358l-78 -151q-57 -111 -57 -156q0 -37 22.5 -56t96.5 -40l28 -8v-33h-411v33l18 8q50 22 74 40t48.5 53.5t66.5 115.5l542 1036q-10 36 -36 53.5t-89 38.5l-26 8v33h1263l17 -495
h-29q-103 194 -176 299q-53 73 -93 101t-106 28q-64 0 -106 -11v-575h30q67 0 97 16.5t57 63.5q26 45 74 176h28v-584h-28q-44 127 -74 180q-27 49 -57 66.5t-97 17.5h-30v-516q0 -72 25 -95t102 -23q89 0 131.5 28t101.5 119q74 115 168 338h29zM1085 1481l-8 18l234 264
q64 70 135 70q68 0 112 -46t44 -116q0 -58 -38 -97t-108 -48zM741 1135l-319 -623h323v623h-4z" />
    <glyph glyph-name="aeacute" unicode="&#x1fd;" horiz-adv-x="1802" 
d="M356 -25q-163 0 -250.5 74t-87.5 199q0 68 25 118.5t75 85t109 57t144 42.5l233 55v201q0 145 -12 193.5t-45 48.5q-25 0 -36.5 -23.5t-14.5 -75.5q-12 -156 -68.5 -218t-173.5 -62q-83 0 -134.5 47t-51.5 117q0 136 136.5 205t364.5 69q209 0 314 -94q159 94 358 94
q251 0 386 -119.5t147 -378.5h-633q1 -125 21.5 -207.5t65 -129.5t105 -66t150.5 -19q132 0 248 58v-31q-73 -103 -203 -171.5t-320 -68.5q-307 0 -463 156h-8q-153 -156 -381 -156zM1122 1231l-364 -76l-10 19l210 282q62 80 144 80q68 0 110.5 -47.5t42.5 -116.5
q0 -52 -34.5 -90t-98.5 -51zM1219 1053q-31 0 -47 -33t-23.5 -117t-7.5 -244l153 19q0 115 -3 183.5t-11.5 113.5t-23 61.5t-37.5 16.5zM606 147q52 0 96 33q-98 137 -98 346v9l-20 -5q-44 -10 -65 -54t-21 -146q0 -183 108 -183z" />
    <glyph glyph-name="Oslashacute" unicode="&#x1fe;" horiz-adv-x="1605" 
d="M193 -98l143 202q-141 91 -224 238t-83 350q0 114 26 213.5t71 175t107 137t131.5 103t146 70t150 41t144.5 12.5q241 0 422 -94l104 145h80l-127 -178q136 -85 214.5 -231t78.5 -357q0 -159 -50.5 -290t-130.5 -215t-184.5 -142t-208 -82.5t-204.5 -24.5q-219 0 -406 97
l-121 -170h-79zM674 743v-168l256 357q-4 191 -18 289.5t-38.5 133t-70.5 34.5q-40 0 -63.5 -24.5t-39 -98t-21 -195t-5.5 -328.5zM803 31q40 0 63.5 27t39 102t21 196t5.5 322v145l-256 -356q5 -178 19.5 -272t39 -129t68.5 -35zM565 1481l-8 18l234 264q64 70 135 70
q68 0 111.5 -46t43.5 -116q0 -58 -37.5 -97t-107.5 -48z" />
    <glyph glyph-name="oslashacute" unicode="&#x1ff;" horiz-adv-x="1316" 
d="M659 -25q-189 0 -340 74l-90 -119h-71l112 148q-112 71 -176.5 186.5t-64.5 272.5q0 103 25.5 189t71 147.5t104.5 107.5t131 73.5t146 40.5t152 13q181 0 334 -78l97 127h71l-117 -153q113 -73 178.5 -188.5t65.5 -270.5q0 -123 -36 -221.5t-95.5 -162.5t-142 -107
t-170.5 -61t-185 -18zM799 1231l-365 -76l-10 19l211 282q62 80 143 80q68 0 111 -47.5t43 -116.5q0 -52 -34.5 -90t-98.5 -51zM664 33q34 0 51.5 32t27 139t9.5 320v94l-185 -241q4 -147 16.5 -223t30.5 -98.5t50 -22.5zM567 559v-90l183 242q-4 145 -16 220t-29.5 97.5
t-49.5 22.5q-24 0 -39 -16.5t-27 -67t-17 -149.5t-5 -259z" />
    <glyph glyph-name="Scommaaccent" unicode="&#x218;" horiz-adv-x="1200" 
d="M371 -520l-4 18q213 53 233 203q-31 -31 -84 -31q-61 0 -95 33t-34 88q0 58 45.5 97.5t124.5 39.5q80 0 134 -50.5t54 -127.5q0 -119 -98 -189t-276 -81zM524 -25q-262 0 -448 70l-31 447h31q116 -192 198 -293q76 -94 137.5 -131t131.5 -37q92 0 147 46.5t55 121.5
q0 85 -71 142.5t-242 121.5q-120 45 -199.5 95t-125 111.5t-64 128.5t-18.5 156q0 217 166 353.5t456 136.5q239 0 416 -68l18 -407h-30q-94 151 -203 284q-62 76 -113.5 106t-109.5 30q-80 0 -132.5 -42.5t-52.5 -115.5q0 -75 68 -122t250 -110q232 -82 327 -198t95 -293
q0 -152 -81 -273t-231 -190.5t-344 -69.5z" />
    <glyph glyph-name="scommaaccent" unicode="&#x219;" horiz-adv-x="1009" 
d="M258 -520l-4 18q213 53 233 203q-31 -31 -84 -31q-61 0 -95 33t-34 88q0 58 45.5 97.5t124.5 39.5q80 0 134.5 -50.5t54.5 -127.5q0 -119 -98.5 -189t-276.5 -81zM578 152q0 51 -40.5 85.5t-146.5 65.5q-107 31 -178.5 72.5t-110 96t-54 113.5t-15.5 138
q0 174 133.5 279.5t394.5 105.5q171 0 320 -41l18 -307h-22q-67 85 -154 176q-63 66 -105 89.5t-96 23.5q-55 0 -87 -30.5t-32 -76.5q0 -50 42 -82.5t157 -68.5q209 -68 293 -157.5t84 -238.5q0 -193 -140 -306.5t-417 -113.5q-220 0 -367 39l-16 348h22q86 -120 187 -221
q57 -60 105.5 -83t101.5 -23q123 0 123 117z" />
    <glyph glyph-name="uni021A" unicode="&#x21a;" 
d="M535 -520l-5 18q214 53 234 203q-31 -31 -84 -31q-61 0 -95 33t-34 88q0 58 45.5 97.5t124.5 39.5q80 0 134 -50.5t54 -127.5q0 -119 -98 -189t-276 -81zM1075 1354h-14v-1135q0 -99 20.5 -127t110.5 -51l35 -8v-33h-951v33l35 8q90 23 110.5 51t20.5 127v1135h-16
q-48 0 -82.5 -29.5t-89.5 -120.5q-78 -131 -193 -362h-28l14 577h1409l14 -577h-28q-108 217 -193 362q-53 91 -87.5 120.5t-86.5 29.5z" />
    <glyph glyph-name="uni021B" unicode="&#x21b;" horiz-adv-x="888" 
d="M203 -520l-4 18q213 53 233 203q-31 -31 -84 -31q-61 0 -95 33t-34 88q0 58 45.5 97.5t124.5 39.5q80 0 134.5 -50.5t54.5 -127.5q0 -119 -98.5 -189t-276.5 -81zM446 -25q-198 0 -279 79.5t-81 262.5v635h-92v37q148 58 284.5 157.5t213.5 229.5h120v-293h240l-12 -131
h-228v-641q0 -97 23.5 -126t109.5 -29q61 0 115 14v-29q-57 -72 -174 -119t-240 -47z" />
    <glyph glyph-name="uni0237" unicode="&#x237;" horiz-adv-x="710" 
d="M627 1096q-9 -129 -9 -273v-760q0 -208 -159 -343.5t-414 -135.5q-195 0 -298 60.5t-103 165.5q0 76 45 123t131 47q109 0 160.5 -64t60.5 -219q1 -27 6 -37t16 -10q10 0 16 9.5t9.5 40.5t3.5 87v1038q0 62 -4.5 84t-18.5 38.5t-59 47.5l-35 25v22l637 66z" />
    <glyph glyph-name="circumflex" unicode="&#x2c6;" horiz-adv-x="978" 
d="M406 1511h167l232 -329l-10 -17l-306 113l-305 -113l-10 17z" />
    <glyph glyph-name="caron" unicode="&#x2c7;" horiz-adv-x="978" 
d="M573 1182h-167l-232 329l10 17l305 -113l306 113l10 -17z" />
    <glyph glyph-name="breve" unicode="&#x2d8;" horiz-adv-x="978" 
d="M489 1184q-240 0 -282 327l14 9q58 -68 119 -94.5t149 -26.5t149.5 26.5t119.5 94.5l14 -9q-42 -327 -283 -327z" />
    <glyph glyph-name="dotaccent" unicode="&#x2d9;" horiz-adv-x="378" 
d="M193 1145q-105 0 -168.5 58t-63.5 155q0 93 64 151t168 58q105 0 167 -58t62 -151q0 -97 -62 -155t-167 -58z" />
    <glyph glyph-name="ring" unicode="&#x2da;" horiz-adv-x="978" 
d="M295 1360q0 80 57.5 133t136.5 53t137 -53t58 -133t-58 -133t-137 -53t-136.5 53t-57.5 133zM373 1360q0 -57 31 -93t85 -36t85.5 36t31.5 93t-31.5 93t-85.5 36t-85 -36t-31 -93z" />
    <glyph glyph-name="ogonek" unicode="&#x2db;" horiz-adv-x="473" 
d="M184 -420q-91 0 -145.5 40.5t-54.5 111.5q0 84 82 152t235 116h41q-33 -39 -54.5 -100.5t-21.5 -128.5q0 -43 22 -65.5t60 -22.5q33 0 60 6v-19q-37 -40 -97 -65t-127 -25z" />
    <glyph glyph-name="tilde" unicode="&#x2dc;" horiz-adv-x="978" 
d="M358 1497q42 0 163 -19.5t167 -19.5q42 0 71.5 17.5t57.5 62.5l19 -12q-17 -57 -28.5 -91.5t-27.5 -74.5t-31 -62.5t-34 -43t-42.5 -29t-51.5 -8.5q-41 0 -162.5 18t-167.5 18q-41 0 -69 -16.5t-56 -62.5l-23 12q21 69 34.5 108.5t33.5 84t39 66.5t46.5 37t61.5 15z" />
    <glyph glyph-name="hungarumlaut" unicode="&#x2dd;" horiz-adv-x="978" 
d="M541 1174l-13 14l68 252q34 121 129 121q64 0 110 -42.5t46 -107.5q0 -95 -129 -149zM205 1174l-12 14l67 252q34 121 129 121q64 0 110 -42.5t46 -107.5q0 -95 -129 -149z" />
    <glyph glyph-name="Wgrave" unicode="&#x1e80;" horiz-adv-x="2318" 
d="M1982 1419h328v-33l-12 -6q-55 -28 -80 -68.5t-74 -183.5l-370 -1128h-338l-273 819l-252 -819h-356l-410 1163q-36 96 -52 131t-28 50t-40 32l-17 10v33h842v-33l-19 -8q-33 -15 -46 -34.5t-13 -55.5q0 -43 41 -172l184 -584h7l122 398l-84 256q-39 117 -64.5 150
t-86.5 48l-8 2v33h886v-33l-20 -8q-51 -20 -69.5 -42t-18.5 -60q0 -28 37 -158l170 -586h6l192 613q29 84 29 131q0 40 -18.5 62.5t-69.5 39.5l-25 8v33zM1446 1499l-8 -18l-371 45q-70 9 -107.5 48t-37.5 97q0 70 43.5 116t111.5 46q71 0 135 -70z" />
    <glyph glyph-name="wgrave" unicode="&#x1e81;" horiz-adv-x="1900" 
d="M1745 831l-289 -831h-287l-206 606l-209 -606h-287l-336 858q-29 73 -47.5 107.5t-32.5 48t-43 28.5l-12 7v34h723v-34l-8 -2q-43 -10 -43 -70q0 -39 45 -156l129 -348h4l82 236l-49 149q-43 115 -65.5 147.5t-61.5 41.5l-9 2v34h768v-34l-30 -13q-84 -28 -84 -90
q0 -49 28 -125l115 -352h4l119 352q25 77 25 125q0 62 -84 90l-31 13v34h323v-34l-8 -5q-37 -19 -54 -34t-39 -56t-50 -123zM1309 1174l-11 -19l-364 76q-64 13 -98.5 51t-34.5 90q0 69 42.5 116.5t110.5 47.5q82 0 144 -80z" />
    <glyph glyph-name="Wacute" unicode="&#x1e82;" horiz-adv-x="2318" 
d="M1982 1419h328v-33l-12 -6q-55 -28 -80 -68.5t-74 -183.5l-370 -1128h-338l-273 819l-252 -819h-356l-410 1163q-36 96 -52 131t-28 50t-40 32l-17 10v33h842v-33l-19 -8q-33 -15 -46 -34.5t-13 -55.5q0 -43 41 -172l184 -584h7l122 398l-84 256q-39 117 -64.5 150
t-86.5 48l-8 2v33h886v-33l-20 -8q-51 -20 -69.5 -42t-18.5 -60q0 -28 37 -158l170 -586h6l192 613q29 84 29 131q0 40 -18.5 62.5t-69.5 39.5l-25 8v33zM1061 1481l-8 18l233 264q64 70 135 70q68 0 112 -46t44 -116q0 -58 -37.5 -97t-107.5 -48z" />
    <glyph glyph-name="wacute" unicode="&#x1e83;" horiz-adv-x="1900" 
d="M1745 831l-289 -831h-287l-206 606l-209 -606h-287l-336 858q-29 73 -47.5 107.5t-32.5 48t-43 28.5l-12 7v34h723v-34l-8 -2q-43 -10 -43 -70q0 -39 45 -156l129 -348h4l82 236l-49 149q-43 115 -65.5 147.5t-61.5 41.5l-9 2v34h768v-34l-30 -13q-84 -28 -84 -90
q0 -49 28 -125l115 -352h4l119 352q25 77 25 125q0 62 -84 90l-31 13v34h323v-34l-8 -5q-37 -19 -54 -34t-39 -56t-50 -123zM1245 1231l-364 -76l-11 19l211 282q62 80 144 80q68 0 110.5 -47.5t42.5 -116.5q0 -52 -34.5 -90t-98.5 -51z" />
    <glyph glyph-name="Wdieresis" unicode="&#x1e84;" horiz-adv-x="2318" 
d="M1982 1419h328v-33l-12 -6q-55 -28 -80 -68.5t-74 -183.5l-370 -1128h-338l-273 819l-252 -819h-356l-410 1163q-36 96 -52 131t-28 50t-40 32l-17 10v33h842v-33l-19 -8q-33 -15 -46 -34.5t-13 -55.5q0 -43 41 -172l184 -584h7l122 398l-84 256q-39 117 -64.5 150
t-86.5 48l-8 2v33h886v-33l-20 -8q-51 -20 -69.5 -42t-18.5 -60q0 -28 37 -158l170 -586h6l192 613q29 84 29 131q0 40 -18.5 62.5t-69.5 39.5l-25 8v33zM1384 1485q-77 0 -129.5 47t-52.5 129q0 80 52.5 127t129.5 47q79 0 132 -46.5t53 -127.5q0 -82 -52.5 -129
t-132.5 -47zM940 1485q-77 0 -129.5 47t-52.5 129q0 80 52.5 127t129.5 47q79 0 131.5 -46.5t52.5 -127.5q0 -82 -52.5 -129t-131.5 -47z" />
    <glyph glyph-name="wdieresis" unicode="&#x1e85;" horiz-adv-x="1900" 
d="M1745 831l-289 -831h-287l-206 606l-209 -606h-287l-336 858q-29 73 -47.5 107.5t-32.5 48t-43 28.5l-12 7v34h723v-34l-8 -2q-43 -10 -43 -70q0 -39 45 -156l129 -348h4l82 236l-49 149q-43 115 -65.5 147.5t-61.5 41.5l-9 2v34h768v-34l-30 -13q-84 -28 -84 -90
q0 -49 28 -125l115 -352h4l119 352q25 77 25 125q0 62 -84 90l-31 13v34h323v-34l-8 -5q-37 -19 -54 -34t-39 -56t-50 -123zM846 1174q-80 0 -135.5 49t-55.5 133t55.5 133t135.5 49q82 0 136 -48.5t54 -133.5t-54 -133.5t-136 -48.5zM1290 1174q-80 0 -134 48.5t-54 133.5
t54 133.5t134 48.5q83 0 138 -48.5t55 -133.5t-55 -133.5t-138 -48.5z" />
    <glyph glyph-name="Ygrave" unicode="&#x1ef2;" horiz-adv-x="1490" 
d="M1495 1419v-33l-8 -4q-47 -24 -78.5 -65t-89.5 -156l-258 -514v-428q0 -69 10 -100t35.5 -46t89.5 -32l33 -8v-33h-953v33l33 8q64 17 89.5 32t35.5 46t10 100v418l-356 635q-33 60 -45 74t-41 30l-18 10v33h968v-33l-43 -12q-64 -18 -91 -43.5t-27 -62.5q0 -49 30 -111
l201 -401h6l186 364q46 95 46 154q0 35 -23.5 58.5t-83.5 41.5l-41 12v33h383zM1161 1499l-8 -18l-371 45q-70 9 -107.5 48t-37.5 97q0 70 44 116t112 46q71 0 135 -70z" />
    <glyph glyph-name="ygrave" unicode="&#x1ef3;" horiz-adv-x="1224" 
d="M608 -121l-489 979q-70 141 -83 158q-12 15 -34 26l-12 7v34h823v-34l-29 -9q-56 -17 -77 -37t-21 -51q0 -46 43 -147l127 -299h8l119 299q37 106 37 143q0 31 -21 53t-73 39l-27 9v34h326v-34l-8 -5q-32 -16 -50.5 -32.5t-42 -58.5t-53.5 -119l-323 -826
q-90 -231 -197 -329.5t-264 -98.5q-120 0 -192 59t-72 152q0 74 47.5 121t132.5 47q78 0 121 -39t63 -131q10 -47 20.5 -63.5t36.5 -16.5q37 0 86 50.5t78 119.5zM997 1174l-10 -19l-364 76q-65 13 -99.5 51t-34.5 90q0 69 43 116.5t111 47.5q81 0 143 -80z" />
    <glyph glyph-name="uni2009" unicode="&#x2009;" horiz-adv-x="147" 
 />
    <glyph glyph-name="endash" unicode="&#x2013;" horiz-adv-x="780" 
d="M63 561v76h654v-76h-654z" />
    <glyph glyph-name="emdash" unicode="&#x2014;" horiz-adv-x="1280" 
d="M63 561v76h1154v-76h-1154z" />
    <glyph glyph-name="quoteleft" unicode="&#x2018;" horiz-adv-x="436" 
d="M412 1430l4 -23q-113 -32 -175.5 -101t-70.5 -163q35 49 102 49q56 0 96 -38.5t40 -100.5q0 -75 -51.5 -122.5t-135.5 -47.5q-91 0 -148 56t-57 159q0 132 104.5 222t291.5 110z" />
    <glyph glyph-name="quoteright" unicode="&#x2019;" horiz-adv-x="436" 
d="M25 887l-5 22q113 32 175.5 101.5t70.5 163.5q-36 -50 -102 -50q-56 0 -95.5 38.5t-39.5 101.5q0 76 51 123t135 47q91 0 148 -56t57 -159q0 -132 -104 -222t-291 -110z" />
    <glyph glyph-name="quotesinglbase" unicode="&#x201a;" horiz-adv-x="436" 
d="M20 -164l-4 23q113 32 175.5 101t70.5 163q-35 -49 -102 -49q-56 0 -95.5 38.5t-39.5 100.5q0 76 51 123t135 47q91 0 148 -56t57 -159q0 -132 -104.5 -222t-291.5 -110z" />
    <glyph glyph-name="quotedblleft" unicode="&#x201c;" horiz-adv-x="882" 
d="M858 1430l4 -23q-113 -32 -175.5 -101t-70.5 -163q35 49 103 49q56 0 95.5 -38.5t39.5 -100.5q0 -76 -51 -123t-135 -47q-91 0 -148 56t-57 159q0 132 104 222t291 110zM412 1430l4 -23q-113 -32 -175.5 -101t-70.5 -163q35 49 102 49q56 0 96 -38.5t40 -100.5
q0 -75 -51.5 -122.5t-135.5 -47.5q-91 0 -148 56t-57 159q0 132 104.5 222t291.5 110z" />
    <glyph glyph-name="quotedblright" unicode="&#x201d;" horiz-adv-x="882" 
d="M25 887l-5 22q113 32 175.5 101.5t70.5 163.5q-36 -50 -102 -50q-56 0 -95.5 38.5t-39.5 101.5q0 76 51 123t135 47q91 0 148 -56t57 -159q0 -132 -104 -222t-291 -110zM471 887l-4 22q113 32 175.5 101.5t70.5 163.5q-36 -50 -103 -50q-56 0 -95.5 38.5t-39.5 101.5
q0 75 51.5 122.5t135.5 47.5q91 0 147.5 -56t56.5 -159q0 -132 -104 -222t-291 -110z" />
    <glyph glyph-name="quotedblbase" unicode="&#x201e;" horiz-adv-x="882" 
d="M20 -164l-4 23q113 32 175.5 101t70.5 163q-35 -49 -102 -49q-56 0 -95.5 38.5t-39.5 100.5q0 76 51 123t135 47q91 0 148 -56t57 -159q0 -132 -104.5 -222t-291.5 -110zM467 -164l-4 23q113 32 175.5 101t70.5 163q-35 -49 -103 -49q-56 0 -95.5 38.5t-39.5 100.5
q0 76 51 123t135 47q91 0 148 -56t57 -159q0 -132 -104 -222t-291 -110z" />
    <glyph glyph-name="dagger" unicode="&#x2020;" horiz-adv-x="872" 
d="M453 981q4 -58 56 -121.5t128 -109.5l-193 -887h-16l-190 887q75 47 127 110.5t55 120.5q-28 -9 -73 -45t-93 -66t-94 -30q-72 0 -110 43t-38 114q0 74 37.5 115t110.5 41q36 0 75 -19.5t67 -43.5t61 -48t57 -30q-9 34 -36 73.5t-53.5 68.5t-47.5 67.5t-21 72.5
q0 68 45 106t129 38t128 -38t44 -106q0 -35 -20.5 -73t-46.5 -67t-52.5 -68.5t-35.5 -73.5q24 6 57 30t61 48t67 43.5t75 19.5q73 0 110 -41t37 -115q0 -71 -37.5 -114t-109.5 -43q-46 0 -94 30t-93 66t-73 45z" />
    <glyph glyph-name="daggerdbl" unicode="&#x2021;" horiz-adv-x="872" 
d="M453 281q23 7 56.5 30t61.5 45t67 40t75 18q72 0 109.5 -43.5t37.5 -114.5q0 -74 -37 -115t-110 -41q-36 0 -75 21t-67 46.5t-61 51t-57 31.5q9 -39 48.5 -87.5t73 -93.5t33.5 -81q0 -64 -44 -98.5t-128 -34.5t-129 35t-45 98q0 29 21.5 64t48.5 63t53.5 65.5t34.5 69.5
q-24 -6 -57 -31.5t-61 -51t-67 -46.5t-75 -21q-73 0 -110.5 41t-37.5 115q0 71 38 114.5t110 43.5q36 0 75 -18t67 -40t61.5 -45t56.5 -30q-6 55 -58 101.5t-129 78.5l195 176h16l197 -176q-79 -31 -130.5 -77.5t-57.5 -102.5zM453 1012q6 -56 57.5 -103t130.5 -78
l-197 -176h-16l-195 176q77 32 129 79t58 102q-23 -7 -56.5 -30t-61.5 -45t-67 -40t-75 -18q-72 0 -110 43t-38 114q0 74 37.5 115t110.5 41q36 0 75 -21t67 -46.5t61 -51t57 -31.5q-8 32 -34.5 69.5t-53.5 66t-48.5 63.5t-21.5 64q0 63 45 98t129 35t128 -34.5t44 -98.5
q0 -29 -21 -64t-47.5 -63.5t-52.5 -66t-34 -69.5q24 6 57 31.5t61 51t67 46.5t75 21q73 0 110 -41t37 -115q0 -71 -37.5 -114t-109.5 -43q-36 0 -75 18t-67 40t-61.5 45t-56.5 30z" />
    <glyph glyph-name="bullet" unicode="&#x2022;" horiz-adv-x="614" 
d="M33 688q0 112 77 188t197 76t197.5 -76t77.5 -188t-77.5 -188t-197.5 -76t-197 76t-77 188z" />
    <glyph glyph-name="ellipsis" unicode="&#x2026;" horiz-adv-x="1540" 
d="M557 188q0 87 60 146t153 59t153 -59t60 -146t-60 -145.5t-153 -58.5t-153 58.5t-60 145.5zM37 188q0 87 60 146t153 59t153 -59t60 -146t-60 -145.5t-153 -58.5t-153 58.5t-60 145.5zM1290 -16q-93 0 -153 58.5t-60 145.5t60 146t153 59t153 -59t60 -146t-60 -145.5
t-153 -58.5z" />
    <glyph glyph-name="perthousand" unicode="&#x2030;" horiz-adv-x="2392" 
d="M154 -102l1114 1564h73l-1114 -1564h-73zM410 737q-187 0 -292.5 93t-105.5 255q0 161 111.5 260t302.5 99q184 0 290.5 -93t106.5 -253q0 -158 -115.5 -259.5t-297.5 -101.5zM348 1098q0 -124 8 -190.5t22.5 -87.5t39.5 -21q26 0 39.5 18.5t21.5 82t8 185.5
q0 126 -7.5 191t-21.5 86.5t-40 21.5q-27 0 -40.5 -19t-21.5 -81.5t-8 -185.5zM1118 -25q-187 0 -292 93.5t-105 255.5q0 160 111.5 259t302.5 99q184 0 290.5 -93t106.5 -253q0 -157 -116 -259t-298 -102zM1057 336q0 -124 8 -190.5t22 -87.5t39 -21q26 0 39.5 19t22 82.5
t8.5 185.5q0 125 -7.5 190.5t-22 87t-40.5 21.5q-27 0 -40.5 -19t-21 -82t-7.5 -186zM1966 -25q-187 0 -292 93.5t-105 255.5q0 161 111 259.5t302 98.5q184 0 291 -93t107 -253q0 -157 -116 -259t-298 -102zM1905 336q0 -124 8 -190.5t22 -87.5t39 -21q26 0 39.5 19
t22 82.5t8.5 185.5q0 125 -7.5 190.5t-22 87t-40.5 21.5q-27 0 -40.5 -19t-21 -82t-7.5 -186z" />
    <glyph glyph-name="uni2032" unicode="&#x2032;" horiz-adv-x="462" 
d="M170 795l-94 391q-32 131 19.5 200.5t166.5 69.5q79 0 130 -40t57.5 -101.5t-31.5 -136.5l-217 -383h-31z" />
    <glyph glyph-name="uni2033" unicode="&#x2033;" horiz-adv-x="847" 
d="M170 795l-94 391q-32 131 19.5 200.5t166.5 69.5q79 0 130 -40t57.5 -101.5t-31.5 -136.5l-217 -383h-31zM596 795l-94 391q-32 131 19.5 200.5t166.5 69.5q79 0 130 -40t57.5 -101.5t-31.5 -136.5l-217 -383h-31z" />
    <glyph glyph-name="guilsinglleft" unicode="&#x2039;" horiz-adv-x="468" 
d="M395 133l-375 379v10l375 379h25l-144 -381l144 -387h-25z" />
    <glyph glyph-name="guilsinglright" unicode="&#x203a;" horiz-adv-x="468" 
d="M449 512l-375 -379h-25l144 387l-144 381h25l375 -379v-10z" />
    <glyph glyph-name="fraction" unicode="&#x2044;" horiz-adv-x="606" 
d="M-356 -102l1237 1564h82l-1237 -1564h-82z" />
    <glyph glyph-name="Euro" unicode="&#x20ac;" horiz-adv-x="1392" 
d="M870 1384q-31 0 -54.5 -22.5t-44 -79.5t-32.5 -169t-14 -277h369l-15 -62h-354v-24q0 -74 2 -107h324l-15 -61h-305q11 -115 39 -192.5t74 -120.5t103 -61t136 -18q131 0 252 66v-41q-68 -102 -205.5 -171t-322.5 -69q-312 0 -489.5 149t-204.5 458h-109v61h105v49
q0 55 2 82h-107v62h115q20 125 74.5 228t131 172.5t173.5 117t201.5 69t215.5 21.5q221 0 336 -71.5t115 -186.5q0 -86 -51.5 -135.5t-134.5 -49.5q-108 0 -165 64.5t-75 232.5q-4 51 -21 68.5t-49 17.5z" />
    <glyph glyph-name="trademark" unicode="&#x2122;" horiz-adv-x="1550" 
d="M709 969v336q0 50 -5.5 61.5t-29.5 17.5l-33 9v26h358l68 -256h2l82 256h354v-26l-35 -9q-26 -6 -33 -18t-7 -61v-336q0 -49 5.5 -61.5t30.5 -18.5l35 -8v-27h-407v27l34 8q25 6 31 18.5t6 61.5v364h-2l-155 -477h-99l-155 477h-2v-364q0 -49 6 -61.5t33 -18.5l32 -8v-27
h-186v27l33 8q27 6 33 18.5t6 61.5zM455 1378v-407q0 -46 7 -58.5t36 -21.5l37 -8v-27h-414v27l35 8q31 9 38 21t7 59v407h-13q-34 0 -55 -41q-50 -84 -74 -153h-18l8 235h555l8 -235h-16q-28 70 -74 153q-24 41 -55 41h-12z" />
    <glyph glyph-name="onethird" unicode="&#x2153;" horiz-adv-x="1794" 
d="M6 604v33l31 8q49 12 60.5 30t11.5 81v452l-97 31v29q152 19 290.5 62t197.5 100l51 -15v-659q0 -63 13 -80t67 -31l31 -8v-33h-656zM184 -102l1237 1564h82l-1237 -1564h-82zM1313 -16q-334 0 -334 174q0 48 35 80t98 32q78 0 107.5 -39t40.5 -139q4 -34 12 -44.5
t24 -10.5q62 0 62 172q0 108 -33 149t-117 41h-57v60h51q73 0 105 38t32 138q0 79 -9.5 109t-29.5 30q-27 0 -34 -61q-10 -77 -38 -111.5t-98 -34.5q-60 0 -92 28t-32 75q0 73 80 116t247 43q381 0 381 -208q0 -138 -262 -172v-7q164 -12 235.5 -57.5t71.5 -138.5
q0 -121 -109.5 -191.5t-336.5 -70.5z" />
    <glyph glyph-name="twothirds" unicode="&#x2154;" horiz-adv-x="1896" 
d="M23 604v180q124 80 210 174q78 86 116 158t38 154q0 110 -39 110q-16 0 -23 -13t-10 -54q-7 -99 -45.5 -145t-111.5 -46q-142 0 -142 119q0 80 94 136.5t255 56.5q421 0 421 -248q0 -51 -28.5 -94.5t-93.5 -85.5t-181 -78.5t-282 -67.5v-6h432q36 0 55.5 19.5t48.5 84.5
h37l-12 -354h-739zM285 -102l1237 1564h82l-1237 -1564h-82zM1415 -16q-334 0 -334 174q0 48 35 80t98 32q78 0 107.5 -39t40.5 -139q4 -33 12.5 -44t24.5 -11q61 0 61 172q0 108 -32.5 149t-116.5 41h-58v60h52q73 0 105 38t32 138q0 79 -9.5 109t-29.5 30q-28 0 -35 -61
q-10 -78 -37.5 -112t-97.5 -34q-60 0 -92.5 28t-32.5 75q0 73 80.5 116t247.5 43q381 0 381 -208q0 -138 -263 -172v-7q164 -12 236 -57.5t72 -138.5q0 -121 -110 -191.5t-337 -70.5z" />
    <glyph glyph-name="oneeighth" unicode="&#x215b;" horiz-adv-x="1794" 
d="M922 160q0 53 50 83t158 42v2q-190 67 -190 256q0 93 58 159t148 96.5t200 30.5q180 0 280 -45.5t100 -117.5q0 -23 -8 -40t-22 -28.5t-38 -20t-49.5 -14t-64.5 -10.5v-4q110 -32 166.5 -95.5t56.5 -168.5q0 -136 -118 -218.5t-324 -82.5q-195 0 -299 49t-104 127zM6 604
v33l31 8q49 12 60.5 30t11.5 81v452l-97 31v29q152 19 290.5 62t197.5 100l51 -15v-659q0 -63 13 -80t67 -31l31 -8v-33h-656zM190 -102l1237 1564h82l-1237 -1564h-82zM1491 121q0 51 -46.5 73.5t-198.5 61.5q-41 10 -64 16q-33 -48 -33 -104q0 -133 190 -133
q72 0 112 23.5t40 62.5zM1202 692q0 -18 6 -32t22.5 -25t31.5 -18.5t48 -15.5t55.5 -13t69.5 -14q30 -6 46 -9q16 37 16 84q0 60 -40 94.5t-120 34.5q-62 0 -98.5 -23.5t-36.5 -62.5z" />
    <glyph glyph-name="threeeighths" unicode="&#x215c;" horiz-adv-x="1841" 
d="M969 160q0 53 50.5 83t158.5 42v2q-191 67 -191 256q0 93 58 159t148 96.5t200 30.5q180 0 280.5 -45.5t100.5 -117.5q0 -29 -11.5 -48.5t-37 -31.5t-55.5 -19t-79 -14v-4q224 -64 224 -264q0 -136 -118.5 -218.5t-324.5 -82.5q-195 0 -299 49t-104 127zM352 588
q-334 0 -334 174q0 48 35.5 80t98.5 32q78 0 107 -38.5t40 -139.5q4 -33 12.5 -44t24.5 -11q61 0 61 172q0 108 -32.5 149.5t-116.5 41.5h-58v59h52q73 0 105 38t32 138q0 79 -9.5 109t-29.5 30q-28 0 -35 -61q-10 -78 -37.5 -112t-97.5 -34q-60 0 -92.5 28t-32.5 75
q0 73 80.5 116.5t247.5 43.5q381 0 381 -209q0 -138 -262 -172v-6q163 -12 235 -58t72 -139q0 -121 -110 -191.5t-337 -70.5zM215 -102l1237 1564h82l-1237 -1564h-82zM1538 121q0 51 -46.5 73.5t-198.5 61.5q-41 10 -64 16q-33 -48 -33 -104q0 -133 190 -133q72 0 112 23.5
t40 62.5zM1249 692q0 -18 6 -32t22.5 -25t31.5 -18.5t48 -15.5t55.5 -13t69.5 -14q30 -6 46 -9q16 37 16 84q0 60 -40 94.5t-120 34.5q-62 0 -98.5 -23.5t-36.5 -62.5z" />
    <glyph glyph-name="fiveeighths" unicode="&#x215d;" horiz-adv-x="1804" 
d="M932 160q0 53 50.5 83t158.5 42v2q-191 67 -191 256q0 93 58 159t148 96.5t200 30.5q180 0 280.5 -45.5t100.5 -117.5q0 -29 -11.5 -48.5t-37 -31.5t-55.5 -19t-79 -14v-4q224 -64 224 -264q0 -136 -118.5 -218.5t-324.5 -82.5q-195 0 -299 49t-104 127zM305 588
q-151 0 -219 38t-68 113q0 46 35.5 74.5t93.5 28.5q118 0 138 -131q7 -41 15.5 -55.5t33.5 -14.5q37 0 57.5 31t20.5 88q0 135 -176 135q-96 0 -158 -25l-19 11l70 538h467q43 0 61 13.5t43 64.5h33l-24 -317h-547l-10 -84q93 22 223 22q201 0 293 -63t92 -189
q0 -124 -113 -201t-342 -77zM180 -102l1237 1564h82l-1237 -1564h-82zM1501 121q0 51 -46.5 73.5t-198.5 61.5q-41 10 -64 16q-33 -48 -33 -104q0 -133 191 -133q72 0 111.5 23.5t39.5 62.5zM1212 692q0 -18 6 -32t22.5 -25t31.5 -18.5t48 -15.5t55.5 -13t69.5 -14
q30 -6 46 -9q16 37 16 84q0 60 -40 94.5t-119 34.5q-62 0 -99 -23.5t-37 -62.5z" />
    <glyph glyph-name="seveneighths" unicode="&#x215e;" horiz-adv-x="1779" 
d="M907 160q0 53 50.5 83t158.5 42v2q-190 67 -190 256q0 93 58 159t147.5 96.5t199.5 30.5q180 0 280.5 -45.5t100.5 -117.5q0 -23 -8 -40t-22 -28.5t-38 -20t-49.5 -14t-64.5 -10.5v-4q110 -32 166.5 -95.5t56.5 -168.5q0 -136 -118 -218.5t-324 -82.5q-195 0 -299.5 49
t-104.5 127zM133 604q26 160 162.5 300.5t361.5 244.5h-438q-67 0 -91 -20t-58 -103h-33l31 393h688v-198q-116 -127 -150 -274.5t-20 -342.5h-453zM123 -102l1237 1564h82l-1237 -1564h-82zM1477 121q0 50 -45.5 72.5t-198.5 61.5q-14 4 -22 6t-20.5 5t-23.5 6
q-32 -46 -32 -104q0 -133 190 -133q72 0 112 23.5t40 62.5zM1188 692q0 -27 12.5 -44.5t51.5 -32t66.5 -20.5t102.5 -21q29 -6 45 -9q17 39 17 84q0 60 -40 94.5t-120 34.5q-62 0 -98.5 -23.5t-36.5 -62.5z" />
    <glyph glyph-name="arrowleft" unicode="&#x2190;" horiz-adv-x="1675" 
d="M1427 512l-694 33l164 -135q101 -84 85 -190q-13 -82 -84 -131q-81 -55 -170 -24q-46 16 -85 54l-586 588v8l588 590q85 83 188 58q80 -20 123 -92q52 -85 10 -174q-23 -46 -69 -85l-164 -135l694 32q129 6 182.5 -96.5t0 -204.5t-182.5 -96z" />
    <glyph glyph-name="arrowright" unicode="&#x2192;" horiz-adv-x="1675" 
d="M942 545l-694 -33q-129 -6 -182.5 96t0 204.5t182.5 96.5l694 -32l-164 135q-101 83 -85 189q12 82 83 132q79 55 168 26q46 -15 86 -54l588 -590v-8l-586 -588q-86 -84 -190 -59q-80 20 -123 91q-52 84 -10 172q21 48 69 87z" />
    <glyph glyph-name="minus" unicode="&#x2212;" horiz-adv-x="995" 
d="M92 674v67h811v-67h-811z" />
    <glyph glyph-name="uni24C5" unicode="&#x24c5;" horiz-adv-x="1601" 
d="M119 705q0 -138 51.5 -262t141 -214.5t217.5 -144t274 -53.5q195 0 351.5 91t242.5 244.5t86 338.5q0 138 -50.5 262t-139 215t-216.5 144.5t-274 53.5t-274 -53.5t-217.5 -144.5t-141 -215t-51.5 -262zM1552 705q0 -151 -56.5 -286.5t-154 -234t-238 -156t-300.5 -57.5
t-300.5 57.5t-239.5 156t-156.5 234t-57.5 286.5t57.5 286.5t156.5 234t239.5 156.5t300.5 58q214 0 386 -98.5t267.5 -266.5t95.5 -370zM903 309h-504v33l21 6q37 11 45 24.5t8 71.5v549q0 58 -8 72t-45 25l-21 6v32h451q221 0 318.5 -64.5t97.5 -195.5q0 -114 -78 -184
t-219 -70q-79 0 -131 17v28q34 5 51.5 20t27 57t9.5 124q0 119 -18.5 166t-65.5 47q-21 0 -39 -6v-623q0 -54 10 -66.5t68 -29.5l22 -6v-33z" />
    <glyph glyph-name="square" unicode="&#x25a0;" horiz-adv-x="1896" 
d="M238 0v1419h1421v-1419h-1421z" />
    <glyph glyph-name="squareopen" unicode="&#x25a1;" horiz-adv-x="1896" 
d="M238 0v1419h1421v-1419h-1421zM332 90h1233v1243h-1233v-1243z" />
    <glyph glyph-name="triangleup" unicode="&#x25b2;" horiz-adv-x="1697" 
d="M1597 0h-1493v29l725 1454h41l727 -1454v-29z" />
    <glyph glyph-name="triangleupopen" unicode="&#x25b3;" horiz-adv-x="1531" 
d="M1454 0h-1493v29l735 1454h21l737 -1454v-29zM1323 86l-618 1223l-615 -1223h1233z" />
    <glyph glyph-name="triangleright" unicode="&#x25b6;" horiz-adv-x="1761" 
d="M238 -37v1493h28l1393 -735v-21l-1393 -737h-28z" />
    <glyph glyph-name="trianglerightopen" unicode="&#x25b7;" horiz-adv-x="1761" 
d="M238 -37v1493h28l1393 -735v-21l-1393 -737h-28zM332 92l1165 619l-1165 618v-1237z" />
    <glyph glyph-name="triangledown" unicode="&#x25bc;" horiz-adv-x="1697" 
d="M102 1419h1493v-28l-725 -1454h-41l-727 1454v28z" />
    <glyph glyph-name="triangledownopen" unicode="&#x25bd;" horiz-adv-x="1531" 
d="M-37 1419h1493v-28l-735 -1454h-21l-737 1454v28zM94 1333l619 -1222l614 1222h-1233z" />
    <glyph glyph-name="triangleleft" unicode="&#x25c0;" horiz-adv-x="1761" 
d="M1524 1456v-1493h-29l-1393 737v21l1393 735h29z" />
    <glyph glyph-name="triangleleftopen" unicode="&#x25c1;" horiz-adv-x="1761" 
d="M1524 1456v-1493h-29l-1393 737v21l1393 735h29zM264 711l1166 -619v1237z" />
    <glyph glyph-name="circle" unicode="&#x25cb;" horiz-adv-x="1650" 
d="M823 -31q-151 0 -288 59t-235.5 158.5t-157 237t-58.5 287.5q0 151 58.5 288t157 235.5t235.5 157t288 58.5q150 0 287.5 -58.5t237.5 -157t159.5 -235.5t59.5 -288q0 -150 -59.5 -287.5t-159 -237t-237.5 -158.5t-288 -59z" />
    <glyph glyph-name="circleopen" unicode="&#x25cf;" horiz-adv-x="1650" 
d="M823 -31q-151 0 -288 59t-235.5 158.5t-157 237t-58.5 287.5q0 151 58.5 288t157 235.5t235.5 157t288 58.5q150 0 287.5 -58.5t237.5 -157t159.5 -235.5t59.5 -288q0 -150 -59.5 -287.5t-159 -237t-237.5 -158.5t-288 -59zM823 55q176 0 325 89t235.5 240t86.5 327
q0 177 -86.5 327.5t-235.5 238t-325 87.5q-133 0 -252.5 -51.5t-205 -139.5t-135.5 -208.5t-50 -253.5q0 -177 84.5 -327.5t233 -239.5t325.5 -89z" />
    <glyph glyph-name="star" unicode="&#x2605;" horiz-adv-x="1703" 
d="M346 -70l-14 9l196 596l-499 356v16h622l193 596h16l195 -596h620v-16l-497 -356l194 -592l-14 -9l-506 361z" />
    <glyph glyph-name="staropen" unicode="&#x2606;" horiz-adv-x="1703" 
d="M346 -70l-14 9l196 596l-499 356v16h622l193 596h16l195 -596h620v-16l-497 -356l194 -592l-14 -9l-506 361zM469 111l385 286l381 -286l-156 454l389 266h-469l-147 453l-147 -453h-467l387 -266z" />
    <glyph glyph-name="space_uni0326" horiz-adv-x="962" 
d="M283 -520l-4 18q213 53 233 203q-31 -31 -84 -31q-61 0 -95 33t-34 88q0 58 45.5 97.5t124.5 39.5q80 0 134 -50.5t54 -127.5q0 -119 -98 -189t-276 -81z" />
    <glyph glyph-name="caron.alt" horiz-adv-x="962" 
d="M358 1130l-18 9l8 284q2 61 36 96t95 35q57 0 93 -33.5t36 -84.5q0 -69 -67 -131z" />
    <glyph glyph-name="space_uni0326.alt" horiz-adv-x="962" 
d="M678 1585l4 -18q-213 -53 -233 -203q31 31 83 31q61 0 95.5 -33t34.5 -88q0 -58 -45.5 -97.5t-124.5 -39.5q-80 0 -134.5 50.5t-54.5 127.5q0 119 98.5 189t276.5 81z" />
    <glyph glyph-name="acute.pl" horiz-adv-x="962" 
d="M475 1145l-16 10l24 293q6 70 45 107.5t103 37.5t116 -44t52 -113q0 -80 -111 -152z" />
    <glyph glyph-name="grave.uc" horiz-adv-x="978" 
d="M723 1499l-8 -18l-371 45q-70 9 -107.5 48t-37.5 97q0 70 43.5 116t111.5 46q71 0 135 -70z" />
    <glyph glyph-name="dieresis.uc" horiz-adv-x="978" 
d="M266 1485q-77 0 -129.5 47t-52.5 129q0 80 52.5 127t129.5 47q79 0 132 -46.5t53 -127.5q0 -82 -52.5 -129t-132.5 -47zM711 1485q-77 0 -130 47t-53 129q0 80 53 127t130 47q79 0 131.5 -46.5t52.5 -127.5q0 -82 -52.5 -129t-131.5 -47z" />
    <glyph glyph-name="macron.uc" horiz-adv-x="978" 
d="M178 1552v142h623v-142h-623z" />
    <glyph glyph-name="acute.uc" horiz-adv-x="978" 
d="M258 1481l-8 18l233 264q64 70 135 70q68 0 112 -46t44 -116q0 -58 -37.5 -97t-107.5 -48z" />
    <glyph glyph-name="circumflex.uc" horiz-adv-x="978" 
d="M154 1483l-11 18l267 311h161l265 -311l-11 -18l-336 92z" />
    <glyph glyph-name="caron.uc" horiz-adv-x="978" 
d="M143 1800l11 19l335 -93l336 93l11 -19l-265 -311h-161z" />
    <glyph glyph-name="breve.uc" horiz-adv-x="978" 
d="M489 1485q-126 0 -208 85t-88 247l14 8q52 -69 116 -94t166 -25t166.5 25t116.5 94l14 -8q-6 -162 -88.5 -247t-208.5 -85z" />
    <glyph glyph-name="dotaccent.uc" horiz-adv-x="378" 
d="M193 1481q-104 0 -168 56.5t-64 150.5q0 90 64 146t168 56q105 0 167 -56t62 -146q0 -94 -62 -150.5t-167 -56.5z" />
    <glyph glyph-name="ring.uc" horiz-adv-x="978" 
d="M295 1655q0 80 57.5 133t136.5 53t137 -53t58 -133t-58 -133.5t-137 -53.5q-78 0 -136 53.5t-58 133.5zM373 1655q0 -57 31 -93t85 -36t85.5 36t31.5 93t-31.5 93t-85.5 36t-85 -36t-31 -93z" />
    <glyph glyph-name="tilde.uc" horiz-adv-x="978" 
d="M358 1796q42 0 163 -19.5t167 -19.5q42 0 71.5 17.5t57.5 62.5l19 -12q-21 -67 -34.5 -104t-33.5 -81t-39 -65t-46.5 -36t-61.5 -15q-41 0 -162.5 18.5t-167.5 18.5q-41 0 -69 -17t-56 -63l-23 12q21 67 34 104t33.5 81.5t39.5 66t46.5 36.5t61.5 15z" />
    <glyph glyph-name="hungarumlaut.uc" horiz-adv-x="978" 
d="M594 1481l-12 14l77 240q23 64 56 92t80 28q61 0 104 -42t43 -107q0 -96 -131 -143zM252 1481l-12 14l77 240q23 64 56 92t80 28q61 0 104 -42t43 -107q0 -96 -131 -143z" />
    <glyph glyph-name="acute.ucpl" horiz-adv-x="962" 
d="M315 1481l-12 10l47 260q27 150 154 150q61 0 111.5 -47t50.5 -109q0 -100 -99 -146z" />
    <glyph glyph-name="Cacute.pl" horiz-adv-x="1404" 
d="M827 -25q-380 0 -589 189.5t-209 533.5q0 150 42.5 273.5t118 210.5t181.5 146.5t230.5 87.5t266.5 28q246 0 404 -47l43 -494h-31q-123 208 -242 361q-55 71 -92 98t-80 27q-72 0 -113.5 -59.5t-61 -200.5t-19.5 -390q0 -273 26 -431.5t71.5 -217.5t119.5 -59
q59 0 102 34t99 113q71 98 206 359h31l-28 -484q-206 -78 -476 -78zM733 1481l-12 10l47 260q27 150 154 150q61 0 111 -47t50 -109q0 -101 -98 -146z" />
    <glyph glyph-name="Nacute.pl" horiz-adv-x="1404" 
d="M1391 1419v-33l-29 -10q-40 -15 -55.5 -29.5t-22 -45.5t-6.5 -101v-1200h-342l-737 1053h-9v-834q0 -55 2 -81t13.5 -45.5t27.5 -27.5t52 -18l51 -14v-33h-322v33l27 10q58 23 69 48t11 128v981q0 73 -5 101.5t-19.5 44t-55.5 30.5l-27 10v33h688l498 -698h8v491
q0 91 -16 115.5t-88 46.5l-41 12v33h328zM657 1481l-12 10l47 260q27 150 154 150q61 0 111.5 -47t50.5 -109q0 -100 -99 -146z" />
    <glyph glyph-name="Oacute.pl" horiz-adv-x="1605" 
d="M764 1481l-12 10l47 260q27 150 153 150q61 0 111.5 -47t50.5 -109q0 -101 -98 -146zM799 -25q-109 0 -215.5 25t-207.5 81.5t-177.5 138t-123 203.5t-46.5 269q0 114 26 213.5t71 175t107 137t131.5 103t146 70t150 41t144.5 12.5q112 0 216.5 -21.5t207.5 -74
t178.5 -131.5t122.5 -205t47 -283q0 -159 -50.5 -290t-130.5 -215t-184.5 -142t-208 -82.5t-204.5 -24.5zM803 31q51 0 77 54t38 191t12 402q0 233 -5.5 369.5t-21.5 214.5t-38.5 102.5t-61.5 24.5t-61.5 -25t-38.5 -97.5t-21.5 -195.5t-5.5 -328q0 -228 5.5 -363.5
t21.5 -215t38.5 -106.5t61.5 -27z" />
    <glyph glyph-name="Sacute.pl" horiz-adv-x="1200" 
d="M524 -25q-262 0 -448 70l-31 447h31q116 -192 198 -293q76 -94 137.5 -131t131.5 -37q92 0 147 46.5t55 121.5q0 85 -71 142.5t-242 121.5q-120 45 -199.5 95t-125 111.5t-64 128.5t-18.5 156q0 217 166 353.5t456 136.5q239 0 416 -68l18 -407h-30q-94 151 -203 284
q-62 76 -113.5 106t-109.5 30q-80 0 -132.5 -42.5t-52.5 -115.5q0 -75 68 -122t250 -110q232 -82 327 -198t95 -293q0 -152 -81 -273t-231 -190.5t-344 -69.5zM522 1481l-12 10l47 260q27 150 154 150q61 0 111 -47t50 -109q0 -101 -98 -146z" />
    <glyph glyph-name="Zacute.pl" horiz-adv-x="1423" 
d="M670 1481l-13 10l48 260q27 150 153 150q61 0 111.5 -47t50.5 -109q0 -101 -98 -146zM29 0v72l647 1278v6h-55q-83 0 -132.5 -13.5t-78.5 -38t-68 -77.5q-100 -140 -225 -371h-29l39 563h1235v-71l-645 -1276v-9h26q128 0 190.5 12.5t103 44t96.5 109.5q82 113 210 363
h31l-51 -592h-1294z" />
    <glyph glyph-name="cacute.pl" horiz-adv-x="1161" 
d="M625 -25q-283 0 -439.5 147t-156.5 404q0 182 93 315.5t250 200t357 66.5q208 0 318 -69.5t110 -174.5q0 -90 -51.5 -138t-147.5 -48q-112 0 -167 58t-76 218q-7 59 -20 76t-42 17q-13 0 -22.5 -6t-21.5 -30t-19.5 -66t-13 -121t-5.5 -187q0 -239 74 -343t244 -104
q58 0 126.5 15t119.5 41v-31q-71 -107 -207.5 -173.5t-302.5 -66.5zM545 1145l-17 10l25 293q6 70 44.5 107.5t102.5 37.5t116 -44t52 -113q0 -80 -110 -152z" />
    <glyph glyph-name="idotaccent" horiz-adv-x="710" 
d="M350 1141q-110 0 -177 61t-67 162q0 99 67 160t177 61q111 0 176.5 -61t65.5 -160q0 -102 -65 -162.5t-177 -60.5zM-20 1042l632 66l15 -12q-9 -129 -9 -273v-657q0 -68 14 -86t87 -43l12 -4v-33h-751v33l6 2q44 15 60.5 21.5t30 22t14.5 32t1 55.5v659q0 83 -10 104.5
t-70 65.5l-32 25v22z" />
    <glyph glyph-name="nacute.pl" horiz-adv-x="1406" 
d="M676 1145l-17 10l25 293q6 70 44.5 107.5t102.5 37.5t116 -44t52 -113q0 -80 -110 -152zM688 0h-708v33l6 2q44 15 60.5 21.5t30 22t14.5 32t1 55.5v659q0 82 -10 104t-70 66l-32 25v22l616 66l16 -12l-2 -162h4q208 174 410 174q129 0 210 -74t81 -200v-668
q0 -69 14.5 -87.5t85.5 -41.5l12 -4v-33h-710v33l12 4q37 12 48 32t11 81v602q0 74 -26.5 105.5t-83.5 31.5q-32 0 -60 -8v-731q0 -63 10.5 -83.5t45.5 -29.5l14 -4v-33z" />
    <glyph glyph-name="oacute.pl" horiz-adv-x="1316" 
d="M659 -25q-125 0 -236.5 35t-200.5 102t-141 176.5t-52 248.5q0 103 25.5 189t71 147.5t104.5 107.5t131 73.5t146 40.5t152 13q95 0 184.5 -21t170.5 -66.5t141.5 -110.5t96.5 -159t36 -206q0 -123 -36 -221.5t-95.5 -162.5t-142 -107t-170.5 -61t-185 -18zM567 559
q0 -231 10.5 -345t29.5 -147.5t57 -33.5q34 0 51.5 32t27 139t9.5 320q0 232 -10 345.5t-29 147.5t-58 34q-24 0 -39 -16.5t-27 -67t-17 -149.5t-5 -259zM616 1145l-16 10l25 293q6 70 44.5 107.5t102.5 37.5t116 -44t52 -113q0 -80 -111 -152z" />
    <glyph glyph-name="sacute.pl" horiz-adv-x="1009" 
d="M578 152q0 51 -40.5 85.5t-146.5 65.5q-107 31 -178.5 72.5t-110 96t-54 113.5t-15.5 138q0 174 133.5 279.5t394.5 105.5q171 0 320 -41l18 -307h-22q-67 85 -154 176q-63 66 -105 89.5t-96 23.5q-55 0 -87 -30.5t-32 -76.5q0 -50 42 -82.5t157 -68.5
q209 -68 293 -157.5t84 -238.5q0 -193 -140 -306.5t-417 -113.5q-220 0 -367 39l-16 348h22q86 -120 187 -221q57 -60 105.5 -83t101.5 -23q123 0 123 117zM459 1145l-17 10l25 293q6 70 44.5 107.5t102.5 37.5t116 -44t52 -113q0 -80 -110 -152z" />
    <glyph glyph-name="zacute.pl" horiz-adv-x="1165" 
d="M545 1145l-17 10l25 293q6 70 44.5 107.5t102.5 37.5t116 -44t52 -113q0 -80 -110 -152zM31 0v88l510 922v8h-47q-89 0 -130 -22.5t-112 -106.5q-55 -66 -168 -223h-27l35 417h1008v-84l-502 -923v-8h49q76 0 125 14.5t78 37.5t72 73q90 108 174 239h28l-55 -432h-1038z
" />
    <glyph glyph-name="f_f_t" horiz-adv-x="2332" 
d="M1339 952v-786q0 -69 16 -86.5t101 -42.5l14 -4v-33h-1488v33l6 2q33 12 45.5 16t29 13.5t20 14.5t8.5 20t5 27v40v786h-129v25l129 96v29q0 98 33.5 176.5t102 137t179.5 90.5t259 32q226 0 321 -65q143 92 395 92q194 0 292 -53.5t98 -149.5q0 -73 -46.5 -112.5
t-132.5 -39.5q-96 0 -139 49.5t-49 170.5q-3 46 -12 60.5t-25 14.5q-11 0 -16.5 -5t-10 -26.5t-5.5 -61t-1 -112.5v-217h160q133 19 246.5 93t189.5 200h121v-293h240l-12 -131h-228v-641q0 -97 23.5 -126t109.5 -29q61 0 115 14v-29q-57 -72 -174 -119t-240 -47
q-198 0 -279 79.5t-81 262.5v635h-191zM623 952v-786q0 -55 4.5 -77t17 -32t45.5 -20l10 -4l5 2q33 12 45.5 16t29 13.5t20 14.5t8.5 20t5 27v40v786h-190zM623 1274v-191h190v136q-33 20 -49 61.5t-25 122.5q-6 48 -17.5 62t-37.5 14q-24 0 -36 -14t-18.5 -58t-6.5 -133z
" />
    <glyph glyph-name="f_t" horiz-adv-x="1615" 
d="M1174 -25q-198 0 -279.5 79.5t-81.5 262.5v635h-190v-786q0 -69 15.5 -86.5t100.5 -42.5l15 -4v-33h-772v33l6 2q33 12 45.5 16t29 13.5t20 14.5t8.5 20t5 27v40v786h-129v25l129 96v55q0 202 142 319.5t432 117.5q194 0 291.5 -53.5t97.5 -149.5q0 -74 -46 -113
t-132 -39q-96 0 -139.5 50t-49.5 170q-3 46 -12 60.5t-25 14.5q-11 0 -16.5 -5t-9.5 -27t-5 -60.5t-1 -112.5v-217h159q133 19 247 93.5t190 199.5h120v-293h240l-12 -131h-228v-641q0 -97 24 -126t110 -29q60 0 114 14v-29q-57 -72 -173.5 -119t-239.5 -47z" />
    <glyph glyph-name="dollar.old" horiz-adv-x="1165" 
d="M567 -186h-53v161q-135 1 -233.5 22t-154.5 57.5t-82 80.5t-26 98q0 76 47 119t136 43q91 0 141 -57t70 -197q9 -52 32.5 -78t69.5 -32v370l-51 19q-174 62 -268.5 129.5t-132 153.5t-37.5 217q0 193 143.5 320.5t382.5 137.5v138h51v-136q239 -1 363.5 -68t124.5 -173
q0 -70 -46.5 -109t-132.5 -39q-106 0 -154 55.5t-69 190.5q-13 82 -86 88v-321q34 -15 92 -35q257 -95 353 -201.5t96 -292.5q0 -102 -38.5 -190.5t-110.5 -155t-182 -107t-245 -45.5v-163zM731 203q0 59 -39 99.5t-125 76.5v-350q81 4 122.5 50t41.5 124zM403 1184
q0 -53 33.5 -88.5t114.5 -71.5v301q-64 -5 -106 -40.5t-42 -100.5z" />
    <glyph glyph-name="Euro.old" horiz-adv-x="1325" 
d="M-2 731v62h108q18 119 70.5 217.5t127 166t168.5 113.5t194 67t206 21q204 0 313 -67t109 -172q0 -81 -45 -127.5t-127 -46.5q-105 0 -154 59.5t-77 218.5q-12 72 -70 72q-29 0 -50.5 -23.5t-39.5 -79.5t-28 -161t-11 -258h348l-12 -62h-336v-10q0 -76 2 -111h305
l-12 -61h-289q10 -111 35.5 -183.5t71 -113.5t104.5 -57.5t146 -16.5q45 0 113 18t116 50v-41q-156 -232 -518 -232q-283 0 -459.5 144t-206.5 432h-102v61h98v47q0 49 2 74h-100z" />
    <glyph glyph-name="sterling.old" horiz-adv-x="1247" 
d="M2 688v62h100q-57 136 -57 221q0 89 34 160t108 128t203.5 88t307.5 31q502 0 502 -245q0 -87 -49 -136t-137 -49q-106 0 -158.5 60t-77.5 213q-10 57 -22.5 79.5t-40.5 22.5q-68 0 -68 -203q0 -53 12.5 -184t14.5 -186h254v-62h-256q-6 -147 -99.5 -231.5t-308.5 -126.5
v-6h731q64 0 94.5 34t55.5 129h31l-29 -487h-1124v229q103 58 140.5 108.5t37.5 127.5q0 29 -12.5 72t-22 66.5t-35.5 84.5h-129z" />
    <glyph glyph-name="yen.old" horiz-adv-x="1345" 
d="M106 625v59h265l-260 463q-55 95 -70.5 116.5t-42.5 39.5l-18 12v33h927v-33l-41 -12q-116 -35 -116 -101q0 -34 34 -104l162 -330h6l138 295q47 106 47 149q0 33 -22.5 52.5t-82.5 38.5l-39 12v33h367v-33l-8 -4q-45 -21 -79 -66.5t-81 -142.5l-203 -414v-4h271v-59
h-271v-125h271v-62h-271v-227q0 -89 22.5 -119.5t106.5 -50.5l31 -8v-33h-932v33l31 8q89 23 109 49.5t20 120.5v227h-271v62h271v125h-271z" />
    <glyph glyph-name="zero.old" horiz-adv-x="1468" 
d="M725 -25q-121 0 -225.5 23.5t-190.5 73t-147.5 122t-95 173.5t-33.5 223q0 203 89.5 349.5t248 220t368.5 73.5q150 0 276 -38.5t220.5 -113.5t147.5 -194.5t53 -272.5q0 -157 -56.5 -280.5t-154.5 -201t-225.5 -117.5t-274.5 -40zM733 31q43 0 66 48.5t33 167.5t10 345
q0 191 -5 303.5t-18.5 177t-32.5 85t-53 20.5q-33 0 -52.5 -23.5t-32 -89.5t-17 -171.5t-4.5 -281.5q0 -184 4.5 -293t17 -175.5t32 -89.5t52.5 -23z" />
    <glyph glyph-name="one.old" horiz-adv-x="825" 
d="M817 0h-809v33l10 2q72 14 91.5 36.5t19.5 94.5v762l-121 33v36q210 26 352 78t306 162l30 -23v-1048q0 -72 19.5 -94.5t91.5 -36.5l10 -2v-33z" />
    <glyph glyph-name="two.old" horiz-adv-x="1171" 
d="M1139 340l-31 -340h-1073v236q161 98 268 194q157 140 223 268t66 295q0 181 -76 181q-27 0 -37.5 -22t-13.5 -77q-10 -159 -66.5 -232t-165.5 -73q-100 0 -153 50t-53 149q0 121 124.5 192.5t385.5 71.5q289 0 443.5 -94t154.5 -258q0 -67 -14.5 -117.5t-53.5 -97
t-95 -83.5t-151.5 -76.5t-210.5 -76t-282 -82.5v-8h811z" />
    <glyph glyph-name="three.old" horiz-adv-x="1257" 
d="M530 1174q-28 0 -42 -22.5t-19 -72.5q-15 -160 -70 -225.5t-163 -65.5q-98 0 -150.5 47.5t-52.5 135.5q0 52 29 97.5t89 83t164.5 59.5t243.5 22q322 0 476.5 -94t154.5 -265q0 -126 -90.5 -205.5t-274.5 -119.5v-6q200 -15 300 -106t100 -242q0 -212 -173 -330.5
t-532 -118.5q-512 0 -512 262q0 73 51.5 125.5t137.5 52.5q109 0 166.5 -65t74.5 -213q7 -61 19.5 -83t38.5 -22q50 0 74 82.5t24 286.5q0 171 -41.5 243t-161.5 72h-74v64h68q124 0 173.5 66.5t49.5 246.5q0 131 -9 199.5t-24.5 89.5t-44.5 21z" />
    <glyph glyph-name="four.old" horiz-adv-x="1335" 
d="M571 -229v323h-557v113l713 1001h403v-958h183l-17 -156h-166v-323h-559zM137 250h434v602h-6l-428 -596v-6z" />
    <glyph glyph-name="five.old" horiz-adv-x="1187" 
d="M1120 1208l-37 -374h-864l-18 -160q151 45 338 45q616 0 616 -473q0 -103 -44.5 -193.5t-126.5 -159t-208.5 -108t-281.5 -39.5q-245 0 -365.5 66.5t-120.5 187.5q0 81 49.5 128.5t141.5 47.5q109 0 163.5 -60t73.5 -204q9 -64 27.5 -86.5t56.5 -22.5q56 0 97.5 64
t41.5 174q0 142 -82.5 207t-246.5 65q-138 0 -219 -32l-23 16l107 911h925z" />
    <glyph glyph-name="six.old" horiz-adv-x="1404" 
d="M702 -25q-151 0 -272.5 43t-210.5 127.5t-137.5 218.5t-48.5 308t45 313t137 243t242.5 160t351.5 56q268 0 396 -71t128 -187q0 -91 -53 -140t-145 -49q-120 0 -182 65.5t-91 233.5q-8 51 -27.5 72t-60.5 21q-150 0 -153 -613q58 31 136 50.5t152 19.5q231 0 349 -102.5
t118 -299.5q0 -219 -174 -344t-500 -125zM725 31q64 0 87.5 92.5t23.5 314.5q0 163 -35 227t-113 64q-43 0 -70 -12v-131q0 -223 11 -343t33 -166t63 -46z" />
    <glyph glyph-name="seven.old" horiz-adv-x="1173" 
d="M201 -229q57 319 260 581.5t532 440.5h-698q-42 0 -63.5 -4t-45 -21.5t-42 -51t-44.5 -95.5h-39l37 587h1063v-305q-106 -132 -175 -267t-101 -270.5t-41.5 -285t2.5 -309.5h-645z" />
    <glyph glyph-name="eight.old" horiz-adv-x="1308" 
d="M20 268q0 107 80 171.5t283 95.5v2q-108 50 -176 104.5t-109 138t-41 193.5q0 139 83 248t218 166t295 57q268 0 421 -76.5t153 -208.5q0 -105 -83.5 -158.5t-234.5 -74.5v-6q88 -36 151.5 -75t114 -92t76 -123.5t25.5 -158.5q0 -104 -42 -193.5t-122.5 -157
t-207.5 -106.5t-286 -39q-296 0 -447 79.5t-151 213.5zM866 217q0 30 -11 56.5t-36.5 50t-50.5 41t-70 38.5t-76 34.5t-88.5 36t-89.5 36.5q-49 -88 -49 -209q0 -270 244 -270q113 0 170 48t57 138zM444 1217q0 -45 24 -81t88.5 -70.5t104.5 -51t143 -54.5q14 -5 21 -8
q29 92 29 197q0 119 -58 179.5t-163 60.5q-95 0 -142 -46t-47 -126z" />
    <glyph glyph-name="nine.old" horiz-adv-x="1411" 
d="M676 1231q338 0 520 -173t182 -526q0 -386 -202 -586t-603 -200q-243 0 -362 68.5t-119 189.5q0 81 49.5 130.5t141.5 49.5q114 0 173 -63.5t87 -235.5q8 -46 27 -65t59 -19q55 0 88.5 54.5t52.5 190.5t21 370q-43 -28 -127.5 -46t-163.5 -18q-226 0 -348.5 114.5
t-122.5 313.5q0 80 23.5 147.5t74.5 124t126 96t182.5 61.5t240.5 22zM676 1176q-63 0 -83 -92.5t-20 -311.5q0 -161 34.5 -234t107.5 -73q48 0 78 18v127q0 234 -10.5 353t-34.5 166t-72 47z" />
    </font>
</defs>
</svg>
