<?xml version="1.0" standalone="no"?>
<!DOCTYPE svg PUBLIC "-//W3C//DTD SVG 1.1//EN" "http://www.w3.org/Graphics/SVG/1.1/DTD/svg11.dtd" >
<svg xmlns="http://www.w3.org/2000/svg" xmlns:xlink="http://www.w3.org/1999/xlink" version="1.1">
<metadata>
Created by FontForge 20170731 at Mon Apr 26 17:07:20 2021
 By Aleksey,,,
(c)2012 Paul Barnes, Christian Schwartz, and Ross Milne, under exclusive license to Schwartzco Inc./Commercial Type. All rights reserved.
</metadata>
<defs>
<font id="PublicoBanner-BlackItalic" horiz-adv-x="921" >
  <font-face 
    font-family="Publico Banner Black"
    font-weight="850"
    font-style="italic"
    font-stretch="normal"
    units-per-em="2048"
    panose-1="2 4 10 2 6 5 4 6 2 3"
    ascent="1645"
    descent="-403"
    x-height="1100"
    cap-height="1419"
    bbox="-428 -518 2509 2202"
    underline-thickness="145"
    underline-position="-302"
    slope="-10"
    unicode-range="U+0020-FB04"
  />
<missing-glyph horiz-adv-x="1024" 
 />
    <glyph glyph-name="f_f" unicode="ff" horiz-adv-x="1359" 
d="M-115 -418q-118 0 -181.5 41t-63.5 115q0 54 34.5 90.5t96.5 36.5q66 0 100 -36t51 -132q7 -53 31 -53q28 0 42 57.5t50 296.5l145 969h-139l6 26l152 84l2 15q21 145 103 248.5t200 152.5t260 49q209 0 289 -74q150 95 338 95q156 0 242 -49.5t86 -129.5q0 -69 -37 -103
t-103 -34q-75 0 -112 40.5t-52 148.5q-2 17 -3.5 25t-6.5 21t-14 19t-23 6q-26 0 -44.5 -29t-37 -104t-43.5 -223l-12 -74h211l-33 -110h-196l-107 -635q-29 -174 -92 -312.5t-148 -228t-187.5 -137t-215.5 -47.5q-217 0 -252 117q-148 -142 -336 -142zM674 23l141 944h-217
l-111 -660q-42 -240 -133 -407h4q67 0 101 -39.5t51 -139.5q7 -53 39 -53q71 0 125 355zM838 1106q12 76 39 141q-61 37 -78 168q-2 17 -3.5 25t-6.5 21.5t-14 19.5t-23 6q-27 0 -45 -26.5t-36.5 -100.5t-43.5 -221l-11 -62h218z" />
    <glyph glyph-name="f_i" unicode="fi" horiz-adv-x="1280" 
d="M705 352l106 441q25 98 25 125q0 29 -13.5 39t-50.5 10h-174l-111 -660q-59 -348 -220.5 -536.5t-381.5 -188.5q-118 0 -181.5 41t-63.5 115q0 54 34.5 90.5t96.5 36.5q66 0 100 -36t51 -132q7 -53 31 -53q28 0 42 57.5t50 296.5l145 969h-139l6 26l152 84l2 15
q32 222 201.5 346.5t427.5 124.5q172 0 269 -51.5t97 -149.5q0 -73 -45.5 -112.5t-128.5 -39.5q-91 0 -132.5 54t-59.5 172q-11 71 -56 71q-95 0 -157 -368l-11 -68h465q98 0 135 -29.5t37 -91.5q0 -67 -43 -229l-116 -465q-7 -31 -7 -49q0 -41 32 -43t73 26l39 25l24 -31
q-83 -92 -197.5 -151.5t-213.5 -59.5q-89 0 -132.5 43.5t-43.5 120.5q0 66 37 215z" />
    <glyph glyph-name="f_l" unicode="fl" horiz-adv-x="1292" 
d="M1348 1550l18 -14q-30 -107 -57 -244l-203 -1036q-6 -27 -6 -49q0 -20 10.5 -29t28.5 -6.5t38 11t42 22.5l34 22l25 -30q-102 -107 -212 -165.5t-206 -58.5q-176 0 -176 156q0 17 1.5 33.5t5 39t6 39t9.5 52.5t11 59l170 891q-36 15 -57 55.5t-31 116.5q-2 17 -3.5 25
t-6.5 21.5t-14 19.5t-23 6q-27 0 -45 -26.5t-36.5 -100.5t-43.5 -221l-11 -62h150l-33 -110h-135l-111 -660q-59 -348 -220.5 -536.5t-381.5 -188.5q-118 0 -181.5 41t-63.5 115q0 54 34.5 90.5t96.5 36.5q66 0 100 -36t51 -132q7 -53 31 -53q28 0 42 57.5t50 296.5l145 969
h-139l6 26l152 84l2 15q21 145 103 248.5t200 152.5t260 49q259 0 320 -110z" />
    <glyph glyph-name="f_f_i" unicode="ffi" horiz-adv-x="1904" 
d="M1227 967l-107 -635q-29 -174 -92 -312.5t-148 -228t-187.5 -137t-215.5 -47.5q-222 0 -252 121q-149 -146 -340 -146q-118 0 -181.5 41t-63.5 115q0 54 34.5 90.5t96.5 36.5q66 0 100 -36t51 -132q7 -53 31 -53q28 0 42 57.5t50 296.5l145 969h-139l6 26l152 84l2 15
q21 145 103 248.5t200 152.5t260 49q223 0 299 -82q162 103 395 103q172 0 269.5 -51.5t97.5 -149.5q0 -73 -45.5 -112.5t-128.5 -39.5q-91 0 -133 54t-60 172q-11 71 -55 71q-96 0 -158 -368l-10 -68h461q98 0 135 -29.5t37 -91.5q0 -67 -43 -229l-117 -465q-6 -27 -6 -49
q0 -41 32 -43t73 26l38 25l25 -31q-83 -92 -198 -151.5t-214 -59.5q-89 0 -132.5 43.5t-43.5 120.5q0 66 37 215l107 441q24 94 24 125q0 29 -13 39t-50 10h-170zM487 307q-42 -240 -133 -407h8q67 0 101 -39.5t51 -139.5q7 -53 39 -53q71 0 125 355l143 944h-223zM627 1139
l-11 -62h222l2 15q13 87 45 153q-69 31 -86 170q-2 17 -3.5 25t-6.5 21.5t-14 19.5t-23 6q-27 0 -45 -26.5t-36.5 -100.5t-43.5 -221z" />
    <glyph glyph-name="f_f_l" unicode="ffl" horiz-adv-x="1918" 
d="M1974 1550l19 -14q-31 -107 -58 -244l-202 -1036q-7 -31 -7 -49q0 -20 10.5 -29t28.5 -6.5t38 11t42 22.5l35 22l25 -30q-102 -107 -212 -165.5t-206 -58.5q-176 0 -176 156q0 45 32 223l170 891q-36 15 -57 55.5t-31 116.5q-2 17 -3.5 25t-6.5 21.5t-14 19.5t-23 6
q-27 0 -45 -26.5t-36.5 -100.5t-43.5 -221l-10 -62h150l-33 -110h-135l-107 -635q-29 -174 -92 -312.5t-148 -228t-187.5 -137t-215.5 -47.5q-105 0 -171 30t-81 89q-150 -144 -338 -144q-118 0 -181.5 41t-63.5 115q0 54 34.5 90.5t96.5 36.5q66 0 100 -36t51 -132
q7 -53 31 -53q28 0 42 57.5t50 296.5l145 969h-139l6 26l152 84l2 15q21 145 103 248.5t200 152.5t260 49q223 0 301 -84q141 84 326 84q258 0 319 -110zM676 23l143 944h-221l-111 -660q-42 -240 -133 -407h6q67 0 101 -39.5t51 -139.5q7 -53 39 -53q71 0 125 355z
M627 1139l-11 -62h220l2 15q11 76 45 153q-68 36 -84 170q-2 17 -3.5 25t-6.5 21.5t-14 19.5t-23 6q-27 0 -45 -26.5t-36.5 -100.5t-43.5 -221z" />
    <glyph glyph-name="f_b" unicode="fb" horiz-adv-x="1873" 
d="M1346 1550l18 -14q-30 -109 -57 -244l-50 -262q-12 -72 -51 -201h8q189 271 383 271q122 0 193.5 -87.5t71.5 -248.5q0 -173 -56.5 -321.5t-154.5 -251t-233 -160.5t-288 -58q-286 0 -456 156v18l215 1096q-71 30 -90 172q-2 17 -3.5 25t-6.5 21.5t-14 19.5t-23 6
q-27 0 -45 -26.5t-36.5 -100.5t-43.5 -221l-11 -62h150l-33 -110h-135l-111 -660q-59 -348 -220.5 -536.5t-381.5 -188.5q-118 0 -181.5 41t-63.5 115q0 54 34.5 90.5t96.5 36.5q66 0 100 -36t51 -132q7 -53 31 -53q28 0 42 57.5t50 296.5l145 969h-139l6 26l152 84l2 15
q21 145 103 248.5t200 152.5t260 49q259 0 320 -110zM1167 27q56 0 108 73.5t86 182.5t54.5 232t20.5 226q0 133 -76 133q-33 0 -79 -41.5t-79 -99.5l-125 -649q9 -26 33.5 -41.5t56.5 -15.5z" />
    <glyph glyph-name="f_f_b" unicode="ffb" horiz-adv-x="2498" 
d="M1970 1550l19 -14q-31 -109 -58 -244l-49 -262q-12 -72 -51 -201h8q189 271 383 271q122 0 193 -87.5t71 -248.5q0 -173 -56.5 -321.5t-154.5 -251t-232.5 -160.5t-287.5 -58q-287 0 -457 156v18l215 1096q-71 30 -90 172q-2 17 -3.5 25t-6.5 21.5t-14 19.5t-23 6
q-27 0 -45 -26.5t-36.5 -100.5t-43.5 -221l-10 -62h150l-33 -110h-135l-107 -635q-29 -174 -92 -312.5t-148 -228t-187.5 -137t-215.5 -47.5q-217 0 -252 117q-148 -142 -336 -142q-118 0 -181.5 41t-63.5 115q0 54 34.5 90.5t96.5 36.5q66 0 100 -36t51 -132q7 -53 31 -53
q28 0 42 57.5t50 296.5l145 969h-139l6 26l152 84l2 15q21 145 103 248.5t200 152.5t260 49q221 0 299 -84q144 84 326 84q258 0 319 -110zM674 23l143 944h-219l-111 -660q-42 -240 -133 -407h4q67 0 101 -39.5t51 -139.5q7 -53 39 -53q71 0 125 355zM1792 27
q56 0 108 73.5t86 183t54 232t20 225.5q0 133 -75 133q-33 0 -79 -41.5t-79 -99.5l-125 -649q9 -26 33.5 -41.5t56.5 -15.5zM627 1139l-11 -62h218l2 15q12 88 45 155q-65 35 -82 168q-2 17 -3.5 25t-6.5 21.5t-14 19.5t-23 6q-27 0 -45 -26.5t-36.5 -100.5t-43.5 -221z" />
    <glyph glyph-name="f_f_h" unicode="ffh" horiz-adv-x="2510" 
d="M1970 1550l19 -14q-31 -107 -58 -244l-49 -262q-16 -83 -55 -213h8q35 51 77 96t97 89.5t123 71t137 26.5q90 0 142.5 -54t52.5 -155q0 -49 -19 -146l-108 -489q-6 -27 -6 -49q0 -36 23 -42t69 21l45 27l22 -31q-90 -94 -203 -151.5t-212 -57.5q-84 0 -122 40.5
t-38 105.5q0 47 27 184l81 395q14 65 14 102.5t-10 50.5t-30 13q-36 0 -83.5 -39t-80.5 -94l-160 -731h-403l243 1243q-71 30 -90 172q-2 17 -3.5 25t-6.5 21.5t-14 19.5t-23 6q-27 0 -45 -26.5t-36.5 -100.5t-43.5 -221l-10 -62h150l-33 -110h-135l-107 -635
q-29 -174 -92 -312.5t-148 -228t-187.5 -137t-215.5 -47.5q-217 0 -252 117q-148 -142 -336 -142q-118 0 -181.5 41t-63.5 115q0 54 34.5 90.5t96.5 36.5q66 0 100 -36t51 -132q7 -53 31 -53q28 0 42 57.5t50 296.5l145 969h-139l6 26l152 84l2 15q21 145 103 248.5
t200 152.5t260 49q221 0 299 -84q144 84 326 84q258 0 319 -110zM674 23l143 944h-219l-111 -660q-42 -240 -133 -407h4q67 0 101 -39.5t51 -139.5q7 -53 39 -53q71 0 125 355zM627 1139l-11 -62h218l2 15q12 88 45 155q-65 35 -82 168q-2 17 -3.5 25t-6.5 21.5t-14 19.5
t-23 6q-27 0 -45 -26.5t-36.5 -100.5t-43.5 -221z" />
    <glyph glyph-name="f_f_j" unicode="ffj" horiz-adv-x="1892" 
d="M1704 1071q98 0 135 -29.5t37 -91.5q0 -47 -41 -229l-102 -469q-37 -171 -102 -297.5t-150 -201.5t-181.5 -110.5t-207.5 -35.5q-118 0 -185 36.5t-71 108.5q-164 -145 -363 -145q-217 0 -252 117q-148 -142 -336 -142q-118 0 -181.5 41t-63.5 115q0 54 34.5 90.5
t96.5 36.5q66 0 100 -36t51 -132q7 -53 31 -53q28 0 42 57.5t50 296.5l145 969h-139l6 26l152 84l2 15q21 145 103 248.5t200 152.5t260 49q221 0 297 -82q158 103 393 103q172 0 269.5 -51.5t97.5 -149.5q0 -73 -45.5 -112.5t-128.5 -39.5q-91 0 -133 54t-60 172
q-11 71 -55 71q-96 0 -158 -368l-10 -68h463zM1116 332q-47 -265 -158 -432h19q67 0 100.5 -39.5t50.5 -139.5q7 -53 39 -53q18 0 35 26t40.5 107.5t49.5 221.5l144 770q20 110 20 125q0 29 -13 39t-50 10h-170zM487 307q-42 -240 -133 -407h4q67 0 101 -39.5t51 -139.5
q7 -53 39 -53q71 0 125 355l143 944h-219zM627 1139l-11 -62h218l2 15q10 72 45 153q-65 35 -82 170q-2 17 -3.5 25t-6.5 21.5t-14 19.5t-23 6q-27 0 -45 -26.5t-36.5 -100.5t-43.5 -221z" />
    <glyph glyph-name="f_f_k" unicode="ffk" horiz-adv-x="2467" 
d="M1970 1550l19 -14q-31 -107 -58 -244l-252 -1292h-409l243 1243q-71 30 -90 172q-2 17 -3.5 25t-6.5 21.5t-14 19.5t-23 6q-27 0 -45 -26.5t-36.5 -100.5t-43.5 -221l-10 -62h150l-33 -110h-135l-107 -635q-29 -174 -92 -312.5t-148 -228t-187.5 -137t-215.5 -47.5
q-217 0 -252 117q-148 -142 -336 -142q-118 0 -181.5 41t-63.5 115q0 54 34.5 90.5t96.5 36.5q66 0 100 -36t51 -132q7 -53 31 -53q28 0 42 57.5t50 296.5l145 969h-139l6 26l152 84l2 15q21 145 103 248.5t200 152.5t260 49q221 0 299 -84q144 84 326 84q258 0 319 -110z
M2079 -27q-71 0 -116 45.5t-79 147.5q-56 160 -82 340l4 22q92 145 161 242t140 176.5t134 116.5t124 37q65 0 104.5 -41t39.5 -105q0 -59 -38 -96t-95 -37q-35 0 -62.5 16.5t-40.5 36t-29 36t-32 16.5q-48 0 -131 -111q93 -306 180 -528q33 -84 58 -99t79 15l33 18l23 -28
q-81 -92 -183 -156t-192 -64zM674 23l143 944h-219l-111 -660q-42 -240 -133 -407h4q67 0 101 -39.5t51 -139.5q7 -53 39 -53q71 0 125 355zM627 1139l-11 -62h218l2 15q12 88 45 155q-65 35 -82 168q-2 17 -3.5 25t-6.5 21.5t-14 19.5t-23 6q-27 0 -45 -26.5t-36.5 -100.5
t-43.5 -221z" />
    <glyph glyph-name="f_h" unicode="fh" horiz-adv-x="1886" 
d="M1346 1550l18 -14q-30 -107 -57 -244l-50 -262q-16 -83 -55 -213h8q35 51 77 96.5t97.5 89.5t123.5 70.5t137 26.5q90 0 142 -54t52 -155q0 -54 -18 -146l-109 -489q-6 -27 -6 -49q0 -36 23 -42t69 21l45 27l23 -31q-90 -94 -203.5 -151.5t-212.5 -57.5q-84 0 -122 40.5
t-38 105.5q0 47 27 184l82 395q14 65 13.5 103t-10.5 50.5t-30 12.5q-36 0 -83.5 -39t-80.5 -94l-159 -731h-404l244 1243q-71 30 -90 172q-2 17 -3.5 25t-6.5 21.5t-14 19.5t-23 6q-27 0 -45 -26.5t-36.5 -100.5t-43.5 -221l-11 -62h150l-33 -110h-135l-111 -660
q-59 -348 -220.5 -536.5t-381.5 -188.5q-118 0 -181.5 41t-63.5 115q0 54 34.5 90.5t96.5 36.5q66 0 100 -36t51 -132q7 -53 31 -53q28 0 42 57.5t50 296.5l145 969h-139l6 26l152 84l2 15q21 145 103 248.5t200 152.5t260 49q259 0 320 -110z" />
    <glyph glyph-name="f_j" unicode="fj" horiz-adv-x="1267" 
d="M1108 252q-37 -171 -102 -297.5t-150 -201.5t-181.5 -110.5t-207.5 -35.5q-213 0 -250 112q-146 -137 -332 -137q-118 0 -181.5 41t-63.5 115q0 54 34.5 90.5t96.5 36.5q66 0 100 -36t51 -132q7 -53 31 -53q28 0 42 57.5t50 296.5l145 969h-139l6 26l152 84l2 15
q32 222 201.5 346.5t427.5 124.5q172 0 269 -51.5t97 -149.5q0 -73 -45.5 -112.5t-128.5 -39.5q-91 0 -132.5 54t-59.5 172q-11 71 -56 71q-95 0 -157 -368l-11 -68h463q98 0 135 -29.5t37 -91.5q0 -47 -41 -229zM487 307q-42 -240 -133 -407q66 0 99.5 -39.5t50.5 -139.5
q7 -53 39 -53q18 0 35 26t40.5 107.5t49.5 221.5l143 770q20 110 20 125q0 29 -13 39t-50 10h-170z" />
    <glyph glyph-name="f_k" unicode="fk" horiz-adv-x="1843" 
d="M-115 -418q-118 0 -181.5 41t-63.5 115q0 54 34.5 90.5t96.5 36.5q66 0 100 -36t51 -132q7 -53 31 -53q28 0 42 57.5t50 296.5l145 969h-139l6 26l152 84l2 15q21 145 103 248.5t200 152.5t260 49q259 0 320 -110l252 118l18 -14q-30 -107 -57 -244l-252 -1292h-410
l244 1243q-71 30 -90 172q-2 17 -3.5 25t-6.5 21.5t-14 19.5t-23 6q-27 0 -45 -26.5t-36.5 -100.5t-43.5 -221l-11 -62h150l-33 -110h-135l-111 -660q-59 -348 -220.5 -536.5t-381.5 -188.5zM1454 -27q-71 0 -115.5 45.5t-78.5 147.5q-56 160 -82 340l4 22q92 145 161 242
t140 176.5t134 116.5t124 37q65 0 104 -41t39 -105q0 -59 -38 -96t-95 -37q-35 0 -62.5 16.5t-40.5 36t-29 36t-32 16.5q-48 0 -131 -111q93 -306 180 -528q33 -84 58.5 -99t79.5 15l32 18l23 -28q-81 -92 -183 -156t-192 -64z" />
    <glyph glyph-name=".notdef" horiz-adv-x="1024" 
 />
    <glyph glyph-name=".null" horiz-adv-x="0" 
 />
    <glyph glyph-name="nonmarkingreturn" horiz-adv-x="682" 
 />
    <glyph glyph-name="space" unicode=" " horiz-adv-x="378" 
 />
    <glyph glyph-name="exclam" unicode="!" horiz-adv-x="589" 
d="M260 451l-74 684q-17 156 50 230.5t200 74.5q92 0 152.5 -42.5t73.5 -124.5t-48 -202l-317 -620h-37zM41 178q0 80 57.5 137.5t137.5 57.5q79 0 136.5 -57.5t57.5 -137.5t-57 -137t-137 -57t-137.5 57.5t-57.5 136.5z" />
    <glyph glyph-name="quotedbl" unicode="&#x22;" horiz-adv-x="761" 
d="M248 893l-66 330q-20 105 21.5 167t134.5 62q101 0 137 -70t-24 -186l-168 -303h-35zM598 893l-66 330q-20 105 21.5 167t134.5 62q101 0 137 -70t-24 -186l-168 -303h-35z" />
    <glyph glyph-name="numbersign" unicode="#" horiz-adv-x="866" 
d="M403 0l101 385h-254l-100 -385h-64l100 385h-170l66 248h170l45 172h-170l66 248h169l99 366h63l-98 -366h254l98 366h64l-99 -366h177l-66 -248h-176l-45 -172h176l-68 -248h-174l-100 -385h-64zM360 805l-45 -172h254l45 172h-254z" />
    <glyph glyph-name="dollar" unicode="$" horiz-adv-x="1114" 
d="M360 -225l37 205q-191 4 -302 73.5t-111 173.5q0 68 39.5 110t109.5 42q73 0 113 -39t59 -123q9 -41 14.5 -62.5t13.5 -44.5t17.5 -34t23.5 -20t34 -13l88 477q-193 105 -278 203t-85 238q0 204 154.5 333.5t390.5 141.5l24 139h66l-25 -137q178 -3 293 -71.5t115 -172.5
q0 -63 -37 -99t-100 -36q-66 0 -104.5 32.5t-53.5 104.5q-22 102 -44 137.5t-79 42.5l-80 -436q5 -3 28 -15t36 -18q84 -42 143.5 -82.5t108 -92t72.5 -116t24 -143.5q0 -96 -38 -181.5t-111 -153t-189.5 -109.5t-263.5 -47l-37 -207h-66zM483 39q104 0 169 58t65 155
q0 76 -41.5 131t-120.5 104l-82 -448h10zM461 1180q0 -62 29.5 -108.5t103.5 -96.5l74 405q-96 -3 -151.5 -53t-55.5 -147z" />
    <glyph glyph-name="percent" unicode="%" horiz-adv-x="1417" 
d="M41 -102l1284 1564h84l-1284 -1564h-84zM512 1444q142 0 227.5 -75.5t85.5 -219.5q0 -89 -36 -168t-94 -132.5t-131 -84.5t-148 -31q-142 0 -228 75.5t-86 219.5q0 118 61.5 215.5t154.5 149t194 51.5zM416 788q37 0 68 57t48 137.5t26 153t9 117.5q0 136 -55 136
q-36 0 -67 -57t-48.5 -137t-27 -153.5t-9.5 -117.5q0 -136 56 -136zM1077 686q142 0 228 -75.5t86 -219.5q0 -118 -61.5 -215.5t-154.5 -149t-194 -51.5q-142 0 -227.5 75.5t-85.5 219.5q0 89 36 168t94 132.5t131 84.5t148 31zM981 31q37 0 68 57t48 137.5t26.5 153
t9.5 117.5q0 135 -56 135q-47 0 -84 -97.5t-52 -200t-15 -167.5q0 -135 55 -135z" />
    <glyph glyph-name="ampersand" unicode="&#x26;" horiz-adv-x="1462" 
d="M1493 801l-6 -35l-25 -8q-67 -23 -98 -50.5t-80 -103.5q-103 -163 -170 -252q82 -124 168 -231q46 -58 119 -80l26 -6l-6 -35h-585q-36 43 -62 84q-148 -109 -362 -109q-205 0 -313.5 83t-108.5 243q0 308 422 426q-45 137 -45 244q0 196 143 334.5t358 138.5
q154 0 244 -68.5t90 -183.5q0 -38 -11 -72t-29 -61t-48 -52t-60.5 -44t-74 -38.5t-81 -34t-89.5 -32.5q91 -193 274 -463q51 70 84 145t33 126q0 35 -18.5 53t-69.5 33l-49 14l6 35h424zM647 104q54 0 101 17q-233 331 -320 565q-30 -40 -46.5 -106t-16.5 -129
q0 -167 73 -257t209 -90zM721 1171q0 -122 72 -278q83 49 128.5 132t45.5 181q0 95 -25 144t-86 49q-63 0 -99 -64t-36 -164z" />
    <glyph glyph-name="quotesingle" unicode="'" horiz-adv-x="411" 
d="M248 893l-66 330q-20 105 21.5 167t134.5 62q101 0 137 -70t-24 -186l-168 -303h-35z" />
    <glyph glyph-name="parenleft" unicode="(" horiz-adv-x="722" 
d="M530 -289q-197 204 -291 395.5t-94 393.5q0 304 170 557t535 469l18 -21q-232 -195 -366.5 -482t-134.5 -595q0 -204 51.5 -387t136.5 -311z" />
    <glyph glyph-name="parenright" unicode=")" horiz-adv-x="722" 
d="M201 1526q197 -204 291 -395.5t94 -393.5q0 -304 -170 -557t-535 -469l-18 21q232 195 367 482t135 595q0 203 -52 386t-137 312z" />
    <glyph glyph-name="asterisk" unicode="*" horiz-adv-x="663" 
d="M195 858q-28 26 -36.5 61.5t15.5 72.5t84 57l174 59l-178 -2q-47 -1 -78.5 14.5t-43 39.5t-10.5 50.5t13 51.5q12 24 31 40.5t44.5 21.5t56.5 -12t61 -57l106 -143l-59 174q-30 88 8.5 130t103.5 32q41 -5 67 -27.5t29 -62.5t-36 -96l-107 -152l144 113q52 41 91.5 36
t63.5 -32t29 -64q6 -38 -8.5 -70.5t-51.5 -48.5t-100 5l-166 57l144 -98q39 -26 55 -57t11 -58t-21.5 -48.5t-40.5 -33.5q-24 -13 -51 -13t-51.5 12.5t-40.5 44t-15 77.5l4 172l-55 -178q-17 -57 -53 -81t-71 -18t-62 31z" />
    <glyph glyph-name="plus" unicode="+" horiz-adv-x="993" 
d="M487 285v391h-370v63h370v389h72v-389h371v-63h-371v-391h-72z" />
    <glyph glyph-name="comma" unicode="," horiz-adv-x="546" 
d="M-37 -223l-6 26q125 41 204 114t97 173q-41 -43 -113 -43q-55 0 -96 40t-41 106q0 74 50 126t139 52q96 0 155.5 -59.5t59.5 -161.5q0 -143 -116.5 -247.5t-332.5 -125.5z" />
    <glyph glyph-name="hyphen" unicode="-" horiz-adv-x="575" 
d="M37 451l43 237h459l-43 -237h-459z" />
    <glyph glyph-name="period" unicode="." horiz-adv-x="491" 
d="M4 178q0 80 58 137.5t137 57.5t136.5 -57.5t57.5 -137.5t-57.5 -137t-136.5 -57q-80 0 -137.5 57.5t-57.5 136.5z" />
    <glyph glyph-name="slash" unicode="/" horiz-adv-x="778" 
d="M-150 -266l996 1769h76l-996 -1769h-76z" />
    <glyph glyph-name="zero" unicode="0" horiz-adv-x="1439" 
d="M645 -27q-266 0 -427 158.5t-161 415.5q0 258 101 462t284 319.5t416 115.5q265 0 425.5 -158.5t160.5 -415.5q0 -192 -60 -359t-165 -285t-253.5 -185.5t-320.5 -67.5zM651 31q97 0 175.5 152t119.5 391t41 507q0 156 -31.5 232t-103.5 76q-95 0 -173.5 -152
t-120.5 -392.5t-42 -508.5q0 -155 31.5 -230t103.5 -75z" />
    <glyph glyph-name="one" unicode="1" horiz-adv-x="821" 
d="M-88 0l6 35l66 16q31 8 43 11.5t29.5 12t23 16.5t14.5 26t13.5 39.5t11.5 58.5l155 885l-157 53l6 29q381 50 649 256l29 -13l-213 -1210q-6 -32 -8 -44.5t-4 -32.5t-1.5 -26t4 -18t9 -15t16 -9.5t22 -10t31.5 -8.5l64 -16l-6 -35h-803z" />
    <glyph glyph-name="two" unicode="2" horiz-adv-x="1114" 
d="M-78 0l41 233q14 9 54 35.5t55 36.5l48 32t51.5 35.5t46 33.5t51.5 38.5t48 38.5q404 332 404 736q0 82 -27 126t-71 44q-41 0 -59.5 -25.5t-26.5 -87.5q-18 -159 -70 -217t-162 -58q-85 0 -130.5 43t-45.5 117q0 124 132.5 203.5t369.5 79.5q245 0 380.5 -93.5
t135.5 -263.5q0 -78 -25.5 -147.5t-64 -124.5t-111.5 -111t-140 -96.5t-178 -91.5t-197.5 -86t-225.5 -88v-8h588q75 0 108 26t96 136h37l-104 -496h-1008z" />
    <glyph glyph-name="three" unicode="3" horiz-adv-x="1142" 
d="M401 -27q-454 0 -454 260q0 72 45.5 116t128.5 44q90 0 134 -55t54 -191q4 -64 24 -90t62 -26q96 0 161 115.5t65 326.5q0 125 -46.5 180.5t-138.5 55.5h-84l13 67h84q260 0 260 408q0 205 -107 205q-36 0 -53.5 -18.5t-22.5 -57.5q-19 -138 -69.5 -201t-151.5 -63
q-79 0 -123.5 39t-44.5 106q0 108 115 179t354 71q258 0 399.5 -92.5t141.5 -259.5q0 -136 -104.5 -224.5t-276.5 -109.5v-6q164 -18 247 -90.5t83 -217.5q0 -219 -187 -345t-508 -126z" />
    <glyph glyph-name="four" unicode="4" horiz-adv-x="1210" 
d="M279 0l6 35l65 16q30 8 44 12t30.5 13t22.5 17t14.5 26.5t12.5 38.5t11 57l35 195h-553l21 106l870 903h293l-154 -862h185l-31 -147h-178l-35 -195q-7 -41 -9 -66t0 -42.5t13.5 -27.5t25 -15.5t40.5 -12.5l63 -16l-6 -35h-786zM127 557h420l96 535h-6l-510 -529v-6z" />
    <glyph glyph-name="five" unicode="5" horiz-adv-x="1099" 
d="M381 -25q-208 0 -313 64.5t-105 175.5q0 72 45 116t121 44q169 0 180 -199q5 -85 20.5 -114t69.5 -29q96 0 167 84.5t71 232.5q0 244 -285 244q-137 0 -217 -39l-24 20l215 844h637q50 0 74 19t71 92h41l-96 -430h-742l-55 -219q34 17 115 32t174 15q232 0 367 -112
t135 -314q0 -148 -87 -269t-239.5 -189.5t-339.5 -68.5z" />
    <glyph glyph-name="six" unicode="6" horiz-adv-x="1294" 
d="M590 -25q-117 0 -213.5 33.5t-169.5 100.5t-113.5 174.5t-40.5 246.5q0 175 55 326.5t145.5 257t207 182t240 112.5t243.5 36q193 0 302.5 -62.5t109.5 -169.5q0 -72 -43 -112.5t-125 -40.5q-89 0 -136.5 51.5t-60.5 169.5q-8 62 -24.5 83t-57.5 21q-89 0 -187 -157
t-163 -453q136 74 311 74q178 0 277.5 -87.5t99.5 -258.5q0 -104 -44.5 -199t-126.5 -168t-208 -116.5t-278 -43.5zM584 35q62 0 111.5 77.5t74.5 191.5t25 235q0 113 -31 156.5t-111 43.5q-45 0 -104 -18q-26 -110 -45 -256t-19 -244q0 -100 22 -143t77 -43z" />
    <glyph glyph-name="seven" unicode="7" horiz-adv-x="1054" 
d="M94 0q56 168 148 321t215.5 288t251.5 246t292 232h-647q-67 0 -99.5 -33t-104.5 -169h-37l118 534h979l-34 -202q-265 -290 -395 -573.5t-187 -643.5h-500z" />
    <glyph glyph-name="eight" unicode="8" horiz-adv-x="1198" 
d="M514 -25q-240 0 -384 89.5t-144 222.5q0 136 99.5 213.5t285.5 113.5v4q-203 132 -203 347q0 84 35 161t94 134t134.5 99t160 63.5t166.5 21.5q206 0 333.5 -74.5t127.5 -193.5q0 -232 -355 -310v-6q149 -73 217 -162t68 -219q0 -137 -86.5 -253.5t-232.5 -183.5
t-316 -67zM543 33q118 0 191 63t73 160q0 94 -72 154.5t-315 179.5q-127 -121 -127 -311q0 -121 65.5 -183.5t184.5 -62.5zM930 1171q0 104 -54.5 159.5t-154.5 55.5q-98 0 -160.5 -59t-62.5 -147q0 -89 68 -154t245 -139q119 132 119 284z" />
    <glyph glyph-name="nine" unicode="9" horiz-adv-x="1288" 
d="M397 -23q-196 0 -297.5 58.5t-101.5 173.5q0 72 43 112.5t125 40.5q89 0 136 -51.5t60 -169.5q7 -61 24 -81.5t58 -20.5q90 0 188 156t163 452q-136 -74 -308 -74q-176 0 -277 95.5t-101 271.5q0 105 41 196t118.5 160.5t199 109.5t271.5 40q124 0 225.5 -35t177 -104.5
t117 -179.5t41.5 -253q0 -174 -52.5 -322.5t-141.5 -252.5t-205.5 -178t-244.5 -109t-259 -35zM705 684q41 0 100 18q26 106 44.5 251.5t18.5 246.5t-23.5 145t-82.5 44q-50 0 -98 -80t-76.5 -197.5t-28.5 -228.5q0 -107 35 -153t111 -46z" />
    <glyph glyph-name="colon" unicode=":" horiz-adv-x="532" 
d="M111 733q0 80 57.5 137.5t136.5 57.5t137 -58t58 -137t-57.5 -136.5t-137.5 -57.5q-79 0 -136.5 57.5t-57.5 136.5zM20 178q0 80 58 137.5t137 57.5t137 -57.5t58 -137.5q0 -79 -57.5 -136.5t-137.5 -57.5t-137.5 57.5t-57.5 136.5z" />
    <glyph glyph-name="semicolon" unicode=";" horiz-adv-x="542" 
d="M-29 -223l-6 26q125 41 204 114t97 173q-41 -43 -112 -43q-56 0 -97 40t-41 106q0 74 50 126t139 52q96 0 155.5 -59.5t59.5 -161.5q0 -143 -116.5 -247.5t-332.5 -125.5zM111 733q0 80 57.5 137.5t136.5 57.5t137 -58t58 -137t-57.5 -136.5t-137.5 -57.5
q-79 0 -136.5 57.5t-57.5 136.5z" />
    <glyph glyph-name="less" unicode="&#x3c;" horiz-adv-x="974" 
d="M858 270l-772 351v65l772 350v-73l-686 -310l686 -309v-74z" />
    <glyph glyph-name="equal" unicode="=" horiz-adv-x="1118" 
d="M123 795v67h928v-67h-928zM123 510v68h928v-68h-928z" />
    <glyph glyph-name="greater" unicode="&#x3e;" horiz-adv-x="974" 
d="M920 621l-773 -351v74l687 309l-687 310v73l773 -350v-65z" />
    <glyph glyph-name="question" unicode="?" horiz-adv-x="925" 
d="M242 461l71 411q177 43 257.5 129t80.5 232q0 75 -25 115.5t-69 40.5q-32 0 -48.5 -25t-25.5 -82q-18 -116 -63 -161.5t-127 -45.5q-79 0 -120.5 40t-41.5 102q0 98 93.5 161.5t271.5 63.5q233 0 366 -98t133 -261q0 -427 -659 -512l-21 -110h-73zM66 178
q0 80 57.5 137.5t136.5 57.5q80 0 137.5 -57.5t57.5 -137.5q0 -79 -57.5 -136.5t-137.5 -57.5t-137 57t-57 137z" />
    <glyph glyph-name="at" unicode="@" horiz-adv-x="1863" 
d="M764 -305q-212 0 -375.5 74.5t-257.5 221.5t-94 349q0 143 42 280.5t115.5 251t176 210t220.5 162.5t251 103t266 37q339 0 536 -163.5t197 -452.5q0 -98 -26.5 -198t-79.5 -191t-125 -161.5t-171 -112.5t-210 -42q-112 0 -177 48.5t-71 144.5h-6q-132 -193 -313 -193
q-105 0 -167.5 74.5t-62.5 196.5q0 121 43.5 243t121 223t197.5 164.5t259 63.5q79 0 150.5 -28.5t121.5 -69.5h6l123 82l19 -6q-23 -55 -64 -248l-84 -406q-25 -95 -18.5 -151t61.5 -56q63 0 117.5 46t91 117t62.5 157t37.5 165.5t11.5 143.5q0 260 -138 407.5t-428 147.5
q-262 0 -472.5 -126.5t-328.5 -346.5t-118 -491q0 -289 173 -446t474 -157q266 0 500 101l-11 -35q-97 -58 -249.5 -95.5t-325.5 -37.5zM850 244q59 0 119 71l129 613q-16 51 -68 51q-59 0 -117.5 -106t-92.5 -252.5t-34 -270.5q0 -106 64 -106z" />
    <glyph glyph-name="A" unicode="A" horiz-adv-x="1384" 
d="M-115 0l6 35l15 6q41 17 58.5 27t43 35.5t49 63.5t64.5 112l641 1140h254l172 -1157q13 -89 23.5 -127.5t24.5 -55t46 -32.5l25 -12l-7 -35h-739l6 35l54 14q57 17 76 38t22 67q4 63 -10 178l-17 119h-387l-65 -121q-84 -154 -84 -201q0 -32 19.5 -50t66.5 -32l41 -12
l-7 -35h-391zM614 1018l-272 -498h342l-59 498h-11z" />
    <glyph glyph-name="B" unicode="B" horiz-adv-x="1380" 
d="M-70 0l7 35l53 14q26 7 36.5 10.5t25.5 11.5t20 16.5t13 27t12.5 40.5t11.5 60l174 989q17 100 8 124.5t-68 41.5l-49 14l6 35h715q510 0 510 -307q0 -300 -406 -356v-6q173 -23 266 -99t93 -219q0 -204 -167 -318t-476 -114h-785zM664 63q96 0 161.5 131t65.5 343
q0 94 -43.5 137t-136.5 43h-45l-91 -516q-13 -77 8.5 -107.5t80.5 -30.5zM678 778h43q122 0 184 97t62 315q0 85 -30.5 123.5t-94.5 38.5q-24 0 -66 -11z" />
    <glyph glyph-name="C" unicode="C" horiz-adv-x="1298" 
d="M707 -25q-305 0 -475.5 155t-170.5 431q0 166 50 309.5t137.5 247.5t203.5 178.5t249.5 111t275.5 36.5q104 0 199 -15.5t151 -39.5l-45 -471h-37q-53 169 -112 296q-43 94 -85 133t-100 39q-77 0 -147.5 -73.5t-120 -189t-87 -256t-55.5 -277t-18 -248.5
q0 -307 211 -307q68 0 125.5 40.5t120.5 121.5q75 94 205 313h37l-105 -471q-185 -64 -407 -64z" />
    <glyph glyph-name="D" unicode="D" horiz-adv-x="1515" 
d="M659 59q78 0 150.5 73t127 198.5t87.5 304.5t33 379q0 173 -47.5 258.5t-153.5 85.5q-40 0 -80 -12l-203 -1160q-12 -72 7.5 -99.5t78.5 -27.5zM174 1384l6 35h694q335 0 492.5 -132t157.5 -433q0 -193 -65.5 -354.5t-180 -270.5t-271.5 -169t-337 -60h-740l7 35l53 14
q26 7 36 10.5t25 11.5t20 16.5t13.5 27t13 41t11.5 59.5l174 989q8 42 10 64.5t1.5 41.5t-10 29t-23 17t-38.5 14z" />
    <glyph glyph-name="E" unicode="E" horiz-adv-x="1302" 
d="M-70 0l7 35l53 14q26 7 36 10.5t25 11.5t20 16.5t13.5 27t13 41t11.5 59.5l174 989q17 100 8 124.5t-68 41.5l-49 14l6 35h1143l-49 -465h-35q-51 183 -88 271q-34 79 -78.5 106t-140.5 27q-98 0 -156 -12l-100 -578h51q84 0 115.5 13.5t60.5 52.5q34 47 105 184h32
l-102 -576h-33q-3 15 -9.5 56t-12 70.5t-11.5 52.5q-13 47 -46 64t-109 17h-53l-89 -503q-15 -85 15.5 -112.5t140.5 -27.5q98 0 155.5 32.5t125.5 123.5q85 112 196 309h39l-117 -524h-1200z" />
    <glyph glyph-name="F" unicode="F" horiz-adv-x="1234" 
d="M672 748h49q81 0 116 17t70 64q42 56 101 177h32l-104 -590h-31q-4 22 -12 64t-14 71t-13 55q-13 43 -44 59.5t-111 16.5h-52l-81 -467q-8 -43 -10 -67t-1 -42t13 -27.5t26 -15t43 -12.5l72 -16l-6 -35h-785l7 35l53 14q48 14 65.5 25.5t29 40t24.5 100.5l174 989
q8 45 10 67t2 41t-10 28t-22.5 15.5t-39.5 14.5l-49 14l6 35h1151l-51 -477h-35q-41 153 -84 262q-35 90 -78.5 122t-140.5 32q-108 0 -166 -12z" />
    <glyph glyph-name="G" unicode="G" horiz-adv-x="1392" 
d="M719 -25q-318 0 -488 155.5t-170 428.5q0 167 49.5 311.5t136.5 248.5t203 178t250.5 110.5t278.5 36.5q234 0 387 -68l-43 -458h-35q-59 166 -125 301q-49 95 -97.5 130t-115.5 35q-85 0 -158 -72.5t-122 -187t-84 -257.5t-50.5 -281t-15.5 -260q0 -147 41 -219t137 -72
q57 0 93 20l63 353q17 100 7.5 126.5t-68.5 43.5l-50 14l7 35h671l-6 -35l-29 -10q-51 -18 -64 -42t-34 -128l-69 -363q-200 -74 -500 -74z" />
    <glyph glyph-name="H" unicode="H" horiz-adv-x="1585" 
d="M-70 0l7 35l53 14q26 7 36 10.5t25 11.5t20 16.5t13.5 27t13 41t11.5 59.5l174 989q17 100 8 124.5t-68 41.5l-49 14l6 35h744l-6 -35l-52 -14q-46 -13 -62.5 -24.5t-27.5 -39.5t-24 -102l-76 -442h334l77 442q7 38 9.5 56.5t2.5 38.5t-2.5 27.5t-12.5 17t-21.5 14
t-34.5 12.5l-41 14l6 35h738l-7 -35l-55 -14q-34 -9 -48 -14.5t-28 -23.5t-20.5 -45t-16.5 -83l-174 -989q-19 -100 -10.5 -125.5t64.5 -40.5l51 -14l-6 -35h-738l7 35l41 14q4 1 11 4q52 19 67 35q22 25 42 127l86 477h-335l-84 -477q-13 -70 -13 -98t13.5 -42t54.5 -26
l47 -14l-6 -35h-744z" />
    <glyph glyph-name="I" unicode="I" horiz-adv-x="774" 
d="M109 215l174 989q17 100 8 124.5t-68 41.5l-49 14l6 35h740l-7 -35l-51 -14q-41 -11 -57.5 -22.5t-28 -41.5t-24.5 -102l-174 -989q-8 -44 -10.5 -68.5t-2.5 -43t9 -27.5t20 -14.5t35 -12.5l47 -14l-6 -35h-740l7 35l53 14q26 7 36 10.5t25 11.5t20 16.5t13.5 27t13 41
t11.5 59.5z" />
    <glyph glyph-name="J" unicode="J" horiz-adv-x="1089" 
d="M324 -23q-189 0 -299.5 67.5t-110.5 180.5q0 81 49 134t135 53q103 0 151.5 -67.5t61.5 -248.5q3 -53 37 -53q27 0 42 28.5t30 112.5l180 1020q18 97 8.5 123t-69.5 43l-50 14l7 35h741l-6 -35l-51 -14q-59 -15 -75.5 -40t-35.5 -126l-117 -651q-47 -268 -215 -422
t-413 -154z" />
    <glyph glyph-name="K" unicode="K" horiz-adv-x="1523" 
d="M911 0q-119 277 -217 653l6 37l428 428q132 132 132 185q0 24 -18 39.5t-64 27.5l-56 14l6 35h500l-8 -35l-31 -10q-92 -31 -154.5 -71t-156.5 -134l-215 -213q141 -473 313 -831q18 -39 35.5 -55.5t52.5 -28.5l19 -6l-6 -35h-566zM109 215l174 989q8 44 10 66.5
t1.5 41.5t-10.5 28t-22 15t-39 15l-49 14l6 35h744l-6 -35l-52 -14q-65 -20 -81 -43.5t-33 -122.5l-174 -989q-13 -74 -13 -99.5t13 -39.5t55 -27l47 -14l-6 -35h-744l7 35l53 14q26 7 36 10.5t25 11.5t20 16.5t13.5 27t13 41t11.5 59.5z" />
    <glyph glyph-name="L" unicode="L" horiz-adv-x="1241" 
d="M-70 0l9 35l51 14q38 11 53 16.5t29.5 25t20.5 43.5t16 81l174 989q15 89 4.5 119t-64.5 47l-49 14l6 35h758l-6 -35l-68 -16q-60 -15 -78.5 -42.5t-33.5 -121.5l-177 -997q-13 -78 20 -113t114 -35q92 0 142 28.5t122 125.5q69 91 223 358h37l-119 -571h-1184z" />
    <glyph glyph-name="M" unicode="M" horiz-adv-x="1796" 
d="M-70 0l9 35l51 12q42 9 62 24t32.5 46t24.5 98l174 989q15 93 3.5 121.5t-63.5 44.5l-49 14l6 35h606l129 -745h9l413 745h605l-7 -35l-51 -14q-59 -17 -75 -41.5t-35 -124.5l-175 -989q-13 -71 -13 -99.5t13 -42t52 -24.5l47 -14l-6 -35h-742l6 35l54 14q64 17 82.5 43
t37.5 123l173 979h-9l-643 -1163h-82l-198 1163h-9l-176 -979q-16 -94 -2.5 -123t74.5 -43l64 -14l-7 -35h-385z" />
    <glyph glyph-name="N" unicode="N" horiz-adv-x="1366" 
d="M1163 686l92 518q16 94 3 123t-74 43l-64 14l6 35h385l-8 -35l-51 -12q-63 -13 -81.5 -39.5t-37.5 -128.5l-219 -1204h-123l-620 1194h-9l-176 -979q-17 -95 -5 -123t77 -43l64 -14l-7 -35h-385l9 35l51 12q42 9 62 24t32.5 46t24.5 98l174 989q15 93 3.5 121.5
t-63.5 44.5l-49 14l6 35h586l389 -733h8z" />
    <glyph glyph-name="O" unicode="O" horiz-adv-x="1503" 
d="M672 -27q-173 0 -312.5 75.5t-219 211.5t-79.5 307q0 193 65 358t177.5 278.5t265.5 177t326 63.5q178 0 316.5 -66.5t219 -199.5t80.5 -314q0 -209 -68.5 -380.5t-185 -281.5t-267 -169.5t-318.5 -59.5zM692 31q70 0 135.5 79t113.5 211t77 314.5t29 380.5
q0 201 -41 287t-125 86q-101 0 -185 -145.5t-130 -373t-46 -477.5q0 -193 40.5 -277.5t131.5 -84.5z" />
    <glyph glyph-name="P" unicode="P" horiz-adv-x="1361" 
d="M-70 0l7 35l53 14q38 11 53 16.5t29.5 25t20.5 43.5t16 81l174 989q17 94 6.5 121.5t-66.5 44.5l-49 14l6 35h705q563 0 563 -377q0 -219 -141 -345t-410 -126q-60 0 -118 10t-87 25l6 35q138 3 210.5 129t72.5 399q0 101 -34.5 144t-104.5 43q-33 0 -66 -10l-198 -1131
q-8 -43 -10 -67t-1 -42t13 -27.5t26 -15t43 -12.5l72 -16l-6 -35h-785z" />
    <glyph glyph-name="Q" unicode="Q" horiz-adv-x="1503" 
d="M1016 -344q-114 0 -205 34t-180 105q-106 86 -217 223q-160 67 -256.5 214.5t-96.5 334.5q0 193 65 358t177.5 278.5t265.5 177t326 63.5q178 0 316.5 -66.5t219 -199.5t80.5 -314q0 -302 -143.5 -523.5t-415.5 -313.5v-4q33 -41 78 -84q103 -97 240 -97q99 0 184 39
l-6 -37q-182 -188 -432 -188zM692 29q97 0 178.5 133.5t129 360.5t47.5 493q0 202 -40 287.5t-126 85.5q-101 0 -185 -145.5t-130 -373t-46 -477.5q0 -193 40.5 -278.5t131.5 -85.5z" />
    <glyph glyph-name="R" unicode="R" horiz-adv-x="1490" 
d="M-70 0l7 35l53 14q38 11 53 16.5t29.5 25t20.5 43.5t16 81l174 989q15 89 4.5 120t-64.5 46l-49 14l6 35h744q279 0 405.5 -88t126.5 -266q0 -149 -81.5 -245t-241.5 -134v-6q43 -148 105 -302.5t118 -252.5q22 -37 38 -54.5t44 -27.5l24 -8l-6 -35h-561
q-113 260 -197 625h-49l-71 -410q-8 -44 -10.5 -68.5t-2.5 -43t9 -27.5t20 -14.5t35 -12.5l47 -14l-6 -35h-740zM727 686q128 0 201 113t73 348q0 104 -34.5 154.5t-112.5 50.5q-32 0 -78 -11l-114 -649q24 -6 65 -6z" />
    <glyph glyph-name="S" unicode="S" horiz-adv-x="1138" 
d="M440 -25q-122 0 -240 22.5t-173 57.5l39 422h34q69 -182 121 -282q44 -82 104.5 -122t149.5 -40q102 0 161.5 60t59.5 159q0 81 -51 141.5t-186 128.5q-172 87 -243 187t-71 241q0 97 43 186.5t120 158t191.5 109t248.5 40.5q103 0 210 -21.5t158 -50.5l-39 -381h-35
q-68 169 -122 266q-39 70 -86.5 99.5t-114.5 29.5q-98 0 -155.5 -59.5t-57.5 -150.5q0 -70 57.5 -130t188.5 -128q197 -101 269.5 -194.5t72.5 -238.5q0 -103 -47 -196t-130.5 -162.5t-207.5 -110.5t-269 -41z" />
    <glyph glyph-name="T" unicode="T" horiz-adv-x="1355" 
d="M195 0l6 35l57 14q81 20 102.5 45.5t38.5 120.5l207 1137h-41q-59 0 -94.5 -25.5t-95.5 -105.5q-38 -49 -119.5 -170.5t-114.5 -167.5h-37l107 536h1251l-59 -536h-35q-66 229 -113 344q-28 72 -60.5 98.5t-84.5 26.5h-39l-203 -1137q-9 -49 -10 -76t10.5 -45t29 -26.5
t56.5 -18.5l56 -14l-6 -35h-809z" />
    <glyph glyph-name="U" unicode="U" horiz-adv-x="1388" 
d="M1151 401l143 803q15 89 2 121t-73 45l-64 14l6 35h377l-8 -35l-47 -12q-64 -17 -81.5 -43.5t-35.5 -124.5l-147 -825q-37 -206 -158.5 -306t-343.5 -100q-342 0 -492 135t-96 433l121 663q9 50 11.5 75.5t-4.5 44.5t-20 27.5t-42 18.5l-41 14l6 35h729l-6 -35l-51 -14
q-42 -11 -58.5 -22.5t-29 -42t-25.5 -101.5l-137 -747q-36 -191 29 -277t221 -86q141 0 213.5 75t101.5 232z" />
    <glyph glyph-name="V" unicode="V" horiz-adv-x="1374" 
d="M461 0l-203 1157q-24 131 -37 162.5t-57 52.5l-25 12l6 35h758l-6 -35l-53 -14q-57 -17 -77.5 -39.5t-23.5 -68.5q-2 -43 9 -140l88 -688h6l352 656q74 139 74 198q0 32 -19 51t-65 33l-41 12l6 35h397l-6 -35l-12 -4q-68 -23 -102.5 -60.5t-98.5 -154.5l-643 -1165h-227
z" />
    <glyph glyph-name="W" unicode="W" horiz-adv-x="2103" 
d="M420 0l-162 1192q-13 104 -30 136t-64 46l-35 10l6 35h723l-6 -35l-33 -10q-56 -17 -74 -43t-18 -90q0 -37 8 -119l78 -680h6l268 545l-26 252q-7 71 -26 96.5t-66 38.5l-37 10l6 35h745l-6 -35l-41 -10q-64 -17 -85 -44t-21 -89q0 -57 6 -119l53 -676h6l330 644
q72 144 72 196q0 33 -19.5 53t-64.5 33l-41 12l6 35h397l-6 -35l-14 -6q-51 -21 -76 -39t-51 -54.5t-72 -121.5l-620 -1163h-238l-98 864h-2l-420 -864h-258z" />
    <glyph glyph-name="X" unicode="X" horiz-adv-x="1402" 
d="M-102 0l6 35l16 6q85 32 122 61.5t120 130.5l350 433l-217 557q-29 73 -47.5 100t-61.5 49l-24 12l6 35h788l-6 -35l-73 -16q-84 -19 -84 -88q0 -47 32 -131l103 -285h4l215 279q82 110 82 157q0 31 -20 45.5t-66 26.5l-47 12l8 35h442l-6 -35l-16 -6q-84 -32 -121 -61.5
t-121 -130.5l-324 -398l238 -591q21 -53 31.5 -74t29.5 -41.5t50 -34.5l26 -12l-6 -35h-792l6 35l73 16q84 19 84 88q0 47 -32 131l-121 322h-4l-244 -316q-82 -110 -82 -157q0 -31 20 -45.5t66 -26.5l47 -12l-8 -35h-442z" />
    <glyph glyph-name="Y" unicode="Y" horiz-adv-x="1347" 
d="M180 0l6 35l58 14q81 20 102.5 45.5t38.5 120.5l72 410l-197 575q-35 101 -53.5 130.5t-54.5 41.5l-37 12l6 35h784l-6 -35l-49 -12q-69 -18 -94 -39t-25 -67q0 -41 31 -152l121 -430h6l309 455q72 107 72 155q0 30 -21 47t-69 31l-43 12l6 35h395l-6 -35l-19 -10
q-58 -32 -93.5 -67t-100.5 -123l-395 -572l-70 -397q-9 -49 -10 -76t10.5 -45t29 -26.5t56.5 -18.5l55 -14l-6 -35h-809z" />
    <glyph glyph-name="Z" unicode="Z" horiz-adv-x="1292" 
d="M-57 0l18 72l889 1278v6h-109q-138 0 -198 -24.5t-117 -98.5q-82 -109 -231 -336h-41l106 522h1126l-18 -71l-887 -1274v-8h72q139 0 211 12t115.5 39.5t93.5 89.5q87 106 244 352h36l-123 -559h-1187z" />
    <glyph glyph-name="bracketleft" unicode="[" horiz-adv-x="702" 
d="M866 1503l-6 -35l-117 -12q-102 -9 -132 -35.5t-48 -130.5l-223 -1341q-8 -45 -9 -71t3.5 -45t22 -28.5t40 -14.5t64.5 -9l98 -12l-6 -35h-461l314 1769h460z" />
    <glyph glyph-name="backslash" unicode="\" horiz-adv-x="778" 
d="M543 -266l-379 1769h69l379 -1769h-69z" />
    <glyph glyph-name="bracketright" unicode="]" horiz-adv-x="702" 
d="M-113 -266l7 35l116 12q102 9 132 35.5t48 130.5l224 1341q8 45 9 71t-3.5 45t-22 28.5t-40 14.5t-64.5 9l-98 12l6 35h461l-314 -1769h-461z" />
    <glyph glyph-name="asciicircum" unicode="^" horiz-adv-x="776" 
d="M90 872l-16 17l397 530h109l217 -534l-21 -13l-297 263z" />
    <glyph glyph-name="underscore" unicode="_" horiz-adv-x="854" 
d="M-106 -319l12 67h842l-13 -67h-841z" />
    <glyph glyph-name="grave" unicode="`" 
d="M772 1178l-393 61q-58 8 -86.5 45t-28.5 86q0 63 41 109.5t98 46.5q41 0 71.5 -15t62.5 -49l243 -264z" />
    <glyph glyph-name="a" unicode="a" horiz-adv-x="1243" 
d="M274 -27q-120 0 -191 83t-71 229q0 160 57.5 310t154.5 261t232 177.5t283 66.5q77 0 155.5 -28.5t141.5 -72.5h8l181 99l26 -13q-43 -106 -84 -319l-98 -508q-6 -27 -6 -51q0 -34 25 -41.5t69 22.5l43 29l27 -33q-94 -99 -202.5 -155t-207.5 -56q-80 0 -124 39t-44 111
q0 30 4 70h-8q-156 -220 -371 -220zM516 168q32 0 73 34.5t66 82.5l138 684q-5 31 -24 51t-48 20q-68 0 -133.5 -124.5t-103.5 -294.5t-38 -314q0 -72 16.5 -105.5t53.5 -33.5z" />
    <glyph glyph-name="b" unicode="b" horiz-adv-x="1222" 
d="M479 -27q-287 0 -456 156v18l223 1145q17 82 12.5 107t-45.5 47l-59 33l6 24l536 47l17 -14q-31 -109 -58 -244l-49 -262q-12 -72 -51 -201h8q189 271 383 271q122 0 193 -87.5t71 -248.5q0 -173 -56.5 -321.5t-154.5 -251t-232.5 -160.5t-287.5 -58zM516 27
q56 0 108 73.5t86 183t54 232t20 225.5q0 133 -75 133q-33 0 -79 -41.5t-79 -99.5l-125 -649q9 -26 33.5 -41.5t56.5 -15.5z" />
    <glyph glyph-name="c" unicode="c" horiz-adv-x="1032" 
d="M422 -25q-194 0 -302 100t-108 281q0 120 40.5 235.5t110.5 206.5t160 161t194.5 107.5t207.5 37.5q156 0 237.5 -59t81.5 -148q0 -71 -40 -109t-113 -38q-78 0 -115.5 46t-52.5 162q-5 36 -9 52t-15 27.5t-31 11.5q-35 0 -74.5 -57.5t-72 -148.5t-54 -214.5
t-21.5 -243.5q0 -233 166 -233q152 0 295 137l27 -27q-87 -131 -221.5 -209t-290.5 -78z" />
    <glyph glyph-name="d" unicode="d" horiz-adv-x="1245" 
d="M1268 1292l-197 -1034q-6 -27 -6 -51q0 -35 24 -41.5t70 22.5l43 29l27 -33q-97 -103 -205.5 -157t-206.5 -54q-75 0 -119.5 38.5t-44.5 105.5q0 36 4 76h-8q-172 -220 -370 -220q-126 0 -196.5 84t-70.5 228q0 119 31.5 237t92.5 221.5t143 183.5t191 126.5t228 46.5
q60 0 111 -19h8q9 62 23 136l14 75q17 83 12 107.5t-45 46.5l-59 33l6 24l537 47l20 -14q-30 -109 -57 -244zM516 168q30 0 69.5 32.5t69.5 84.5l136 676q-15 79 -78 79q-61 0 -124.5 -121.5t-103 -293.5t-39.5 -318q0 -139 70 -139z" />
    <glyph glyph-name="e" unicode="e" horiz-adv-x="1050" 
d="M408 -27q-193 0 -294.5 103.5t-101.5 275.5q0 155 63 297t163.5 240.5t227.5 156.5t253 58q159 0 253.5 -63.5t94.5 -168.5q0 -60 -27.5 -107.5t-76 -82.5t-129 -64t-172.5 -50t-220 -42q-4 -82 -4 -123q0 -134 42.5 -192.5t125.5 -58.5q77 0 146.5 32.5t148.5 104.5
l27 -27q-33 -53 -77.5 -99.5t-108 -91.5t-150 -71.5t-184.5 -26.5zM668 1049q-45 0 -90 -64t-79.5 -174t-49.5 -240q142 46 200 111q36 40 56 110.5t20 145.5q0 59 -13.5 85t-43.5 26z" />
    <glyph glyph-name="f" unicode="f" horiz-adv-x="735" 
d="M-115 -418q-118 0 -181.5 41t-63.5 115q0 54 34.5 90.5t96.5 36.5q66 0 100 -36t51 -132q7 -53 31 -53q28 0 42 57.5t50 296.5l145 969h-139l6 26l152 84l4 29q34 217 190 337t373 120q156 0 242 -49.5t86 -129.5q0 -69 -36.5 -103t-102.5 -34q-75 0 -112 40.5t-52 148.5
q-2 17 -3.5 25t-6.5 21t-14 19t-23 6q-26 0 -44.5 -29t-37 -104t-43.5 -223l-13 -74h211l-32 -110h-197l-111 -660q-59 -348 -220.5 -536.5t-381.5 -188.5z" />
    <glyph glyph-name="g" unicode="g" horiz-adv-x="1064" 
d="M395 -418q-146 0 -253.5 17t-168.5 47t-89.5 67.5t-28.5 83.5q0 160 305 185v6q-70 19 -116 72.5t-46 117.5q0 81 58.5 155.5t170.5 127.5v8q-168 89 -168 258q0 167 139 272t355 105q80 0 155.5 -19t120.5 -49q59 62 109 89.5t104 27.5q58 0 96 -32.5t38 -80.5
q0 -52 -32 -85t-83 -33q-38 0 -64.5 17.5t-48.5 61.5q-25 52 -80 5v-7q56 -39 85.5 -98.5t29.5 -126.5q0 -159 -130 -257.5t-357 -98.5q-136 0 -222 26q-45 -26 -45 -79q0 -51 80 -54l316 -14q182 -12 276 -83.5t94 -199.5q0 -187 -164 -309.5t-436 -122.5zM414 -362
q144 0 225.5 47t81.5 139q0 52 -36 81t-116 36l-356 32q-59 -69 -59 -166q0 -169 260 -169zM469 471q42 0 81.5 82.5t62 195t22.5 207.5q0 42 -15.5 68.5t-44.5 26.5q-45 0 -84.5 -86.5t-60 -197.5t-20.5 -200q0 -96 59 -96z" />
    <glyph glyph-name="h" unicode="h" horiz-adv-x="1241" 
d="M805 -27q-84 0 -122 40.5t-38 105.5q0 47 27 184l82 395q14 65 13.5 103t-10.5 50.5t-30 12.5q-36 0 -83.5 -39t-80.5 -94l-160 -731h-403l252 1292q18 83 13 107t-46 47l-59 33l6 24l536 47l17 -14q-30 -107 -57 -244l-50 -262q-16 -83 -55 -213h8q35 51 77 96t97 89.5
t123 71t137 26.5q90 0 142.5 -54t52.5 -155q0 -54 -18 -146l-109 -489q-6 -27 -6 -49q0 -36 23 -42t69 21l45 27l23 -31q-90 -94 -203.5 -151.5t-212.5 -57.5z" />
    <glyph glyph-name="i" unicode="i" horiz-adv-x="657" 
d="M221 -27q-89 0 -132.5 43.5t-43.5 120.5q0 66 37 215l106 441q9 35 9 57q0 21 -7 31t-22.5 9.5t-39 -11t-56.5 -31.5l-23 -14l-24 30q107 115 219 175.5t205 60.5q87 0 131.5 -42.5t44.5 -121.5q0 -66 -37 -215l-117 -465q-6 -27 -6 -49q0 -41 31.5 -43t72.5 26l39 25
l25 -31q-83 -92 -198 -151.5t-214 -59.5zM489 1165q-87 0 -145.5 52.5t-58.5 136.5t58 136t146 52t146.5 -52.5t58.5 -135.5q0 -84 -58.5 -136.5t-146.5 -52.5z" />
    <glyph glyph-name="j" unicode="j" horiz-adv-x="643" 
d="M487 1165q-87 0 -145.5 52.5t-58.5 136.5t58 136t146 52t146.5 -52.5t58.5 -135.5q0 -84 -58.5 -136.5t-146.5 -52.5zM584 721l-127 -592q-58 -262 -207.5 -404.5t-376.5 -142.5q-139 0 -220 58.5t-81 152.5q0 66 41.5 108t110.5 42q79 0 121 -50t53 -184q3 -41 8.5 -55
t21.5 -14q28 0 46.5 58.5t54.5 250.5l157 844q7 36 7 57t-7 31t-22.5 9.5t-39 -11t-56.5 -31.5l-23 -14l-25 30q107 115 219 175.5t205 60.5q87 0 132 -41t45 -119q0 -13 -1.5 -28.5t-3 -27.5t-5.5 -34.5t-7 -34.5t-9.5 -44.5t-10.5 -49.5z" />
    <glyph glyph-name="k" unicode="k" horiz-adv-x="1198" 
d="M809 -27q-71 0 -116 45.5t-79 147.5q-56 160 -82 340l5 22q92 145 161 242t140 176.5t134 116.5t124 37q65 0 104 -41t39 -105q0 -59 -38 -96t-95 -37q-35 0 -62.5 16.5t-40.5 36t-29 36t-32 16.5q-48 0 -131 -111q93 -306 180 -528q33 -84 58 -99t79 15l33 18l23 -28
q-81 -92 -183 -156t-192 -64zM0 0l252 1292q19 82 15 107t-44 47l-59 33l6 24l532 47l17 -14q-30 -107 -57 -244l-252 -1292h-410z" />
    <glyph glyph-name="l" unicode="l" horiz-adv-x="643" 
d="M68 352l178 940q6 34 8.5 48.5t4 33.5t-0.5 25.5t-8 17t-14 16t-23 13.5l-59 33l6 24l538 47l19 -14q-31 -107 -58 -244l-202 -1036q-6 -27 -6 -49q0 -20 10.5 -29t28 -6.5t37.5 11t42 22.5l35 22l25 -30q-102 -107 -212 -165.5t-206 -58.5q-176 0 -176 156
q0 17 1.5 33.5t5 39t6 39t9.5 52.5t11 59z" />
    <glyph glyph-name="m" unicode="m" horiz-adv-x="1843" 
d="M1407 -27q-47 0 -80 13t-49.5 35.5t-23.5 46.5t-7 51q0 47 27 184l82 395q14 65 13.5 103t-10.5 50.5t-30 12.5q-31 0 -72.5 -36.5t-74.5 -90.5l-156 -737h-408l148 698q14 65 14.5 102.5t-9.5 50.5t-30 13q-32 0 -74 -38t-75 -93l-160 -733h-407l159 793q6 35 6 49
q0 93 -116 10l-23 -16l-26 32q96 106 203 169t208 63q74 0 117 -39t43 -115q0 -57 -16 -139h6q206 293 422 293q89 0 141.5 -56t52.5 -153q0 -15 -4 -51h6q82 119 185.5 189.5t212.5 70.5q92 0 143 -55t51 -154q0 -54 -18 -146l-109 -489q-6 -27 -6 -49q0 -73 90 -21l47 27
l23 -31q-90 -94 -203.5 -151.5t-212.5 -57.5z" />
    <glyph glyph-name="n" unicode="n" horiz-adv-x="1269" 
d="M834 -27q-47 0 -80 13t-49.5 35.5t-23.5 46.5t-7 51q0 52 26 184l82 395q14 65 14 102.5t-10 50.5t-30 13q-36 0 -83.5 -39t-80.5 -94l-160 -731h-407l159 793q6 35 6 49q0 94 -116 10l-23 -16l-26 32q96 106 203 169t208 63q74 0 117 -39t43 -115q0 -57 -16 -139h6
q39 55 82 102t99 92.5t123.5 72t137.5 26.5q90 0 142.5 -54t52.5 -155q0 -49 -19 -146l-108 -489q-6 -27 -6 -49q0 -74 92 -21l45 27l22 -31q-90 -94 -203 -151.5t-212 -57.5z" />
    <glyph glyph-name="o" unicode="o" horiz-adv-x="1165" 
d="M504 -25q-151 0 -264.5 66t-169.5 171t-56 230q0 150 56 277t148 210t208 129t238 46q147 0 260 -67t170 -173.5t57 -232.5q0 -150 -55 -276t-146 -208t-206.5 -127t-239.5 -45zM498 29q66 0 125.5 137.5t92 330.5t32.5 371q0 96 -17.5 139.5t-58.5 43.5q-66 0 -127 -139
t-95 -330t-34 -359q0 -102 19 -148t63 -46z" />
    <glyph glyph-name="p" unicode="p" horiz-adv-x="1249" 
d="M-182 -406l6 35l35 11q63 17 81.5 37.5t30.5 86.5l205 1031q6 34 6 49q0 45 -25 48.5t-83 -38.5l-23 -16l-26 32q96 106 203 169t208 63q74 0 117 -39t43 -115q0 -50 -12 -112h8q88 132 188 199t195 67q119 0 190.5 -87t71.5 -251q0 -177 -52 -326.5t-141.5 -250
t-210.5 -156.5t-258 -56q-86 0 -145 27q-3 -53 -16 -108l-29 -127q-17 -69 -8 -91.5t65 -35.5l43 -11l-6 -35h-661zM545 29q58 0 109.5 75.5t84.5 186.5t52.5 232t19.5 218q0 133 -76 133q-33 0 -78.5 -40.5t-78.5 -98.5l-125 -647q27 -59 92 -59z" />
    <glyph glyph-name="q" unicode="q" horiz-adv-x="1232" 
d="M399 -408l9 35l49 11q60 12 76.5 31.5t31.5 92.5l43 236q23 137 43 190h-8q-154 -215 -369 -215q-120 0 -191 83t-71 229q0 161 56.5 310t152 260.5t231.5 178t287 66.5q77 0 155.5 -28.5t141.5 -72.5h8l179 99l30 -13q-41 -94 -84 -319l-186 -1004q-12 -69 -0.5 -89.5
t66.5 -34.5l30 -9l-8 -37h-672zM516 168q32 0 73 35t66 84l138 682q-5 31 -24 51t-48 20q-68 0 -133.5 -124.5t-103.5 -294.5t-38 -314q0 -72 16.5 -105.5t53.5 -33.5z" />
    <glyph glyph-name="r" unicode="r" horiz-adv-x="1046" 
d="M25 0l159 793q6 35 6 49q0 94 -116 10l-23 -16l-26 32q87 98 195.5 165t215.5 67q76 0 118 -40t42 -114q0 -66 -23 -160h9q37 72 70.5 124.5t75 98.5t89.5 69.5t101 23.5q72 0 116.5 -46t44.5 -124q0 -87 -46.5 -134.5t-123.5 -47.5q-35 0 -64.5 15.5t-46.5 34.5
t-37 34.5t-36 15.5q-27 0 -58.5 -36t-84.5 -130l-148 -684h-409z" />
    <glyph glyph-name="s" unicode="s" horiz-adv-x="944" 
d="M387 -25q-204 0 -303.5 61.5t-99.5 162.5q0 60 38 98.5t99 38.5q85 0 127.5 -46t62.5 -163q9 -51 35.5 -74.5t75.5 -23.5q62 0 99.5 41.5t37.5 103.5q0 54 -43.5 98t-163.5 107q-139 74 -205.5 159.5t-66.5 194.5q0 163 133.5 267t327.5 104q183 0 283 -59t100 -148
q0 -61 -35.5 -98t-97.5 -37q-65 0 -106.5 40t-63.5 138q-23 111 -109 111q-56 0 -89.5 -37t-33.5 -90q0 -61 45.5 -102t208.5 -128q129 -71 184.5 -142t55.5 -181q0 -163 -136 -279.5t-360 -116.5z" />
    <glyph glyph-name="t" unicode="t" horiz-adv-x="761" 
d="M250 -27q-95 0 -148 47t-53 125q0 41 21 160l127 656h-131l6 26l155 82l41 176l379 135h58l-68 -309h219l-37 -110h-211l-135 -701q-2 -12 -2 -35q0 -65 65 -48q45 12 115 65l45 34l29 -34q-230 -269 -475 -269z" />
    <glyph glyph-name="u" unicode="u" horiz-adv-x="1249" 
d="M256 -27q-92 0 -146.5 52.5t-54.5 146.5q0 43 17 154l100 467q6 30 6 49q0 95 -117 10l-22 -16l-27 32q215 232 412 232q178 0 178 -160q0 -18 -1.5 -34.5t-5.5 -39t-7 -37.5t-10.5 -50.5t-12.5 -57.5l-71 -346q-16 -67 -13.5 -104.5t13.5 -50.5t32 -13q66 0 152 131
l156 737h409l-158 -819q-6 -27 -6 -49q0 -74 90 -21l45 27l23 -31q-94 -97 -205 -153t-211 -56q-78 0 -118.5 38.5t-40.5 107.5q0 44 22 135h-8q-187 -281 -420 -281z" />
    <glyph glyph-name="v" unicode="v" horiz-adv-x="1069" 
d="M199 0v183v191t-1 140.5t-3.5 150t-6.5 101.5q-3 31 -5.5 48.5t-7.5 35.5t-12.5 24t-20 8.5t-29.5 -4.5t-41 -22l-23 -14l-26 32q85 99 194.5 162.5t196.5 63.5q85 0 130 -45t54 -152q16 -204 -6 -645h10q191 223 266.5 339t75.5 185q0 25 -20.5 47.5t-45 38.5t-45 46
t-20.5 69q0 49 34 85t91 36q69 0 110.5 -44.5t41.5 -133.5q0 -136 -143.5 -341t-495.5 -585h-252z" />
    <glyph glyph-name="w" unicode="w" horiz-adv-x="1611" 
d="M1194 918q7 -176 -27 -627h11q172 202 242.5 313.5t70.5 177.5q0 25 -20.5 47.5t-45 38.5t-45 46t-20.5 69q0 49 34 85t91 36q68 0 107.5 -46t39.5 -132q0 -133 -144.5 -342.5t-490.5 -583.5h-206q6 162 6 461h-6q-133 -188 -361 -461h-229q0 617 -13 766q-4 47 -9.5 71
t-18 38t-33.5 8.5t-55 -27.5l-23 -14l-26 32q81 94 190.5 160t200.5 66q84 0 129.5 -43.5t54.5 -153.5q15 -183 -6 -600h10q63 82 85 110t54 74t56 88q2 78 2 193q0 83 -18.5 104t-71.5 -8l-21 -12l-24 33q87 99 182 158t184 59q155 0 164 -184z" />
    <glyph glyph-name="x" unicode="x" horiz-adv-x="1136" 
d="M385 459q-8 40 -80 309q-26 98 -59.5 113t-104.5 -33l-22 -14l-27 32q96 106 198.5 171t194.5 65q75 0 116 -38t67 -138q42 -169 51 -219h6q66 138 103 205t75 110q70 78 152 78q58 0 94.5 -33.5t36.5 -89.5q0 -59 -33.5 -96t-87.5 -37q-34 0 -61 15t-46 32t-30 20
q-20 7 -39 -20q-33 -44 -60 -95.5t-66 -135.5q-7 -17 -11 -25q49 -225 79 -326q29 -99 65.5 -114.5t107.5 32.5l22 15l27 -33q-93 -113 -192.5 -174.5t-194.5 -61.5q-77 0 -124.5 39t-72.5 135q-18 71 -53 232h-8q-67 -164 -142 -270q-50 -71 -102 -102.5t-115 -31.5
q-69 0 -106 33.5t-37 87.5q0 58 38 96.5t93 38.5q34 0 62.5 -18.5t50.5 -37.5t38 -19q20 0 41 24q36 42 69 103t87 176z" />
    <glyph glyph-name="y" unicode="y" horiz-adv-x="1046" 
d="M580 901q48 -199 75 -661h13q136 183 198 311.5t62 200.5q0 25 -16 45.5t-38.5 37.5t-45 35.5t-38.5 47.5t-16 65q0 52 36 86.5t95 34.5q71 0 114.5 -49.5t43.5 -141.5q0 -155 -113 -357.5t-327 -481.5q-152 -196 -267 -306.5t-204.5 -153t-186.5 -42.5q-81 0 -128.5 42
t-47.5 105q0 57 37.5 94t103.5 37q35 0 61 -15.5t41.5 -37t28.5 -43.5t29.5 -37.5t36.5 -15.5q70 0 176 106q-78 730 -129 981q-15 76 -50 88.5t-101 -30.5l-23 -15l-27 33q98 109 203.5 172.5t192.5 63.5q85 0 135 -45.5t76 -153.5z" />
    <glyph glyph-name="z" unicode="z" horiz-adv-x="987" 
d="M573 -35q-53 0 -116 27t-111 59t-108.5 59t-110.5 27q-70 0 -152 -149h-10l-59 55v10q84 58 168 137l604 545q-87 1 -269 34.5t-247 33.5q-39 0 -39 -27q0 -10 26.5 -19t57.5 -17t57.5 -32.5t26.5 -62.5q0 -45 -29 -72.5t-80 -27.5q-62 0 -98.5 40.5t-36.5 104.5
q0 63 33 135.5t87 134.5t133.5 103t162.5 41q60 0 125.5 -26.5t111 -58.5t95 -58.5t82.5 -26.5q22 0 43 12t43.5 40.5t31.5 41t31 47.5h8l56 -47v-8q-94 -82 -205 -184l-529 -476q68 -4 203 -29.5t193 -25.5q68 0 95.5 18t74.5 95l36 -17q-90 -222 -179 -329t-206 -107z" />
    <glyph glyph-name="braceleft" unicode="{" horiz-adv-x="702" 
d="M541 -270q-27 5 -78 14q-66 12 -97.5 18t-80.5 18t-72 23.5t-48.5 29.5t-35.5 41.5t-10 53.5q0 57 47 173t94 229.5t47 165.5q0 43 -43.5 75.5t-154.5 63.5l8 47q150 9 205 49.5t55 124.5q0 48 -29 210t-29 206q0 131 121 180t406 57l-6 -30q-116 -16 -180 -37.5t-91 -52
t-30 -80.5q-4 -71 4 -234.5t6 -216.5q-2 -67 -32.5 -106t-103.5 -62.5t-210 -38.5v-4q148 -42 204 -84.5t56 -120.5q0 -47 -64.5 -267t-64.5 -286q0 -77 215 -127z" />
    <glyph glyph-name="bar" unicode="|" horiz-adv-x="395" 
d="M164 -266v1769h67v-1769h-67z" />
    <glyph glyph-name="braceright" unicode="}" horiz-adv-x="702" 
d="M182 1509q27 -5 78 -14q66 -12 97.5 -18t80.5 -18t72 -23.5t48.5 -29.5t35.5 -41.5t10 -53.5q0 -57 -47 -173t-94 -229.5t-47 -165.5q0 -43 43.5 -75.5t154.5 -63.5l-8 -47q-150 -9 -205 -49.5t-55 -124.5q0 -47 28.5 -209t28.5 -207q0 -131 -120.5 -180t-405.5 -57l6 30
q116 16 180 37.5t91 52t30 80.5q4 71 -4 234.5t-6 216.5q2 67 32.5 106t103.5 62.5t210 38.5v4q-148 42 -204 84.5t-56 120.5q0 47 64.5 267t64.5 286q0 77 -215 127z" />
    <glyph glyph-name="asciitilde" unicode="~" horiz-adv-x="780" 
d="M63 424l-22 14q72 166 124 231.5t132 65.5q49 0 172.5 -29.5t161.5 -29.5q33 0 58.5 23t66.5 81l24 -14q-35 -83 -61 -133.5t-56.5 -90.5t-63.5 -56.5t-75 -16.5q-71 0 -186 29.5t-148 29.5t-58.5 -23t-68.5 -81z" />
    <glyph glyph-name="uni00A0" unicode="&#xa0;" horiz-adv-x="378" 
 />
    <glyph glyph-name="exclamdown" unicode="&#xa1;" horiz-adv-x="610" 
d="M377 786l74 -684q17 -156 -50 -230.5t-200 -74.5q-92 0 -152.5 42.5t-73.5 124.5t48 202l317 620h37zM596 1059q0 -79 -58 -137t-137 -58t-136.5 57.5t-57.5 137.5q0 79 57.5 136.5t136.5 57.5q80 0 137.5 -57.5t57.5 -136.5z" />
    <glyph glyph-name="cent" unicode="&#xa2;" horiz-adv-x="1032" 
d="M436 -25q-196 0 -301.5 99.5t-105.5 281.5q0 141 52 274t137.5 232t201 164t239.5 76l29 155h64l-29 -153q157 -3 250.5 -62t93.5 -153q0 -67 -40.5 -103t-113.5 -36q-70 0 -108 48.5t-51 159.5q-5 43 -13 61.5t-28 24.5l-156 -890q12 -2 41 -2q76 0 159.5 36t151.5 101
l27 -27q-71 -109 -177.5 -183t-232.5 -95l-30 -183h-64l31 176q-5 0 -14 -1t-13 -1zM422 385q0 -163 76 -211l151 864q-80 -45 -153.5 -245t-73.5 -408z" />
    <glyph glyph-name="sterling" unicode="&#xa3;" horiz-adv-x="1134" 
d="M88 711l12 65h105q-41 152 -41 219q0 92 36 171.5t107 142.5t187 99t264 36q217 0 333.5 -67.5t116.5 -176.5q0 -73 -44 -117.5t-124 -44.5q-96 0 -139.5 61.5t-52.5 196.5q-3 53 -18 74t-56 21q-55 0 -94.5 -59.5t-56.5 -164.5q-10 -67 -15 -204t-10 -187h305l-12 -65
h-303q-13 -76 -48.5 -138t-90 -108t-111.5 -78.5t-133 -64.5v-7h647q61 0 97 30t85 132h37l-90 -477h-1051l35 201q55 37 83.5 57t68.5 51t59.5 53.5t40.5 52t29 59.5t8 65q0 58 -31 172h-135z" />
    <glyph glyph-name="yen" unicode="&#xa5;" horiz-adv-x="1280" 
d="M115 653l10 62h303l-184 485q-39 103 -56.5 131.5t-52.5 40.5l-37 12l6 35h787l-6 -35l-49 -12q-69 -18 -94 -39t-25 -67q0 -54 33 -152l124 -360h7l276 385q72 107 72 155q0 30 -21 47t-69 31l-43 12l6 35h395l-6 -35l-18 -10q-59 -32 -95 -67t-100 -123l-340 -469h299
l-12 -62h-316l-24 -141h315l-12 -61h-316l-41 -236q-9 -49 -10 -76t11 -45t29.5 -26.5t56.5 -18.5l55 -14l-6 -35h-809l6 35l57 14q81 20 102.5 45.5t38.5 120.5l41 236h-325l12 61h326l24 141h-325z" />
    <glyph glyph-name="brokenbar" unicode="&#xa6;" horiz-adv-x="395" 
d="M231 1503v-841h-67v841h67zM164 -266v794h67v-794h-67z" />
    <glyph glyph-name="section" unicode="&#xa7;" horiz-adv-x="1222" 
d="M844 119q39 -83 39 -168q0 -162 -131 -266.5t-342 -104.5q-184 0 -282.5 64.5t-98.5 150.5q0 62 37.5 94.5t99.5 32.5t102 -39.5t68 -140.5q17 -61 44 -84t77 -23q58 0 91.5 35t33.5 84q0 43 -18 79.5t-75.5 99t-179.5 173.5q-129 118 -171 165q-107 128 -109 253
q0 139 98.5 233t251.5 140q-39 74 -39 168q0 162 131 266.5t342 104.5q184 0 282.5 -64.5t98.5 -150.5q0 -62 -37.5 -94.5t-99.5 -32.5q-63 0 -102.5 39.5t-67.5 140.5q-17 60 -44 83t-77 23q-59 0 -92 -34.5t-33 -83.5q0 -43 17.5 -79.5t75.5 -99.5t179 -174
q129 -118 168 -162q108 -121 113 -242v-13q0 -139 -98.5 -233t-251.5 -140zM819 164q31 13 48.5 43.5t17.5 64.5q0 54 -47 118t-193 198q-180 162 -242 264q-31 -13 -48 -44t-17 -65q0 -54 47 -117.5t193 -197.5q179 -165 241 -264z" />
    <glyph glyph-name="dieresis" unicode="&#xa8;" 
d="M322 1167q-81 0 -132 48.5t-51 125.5t51 127t132 50t132.5 -50t51.5 -127t-51 -125.5t-133 -48.5zM754 1167q-81 0 -132 48.5t-51 125.5t51 127t132 50t132.5 -50t51.5 -127t-51 -125.5t-133 -48.5z" />
    <glyph glyph-name="copyright" unicode="&#xa9;" horiz-adv-x="1576" 
d="M840 270q-204 0 -330.5 116.5t-126.5 324.5q0 92 26 168.5t70.5 129t105 89t129.5 53t144 16.5q136 0 242 -28l14 -267h-35q-57 105 -110 170q-61 72 -123 72q-85 0 -117.5 -86.5t-32.5 -290.5q0 -168 16 -256t50 -121.5t98 -33.5q79 0 139 88q29 42 93 170h34l-16 -265
q-121 -49 -270 -49zM90 705q0 151 56.5 286.5t153.5 234t233 156.5t288 58t288 -58t233 -156.5t153.5 -234t56.5 -286.5q0 -201 -95.5 -369.5t-264 -266.5t-371.5 -98t-371.5 98t-264 266.5t-95.5 369.5zM160 705q0 -184 85 -338.5t237.5 -246t338.5 -91.5t338.5 91.5
t237 246t84.5 338.5q0 138 -50 262.5t-136.5 215.5t-210 145t-263.5 54q-186 0 -338.5 -91.5t-237.5 -246.5t-85 -339z" />
    <glyph glyph-name="ordfeminine" unicode="&#xaa;" horiz-adv-x="1054" 
d="M305 526q-95 0 -154 67t-59 187q0 127 42 246t115.5 209.5t181.5 145.5t231 55q138 0 258 -88h6l145 86l31 -9q-31 -84 -72 -254l-72 -403q-2 -16 -2 -35q0 -27 19.5 -29.5t48.5 17.5l41 27l25 -31q-83 -97 -171.5 -144t-170.5 -47q-68 0 -105 32t-37 95q0 28 8 64h-6
q-131 -191 -303 -191zM496 707q60 0 120 79l103 541q-5 27 -20.5 44.5t-39.5 17.5q-56 0 -110 -95t-85.5 -232t-31.5 -263q0 -47 18 -69.5t46 -22.5z" />
    <glyph glyph-name="guillemotleft" unicode="&#xab;" horiz-adv-x="839" 
d="M649 113l-284 409v10l438 390h37l-232 -392l78 -417h-37zM322 113l-285 409v10l438 390h37l-231 -392l77 -417h-36z" />
    <glyph glyph-name="registered" unicode="&#xae;" horiz-adv-x="823" 
d="M141 1065q0 155 104.5 262t260.5 107t262 -107t106 -262t-106 -263t-262 -108q-155 0 -260 108t-105 263zM195 1065q0 -133 88.5 -228.5t222.5 -95.5q132 0 223.5 96t91.5 228t-91.5 226.5t-223.5 94.5q-134 0 -222.5 -94t-88.5 -227zM303 879v22l19 4q15 3 19.5 10.5
t4.5 34.5v242q0 28 -4 35t-20 10l-19 2v25h201q92 0 134 -25.5t42 -77.5q0 -39 -16 -61t-52 -33v-2q28 -70 76 -141q9 -14 27 -21l6 -2v-22h-141q-44 58 -80 159h-29v-88q0 -26 5 -34t18 -11l18 -4v-22h-209zM471 1071q10 -2 23 -2q33 0 47 18t14 64q0 47 -10.5 63.5
t-42.5 16.5q-23 0 -31 -4v-156z" />
    <glyph glyph-name="macron" unicode="&#xaf;" 
d="M229 1257l29 142h576l-27 -142h-578z" />
    <glyph glyph-name="degree" unicode="&#xb0;" horiz-adv-x="505" 
d="M129 1210q0 98 66 165t167 67q102 0 168 -67t66 -165q0 -99 -66 -166t-168 -67t-167.5 67t-65.5 166zM197 1210q0 -77 45.5 -125.5t119.5 -48.5q75 0 120.5 48.5t45.5 125.5q0 76 -46 124t-120 48t-119.5 -48t-45.5 -124z" />
    <glyph glyph-name="twosuperior" unicode="&#xb2;" horiz-adv-x="724" 
d="M37 612l26 148q132 79 199 135q116 94 175 203t59 202q0 91 -47 91q-42 0 -48 -68q-10 -95 -45.5 -132.5t-107.5 -37.5q-53 0 -83 27.5t-30 76.5q0 80 87.5 127.5t238.5 47.5q164 0 251 -59t87 -159q0 -54 -22.5 -98.5t-63 -80.5t-109.5 -70.5t-149 -64t-195 -64.5v-5
h352q42 0 63.5 18t61.5 85h31l-70 -322h-661z" />
    <glyph glyph-name="threesuperior" unicode="&#xb3;" horiz-adv-x="716" 
d="M336 594q-142 0 -214.5 45t-72.5 115q0 42 27 71t69 29q71 0 97.5 -35.5t36.5 -124.5q3 -30 12.5 -42.5t32.5 -12.5q42 0 71 67.5t29 174.5q0 68 -26 99.5t-85 31.5h-49l8 47h41q97 0 141 57t44 178q0 101 -62 101q-42 0 -53 -66q-13 -80 -47.5 -112.5t-95.5 -32.5
q-54 0 -81.5 26t-27.5 68q0 68 71.5 112t225.5 44q167 0 265 -53t98 -150q0 -57 -35.5 -95.5t-87 -56t-121.5 -22.5v-6q213 -25 213 -193q0 -118 -110 -191t-314 -73z" />
    <glyph glyph-name="acute" unicode="&#xb4;" 
d="M688 1241l-393 -61l-8 20l243 264q32 34 62.5 49t71.5 15q57 0 98 -46.5t41 -109.5q0 -49 -28.5 -86t-86.5 -45z" />
    <glyph glyph-name="paragraph" unicode="&#xb6;" horiz-adv-x="960" 
d="M360 -205l152 869q-35 -5 -68 -5q-89 0 -159 27.5t-112.5 74t-64.5 104t-22 122.5q0 191 121.5 311.5t329.5 120.5h569l-6 -35l-53 -12q-36 -8 -51 -13.5t-30 -24t-21.5 -46t-16.5 -84.5l-248 -1409h-82l274 1551h-157l-275 -1551h-80z" />
    <glyph glyph-name="periodcentered" unicode="&#xb7;" horiz-adv-x="491" 
d="M63 686q0 80 57 137.5t136 57.5q80 0 137.5 -57.5t57.5 -137.5q0 -79 -57.5 -135.5t-137.5 -56.5t-136.5 56.5t-56.5 135.5z" />
    <glyph glyph-name="cedilla" unicode="&#xb8;" 
d="M123 -385q82 17 127 47.5t45 69.5q0 48 -66 53l-6 14l123 201h74l-68 -82q77 -9 117.5 -43.5t40.5 -89.5t-36.5 -95.5t-98.5 -61t-124 -30t-134 -12.5z" />
    <glyph glyph-name="onesuperior" unicode="&#xb9;" horiz-adv-x="552" 
d="M29 612l6 31l41 12q49 15 61 30.5t23 74.5l76 446l-107 43l6 25q254 29 445 170l22 -10l-117 -680q-10 -54 -1 -70t61 -31l33 -10l-7 -31h-542z" />
    <glyph glyph-name="ordmasculine" unicode="&#xba;" horiz-adv-x="962" 
d="M496 528q-197 0 -300.5 100.5t-103.5 256.5q0 122 43.5 227.5t116.5 176.5t168 111t198 40q197 0 300.5 -100.5t103.5 -256.5q0 -122 -43.5 -227.5t-116.5 -176.5t-168 -111t-198 -40zM494 573q59 0 106.5 112t70.5 262.5t23 293.5q0 82 -16 119t-57 37
q-59 0 -106.5 -112t-71 -262.5t-23.5 -293.5q0 -81 16.5 -118.5t57.5 -37.5z" />
    <glyph glyph-name="guillemotright" unicode="&#xbb;" horiz-adv-x="839" 
d="M182 922l285 -410v-10l-438 -389h-37l231 391l-78 418h37zM510 922l285 -410v-10l-439 -389h-37l232 391l-78 418h37z" />
    <glyph glyph-name="onequarter" unicode="&#xbc;" horiz-adv-x="1597" 
d="M141 -102l1313 1564h80l-1309 -1564h-84zM29 612l6 31l41 12q49 15 61 30.5t23 74.5l76 446l-107 43l6 25q254 29 445 170l22 -10l-117 -680q-10 -54 -1 -70t61 -31l33 -10l-7 -31h-542zM973 0l6 31l45 12q52 15 62.5 27t19.5 65l14 86h-342l13 70l499 516h242l-84 -490
h119l-23 -96h-112l-13 -71q-12 -63 -4 -80.5t51 -28.5l41 -10l-6 -31h-528zM899 317h238l53 299h-8l-283 -290v-9z" />
    <glyph glyph-name="onehalf" unicode="&#xbd;" horiz-adv-x="1638" 
d="M29 612l6 31l41 12q49 15 61 30.5t23 74.5l76 446l-107 43l6 25q254 29 445 170l22 -10l-117 -680q-10 -54 -1 -70t61 -31l33 -10l-7 -31h-542zM80 -102l1313 1564h80l-1309 -1564h-84zM844 0l26 147q128 77 199 136q116 94 175 203t59 202q0 90 -48 90q-41 0 -47 -67
q-10 -95 -45.5 -132.5t-107.5 -37.5q-53 0 -83 27.5t-30 76.5q0 80 87.5 127t238.5 47q164 0 251 -58.5t87 -158.5q0 -54 -22.5 -98.5t-63 -81t-109 -71t-149 -64t-195.5 -64.5v-4h352q42 0 63.5 18t61.5 85h31l-70 -322h-661z" />
    <glyph glyph-name="threequarters" unicode="&#xbe;" horiz-adv-x="1638" 
d="M973 0l6 31l45 12q52 15 62.5 27t19.5 65l14 86h-342l13 70l499 516h242l-84 -490h119l-23 -96h-112l-13 -71q-12 -63 -4 -80.5t51 -28.5l41 -10l-6 -31h-528zM899 317h238l53 299h-8l-283 -290v-9zM154 -102l1312 1564h80l-1308 -1564h-84zM336 594q-142 0 -214.5 45
t-72.5 115q0 42 27 71t69 29q71 0 97.5 -35.5t36.5 -124.5q3 -30 12.5 -42.5t32.5 -12.5q42 0 71 67.5t29 174.5q0 68 -26 99.5t-85 31.5h-49l8 47h41q97 0 141 57t44 178q0 101 -62 101q-42 0 -53 -66q-13 -80 -47.5 -112.5t-95.5 -32.5q-54 0 -81.5 26t-27.5 68
q0 68 71.5 112t225.5 44q167 0 265 -53t98 -150q0 -57 -35.5 -95.5t-87 -56t-121.5 -22.5v-6q213 -25 213 -193q0 -118 -110 -191t-314 -73z" />
    <glyph glyph-name="questiondown" unicode="&#xbf;" horiz-adv-x="925" 
d="M760 778l-72 -411q-177 -43 -257.5 -129t-80.5 -232q0 -75 25 -115.5t69 -40.5q32 0 48.5 25t25.5 82q18 115 63.5 161t127.5 46q79 0 120 -39.5t41 -101.5q0 -98 -93.5 -162t-270.5 -64q-233 0 -366.5 98t-133.5 261q0 427 660 512l20 110h74zM936 1061q0 -79 -58 -137
t-137 -58t-136.5 57.5t-57.5 137.5q0 79 57.5 136.5t136.5 57.5q80 0 137.5 -57.5t57.5 -136.5z" />
    <glyph glyph-name="Agrave" unicode="&#xc0;" horiz-adv-x="1384" 
d="M-115 0l6 35l15 6q41 17 58.5 27t43 35.5t49 63.5t64.5 112l641 1140h254l172 -1157q13 -89 23.5 -127.5t24.5 -55t46 -32.5l25 -12l-7 -35h-739l6 35l54 14q57 17 76 38t22 67q4 63 -10 178l-17 119h-387l-65 -121q-84 -154 -84 -201q0 -32 19.5 -50t66.5 -32l41 -12
l-7 -35h-391zM1128 1501l-8 -20l-385 53q-60 8 -93.5 43t-33.5 90q0 64 42 109t104 45q66 0 125 -62zM614 1018l-272 -498h342l-59 498h-11z" />
    <glyph glyph-name="Aacute" unicode="&#xc1;" horiz-adv-x="1384" 
d="M-115 0l6 35l15 6q41 17 58.5 27t43 35.5t49 63.5t64.5 112l641 1140h254l172 -1157q13 -89 23.5 -127.5t24.5 -55t46 -32.5l25 -12l-7 -35h-739l6 35l54 14q57 17 76 38t22 67q4 63 -10 178l-17 119h-387l-65 -121q-84 -154 -84 -201q0 -32 19.5 -50t66.5 -32l41 -12
l-7 -35h-391zM670 1481l-8 20l249 258q59 62 125 62q62 0 104 -45t42 -109q0 -55 -33.5 -90t-93.5 -43zM614 1018l-272 -498h342l-59 498h-11z" />
    <glyph glyph-name="Acircumflex" unicode="&#xc2;" horiz-adv-x="1384" 
d="M-115 0l6 35l15 6q41 17 58.5 27t43 35.5t49 63.5t64.5 112l641 1140h254l172 -1157q13 -89 23.5 -127.5t24.5 -55t46 -32.5l25 -12l-7 -35h-739l6 35l54 14q57 17 76 38t22 67q4 63 -10 178l-17 119h-387l-65 -121q-84 -154 -84 -201q0 -32 19.5 -50t66.5 -32l41 -12
l-7 -35h-391zM539 1462l-11 23l334 303h129l219 -307l-14 -19l-291 99zM614 1018l-272 -498h342l-59 498h-11z" />
    <glyph glyph-name="Atilde" unicode="&#xc3;" horiz-adv-x="1384" 
d="M-115 0l6 35l15 6q41 17 58.5 27t43 35.5t49 63.5t64.5 112l641 1140h254l172 -1157q13 -89 23.5 -127.5t24.5 -55t46 -32.5l25 -12l-7 -35h-739l6 35l54 14q57 17 76 38t22 67q4 63 -10 178l-17 119h-387l-65 -121q-84 -154 -84 -201q0 -32 19.5 -50t66.5 -32l41 -12
l-7 -35h-391zM594 1448l-29 14q64 143 124 215t130 72q53 0 172 -20.5t160 -20.5q35 0 57 18t64 72l26 -14q-66 -150 -119.5 -218.5t-129.5 -68.5q-52 0 -170.5 19.5t-159.5 19.5q-37 0 -61 -18t-64 -70zM614 1018l-272 -498h342l-59 498h-11z" />
    <glyph glyph-name="Adieresis" unicode="&#xc4;" horiz-adv-x="1384" 
d="M-115 0l6 35l15 6q41 17 58.5 27t43 35.5t49 63.5t64.5 112l641 1140h254l172 -1157q13 -89 23.5 -127.5t24.5 -55t46 -32.5l25 -12l-7 -35h-739l6 35l54 14q57 17 76 38t22 67q4 63 -10 178l-17 119h-387l-65 -121q-84 -154 -84 -201q0 -32 19.5 -50t66.5 -32l41 -12
l-7 -35h-391zM692 1473q-81 0 -131.5 48.5t-50.5 125.5t50.5 126.5t131.5 49.5t133 -49.5t52 -126.5t-51.5 -125.5t-133.5 -48.5zM1124 1473q-81 0 -131.5 48.5t-50.5 125.5t50.5 126.5t131.5 49.5t133 -49.5t52 -126.5t-51.5 -125.5t-133.5 -48.5zM614 1018l-272 -498h342
l-59 498h-11z" />
    <glyph glyph-name="Aring" unicode="&#xc5;" horiz-adv-x="1384" 
d="M-115 0l6 35l15 6q41 17 58.5 27t43 35.5t49 63.5t64.5 112l641 1140h254l172 -1157q13 -89 23.5 -127.5t24.5 -55t46 -32.5l25 -12l-7 -35h-739l6 35l54 14q57 17 76 38t22 67q4 63 -10 178l-17 119h-387l-65 -121q-84 -154 -84 -201q0 -32 19.5 -50t66.5 -32l41 -12
l-7 -35h-391zM707 1657q0 83 55 135.5t139 52.5t140.5 -53t56.5 -135q0 -78 -57 -132.5t-140 -54.5q-84 0 -139 52t-55 135zM614 1018l-272 -498h342l-59 498h-11zM770 1657q0 -59 35.5 -97t95.5 -38t96.5 38.5t36.5 96.5t-36.5 96.5t-96.5 38.5t-95.5 -38t-35.5 -97z" />
    <glyph glyph-name="AE" unicode="&#xc6;" horiz-adv-x="1869" 
d="M1890 1419l-49 -465h-35q-41 163 -88 271q-34 79 -78.5 106t-138.5 27q-95 0 -153 -12l-101 -578h47q84 0 115.5 13.5t60.5 52.5q34 47 105 184h33l-103 -576h-32q-3 15 -9.5 56t-12 70.5t-11.5 52.5q-13 47 -46.5 64t-109.5 17h-49l-88 -495q-15 -91 15.5 -119.5
t140.5 -28.5q96 0 151 31.5t125 124.5q75 97 197 309h39l-117 -524h-1198l8 35l51 14q38 11 51.5 16t29.5 22.5t23 45t17 82.5l41 236h-381l-102 -154q-31 -48 -45 -70.5t-27.5 -54t-13.5 -53.5q0 -51 77 -72l41 -12l-8 -35h-418l9 35l38 14q74 28 113.5 65t118.5 154
l725 1063q-16 24 -76 39l-57 14l6 35h1169zM848 1208l-465 -692h348l123 692h-6z" />
    <glyph glyph-name="Ccedilla" unicode="&#xc7;" horiz-adv-x="1298" 
d="M352 -385q82 17 127 47.5t45 69.5q0 48 -65 53l-6 14l114 187q-238 35 -367.5 185.5t-129.5 389.5q0 166 50 309.5t137 247.5t203 178.5t249.5 111t275.5 36.5q104 0 199 -15.5t151 -39.5l-45 -471h-37q-53 169 -112 296q-43 94 -85 133t-100 39q-77 0 -147.5 -73.5
t-120 -189t-87 -256t-55.5 -277t-18 -248.5q0 -307 211 -307q68 0 125.5 40.5t120.5 121.5q75 94 205 313h37l-105 -471q-185 -64 -407 -64q-17 0 -84 5l-49 -62q76 -9 116.5 -43t40.5 -90q0 -55 -36.5 -95.5t-98.5 -61t-124 -30t-134 -12.5z" />
    <glyph glyph-name="Egrave" unicode="&#xc8;" horiz-adv-x="1302" 
d="M1038 1501l-8 -20l-385 53q-60 8 -93.5 43t-33.5 90q0 64 42 109t104 45q65 0 124 -62zM-70 0l7 35l53 14q26 7 36 10.5t25 11.5t20 16.5t13.5 27t13 41t11.5 59.5l174 989q17 100 8 124.5t-68 41.5l-49 14l6 35h1143l-49 -465h-35q-51 183 -88 271q-34 79 -78.5 106
t-140.5 27q-98 0 -156 -12l-100 -578h51q84 0 115.5 13.5t60.5 52.5q34 47 105 184h32l-102 -576h-33q-3 15 -9.5 56t-12 70.5t-11.5 52.5q-13 47 -46 64t-109 17h-53l-89 -503q-15 -85 15.5 -112.5t140.5 -27.5q98 0 155.5 32.5t125.5 123.5q85 112 196 309h39l-117 -524
h-1200z" />
    <glyph glyph-name="Eacute" unicode="&#xc9;" horiz-adv-x="1302" 
d="M610 1481l-8 20l250 258q59 62 125 62q62 0 103.5 -45t41.5 -109q0 -55 -33.5 -90t-93.5 -43zM-70 0l7 35l53 14q26 7 36 10.5t25 11.5t20 16.5t13.5 27t13 41t11.5 59.5l174 989q17 100 8 124.5t-68 41.5l-49 14l6 35h1143l-49 -465h-35q-51 183 -88 271
q-34 79 -78.5 106t-140.5 27q-98 0 -156 -12l-100 -578h51q84 0 115.5 13.5t60.5 52.5q34 47 105 184h32l-102 -576h-33q-3 15 -9.5 56t-12 70.5t-11.5 52.5q-13 47 -46 64t-109 17h-53l-89 -503q-15 -85 15.5 -112.5t140.5 -27.5q98 0 155.5 32.5t125.5 123.5
q85 112 196 309h39l-117 -524h-1200z" />
    <glyph glyph-name="Ecircumflex" unicode="&#xca;" horiz-adv-x="1302" 
d="M492 1479l-11 22l334 303h129l219 -307l-14 -18l-291 98zM-70 0l7 35l53 14q26 7 36 10.5t25 11.5t20 16.5t13.5 27t13 41t11.5 59.5l174 989q17 100 8 124.5t-68 41.5l-49 14l6 35h1143l-49 -465h-35q-51 183 -88 271q-34 79 -78.5 106t-140.5 27q-98 0 -156 -12
l-100 -578h51q84 0 115.5 13.5t60.5 52.5q34 47 105 184h32l-102 -576h-33q-3 15 -9.5 56t-12 70.5t-11.5 52.5q-13 47 -46 64t-109 17h-53l-89 -503q-15 -85 15.5 -112.5t140.5 -27.5q98 0 155.5 32.5t125.5 123.5q85 112 196 309h39l-117 -524h-1200z" />
    <glyph glyph-name="Edieresis" unicode="&#xcb;" horiz-adv-x="1302" 
d="M-70 0l7 35l53 14q26 7 36 10.5t25 11.5t20 16.5t13.5 27t13 41t11.5 59.5l174 989q17 100 8 124.5t-68 41.5l-49 14l6 35h1143l-49 -465h-35q-51 183 -88 271q-34 79 -78.5 106t-140.5 27q-98 0 -156 -12l-100 -578h51q84 0 115.5 13.5t60.5 52.5q34 47 105 184h32
l-102 -576h-33q-3 15 -9.5 56t-12 70.5t-11.5 52.5q-13 47 -46 64t-109 17h-53l-89 -503q-15 -85 15.5 -112.5t140.5 -27.5q98 0 155.5 32.5t125.5 123.5q85 112 196 309h39l-117 -524h-1200zM604 1473q-81 0 -131.5 48.5t-50.5 125.5t50.5 126.5t131.5 49.5t132.5 -49.5
t51.5 -126.5t-51 -125.5t-133 -48.5zM1036 1473q-81 0 -131.5 48.5t-50.5 125.5t50.5 126.5t131.5 49.5t133 -49.5t52 -126.5t-51.5 -125.5t-133.5 -48.5z" />
    <glyph glyph-name="Igrave" unicode="&#xcc;" horiz-adv-x="774" 
d="M109 215l174 989q17 100 8 124.5t-68 41.5l-49 14l6 35h740l-7 -35l-51 -14q-41 -11 -57.5 -22.5t-28 -41.5t-24.5 -102l-174 -989q-8 -44 -10.5 -68.5t-2.5 -43t9 -27.5t20 -14.5t35 -12.5l47 -14l-6 -35h-740l7 35l53 14q26 7 36 10.5t25 11.5t20 16.5t13.5 27t13 41
t11.5 59.5zM805 1501l-8 -20l-385 53q-60 8 -93.5 43t-33.5 90q0 64 41.5 109t103.5 45q66 0 125 -62z" />
    <glyph glyph-name="Iacute" unicode="&#xcd;" horiz-adv-x="774" 
d="M109 215l174 989q17 100 8 124.5t-68 41.5l-49 14l6 35h740l-7 -35l-51 -14q-41 -11 -57.5 -22.5t-28 -41.5t-24.5 -102l-174 -989q-8 -44 -10.5 -68.5t-2.5 -43t9 -27.5t20 -14.5t35 -12.5l47 -14l-6 -35h-740l7 35l53 14q26 7 36 10.5t25 11.5t20 16.5t13.5 27t13 41
t11.5 59.5zM369 1481l-9 20l250 258q59 62 125 62q62 0 104 -45t42 -109q0 -55 -33.5 -90t-93.5 -43z" />
    <glyph glyph-name="Icircumflex" unicode="&#xce;" horiz-adv-x="774" 
d="M109 215l174 989q17 100 8 124.5t-68 41.5l-49 14l6 35h740l-7 -35l-51 -14q-41 -11 -57.5 -22.5t-28 -41.5t-24.5 -102l-174 -989q-8 -44 -10.5 -68.5t-2.5 -43t9 -27.5t20 -14.5t35 -12.5l47 -14l-6 -35h-740l7 35l53 14q26 7 36 10.5t25 11.5t20 16.5t13.5 27t13 41
t11.5 59.5zM229 1479l-10 22l334 303h129l219 -307l-14 -18l-291 98z" />
    <glyph glyph-name="Idieresis" unicode="&#xcf;" horiz-adv-x="774" 
d="M109 215l174 989q17 100 8 124.5t-68 41.5l-49 14l6 35h740l-7 -35l-51 -14q-41 -11 -57.5 -22.5t-28 -41.5t-24.5 -102l-174 -989q-8 -44 -10.5 -68.5t-2.5 -43t9 -27.5t20 -14.5t35 -12.5l47 -14l-6 -35h-740l7 35l53 14q26 7 36 10.5t25 11.5t20 16.5t13.5 27t13 41
t11.5 59.5zM362 1473q-81 0 -131.5 48.5t-50.5 125.5t50.5 126.5t131.5 49.5t133 -49.5t52 -126.5t-51.5 -125.5t-133.5 -48.5zM795 1473q-81 0 -132 48.5t-51 125.5t51 126.5t132 49.5t132.5 -49.5t51.5 -126.5t-51 -125.5t-133 -48.5z" />
    <glyph glyph-name="Eth" unicode="&#xd0;" horiz-adv-x="1515" 
d="M72 676l12 65h117l82 463q8 42 10 64.5t1.5 41.5t-10 29t-23 17t-38.5 14l-49 14l6 35h694q335 0 492.5 -132t157.5 -433q0 -193 -65.5 -354.5t-180 -270.5t-271.5 -169t-337 -60h-740l7 35l53 14q26 7 36 10.5t25 11.5t20 16.5t13.5 27t13 41t11.5 59.5l79 461h-116z
M659 59q78 0 150.5 73t127 198.5t87.5 304.5t33 379q0 173 -47.5 258.5t-153.5 85.5q-40 0 -80 -12l-106 -605h215l-13 -65h-213l-86 -490q-12 -72 7.5 -99.5t78.5 -27.5z" />
    <glyph glyph-name="Ntilde" unicode="&#xd1;" horiz-adv-x="1366" 
d="M604 1481l-29 14q64 143 124 215t130 72q53 0 172 -20.5t160 -20.5q35 0 57 18t64 72l27 -14q-66 -150 -120 -218.5t-130 -68.5q-52 0 -170.5 19.5t-159.5 19.5q-37 0 -61 -18t-64 -70zM1163 686l92 518q16 94 3 123t-74 43l-64 14l6 35h385l-8 -35l-51 -12
q-63 -13 -81.5 -39.5t-37.5 -128.5l-219 -1204h-123l-620 1194h-9l-176 -979q-17 -95 -5 -123t77 -43l64 -14l-7 -35h-385l9 35l51 12q42 9 62 24t32.5 46t24.5 98l174 989q15 93 3.5 121.5t-63.5 44.5l-49 14l6 35h586l389 -733h8z" />
    <glyph glyph-name="Ograve" unicode="&#xd2;" horiz-adv-x="1503" 
d="M1118 1501l-8 -20l-385 53q-60 8 -93.5 43t-33.5 90q0 64 41.5 109t103.5 45q66 0 125 -62zM672 -27q-173 0 -312.5 75.5t-219 211.5t-79.5 307q0 193 65 358t177.5 278.5t265.5 177t326 63.5q178 0 316.5 -66.5t219 -199.5t80.5 -314q0 -209 -68.5 -380.5t-185 -281.5
t-267 -169.5t-318.5 -59.5zM692 31q70 0 135.5 79t113.5 211t77 314.5t29 380.5q0 201 -41 287t-125 86q-101 0 -185 -145.5t-130 -373t-46 -477.5q0 -193 40.5 -277.5t131.5 -84.5z" />
    <glyph glyph-name="Oacute" unicode="&#xd3;" horiz-adv-x="1503" 
d="M692 1481l-8 20l250 258q59 62 125 62q62 0 103.5 -45t41.5 -109q0 -55 -33.5 -90t-93.5 -43zM672 -27q-173 0 -312.5 75.5t-219 211.5t-79.5 307q0 193 65 358t177.5 278.5t265.5 177t326 63.5q178 0 316.5 -66.5t219 -199.5t80.5 -314q0 -209 -68.5 -380.5t-185 -281.5
t-267 -169.5t-318.5 -59.5zM692 31q70 0 135.5 79t113.5 211t77 314.5t29 380.5q0 201 -41 287t-125 86q-101 0 -185 -145.5t-130 -373t-46 -477.5q0 -193 40.5 -277.5t131.5 -84.5z" />
    <glyph glyph-name="Ocircumflex" unicode="&#xd4;" horiz-adv-x="1503" 
d="M553 1479l-10 22l334 303h129l219 -307l-15 -18l-290 98zM672 -27q-173 0 -312.5 75.5t-219 211.5t-79.5 307q0 193 65 358t177.5 278.5t265.5 177t326 63.5q178 0 316.5 -66.5t219 -199.5t80.5 -314q0 -209 -68.5 -380.5t-185 -281.5t-267 -169.5t-318.5 -59.5zM692 31
q70 0 135.5 79t113.5 211t77 314.5t29 380.5q0 201 -41 287t-125 86q-101 0 -185 -145.5t-130 -373t-46 -477.5q0 -193 40.5 -277.5t131.5 -84.5z" />
    <glyph glyph-name="Otilde" unicode="&#xd5;" horiz-adv-x="1503" 
d="M612 1481l-28 14q64 143 124 215t130 72q53 0 171.5 -20.5t159.5 -20.5q35 0 57 18t64 72l27 -14q-66 -150 -120 -218.5t-130 -68.5q-52 0 -170.5 19.5t-159.5 19.5q-37 0 -61 -18t-64 -70zM672 -27q-173 0 -312.5 75.5t-219 211.5t-79.5 307q0 193 65 358t177.5 278.5
t265.5 177t326 63.5q178 0 316.5 -66.5t219 -199.5t80.5 -314q0 -209 -68.5 -380.5t-185 -281.5t-267 -169.5t-318.5 -59.5zM692 31q70 0 135.5 79t113.5 211t77 314.5t29 380.5q0 201 -41 287t-125 86q-101 0 -185 -145.5t-130 -373t-46 -477.5q0 -193 40.5 -277.5
t131.5 -84.5z" />
    <glyph glyph-name="Odieresis" unicode="&#xd6;" horiz-adv-x="1503" 
d="M707 1473q-81 0 -132 48.5t-51 125.5t51 126.5t132 49.5t132.5 -49.5t51.5 -126.5t-51 -125.5t-133 -48.5zM1139 1473q-81 0 -132 48.5t-51 125.5t51 126.5t132 49.5t132.5 -49.5t51.5 -126.5t-51 -125.5t-133 -48.5zM672 -27q-173 0 -312.5 75.5t-219 211.5t-79.5 307
q0 193 65 358t177.5 278.5t265.5 177t326 63.5q178 0 316.5 -66.5t219 -199.5t80.5 -314q0 -209 -68.5 -380.5t-185 -281.5t-267 -169.5t-318.5 -59.5zM692 31q70 0 135.5 79t113.5 211t77 314.5t29 380.5q0 201 -41 287t-125 86q-101 0 -185 -145.5t-130 -373t-46 -477.5
q0 -193 40.5 -277.5t131.5 -84.5z" />
    <glyph glyph-name="multiply" unicode="&#xd7;" horiz-adv-x="929" 
d="M190 1077l306 -321l307 321l49 -49l-307 -321l307 -322l-47 -49l-307 321l-308 -321l-49 49l308 322l-306 321z" />
    <glyph glyph-name="Oslash" unicode="&#xd8;" horiz-adv-x="1503" 
d="M221 -104h-80l146 198q-106 79 -166 202t-60 271q0 193 65 358t177.5 278.5t265.5 177t326 63.5q180 0 328 -74l92 125h80l-117 -158q110 -76 171.5 -196t61.5 -277q0 -209 -68.5 -380.5t-185 -281.5t-267 -169.5t-318.5 -59.5q-185 0 -332 86zM692 31q70 0 135.5 79
t113.5 211t77 314.5t29 380.5v4l-525 -715q7 -145 48.5 -209.5t121.5 -64.5zM881 1389q-100 0 -183.5 -142t-129.5 -365t-48 -470l522 712q-10 141 -50 203t-111 62z" />
    <glyph glyph-name="Ugrave" unicode="&#xd9;" horiz-adv-x="1388" 
d="M1233 1501l-8 -20l-385 53q-60 8 -93.5 43t-33.5 90q0 64 41.5 109t103.5 45q66 0 125 -62zM1151 401l143 803q15 89 2 121t-73 45l-64 14l6 35h377l-8 -35l-47 -12q-64 -17 -81.5 -43.5t-35.5 -124.5l-147 -825q-37 -206 -158.5 -306t-343.5 -100q-342 0 -492 135
t-96 433l121 663q9 50 11.5 75.5t-4.5 44.5t-20 27.5t-42 18.5l-41 14l6 35h729l-6 -35l-51 -14q-42 -11 -58.5 -22.5t-29 -42t-25.5 -101.5l-137 -747q-36 -191 29 -277t221 -86q141 0 213.5 75t101.5 232z" />
    <glyph glyph-name="Uacute" unicode="&#xda;" horiz-adv-x="1388" 
d="M786 1481l-8 20l250 258q59 62 125 62q62 0 103.5 -45t41.5 -109q0 -55 -33.5 -90t-93.5 -43zM1151 401l143 803q15 89 2 121t-73 45l-64 14l6 35h377l-8 -35l-47 -12q-64 -17 -81.5 -43.5t-35.5 -124.5l-147 -825q-37 -206 -158.5 -306t-343.5 -100q-342 0 -492 135
t-96 433l121 663q9 50 11.5 75.5t-4.5 44.5t-20 27.5t-42 18.5l-41 14l6 35h729l-6 -35l-51 -14q-42 -11 -58.5 -22.5t-29 -42t-25.5 -101.5l-137 -747q-36 -191 29 -277t221 -86q141 0 213.5 75t101.5 232z" />
    <glyph glyph-name="Ucircumflex" unicode="&#xdb;" horiz-adv-x="1388" 
d="M670 1479l-11 22l334 303h129l219 -307l-14 -18l-291 98zM1151 401l143 803q15 89 2 121t-73 45l-64 14l6 35h377l-8 -35l-47 -12q-64 -17 -81.5 -43.5t-35.5 -124.5l-147 -825q-37 -206 -158.5 -306t-343.5 -100q-342 0 -492 135t-96 433l121 663q9 50 11.5 75.5
t-4.5 44.5t-20 27.5t-42 18.5l-41 14l6 35h729l-6 -35l-51 -14q-42 -11 -58.5 -22.5t-29 -42t-25.5 -101.5l-137 -747q-36 -191 29 -277t221 -86q141 0 213.5 75t101.5 232z" />
    <glyph glyph-name="Udieresis" unicode="&#xdc;" horiz-adv-x="1388" 
d="M1151 401l143 803q15 89 2 121t-73 45l-64 14l6 35h377l-8 -35l-47 -12q-64 -17 -81.5 -43.5t-35.5 -124.5l-147 -825q-37 -206 -158.5 -306t-343.5 -100q-342 0 -492 135t-96 433l121 663q9 50 11.5 75.5t-4.5 44.5t-20 27.5t-42 18.5l-41 14l6 35h729l-6 -35l-51 -14
q-42 -11 -58.5 -22.5t-29 -42t-25.5 -101.5l-137 -747q-36 -191 29 -277t221 -86q141 0 213.5 75t101.5 232zM793 1473q-81 0 -132 48.5t-51 125.5t51 126.5t132 49.5t132.5 -49.5t51.5 -126.5t-51 -125.5t-133 -48.5zM1225 1473q-81 0 -132 48.5t-51 125.5t51 126.5
t132 49.5t132.5 -49.5t51.5 -126.5t-51 -125.5t-133 -48.5z" />
    <glyph glyph-name="Yacute" unicode="&#xdd;" horiz-adv-x="1347" 
d="M180 0l6 35l58 14q81 20 102.5 45.5t38.5 120.5l72 410l-197 575q-35 101 -53.5 130.5t-54.5 41.5l-37 12l6 35h784l-6 -35l-49 -12q-69 -18 -94 -39t-25 -67q0 -41 31 -152l121 -430h6l309 455q72 107 72 155q0 30 -21 47t-69 31l-43 12l6 35h395l-6 -35l-19 -10
q-58 -32 -93.5 -67t-100.5 -123l-395 -572l-70 -397q-9 -49 -10 -76t10.5 -45t29 -26.5t56.5 -18.5l55 -14l-6 -35h-809zM770 1481l-8 20l250 258q59 62 125 62q62 0 103.5 -45t41.5 -109q0 -55 -33.5 -90t-93.5 -43z" />
    <glyph glyph-name="Thorn" unicode="&#xde;" horiz-adv-x="1363" 
d="M727 1069l-149 -854q-8 -43 -10 -67t-1 -42t13 -27.5t26 -15t43 -12.5l72 -16l-6 -35h-785l7 35l53 14q35 9 49.5 14.5t30 23.5t22.5 45.5t17 82.5l174 989q17 100 8 124.5t-68 41.5l-49 14l6 35h742l-7 -35l-51 -14q-60 -17 -76.5 -41.5t-35.5 -124.5l-13 -63h105
q287 0 424 -93.5t137 -277.5q0 -209 -129.5 -333t-386.5 -124q-149 0 -234 33l9 33q142 4 209 130.5t67 389.5q0 180 -141 180q-41 0 -72 -10z" />
    <glyph glyph-name="germandbls" unicode="&#xdf;" horiz-adv-x="1361" 
d="M651 659q0 59 34.5 115t83.5 106t98 106.5t83.5 139t34.5 179.5q0 108 -35.5 155t-107.5 47q-73 0 -124 -73.5t-81 -239.5l-150 -887q-59 -348 -220.5 -536.5t-381.5 -188.5q-118 0 -181.5 41t-63.5 115q0 54 34.5 90.5t96.5 36.5q66 0 100 -36t51 -132q7 -53 31 -53
q28 0 42 57.5t50 296.5l145 969h-139l6 26l152 84l4 29q33 214 203 335.5t446 121.5q212 0 339.5 -80.5t127.5 -198.5q0 -68 -45.5 -121.5t-110 -86.5t-129 -61t-110 -59.5t-45.5 -68.5q0 -20 11.5 -38.5t37 -39t48.5 -36t65 -42t67 -43.5q49 -34 84.5 -65t71 -73.5
t54 -94.5t18.5 -111q0 -155 -132.5 -262t-355.5 -107q-153 0 -240.5 48t-87.5 131q0 49 32.5 82.5t94.5 33.5q61 0 93 -35t47 -118q9 -46 30 -67t64 -21q52 0 82.5 35.5t30.5 97.5q0 35 -12 66t-40 61t-49 48t-63 50q-2 2 -3 2.5t-3 2t-3.5 3t-3.5 2.5q-43 34 -66 55t-53 55
t-43.5 71.5t-13.5 80.5z" />
    <glyph glyph-name="agrave" unicode="&#xe0;" horiz-adv-x="1243" 
d="M274 -27q-120 0 -191 83t-71 229q0 160 57.5 310t154.5 261t232 177.5t283 66.5q77 0 155.5 -28.5t141.5 -72.5h8l181 99l26 -13q-43 -106 -84 -319l-98 -508q-6 -27 -6 -51q0 -34 25 -41.5t69 22.5l43 29l27 -33q-94 -99 -202.5 -155t-207.5 -56q-80 0 -124 39t-44 111
q0 30 4 70h-8q-156 -220 -371 -220zM516 168q32 0 73 34.5t66 82.5l138 684q-5 31 -24 51t-48 20q-68 0 -133.5 -124.5t-103.5 -294.5t-38 -314q0 -72 16.5 -105.5t53.5 -33.5zM993 1178l-393 61q-58 8 -86.5 45t-28.5 86q0 63 41.5 109.5t98.5 46.5q41 0 71 -15t62 -49
l243 -264z" />
    <glyph glyph-name="aacute" unicode="&#xe1;" horiz-adv-x="1243" 
d="M274 -27q-120 0 -191 83t-71 229q0 160 57.5 310t154.5 261t232 177.5t283 66.5q77 0 155.5 -28.5t141.5 -72.5h8l181 99l26 -13q-43 -106 -84 -319l-98 -508q-6 -27 -6 -51q0 -34 25 -41.5t69 22.5l43 29l27 -33q-94 -99 -202.5 -155t-207.5 -56q-80 0 -124 39t-44 111
q0 30 4 70h-8q-156 -220 -371 -220zM516 168q32 0 73 34.5t66 82.5l138 684q-5 31 -24 51t-48 20q-68 0 -133.5 -124.5t-103.5 -294.5t-38 -314q0 -72 16.5 -105.5t53.5 -33.5zM981 1241l-393 -61l-8 20l243 264q32 34 62 49t71 15q57 0 98.5 -46.5t41.5 -109.5
q0 -49 -28.5 -86t-86.5 -45z" />
    <glyph glyph-name="acircumflex" unicode="&#xe2;" horiz-adv-x="1243" 
d="M274 -27q-120 0 -191 83t-71 229q0 160 57.5 310t154.5 261t232 177.5t283 66.5q77 0 155.5 -28.5t141.5 -72.5h8l181 99l26 -13q-43 -106 -84 -319l-98 -508q-6 -27 -6 -51q0 -34 25 -41.5t69 22.5l43 29l27 -33q-94 -99 -202.5 -155t-207.5 -56q-80 0 -124 39t-44 111
q0 30 4 70h-8q-156 -220 -371 -220zM516 168q32 0 73 34.5t66 82.5l138 684q-5 31 -24 51t-48 20q-68 0 -133.5 -124.5t-103.5 -294.5t-38 -314q0 -72 16.5 -105.5t53.5 -33.5zM449 1171l-9 19l295 330h113l201 -330l-13 -19l-268 121z" />
    <glyph glyph-name="atilde" unicode="&#xe3;" horiz-adv-x="1243" 
d="M274 -27q-120 0 -191 83t-71 229q0 160 57.5 310t154.5 261t232 177.5t283 66.5q77 0 155.5 -28.5t141.5 -72.5h8l181 99l26 -13q-43 -106 -84 -319l-98 -508q-6 -27 -6 -51q0 -34 25 -41.5t69 22.5l43 29l27 -33q-94 -99 -202.5 -155t-207.5 -56q-80 0 -124 39t-44 111
q0 30 4 70h-8q-156 -220 -371 -220zM516 168q32 0 73 34.5t66 82.5l138 684q-5 31 -24 51t-48 20q-68 0 -133.5 -124.5t-103.5 -294.5t-38 -314q0 -72 16.5 -105.5t53.5 -33.5zM475 1167l-24 13q25 56 38.5 86t34.5 69t37.5 58t39.5 38.5t49.5 27t58.5 7.5q41 0 141 -20.5
t143 -20.5q33 0 52.5 15t57.5 62q2 3 3 4l3 3t3 4l25 -12q-28 -76 -49.5 -122t-51 -87.5t-67 -59.5t-86.5 -18q-39 0 -139 19.5t-144 19.5q-37 0 -60 -17t-65 -69z" />
    <glyph glyph-name="adieresis" unicode="&#xe4;" horiz-adv-x="1243" 
d="M274 -27q-120 0 -191 83t-71 229q0 160 57.5 310t154.5 261t232 177.5t283 66.5q77 0 155.5 -28.5t141.5 -72.5h8l181 99l26 -13q-43 -106 -84 -319l-98 -508q-6 -27 -6 -51q0 -34 25 -41.5t69 22.5l43 29l27 -33q-94 -99 -202.5 -155t-207.5 -56q-80 0 -124 39t-44 111
q0 30 4 70h-8q-156 -220 -371 -220zM516 168q32 0 73 34.5t66 82.5l138 684q-5 31 -24 51t-48 20q-68 0 -133.5 -124.5t-103.5 -294.5t-38 -314q0 -72 16.5 -105.5t53.5 -33.5zM549 1167q-81 0 -131.5 48.5t-50.5 125.5t50.5 127t131.5 50t132.5 -50t51.5 -127t-51 -125.5
t-133 -48.5zM981 1167q-81 0 -131.5 48.5t-50.5 125.5t50.5 127t131.5 50t132.5 -50t51.5 -127t-51 -125.5t-133 -48.5z" />
    <glyph glyph-name="aring" unicode="&#xe5;" horiz-adv-x="1243" 
d="M274 -27q-120 0 -191 83t-71 229q0 160 57.5 310t154.5 261t232 177.5t283 66.5q77 0 155.5 -28.5t141.5 -72.5h8l181 99l26 -13q-43 -106 -84 -319l-98 -508q-6 -27 -6 -51q0 -34 25 -41.5t69 22.5l43 29l27 -33q-94 -99 -202.5 -155t-207.5 -56q-80 0 -124 39t-44 111
q0 30 4 70h-8q-156 -220 -371 -220zM516 168q32 0 73 34.5t66 82.5l138 684q-5 31 -24 51t-48 20q-68 0 -133.5 -124.5t-103.5 -294.5t-38 -314q0 -72 16.5 -105.5t53.5 -33.5zM575 1350q0 83 55.5 135.5t139.5 52.5t140.5 -53t56.5 -135q0 -78 -57 -132.5t-140 -54.5
q-84 0 -139.5 52.5t-55.5 134.5zM639 1350q0 -59 35.5 -97.5t95.5 -38.5t96.5 39t36.5 97t-36.5 96.5t-96.5 38.5t-95.5 -38t-35.5 -97z" />
    <glyph glyph-name="ae" unicode="&#xe6;" horiz-adv-x="1595" 
d="M952 -25q-291 0 -366 215h-6q-118 -215 -336 -215q-107 0 -177.5 67.5t-70.5 168.5q0 76 24.5 129t89.5 99.5t183.5 80t300.5 58.5l20 129q12 77 16 131.5t0 104.5t-25.5 75.5t-59.5 25.5q-45 0 -65.5 -22t-28.5 -74q-18 -112 -58.5 -160.5t-128.5 -48.5
q-66 0 -103.5 35.5t-37.5 95.5q0 96 110.5 163t331.5 67q233 0 314 -135q185 139 385 139q159 0 253.5 -63.5t94.5 -168.5q0 -50 -17.5 -90t-56.5 -71t-87 -54.5t-125 -44t-153.5 -36t-187.5 -33.5q-6 -68 -6 -140q0 -134 44 -192.5t128 -58.5q77 0 146.5 32.5t148.5 104.5
l27 -27q-31 -50 -76.5 -96.5t-109.5 -91.5t-151.5 -72t-183.5 -27zM1212 1049q-67 0 -131.5 -134.5t-89.5 -326.5q147 46 203 110q76 85 76 240q0 59 -14 85t-44 26zM432 168q77 0 139 86q-6 38 -6 78q0 101 25 196q-135 -36 -190.5 -93t-55.5 -150q0 -54 25 -85.5t63 -31.5
z" />
    <glyph glyph-name="ccedilla" unicode="&#xe7;" horiz-adv-x="1032" 
d="M113 -385q82 17 127 47.5t45 69.5q0 48 -66 53l-6 14l111 185q-150 23 -231 119t-81 253q0 120 40.5 235.5t110.5 206.5t160 161t194.5 107.5t207.5 37.5q156 0 237.5 -59t81.5 -148q0 -71 -40 -109t-113 -38q-78 0 -115.5 46t-52.5 162q-5 36 -9 52t-15 27.5t-31 11.5
q-35 0 -74.5 -57.5t-72 -148.5t-54 -214.5t-21.5 -243.5q0 -233 166 -233q152 0 295 137l27 -27q-87 -131 -221.5 -209t-290.5 -78q-6 0 -17 1t-16 1l-47 -59q77 -9 117.5 -43.5t40.5 -89.5q0 -45 -25.5 -80t-64.5 -56t-93.5 -35t-104.5 -20t-106 -8z" />
    <glyph glyph-name="egrave" unicode="&#xe8;" horiz-adv-x="1050" 
d="M408 -27q-193 0 -294.5 103.5t-101.5 275.5q0 155 63 297t163.5 240.5t227.5 156.5t253 58q159 0 253.5 -63.5t94.5 -168.5q0 -60 -27.5 -107.5t-76 -82.5t-129 -64t-172.5 -50t-220 -42q-4 -82 -4 -123q0 -134 42.5 -192.5t125.5 -58.5q77 0 146.5 32.5t148.5 104.5
l27 -27q-33 -53 -77.5 -99.5t-108 -91.5t-150 -71.5t-184.5 -26.5zM895 1178l-393 61q-58 8 -86.5 45t-28.5 86q0 63 41 109.5t98 46.5q41 0 71 -15t62 -49l244 -264zM668 1049q-45 0 -90 -64t-79.5 -174t-49.5 -240q142 46 200 111q36 40 56 110.5t20 145.5q0 59 -13.5 85
t-43.5 26z" />
    <glyph glyph-name="eacute" unicode="&#xe9;" horiz-adv-x="1050" 
d="M408 -27q-193 0 -294.5 103.5t-101.5 275.5q0 155 63 297t163.5 240.5t227.5 156.5t253 58q159 0 253.5 -63.5t94.5 -168.5q0 -60 -27.5 -107.5t-76 -82.5t-129 -64t-172.5 -50t-220 -42q-4 -82 -4 -123q0 -134 42.5 -192.5t125.5 -58.5q77 0 146.5 32.5t148.5 104.5
l27 -27q-33 -53 -77.5 -99.5t-108 -91.5t-150 -71.5t-184.5 -26.5zM870 1241l-393 -61l-8 20l244 264q32 34 62 49t71 15q57 0 98 -46.5t41 -109.5q0 -49 -28.5 -86t-86.5 -45zM668 1049q-45 0 -90 -64t-79.5 -174t-49.5 -240q142 46 200 111q36 40 56 110.5t20 145.5
q0 59 -13.5 85t-43.5 26z" />
    <glyph glyph-name="ecircumflex" unicode="&#xea;" horiz-adv-x="1050" 
d="M408 -27q-193 0 -294.5 103.5t-101.5 275.5q0 155 63 297t163.5 240.5t227.5 156.5t253 58q159 0 253.5 -63.5t94.5 -168.5q0 -60 -27.5 -107.5t-76 -82.5t-129 -64t-172.5 -50t-220 -42q-4 -82 -4 -123q0 -134 42.5 -192.5t125.5 -58.5q77 0 146.5 32.5t148.5 104.5
l27 -27q-33 -53 -77.5 -99.5t-108 -91.5t-150 -71.5t-184.5 -26.5zM352 1171l-8 19l295 330h113l200 -330l-12 -19l-268 121zM668 1049q-45 0 -90 -64t-79.5 -174t-49.5 -240q142 46 200 111q36 40 56 110.5t20 145.5q0 59 -13.5 85t-43.5 26z" />
    <glyph glyph-name="edieresis" unicode="&#xeb;" horiz-adv-x="1050" 
d="M408 -27q-193 0 -294.5 103.5t-101.5 275.5q0 155 63 297t163.5 240.5t227.5 156.5t253 58q159 0 253.5 -63.5t94.5 -168.5q0 -60 -27.5 -107.5t-76 -82.5t-129 -64t-172.5 -50t-220 -42q-4 -82 -4 -123q0 -134 42.5 -192.5t125.5 -58.5q77 0 146.5 32.5t148.5 104.5
l27 -27q-33 -53 -77.5 -99.5t-108 -91.5t-150 -71.5t-184.5 -26.5zM909 1167q-81 0 -131.5 48.5t-50.5 125.5t50.5 127t131.5 50t133 -50t52 -127t-51.5 -125.5t-133.5 -48.5zM477 1167q-81 0 -131.5 48.5t-50.5 125.5t50.5 127t131.5 50t133 -50t52 -127t-51.5 -125.5
t-133.5 -48.5zM668 1049q-45 0 -90 -64t-79.5 -174t-49.5 -240q142 46 200 111q36 40 56 110.5t20 145.5q0 59 -13.5 85t-43.5 26z" />
    <glyph glyph-name="igrave" unicode="&#xec;" horiz-adv-x="657" 
d="M674 1178l-393 61q-58 8 -86.5 45t-28.5 86q0 63 41 109.5t98 46.5q41 0 71 -15t62 -49l244 -264zM221 -27q-89 0 -132.5 43.5t-43.5 120.5q0 66 37 215l106 441q9 35 9 57q0 21 -7 31t-22.5 9.5t-39 -11t-56.5 -31.5l-23 -14l-24 30q107 115 219 175.5t205 60.5
q87 0 131.5 -42.5t44.5 -121.5q0 -66 -37 -215l-117 -465q-6 -27 -6 -49q0 -41 31.5 -43t72.5 26l39 25l25 -31q-83 -92 -198 -151.5t-214 -59.5z" />
    <glyph glyph-name="iacute" unicode="&#xed;" horiz-adv-x="657" 
d="M643 1241l-393 -61l-8 20l243 264q32 34 62 49t71 15q57 0 98.5 -46.5t41.5 -109.5q0 -49 -28.5 -86t-86.5 -45zM221 -27q-89 0 -132.5 43.5t-43.5 120.5q0 66 37 215l106 441q9 35 9 57q0 21 -7 31t-22.5 9.5t-39 -11t-56.5 -31.5l-23 -14l-24 30q107 115 219 175.5
t205 60.5q87 0 131.5 -42.5t44.5 -121.5q0 -66 -37 -215l-117 -465q-6 -27 -6 -49q0 -41 31.5 -43t72.5 26l39 25l25 -31q-83 -92 -198 -151.5t-214 -59.5z" />
    <glyph glyph-name="icircumflex" unicode="&#xee;" horiz-adv-x="657" 
d="M129 1171l-8 19l295 330h112l201 -330l-12 -19l-268 121zM221 -27q-89 0 -132.5 43.5t-43.5 120.5q0 66 37 215l106 441q9 35 9 57q0 21 -7 31t-22.5 9.5t-39 -11t-56.5 -31.5l-23 -14l-24 30q107 115 219 175.5t205 60.5q87 0 131.5 -42.5t44.5 -121.5q0 -66 -37 -215
l-117 -465q-6 -27 -6 -49q0 -41 31.5 -43t72.5 26l39 25l25 -31q-83 -92 -198 -151.5t-214 -59.5z" />
    <glyph glyph-name="idieresis" unicode="&#xef;" horiz-adv-x="657" 
d="M244 1167q-81 0 -132 48.5t-51 125.5t51 127t132 50t132.5 -50t51.5 -127t-51 -125.5t-133 -48.5zM676 1167q-81 0 -131.5 48.5t-50.5 125.5t50.5 127t131.5 50t132.5 -50t51.5 -127t-51 -125.5t-133 -48.5zM221 -27q-89 0 -132.5 43.5t-43.5 120.5q0 66 37 215l106 441
q9 35 9 57q0 21 -7 31t-22.5 9.5t-39 -11t-56.5 -31.5l-23 -14l-24 30q107 115 219 175.5t205 60.5q87 0 131.5 -42.5t44.5 -121.5q0 -66 -37 -215l-117 -465q-6 -27 -6 -49q0 -41 31.5 -43t72.5 26l39 25l25 -31q-83 -92 -198 -151.5t-214 -59.5z" />
    <glyph glyph-name="eth" unicode="&#xf0;" horiz-adv-x="1167" 
d="M416 1176l-27 51l227 106q-84 108 -237 209l14 29q229 -59 387 -160l226 109l26 -52l-198 -94q319 -237 319 -647q0 -143 -33.5 -265.5t-93.5 -211t-141.5 -151t-178 -93.5t-202.5 -31q-215 0 -352.5 131.5t-137.5 339.5q0 144 52 269t138 209t198.5 132t232.5 48
q55 0 121 -29q-42 119 -105 211zM498 29q66 0 125.5 137.5t92 330.5t32.5 371q0 96 -17.5 139.5t-58.5 43.5q-66 0 -127 -139t-95 -330t-34 -359q0 -102 19 -148t63 -46z" />
    <glyph glyph-name="ntilde" unicode="&#xf1;" horiz-adv-x="1269" 
d="M834 -27q-47 0 -80 13t-49.5 35.5t-23.5 46.5t-7 51q0 52 26 184l82 395q14 65 14 102.5t-10 50.5t-30 13q-36 0 -83.5 -39t-80.5 -94l-160 -731h-407l159 793q6 35 6 49q0 94 -116 10l-23 -16l-26 32q96 106 203 169t208 63q74 0 117 -39t43 -115q0 -57 -16 -139h6
q39 55 82 102t99 92.5t123.5 72t137.5 26.5q90 0 142.5 -54t52.5 -155q0 -49 -19 -146l-108 -489q-6 -27 -6 -49q0 -74 92 -21l45 27l22 -31q-90 -94 -203 -151.5t-212 -57.5zM502 1167l-25 13q25 56 38.5 86t34.5 69t37.5 58t39.5 38.5t49.5 27t58.5 7.5q40 0 140.5 -20.5
t144.5 -20.5q33 0 52.5 15t57.5 62q2 3 3 4l3 3t3 4l24 -12q-28 -76 -49.5 -122t-51 -87.5t-67 -59.5t-86.5 -18q-39 0 -138.5 19.5t-143.5 19.5q-37 0 -60 -17t-65 -69z" />
    <glyph glyph-name="ograve" unicode="&#xf2;" horiz-adv-x="1165" 
d="M504 -25q-151 0 -264.5 66t-169.5 171t-56 230q0 150 56 277t148 210t208 129t238 46q147 0 260 -67t170 -173.5t57 -232.5q0 -150 -55 -276t-146 -208t-206.5 -127t-239.5 -45zM498 29q66 0 125.5 137.5t92 330.5t32.5 371q0 96 -17.5 139.5t-58.5 43.5q-66 0 -127 -139
t-95 -330t-34 -359q0 -102 19 -148t63 -46zM922 1178l-394 61q-58 8 -86 45t-28 86q0 63 41 109.5t98 46.5q41 0 71 -15t62 -49l244 -264z" />
    <glyph glyph-name="oacute" unicode="&#xf3;" horiz-adv-x="1165" 
d="M891 1241l-393 -61l-9 20l244 264q32 34 62 49t71 15q57 0 98.5 -46.5t41.5 -109.5q0 -49 -28.5 -86t-86.5 -45zM504 -25q-151 0 -264.5 66t-169.5 171t-56 230q0 150 56 277t148 210t208 129t238 46q147 0 260 -67t170 -173.5t57 -232.5q0 -150 -55 -276t-146 -208
t-206.5 -127t-239.5 -45zM498 29q66 0 125.5 137.5t92 330.5t32.5 371q0 96 -17.5 139.5t-58.5 43.5q-66 0 -127 -139t-95 -330t-34 -359q0 -102 19 -148t63 -46z" />
    <glyph glyph-name="ocircumflex" unicode="&#xf4;" horiz-adv-x="1165" 
d="M377 1171l-8 19l295 330h112l201 -330l-12 -19l-269 121zM504 -25q-151 0 -264.5 66t-169.5 171t-56 230q0 150 56 277t148 210t208 129t238 46q147 0 260 -67t170 -173.5t57 -232.5q0 -150 -55 -276t-146 -208t-206.5 -127t-239.5 -45zM498 29q66 0 125.5 137.5
t92 330.5t32.5 371q0 96 -17.5 139.5t-58.5 43.5q-66 0 -127 -139t-95 -330t-34 -359q0 -102 19 -148t63 -46z" />
    <glyph glyph-name="otilde" unicode="&#xf5;" horiz-adv-x="1165" 
d="M504 -25q-151 0 -264.5 66t-169.5 171t-56 230q0 150 56 277t148 210t208 129t238 46q147 0 260 -67t170 -173.5t57 -232.5q0 -150 -55 -276t-146 -208t-206.5 -127t-239.5 -45zM498 29q66 0 125.5 137.5t92 330.5t32.5 371q0 96 -17.5 139.5t-58.5 43.5q-66 0 -127 -139
t-95 -330t-34 -359q0 -102 19 -148t63 -46zM403 1167l-24 13q25 56 38.5 86t34.5 69t37.5 58t39.5 38.5t49.5 27t58.5 7.5q41 0 141 -20.5t144 -20.5q23 0 41 9.5t27.5 19.5t38.5 46q2 2 3.5 4t3.5 4.5t4 4.5l25 -12q-28 -76 -49.5 -122t-51 -87.5t-67 -59.5t-86.5 -18
q-39 0 -139 19.5t-144 19.5q-37 0 -60 -17t-65 -69z" />
    <glyph glyph-name="odieresis" unicode="&#xf6;" horiz-adv-x="1165" 
d="M481 1167q-81 0 -131.5 48.5t-50.5 125.5t50.5 127t131.5 50t133 -50t52 -127t-51.5 -125.5t-133.5 -48.5zM913 1167q-81 0 -131.5 48.5t-50.5 125.5t50.5 127t131.5 50t133 -50t52 -127t-51.5 -125.5t-133.5 -48.5zM504 -25q-151 0 -264.5 66t-169.5 171t-56 230
q0 150 56 277t148 210t208 129t238 46q147 0 260 -67t170 -173.5t57 -232.5q0 -150 -55 -276t-146 -208t-206.5 -127t-239.5 -45zM498 29q66 0 125.5 137.5t92 330.5t32.5 371q0 96 -17.5 139.5t-58.5 43.5q-66 0 -127 -139t-95 -330t-34 -359q0 -102 19 -148t63 -46z" />
    <glyph glyph-name="divide" unicode="&#xf7;" horiz-adv-x="993" 
d="M117 674v67h813v-67h-813zM522 248q-63 0 -107 45t-44 106q0 65 43.5 108.5t107.5 43.5q63 0 107.5 -43.5t44.5 -108.5q0 -60 -45.5 -105.5t-106.5 -45.5zM522 864q-63 0 -107 45.5t-44 106.5q0 65 43.5 108t107.5 43q63 0 107.5 -43t44.5 -108q0 -60 -45.5 -106
t-106.5 -46z" />
    <glyph glyph-name="oslash" unicode="&#xf8;" horiz-adv-x="1165" 
d="M102 -111l113 166q-97 64 -149 166t-52 221q0 150 56 277t148 210t208 129t238 46q127 0 233 -53l92 133h76l-113 -164q94 -65 146.5 -168.5t52.5 -220.5q0 -150 -55 -276t-146 -208t-206.5 -127t-239.5 -45q-128 0 -234 50l-92 -136h-76zM672 1051q-60 0 -118 -113.5
t-96 -276.5t-48 -323l348 508q-3 205 -86 205zM498 29q60 0 116.5 108.5t93 269t46.5 324.5l-348 -510q1 -102 24.5 -147t67.5 -45z" />
    <glyph glyph-name="ugrave" unicode="&#xf9;" horiz-adv-x="1249" 
d="M256 -27q-92 0 -146.5 52.5t-54.5 146.5q0 43 17 154l100 467q6 30 6 49q0 95 -117 10l-22 -16l-27 32q215 232 412 232q178 0 178 -160q0 -18 -1.5 -34.5t-5.5 -39t-7 -37.5t-10.5 -50.5t-12.5 -57.5l-71 -346q-16 -67 -13.5 -104.5t13.5 -50.5t32 -13q66 0 152 131
l156 737h409l-158 -819q-6 -27 -6 -49q0 -74 90 -21l45 27l23 -31q-94 -97 -205 -153t-211 -56q-78 0 -118.5 38.5t-40.5 107.5q0 44 22 135h-8q-187 -281 -420 -281zM973 1178l-393 61q-58 8 -86.5 45t-28.5 86q0 63 41 109.5t98 46.5q41 0 71 -15t62 -49l244 -264z" />
    <glyph glyph-name="uacute" unicode="&#xfa;" horiz-adv-x="1249" 
d="M958 1241l-393 -61l-8 20l244 264q32 34 62 49t71 15q57 0 98 -46.5t41 -109.5q0 -49 -28.5 -86t-86.5 -45zM256 -27q-92 0 -146.5 52.5t-54.5 146.5q0 43 17 154l100 467q6 30 6 49q0 95 -117 10l-22 -16l-27 32q215 232 412 232q178 0 178 -160q0 -18 -1.5 -34.5
t-5.5 -39t-7 -37.5t-10.5 -50.5t-12.5 -57.5l-71 -346q-16 -67 -13.5 -104.5t13.5 -50.5t32 -13q66 0 152 131l156 737h409l-158 -819q-6 -27 -6 -49q0 -74 90 -21l45 27l23 -31q-94 -97 -205 -153t-211 -56q-78 0 -118.5 38.5t-40.5 107.5q0 44 22 135h-8
q-187 -281 -420 -281z" />
    <glyph glyph-name="ucircumflex" unicode="&#xfb;" horiz-adv-x="1249" 
d="M430 1171l-8 19l295 330h112l201 -330l-12 -19l-268 121zM256 -27q-92 0 -146.5 52.5t-54.5 146.5q0 43 17 154l100 467q6 30 6 49q0 95 -117 10l-22 -16l-27 32q215 232 412 232q178 0 178 -160q0 -18 -1.5 -34.5t-5.5 -39t-7 -37.5t-10.5 -50.5t-12.5 -57.5l-71 -346
q-16 -67 -13.5 -104.5t13.5 -50.5t32 -13q66 0 152 131l156 737h409l-158 -819q-6 -27 -6 -49q0 -74 90 -21l45 27l23 -31q-94 -97 -205 -153t-211 -56q-78 0 -118.5 38.5t-40.5 107.5q0 44 22 135h-8q-187 -281 -420 -281z" />
    <glyph glyph-name="udieresis" unicode="&#xfc;" horiz-adv-x="1249" 
d="M537 1167q-81 0 -132 48.5t-51 125.5t51 127t132 50t132.5 -50t51.5 -127t-51 -125.5t-133 -48.5zM969 1167q-81 0 -132 48.5t-51 125.5t51 127t132 50t132.5 -50t51.5 -127t-51 -125.5t-133 -48.5zM256 -27q-92 0 -146.5 52.5t-54.5 146.5q0 43 17 154l100 467
q6 30 6 49q0 95 -117 10l-22 -16l-27 32q215 232 412 232q178 0 178 -160q0 -18 -1.5 -34.5t-5.5 -39t-7 -37.5t-10.5 -50.5t-12.5 -57.5l-71 -346q-16 -67 -13.5 -104.5t13.5 -50.5t32 -13q66 0 152 131l156 737h409l-158 -819q-6 -27 -6 -49q0 -74 90 -21l45 27l23 -31
q-94 -97 -205 -153t-211 -56q-78 0 -118.5 38.5t-40.5 107.5q0 44 22 135h-8q-187 -281 -420 -281z" />
    <glyph glyph-name="yacute" unicode="&#xfd;" horiz-adv-x="1046" 
d="M580 901q48 -199 75 -661h13q136 183 198 311.5t62 200.5q0 25 -16 45.5t-38.5 37.5t-45 35.5t-38.5 47.5t-16 65q0 52 36 86.5t95 34.5q71 0 114.5 -49.5t43.5 -141.5q0 -155 -113 -357.5t-327 -481.5q-152 -196 -267 -306.5t-204.5 -153t-186.5 -42.5q-81 0 -128.5 42
t-47.5 105q0 57 37.5 94t103.5 37q35 0 61 -15.5t41.5 -37t28.5 -43.5t29.5 -37.5t36.5 -15.5q70 0 176 106q-78 730 -129 981q-15 76 -50 88.5t-101 -30.5l-23 -15l-27 33q98 109 203.5 172.5t192.5 63.5q85 0 135 -45.5t76 -153.5zM877 1241l-394 -61l-8 20l244 264
q32 34 62 49t71 15q57 0 98 -46.5t41 -109.5q0 -49 -28 -86t-86 -45z" />
    <glyph glyph-name="thorn" unicode="&#xfe;" horiz-adv-x="1228" 
d="M565 834h6q88 132 188.5 200t194.5 68q119 0 191 -87t72 -251q0 -177 -52 -326.5t-141.5 -250t-210.5 -156.5t-258 -56q-86 0 -145 27q-3 -47 -17 -108l-28 -130q-16 -68 -7.5 -90.5t64.5 -35.5l43 -11l-6 -35h-662l6 35l35 11q64 17 82.5 38t30.5 86l301 1530
q18 83 13 107t-46 47l-59 33l6 24l536 47l17 -14q-30 -107 -57 -244l-48 -262q-20 -100 -49 -196zM524 29q58 0 110 75.5t85 186.5t52.5 232t19.5 218q0 133 -76 133q-33 0 -79 -41t-79 -98l-125 -647q27 -59 92 -59z" />
    <glyph glyph-name="ydieresis" unicode="&#xff;" horiz-adv-x="1046" 
d="M580 901q48 -199 75 -661h13q136 183 198 311.5t62 200.5q0 25 -16 45.5t-38.5 37.5t-45 35.5t-38.5 47.5t-16 65q0 52 36 86.5t95 34.5q71 0 114.5 -49.5t43.5 -141.5q0 -155 -113 -357.5t-327 -481.5q-152 -196 -267 -306.5t-204.5 -153t-186.5 -42.5q-81 0 -128.5 42
t-47.5 105q0 57 37.5 94t103.5 37q35 0 61 -15.5t41.5 -37t28.5 -43.5t29.5 -37.5t36.5 -15.5q70 0 176 106q-78 730 -129 981q-15 76 -50 88.5t-101 -30.5l-23 -15l-27 33q98 109 203.5 172.5t192.5 63.5q85 0 135 -45.5t76 -153.5zM881 1167q-81 0 -132 48.5t-51 125.5
t51 127t132 50t132.5 -50t51.5 -127t-51 -125.5t-133 -48.5zM449 1167q-81 0 -132 48.5t-51 125.5t51 127t132 50t132.5 -50t51.5 -127t-51 -125.5t-133 -48.5z" />
    <glyph glyph-name="Amacron" unicode="&#x100;" horiz-adv-x="1384" 
d="M-115 0l6 35l15 6q41 17 58.5 27t43 35.5t49 63.5t64.5 112l641 1140h254l172 -1157q13 -89 23.5 -127.5t24.5 -55t46 -32.5l25 -12l-7 -35h-739l6 35l54 14q57 17 76 38t22 67q4 63 -10 178l-17 119h-387l-65 -121q-84 -154 -84 -201q0 -32 19.5 -50t66.5 -32l41 -12
l-7 -35h-391zM614 1018l-272 -498h342l-59 498h-11zM598 1540l25 141h589l-24 -141h-590z" />
    <glyph glyph-name="amacron" unicode="&#x101;" horiz-adv-x="1243" 
d="M274 -27q-120 0 -191 83t-71 229q0 160 57.5 310t154.5 261t232 177.5t283 66.5q77 0 155.5 -28.5t141.5 -72.5h8l181 99l26 -13q-43 -106 -84 -319l-98 -508q-6 -27 -6 -51q0 -34 25 -41.5t69 22.5l43 29l27 -33q-94 -99 -202.5 -155t-207.5 -56q-80 0 -124 39t-44 111
q0 30 4 70h-8q-156 -220 -371 -220zM516 168q32 0 73 34.5t66 82.5l138 684q-5 31 -24 51t-48 20q-68 0 -133.5 -124.5t-103.5 -294.5t-38 -314q0 -72 16.5 -105.5t53.5 -33.5zM479 1257l29 142h575l-26 -142h-578z" />
    <glyph glyph-name="Abreve" unicode="&#x102;" horiz-adv-x="1384" 
d="M-115 0l6 35l15 6q41 17 58.5 27t43 35.5t49 63.5t64.5 112l641 1140h254l172 -1157q13 -89 23.5 -127.5t24.5 -55t46 -32.5l25 -12l-7 -35h-739l6 35l54 14q57 17 76 38t22 67q4 63 -10 178l-17 119h-387l-65 -121q-84 -154 -84 -201q0 -32 19.5 -50t66.5 -32l41 -12
l-7 -35h-391zM893 1485q-122 0 -184 83.5t-80 241.5l22 9q37 -67 95 -96t161 -29q169 0 285 125l18 -9q-44 -156 -120 -240.5t-197 -84.5zM614 1018l-272 -498h342l-59 498h-11z" />
    <glyph glyph-name="abreve" unicode="&#x103;" horiz-adv-x="1243" 
d="M274 -27q-120 0 -191 83t-71 229q0 160 57.5 310t154.5 261t232 177.5t283 66.5q77 0 155.5 -28.5t141.5 -72.5h8l181 99l26 -13q-43 -106 -84 -319l-98 -508q-6 -27 -6 -51q0 -34 25 -41.5t69 22.5l43 29l27 -33q-94 -99 -202.5 -155t-207.5 -56q-80 0 -124 39t-44 111
q0 30 4 70h-8q-156 -220 -371 -220zM516 168q32 0 73 34.5t66 82.5l138 684q-5 31 -24 51t-48 20q-68 0 -133.5 -124.5t-103.5 -294.5t-38 -314q0 -72 16.5 -105.5t53.5 -33.5zM772 1176q-107 0 -161 77.5t-72 247.5l24 8q27 -66 85.5 -94.5t154.5 -28.5q73 0 144.5 30
t119.5 93l23 -12q-47 -154 -122 -237.5t-196 -83.5z" />
    <glyph glyph-name="Aogonek" unicode="&#x104;" horiz-adv-x="1384" 
d="M745 -2l-53 453h-387l-65 -121q-84 -154 -84 -201q0 -32 19.5 -50t66.5 -32l41 -12l-7 -35h-391l6 35l15 6q41 17 58.5 27t43 35.5t49 63.5t64.5 112l641 1140h254l172 -1155q14 -92 24.5 -129.5t24 -54.5t45.5 -33l25 -12l-7 -35h-292q-101 0 -172.5 -17.5t-110 -48.5
t-55.5 -67t-17 -80q0 -53 29.5 -78.5t93.5 -25.5q23 0 47 6l-4 -25q-33 -37 -88 -60.5t-113 -23.5q-96 0 -151 42t-55 108q0 181 333 268zM625 1018h-11l-272 -498h342z" />
    <glyph glyph-name="aogonek" unicode="&#x105;" horiz-adv-x="1243" 
d="M801 -420q-96 0 -151.5 42t-55.5 108q0 74 75 139.5t205 110.5q-35 -7 -55 -7q-80 0 -125 39t-45 111q0 30 4 70h-8q-156 -220 -371 -220q-120 0 -191 83t-71 229q0 160 57.5 310t154.5 261t232 177.5t283 66.5q150 0 297 -101h8l181 99l26 -13q-43 -106 -84 -319
l-98 -508q-6 -27 -6 -51q0 -34 25 -41.5t69 22.5l43 29l27 -39q-44 -37 -146 -109.5t-151 -117.5q-94 -82 -94 -164q0 -53 29 -78.5t93 -25.5q24 0 48 6l-5 -25q-33 -37 -87.5 -60.5t-112.5 -23.5zM516 168q32 0 73 34.5t66 82.5l138 684q-5 31 -24 51t-48 20
q-68 0 -133.5 -124.5t-103.5 -294.5t-38 -314q0 -72 16.5 -105.5t53.5 -33.5z" />
    <glyph glyph-name="Cacute" unicode="&#x106;" horiz-adv-x="1298" 
d="M715 -25q-305 0 -475 155t-170 431q0 166 50 309.5t137 247.5t203 178.5t249.5 111t275.5 36.5q104 0 199 -15.5t151 -39.5l-45 -471h-37q-53 169 -112 296q-43 94 -85 133t-100 39q-77 0 -147.5 -73.5t-120 -189t-87 -256t-55.5 -277t-18 -248.5q0 -307 211 -307
q68 0 125.5 40.5t120.5 121.5q75 94 205 313h37l-105 -471q-185 -64 -407 -64zM733 1481l-8 20l250 258q59 62 125 62q62 0 103.5 -45t41.5 -109q0 -55 -33.5 -90t-93.5 -43z" />
    <glyph glyph-name="cacute" unicode="&#x107;" horiz-adv-x="1032" 
d="M905 1241l-393 -61l-8 20l244 264q32 34 62 49t71 15q57 0 98 -46.5t41 -109.5q0 -49 -28.5 -86t-86.5 -45zM422 -25q-194 0 -302 100t-108 281q0 120 40.5 235.5t110.5 206.5t160 161t194.5 107.5t207.5 37.5q156 0 237.5 -59t81.5 -148q0 -71 -40 -109t-113 -38
q-78 0 -115.5 46t-52.5 162q-5 36 -9 52t-15 27.5t-31 11.5q-35 0 -74.5 -57.5t-72 -148.5t-54 -214.5t-21.5 -243.5q0 -233 166 -233q152 0 295 137l27 -27q-87 -131 -221.5 -209t-290.5 -78z" />
    <glyph glyph-name="Ccircumflex" unicode="&#x108;" horiz-adv-x="1298" 
d="M571 1479l-10 22l334 303h129l219 -307l-14 -18l-291 98zM715 -25q-305 0 -475 155t-170 431q0 166 50 309.5t137 247.5t203 178.5t249.5 111t275.5 36.5q104 0 199 -15.5t151 -39.5l-45 -471h-37q-53 169 -112 296q-43 94 -85 133t-100 39q-77 0 -147.5 -73.5t-120 -189
t-87 -256t-55.5 -277t-18 -248.5q0 -307 211 -307q68 0 125.5 40.5t120.5 121.5q75 94 205 313h37l-105 -471q-185 -64 -407 -64z" />
    <glyph glyph-name="ccircumflex" unicode="&#x109;" horiz-adv-x="1032" 
d="M377 1171l-8 19l295 330h112l201 -330l-12 -19l-269 121zM422 -25q-194 0 -302 100t-108 281q0 120 40.5 235.5t110.5 206.5t160 161t194.5 107.5t207.5 37.5q156 0 237.5 -59t81.5 -148q0 -71 -40 -109t-113 -38q-78 0 -115.5 46t-52.5 162q-5 36 -9 52t-15 27.5
t-31 11.5q-35 0 -74.5 -57.5t-72 -148.5t-54 -214.5t-21.5 -243.5q0 -233 166 -233q152 0 295 137l27 -27q-87 -131 -221.5 -209t-290.5 -78z" />
    <glyph glyph-name="Cdotaccent" unicode="&#x10a;" horiz-adv-x="1298" 
d="M715 -25q-305 0 -475 155t-170 431q0 166 50 309.5t137 247.5t203 178.5t249.5 111t275.5 36.5q104 0 199 -15.5t151 -39.5l-45 -471h-37q-53 169 -112 296q-43 94 -85 133t-100 39q-77 0 -147.5 -73.5t-120 -189t-87 -256t-55.5 -277t-18 -248.5q0 -307 211 -307
q68 0 125.5 40.5t120.5 121.5q75 94 205 313h37l-105 -471q-185 -64 -407 -64zM936 1477q-87 0 -144 50t-57 134q0 83 57 133.5t144 50.5q88 0 144.5 -50.5t56.5 -133.5q0 -85 -56.5 -134.5t-144.5 -49.5z" />
    <glyph glyph-name="cdotaccent" unicode="&#x10b;" horiz-adv-x="1032" 
d="M422 -25q-194 0 -302 100t-108 281q0 120 40.5 235.5t110.5 206.5t160 161t194.5 107.5t207.5 37.5q156 0 237.5 -59t81.5 -148q0 -71 -40 -109t-113 -38q-78 0 -115.5 46t-52.5 162q-5 36 -9 52t-15 27.5t-31 11.5q-35 0 -74.5 -57.5t-72 -148.5t-54 -214.5
t-21.5 -243.5q0 -233 166 -233q152 0 295 137l27 -27q-87 -131 -221.5 -209t-290.5 -78zM498 1339q0 82 56.5 132.5t141.5 50.5q86 0 142.5 -50.5t56.5 -132.5q0 -83 -56 -132.5t-143 -49.5q-85 0 -141.5 49.5t-56.5 132.5z" />
    <glyph glyph-name="Ccaron" unicode="&#x10c;" horiz-adv-x="1298" 
d="M1298 1823l11 -23l-334 -303h-129l-219 307l14 19l291 -99zM715 -25q-305 0 -475 155t-170 431q0 166 50 309.5t137 247.5t203 178.5t249.5 111t275.5 36.5q104 0 199 -15.5t151 -39.5l-45 -471h-37q-53 169 -112 296q-43 94 -85 133t-100 39q-77 0 -147.5 -73.5
t-120 -189t-87 -256t-55.5 -277t-18 -248.5q0 -307 211 -307q68 0 125.5 40.5t120.5 121.5q75 94 205 313h37l-105 -471q-185 -64 -407 -64z" />
    <glyph glyph-name="ccaron" unicode="&#x10d;" horiz-adv-x="1032" 
d="M1016 1536l8 -18l-295 -330h-113l-200 330l12 18l268 -121zM422 -25q-194 0 -302 100t-108 281q0 120 40.5 235.5t110.5 206.5t160 161t194.5 107.5t207.5 37.5q156 0 237.5 -59t81.5 -148q0 -71 -40 -109t-113 -38q-78 0 -115.5 46t-52.5 162q-5 36 -9 52t-15 27.5
t-31 11.5q-35 0 -74.5 -57.5t-72 -148.5t-54 -214.5t-21.5 -243.5q0 -233 166 -233q152 0 295 137l27 -27q-87 -131 -221.5 -209t-290.5 -78z" />
    <glyph glyph-name="Dcaron" unicode="&#x10e;" horiz-adv-x="1515" 
d="M1266 1823l10 -23l-334 -303h-129l-219 307l14 19l291 -99zM659 59q78 0 150.5 73t127 198.5t87.5 304.5t33 379q0 173 -47.5 258.5t-153.5 85.5q-40 0 -80 -12l-203 -1160q-12 -72 7.5 -99.5t78.5 -27.5zM174 1384l6 35h694q335 0 492.5 -132t157.5 -433
q0 -193 -65.5 -354.5t-180 -270.5t-271.5 -169t-337 -60h-740l7 35l53 14q26 7 36 10.5t25 11.5t20 16.5t13.5 27t13 41t11.5 59.5l174 989q8 42 10 64.5t1.5 41.5t-10 29t-23 17t-38.5 14z" />
    <glyph glyph-name="dcaron" unicode="&#x10f;" horiz-adv-x="1245" 
d="M1327 1161l-18 10l73 275q26 102 107 102q47 0 85 -32t38 -78q0 -50 -56 -95zM1268 1292l-197 -1034q-6 -27 -6 -51q0 -35 24 -41.5t70 22.5l43 29l27 -33q-97 -103 -205.5 -157t-206.5 -54q-75 0 -119.5 38.5t-44.5 105.5q0 36 4 76h-8q-172 -220 -370 -220
q-126 0 -196.5 84t-70.5 228q0 119 31.5 237t92.5 221.5t143 183.5t191 126.5t228 46.5q60 0 111 -19h8q9 62 23 136l14 75q17 83 12 107.5t-45 46.5l-59 33l6 24l537 47l20 -14q-30 -109 -57 -244zM516 168q30 0 69.5 32.5t69.5 84.5l136 676q-15 79 -78 79
q-61 0 -124.5 -121.5t-103 -293.5t-39.5 -318q0 -139 70 -139z" />
    <glyph glyph-name="Dcroat" unicode="&#x110;" horiz-adv-x="1515" 
d="M72 676l12 65h117l82 463q8 42 10 64.5t1.5 41.5t-10 29t-23 17t-38.5 14l-49 14l6 35h694q335 0 492.5 -132t157.5 -433q0 -193 -65.5 -354.5t-180 -270.5t-271.5 -169t-337 -60h-740l7 35l53 14q26 7 36 10.5t25 11.5t20 16.5t13.5 27t13 41t11.5 59.5l79 461h-116z
M659 59q78 0 150.5 73t127 198.5t87.5 304.5t33 379q0 173 -47.5 258.5t-153.5 85.5q-40 0 -80 -12l-106 -605h215l-13 -65h-213l-86 -490q-12 -72 7.5 -99.5t78.5 -27.5z" />
    <glyph glyph-name="dcroat" unicode="&#x111;" horiz-adv-x="1245" 
d="M1268 1292v-2h129l-15 -65h-129l-182 -967q-6 -27 -6 -51q0 -35 24 -41.5t70 22.5l43 29l27 -33q-97 -103 -205.5 -157t-206.5 -54q-75 0 -119.5 38.5t-44.5 105.5q0 36 4 76h-8q-172 -220 -370 -220q-126 0 -196.5 84t-70.5 228q0 118 33 237t95.5 222t145.5 183
t190 126.5t222 46.5q60 0 111 -19h8q9 62 23 136l2 8h-303l14 65h301v2q17 83 12 107.5t-45 46.5l-59 33l6 24l537 47l20 -14q-30 -109 -57 -244zM516 168q30 0 69.5 32.5t69.5 84.5l136 676q-15 79 -78 79q-61 0 -124.5 -121.5t-103 -293.5t-39.5 -318q0 -139 70 -139z" />
    <glyph glyph-name="Emacron" unicode="&#x112;" horiz-adv-x="1302" 
d="M-70 0l7 35l53 14q26 7 36 10.5t25 11.5t20 16.5t13.5 27t13 41t11.5 59.5l174 989q17 100 8 124.5t-68 41.5l-49 14l6 35h1143l-49 -465h-35q-51 183 -88 271q-34 79 -78.5 106t-140.5 27q-98 0 -156 -12l-100 -578h51q84 0 115.5 13.5t60.5 52.5q34 47 105 184h32
l-102 -576h-33q-3 15 -9.5 56t-12 70.5t-11.5 52.5q-13 47 -46 64t-109 17h-53l-89 -503q-15 -85 15.5 -112.5t140.5 -27.5q98 0 155.5 32.5t125.5 123.5q85 112 196 309h39l-117 -524h-1200zM514 1546l25 142h589l-24 -142h-590z" />
    <glyph glyph-name="emacron" unicode="&#x113;" horiz-adv-x="1050" 
d="M408 -27q-193 0 -294.5 103.5t-101.5 275.5q0 155 63 297t163.5 240.5t227.5 156.5t253 58q159 0 253.5 -63.5t94.5 -168.5q0 -60 -27.5 -107.5t-76 -82.5t-129 -64t-172.5 -50t-220 -42q-4 -82 -4 -123q0 -134 42.5 -192.5t125.5 -58.5q77 0 146.5 32.5t148.5 104.5
l27 -27q-33 -53 -77.5 -99.5t-108 -91.5t-150 -71.5t-184.5 -26.5zM391 1257l29 142h575l-26 -142h-578zM668 1049q-45 0 -90 -64t-79.5 -174t-49.5 -240q142 46 200 111q36 40 56 110.5t20 145.5q0 59 -13.5 85t-43.5 26z" />
    <glyph glyph-name="Ebreve" unicode="&#x114;" horiz-adv-x="1302" 
d="M-70 0l7 35l53 14q26 7 36 10.5t25 11.5t20 16.5t13.5 27t13 41t11.5 59.5l174 989q17 100 8 124.5t-68 41.5l-49 14l6 35h1143l-49 -465h-35q-51 183 -88 271q-34 79 -78.5 106t-140.5 27q-98 0 -156 -12l-100 -578h51q84 0 115.5 13.5t60.5 52.5q34 47 105 184h32
l-102 -576h-33q-3 15 -9.5 56t-12 70.5t-11.5 52.5q-13 47 -46 64t-109 17h-53l-89 -503q-15 -85 15.5 -112.5t140.5 -27.5q98 0 155.5 32.5t125.5 123.5q85 112 196 309h39l-117 -524h-1200zM842 1485q-122 0 -184 83.5t-80 241.5l22 9q37 -67 95 -96t161 -29
q169 0 285 125l18 -9q-44 -156 -120 -240.5t-197 -84.5z" />
    <glyph glyph-name="ebreve" unicode="&#x115;" horiz-adv-x="1050" 
d="M408 -27q-193 0 -294.5 103.5t-101.5 275.5q0 155 63 297t163.5 240.5t227.5 156.5t253 58q159 0 253.5 -63.5t94.5 -168.5q0 -60 -27.5 -107.5t-76 -82.5t-129 -64t-172.5 -50t-220 -42q-4 -82 -4 -123q0 -134 42.5 -192.5t125.5 -58.5q77 0 146.5 32.5t148.5 104.5
l27 -27q-33 -53 -77.5 -99.5t-108 -91.5t-150 -71.5t-184.5 -26.5zM678 1176q-107 0 -162 77.5t-72 247.5l25 8q27 -66 85.5 -94.5t154.5 -28.5q73 0 144.5 30t119.5 93l22 -12q-47 -154 -121.5 -237.5t-195.5 -83.5zM668 1049q-45 0 -90 -64t-79.5 -174t-49.5 -240
q142 46 200 111q36 40 56 110.5t20 145.5q0 59 -13.5 85t-43.5 26z" />
    <glyph glyph-name="Edotaccent" unicode="&#x116;" horiz-adv-x="1302" 
d="M821 1477q-87 0 -143.5 50t-56.5 134q0 83 56.5 133.5t143.5 50.5q88 0 144.5 -50.5t56.5 -133.5q0 -85 -56.5 -134.5t-144.5 -49.5zM-70 0l7 35l53 14q26 7 36 10.5t25 11.5t20 16.5t13.5 27t13 41t11.5 59.5l174 989q17 100 8 124.5t-68 41.5l-49 14l6 35h1143
l-49 -465h-35q-51 183 -88 271q-34 79 -78.5 106t-140.5 27q-98 0 -156 -12l-100 -578h51q84 0 115.5 13.5t60.5 52.5q34 47 105 184h32l-102 -576h-33q-3 15 -9.5 56t-12 70.5t-11.5 52.5q-13 47 -46 64t-109 17h-53l-89 -503q-15 -85 15.5 -112.5t140.5 -27.5
q98 0 155.5 32.5t125.5 123.5q85 112 196 309h39l-117 -524h-1200z" />
    <glyph glyph-name="edotaccent" unicode="&#x117;" horiz-adv-x="1050" 
d="M408 -27q-193 0 -294.5 103.5t-101.5 275.5q0 155 63 297t163.5 240.5t227.5 156.5t253 58q159 0 253.5 -63.5t94.5 -168.5q0 -60 -27.5 -107.5t-76 -82.5t-129 -64t-172.5 -50t-220 -42q-4 -82 -4 -123q0 -134 42.5 -192.5t125.5 -58.5q77 0 146.5 32.5t148.5 104.5
l27 -27q-33 -53 -77.5 -99.5t-108 -91.5t-150 -71.5t-184.5 -26.5zM489 1339q0 82 57 132.5t142 50.5q86 0 142.5 -50.5t56.5 -132.5q0 -83 -56 -132.5t-143 -49.5q-86 0 -142.5 49.5t-56.5 132.5zM668 1049q-45 0 -90 -64t-79.5 -174t-49.5 -240q142 46 200 111
q36 40 56 110.5t20 145.5q0 59 -13.5 85t-43.5 26z" />
    <glyph glyph-name="Eogonek" unicode="&#x118;" horiz-adv-x="1302" 
d="M1130 0h-210q-44 -37 -70 -63t-49 -67.5t-23 -82.5q0 -53 29.5 -78.5t93.5 -25.5q23 0 47 6l-4 -25q-33 -37 -88 -60.5t-113 -23.5q-96 0 -151 42t-55 108q0 90 91.5 161t256.5 109h-955l7 35l53 14q26 7 36 10.5t25 11.5t20 16.5t13.5 27t13 41t11.5 59.5l174 989
q17 100 8 124.5t-68 41.5l-49 14l6 35h1143l-49 -465h-35q-51 183 -88 271q-34 79 -78.5 106t-140.5 27q-98 0 -156 -12l-100 -578h51q84 0 115.5 13.5t60.5 52.5q34 47 105 184h32l-102 -576h-33q-3 15 -9.5 56t-12 70.5t-11.5 52.5q-13 47 -46 64t-109 17h-53l-89 -503
q-15 -85 15.5 -112.5t140.5 -27.5q98 0 155.5 32.5t125.5 123.5q85 112 196 309h39z" />
    <glyph glyph-name="eogonek" unicode="&#x119;" horiz-adv-x="1050" 
d="M408 -27q-194 0 -295 103.5t-101 275.5q0 155 63 297t163.5 240.5t227.5 156.5t253 58q159 0 253.5 -63.5t94.5 -168.5q0 -60 -27 -107.5t-75 -82.5t-128.5 -64t-173 -50t-221.5 -42q-4 -82 -4 -123q0 -134 42.5 -192.5t125.5 -58.5q151 0 289 135l31 -29
q-93 -113 -267 -240q-112 -81 -153 -128.5t-41 -102.5q0 -53 29.5 -78.5t93.5 -25.5q23 0 47 6l-4 -25q-33 -37 -88 -60.5t-113 -23.5q-96 0 -151.5 42t-55.5 108q0 81 75.5 146.5t211.5 107.5q-91 -11 -102 -11zM668 1049q-45 0 -91 -64.5t-81 -174.5t-50 -239
q145 46 203 111q36 40 56 110.5t20 145.5q0 59 -13.5 85t-43.5 26z" />
    <glyph glyph-name="Ecaron" unicode="&#x11a;" horiz-adv-x="1302" 
d="M1214 1823l11 -23l-334 -303h-129l-219 307l14 19l291 -99zM-70 0l7 35l53 14q26 7 36 10.5t25 11.5t20 16.5t13.5 27t13 41t11.5 59.5l174 989q17 100 8 124.5t-68 41.5l-49 14l6 35h1143l-49 -465h-35q-51 183 -88 271q-34 79 -78.5 106t-140.5 27q-98 0 -156 -12
l-100 -578h51q84 0 115.5 13.5t60.5 52.5q34 47 105 184h32l-102 -576h-33q-3 15 -9.5 56t-12 70.5t-11.5 52.5q-13 47 -46 64t-109 17h-53l-89 -503q-15 -85 15.5 -112.5t140.5 -27.5q98 0 155.5 32.5t125.5 123.5q85 112 196 309h39l-117 -524h-1200z" />
    <glyph glyph-name="ecaron" unicode="&#x11b;" horiz-adv-x="1050" 
d="M408 -27q-193 0 -294.5 103.5t-101.5 275.5q0 155 63 297t163.5 240.5t227.5 156.5t253 58q159 0 253.5 -63.5t94.5 -168.5q0 -60 -27.5 -107.5t-76 -82.5t-129 -64t-172.5 -50t-220 -42q-4 -82 -4 -123q0 -134 42.5 -192.5t125.5 -58.5q77 0 146.5 32.5t148.5 104.5
l27 -27q-33 -53 -77.5 -99.5t-108 -91.5t-150 -71.5t-184.5 -26.5zM1022 1536l8 -18l-295 -330h-112l-201 330l12 18l268 -121zM668 1049q-45 0 -90 -64t-79.5 -174t-49.5 -240q142 46 200 111q36 40 56 110.5t20 145.5q0 59 -13.5 85t-43.5 26z" />
    <glyph glyph-name="Gcircumflex" unicode="&#x11c;" horiz-adv-x="1392" 
d="M594 1479l-10 22l334 303h129l219 -307l-15 -18l-290 98zM727 -25q-318 0 -487.5 155.5t-169.5 428.5q0 167 49.5 311.5t136 248.5t202.5 178t250.5 110.5t278.5 36.5q234 0 387 -68l-43 -458h-35q-59 166 -125 301q-49 95 -97.5 130t-115.5 35q-85 0 -158 -72.5
t-122 -187t-84 -257.5t-50.5 -281t-15.5 -260q0 -147 41 -219t138 -72q56 0 92 20l63 353q17 100 7.5 126.5t-68.5 43.5l-49 14l6 35h672l-7 -35l-28 -10q-51 -18 -64.5 -42t-34.5 -128l-69 -363q-200 -74 -500 -74z" />
    <glyph glyph-name="gcircumflex" unicode="&#x11d;" horiz-adv-x="1064" 
d="M268 1171l-8 19l295 330h113l200 -330l-12 -19l-268 121zM395 -418q-146 0 -253.5 17t-168.5 47t-89.5 67.5t-28.5 83.5q0 160 305 185v6q-70 19 -116 72.5t-46 117.5q0 81 58.5 155.5t170.5 127.5v8q-168 89 -168 258q0 167 139 272t355 105q80 0 155.5 -19t120.5 -49
q59 62 109 89.5t104 27.5q58 0 96 -32.5t38 -80.5q0 -52 -32 -85t-83 -33q-38 0 -64.5 17.5t-48.5 61.5q-25 52 -80 5v-7q56 -39 85.5 -98.5t29.5 -126.5q0 -159 -130 -257.5t-357 -98.5q-136 0 -222 26q-45 -26 -45 -79q0 -51 80 -54l316 -14q182 -12 276 -83.5t94 -199.5
q0 -187 -164 -309.5t-436 -122.5zM414 -362q144 0 225.5 47t81.5 139q0 52 -36 81t-116 36l-356 32q-59 -69 -59 -166q0 -169 260 -169zM469 471q42 0 81.5 82.5t62 195t22.5 207.5q0 42 -15.5 68.5t-44.5 26.5q-45 0 -84.5 -86.5t-60 -197.5t-20.5 -200q0 -96 59 -96z" />
    <glyph glyph-name="Gbreve" unicode="&#x11e;" horiz-adv-x="1392" 
d="M936 1485q-122 0 -184 83.5t-80 241.5l22 9q37 -67 95 -96t161 -29q169 0 285 125l18 -9q-44 -156 -120 -240.5t-197 -84.5zM727 -25q-318 0 -487.5 155.5t-169.5 428.5q0 167 49.5 311.5t136 248.5t202.5 178t250.5 110.5t278.5 36.5q234 0 387 -68l-43 -458h-35
q-59 166 -125 301q-49 95 -97.5 130t-115.5 35q-85 0 -158 -72.5t-122 -187t-84 -257.5t-50.5 -281t-15.5 -260q0 -147 41 -219t138 -72q56 0 92 20l63 353q17 100 7.5 126.5t-68.5 43.5l-49 14l6 35h672l-7 -35l-28 -10q-51 -18 -64.5 -42t-34.5 -128l-69 -363
q-200 -74 -500 -74z" />
    <glyph glyph-name="gbreve" unicode="&#x11f;" horiz-adv-x="1064" 
d="M395 -418q-146 0 -253.5 17t-168.5 47t-89.5 67.5t-28.5 83.5q0 160 305 185v6q-70 19 -116 72.5t-46 117.5q0 81 58.5 155.5t170.5 127.5v8q-168 89 -168 258q0 167 139 272t355 105q80 0 155.5 -19t120.5 -49q59 62 109 89.5t104 27.5q58 0 96 -32.5t38 -80.5
q0 -52 -32 -85t-83 -33q-38 0 -64.5 17.5t-48.5 61.5q-25 52 -80 5v-7q56 -39 85.5 -98.5t29.5 -126.5q0 -159 -130 -257.5t-357 -98.5q-136 0 -222 26q-45 -26 -45 -79q0 -51 80 -54l316 -14q182 -12 276 -83.5t94 -199.5q0 -187 -164 -309.5t-436 -122.5zM414 -362
q144 0 225.5 47t81.5 139q0 52 -36 81t-116 36l-356 32q-59 -69 -59 -166q0 -169 260 -169zM469 471q42 0 81.5 82.5t62 195t22.5 207.5q0 42 -15.5 68.5t-44.5 26.5q-45 0 -84.5 -86.5t-60 -197.5t-20.5 -200q0 -96 59 -96zM575 1176q-107 0 -161 77.5t-72 247.5l25 8
q27 -66 85 -94.5t154 -28.5q73 0 144.5 30t119.5 93l23 -12q-47 -154 -122 -237.5t-196 -83.5z" />
    <glyph glyph-name="Gdotaccent" unicode="&#x120;" horiz-adv-x="1392" 
d="M930 1477q-87 0 -144 50t-57 134q0 83 57 133.5t144 50.5q88 0 144 -50.5t56 -133.5q0 -85 -56 -134.5t-144 -49.5zM727 -25q-318 0 -487.5 155.5t-169.5 428.5q0 167 49.5 311.5t136 248.5t202.5 178t250.5 110.5t278.5 36.5q234 0 387 -68l-43 -458h-35
q-59 166 -125 301q-49 95 -97.5 130t-115.5 35q-85 0 -158 -72.5t-122 -187t-84 -257.5t-50.5 -281t-15.5 -260q0 -147 41 -219t138 -72q56 0 92 20l63 353q17 100 7.5 126.5t-68.5 43.5l-49 14l6 35h672l-7 -35l-28 -10q-51 -18 -64.5 -42t-34.5 -128l-69 -363
q-200 -74 -500 -74z" />
    <glyph glyph-name="gdotaccent" unicode="&#x121;" horiz-adv-x="1064" 
d="M395 -418q-146 0 -253.5 17t-168.5 47t-89.5 67.5t-28.5 83.5q0 160 305 185v6q-70 19 -116 72.5t-46 117.5q0 81 58.5 155.5t170.5 127.5v8q-168 89 -168 258q0 167 139 272t355 105q80 0 155.5 -19t120.5 -49q59 62 109 89.5t104 27.5q58 0 96 -32.5t38 -80.5
q0 -52 -32 -85t-83 -33q-38 0 -64.5 17.5t-48.5 61.5q-25 52 -80 5v-7q56 -39 85.5 -98.5t29.5 -126.5q0 -159 -130 -257.5t-357 -98.5q-136 0 -222 26q-45 -26 -45 -79q0 -51 80 -54l316 -14q182 -12 276 -83.5t94 -199.5q0 -187 -164 -309.5t-436 -122.5zM414 -362
q144 0 225.5 47t81.5 139q0 52 -36 81t-116 36l-356 32q-59 -69 -59 -166q0 -169 260 -169zM469 471q42 0 81.5 82.5t62 195t22.5 207.5q0 42 -15.5 68.5t-44.5 26.5q-45 0 -84.5 -86.5t-60 -197.5t-20.5 -200q0 -96 59 -96zM379 1339q0 82 57 132.5t142 50.5
q86 0 142 -50.5t56 -132.5q0 -83 -55.5 -132.5t-142.5 -49.5q-86 0 -142.5 49.5t-56.5 132.5z" />
    <glyph glyph-name="Gcommaaccent" unicode="&#x122;" horiz-adv-x="1392" 
d="M401 -518l-4 22q114 30 178 76t84 119q-13 -14 -39.5 -22.5t-50.5 -8.5q-56 0 -90.5 33.5t-34.5 87.5t45.5 93.5t118.5 39.5q83 0 135 -48t52 -120q0 -125 -104.5 -191.5t-289.5 -80.5zM727 -25q-318 0 -487.5 155.5t-169.5 428.5q0 167 49.5 311.5t136 248.5t202.5 178
t250.5 110.5t278.5 36.5q234 0 387 -68l-43 -458h-35q-59 166 -125 301q-49 95 -97.5 130t-115.5 35q-85 0 -158 -72.5t-122 -187t-84 -257.5t-50.5 -281t-15.5 -260q0 -147 41 -219t138 -72q56 0 92 20l63 353q17 100 7.5 126.5t-68.5 43.5l-49 14l6 35h672l-7 -35l-28 -10
q-51 -18 -64.5 -42t-34.5 -128l-69 -363q-200 -74 -500 -74z" />
    <glyph glyph-name="gcommaaccent" unicode="&#x123;" horiz-adv-x="1064" 
d="M803 1585l4 -22q-114 -30 -178 -76t-84 -119q13 14 39.5 22.5t50.5 8.5q56 0 90.5 -33.5t34.5 -87.5t-45.5 -93.5t-118.5 -39.5q-83 0 -134.5 48t-51.5 120q0 125 104 191.5t289 80.5zM395 -418q-146 0 -253.5 17t-168.5 47t-89.5 67.5t-28.5 83.5q0 160 305 185v6
q-70 19 -116 72.5t-46 117.5q0 81 58.5 155.5t170.5 127.5v8q-168 89 -168 258q0 167 139 272t355 105q80 0 155.5 -19t120.5 -49q59 62 109 89.5t104 27.5q58 0 96 -32.5t38 -80.5q0 -52 -32 -85t-83 -33q-38 0 -64.5 17.5t-48.5 61.5q-25 52 -80 5v-7q56 -39 85.5 -98.5
t29.5 -126.5q0 -159 -130 -257.5t-357 -98.5q-136 0 -222 26q-45 -26 -45 -79q0 -51 80 -54l316 -14q182 -12 276 -83.5t94 -199.5q0 -187 -164 -309.5t-436 -122.5zM414 -362q144 0 225.5 47t81.5 139q0 52 -36 81t-116 36l-356 32q-59 -69 -59 -166q0 -169 260 -169z
M469 471q42 0 81.5 82.5t62 195t22.5 207.5q0 42 -15.5 68.5t-44.5 26.5q-45 0 -84.5 -86.5t-60 -197.5t-20.5 -200q0 -96 59 -96z" />
    <glyph glyph-name="Hcircumflex" unicode="&#x124;" horiz-adv-x="1585" 
d="M-70 0l7 35l53 14q26 7 36 10.5t25 11.5t20 16.5t13.5 27t13 41t11.5 59.5l174 989q17 100 8 124.5t-68 41.5l-49 14l6 35h744l-6 -35l-52 -14q-46 -13 -62.5 -24.5t-27.5 -39.5t-24 -102l-76 -442h334l77 442q7 38 9.5 56.5t2.5 38.5t-2.5 27.5t-12.5 17t-21.5 14
t-34.5 12.5l-41 14l6 35h738l-7 -35l-55 -14q-34 -9 -48 -14.5t-28 -23.5t-20.5 -45t-16.5 -83l-174 -989q-19 -100 -10.5 -125.5t64.5 -40.5l51 -14l-6 -35h-738l7 35l41 14q4 1 11 4q52 19 67 35q22 25 42 127l86 477h-335l-84 -477q-13 -70 -13 -98t13.5 -42t54.5 -26
l47 -14l-6 -35h-744zM621 1479l-11 22l334 303h129l219 -307l-14 -18l-291 98z" />
    <glyph glyph-name="hcircumflex" unicode="&#x125;" horiz-adv-x="1241" 
d="M805 -27q-84 0 -122 40.5t-38 105.5q0 47 27 184l82 395q14 65 13.5 103t-10.5 50.5t-30 12.5q-36 0 -83.5 -39t-80.5 -94l-160 -731h-403l252 1292q18 83 13 107t-46 47l-59 33l6 24l536 47l17 -14q-30 -107 -57 -244l-50 -262q-16 -83 -55 -213h8q35 51 77 96t97 89.5
t123 71t137 26.5q90 0 142.5 -54t52.5 -155q0 -54 -18 -146l-109 -489q-6 -27 -6 -49q0 -36 23 -42t69 21l45 27l23 -31q-90 -94 -203.5 -151.5t-212.5 -57.5zM371 1585l-11 23l334 303h129l219 -307l-14 -19l-291 98z" />
    <glyph glyph-name="Hbar" unicode="&#x126;" horiz-adv-x="1585" 
d="M104 1020l15 65h141l23 119q17 100 8 124.5t-68 41.5l-49 14l6 35h744l-6 -35l-52 -14q-46 -13 -62.5 -24.5t-27.5 -39.5t-24 -102l-21 -119h334l22 119q7 38 9.5 56.5t2.5 38.5t-2.5 27.5t-12.5 17t-21.5 14t-34.5 12.5l-41 14l6 35h738l-7 -35l-55 -14
q-34 -9 -48 -14.5t-28 -23.5t-20.5 -45t-16.5 -83l-22 -119h135l-14 -65h-131l-142 -805q-19 -100 -10.5 -125.5t64.5 -40.5l51 -14l-6 -35h-738l7 35l41 14q4 1 11 4q52 19 67 35q22 25 42 127l86 477h-335l-84 -477q-13 -70 -13 -98t13.5 -42t54.5 -26l47 -14l-6 -35h-744
l7 35l53 14q26 7 36 10.5t25 11.5t20 16.5t13.5 27t13 41t11.5 59.5l141 805h-146zM676 762h334l45 258h-336z" />
    <glyph glyph-name="hbar" unicode="&#x127;" horiz-adv-x="1241" 
d="M119 1217l14 67h117l2 8q18 83 13 107t-46 47l-59 33l6 24l536 47l17 -14q-30 -107 -57 -244l-3 -8h279l-16 -67h-275l-35 -187q-16 -83 -55 -213h8q35 51 77 96t97 89.5t123 71t137 26.5q90 0 142.5 -54t52.5 -155q0 -54 -18 -146l-109 -489q-6 -27 -6 -49q0 -36 23 -42
t69 21l45 27l23 -31q-90 -94 -203.5 -151.5t-212.5 -57.5q-84 0 -122 40.5t-38 105.5q0 47 27 184l82 395q14 65 13.5 103t-10.5 50.5t-30 12.5q-36 0 -83.5 -39t-80.5 -94l-160 -731h-403l238 1217h-119z" />
    <glyph glyph-name="Itilde" unicode="&#x128;" horiz-adv-x="774" 
d="M109 215l174 989q17 100 8 124.5t-68 41.5l-49 14l6 35h740l-7 -35l-51 -14q-41 -11 -57.5 -22.5t-28 -41.5t-24.5 -102l-174 -989q-8 -44 -10.5 -68.5t-2.5 -43t9 -27.5t20 -14.5t35 -12.5l47 -14l-6 -35h-740l7 35l53 14q26 7 36 10.5t25 11.5t20 16.5t13.5 27t13 41
t11.5 59.5zM266 1481l-28 14q64 143 124 215t130 72q53 0 171.5 -20.5t159.5 -20.5q35 0 57 18t64 72l27 -14q-66 -150 -120 -218.5t-130 -68.5q-52 0 -170.5 19.5t-159.5 19.5q-37 0 -61 -18t-64 -70z" />
    <glyph glyph-name="itilde" unicode="&#x129;" horiz-adv-x="657" 
d="M221 -27q-89 0 -132.5 43.5t-43.5 120.5q0 66 37 215l106 441q9 35 9 57q0 21 -7 31t-22.5 9.5t-39 -11t-56.5 -31.5l-23 -14l-24 30q107 115 219 175.5t205 60.5q87 0 131.5 -42.5t44.5 -121.5q0 -66 -37 -215l-117 -465q-6 -27 -6 -49q0 -41 31.5 -43t72.5 26l39 25
l25 -31q-83 -92 -198 -151.5t-214 -59.5zM172 1167l-25 13q21 48 33 74.5t30 62t31.5 54t32.5 40t37.5 31.5t42.5 17t52 7q40 0 140 -20.5t144 -20.5q33 0 52.5 15t57.5 62q2 3 3 4l3 3t3 4l25 -12q-28 -76 -49.5 -122t-51 -87.5t-67 -59.5t-86.5 -18q-39 0 -139 19.5
t-144 19.5q-37 0 -60 -17t-65 -69z" />
    <glyph glyph-name="Imacron" unicode="&#x12a;" horiz-adv-x="774" 
d="M109 215l174 989q17 100 8 124.5t-68 41.5l-49 14l6 35h740l-7 -35l-51 -14q-41 -11 -57.5 -22.5t-28 -41.5t-24.5 -102l-174 -989q-8 -44 -10.5 -68.5t-2.5 -43t9 -27.5t20 -14.5t35 -12.5l47 -14l-6 -35h-740l7 35l53 14q26 7 36 10.5t25 11.5t20 16.5t13.5 27t13 41
t11.5 59.5zM276 1546l25 142h590l-25 -142h-590z" />
    <glyph glyph-name="imacron" unicode="&#x12b;" horiz-adv-x="657" 
d="M188 1200l29 162h541l-27 -162h-543zM221 -27q-89 0 -132.5 43.5t-43.5 120.5q0 66 37 215l106 441q9 35 9 57q0 21 -7 31t-22.5 9.5t-39 -11t-56.5 -31.5l-23 -14l-24 30q107 115 219 175.5t205 60.5q87 0 131.5 -42.5t44.5 -121.5q0 -66 -37 -215l-117 -465
q-6 -27 -6 -49q0 -41 31.5 -43t72.5 26l39 25l25 -31q-83 -92 -198 -151.5t-214 -59.5z" />
    <glyph glyph-name="Ibreve" unicode="&#x12c;" horiz-adv-x="774" 
d="M109 215l174 989q17 100 8 124.5t-68 41.5l-49 14l6 35h740l-7 -35l-51 -14q-41 -11 -57.5 -22.5t-28 -41.5t-24.5 -102l-174 -989q-8 -44 -10.5 -68.5t-2.5 -43t9 -27.5t20 -14.5t35 -12.5l47 -14l-6 -35h-740l7 35l53 14q26 7 36 10.5t25 11.5t20 16.5t13.5 27t13 41
t11.5 59.5zM569 1485q-122 0 -184 83.5t-80 241.5l23 9q37 -67 95 -96t161 -29q168 0 284 125l19 -9q-44 -156 -120.5 -240.5t-197.5 -84.5z" />
    <glyph glyph-name="ibreve" unicode="&#x12d;" horiz-adv-x="657" 
d="M221 -27q-89 0 -132.5 43.5t-43.5 120.5q0 66 37 215l106 441q9 35 9 57q0 21 -7 31t-22.5 9.5t-39 -11t-56.5 -31.5l-23 -14l-24 30q107 115 219 175.5t205 60.5q87 0 131.5 -42.5t44.5 -121.5q0 -66 -37 -215l-117 -465q-6 -27 -6 -49q0 -41 31.5 -43t72.5 26l39 25
l25 -31q-83 -92 -198 -151.5t-214 -59.5zM477 1176q-107 0 -161 77.5t-72 247.5l24 8q27 -66 85.5 -94.5t154.5 -28.5q73 0 144.5 30t119.5 93l23 -12q-47 -154 -122 -237.5t-196 -83.5z" />
    <glyph glyph-name="Iogonek" unicode="&#x12e;" horiz-adv-x="774" 
d="M670 0h-183q-67 -56 -104 -105t-37 -108q0 -53 29.5 -78.5t93.5 -25.5q23 0 47 6l-4 -25q-33 -37 -88 -60.5t-113 -23.5q-96 0 -151.5 42t-55.5 108q0 90 92 161t257 109h-523l7 35l53 14q26 7 36 10.5t25 11.5t20 16.5t13.5 27t13 41t11.5 59.5l174 989q17 100 8 124.5
t-68 41.5l-49 14l6 35h740l-7 -35l-51 -14q-41 -11 -57.5 -22.5t-28 -41.5t-24.5 -102l-174 -989q-8 -44 -10.5 -68.5t-2.5 -43t9 -27.5t20 -14.5t35 -12.5l47 -14z" />
    <glyph glyph-name="iogonek" unicode="&#x12f;" horiz-adv-x="657" 
d="M201 -420q-96 0 -151.5 42t-55.5 108q0 159 297 250q-44 -7 -66 -7q-89 0 -134.5 44t-45.5 120q0 66 37 215l106 441q9 35 9 57q0 62 -73 28q-22 -11 -52 -30l-23 -14l-24 30q103 109 216 172.5t208 63.5q85 0 130.5 -41t45.5 -119q0 -70 -37 -219l-117 -465
q-6 -27 -6 -47q0 -37 26.5 -43.5t77.5 24.5l39 25l25 -35q-37 -35 -80.5 -69.5t-94 -72.5t-75.5 -58q-147 -115 -147 -193q0 -53 29 -78.5t93 -25.5q24 0 48 6l-5 -25q-33 -37 -87.5 -60.5t-112.5 -23.5zM489 1165q-87 0 -145.5 52.5t-58.5 136.5t58 136t146 52t146.5 -52.5
t58.5 -135.5q0 -84 -58.5 -136.5t-146.5 -52.5z" />
    <glyph glyph-name="Idotaccent" unicode="&#x130;" horiz-adv-x="774" 
d="M109 215l174 989q17 100 8 124.5t-68 41.5l-49 14l6 35h740l-7 -35l-51 -14q-41 -11 -57.5 -22.5t-28 -41.5t-24.5 -102l-174 -989q-8 -44 -10.5 -68.5t-2.5 -43t9 -27.5t20 -14.5t35 -12.5l47 -14l-6 -35h-740l7 35l53 14q26 7 36 10.5t25 11.5t20 16.5t13.5 27t13 41
t11.5 59.5zM573 1477q-87 0 -143.5 50t-56.5 134q0 83 56.5 133.5t143.5 50.5q88 0 144.5 -50.5t56.5 -133.5q0 -85 -56.5 -134.5t-144.5 -49.5z" />
    <glyph glyph-name="dotlessi" unicode="&#x131;" horiz-adv-x="657" 
d="M221 -27q-89 0 -132.5 43.5t-43.5 120.5q0 66 37 215l106 441q9 35 9 57q0 21 -7 31t-22.5 9.5t-39 -11t-56.5 -31.5l-23 -14l-24 30q107 115 219 175.5t205 60.5q87 0 131.5 -42.5t44.5 -121.5q0 -66 -37 -215l-117 -465q-6 -27 -6 -49q0 -41 31.5 -43t72.5 26l39 25
l25 -31q-83 -92 -198 -151.5t-214 -59.5z" />
    <glyph glyph-name="IJ" unicode="&#x132;" horiz-adv-x="1863" 
d="M109 215l174 989q17 100 8 124.5t-68 41.5l-49 14l6 35h740l-7 -35l-51 -14q-41 -11 -57.5 -22.5t-28 -41.5t-24.5 -102l-174 -989q-8 -44 -10.5 -68.5t-2.5 -43t9 -27.5t20 -14.5t35 -12.5l47 -14l-6 -35h-740l7 35l53 14q26 7 36 10.5t25 11.5t20 16.5t13.5 27t13 41
t11.5 59.5zM1098 -23q-189 0 -299.5 67.5t-110.5 180.5q0 81 49 134t135 53q103 0 151.5 -67.5t61.5 -248.5q3 -53 37 -53q27 0 42 28.5t30 112.5l180 1020q18 97 8.5 123t-69.5 43l-49 14l6 35h741l-6 -35l-51 -14q-59 -15 -75.5 -40t-35.5 -126l-117 -651
q-47 -268 -215 -422t-413 -154z" />
    <glyph glyph-name="ij" unicode="&#x133;" horiz-adv-x="1300" 
d="M221 -27q-89 0 -132.5 43.5t-43.5 120.5q0 66 37 215l106 441q9 35 9 57q0 21 -7 31t-22.5 9.5t-39 -11t-56.5 -31.5l-23 -14l-24 30q107 115 219 175.5t205 60.5q87 0 131.5 -42.5t44.5 -121.5q0 -66 -37 -215l-117 -465q-6 -27 -6 -49q0 -41 31.5 -43t72.5 26l39 25
l25 -31q-83 -92 -198 -151.5t-214 -59.5zM489 1165q-87 0 -145.5 52.5t-58.5 136.5t58 136t146 52t146.5 -52.5t58.5 -135.5q0 -84 -58.5 -136.5t-146.5 -52.5zM1145 1165q-88 0 -146.5 52.5t-58.5 136.5q0 83 58.5 135.5t146.5 52.5t146.5 -52.5t58.5 -135.5
q0 -84 -58.5 -136.5t-146.5 -52.5zM1241 721l-127 -592q-58 -262 -207.5 -404.5t-376.5 -142.5q-139 0 -220 58.5t-81 152.5q0 66 41.5 108t110.5 42q79 0 121 -50t53 -184q3 -40 9 -54.5t22 -14.5q14 0 24.5 11.5t22 48.5t23 92.5t30.5 156.5l158 844q6 31 6 57q0 21 -7 31
t-22.5 9.5t-39 -11t-56.5 -31.5l-23 -14l-24 30q107 115 219 175.5t205 60.5q176 0 176 -160q0 -13 -1.5 -28.5t-3 -27.5t-5.5 -34.5t-7 -34.5t-9.5 -44.5t-10.5 -49.5z" />
    <glyph glyph-name="Jcircumflex" unicode="&#x134;" horiz-adv-x="1089" 
d="M535 1479l-11 22l334 303h129l219 -307l-14 -18l-291 98zM324 -23q-189 0 -299.5 67.5t-110.5 180.5q0 81 49 134t135 53q103 0 151.5 -67.5t61.5 -248.5q3 -53 37 -53q27 0 42 28.5t30 112.5l180 1020q18 97 8.5 123t-69.5 43l-50 14l7 35h741l-6 -35l-51 -14
q-59 -15 -75.5 -40t-35.5 -126l-117 -651q-47 -268 -215 -422t-413 -154z" />
    <glyph glyph-name="jcircumflex" unicode="&#x135;" horiz-adv-x="643" 
d="M-127 -418q-139 0 -220 58.5t-81 152.5q0 66 41.5 108t110.5 42q79 0 121 -50t53 -184q3 -41 8.5 -55t21.5 -14q28 0 46.5 58.5t54.5 250.5l157 844q7 36 7 57t-7 31t-22.5 9.5t-39 -11t-56.5 -31.5l-23 -14l-25 30q107 115 219 175.5t205 60.5q87 0 132 -41t45 -119
q0 -13 -1.5 -28.5t-3 -27.5t-5.5 -34.5t-7 -34.5t-9.5 -44.5t-10.5 -49.5l-127 -592q-58 -262 -207.5 -404.5t-376.5 -142.5zM143 1171l-8 19l295 330h113l200 -330l-12 -19l-268 121z" />
    <glyph glyph-name="Kcommaaccent" unicode="&#x136;" horiz-adv-x="1523" 
d="M434 -518l-4 22q114 30 178 76t84 119q-13 -14 -39.5 -22.5t-50.5 -8.5q-56 0 -90.5 33.5t-34.5 87.5t45.5 93.5t118.5 39.5q83 0 134.5 -48t51.5 -120q0 -125 -104 -191.5t-289 -80.5zM911 0q-119 277 -217 653l6 37l428 428q132 132 132 185q0 24 -18 39.5t-64 27.5
l-56 14l6 35h500l-8 -35l-31 -10q-92 -31 -154.5 -71t-156.5 -134l-215 -213q141 -473 313 -831q18 -39 35.5 -55.5t52.5 -28.5l19 -6l-6 -35h-566zM109 215l174 989q8 44 10 66.5t1.5 41.5t-10.5 28t-22 15t-39 15l-49 14l6 35h744l-6 -35l-52 -14q-65 -20 -81 -43.5
t-33 -122.5l-174 -989q-13 -74 -13 -99.5t13 -39.5t55 -27l47 -14l-6 -35h-744l7 35l53 14q26 7 36 10.5t25 11.5t20 16.5t13.5 27t13 41t11.5 59.5z" />
    <glyph glyph-name="kcommaaccent" unicode="&#x137;" horiz-adv-x="1198" 
d="M195 -518l-5 22q114 30 178.5 76t84.5 119q-13 -14 -40 -22.5t-51 -8.5q-55 0 -89.5 33.5t-34.5 87.5q0 55 45 94t118 39q83 0 135 -48t52 -120q0 -125 -104 -191.5t-289 -80.5zM809 -27q-71 0 -116 45.5t-79 147.5q-56 160 -82 340l5 22q92 145 161 242t140 176.5
t134 116.5t124 37q65 0 104 -41t39 -105q0 -59 -38 -96t-95 -37q-35 0 -62.5 16.5t-40.5 36t-29 36t-32 16.5q-48 0 -131 -111q93 -306 180 -528q33 -84 58 -99t79 15l33 18l23 -28q-81 -92 -183 -156t-192 -64zM0 0l252 1292q19 82 15 107t-44 47l-59 33l6 24l532 47
l17 -14q-30 -107 -57 -244l-252 -1292h-410z" />
    <glyph glyph-name="Lacute" unicode="&#x139;" horiz-adv-x="1241" 
d="M336 1481l-8 20l250 258q59 62 124 62q62 0 104 -45t42 -109q0 -55 -33.5 -90t-93.5 -43zM-70 0l9 35l51 14q38 11 53 16.5t29.5 25t20.5 43.5t16 81l174 989q15 89 4.5 119t-64.5 47l-49 14l6 35h758l-6 -35l-68 -16q-60 -15 -78.5 -42.5t-33.5 -121.5l-177 -997
q-13 -78 20 -113t114 -35q92 0 142 28.5t122 125.5q69 91 223 358h37l-119 -571h-1184z" />
    <glyph glyph-name="lacute" unicode="&#x13a;" horiz-adv-x="643" 
d="M328 1587l-9 21l250 258q58 61 125 61q62 0 104 -44.5t42 -108.5q0 -56 -33.5 -91.5t-93.5 -42.5zM68 352l178 940q6 34 8.5 48.5t4 33.5t-0.5 25.5t-8 17t-14 16t-23 13.5l-59 33l6 24l538 47l19 -14q-31 -107 -58 -244l-202 -1036q-6 -27 -6 -49q0 -20 10.5 -29
t28 -6.5t37.5 11t42 22.5l35 22l25 -30q-102 -107 -212 -165.5t-206 -58.5q-176 0 -176 156q0 17 1.5 33.5t5 39t6 39t9.5 52.5t11 59z" />
    <glyph glyph-name="Lcommaaccent" unicode="&#x13b;" horiz-adv-x="1241" 
d="M307 -518l-4 22q114 30 178 76t84 119q-13 -14 -39.5 -22.5t-50.5 -8.5q-56 0 -90.5 33.5t-34.5 87.5t45.5 93.5t118.5 39.5q83 0 134.5 -48t51.5 -120q0 -125 -104 -191.5t-289 -80.5zM-70 0l9 35l51 14q38 11 53 16.5t29.5 25t20.5 43.5t16 81l174 989q15 89 4.5 119
t-64.5 47l-49 14l6 35h758l-6 -35l-68 -16q-60 -15 -78.5 -42.5t-33.5 -121.5l-177 -997q-13 -78 20 -113t114 -35q92 0 142 28.5t122 125.5q69 91 223 358h37l-119 -571h-1184z" />
    <glyph glyph-name="lcommaaccent" unicode="&#x13c;" horiz-adv-x="643" 
d="M-53 -518l-4 22q114 30 178 76t84 119q-13 -14 -39.5 -22.5t-50.5 -8.5q-56 0 -90.5 33.5t-34.5 87.5t45.5 93.5t118.5 39.5q83 0 134.5 -48t51.5 -120q0 -125 -104 -191.5t-289 -80.5zM68 352l178 940q6 34 8.5 48.5t4 33.5t-0.5 25.5t-8 17t-14 16t-23 13.5l-59 33
l6 24l538 47l19 -14q-31 -107 -58 -244l-202 -1036q-6 -27 -6 -49q0 -20 10.5 -29t28 -6.5t37.5 11t42 22.5l35 22l25 -30q-102 -107 -212 -165.5t-206 -58.5q-176 0 -176 156q0 17 1.5 33.5t5 39t6 39t9.5 52.5t11 59z" />
    <glyph glyph-name="Lcaron" unicode="&#x13d;" horiz-adv-x="1241" 
d="M-70 0l9 35l51 14q38 11 53 16.5t29.5 25t20.5 43.5t16 81l174 989q15 89 4.5 119t-64.5 47l-49 14l6 35h758l-6 -35l-68 -16q-60 -15 -78.5 -42.5t-33.5 -121.5l-177 -997q-13 -78 20 -113t114 -35q92 0 142 28.5t122 125.5q69 91 223 358h37l-119 -571h-1184zM932 1042
l-19 11l74 274q26 103 107 103q47 0 85 -32.5t38 -78.5q0 -49 -56 -94z" />
    <glyph glyph-name="lcaron" unicode="&#x13e;" horiz-adv-x="643" 
d="M723 1161l-18 10l73 275q26 102 107 102q47 0 85 -32t38 -78q0 -50 -56 -95zM68 352l178 940q6 34 8.5 48.5t4 33.5t-0.5 25.5t-8 17t-14 16t-23 13.5l-59 33l6 24l538 47l19 -14q-31 -107 -58 -244l-202 -1036q-6 -27 -6 -49q0 -20 10.5 -29t28 -6.5t37.5 11t42 22.5
l35 22l25 -30q-102 -107 -212 -165.5t-206 -58.5q-176 0 -176 156q0 17 1.5 33.5t5 39t6 39t9.5 52.5t11 59z" />
    <glyph glyph-name="Ldot" unicode="&#x13f;" horiz-adv-x="1241" 
d="M-70 0l9 35l51 14q38 11 53 16.5t29.5 25t20.5 43.5t16 81l174 989q15 89 4.5 119t-64.5 47l-49 14l6 35h758l-6 -35l-68 -16q-60 -15 -78.5 -42.5t-33.5 -121.5l-177 -997q-13 -78 20 -113t114 -35q95 0 155.5 30t132.5 124q95 123 179 260h36l-98 -473h-1184zM862 784
q0 80 58 137.5t137 57.5t136.5 -57.5t57.5 -137.5t-57.5 -137t-136.5 -57q-80 0 -137.5 57.5t-57.5 136.5z" />
    <glyph glyph-name="ldot" unicode="&#x140;" horiz-adv-x="919" 
d="M614 760q0 82 57 132t142 50q86 0 142.5 -50t56.5 -132q0 -83 -56 -132.5t-143 -49.5q-86 0 -142.5 49.5t-56.5 132.5zM68 352l178 940q6 34 8.5 48.5t4 33.5t-0.5 25.5t-8 17t-14 16t-23 13.5l-59 33l6 24l538 47l19 -14q-31 -107 -58 -244l-202 -1036q-6 -27 -6 -49
q0 -20 10.5 -29t28 -6.5t37.5 11t42 22.5l35 22l25 -30q-102 -107 -212 -165.5t-206 -58.5q-176 0 -176 156q0 17 1.5 33.5t5 39t6 39t9.5 52.5t11 59z" />
    <glyph glyph-name="Lslash" unicode="&#x141;" horiz-adv-x="1241" 
d="M4 461l19 69l149 52l111 622q15 89 4.5 119t-64.5 47l-49 14l6 35h758l-6 -35l-68 -16q-60 -15 -78.5 -42.5t-33.5 -121.5l-80 -454l346 118l-19 -69l-340 -117l-84 -475q-13 -78 20 -113t114 -35q92 0 142 28.5t122 125.5q69 91 223 358h37l-119 -571h-1184l9 35l51 14
q38 11 53 16.5t29.5 25t20.5 43.5t16 81l51 299z" />
    <glyph glyph-name="lslash" unicode="&#x142;" horiz-adv-x="643" 
d="M12 659l15 82l125 60l94 491q6 34 8.5 48.5t4 33.5t-0.5 25.5t-8 17t-14 16t-23 13.5l-59 33l6 24l538 47l19 -14q-31 -107 -58 -244l-55 -278l141 65l-14 -82l-143 -67l-131 -674q-6 -27 -6 -49q0 -20 10.5 -29t28 -6.5t37.5 11t42 22.5l35 22l25 -30
q-102 -107 -212 -165.5t-206 -58.5q-176 0 -176 156q0 17 1.5 33.5t5 39t6 39t9.5 52.5t11 59l69 365z" />
    <glyph glyph-name="Nacute" unicode="&#x143;" horiz-adv-x="1366" 
d="M692 1481l-8 20l250 258q59 62 125 62q62 0 103.5 -45t41.5 -109q0 -55 -33.5 -90t-93.5 -43zM1163 686l92 518q16 94 3 123t-74 43l-64 14l6 35h385l-8 -35l-51 -12q-63 -13 -81.5 -39.5t-37.5 -128.5l-219 -1204h-123l-620 1194h-9l-176 -979q-17 -95 -5 -123t77 -43
l64 -14l-7 -35h-385l9 35l51 12q42 9 62 24t32.5 46t24.5 98l174 989q15 93 3.5 121.5t-63.5 44.5l-49 14l6 35h586l389 -733h8z" />
    <glyph glyph-name="nacute" unicode="&#x144;" horiz-adv-x="1269" 
d="M999 1241l-393 -61l-8 20l244 264q32 34 62 49t71 15q57 0 98 -46.5t41 -109.5q0 -49 -28.5 -86t-86.5 -45zM834 -27q-47 0 -80 13t-49.5 35.5t-23.5 46.5t-7 51q0 52 26 184l82 395q14 65 14 102.5t-10 50.5t-30 13q-36 0 -83.5 -39t-80.5 -94l-160 -731h-407l159 793
q6 35 6 49q0 94 -116 10l-23 -16l-26 32q96 106 203 169t208 63q74 0 117 -39t43 -115q0 -57 -16 -139h6q39 55 82 102t99 92.5t123.5 72t137.5 26.5q90 0 142.5 -54t52.5 -155q0 -49 -19 -146l-108 -489q-6 -27 -6 -49q0 -74 92 -21l45 27l22 -31q-90 -94 -203 -151.5
t-212 -57.5z" />
    <glyph glyph-name="Ncommaaccent" unicode="&#x145;" horiz-adv-x="1366" 
d="M338 -518l-4 22q114 30 178 76t84 119q-13 -14 -39.5 -22.5t-50.5 -8.5q-56 0 -90.5 33.5t-34.5 87.5t45.5 93.5t118.5 39.5q83 0 134.5 -48t51.5 -120q0 -125 -104 -191.5t-289 -80.5zM1163 686l92 518q16 94 3 123t-74 43l-64 14l6 35h385l-8 -35l-51 -12
q-63 -13 -81.5 -39.5t-37.5 -128.5l-219 -1204h-123l-620 1194h-9l-176 -979q-17 -95 -5 -123t77 -43l64 -14l-7 -35h-385l9 35l51 12q42 9 62 24t32.5 46t24.5 98l174 989q15 93 3.5 121.5t-63.5 44.5l-49 14l6 35h586l389 -733h8z" />
    <glyph glyph-name="ncommaaccent" unicode="&#x146;" horiz-adv-x="1269" 
d="M293 -518l-4 22q114 30 178 76t84 119q-13 -14 -39.5 -22.5t-50.5 -8.5q-56 0 -90.5 33.5t-34.5 87.5t45.5 93.5t118.5 39.5q83 0 134.5 -48t51.5 -120q0 -125 -104 -191.5t-289 -80.5zM834 -27q-47 0 -80 13t-49.5 35.5t-23.5 46.5t-7 51q0 52 26 184l82 395
q14 65 14 102.5t-10 50.5t-30 13q-36 0 -83.5 -39t-80.5 -94l-160 -731h-407l159 793q6 35 6 49q0 94 -116 10l-23 -16l-26 32q96 106 203 169t208 63q74 0 117 -39t43 -115q0 -57 -16 -139h6q39 55 82 102t99 92.5t123.5 72t137.5 26.5q90 0 142.5 -54t52.5 -155
q0 -49 -19 -146l-108 -489q-6 -27 -6 -49q0 -74 92 -21l45 27l22 -31q-90 -94 -203 -151.5t-212 -57.5z" />
    <glyph glyph-name="Ncaron" unicode="&#x147;" horiz-adv-x="1366" 
d="M1262 1823l10 -23l-334 -303h-129l-219 307l14 19l291 -99zM1163 686l92 518q16 94 3 123t-74 43l-64 14l6 35h385l-8 -35l-51 -12q-63 -13 -81.5 -39.5t-37.5 -128.5l-219 -1204h-123l-620 1194h-9l-176 -979q-17 -95 -5 -123t77 -43l64 -14l-7 -35h-385l9 35l51 12
q42 9 62 24t32.5 46t24.5 98l174 989q15 93 3.5 121.5t-63.5 44.5l-49 14l6 35h586l389 -733h8z" />
    <glyph glyph-name="ncaron" unicode="&#x148;" horiz-adv-x="1269" 
d="M1073 1536l8 -18l-295 -330h-112l-201 330l12 18l269 -121zM834 -27q-47 0 -80 13t-49.5 35.5t-23.5 46.5t-7 51q0 52 26 184l82 395q14 65 14 102.5t-10 50.5t-30 13q-36 0 -83.5 -39t-80.5 -94l-160 -731h-407l159 793q6 35 6 49q0 94 -116 10l-23 -16l-26 32
q96 106 203 169t208 63q74 0 117 -39t43 -115q0 -57 -16 -139h6q39 55 82 102t99 92.5t123.5 72t137.5 26.5q90 0 142.5 -54t52.5 -155q0 -49 -19 -146l-108 -489q-6 -27 -6 -49q0 -74 92 -21l45 27l22 -31q-90 -94 -203 -151.5t-212 -57.5z" />
    <glyph glyph-name="napostrophe" unicode="&#x149;" horiz-adv-x="1269" 
d="M834 -27q-47 0 -80 13t-49.5 35.5t-23.5 46.5t-7 51q0 52 26 184l82 395q14 65 14 102.5t-10 50.5t-30 13q-36 0 -83.5 -39t-80.5 -94l-160 -731h-407l159 793q6 35 6 49q0 94 -116 10l-23 -16l-26 32q96 106 203 169t208 63q74 0 117 -39t43 -115q0 -57 -16 -139h6
q39 55 82 102t99 92.5t123.5 72t137.5 26.5q90 0 142.5 -54t52.5 -155q0 -49 -19 -146l-108 -489q-6 -27 -6 -49q0 -74 92 -21l45 27l22 -31q-90 -94 -203 -151.5t-212 -57.5zM-125 1004l-4 22q114 30 178 76t84 119q-13 -14 -39.5 -22.5t-50.5 -8.5q-56 0 -90.5 33.5
t-34.5 87.5t45.5 93.5t118.5 39.5q83 0 134.5 -48t51.5 -120q0 -125 -104 -191.5t-289 -80.5z" />
    <glyph glyph-name="Eng" unicode="&#x14a;" horiz-adv-x="1366" 
d="M1333 1204l-213 -1173q-42 -234 -125 -327t-243 -93q-128 0 -199.5 53t-71.5 143q0 66 40.5 107t111.5 41q67 0 104.5 -43.5t57.5 -151.5q6 -37 20 -54t41 -17q45 0 93 63t77 182l-655 1260h-9l-176 -979q-17 -95 -5 -123t77 -43l64 -14l-7 -35h-385l9 35l51 12
q42 9 62 24t32.5 46t24.5 98l174 989q15 93 3.5 121.5t-63.5 44.5l-49 14l6 35h586l389 -733h8l92 518q16 94 3 123t-74 43l-64 14l6 35h385l-8 -35l-51 -12q-63 -15 -81.5 -41t-37.5 -127z" />
    <glyph glyph-name="eng" unicode="&#x14b;" horiz-adv-x="1255" 
d="M635 -51l147 749q13 65 13 102.5t-9.5 50.5t-29.5 13q-36 0 -83.5 -39t-80.5 -94l-160 -731h-407l159 793q6 35 6 49q0 94 -116 10l-23 -16l-26 32q96 106 203 169t208 63q74 0 117 -39t43 -115q0 -57 -16 -139h6q39 55 82 102t99 92.5t123.5 72t137.5 26.5
q90 0 142.5 -54t52.5 -155q0 -68 -19 -146l-131 -616q-57 -264 -210.5 -405.5t-383.5 -141.5q-134 0 -210 57t-76 136q0 61 38.5 101t106.5 40q75 0 114.5 -47t49.5 -160q6 -69 33 -69q18 0 30 18t28.5 84.5t41.5 206.5z" />
    <glyph glyph-name="Omacron" unicode="&#x14c;" horiz-adv-x="1503" 
d="M614 1546l25 142h590l-25 -142h-590zM672 -27q-173 0 -312.5 75.5t-219 211.5t-79.5 307q0 193 65 358t177.5 278.5t265.5 177t326 63.5q178 0 316.5 -66.5t219 -199.5t80.5 -314q0 -209 -68.5 -380.5t-185 -281.5t-267 -169.5t-318.5 -59.5zM692 31q70 0 135.5 79
t113.5 211t77 314.5t29 380.5q0 201 -41 287t-125 86q-101 0 -185 -145.5t-130 -373t-46 -477.5q0 -193 40.5 -277.5t131.5 -84.5z" />
    <glyph glyph-name="omacron" unicode="&#x14d;" horiz-adv-x="1165" 
d="M399 1257l29 142h576l-27 -142h-578zM504 -25q-151 0 -264.5 66t-169.5 171t-56 230q0 150 56 277t148 210t208 129t238 46q147 0 260 -67t170 -173.5t57 -232.5q0 -150 -55 -276t-146 -208t-206.5 -127t-239.5 -45zM498 29q66 0 125.5 137.5t92 330.5t32.5 371
q0 96 -17.5 139.5t-58.5 43.5q-66 0 -127 -139t-95 -330t-34 -359q0 -102 19 -148t63 -46z" />
    <glyph glyph-name="Obreve" unicode="&#x14e;" horiz-adv-x="1503" 
d="M924 1485q-122 0 -184.5 83.5t-80.5 241.5l23 9q37 -67 95 -96t161 -29q169 0 285 125l18 -9q-44 -156 -120 -240.5t-197 -84.5zM672 -27q-173 0 -312.5 75.5t-219 211.5t-79.5 307q0 193 65 358t177.5 278.5t265.5 177t326 63.5q178 0 316.5 -66.5t219 -199.5t80.5 -314
q0 -209 -68.5 -380.5t-185 -281.5t-267 -169.5t-318.5 -59.5zM692 31q70 0 135.5 79t113.5 211t77 314.5t29 380.5q0 201 -41 287t-125 86q-101 0 -185 -145.5t-130 -373t-46 -477.5q0 -193 40.5 -277.5t131.5 -84.5z" />
    <glyph glyph-name="obreve" unicode="&#x14f;" horiz-adv-x="1165" 
d="M504 -25q-151 0 -264.5 66t-169.5 171t-56 230q0 150 56 277t148 210t208 129t238 46q147 0 260 -67t170 -173.5t57 -232.5q0 -150 -55 -276t-146 -208t-206.5 -127t-239.5 -45zM498 29q66 0 125.5 137.5t92 330.5t32.5 371q0 96 -17.5 139.5t-58.5 43.5q-66 0 -127 -139
t-95 -330t-34 -359q0 -102 19 -148t63 -46zM680 1176q-107 0 -162 77.5t-72 247.5l25 8q27 -66 85.5 -94.5t154.5 -28.5q73 0 144.5 30t119.5 93l22 -12q-47 -154 -121.5 -237.5t-195.5 -83.5z" />
    <glyph glyph-name="Ohungarumlaut" unicode="&#x150;" horiz-adv-x="1503" 
d="M686 1479l-14 12l98 256q40 104 115 104q49 0 91 -38.5t42 -90.5q0 -77 -109 -133zM1040 1479l-14 12l98 256q40 104 115 104q49 0 91 -38.5t42 -90.5q0 -78 -108 -133zM672 -27q-173 0 -312.5 75.5t-219 211.5t-79.5 307q0 193 65 358t177.5 278.5t265.5 177t326 63.5
q178 0 316.5 -66.5t219 -199.5t80.5 -314q0 -209 -68.5 -380.5t-185 -281.5t-267 -169.5t-318.5 -59.5zM692 31q70 0 135.5 79t113.5 211t77 314.5t29 380.5q0 201 -41 287t-125 86q-101 0 -185 -145.5t-130 -373t-46 -477.5q0 -193 40.5 -277.5t131.5 -84.5z" />
    <glyph glyph-name="ohungarumlaut" unicode="&#x151;" horiz-adv-x="1165" 
d="M451 1161l-17 13l111 272q42 100 119 100q49 0 91 -38.5t42 -90.5q0 -83 -105 -137zM805 1161l-14 13l108 272q39 100 119 100q49 0 91 -38.5t42 -90.5q0 -86 -104 -137zM504 -25q-151 0 -264.5 66t-169.5 171t-56 230q0 150 56 277t148 210t208 129t238 46
q147 0 260 -67t170 -173.5t57 -232.5q0 -150 -55 -276t-146 -208t-206.5 -127t-239.5 -45zM498 29q66 0 125.5 137.5t92 330.5t32.5 371q0 96 -17.5 139.5t-58.5 43.5q-66 0 -127 -139t-95 -330t-34 -359q0 -102 19 -148t63 -46z" />
    <glyph glyph-name="OE" unicode="&#x152;" horiz-adv-x="2013" 
d="M932 1419h1102l-49 -465h-35q-33 130 -88 271q-29 75 -76 104t-141 29q-71 0 -150 -12l-100 -578h43q84 0 115.5 13.5t60.5 52.5q31 42 104 184h33l-102 -576h-33q-3 15 -9.5 56t-12 70.5t-11.5 52.5q-13 47 -46.5 64t-109.5 17h-45l-88 -501q-15 -86 14.5 -114
t141.5 -28q99 0 152.5 34t119.5 122q38 50 73.5 104.5t56.5 90t67 114.5h39l-117 -524h-1136q-312 0 -478 142t-166 425q0 164 43.5 302.5t122 239t187.5 171t240 105t278 34.5zM915 1354q-74 0 -140 -70.5t-111 -179.5t-78.5 -240t-49.5 -253t-16 -218q0 -155 47 -241
t121 -86q65 0 97 42.5t55 167.5l157 893q22 100 0 142.5t-82 42.5z" />
    <glyph glyph-name="oe" unicode="&#x153;" horiz-adv-x="1751" 
d="M1133 -25q-90 0 -165 33t-124 96q-151 -129 -340 -129q-114 0 -208 36.5t-155 99t-94 144.5t-33 175q0 150 56 279t147.5 214t208 133t238.5 48q257 0 358 -178q89 85 191.5 131.5t205.5 46.5q159 0 253.5 -63.5t94.5 -168.5q0 -60 -27.5 -107.5t-76 -82.5t-129 -64
t-173 -50t-222.5 -42q-4 -82 -4 -123q0 -135 43 -194t131 -59q76 0 144.5 33.5t148.5 105.5l26 -27q-32 -51 -74.5 -97t-103.5 -91t-143 -72t-174 -27zM510 31q58 0 106.5 80.5t76.5 200t43.5 243t15.5 225.5q0 148 -19 208.5t-76 60.5q-58 0 -106.5 -78.5t-77.5 -197.5
t-45 -247t-16 -239q0 -135 22.5 -195.5t75.5 -60.5zM1368 1049q-45 0 -91 -64.5t-81.5 -174.5t-50.5 -239q148 46 205 111q36 40 55.5 110.5t19.5 145.5q0 59 -13.5 85t-43.5 26z" />
    <glyph glyph-name="Racute" unicode="&#x154;" horiz-adv-x="1490" 
d="M-70 0l7 35l53 14q38 11 53 16.5t29.5 25t20.5 43.5t16 81l174 989q15 89 4.5 120t-64.5 46l-49 14l6 35h744q279 0 405.5 -88t126.5 -266q0 -149 -81.5 -245t-241.5 -134v-6q43 -148 105 -302.5t118 -252.5q22 -37 38 -54.5t44 -27.5l24 -8l-6 -35h-561
q-113 260 -197 625h-49l-71 -410q-8 -44 -10.5 -68.5t-2.5 -43t9 -27.5t20 -14.5t35 -12.5l47 -14l-6 -35h-740zM727 686q128 0 201 113t73 348q0 104 -34.5 154.5t-112.5 50.5q-32 0 -78 -11l-114 -649q24 -6 65 -6zM686 1481l-8 20l250 258q59 62 125 62q62 0 103.5 -45
t41.5 -109q0 -55 -33.5 -90t-93.5 -43z" />
    <glyph glyph-name="racute" unicode="&#x155;" horiz-adv-x="1046" 
d="M25 0l159 793q6 35 6 49q0 94 -116 10l-23 -16l-26 32q87 98 195.5 165t215.5 67q76 0 118 -40t42 -114q0 -66 -23 -160h9q37 72 70.5 124.5t75 98.5t89.5 69.5t101 23.5q72 0 116.5 -46t44.5 -124q0 -87 -46.5 -134.5t-123.5 -47.5q-35 0 -64.5 15.5t-46.5 34.5
t-37 34.5t-36 15.5q-27 0 -58.5 -36t-84.5 -130l-148 -684h-409zM881 1241l-394 -61l-8 20l244 264q32 34 62 49t71 15q57 0 98 -46.5t41 -109.5q0 -49 -28 -86t-86 -45z" />
    <glyph glyph-name="Rcommaaccent" unicode="&#x156;" horiz-adv-x="1490" 
d="M-70 0l7 35l53 14q38 11 53 16.5t29.5 25t20.5 43.5t16 81l174 989q15 89 4.5 120t-64.5 46l-49 14l6 35h744q279 0 405.5 -88t126.5 -266q0 -149 -81.5 -245t-241.5 -134v-6q43 -148 105 -302.5t118 -252.5q22 -37 38 -54.5t44 -27.5l24 -8l-6 -35h-561
q-113 260 -197 625h-49l-71 -410q-8 -44 -10.5 -68.5t-2.5 -43t9 -27.5t20 -14.5t35 -12.5l47 -14l-6 -35h-740zM727 686q128 0 201 113t73 348q0 104 -34.5 154.5t-112.5 50.5q-32 0 -78 -11l-114 -649q24 -6 65 -6zM360 -518l-4 22q114 30 178 76t84 119
q-13 -14 -39.5 -22.5t-50.5 -8.5q-56 0 -90.5 33.5t-34.5 87.5t45.5 93.5t118.5 39.5q83 0 135 -48t52 -120q0 -125 -104.5 -191.5t-289.5 -80.5z" />
    <glyph glyph-name="rcommaaccent" unicode="&#x157;" horiz-adv-x="1046" 
d="M25 0l159 793q6 35 6 49q0 94 -116 10l-23 -16l-26 32q87 98 195.5 165t215.5 67q76 0 118 -40t42 -114q0 -66 -23 -160h9q37 72 70.5 124.5t75 98.5t89.5 69.5t101 23.5q72 0 116.5 -46t44.5 -124q0 -87 -46.5 -134.5t-123.5 -47.5q-35 0 -64.5 15.5t-46.5 34.5
t-37 34.5t-36 15.5q-27 0 -58.5 -36t-84.5 -130l-148 -684h-409zM-43 -518l-4 22q114 30 178 76t84 119q-13 -14 -39.5 -22.5t-50.5 -8.5q-56 0 -90.5 33.5t-34.5 87.5t45.5 93.5t118.5 39.5q83 0 134.5 -48t51.5 -120q0 -125 -104 -191.5t-289 -80.5z" />
    <glyph glyph-name="Rcaron" unicode="&#x158;" horiz-adv-x="1490" 
d="M-70 0l7 35l53 14q38 11 53 16.5t29.5 25t20.5 43.5t16 81l174 989q15 89 4.5 120t-64.5 46l-49 14l6 35h744q279 0 405.5 -88t126.5 -266q0 -149 -81.5 -245t-241.5 -134v-6q43 -148 105 -302.5t118 -252.5q22 -37 38 -54.5t44 -27.5l24 -8l-6 -35h-561
q-113 260 -197 625h-49l-71 -410q-8 -44 -10.5 -68.5t-2.5 -43t9 -27.5t20 -14.5t35 -12.5l47 -14l-6 -35h-740zM727 686q128 0 201 113t73 348q0 104 -34.5 154.5t-112.5 50.5q-32 0 -78 -11l-114 -649q24 -6 65 -6zM1245 1823l10 -23l-333 -303h-129l-220 307l15 19
l291 -99z" />
    <glyph glyph-name="rcaron" unicode="&#x159;" horiz-adv-x="1046" 
d="M25 0l159 793q6 35 6 49q0 94 -116 10l-23 -16l-26 32q87 98 195.5 165t215.5 67q76 0 118 -40t42 -114q0 -66 -23 -160h9q37 72 70.5 124.5t75 98.5t89.5 69.5t101 23.5q72 0 116.5 -46t44.5 -124q0 -87 -46.5 -134.5t-123.5 -47.5q-35 0 -64.5 15.5t-46.5 34.5
t-37 34.5t-36 15.5q-27 0 -58.5 -36t-84.5 -130l-148 -684h-409zM983 1536l8 -18l-295 -330h-112l-201 330l12 18l269 -121z" />
    <glyph glyph-name="Sacute" unicode="&#x15a;" horiz-adv-x="1138" 
d="M440 -25q-122 0 -240 22.5t-173 57.5l39 422h34q69 -182 121 -282q44 -82 104.5 -122t149.5 -40q102 0 161.5 60t59.5 159q0 81 -51 141.5t-186 128.5q-172 87 -243 187t-71 241q0 97 43 186.5t120 158t191.5 109t248.5 40.5q103 0 210 -21.5t158 -50.5l-39 -381h-35
q-68 169 -122 266q-39 70 -86.5 99.5t-114.5 29.5q-98 0 -155.5 -59.5t-57.5 -150.5q0 -70 57.5 -130t188.5 -128q197 -101 269.5 -194.5t72.5 -238.5q0 -103 -47 -196t-130.5 -162.5t-207.5 -110.5t-269 -41zM537 1481l-9 20l250 258q59 62 125 62q62 0 104 -45t42 -109
q0 -55 -33.5 -90t-93.5 -43z" />
    <glyph glyph-name="sacute" unicode="&#x15b;" horiz-adv-x="944" 
d="M762 1241l-393 -61l-9 20l244 264q32 34 62 49t71 15q57 0 98.5 -46.5t41.5 -109.5q0 -49 -28.5 -86t-86.5 -45zM387 -25q-204 0 -303.5 61.5t-99.5 162.5q0 60 38 98.5t99 38.5q85 0 127.5 -46t62.5 -163q9 -51 35.5 -74.5t75.5 -23.5q62 0 99.5 41.5t37.5 103.5
q0 54 -43.5 98t-163.5 107q-139 74 -205.5 159.5t-66.5 194.5q0 163 133.5 267t327.5 104q183 0 283 -59t100 -148q0 -61 -35.5 -98t-97.5 -37q-65 0 -106.5 40t-63.5 138q-23 111 -109 111q-56 0 -89.5 -37t-33.5 -90q0 -61 45.5 -102t208.5 -128q129 -71 184.5 -142
t55.5 -181q0 -163 -136 -279.5t-360 -116.5z" />
    <glyph glyph-name="Scircumflex" unicode="&#x15c;" horiz-adv-x="1138" 
d="M381 1479l-10 22l334 303h129l219 -307l-15 -18l-290 98zM440 -25q-122 0 -240 22.5t-173 57.5l39 422h34q69 -182 121 -282q44 -82 104.5 -122t149.5 -40q102 0 161.5 60t59.5 159q0 81 -51 141.5t-186 128.5q-172 87 -243 187t-71 241q0 97 43 186.5t120 158t191.5 109
t248.5 40.5q103 0 210 -21.5t158 -50.5l-39 -381h-35q-68 169 -122 266q-39 70 -86.5 99.5t-114.5 29.5q-98 0 -155.5 -59.5t-57.5 -150.5q0 -70 57.5 -130t188.5 -128q197 -101 269.5 -194.5t72.5 -238.5q0 -103 -47 -196t-130.5 -162.5t-207.5 -110.5t-269 -41z" />
    <glyph glyph-name="scircumflex" unicode="&#x15d;" horiz-adv-x="944" 
d="M250 1171l-8 19l295 330h112l201 -330l-12 -19l-269 121zM387 -25q-204 0 -303.5 61.5t-99.5 162.5q0 60 38 98.5t99 38.5q85 0 127.5 -46t62.5 -163q9 -51 35.5 -74.5t75.5 -23.5q62 0 99.5 41.5t37.5 103.5q0 54 -43.5 98t-163.5 107q-139 74 -205.5 159.5t-66.5 194.5
q0 163 133.5 267t327.5 104q183 0 283 -59t100 -148q0 -61 -35.5 -98t-97.5 -37q-65 0 -106.5 40t-63.5 138q-23 111 -109 111q-56 0 -89.5 -37t-33.5 -90q0 -61 45.5 -102t208.5 -128q129 -71 184.5 -142t55.5 -181q0 -163 -136 -279.5t-360 -116.5z" />
    <glyph glyph-name="Scedilla" unicode="&#x15e;" horiz-adv-x="1138" 
d="M203 -385q82 17 127 47.5t45 69.5q0 48 -66 53l-6 14l107 176q-117 3 -224.5 25t-158.5 55l39 422h34q69 -182 121 -282q44 -82 104.5 -122t149.5 -40q102 0 161.5 60t59.5 159q0 81 -51 141.5t-186 128.5q-172 87 -243 187t-71 241q0 97 43 186.5t120 158t191.5 109
t248.5 40.5q103 0 210 -21.5t158 -50.5l-39 -381h-35q-68 169 -122 266q-39 70 -86.5 99.5t-114.5 29.5q-98 0 -155.5 -59.5t-57.5 -150.5q0 -70 57.5 -130t188.5 -128q197 -101 269.5 -194.5t72.5 -238.5q0 -100 -44 -190.5t-122.5 -159t-195 -111t-253.5 -47.5l-47 -59
q77 -9 117.5 -43.5t40.5 -89.5t-36.5 -95.5t-98.5 -61t-124 -30t-134 -12.5z" />
    <glyph glyph-name="scedilla" unicode="&#x15f;" horiz-adv-x="944" 
d="M106 -385q173 37 173 117q0 48 -66 53l-6 14l108 178q-167 10 -249 69.5t-82 152.5q0 60 38 98.5t99 38.5q85 0 127.5 -46t62.5 -163q9 -51 35.5 -74.5t75.5 -23.5q62 0 99.5 41.5t37.5 103.5q0 54 -43.5 98t-163.5 107q-139 74 -205.5 159.5t-66.5 194.5
q0 163 133.5 267t327.5 104q183 0 283 -59t100 -148q0 -61 -35.5 -98t-97.5 -37q-65 0 -106.5 40t-63.5 138q-23 111 -109 111q-56 0 -89.5 -37t-33.5 -90q0 -61 45.5 -102t208.5 -128q129 -71 184.5 -142t55.5 -181q0 -163 -136 -279.5t-360 -116.5h-4l-47 -57
q77 -9 117.5 -43.5t40.5 -89.5q0 -45 -25.5 -80t-64.5 -56t-93.5 -35t-104.5 -20t-106 -8z" />
    <glyph glyph-name="Scaron" unicode="&#x160;" horiz-adv-x="1138" 
d="M1122 1823l11 -23l-334 -303h-129l-219 307l14 19l291 -99zM440 -25q-122 0 -240 22.5t-173 57.5l39 422h34q69 -182 121 -282q44 -82 104.5 -122t149.5 -40q102 0 161.5 60t59.5 159q0 81 -51 141.5t-186 128.5q-172 87 -243 187t-71 241q0 97 43 186.5t120 158
t191.5 109t248.5 40.5q103 0 210 -21.5t158 -50.5l-39 -381h-35q-68 169 -122 266q-39 70 -86.5 99.5t-114.5 29.5q-98 0 -155.5 -59.5t-57.5 -150.5q0 -70 57.5 -130t188.5 -128q197 -101 269.5 -194.5t72.5 -238.5q0 -103 -47 -196t-130.5 -162.5t-207.5 -110.5t-269 -41z
" />
    <glyph glyph-name="scaron" unicode="&#x161;" horiz-adv-x="944" 
d="M895 1536l8 -18l-295 -330h-112l-201 330l12 18l268 -121zM387 -25q-204 0 -303.5 61.5t-99.5 162.5q0 60 38 98.5t99 38.5q85 0 127.5 -46t62.5 -163q9 -51 35.5 -74.5t75.5 -23.5q62 0 99.5 41.5t37.5 103.5q0 54 -43.5 98t-163.5 107q-139 74 -205.5 159.5
t-66.5 194.5q0 163 133.5 267t327.5 104q183 0 283 -59t100 -148q0 -61 -35.5 -98t-97.5 -37q-65 0 -106.5 40t-63.5 138q-23 111 -109 111q-56 0 -89.5 -37t-33.5 -90q0 -61 45.5 -102t208.5 -128q129 -71 184.5 -142t55.5 -181q0 -163 -136 -279.5t-360 -116.5z" />
    <glyph glyph-name="Tcommaaccent" unicode="&#x162;" horiz-adv-x="1355" 
d="M322 -518l-5 22q114 30 178.5 76t84.5 119q-13 -14 -40 -22.5t-51 -8.5q-55 0 -89.5 33.5t-34.5 87.5q0 55 45 94t118 39q83 0 135 -48t52 -120q0 -125 -104 -191.5t-289 -80.5zM195 0l6 35l57 14q81 20 102.5 45.5t38.5 120.5l207 1137h-41q-59 0 -94.5 -25.5
t-95.5 -105.5q-38 -49 -119.5 -170.5t-114.5 -167.5h-37l107 536h1251l-59 -536h-35q-66 229 -113 344q-28 72 -60.5 98.5t-84.5 26.5h-39l-203 -1137q-9 -49 -10 -76t10.5 -45t29 -26.5t56.5 -18.5l56 -14l-6 -35h-809z" />
    <glyph glyph-name="tcommaaccent" unicode="&#x163;" horiz-adv-x="761" 
d="M8 -518l-4 22q114 30 178 76t84 119q-13 -14 -39.5 -22.5t-50.5 -8.5q-56 0 -90.5 33.5t-34.5 87.5t45.5 93.5t118.5 39.5q83 0 134.5 -48t51.5 -120q0 -125 -104 -191.5t-289 -80.5zM250 -27q-95 0 -148 47t-53 125q0 41 21 160l127 656h-131l6 26l155 82l41 176
l379 135h58l-68 -309h219l-37 -110h-211l-135 -701q-2 -12 -2 -35q0 -65 65 -48q45 12 115 65l45 34l29 -34q-230 -269 -475 -269z" />
    <glyph glyph-name="Tcaron" unicode="&#x164;" horiz-adv-x="1355" 
d="M1235 1823l10 -23l-334 -303h-129l-219 307l15 19l290 -99zM195 0l6 35l57 14q81 20 102.5 45.5t38.5 120.5l207 1137h-41q-59 0 -94.5 -25.5t-95.5 -105.5q-38 -49 -119.5 -170.5t-114.5 -167.5h-37l107 536h1251l-59 -536h-35q-66 229 -113 344q-28 72 -60.5 98.5
t-84.5 26.5h-39l-203 -1137q-9 -49 -10 -76t10.5 -45t29 -26.5t56.5 -18.5l56 -14l-6 -35h-809z" />
    <glyph glyph-name="tcaron" unicode="&#x165;" horiz-adv-x="761" 
d="M739 1161l-18 10l74 275q26 102 106 102q47 0 85 -32t38 -78q0 -51 -55 -95zM250 -27q-95 0 -148 47t-53 125q0 41 21 160l127 656h-131l6 26l155 82l41 176l379 135h58l-68 -309h219l-37 -110h-211l-135 -701q-2 -12 -2 -35q0 -65 65 -48q45 12 115 65l45 34l29 -34
q-230 -269 -475 -269z" />
    <glyph glyph-name="Tbar" unicode="&#x166;" horiz-adv-x="1355" 
d="M240 727l16 64h248l102 561h-41q-59 0 -94.5 -25.5t-95.5 -105.5q-38 -49 -119.5 -170.5t-114.5 -167.5h-37l107 536h1251l-59 -536h-35q-66 229 -113 344q-28 72 -60.5 98.5t-84.5 26.5h-39l-100 -561h256l-15 -64h-254l-90 -512q-9 -49 -10 -76t10.5 -45t29 -26.5
t56.5 -18.5l56 -14l-6 -35h-809l6 35l57 14q81 20 102.5 45.5t38.5 120.5l93 512h-252z" />
    <glyph glyph-name="tbar" unicode="&#x167;" horiz-adv-x="761" 
d="M27 674l14 65h113l43 222h-131l6 26l155 82l41 176l379 135h58l-68 -309h219l-37 -110h-211l-43 -222h201l-14 -65h-199l-80 -414q-2 -12 -2 -35q0 -65 65 -48q45 12 115 65l45 34l29 -34q-230 -269 -475 -269q-95 0 -148 47t-53 125q0 41 21 160l71 369h-114z" />
    <glyph glyph-name="Utilde" unicode="&#x168;" horiz-adv-x="1388" 
d="M1151 401l143 803q15 89 2 121t-73 45l-64 14l6 35h377l-8 -35l-47 -12q-64 -17 -81.5 -43.5t-35.5 -124.5l-147 -825q-37 -206 -158.5 -306t-343.5 -100q-342 0 -492 135t-96 433l121 663q9 50 11.5 75.5t-4.5 44.5t-20 27.5t-42 18.5l-41 14l6 35h729l-6 -35l-51 -14
q-42 -11 -58.5 -22.5t-29 -42t-25.5 -101.5l-137 -747q-36 -191 29 -277t221 -86q141 0 213.5 75t101.5 232zM709 1481l-29 14q64 143 124 215t130 72q53 0 172 -20.5t160 -20.5q35 0 56.5 17.5t63.5 72.5l27 -14q-66 -150 -120 -218.5t-130 -68.5q-52 0 -170 19.5
t-159 19.5q-37 0 -61 -18t-64 -70z" />
    <glyph glyph-name="utilde" unicode="&#x169;" horiz-adv-x="1249" 
d="M256 -27q-92 0 -146.5 52.5t-54.5 146.5q0 43 17 154l100 467q6 30 6 49q0 95 -117 10l-22 -16l-27 32q215 232 412 232q178 0 178 -160q0 -18 -1.5 -34.5t-5.5 -39t-7 -37.5t-10.5 -50.5t-12.5 -57.5l-71 -346q-16 -67 -13.5 -104.5t13.5 -50.5t32 -13q66 0 152 131
l156 737h409l-158 -819q-6 -27 -6 -49q0 -74 90 -21l45 27l23 -31q-94 -97 -205 -153t-211 -56q-78 0 -118.5 38.5t-40.5 107.5q0 44 22 135h-8q-187 -281 -420 -281zM471 1167l-25 13q21 48 33 74.5t30 62t31.5 54t32.5 40t37.5 31.5t42.5 17t52 7q41 0 141 -20.5
t143 -20.5q33 0 52.5 15t57.5 62q2 3 3 4l3 3t3 4l25 -12q-28 -76 -49.5 -122t-51 -87.5t-67 -59.5t-86.5 -18q-39 0 -139 19.5t-144 19.5q-37 0 -60 -17t-65 -69z" />
    <glyph glyph-name="Umacron" unicode="&#x16a;" horiz-adv-x="1388" 
d="M1151 401l143 803q15 89 2 121t-73 45l-64 14l6 35h377l-8 -35l-47 -12q-64 -17 -81.5 -43.5t-35.5 -124.5l-147 -825q-37 -206 -158.5 -306t-343.5 -100q-342 0 -492 135t-96 433l121 663q9 50 11.5 75.5t-4.5 44.5t-20 27.5t-42 18.5l-41 14l6 35h729l-6 -35l-51 -14
q-42 -11 -58.5 -22.5t-29 -42t-25.5 -101.5l-137 -747q-36 -191 29 -277t221 -86q141 0 213.5 75t101.5 232zM719 1546l24 142h590l-24 -142h-590z" />
    <glyph glyph-name="umacron" unicode="&#x16b;" horiz-adv-x="1249" 
d="M256 -27q-92 0 -146.5 52.5t-54.5 146.5q0 43 17 154l100 467q6 30 6 49q0 95 -117 10l-22 -16l-27 32q215 232 412 232q178 0 178 -160q0 -18 -1.5 -34.5t-5.5 -39t-7 -37.5t-10.5 -50.5t-12.5 -57.5l-71 -346q-16 -67 -13.5 -104.5t13.5 -50.5t32 -13q66 0 152 131
l156 737h409l-158 -819q-6 -27 -6 -49q0 -74 90 -21l45 27l23 -31q-94 -97 -205 -153t-211 -56q-78 0 -118.5 38.5t-40.5 107.5q0 44 22 135h-8q-187 -281 -420 -281zM473 1257l29 142h575l-26 -142h-578z" />
    <glyph glyph-name="Ubreve" unicode="&#x16c;" horiz-adv-x="1388" 
d="M1151 401l143 803q15 89 2 121t-73 45l-64 14l6 35h377l-8 -35l-47 -12q-64 -17 -81.5 -43.5t-35.5 -124.5l-147 -825q-37 -206 -158.5 -306t-343.5 -100q-342 0 -492 135t-96 433l121 663q9 50 11.5 75.5t-4.5 44.5t-20 27.5t-42 18.5l-41 14l6 35h729l-6 -35l-51 -14
q-42 -11 -58.5 -22.5t-29 -42t-25.5 -101.5l-137 -747q-36 -191 29 -277t221 -86q141 0 213.5 75t101.5 232zM995 1485q-122 0 -184 83.5t-80 241.5l23 9q37 -67 95 -96t161 -29q168 0 284 125l19 -9q-44 -156 -120.5 -240.5t-197.5 -84.5z" />
    <glyph glyph-name="ubreve" unicode="&#x16d;" horiz-adv-x="1249" 
d="M256 -27q-92 0 -146.5 52.5t-54.5 146.5q0 43 17 154l100 467q6 30 6 49q0 95 -117 10l-22 -16l-27 32q215 232 412 232q178 0 178 -160q0 -18 -1.5 -34.5t-5.5 -39t-7 -37.5t-10.5 -50.5t-12.5 -57.5l-71 -346q-16 -67 -13.5 -104.5t13.5 -50.5t32 -13q66 0 152 131
l156 737h409l-158 -819q-6 -27 -6 -49q0 -74 90 -21l45 27l23 -31q-94 -97 -205 -153t-211 -56q-78 0 -118.5 38.5t-40.5 107.5q0 44 22 135h-8q-187 -281 -420 -281zM729 1176q-107 0 -161 77.5t-72 247.5l24 8q27 -66 85.5 -94.5t154.5 -28.5q73 0 144.5 30t119.5 93
l23 -12q-47 -154 -122 -237.5t-196 -83.5z" />
    <glyph glyph-name="Uring" unicode="&#x16e;" horiz-adv-x="1388" 
d="M1151 401l143 803q15 89 2 121t-73 45l-64 14l6 35h377l-8 -35l-47 -12q-64 -17 -81.5 -43.5t-35.5 -124.5l-147 -825q-37 -206 -158.5 -306t-343.5 -100q-342 0 -492 135t-96 433l121 663q9 50 11.5 75.5t-4.5 44.5t-20 27.5t-42 18.5l-41 14l6 35h729l-6 -35l-51 -14
q-42 -11 -58.5 -22.5t-29 -42t-25.5 -101.5l-137 -747q-36 -191 29 -277t221 -86q141 0 213.5 75t101.5 232zM840 1692q0 83 55 135.5t139 52.5t140.5 -53t56.5 -135q0 -78 -57 -132.5t-140 -54.5q-84 0 -139 52t-55 135zM903 1692q0 -59 35.5 -97.5t95.5 -38.5t96.5 39
t36.5 97t-36.5 96.5t-96.5 38.5t-95.5 -38t-35.5 -97z" />
    <glyph glyph-name="uring" unicode="&#x16f;" horiz-adv-x="1249" 
d="M567 1329q0 83 55.5 136t139.5 53t140 -53t56 -136q0 -78 -56.5 -132t-139.5 -54q-84 0 -139.5 52t-55.5 134zM631 1329q0 -59 35.5 -97t95.5 -38t96.5 38.5t36.5 96.5t-36.5 96.5t-96.5 38.5t-95.5 -38t-35.5 -97zM256 -27q-92 0 -146.5 52.5t-54.5 146.5q0 43 17 154
l100 467q6 30 6 49q0 95 -117 10l-22 -16l-27 32q215 232 412 232q178 0 178 -160q0 -18 -1.5 -34.5t-5.5 -39t-7 -37.5t-10.5 -50.5t-12.5 -57.5l-71 -346q-16 -67 -13.5 -104.5t13.5 -50.5t32 -13q66 0 152 131l156 737h409l-158 -819q-6 -27 -6 -49q0 -74 90 -21l45 27
l23 -31q-94 -97 -205 -153t-211 -56q-78 0 -118.5 38.5t-40.5 107.5q0 44 22 135h-8q-187 -281 -420 -281z" />
    <glyph glyph-name="Uhungarumlaut" unicode="&#x170;" horiz-adv-x="1388" 
d="M748 1479l-15 12l98 256q40 104 115 104q49 0 91 -38.5t42 -90.5q0 -78 -108 -133zM1102 1479l-15 12l99 256q40 104 114 104q49 0 91.5 -38.5t42.5 -90.5q0 -77 -109 -133zM1151 401l143 803q15 89 2 121t-73 45l-64 14l6 35h377l-8 -35l-47 -12q-64 -17 -81.5 -43.5
t-35.5 -124.5l-147 -825q-37 -206 -158.5 -306t-343.5 -100q-342 0 -492 135t-96 433l121 663q9 50 11.5 75.5t-4.5 44.5t-20 27.5t-42 18.5l-41 14l6 35h729l-6 -35l-51 -14q-42 -11 -58.5 -22.5t-29 -42t-25.5 -101.5l-137 -747q-36 -191 29 -277t221 -86q141 0 213.5 75
t101.5 232z" />
    <glyph glyph-name="uhungarumlaut" unicode="&#x171;" horiz-adv-x="1249" 
d="M256 -27q-92 0 -146.5 52.5t-54.5 146.5q0 43 17 154l100 467q6 30 6 49q0 95 -117 10l-22 -16l-27 32q215 232 412 232q178 0 178 -160q0 -18 -1.5 -34.5t-5.5 -39t-7 -37.5t-10.5 -50.5t-12.5 -57.5l-71 -346q-16 -67 -13.5 -104.5t13.5 -50.5t32 -13q66 0 152 131
l156 737h409l-158 -819q-6 -27 -6 -49q0 -74 90 -21l45 27l23 -31q-94 -97 -205 -153t-211 -56q-78 0 -118.5 38.5t-40.5 107.5q0 44 22 135h-8q-187 -281 -420 -281zM494 1159l-17 12l111 273q42 100 119 100q49 0 91 -38.5t42 -90.5q0 -83 -105 -137zM848 1159l-14 12
l108 273q39 100 119 100q49 0 91 -38.5t42 -90.5q0 -86 -104 -137z" />
    <glyph glyph-name="Uogonek" unicode="&#x172;" horiz-adv-x="1388" 
d="M713 -420q-96 0 -151.5 42t-55.5 108q0 164 311 247q-62 -4 -96 -4q-342 0 -492 135t-96 433l121 663q9 50 11.5 75.5t-4.5 44.5t-20 27.5t-42 18.5l-41 14l6 35h729l-6 -35l-51 -14q-42 -11 -58.5 -22.5t-29 -42t-25.5 -101.5l-137 -747q-36 -191 29 -277t221 -86
q141 0 213.5 75t101.5 232l143 803q15 89 2 121t-73 45l-64 14l6 35h377l-8 -35l-47 -12q-64 -17 -81.5 -43.5t-35.5 -124.5l-147 -825q-22 -125 -75.5 -205.5t-168.5 -155.5q-141 -93 -177 -127q-54 -51 -54 -108q0 -100 122 -100q24 0 48 6l-5 -25q-33 -37 -87.5 -60.5
t-112.5 -23.5z" />
    <glyph glyph-name="uogonek" unicode="&#x173;" horiz-adv-x="1249" 
d="M805 -420q-96 0 -151.5 42t-55.5 108q0 159 291 250q-40 -7 -68 -7q-78 0 -118.5 38.5t-40.5 107.5q0 44 22 135h-8q-110 -139 -209 -210t-215 -71q-86 0 -141.5 51.5t-55.5 147.5q0 43 17 154l100 467q6 25 6 49q0 95 -117 10l-22 -16l-27 32q216 232 412 232
q178 0 178 -160q0 -18 -1.5 -34.5t-5.5 -39t-7 -37.5t-10.5 -50.5t-12.5 -57.5l-71 -346q-16 -67 -13.5 -104.5t13.5 -50.5t32 -13q66 0 152 131l156 737h409l-158 -819q-6 -27 -6 -49q0 -74 90 -21l45 27l23 -31q-37 -35 -80 -69.5t-95 -74t-75 -58.5q-32 -25 -42.5 -33.5
t-37 -32.5t-37 -40t-20.5 -39.5t-10 -47.5q0 -53 29.5 -78.5t93.5 -25.5q23 0 47 6l-4 -25q-33 -37 -88 -60.5t-113 -23.5z" />
    <glyph glyph-name="Wcircumflex" unicode="&#x174;" horiz-adv-x="2103" 
d="M975 1479l-10 22l333 303h129l220 -307l-15 -18l-291 98zM420 0l-162 1192q-13 104 -30 136t-64 46l-35 10l6 35h723l-6 -35l-33 -10q-56 -17 -74 -43t-18 -90q0 -37 8 -119l78 -680h6l268 545l-26 252q-7 71 -26 96.5t-66 38.5l-37 10l6 35h745l-6 -35l-41 -10
q-64 -17 -85 -44t-21 -89q0 -57 6 -119l53 -676h6l330 644q72 144 72 196q0 33 -19.5 53t-64.5 33l-41 12l6 35h397l-6 -35l-14 -6q-51 -21 -76 -39t-51 -54.5t-72 -121.5l-620 -1163h-238l-98 864h-2l-420 -864h-258z" />
    <glyph glyph-name="wcircumflex" unicode="&#x175;" horiz-adv-x="1611" 
d="M668 1171l-9 19l295 330h113l201 -330l-13 -19l-268 121zM1194 918q7 -176 -27 -627h11q172 202 242.5 313.5t70.5 177.5q0 25 -20.5 47.5t-45 38.5t-45 46t-20.5 69q0 49 34 85t91 36q68 0 107.5 -46t39.5 -132q0 -133 -144.5 -342.5t-490.5 -583.5h-206q6 162 6 461h-6
q-133 -188 -361 -461h-229q0 617 -13 766q-4 47 -9.5 71t-18 38t-33.5 8.5t-55 -27.5l-23 -14l-26 32q81 94 190.5 160t200.5 66q84 0 129.5 -43.5t54.5 -153.5q15 -183 -6 -600h10q63 82 85 110t54 74t56 88q2 78 2 193q0 83 -18.5 104t-71.5 -8l-21 -12l-24 33
q87 99 182 158t184 59q155 0 164 -184z" />
    <glyph glyph-name="Ycircumflex" unicode="&#x176;" horiz-adv-x="1347" 
d="M180 0l6 35l58 14q81 20 102.5 45.5t38.5 120.5l72 410l-197 575q-35 101 -53.5 130.5t-54.5 41.5l-37 12l6 35h784l-6 -35l-49 -12q-69 -18 -94 -39t-25 -67q0 -41 31 -152l121 -430h6l309 455q72 107 72 155q0 30 -21 47t-69 31l-43 12l6 35h395l-6 -35l-19 -10
q-58 -32 -93.5 -67t-100.5 -123l-395 -572l-70 -397q-9 -49 -10 -76t10.5 -45t29 -26.5t56.5 -18.5l55 -14l-6 -35h-809zM578 1479l-11 22l334 303h129l219 -307l-14 -18l-291 98z" />
    <glyph glyph-name="ycircumflex" unicode="&#x177;" horiz-adv-x="1046" 
d="M580 901q48 -199 75 -661h13q136 183 198 311.5t62 200.5q0 25 -16 45.5t-38.5 37.5t-45 35.5t-38.5 47.5t-16 65q0 52 36 86.5t95 34.5q71 0 114.5 -49.5t43.5 -141.5q0 -155 -113 -357.5t-327 -481.5q-152 -196 -267 -306.5t-204.5 -153t-186.5 -42.5q-81 0 -128.5 42
t-47.5 105q0 57 37.5 94t103.5 37q35 0 61 -15.5t41.5 -37t28.5 -43.5t29.5 -37.5t36.5 -15.5q70 0 176 106q-78 730 -129 981q-15 76 -50 88.5t-101 -30.5l-23 -15l-27 33q98 109 203.5 172.5t192.5 63.5q85 0 135 -45.5t76 -153.5zM367 1171l-9 19l295 330h113l201 -330
l-13 -19l-268 121z" />
    <glyph glyph-name="Ydieresis" unicode="&#x178;" horiz-adv-x="1347" 
d="M180 0l6 35l58 14q81 20 102.5 45.5t38.5 120.5l72 410l-197 575q-35 101 -53.5 130.5t-54.5 41.5l-37 12l6 35h784l-6 -35l-49 -12q-69 -18 -94 -39t-25 -67q0 -41 31 -152l121 -430h6l309 455q72 107 72 155q0 30 -21 47t-69 31l-43 12l6 35h395l-6 -35l-19 -10
q-58 -32 -93.5 -67t-100.5 -123l-395 -572l-70 -397q-9 -49 -10 -76t10.5 -45t29 -26.5t56.5 -18.5l55 -14l-6 -35h-809zM721 1473q-81 0 -131.5 48.5t-50.5 125.5t50.5 126.5t131.5 49.5t132.5 -49.5t51.5 -126.5t-51 -125.5t-133 -48.5zM1153 1473q-81 0 -131.5 48.5
t-50.5 125.5t50.5 126.5t131.5 49.5t132.5 -49.5t51.5 -126.5t-51 -125.5t-133 -48.5z" />
    <glyph glyph-name="Zacute" unicode="&#x179;" horiz-adv-x="1292" 
d="M608 1481l-8 20l250 258q59 62 125 62q62 0 103.5 -45t41.5 -109q0 -55 -33.5 -90t-93.5 -43zM-57 0l18 72l889 1278v6h-109q-138 0 -198 -24.5t-117 -98.5q-82 -109 -231 -336h-41l106 522h1126l-18 -71l-887 -1274v-8h72q139 0 211 12t115.5 39.5t93.5 89.5
q87 106 244 352h36l-123 -559h-1187z" />
    <glyph glyph-name="zacute" unicode="&#x17a;" horiz-adv-x="987" 
d="M860 1241l-393 -61l-8 20l243 264q32 34 62.5 49t71.5 15q57 0 98 -46.5t41 -109.5q0 -49 -28.5 -86t-86.5 -45zM573 -35q-53 0 -116 27t-111 59t-108.5 59t-110.5 27q-70 0 -152 -149h-10l-59 55v10q84 58 168 137l604 545q-87 1 -269 34.5t-247 33.5q-39 0 -39 -27
q0 -10 26.5 -19t57.5 -17t57.5 -32.5t26.5 -62.5q0 -45 -29 -72.5t-80 -27.5q-62 0 -98.5 40.5t-36.5 104.5q0 63 33 135.5t87 134.5t133.5 103t162.5 41q60 0 125.5 -26.5t111 -58.5t95 -58.5t82.5 -26.5q22 0 43 12t43.5 40.5t31.5 41t31 47.5h8l56 -47v-8
q-94 -82 -205 -184l-529 -476q68 -4 203 -29.5t193 -25.5q68 0 95.5 18t74.5 95l36 -17q-90 -222 -179 -329t-206 -107z" />
    <glyph glyph-name="Zdotaccent" unicode="&#x17b;" horiz-adv-x="1292" 
d="M-57 0l18 72l889 1278v6h-109q-138 0 -198 -24.5t-117 -98.5q-82 -109 -231 -336h-41l106 522h1126l-18 -71l-887 -1274v-8h72q139 0 211 12t115.5 39.5t93.5 89.5q87 106 244 352h36l-123 -559h-1187zM821 1477q-87 0 -143.5 50t-56.5 134q0 83 56.5 133.5t143.5 50.5
q88 0 144.5 -50.5t56.5 -133.5q0 -85 -56.5 -134.5t-144.5 -49.5z" />
    <glyph glyph-name="zdotaccent" unicode="&#x17c;" horiz-adv-x="987" 
d="M573 -35q-53 0 -116 27t-111 59t-108.5 59t-110.5 27q-70 0 -152 -149h-10l-59 55v10q84 58 168 137l604 545q-87 1 -269 34.5t-247 33.5q-39 0 -39 -27q0 -10 26.5 -19t57.5 -17t57.5 -32.5t26.5 -62.5q0 -45 -29 -72.5t-80 -27.5q-62 0 -98.5 40.5t-36.5 104.5
q0 63 33 135.5t87 134.5t133.5 103t162.5 41q60 0 125.5 -26.5t111 -58.5t95 -58.5t82.5 -26.5q22 0 43 12t43.5 40.5t31.5 41t31 47.5h8l56 -47v-8q-94 -82 -205 -184l-529 -476q68 -4 203 -29.5t193 -25.5q68 0 95.5 18t74.5 95l36 -17q-90 -222 -179 -329t-206 -107z
M432 1339q0 82 57 132.5t142 50.5q86 0 142 -50.5t56 -132.5q0 -83 -55.5 -132.5t-142.5 -49.5q-86 0 -142.5 49.5t-56.5 132.5z" />
    <glyph glyph-name="Zcaron" unicode="&#x17d;" horiz-adv-x="1292" 
d="M1176 1823l10 -23l-334 -303h-129l-219 307l14 19l291 -99zM-57 0l18 72l889 1278v6h-109q-138 0 -198 -24.5t-117 -98.5q-82 -109 -231 -336h-41l106 522h1126l-18 -71l-887 -1274v-8h72q139 0 211 12t115.5 39.5t93.5 89.5q87 106 244 352h36l-123 -559h-1187z" />
    <glyph glyph-name="zcaron" unicode="&#x17e;" horiz-adv-x="987" 
d="M958 1536l9 -18l-295 -330h-113l-201 330l13 18l268 -121zM573 -35q-53 0 -116 27t-111 59t-108.5 59t-110.5 27q-70 0 -152 -149h-10l-59 55v10q84 58 168 137l604 545q-87 1 -269 34.5t-247 33.5q-39 0 -39 -27q0 -10 26.5 -19t57.5 -17t57.5 -32.5t26.5 -62.5
q0 -45 -29 -72.5t-80 -27.5q-62 0 -98.5 40.5t-36.5 104.5q0 63 33 135.5t87 134.5t133.5 103t162.5 41q60 0 125.5 -26.5t111 -58.5t95 -58.5t82.5 -26.5q22 0 43 12t43.5 40.5t31.5 41t31 47.5h8l56 -47v-8q-94 -82 -205 -184l-529 -476q68 -4 203 -29.5t193 -25.5
q68 0 95.5 18t74.5 95l36 -17q-90 -222 -179 -329t-206 -107z" />
    <glyph glyph-name="florin" unicode="&#x192;" horiz-adv-x="1079" 
d="M762 1159l-64 -328h250l-12 -63h-250l-121 -621q-52 -269 -191 -403.5t-358 -134.5q-148 0 -229.5 49.5t-81.5 128.5q0 58 35 93.5t104 35.5q82 0 117 -44.5t41 -137.5q3 -40 9.5 -57t23.5 -17q28 0 45.5 40.5t36.5 147.5l172 920h-176l14 63h174l14 80q51 270 199 402.5
t371 132.5q148 0 235.5 -55t87.5 -140q0 -61 -41 -99t-110 -38q-77 0 -113 42.5t-43 143.5q-2 23 -3.5 34.5t-6 27t-13.5 22.5t-22 7q-33 0 -48.5 -40t-45.5 -192z" />
    <glyph glyph-name="Aringacute" unicode="&#x1fa;" horiz-adv-x="1384" 
d="M-115 0l6 35l15 6q41 17 58.5 27t43 35.5t49 63.5t64.5 112l641 1140h254l172 -1157q13 -89 23.5 -127.5t24.5 -55t46 -32.5l25 -12l-7 -35h-739l6 35l54 14q57 17 76 38t22 67q4 63 -10 178l-17 119h-387l-65 -121q-84 -154 -84 -201q0 -32 19.5 -50t66.5 -32l41 -12
l-7 -35h-391zM702 1657q0 83 55.5 135.5t139.5 52.5t140.5 -53t56.5 -135q0 -78 -57 -132.5t-140 -54.5q-84 0 -139.5 52.5t-55.5 134.5zM705 1862l-9 20l250 258q59 62 125 62q62 0 104 -45t42 -109q0 -55 -33.5 -90t-93.5 -43zM614 1018l-272 -498h342l-59 498h-11z
M766 1657q0 -59 35.5 -97t95.5 -38t96.5 38.5t36.5 96.5t-36.5 96.5t-96.5 38.5t-95.5 -38t-35.5 -97z" />
    <glyph glyph-name="aringacute" unicode="&#x1fb;" horiz-adv-x="1243" 
d="M274 -27q-120 0 -191 83t-71 229q0 160 57.5 310t154.5 261t232 177.5t283 66.5q77 0 155.5 -28.5t141.5 -72.5h8l181 99l26 -13q-43 -106 -84 -319l-98 -508q-6 -27 -6 -51q0 -34 25 -41.5t69 22.5l43 29l27 -33q-94 -99 -202.5 -155t-207.5 -56q-80 0 -124 39t-44 111
q0 30 4 70h-8q-156 -220 -371 -220zM516 168q32 0 73 34.5t66 82.5l138 684q-5 31 -24 51t-48 20q-68 0 -133.5 -124.5t-103.5 -294.5t-38 -314q0 -72 16.5 -105.5t53.5 -33.5zM565 1329q0 83 55.5 136t139.5 53t140 -53t56 -136q0 -78 -56.5 -132t-139.5 -54
q-84 0 -139.5 52t-55.5 134zM629 1329q0 -59 35.5 -97t95.5 -38t96.5 38.5t36.5 96.5t-36.5 96.5t-96.5 38.5t-95.5 -38t-35.5 -97zM575 1548l-8 21l250 258q58 61 125 61q62 0 103.5 -44.5t41.5 -108.5q0 -56 -33 -91t-93 -42z" />
    <glyph glyph-name="AEacute" unicode="&#x1fc;" horiz-adv-x="1869" 
d="M1890 1419l-49 -465h-35q-41 163 -88 271q-34 79 -78.5 106t-138.5 27q-95 0 -153 -12l-101 -578h47q84 0 115.5 13.5t60.5 52.5q34 47 105 184h33l-103 -576h-32q-3 15 -9.5 56t-12 70.5t-11.5 52.5q-13 47 -46.5 64t-109.5 17h-49l-88 -495q-15 -91 15.5 -119.5
t140.5 -28.5q96 0 151 31.5t125 124.5q75 97 197 309h39l-117 -524h-1198l8 35l51 14q38 11 51.5 16t29.5 22.5t23 45t17 82.5l41 236h-381l-102 -154q-31 -48 -45 -70.5t-27.5 -54t-13.5 -53.5q0 -51 77 -72l41 -12l-8 -35h-418l9 35l38 14q74 28 113.5 65t118.5 154
l725 1063q-16 24 -76 39l-57 14l6 35h1169zM848 1208l-465 -692h348l123 692h-6zM1157 1481l-8 20l250 258q59 62 125 62q62 0 103.5 -45t41.5 -109q0 -55 -33.5 -90t-93.5 -43z" />
    <glyph glyph-name="aeacute" unicode="&#x1fd;" horiz-adv-x="1595" 
d="M952 -25q-291 0 -366 215h-6q-118 -215 -336 -215q-107 0 -177.5 67.5t-70.5 168.5q0 76 24.5 129t89.5 99.5t183.5 80t300.5 58.5l20 129q12 77 16 131.5t0 104.5t-25.5 75.5t-59.5 25.5q-45 0 -65.5 -22t-28.5 -74q-18 -112 -58.5 -160.5t-128.5 -48.5
q-66 0 -103.5 35.5t-37.5 95.5q0 96 110.5 163t331.5 67q233 0 314 -135q185 139 385 139q159 0 253.5 -63.5t94.5 -168.5q0 -50 -17.5 -90t-56.5 -71t-87 -54.5t-125 -44t-153.5 -36t-187.5 -33.5q-6 -68 -6 -140q0 -134 44 -192.5t128 -58.5q77 0 146.5 32.5t148.5 104.5
l27 -27q-31 -50 -76.5 -96.5t-109.5 -91.5t-151.5 -72t-183.5 -27zM1112 1241l-393 -61l-8 20l243 264q32 34 62 49t71 15q57 0 98.5 -46.5t41.5 -109.5q0 -49 -28.5 -86t-86.5 -45zM1212 1049q-67 0 -131.5 -134.5t-89.5 -326.5q147 46 203 110q76 85 76 240q0 59 -14 85
t-44 26zM432 168q77 0 139 86q-6 38 -6 78q0 101 25 196q-135 -36 -190.5 -93t-55.5 -150q0 -54 25 -85.5t63 -31.5z" />
    <glyph glyph-name="Oslashacute" unicode="&#x1fe;" horiz-adv-x="1503" 
d="M221 -104h-80l146 198q-106 79 -166 202t-60 271q0 193 65 358t177.5 278.5t265.5 177t326 63.5q180 0 328 -74l92 125h80l-117 -158q110 -76 171.5 -196t61.5 -277q0 -209 -68.5 -380.5t-185 -281.5t-267 -169.5t-318.5 -59.5q-185 0 -332 86zM692 31q70 0 135.5 79
t113.5 211t77 314.5t29 380.5v4l-525 -715q7 -145 48.5 -209.5t121.5 -64.5zM881 1389q-100 0 -183.5 -142t-129.5 -365t-48 -470l522 712q-10 141 -50 203t-111 62zM690 1481l-8 20l250 258q59 62 125 62q62 0 103.5 -45t41.5 -109q0 -55 -33.5 -90t-93.5 -43z" />
    <glyph glyph-name="oslashacute" unicode="&#x1ff;" horiz-adv-x="1165" 
d="M102 -111l113 166q-97 64 -149 166t-52 221q0 150 56 277t148 210t208 129t238 46q127 0 233 -53l92 133h76l-113 -164q94 -65 146.5 -168.5t52.5 -220.5q0 -150 -55 -276t-146 -208t-206.5 -127t-239.5 -45q-128 0 -234 50l-92 -136h-76zM672 1051q-60 0 -118 -113.5
t-96 -276.5t-48 -323l348 508q-3 205 -86 205zM498 29q60 0 116.5 108.5t93 269t46.5 324.5l-348 -510q1 -102 24.5 -147t67.5 -45zM868 1241l-393 -61l-8 20l244 264q32 34 62 49t71 15q57 0 98 -46.5t41 -109.5q0 -49 -28.5 -86t-86.5 -45z" />
    <glyph glyph-name="Scommaaccent" unicode="&#x218;" horiz-adv-x="1138" 
d="M203 -518l-4 22q114 30 178 76t84 119q-13 -14 -39.5 -22.5t-50.5 -8.5q-56 0 -90.5 33.5t-34.5 87.5t45.5 93.5t118.5 39.5q83 0 134.5 -48t51.5 -120q0 -125 -104 -191.5t-289 -80.5zM440 -25q-122 0 -240 22.5t-173 57.5l39 422h34q69 -182 121 -282
q44 -82 104.5 -122t149.5 -40q102 0 161.5 60t59.5 159q0 81 -51 141.5t-186 128.5q-172 87 -243 187t-71 241q0 97 43 186.5t120 158t191.5 109t248.5 40.5q103 0 210 -21.5t158 -50.5l-39 -381h-35q-68 169 -122 266q-39 70 -86.5 99.5t-114.5 29.5q-98 0 -155.5 -59.5
t-57.5 -150.5q0 -70 57.5 -130t188.5 -128q197 -101 269.5 -194.5t72.5 -238.5q0 -103 -47 -196t-130.5 -162.5t-207.5 -110.5t-269 -41z" />
    <glyph glyph-name="scommaaccent" unicode="&#x219;" horiz-adv-x="944" 
d="M84 -518l-4 22q114 30 178 76t84 119q-13 -14 -39.5 -22.5t-50.5 -8.5q-56 0 -90.5 33.5t-34.5 87.5t45.5 93.5t118.5 39.5q83 0 134.5 -48t51.5 -120q0 -125 -104 -191.5t-289 -80.5zM387 -25q-204 0 -303.5 61.5t-99.5 162.5q0 60 38 98.5t99 38.5q85 0 127.5 -46
t62.5 -163q9 -51 35.5 -74.5t75.5 -23.5q62 0 99.5 41.5t37.5 103.5q0 54 -43.5 98t-163.5 107q-139 74 -205.5 159.5t-66.5 194.5q0 163 133.5 267t327.5 104q183 0 283 -59t100 -148q0 -61 -35.5 -98t-97.5 -37q-65 0 -106.5 40t-63.5 138q-23 111 -109 111
q-56 0 -89.5 -37t-33.5 -90q0 -61 45.5 -102t208.5 -128q129 -71 184.5 -142t55.5 -181q0 -163 -136 -279.5t-360 -116.5z" />
    <glyph glyph-name="uni021A" unicode="&#x21a;" horiz-adv-x="1355" 
d="M322 -518l-5 22q114 30 178.5 76t84.5 119q-13 -14 -40 -22.5t-51 -8.5q-55 0 -89.5 33.5t-34.5 87.5q0 55 45 94t118 39q83 0 135 -48t52 -120q0 -125 -104 -191.5t-289 -80.5zM195 0l6 35l57 14q81 20 102.5 45.5t38.5 120.5l207 1137h-41q-59 0 -94.5 -25.5
t-95.5 -105.5q-38 -49 -119.5 -170.5t-114.5 -167.5h-37l107 536h1251l-59 -536h-35q-66 229 -113 344q-28 72 -60.5 98.5t-84.5 26.5h-39l-203 -1137q-9 -49 -10 -76t10.5 -45t29 -26.5t56.5 -18.5l56 -14l-6 -35h-809z" />
    <glyph glyph-name="uni021B" unicode="&#x21b;" horiz-adv-x="761" 
d="M8 -518l-4 22q114 30 178 76t84 119q-13 -14 -39.5 -22.5t-50.5 -8.5q-56 0 -90.5 33.5t-34.5 87.5t45.5 93.5t118.5 39.5q83 0 134.5 -48t51.5 -120q0 -125 -104 -191.5t-289 -80.5zM250 -27q-95 0 -148 47t-53 125q0 41 21 160l127 656h-131l6 26l155 82l41 176
l379 135h58l-68 -309h219l-37 -110h-211l-135 -701q-2 -12 -2 -35q0 -65 65 -48q45 12 115 65l45 34l29 -34q-230 -269 -475 -269z" />
    <glyph glyph-name="uni0237" unicode="&#x237;" horiz-adv-x="643" 
d="M-127 -418q-139 0 -220 58.5t-81 152.5q0 66 41.5 108t110.5 42q79 0 121 -50t53 -184q3 -41 8.5 -55t21.5 -14q28 0 46.5 58.5t54.5 250.5l157 844q7 36 7 57t-7 31t-22.5 9.5t-39 -11t-56.5 -31.5l-23 -14l-25 30q107 115 219 175.5t205 60.5q87 0 132 -41t45 -119
q0 -13 -1.5 -28.5t-3 -27.5t-5.5 -34.5t-7 -34.5t-9.5 -44.5t-10.5 -49.5l-127 -592q-58 -262 -207.5 -404.5t-376.5 -142.5z" />
    <glyph glyph-name="circumflex" unicode="&#x2c6;" 
d="M229 1171l-8 19l295 330h113l200 -330l-12 -19l-268 121z" />
    <glyph glyph-name="caron" unicode="&#x2c7;" 
d="M834 1536l8 -18l-295 -330h-113l-201 330l13 18l268 -121z" />
    <glyph glyph-name="breve" unicode="&#x2d8;" 
d="M522 1176q-107 0 -161 77.5t-72 247.5l24 8q27 -66 85.5 -94.5t154.5 -28.5q73 0 144.5 30t119.5 93l23 -12q-47 -154 -122 -237.5t-196 -83.5z" />
    <glyph glyph-name="dotaccent" unicode="&#x2d9;" 
d="M334 1339q0 82 56.5 132.5t141.5 50.5q86 0 142.5 -50.5t56.5 -132.5q0 -83 -56 -132.5t-143 -49.5q-85 0 -141.5 49.5t-56.5 132.5z" />
    <glyph glyph-name="ring" unicode="&#x2da;" 
d="M332 1350q0 83 55 135.5t139 52.5t140.5 -53t56.5 -135q0 -78 -57 -132.5t-140 -54.5q-84 0 -139 52t-55 135zM395 1350q0 -59 35.5 -97.5t95.5 -38.5t96.5 39t36.5 97t-36.5 96.5t-96.5 38.5t-95.5 -38t-35.5 -97z" />
    <glyph glyph-name="ogonek" unicode="&#x2db;" 
d="M338 -420q-96 0 -151.5 42t-55.5 108q0 90 91.5 161t256.5 109h35q-67 -56 -104 -105t-37 -108q0 -53 29.5 -78.5t93.5 -25.5q23 0 47 6l-4 -25q-33 -37 -88 -60.5t-113 -23.5z" />
    <glyph glyph-name="tilde" unicode="&#x2dc;" 
d="M236 1167l-25 13q25 56 38.5 86t34.5 69t37.5 58t39.5 38.5t49.5 27t58.5 7.5q40 0 140.5 -20.5t144.5 -20.5q23 0 41 9.5t27.5 19.5t38.5 46q2 2 3.5 4t3.5 4.5t4 4.5l25 -12q-28 -76 -49.5 -122t-51 -87.5t-67 -59.5t-86.5 -18q-39 0 -139 19.5t-144 19.5
q-37 0 -59.5 -17t-64.5 -69z" />
    <glyph glyph-name="hungarumlaut" unicode="&#x2dd;" 
d="M250 1161l-17 13l111 272q42 100 119 100q49 0 91 -38.5t42 -90.5q0 -84 -104 -137zM604 1161l-14 13l108 272q39 100 119 100q49 0 91 -38.5t42 -90.5q0 -86 -104 -137z" />
    <glyph glyph-name="Wgrave" unicode="&#x1e80;" horiz-adv-x="2103" 
d="M1530 1501l-8 -20l-385 53q-60 8 -93.5 43t-33.5 90q0 64 41.5 109t103.5 45q66 0 125 -62zM420 0l-162 1192q-13 104 -30 136t-64 46l-35 10l6 35h723l-6 -35l-33 -10q-56 -17 -74 -43t-18 -90q0 -37 8 -119l78 -680h6l268 545l-26 252q-7 71 -26 96.5t-66 38.5l-37 10
l6 35h745l-6 -35l-41 -10q-64 -17 -85 -44t-21 -89q0 -57 6 -119l53 -676h6l330 644q72 144 72 196q0 33 -19.5 53t-64.5 33l-41 12l6 35h397l-6 -35l-14 -6q-51 -21 -76 -39t-51 -54.5t-72 -121.5l-620 -1163h-238l-98 864h-2l-420 -864h-258z" />
    <glyph glyph-name="wgrave" unicode="&#x1e81;" horiz-adv-x="1611" 
d="M1194 918q7 -176 -27 -627h11q172 202 242.5 313.5t70.5 177.5q0 25 -20.5 47.5t-45 38.5t-45 46t-20.5 69q0 49 34 85t91 36q68 0 107.5 -46t39.5 -132q0 -133 -144.5 -342.5t-490.5 -583.5h-206q6 162 6 461h-6q-133 -188 -361 -461h-229q0 617 -13 766q-4 47 -9.5 71
t-18 38t-33.5 8.5t-55 -27.5l-23 -14l-26 32q81 94 190.5 160t200.5 66q84 0 129.5 -43.5t54.5 -153.5q15 -183 -6 -600h10q63 82 85 110t54 74t56 88q2 78 2 193q0 83 -18.5 104t-71.5 -8l-21 -12l-24 33q87 99 182 158t184 59q155 0 164 -184zM1210 1178l-393 61
q-58 8 -86.5 45t-28.5 86q0 63 41.5 109.5t98.5 46.5q41 0 71 -15t62 -49l244 -264z" />
    <glyph glyph-name="Wacute" unicode="&#x1e82;" horiz-adv-x="2103" 
d="M1071 1481l-8 20l250 258q59 62 125 62q62 0 103.5 -45t41.5 -109q0 -55 -33.5 -90t-93.5 -43zM420 0l-162 1192q-13 104 -30 136t-64 46l-35 10l6 35h723l-6 -35l-33 -10q-56 -17 -74 -43t-18 -90q0 -37 8 -119l78 -680h6l268 545l-26 252q-7 71 -26 96.5t-66 38.5
l-37 10l6 35h745l-6 -35l-41 -10q-64 -17 -85 -44t-21 -89q0 -57 6 -119l53 -676h6l330 644q72 144 72 196q0 33 -19.5 53t-64.5 33l-41 12l6 35h397l-6 -35l-14 -6q-51 -21 -76 -39t-51 -54.5t-72 -121.5l-620 -1163h-238l-98 864h-2l-420 -864h-258z" />
    <glyph glyph-name="wacute" unicode="&#x1e83;" horiz-adv-x="1611" 
d="M1200 1241l-393 -61l-8 20l243 264q32 34 62.5 49t71.5 15q57 0 98 -46.5t41 -109.5q0 -49 -28.5 -86t-86.5 -45zM1194 918q7 -176 -27 -627h11q172 202 242.5 313.5t70.5 177.5q0 25 -20.5 47.5t-45 38.5t-45 46t-20.5 69q0 49 34 85t91 36q68 0 107.5 -46t39.5 -132
q0 -133 -144.5 -342.5t-490.5 -583.5h-206q6 162 6 461h-6q-133 -188 -361 -461h-229q0 617 -13 766q-4 47 -9.5 71t-18 38t-33.5 8.5t-55 -27.5l-23 -14l-26 32q81 94 190.5 160t200.5 66q84 0 129.5 -43.5t54.5 -153.5q15 -183 -6 -600h10q63 82 85 110t54 74t56 88
q2 78 2 193q0 83 -18.5 104t-71.5 -8l-21 -12l-24 33q87 99 182 158t184 59q155 0 164 -184z" />
    <glyph glyph-name="Wdieresis" unicode="&#x1e84;" horiz-adv-x="2103" 
d="M1081 1473q-81 0 -131.5 48.5t-50.5 125.5t50.5 126.5t131.5 49.5t133 -49.5t52 -126.5t-51.5 -125.5t-133.5 -48.5zM1513 1473q-81 0 -131.5 48.5t-50.5 125.5t50.5 126.5t131.5 49.5t133 -49.5t52 -126.5t-51.5 -125.5t-133.5 -48.5zM420 0l-162 1192q-13 104 -30 136
t-64 46l-35 10l6 35h723l-6 -35l-33 -10q-56 -17 -74 -43t-18 -90q0 -37 8 -119l78 -680h6l268 545l-26 252q-7 71 -26 96.5t-66 38.5l-37 10l6 35h745l-6 -35l-41 -10q-64 -17 -85 -44t-21 -89q0 -57 6 -119l53 -676h6l330 644q72 144 72 196q0 33 -19.5 53t-64.5 33
l-41 12l6 35h397l-6 -35l-14 -6q-51 -21 -76 -39t-51 -54.5t-72 -121.5l-620 -1163h-238l-98 864h-2l-420 -864h-258z" />
    <glyph glyph-name="wdieresis" unicode="&#x1e85;" horiz-adv-x="1611" 
d="M782 1167q-81 0 -131.5 48.5t-50.5 125.5t50.5 127t131.5 50t133 -50t52 -127t-51.5 -125.5t-133.5 -48.5zM1214 1167q-81 0 -131.5 48.5t-50.5 125.5t50.5 127t131.5 50t133 -50t52 -127t-51.5 -125.5t-133.5 -48.5zM1194 918q7 -176 -27 -627h11q172 202 242.5 313.5
t70.5 177.5q0 25 -20.5 47.5t-45 38.5t-45 46t-20.5 69q0 49 34 85t91 36q68 0 107.5 -46t39.5 -132q0 -133 -144.5 -342.5t-490.5 -583.5h-206q6 162 6 461h-6q-133 -188 -361 -461h-229q0 617 -13 766q-4 47 -9.5 71t-18 38t-33.5 8.5t-55 -27.5l-23 -14l-26 32
q81 94 190.5 160t200.5 66q84 0 129.5 -43.5t54.5 -153.5q15 -183 -6 -600h10q63 82 85 110t54 74t56 88q2 78 2 193q0 83 -18.5 104t-71.5 -8l-21 -12l-24 33q87 99 182 158t184 59q155 0 164 -184z" />
    <glyph glyph-name="Ygrave" unicode="&#x1ef2;" horiz-adv-x="1347" 
d="M180 0l6 35l58 14q81 20 102.5 45.5t38.5 120.5l72 410l-197 575q-35 101 -53.5 130.5t-54.5 41.5l-37 12l6 35h784l-6 -35l-49 -12q-69 -18 -94 -39t-25 -67q0 -41 31 -152l121 -430h6l309 455q72 107 72 155q0 30 -21 47t-69 31l-43 12l6 35h395l-6 -35l-19 -10
q-58 -32 -93.5 -67t-100.5 -123l-395 -572l-70 -397q-9 -49 -10 -76t10.5 -45t29 -26.5t56.5 -18.5l55 -14l-6 -35h-809zM1135 1501l-9 -20l-385 53q-60 8 -93.5 43t-33.5 90q0 64 42 109t104 45q66 0 125 -62z" />
    <glyph glyph-name="ygrave" unicode="&#x1ef3;" horiz-adv-x="1046" 
d="M580 901q48 -199 75 -661h13q136 183 198 311.5t62 200.5q0 25 -16 45.5t-38.5 37.5t-45 35.5t-38.5 47.5t-16 65q0 52 36 86.5t95 34.5q71 0 114.5 -49.5t43.5 -141.5q0 -155 -113 -357.5t-327 -481.5q-152 -196 -267 -306.5t-204.5 -153t-186.5 -42.5q-81 0 -128.5 42
t-47.5 105q0 57 37.5 94t103.5 37q35 0 61 -15.5t41.5 -37t28.5 -43.5t29.5 -37.5t36.5 -15.5q70 0 176 106q-78 730 -129 981q-15 76 -50 88.5t-101 -30.5l-23 -15l-27 33q98 109 203.5 172.5t192.5 63.5q85 0 135 -45.5t76 -153.5zM887 1178l-393 61q-58 8 -86.5 45
t-28.5 86q0 63 41 109.5t98 46.5q41 0 71 -15t62 -49l244 -264z" />
    <glyph glyph-name="uni2009" unicode="&#x2009;" horiz-adv-x="139" 
 />
    <glyph glyph-name="endash" unicode="&#x2013;" horiz-adv-x="1193" 
d="M104 565l21 68h989l-18 -68h-992z" />
    <glyph glyph-name="emdash" unicode="&#x2014;" horiz-adv-x="1943" 
d="M104 565l21 68h1739l-19 -68h-1741z" />
    <glyph glyph-name="quoteleft" unicode="&#x2018;" horiz-adv-x="458" 
d="M545 1434l6 -27q-277 -77 -297 -258q34 39 104 39q44 0 85.5 -33.5t41.5 -97.5q0 -77 -50 -122.5t-122 -45.5q-90 0 -145 55t-55 139q0 131 116 230.5t316 120.5z" />
    <glyph glyph-name="quoteright" unicode="&#x2019;" horiz-adv-x="458" 
d="M119 899l-6 27q277 77 297 258q-34 -39 -105 -39q-44 0 -85.5 33.5t-41.5 97.5q0 77 50 122.5t122 45.5q90 0 145.5 -55.5t55.5 -139.5q0 -131 -116 -230t-316 -120z" />
    <glyph glyph-name="quotesinglbase" unicode="&#x201a;" horiz-adv-x="456" 
d="M-66 -242l-6 27q277 77 297 258q-34 -39 -104 -39q-44 0 -85.5 33.5t-41.5 97.5q0 77 50 122.5t122 45.5q90 0 145.5 -55t55.5 -139q0 -131 -116.5 -230.5t-316.5 -120.5z" />
    <glyph glyph-name="quotedblleft" unicode="&#x201c;" horiz-adv-x="890" 
d="M545 1434l6 -27q-277 -77 -297 -258q34 39 104 39q44 0 85.5 -33.5t41.5 -97.5q0 -77 -50 -122.5t-122 -45.5q-90 0 -145 55t-55 139q0 131 116 230.5t316 120.5zM977 1434l6 -27q-277 -77 -297 -258q34 39 105 39q44 0 85.5 -33.5t41.5 -97.5q0 -77 -50.5 -122.5
t-122.5 -45.5q-90 0 -145 55t-55 139q0 131 116 230.5t316 120.5z" />
    <glyph glyph-name="quotedblright" unicode="&#x201d;" horiz-adv-x="890" 
d="M551 899l-6 27q277 77 297 258q-34 -39 -105 -39q-44 0 -85.5 33.5t-41.5 97.5q0 77 50 122.5t122 45.5q90 0 145.5 -55.5t55.5 -139.5q0 -131 -116 -230t-316 -120zM119 899l-6 27q277 77 297 258q-34 -39 -105 -39q-44 0 -85.5 33.5t-41.5 97.5q0 77 50 122.5t122 45.5
q90 0 145.5 -55.5t55.5 -139.5q0 -131 -116 -230t-316 -120z" />
    <glyph glyph-name="quotedblbase" unicode="&#x201e;" horiz-adv-x="890" 
d="M367 -242l-7 27q277 77 297 258q-34 -39 -104 -39q-44 0 -85.5 33.5t-41.5 97.5q0 77 50 122.5t122 45.5q90 0 145.5 -55t55.5 -139q0 -131 -116 -230.5t-316 -120.5zM-66 -242l-6 27q277 77 297 258q-34 -39 -104 -39q-44 0 -85.5 33.5t-41.5 97.5q0 77 50 122.5
t122 45.5q90 0 145.5 -55t55.5 -139q0 -131 -116.5 -230.5t-316.5 -120.5z" />
    <glyph glyph-name="dagger" unicode="&#x2020;" horiz-adv-x="845" 
d="M272 -137l13 901q163 118 180 215q-33 -6 -117 -53t-125 -47q-66 0 -103.5 40.5t-37.5 100.5q0 57 38.5 99t98.5 42q32 0 68 -19.5t63 -44.5t61 -50.5t60 -34.5q-3 54 -25.5 109.5t-42.5 100t-20 76.5q0 58 35 98t117 40q66 0 102.5 -37.5t36.5 -89.5q0 -41 -23 -84
t-51.5 -74t-57 -71t-36.5 -72q32 5 117.5 55.5t128.5 50.5q60 0 97.5 -41t37.5 -96q0 -62 -38 -105t-99 -43q-32 0 -68 19t-62.5 42.5t-60 49t-57.5 35.5q-7 -52 22.5 -120.5t73.5 -113.5l-295 -878h-31z" />
    <glyph glyph-name="daggerdbl" unicode="&#x2021;" horiz-adv-x="886" 
d="M543 1032q0 -65 100 -162l-168 -194h-24l-101 211q8 5 28.5 19.5t29.5 21.5t26 20t26.5 21.5t20.5 20.5t17.5 23.5t9.5 22.5q-34 -6 -118.5 -55t-125.5 -49q-66 0 -103.5 40.5t-37.5 100.5q0 57 38.5 99t98.5 42q41 0 86 -30.5t90 -68.5t76 -48q-3 54 -25 105t-41.5 93.5
t-19.5 77.5q0 58 35 98t117 40q66 0 102.5 -37.5t36.5 -89.5q0 -38 -23.5 -79t-52 -71t-57.5 -69t-37 -72q32 5 117.5 54.5t128.5 49.5q60 0 97.5 -41t37.5 -96q0 -62 -38 -104.5t-99 -42.5q-41 0 -85.5 30t-89 68.5t-73.5 50.5zM379 295q0 65 -100 162l167 194h25l100 -211
q-6 -4 -28 -19.5t-30 -21.5l-26 -19.5t-26 -22t-19.5 -20.5t-18 -23.5t-9.5 -22.5q34 6 118 55t125 49q66 0 104 -40.5t38 -100.5q0 -57 -38.5 -99t-98.5 -42q-41 0 -86 30.5t-90 68.5t-76 48q3 -54 25 -105t41.5 -93.5t19.5 -77.5q0 -58 -35 -98t-117 -40
q-66 0 -102.5 37.5t-36.5 89.5q0 38 23.5 79t52 71t57.5 69t37 72q-32 -5 -117.5 -54.5t-128.5 -49.5q-60 0 -97.5 41t-37.5 96q0 62 38 104.5t99 42.5q41 0 85.5 -30t89 -68.5t73.5 -50.5z" />
    <glyph glyph-name="bullet" unicode="&#x2022;" horiz-adv-x="616" 
d="M61 684q0 110 77.5 188t187.5 78t188 -78t78 -188t-78 -187t-188 -77t-187.5 77t-77.5 187z" />
    <glyph glyph-name="ellipsis" unicode="&#x2026;" horiz-adv-x="1439" 
d="M4 178q0 80 58 137.5t137 57.5t136.5 -57.5t57.5 -137.5t-57.5 -137t-136.5 -57q-80 0 -137.5 57.5t-57.5 136.5zM479 178q0 80 57.5 137.5t137.5 57.5q79 0 136.5 -57.5t57.5 -137.5t-57 -137t-137 -57t-137.5 57.5t-57.5 136.5zM952 178q0 80 58 137.5t137 57.5
t136.5 -57.5t57.5 -137.5t-57.5 -137t-136.5 -57q-80 0 -137.5 57.5t-57.5 136.5z" />
    <glyph glyph-name="perthousand" unicode="&#x2030;" horiz-adv-x="2156" 
d="M41 -102l1284 1564h84l-1284 -1564h-84zM512 1444q142 0 227.5 -75.5t85.5 -219.5q0 -89 -36 -168t-94 -132.5t-131 -84.5t-148 -31q-142 0 -228 75.5t-86 219.5q0 118 61.5 215.5t154.5 149t194 51.5zM416 788q37 0 68 57t48 137.5t26 153t9 117.5q0 136 -55 136
q-36 0 -67 -57t-48.5 -137t-27 -153.5t-9.5 -117.5q0 -136 56 -136zM1077 686q142 0 228 -75.5t86 -219.5q0 -118 -61.5 -215.5t-154.5 -149t-194 -51.5q-142 0 -227.5 75.5t-85.5 219.5q0 89 36 168t94 132.5t131 84.5t148 31zM981 31q37 0 68 57t48 137.5t26.5 153
t9.5 117.5q0 135 -56 135q-47 0 -84 -97.5t-52 -200t-15 -167.5q0 -135 55 -135zM1833 686q142 0 227.5 -75.5t85.5 -219.5q0 -89 -36 -168t-94 -132.5t-131 -84.5t-148 -31q-142 0 -228 75.5t-86 219.5q0 118 61.5 215.5t154.5 149t194 51.5zM1737 31q37 0 68 57t48 137.5
t26 153t9 117.5q0 135 -55 135q-36 0 -67 -57t-48.5 -137t-27 -153.5t-9.5 -117.5q0 -135 56 -135z" />
    <glyph glyph-name="uni2032" unicode="&#x2032;" horiz-adv-x="397" 
d="M211 860l-25 389q-6 103 38 154t130 51q103 0 139 -76.5t-34 -193.5l-209 -328z" />
    <glyph glyph-name="uni2033" unicode="&#x2033;" horiz-adv-x="757" 
d="M211 860l-25 389q-6 103 38 154t130 51q103 0 139 -76.5t-34 -193.5l-209 -328zM571 860l-24 389q-6 103 38 154t130 51q103 0 138.5 -76.5t-34.5 -193.5l-209 -328z" />
    <glyph glyph-name="guilsinglleft" unicode="&#x2039;" horiz-adv-x="512" 
d="M322 113l-285 409v10l438 390h37l-231 -392l77 -417h-36z" />
    <glyph glyph-name="guilsinglright" unicode="&#x203a;" horiz-adv-x="512" 
d="M182 922l285 -410v-10l-438 -389h-37l231 391l-78 418h37z" />
    <glyph glyph-name="fraction" unicode="&#x2044;" horiz-adv-x="628" 
d="M-360 -102l1312 1564h80l-1308 -1564h-84z" />
    <glyph glyph-name="Euro" unicode="&#x20ac;" horiz-adv-x="1310" 
d="M70 780l14 62h115q86 277 299.5 439.5t484.5 162.5q187 0 289 -71t102 -173q0 -75 -45 -117.5t-121 -42.5q-92 0 -136 53.5t-50 184.5q-3 65 -18 89t-58 24q-68 0 -130.5 -78t-107 -199.5t-71.5 -271.5h383l-14 -62h-379q-15 -125 -17 -145h369l-14 -62h-359v-73
q0 -192 75 -273.5t237 -81.5q144 0 262 56l-9 -39q-68 -78 -187 -133.5t-273 -55.5q-270 0 -413.5 139.5t-143.5 407.5q0 35 2 53h-123l14 62h111q9 76 24 145h-112z" />
    <glyph glyph-name="trademark" unicode="&#x2122;" horiz-adv-x="1435" 
d="M662 860l6 27l39 8q27 5 36 15t15 46l63 361q7 37 2.5 49t-28.5 16l-35 9l4 28h319l39 -258h4l138 258h317l-6 -28l-37 -9q-25 -6 -32 -15t-15 -44l-64 -360q-7 -41 -2.5 -52t29.5 -16l35 -8l-6 -27h-371l6 27l33 8q27 5 36 15t15 46l68 381h-2l-254 -475h-70l-72 475h-2
l-67 -374q-7 -41 -3 -52t29 -16l39 -8l-6 -27h-200zM166 860l6 27l47 8q27 5 36 15t15 46l76 422h-8q-28 0 -43 -8t-33 -29q-30 -36 -90 -151h-27l52 229h534l-37 -229h-24q-19 102 -39 151q-15 37 -68 37h-6l-76 -422q-7 -37 -3 -47t30 -14l43 -8l-6 -27h-379z" />
    <glyph glyph-name="onethird" unicode="&#x2153;" horiz-adv-x="1638" 
d="M29 612l6 31l41 12q49 15 61 30.5t23 74.5l76 446l-107 43l6 25q254 29 445 170l22 -10l-117 -680q-10 -54 -1 -70t61 -31l33 -10l-7 -31h-542zM80 -102l1313 1564h80l-1309 -1564h-84zM1151 -18q-142 0 -214.5 44.5t-72.5 114.5q0 42 27.5 71.5t69.5 29.5q71 0 97 -35.5
t36 -124.5q3 -30 12.5 -42.5t32.5 -12.5q42 0 71 67t29 174q0 68 -26 99.5t-85 31.5h-49l8 47h41q97 0 141 57.5t44 178.5q0 100 -62 100q-42 0 -53 -65q-13 -80 -47.5 -113t-95.5 -33q-54 0 -81.5 26.5t-27.5 68.5q0 68 71.5 111.5t225.5 43.5q167 0 265 -53t98 -150
q0 -57 -35.5 -95.5t-87 -56t-121.5 -22.5v-6q213 -25 213 -192q0 -118 -110 -191t-314 -73z" />
    <glyph glyph-name="twothirds" unicode="&#x2154;" horiz-adv-x="1679" 
d="M160 -102l1313 1564h79l-1308 -1564h-84zM1192 -18q-142 0 -214.5 44.5t-72.5 114.5q0 42 27 71.5t69 29.5q71 0 97.5 -35.5t36.5 -124.5q3 -30 12.5 -42.5t32.5 -12.5q42 0 71 67t29 174q0 68 -26 99.5t-85 31.5h-49l8 47h41q97 0 141 57.5t44 178.5q0 100 -62 100
q-42 0 -53 -65q-13 -80 -47.5 -113t-95.5 -33q-54 0 -81.5 26.5t-27.5 68.5q0 68 71.5 111.5t225.5 43.5q167 0 265 -53t98 -150q0 -57 -35.5 -95.5t-87 -56t-121.5 -22.5v-6q213 -25 213 -192q0 -118 -110 -191t-314 -73zM37 612l26 148q132 79 199 135q116 94 175 203
t59 202q0 91 -47 91q-42 0 -48 -68q-10 -95 -45.5 -132.5t-107.5 -37.5q-53 0 -83 27.5t-30 76.5q0 80 87.5 127.5t238.5 47.5q164 0 251 -59t87 -159q0 -54 -22.5 -98.5t-63 -80.5t-109.5 -70.5t-149 -64t-195 -64.5v-5h352q42 0 63.5 18t61.5 85h31l-70 -322h-661z" />
    <glyph glyph-name="oneeighth" unicode="&#x215b;" horiz-adv-x="1638" 
d="M29 612l6 31l41 12q49 15 61 30.5t23 74.5l76 446l-107 43l6 25q254 29 445 170l22 -10l-117 -680q-10 -54 -1 -70t61 -31l33 -10l-7 -31h-542zM96 -102l1313 1564h80l-1309 -1564h-84zM1155 -14q-163 0 -244.5 46.5t-81.5 125.5q0 65 61.5 111t186.5 59v6
q-73 41 -108 89.5t-35 115.5q0 118 111.5 199t279.5 81q143 0 216 -43.5t73 -109.5q0 -135 -217 -152v-4q101 -39 145.5 -90.5t44.5 -134.5q0 -125 -115.5 -212t-316.5 -87zM1184 31q64 0 102.5 29.5t38.5 84.5q0 48 -38.5 79.5t-166.5 86.5q-73 -70 -73 -161q0 -55 36 -87
t101 -32zM1348 530q63 66 63 140q0 104 -115 104q-57 0 -88.5 -28t-31.5 -72q0 -43 36.5 -75t135.5 -69z" />
    <glyph glyph-name="threeeighths" unicode="&#x215c;" horiz-adv-x="1638" 
d="M129 -102l1313 1564h80l-1309 -1564h-84zM1155 -14q-163 0 -244.5 46.5t-81.5 125.5q0 65 61.5 111t186.5 59v6q-73 41 -108 89.5t-35 115.5q0 118 111.5 199t279.5 81q143 0 216 -43.5t73 -109.5q0 -135 -217 -152v-4q101 -39 145.5 -90.5t44.5 -134.5
q0 -125 -115.5 -212t-316.5 -87zM1184 31q64 0 102.5 29.5t38.5 84.5q0 48 -38.5 79.5t-166.5 86.5q-73 -70 -73 -161q0 -55 36 -87t101 -32zM1348 530q63 66 63 140q0 104 -115 104q-57 0 -88.5 -28t-31.5 -72q0 -43 36.5 -75t135.5 -69zM336 594q-142 0 -214.5 45
t-72.5 115q0 42 27 71t69 29q71 0 97.5 -35.5t36.5 -124.5q3 -30 12.5 -42.5t32.5 -12.5q42 0 71 67.5t29 174.5q0 68 -26 99.5t-85 31.5h-49l8 47h41q97 0 141 57t44 178q0 101 -62 101q-42 0 -53 -66q-13 -80 -47.5 -112.5t-95.5 -32.5q-54 0 -81.5 26t-27.5 68
q0 68 71.5 112t225.5 44q167 0 265 -53t98 -150q0 -57 -35.5 -95.5t-87 -56t-121.5 -22.5v-6q213 -25 213 -193q0 -118 -110 -191t-314 -73z" />
    <glyph glyph-name="fiveeighths" unicode="&#x215d;" horiz-adv-x="1638" 
d="M109 -102l1312 1564h80l-1308 -1564h-84zM1155 -14q-163 0 -244.5 46.5t-81.5 125.5q0 65 61.5 111t186.5 59v6q-73 41 -108 89.5t-35 115.5q0 118 111.5 199t279.5 81q143 0 216 -43.5t73 -109.5q0 -135 -217 -152v-4q101 -39 145.5 -90.5t44.5 -134.5
q0 -125 -115.5 -212t-316.5 -87zM1184 31q64 0 102.5 29.5t38.5 84.5q0 48 -38.5 79.5t-166.5 86.5q-73 -70 -73 -161q0 -55 36 -87t101 -32zM1348 530q63 66 63 140q0 104 -115 104q-57 0 -88.5 -28t-31.5 -72q0 -43 36.5 -75t135.5 -69zM319 594q-132 0 -197 38t-65 97
q0 42 26.5 69t70.5 27q49 0 77 -27t37 -89q5 -37 17 -53.5t45 -16.5q44 0 76 41t32 111q0 127 -153 127q-87 0 -146 -25l-20 14l125 512h409q27 0 42 13t42 59h31l-61 -272h-455l-21 -95q95 27 187 27q149 0 227 -65t78 -173q0 -144 -109.5 -231.5t-294.5 -87.5z" />
    <glyph glyph-name="seveneighths" unicode="&#x215e;" horiz-adv-x="1617" 
d="M68 -102l1312 1564h80l-1308 -1564h-84zM1135 -14q-163 0 -244.5 46.5t-81.5 125.5q0 65 61.5 111t186.5 59v6q-73 41 -108.5 89.5t-35.5 115.5q0 118 112 199t280 81q143 0 215.5 -43.5t72.5 -109.5q0 -135 -217 -152v-4q102 -39 146.5 -90.5t44.5 -134.5
q0 -125 -115.5 -212t-316.5 -87zM1163 31q64 0 103 29.5t39 84.5q0 48 -38.5 79.5t-166.5 86.5q-74 -71 -74 -161q0 -55 36 -87t101 -32zM1327 530q64 67 64 140q0 104 -115 104q-57 0 -89 -28t-32 -72q0 -43 36.5 -75t135.5 -69zM131 612q37 99 81 177t109 154t156.5 142.5
t212.5 126.5h-385q-51 0 -71.5 -18.5t-61.5 -91.5h-35l74 317h618l-26 -149q-74 -69 -127 -139.5t-83 -127t-50 -130.5t-27.5 -125t-15.5 -136h-369z" />
    <glyph glyph-name="arrowleft" unicode="&#x2190;" horiz-adv-x="1675" 
d="M1427 512l-694 33l164 -135q101 -84 85 -190q-13 -82 -84 -131q-81 -55 -170 -24q-46 16 -85 54l-586 588v8l588 590q85 83 188 58q80 -20 123 -92q52 -85 10 -174q-23 -46 -69 -85l-164 -135l694 32q129 6 182.5 -96.5t0 -204.5t-182.5 -96z" />
    <glyph glyph-name="arrowright" unicode="&#x2192;" horiz-adv-x="1675" 
d="M954 545l-694 -33q-129 -6 -182.5 96t0 204.5t182.5 96.5l694 -32l-163 135q-101 83 -85 189q12 81 82 131q79 56 168 27q46 -15 86 -54l588 -590v-8l-586 -588q-86 -84 -190 -59q-79 20 -123 91q-51 84 -10 172q22 48 70 87z" />
    <glyph glyph-name="minus" unicode="&#x2212;" horiz-adv-x="993" 
d="M117 674v67h813v-67h-813z" />
    <glyph glyph-name="uni24C5" unicode="&#x24c5;" horiz-adv-x="1576" 
d="M897 342v-35h-448v35l22 6q35 9 45 29t10 90v502q0 64 -10.5 84.5t-44.5 29.5l-22 7v36h413q188 0 282.5 -64.5t94.5 -178.5q0 -121 -71 -193t-203 -72q-63 0 -119 17v27q60 8 84 47.5t24 150.5q0 115 -26 163t-84 48q-23 0 -47 -6v-594q0 -56 5.5 -78.5t16.5 -30
t45 -14.5zM90 705q0 151 56.5 286.5t153.5 234t233 156.5t288 58t288 -58t233 -156.5t153.5 -234t56.5 -286.5q0 -201 -95.5 -369.5t-264 -266.5t-371.5 -98t-371.5 98t-264 266.5t-95.5 369.5zM160 705q0 -184 85 -338.5t237.5 -246t338.5 -91.5t338.5 91.5t237 246
t84.5 338.5q0 138 -50 262.5t-136.5 215.5t-210 145t-263.5 54q-186 0 -338.5 -91.5t-237.5 -246.5t-85 -339z" />
    <glyph glyph-name="square" unicode="&#x25a0;" horiz-adv-x="1896" 
d="M264 0v1419h1422v-1419h-1422z" />
    <glyph glyph-name="squareopen" unicode="&#x25a1;" horiz-adv-x="1896" 
d="M264 0v1419h1422v-1419h-1422zM358 90h1233v1243h-1233v-1243z" />
    <glyph glyph-name="triangleup" unicode="&#x25b2;" horiz-adv-x="1697" 
d="M1491 0h-1495v29l727 1454h41l727 -1454v-29z" />
    <glyph glyph-name="triangleupopen" unicode="&#x25b3;" horiz-adv-x="1636" 
d="M1458 0h-1495v29l737 1454h21l737 -1454v-29zM1327 86l-618 1223l-615 -1223h1233z" />
    <glyph glyph-name="triangleright" unicode="&#x25b6;" horiz-adv-x="1761" 
d="M281 -37v1493h28l1393 -735v-21l-1393 -737h-28z" />
    <glyph glyph-name="trianglerightopen" unicode="&#x25b7;" horiz-adv-x="1761" 
d="M281 -37v1493h28l1393 -735v-21l-1393 -737h-28zM375 92l1165 619l-1165 618v-1237z" />
    <glyph glyph-name="triangledown" unicode="&#x25bc;" horiz-adv-x="1697" 
d="M168 1419h1493v-28l-725 -1454h-41l-727 1454v28z" />
    <glyph glyph-name="triangledownopen" unicode="&#x25bd;" horiz-adv-x="1636" 
d="M137 1419h1493v-28l-735 -1454h-21l-737 1454v28zM268 1333l619 -1222l614 1222h-1233z" />
    <glyph glyph-name="triangleleft" unicode="&#x25c0;" horiz-adv-x="1761" 
d="M1524 1456v-1493h-29l-1393 737v21l1393 735h29z" />
    <glyph glyph-name="triangleleftopen" unicode="&#x25c1;" horiz-adv-x="1761" 
d="M1524 1456v-1493h-29l-1393 737v21l1393 735h29zM264 711l1166 -619v1237z" />
    <glyph glyph-name="circle" unicode="&#x25cb;" horiz-adv-x="1650" 
d="M846 -31q-151 0 -288 59t-236 158.5t-157.5 237t-58.5 287.5q0 202 99 372t269 268.5t372 98.5q201 0 372 -98.5t271 -269t100 -371.5q0 -150 -59 -287.5t-159 -237t-237.5 -158.5t-287.5 -59z" />
    <glyph glyph-name="circleopen" unicode="&#x25cf;" horiz-adv-x="1650" 
d="M846 -31q-151 0 -288 59t-236 158.5t-157.5 237t-58.5 287.5q0 202 99 372t269 268.5t372 98.5q201 0 372 -98.5t271 -269t100 -371.5q0 -150 -59 -287.5t-159 -237t-237.5 -158.5t-287.5 -59zM846 55q176 0 325 89t235.5 240t86.5 327q0 177 -86.5 327.5t-235.5 238
t-325 87.5q-133 0 -252.5 -51.5t-205 -139.5t-135.5 -208.5t-50 -253.5q0 -177 84.5 -327.5t233 -239.5t325.5 -89z" />
    <glyph glyph-name="star" unicode="&#x2605;" horiz-adv-x="1703" 
d="M369 -70l-15 9l197 596l-500 356v16h623l192 596h17l194 -596h621v-16l-498 -356l195 -592l-15 -9l-506 361z" />
    <glyph glyph-name="staropen" unicode="&#x2606;" horiz-adv-x="1703" 
d="M369 -70l-15 9l197 596l-500 356v16h623l192 596h17l194 -596h621v-16l-498 -356l195 -592l-15 -9l-506 361zM492 111l385 286l380 -286l-155 454l389 266h-469l-148 453l-147 -453h-467l387 -266z" />
    <glyph glyph-name="space_uni0326" 
d="M166 -518l-4 22q114 30 178 76t84 119q-13 -14 -39.5 -22.5t-50.5 -8.5q-56 0 -90.5 33.5t-34.5 87.5t45.5 93.5t118.5 39.5q83 0 134.5 -48t51.5 -120q0 -125 -104 -191.5t-289 -80.5z" />
    <glyph glyph-name="caron.alt" 
d="M406 1161l-19 10l74 275q26 102 106 102q47 0 85 -32t38 -78q0 -51 -55 -95z" />
    <glyph glyph-name="space_uni0326.alt" 
d="M705 1585l4 -22q-114 -30 -178.5 -76t-84.5 -119q13 14 40 22.5t51 8.5q56 0 90.5 -33.5t34.5 -87.5t-45.5 -93.5t-118.5 -39.5q-83 0 -135 48t-52 120q0 125 104.5 191.5t289.5 80.5z" />
    <glyph glyph-name="acute.pl" 
d="M412 1155l-19 12l92 281q24 72 58 104.5t82 32.5q58 0 98.5 -38.5t40.5 -94.5q0 -77 -90 -133z" />
    <glyph glyph-name="grave.uc" 
d="M870 1501l-8 -20l-385 53q-60 8 -93.5 43t-33.5 90q0 64 42 109t104 45q66 0 125 -62z" />
    <glyph glyph-name="dieresis.uc" 
d="M412 1473q-81 0 -132 48.5t-51 125.5t51 126.5t132 49.5t132.5 -49.5t51.5 -126.5t-51 -125.5t-133 -48.5zM844 1473q-81 0 -131.5 48.5t-50.5 125.5t50.5 126.5t131.5 49.5t132.5 -49.5t51.5 -126.5t-51 -125.5t-133 -48.5z" />
    <glyph glyph-name="macron.uc" 
d="M340 1546l25 142h589l-24 -142h-590z" />
    <glyph glyph-name="acute.uc" 
d="M381 1481l-8 20l250 258q59 62 125 62q62 0 103.5 -45t41.5 -109q0 -55 -33.5 -90t-93.5 -43z" />
    <glyph glyph-name="circumflex.uc" 
d="M301 1479l-10 22l334 303h129l219 -307l-15 -18l-290 98z" />
    <glyph glyph-name="caron.uc" 
d="M993 1823l11 -23l-334 -303h-129l-219 307l14 19l291 -99z" />
    <glyph glyph-name="breve.uc" 
d="M645 1485q-122 0 -184 83.5t-80 241.5l22 9q37 -67 95 -96t161 -29q169 0 285 125l19 -9q-44 -156 -120.5 -240.5t-197.5 -84.5z" />
    <glyph glyph-name="dotaccent.uc" 
d="M643 1477q-87 0 -144 50t-57 134q0 83 57 133.5t144 50.5q88 0 144.5 -50.5t56.5 -133.5q0 -85 -56.5 -134.5t-144.5 -49.5z" />
    <glyph glyph-name="ring.uc" 
d="M440 1657q0 83 55.5 135.5t139.5 52.5t140 -53t56 -135q0 -78 -56.5 -132.5t-139.5 -54.5q-84 0 -139.5 52.5t-55.5 134.5zM504 1657q0 -59 35.5 -97t95.5 -38t96.5 38.5t36.5 96.5t-36.5 96.5t-96.5 38.5t-95.5 -38t-35.5 -97z" />
    <glyph glyph-name="tilde.uc" 
d="M332 1481l-29 14q64 143 124 215t130 72q53 0 172 -20.5t160 -20.5q35 0 57 18t64 72l26 -14q-66 -150 -120 -218.5t-130 -68.5q-52 0 -170 19.5t-159 19.5q-37 0 -61 -18t-64 -70z" />
    <glyph glyph-name="hungarumlaut.uc" 
d="M373 1479l-15 12l99 256q40 104 114 104q49 0 91.5 -38.5t42.5 -90.5q0 -77 -109 -133zM727 1479l-14 12l98 256q40 104 115 104q49 0 91 -38.5t42 -90.5q0 -77 -109 -133z" />
    <glyph glyph-name="acute.ucpl" 
d="M477 1477l-16 14l90 262q24 67 55.5 97t81.5 30q58 0 97.5 -36t39.5 -89q0 -72 -88 -125z" />
    <glyph glyph-name="Cacute.pl" horiz-adv-x="1290" 
d="M707 -25q-305 0 -475.5 155t-170.5 431q0 166 50 309.5t137.5 247.5t203.5 178.5t249.5 111t275.5 36.5q104 0 199 -15.5t151 -39.5l-45 -471h-37q-53 169 -112 296q-43 94 -85 133t-100 39q-77 0 -147.5 -73.5t-120 -189t-87 -256t-55.5 -277t-18 -248.5
q0 -307 211 -307q68 0 125.5 40.5t120.5 121.5q75 94 205 313h37l-105 -471q-185 -64 -407 -64zM868 1477l-16 14l90 262q24 67 55.5 97t81.5 30q58 0 98 -36t40 -89q0 -71 -89 -125z" />
    <glyph glyph-name="Nacute.pl" horiz-adv-x="1366" 
d="M809 1477l-16 14l90 262q24 67 55.5 97t81.5 30q58 0 97.5 -36t39.5 -89q0 -72 -88 -125zM1163 686l92 518q16 94 3 123t-74 43l-64 14l6 35h385l-8 -35l-51 -12q-63 -13 -81.5 -39.5t-37.5 -128.5l-219 -1204h-123l-620 1194h-9l-176 -979q-17 -95 -5 -123t77 -43
l64 -14l-7 -35h-385l9 35l51 12q42 9 62 24t32.5 46t24.5 98l174 989q15 93 3.5 121.5t-63.5 44.5l-49 14l6 35h586l389 -733h8z" />
    <glyph glyph-name="Oacute.pl" horiz-adv-x="1503" 
d="M872 1477l-16 14l90 262q24 67 55.5 97t81.5 30q58 0 98 -36t40 -89q0 -72 -88 -125zM672 -27q-173 0 -312.5 75.5t-219 211.5t-79.5 307q0 193 65 358t177.5 278.5t265.5 177t326 63.5q178 0 316.5 -66.5t219 -199.5t80.5 -314q0 -209 -68.5 -380.5t-185 -281.5
t-267 -169.5t-318.5 -59.5zM692 31q70 0 135.5 79t113.5 211t77 314.5t29 380.5q0 201 -41 287t-125 86q-101 0 -185 -145.5t-130 -373t-46 -477.5q0 -193 40.5 -277.5t131.5 -84.5z" />
    <glyph glyph-name="Sacute.pl" horiz-adv-x="1138" 
d="M440 -25q-122 0 -240 22.5t-173 57.5l39 422h34q69 -182 121 -282q44 -82 104.5 -122t149.5 -40q102 0 161.5 60t59.5 159q0 81 -51 141.5t-186 128.5q-172 87 -243 187t-71 241q0 97 43 186.5t120 158t191.5 109t248.5 40.5q103 0 210 -21.5t158 -50.5l-39 -381h-35
q-68 169 -122 266q-39 70 -86.5 99.5t-114.5 29.5q-98 0 -155.5 -59.5t-57.5 -150.5q0 -70 57.5 -130t188.5 -128q197 -101 269.5 -194.5t72.5 -238.5q0 -103 -47 -196t-130.5 -162.5t-207.5 -110.5t-269 -41zM655 1477l-16 14l90 262q24 67 55.5 97t81.5 30q58 0 98 -36
t40 -89q0 -71 -89 -125z" />
    <glyph glyph-name="Zacute.pl" horiz-adv-x="1292" 
d="M-57 0l18 72l889 1278v6h-109q-138 0 -198 -24.5t-117 -98.5q-82 -109 -231 -336h-41l106 522h1126l-18 -71l-887 -1274v-8h72q139 0 211 12t115.5 39.5t93.5 89.5q87 106 244 352h36l-123 -559h-1187zM711 1477l-17 14l90 262q24 67 56 97t82 30q58 0 97.5 -36t39.5 -89
q0 -72 -88 -125z" />
    <glyph glyph-name="cacute.pl" horiz-adv-x="1032" 
d="M422 -25q-194 0 -302 100t-108 281q0 120 40.5 235.5t110.5 206.5t160 161t194.5 107.5t207.5 37.5q156 0 237.5 -59t81.5 -148q0 -71 -40 -109t-113 -38q-78 0 -115.5 46t-52.5 162q-5 36 -9 52t-15 27.5t-31 11.5q-35 0 -74.5 -57.5t-72 -148.5t-54 -214.5
t-21.5 -243.5q0 -233 166 -233q152 0 295 137l27 -27q-87 -131 -221.5 -209t-290.5 -78zM643 1155l-18 12l92 281q24 73 57.5 105t81.5 32q58 0 98.5 -38.5t40.5 -94.5q0 -77 -90 -133z" />
    <glyph glyph-name="idotaccent" horiz-adv-x="657" 
d="M221 -27q-89 0 -132.5 43.5t-43.5 120.5q0 66 37 215l106 441q9 35 9 57q0 21 -7 31t-22.5 9.5t-39 -11t-56.5 -31.5l-23 -14l-24 30q107 115 219 175.5t205 60.5q87 0 131.5 -42.5t44.5 -121.5q0 -66 -37 -215l-117 -465q-6 -27 -6 -49q0 -41 31.5 -43t72.5 26l39 25
l25 -31q-83 -92 -198 -151.5t-214 -59.5zM489 1165q-87 0 -145.5 52.5t-58.5 136.5t58 136t146 52t146.5 -52.5t58.5 -135.5q0 -84 -58.5 -136.5t-146.5 -52.5z" />
    <glyph glyph-name="nacute.pl" horiz-adv-x="1269" 
d="M694 1155l-18 12l92 281q24 73 57.5 105t81.5 32q58 0 99 -38.5t41 -94.5q0 -76 -91 -133zM834 -27q-47 0 -80 13t-49.5 35.5t-23.5 46.5t-7 51q0 52 26 184l82 395q14 65 14 102.5t-10 50.5t-30 13q-36 0 -83.5 -39t-80.5 -94l-160 -731h-407l159 793q6 35 6 49
q0 94 -116 10l-23 -16l-26 32q96 106 203 169t208 63q74 0 117 -39t43 -115q0 -57 -16 -139h6q39 55 82 102t99 92.5t123.5 72t137.5 26.5q90 0 142.5 -54t52.5 -155q0 -49 -19 -146l-108 -489q-6 -27 -6 -49q0 -74 92 -21l45 27l22 -31q-90 -94 -203 -151.5t-212 -57.5z
" />
    </font>
</defs>
</svg>
